M48
; DRILL file {KiCad (6.0.5)} date Mon Jun 27 13:36:40 2022
; FORMAT={-:-/ absolute / inch / decimal}
; #@! TF.CreationDate,2022-06-27T13:36:40+02:00
; #@! TF.GenerationSoftware,Kicad,Pcbnew,(6.0.5)
; #@! TF.FileFunction,Plated,1,2,PTH
FMAT,2
INCH
; #@! TA.AperFunction,Plated,PTH,ViaDrill
T1C0.0157
; #@! TA.AperFunction,Plated,PTH,ComponentDrill
T2C0.0264
; #@! TA.AperFunction,Plated,PTH,ComponentDrill
T3C0.0276
; #@! TA.AperFunction,Plated,PTH,ComponentDrill
T4C0.0315
; #@! TA.AperFunction,Plated,PTH,ComponentDrill
T5C0.0394
; #@! TA.AperFunction,Plated,PTH,ComponentDrill
T6C0.0437
; #@! TA.AperFunction,Plated,PTH,ComponentDrill
T7C0.0472
; #@! TA.AperFunction,Plated,PTH,ComponentDrill
T8C0.0512
; #@! TA.AperFunction,Plated,PTH,ComponentDrill
T9C0.0984
%
G90
G05
T1
X1.7Y-4.2
X1.9Y-2.0
X2.0Y-4.2
X2.8Y-4.2
X3.6Y-2.0472
X5.375Y-2.425
X5.7Y-2.0
X6.075Y-2.625
X6.1Y-3.2
X6.2802Y-2.4206
X6.3Y-2.8
X6.5Y-2.9
X6.7Y-2.5
X7.6Y-4.2
X7.9Y-2.5
X8.1Y-1.9
X8.2Y-2.5055
X8.3Y-2.5
X8.4Y-4.4
T2
X8.95Y-3.15
X8.95Y-3.25
X8.95Y-3.45
X8.95Y-3.55
X8.95Y-3.75
X8.95Y-3.85
X8.95Y-4.05
X8.95Y-4.15
X9.25Y-3.15
X9.25Y-3.25
X9.25Y-3.45
X9.25Y-3.55
X9.25Y-3.75
X9.25Y-3.85
X9.25Y-4.05
X9.25Y-4.15
T3
X4.4988Y-3.1472
X4.4988Y-3.3472
X4.4988Y-3.9472
X4.4988Y-4.0472
X5.0988Y-3.1472
X5.0988Y-3.3472
X5.0988Y-3.9472
X5.0988Y-4.0472
X5.0988Y-4.1472
X7.2988Y-3.2472
X7.2988Y-3.4472
X7.2988Y-4.0472
X7.2988Y-4.1472
X7.8988Y-3.2472
X7.8988Y-3.4472
X7.8988Y-4.0472
X7.8988Y-4.1472
X7.8988Y-4.2472
T4
X1.811Y-2.2835
X1.8504Y-3.7496
X1.8504Y-4.0496
X1.9094Y-2.2835
X1.95Y-3.4016
X1.95Y-3.5984
X1.9504Y-3.7496
X1.9504Y-4.0496
X2.0504Y-3.7496
X2.0504Y-4.0496
X2.0866Y-2.2638
X2.0866Y-2.4606
X2.0941Y-3.1
X2.1Y-3.3
X2.1429Y-2.8071
X2.1504Y-3.7496
X2.1504Y-4.0496
X2.1654Y-3.5016
X2.1654Y-3.6
X2.2425Y-2.2575
X2.2425Y-2.5575
X2.2835Y-3.8583
X2.2835Y-4.0551
X2.3425Y-2.2575
X2.3425Y-2.5575
X2.3929Y-2.0071
X2.3941Y-3.1
X2.4Y-3.3
X2.4425Y-2.2575
X2.4425Y-2.5575
X2.4429Y-2.8071
X2.4803Y-3.8976
X2.4803Y-3.9961
X2.5425Y-2.2575
X2.5425Y-2.5575
X2.5929Y-2.7165
X2.5984Y-2.9528
X2.6929Y-2.0071
X2.6969Y-2.9528
X2.7898Y-2.7165
X2.7929Y-2.2571
X2.7929Y-2.5571
X2.9929Y-2.2571
X2.9929Y-2.5571
X2.9929Y-2.7571
X2.9929Y-3.0571
X3.3Y-3.5472
X3.3Y-3.7472
X3.3Y-4.3472
X3.3Y-4.4472
X3.9Y-3.5472
X3.9Y-3.7472
X3.9Y-4.3472
X3.9Y-4.4472
X3.9Y-4.5472
X4.5Y-2.3
X4.8Y-2.3
X4.8Y-2.5
X5.1Y-2.5
X5.9Y-2.3
X5.9Y-2.5
X6.0504Y-3.3004
X6.0504Y-3.4004
X6.0504Y-3.5004
X6.0504Y-3.6004
X6.0504Y-3.7004
X6.0504Y-3.8004
X6.0504Y-3.9004
X6.0504Y-4.0004
X6.0504Y-4.1004
X6.063Y-2.8031
X6.063Y-3.0
X6.2Y-2.3
X6.2Y-2.5
X6.3504Y-3.3004
X6.3504Y-3.4004
X6.3504Y-3.5004
X6.3504Y-3.6004
X6.3504Y-3.7004
X6.3504Y-3.8004
X6.3504Y-3.9004
X6.3504Y-4.0004
X6.3504Y-4.1004
X6.5Y-3.3016
X6.5Y-3.4984
X6.6142Y-2.7165
X6.6142Y-2.815
X6.8Y-3.4
X6.8Y-3.4984
X7.5787Y-2.7953
X7.7756Y-2.7953
X7.9528Y-2.874
X8.0512Y-2.874
X8.4Y-3.4
X8.4Y-3.7
X8.7Y-3.7
X8.7Y-4.0
T5
X5.65Y-2.8
X5.65Y-2.9
X5.65Y-3.0
X5.65Y-3.1
X5.65Y-3.2
X5.65Y-3.3
X5.65Y-3.4
X5.65Y-3.5
X5.65Y-3.6
X5.65Y-3.7
X5.65Y-3.8
X5.65Y-3.9
X5.65Y-4.0
X5.65Y-4.1
X5.65Y-4.2
X5.65Y-4.3
X5.65Y-4.4
X5.65Y-4.5
X5.65Y-4.6
X5.65Y-4.7
X5.75Y-2.8
X5.75Y-2.9
X5.75Y-3.0
X5.75Y-3.1
X5.75Y-3.2
X5.75Y-3.3
X5.75Y-3.4
X5.75Y-3.5
X5.75Y-3.6
X5.75Y-3.7
X5.75Y-3.8
X5.75Y-3.9
X5.75Y-4.0
X5.75Y-4.1
X5.75Y-4.2
X5.75Y-4.3
X5.75Y-4.4
X5.75Y-4.5
X5.75Y-4.6
X5.75Y-4.7
X6.2998Y-4.4796
X6.2998Y-4.5796
X6.3998Y-4.4796
X6.3998Y-4.5796
X6.4998Y-4.4796
X6.4998Y-4.5796
T6
X3.34Y-2.165
X3.34Y-2.265
X3.34Y-2.365
X3.34Y-2.465
X3.34Y-2.565
X3.34Y-2.665
X3.34Y-2.765
X3.34Y-2.865
X3.34Y-2.965
X3.34Y-3.065
X8.6Y-1.95
X8.6Y-2.05
X8.6Y-2.15
X8.6Y-2.25
X8.6Y-2.35
X8.6Y-2.45
X8.6Y-2.55
X8.6Y-2.65
X8.6Y-2.75
X8.6Y-2.85
T7
X7.3Y-2.2
X8.1Y-2.2
T8
X2.1833Y-4.6577
X2.3833Y-4.6577
X4.7Y-4.7
X4.9Y-4.7
X7.5Y-4.7
X7.7Y-4.7
X8.9Y-4.7
X9.1Y-4.7
T9
X3.83Y-2.165
X3.83Y-3.065
X9.09Y-1.95
X9.09Y-2.85
T0
M30
