  0
SECTION
  2
BLOCKS
  0
ENDSEC
  0
SECTION
  2
ENTITIES
  0
LINE
  8
0
 10
524.523
 20
0.0228424
 11
525.042
 21
0.091156
  0
LINE
  8
0
 10
525.042
 20
0.091156
 11
525.553
 21
0.204453
  0
LINE
  8
0
 10
525.553
 20
0.204453
 11
526.052
 21
0.361847
  0
LINE
  8
0
 10
526.052
 20
0.361847
 11
526.536
 21
0.562164
  0
LINE
  8
0
 10
526.536
 20
0.562164
 11
527
 21
0.803848
  0
LINE
  8
0
 10
527
 20
0.803848
 11
527.441
 21
1.0851
  0
LINE
  8
0
 10
527.441
 20
1.0851
 11
527.857
 21
1.40375
  0
LINE
  8
0
 10
527.857
 20
1.40375
 11
528.243
 21
1.75737
  0
LINE
  8
0
 10
528.243
 20
1.75737
 11
528.596
 21
2.14328
  0
LINE
  8
0
 10
528.596
 20
2.14328
 11
528.915
 21
2.55855
  0
LINE
  8
0
 10
528.915
 20
2.55855
 11
529.196
 21
3
  0
LINE
  8
0
 10
529.196
 20
3
 11
529.438
 21
3.46429
  0
LINE
  8
0
 10
529.438
 20
3.46429
 11
529.638
 21
3.94789
  0
LINE
  8
0
 10
529.638
 20
3.94789
 11
529.796
 21
4.4471
  0
LINE
  8
0
 10
529.796
 20
4.4471
 11
529.909
 21
4.95811
  0
LINE
  8
0
 10
529.909
 20
4.95811
 11
529.977
 21
5.47707
  0
LINE
  8
0
 10
529.977
 20
5.47707
 11
530
 21
6
  0
LINE
  8
0
 10
530
 20
6
 11
530
 21
30
  0
LINE
  8
0
 10
530
 20
30
 11
501
 21
30
  0
LINE
  8
0
 10
501
 20
30
 11
500.478
 21
30.0342
  0
LINE
  8
0
 10
500.478
 20
30.0342
 11
499.965
 21
30.1363
  0
LINE
  8
0
 10
499.965
 20
30.1363
 11
499.469
 21
30.3045
  0
LINE
  8
0
 10
499.469
 20
30.3045
 11
499
 21
30.5359
  0
LINE
  8
0
 10
499
 20
30.5359
 11
498.565
 21
30.8266
  0
LINE
  8
0
 10
498.565
 20
30.8266
 11
498.172
 21
31.1716
  0
LINE
  8
0
 10
498.172
 20
31.1716
 11
497.827
 21
31.565
  0
LINE
  8
0
 10
497.827
 20
31.565
 11
497.536
 21
32
  0
LINE
  8
0
 10
497.536
 20
32
 11
497.304
 21
32.4693
  0
LINE
  8
0
 10
497.304
 20
32.4693
 11
497.136
 21
32.9647
  0
LINE
  8
0
 10
497.136
 20
32.9647
 11
497.034
 21
33.4779
  0
LINE
  8
0
 10
497.034
 20
33.4779
 11
497
 21
34
  0
LINE
  8
0
 10
497
 20
34
 11
497
 21
181
  0
LINE
  8
0
 10
497
 20
181
 11
497.034
 21
181.522
  0
LINE
  8
0
 10
497.034
 20
181.522
 11
497.136
 21
182.035
  0
LINE
  8
0
 10
497.136
 20
182.035
 11
497.304
 21
182.531
  0
LINE
  8
0
 10
497.304
 20
182.531
 11
497.536
 21
183
  0
LINE
  8
0
 10
497.536
 20
183
 11
497.827
 21
183.435
  0
LINE
  8
0
 10
497.827
 20
183.435
 11
498.172
 21
183.828
  0
LINE
  8
0
 10
498.172
 20
183.828
 11
498.565
 21
184.173
  0
LINE
  8
0
 10
498.565
 20
184.173
 11
499
 21
184.464
  0
LINE
  8
0
 10
499
 20
184.464
 11
499.469
 21
184.696
  0
LINE
  8
0
 10
499.469
 20
184.696
 11
499.965
 21
184.864
  0
LINE
  8
0
 10
499.965
 20
184.864
 11
500.478
 21
184.966
  0
LINE
  8
0
 10
500.478
 20
184.966
 11
501
 21
185
  0
LINE
  8
0
 10
501
 20
185
 11
530
 21
185
  0
LINE
  8
0
 10
530
 20
185
 11
530
 21
209
  0
LINE
  8
0
 10
530
 20
209
 11
529.977
 21
209.523
  0
LINE
  8
0
 10
529.977
 20
209.523
 11
529.909
 21
210.042
  0
LINE
  8
0
 10
529.909
 20
210.042
 11
529.796
 21
210.553
  0
LINE
  8
0
 10
529.796
 20
210.553
 11
529.638
 21
211.052
  0
LINE
  8
0
 10
529.638
 20
211.052
 11
529.438
 21
211.536
  0
LINE
  8
0
 10
529.438
 20
211.536
 11
529.196
 21
212
  0
LINE
  8
0
 10
529.196
 20
212
 11
528.915
 21
212.441
  0
LINE
  8
0
 10
528.915
 20
212.441
 11
528.596
 21
212.857
  0
LINE
  8
0
 10
528.596
 20
212.857
 11
528.243
 21
213.243
  0
LINE
  8
0
 10
528.243
 20
213.243
 11
527.857
 21
213.596
  0
LINE
  8
0
 10
527.857
 20
213.596
 11
527.441
 21
213.915
  0
LINE
  8
0
 10
527.441
 20
213.915
 11
527
 21
214.196
  0
LINE
  8
0
 10
527
 20
214.196
 11
526.536
 21
214.438
  0
LINE
  8
0
 10
526.536
 20
214.438
 11
526.052
 21
214.638
  0
LINE
  8
0
 10
526.052
 20
214.638
 11
525.553
 21
214.796
  0
LINE
  8
0
 10
525.553
 20
214.796
 11
525.042
 21
214.909
  0
LINE
  8
0
 10
525.042
 20
214.909
 11
524.523
 21
214.977
  0
LINE
  8
0
 10
524.523
 20
214.977
 11
524
 21
215
  0
LINE
  8
0
 10
524
 20
215
 11
6
 21
215
  0
LINE
  8
0
 10
6
 20
215
 11
5.47707
 21
214.977
  0
LINE
  8
0
 10
5.47707
 20
214.977
 11
4.95811
 21
214.909
  0
LINE
  8
0
 10
4.95811
 20
214.909
 11
4.4471
 21
214.796
  0
LINE
  8
0
 10
4.4471
 20
214.796
 11
3.94789
 21
214.638
  0
LINE
  8
0
 10
3.94789
 20
214.638
 11
3.46429
 21
214.438
  0
LINE
  8
0
 10
3.46429
 20
214.438
 11
3
 21
214.196
  0
LINE
  8
0
 10
3
 20
214.196
 11
2.55855
 21
213.915
  0
LINE
  8
0
 10
2.55855
 20
213.915
 11
2.14328
 21
213.596
  0
LINE
  8
0
 10
2.14328
 20
213.596
 11
1.75737
 21
213.243
  0
LINE
  8
0
 10
1.75737
 20
213.243
 11
1.40375
 21
212.857
  0
LINE
  8
0
 10
1.40375
 20
212.857
 11
1.0851
 21
212.441
  0
LINE
  8
0
 10
1.0851
 20
212.441
 11
0.803848
 21
212
  0
LINE
  8
0
 10
0.803848
 20
212
 11
0.562164
 21
211.536
  0
LINE
  8
0
 10
0.562164
 20
211.536
 11
0.361847
 21
211.052
  0
LINE
  8
0
 10
0.361847
 20
211.052
 11
0.204453
 21
210.553
  0
LINE
  8
0
 10
0.204453
 20
210.553
 11
0.091156
 21
210.042
  0
LINE
  8
0
 10
0.091156
 20
210.042
 11
0.0228424
 21
209.523
  0
LINE
  8
0
 10
0.0228424
 20
209.523
 11
0
 21
209
  0
LINE
  8
0
 10
0
 20
209
 11
0
 21
185
  0
LINE
  8
0
 10
0
 20
185
 11
29
 21
185
  0
LINE
  8
0
 10
29
 20
185
 11
29.5221
 21
184.966
  0
LINE
  8
0
 10
29.5221
 20
184.966
 11
30.0353
 21
184.864
  0
LINE
  8
0
 10
30.0353
 20
184.864
 11
30.5307
 21
184.696
  0
LINE
  8
0
 10
30.5307
 20
184.696
 11
31
 21
184.464
  0
LINE
  8
0
 10
31
 20
184.464
 11
31.435
 21
184.173
  0
LINE
  8
0
 10
31.435
 20
184.173
 11
31.8284
 21
183.828
  0
LINE
  8
0
 10
31.8284
 20
183.828
 11
32.1734
 21
183.435
  0
LINE
  8
0
 10
32.1734
 20
183.435
 11
32.4641
 21
183
  0
LINE
  8
0
 10
32.4641
 20
183
 11
32.6955
 21
182.531
  0
LINE
  8
0
 10
32.6955
 20
182.531
 11
32.8637
 21
182.035
  0
LINE
  8
0
 10
32.8637
 20
182.035
 11
32.9658
 21
181.522
  0
LINE
  8
0
 10
32.9658
 20
181.522
 11
33
 21
181
  0
LINE
  8
0
 10
33
 20
181
 11
33
 21
34
  0
LINE
  8
0
 10
33
 20
34
 11
32.9658
 21
33.4779
  0
LINE
  8
0
 10
32.9658
 20
33.4779
 11
32.8637
 21
32.9647
  0
LINE
  8
0
 10
32.8637
 20
32.9647
 11
32.6955
 21
32.4693
  0
LINE
  8
0
 10
32.6955
 20
32.4693
 11
32.4641
 21
32
  0
LINE
  8
0
 10
32.4641
 20
32
 11
32.1734
 21
31.565
  0
LINE
  8
0
 10
32.1734
 20
31.565
 11
31.8284
 21
31.1716
  0
LINE
  8
0
 10
31.8284
 20
31.1716
 11
31.435
 21
30.8266
  0
LINE
  8
0
 10
31.435
 20
30.8266
 11
31
 21
30.5359
  0
LINE
  8
0
 10
31
 20
30.5359
 11
30.5307
 21
30.3045
  0
LINE
  8
0
 10
30.5307
 20
30.3045
 11
30.0353
 21
30.1363
  0
LINE
  8
0
 10
30.0353
 20
30.1363
 11
29.5221
 21
30.0342
  0
LINE
  8
0
 10
29.5221
 20
30.0342
 11
29
 21
30
  0
LINE
  8
0
 10
29
 20
30
 11
0
 21
30
  0
LINE
  8
0
 10
0
 20
30
 11
0
 21
6
  0
LINE
  8
0
 10
0
 20
6
 11
0.0228424
 21
5.47707
  0
LINE
  8
0
 10
0.0228424
 20
5.47707
 11
0.091156
 21
4.95811
  0
LINE
  8
0
 10
0.091156
 20
4.95811
 11
0.204453
 21
4.4471
  0
LINE
  8
0
 10
0.204453
 20
4.4471
 11
0.361847
 21
3.94789
  0
LINE
  8
0
 10
0.361847
 20
3.94789
 11
0.562164
 21
3.46429
  0
LINE
  8
0
 10
0.562164
 20
3.46429
 11
0.803848
 21
3
  0
LINE
  8
0
 10
0.803848
 20
3
 11
1.0851
 21
2.55855
  0
LINE
  8
0
 10
1.0851
 20
2.55855
 11
1.40375
 21
2.14328
  0
LINE
  8
0
 10
1.40375
 20
2.14328
 11
1.75737
 21
1.75737
  0
LINE
  8
0
 10
1.75737
 20
1.75737
 11
2.14328
 21
1.40375
  0
LINE
  8
0
 10
2.14328
 20
1.40375
 11
2.55855
 21
1.0851
  0
LINE
  8
0
 10
2.55855
 20
1.0851
 11
3
 21
0.803848
  0
LINE
  8
0
 10
3
 20
0.803848
 11
3.46429
 21
0.562164
  0
LINE
  8
0
 10
3.46429
 20
0.562164
 11
3.94789
 21
0.361847
  0
LINE
  8
0
 10
3.94789
 20
0.361847
 11
4.4471
 21
0.204453
  0
LINE
  8
0
 10
4.4471
 20
0.204453
 11
4.95811
 21
0.091156
  0
LINE
  8
0
 10
4.95811
 20
0.091156
 11
5.47707
 21
0.0228424
  0
LINE
  8
0
 10
5.47707
 20
0.0228424
 11
6
 21
0
  0
LINE
  8
0
 10
6
 20
0
 11
524
 21
0
  0
LINE
  8
0
 10
524
 20
0
 11
524.523
 21
0.0228424
  0
LINE
  8
0
 10
14.7523
 20
197.01
 11
14.2635
 21
197.092
  0
LINE
  8
0
 10
14.2635
 20
197.092
 11
13.7949
 21
197.253
  0
LINE
  8
0
 10
13.7949
 20
197.253
 11
13.3591
 21
197.488
  0
LINE
  8
0
 10
13.3591
 20
197.488
 11
12.9682
 21
197.793
  0
LINE
  8
0
 10
12.9682
 20
197.793
 11
12.6326
 21
198.157
  0
LINE
  8
0
 10
12.6326
 20
198.157
 11
12.3616
 21
198.572
  0
LINE
  8
0
 10
12.3616
 20
198.572
 11
12.1625
 21
199.026
  0
LINE
  8
0
 10
12.1625
 20
199.026
 11
12.0409
 21
199.506
  0
LINE
  8
0
 10
12.0409
 20
199.506
 11
12
 21
200
  0
LINE
  8
0
 10
12
 20
200
 11
12.0409
 21
200.494
  0
LINE
  8
0
 10
12.0409
 20
200.494
 11
12.1625
 21
200.974
  0
LINE
  8
0
 10
12.1625
 20
200.974
 11
12.3616
 21
201.428
  0
LINE
  8
0
 10
12.3616
 20
201.428
 11
12.6326
 21
201.843
  0
LINE
  8
0
 10
12.6326
 20
201.843
 11
12.9682
 21
202.207
  0
LINE
  8
0
 10
12.9682
 20
202.207
 11
13.3591
 21
202.511
  0
LINE
  8
0
 10
13.3591
 20
202.511
 11
13.7949
 21
202.747
  0
LINE
  8
0
 10
13.7949
 20
202.747
 11
14.2635
 21
202.908
  0
LINE
  8
0
 10
14.2635
 20
202.908
 11
14.7523
 21
202.99
  0
LINE
  8
0
 10
14.7523
 20
202.99
 11
15.2477
 21
202.99
  0
LINE
  8
0
 10
15.2477
 20
202.99
 11
15.7365
 21
202.908
  0
LINE
  8
0
 10
15.7365
 20
202.908
 11
16.2051
 21
202.747
  0
LINE
  8
0
 10
16.2051
 20
202.747
 11
16.6408
 21
202.511
  0
LINE
  8
0
 10
16.6408
 20
202.511
 11
17.0318
 21
202.207
  0
LINE
  8
0
 10
17.0318
 20
202.207
 11
17.3674
 21
201.843
  0
LINE
  8
0
 10
17.3674
 20
201.843
 11
17.6384
 21
201.428
  0
LINE
  8
0
 10
17.6384
 20
201.428
 11
17.8374
 21
200.974
  0
LINE
  8
0
 10
17.8374
 20
200.974
 11
17.9591
 21
200.494
  0
LINE
  8
0
 10
17.9591
 20
200.494
 11
18
 21
200
  0
LINE
  8
0
 10
18
 20
200
 11
17.9591
 21
199.506
  0
LINE
  8
0
 10
17.9591
 20
199.506
 11
17.8374
 21
199.026
  0
LINE
  8
0
 10
17.8374
 20
199.026
 11
17.6384
 21
198.572
  0
LINE
  8
0
 10
17.6384
 20
198.572
 11
17.3674
 21
198.157
  0
LINE
  8
0
 10
17.3674
 20
198.157
 11
17.0318
 21
197.793
  0
LINE
  8
0
 10
17.0318
 20
197.793
 11
16.6408
 21
197.488
  0
LINE
  8
0
 10
16.6408
 20
197.488
 11
16.2051
 21
197.253
  0
LINE
  8
0
 10
16.2051
 20
197.253
 11
15.7365
 21
197.092
  0
LINE
  8
0
 10
15.7365
 20
197.092
 11
15.2477
 21
197.01
  0
LINE
  8
0
 10
15.2477
 20
197.01
 11
14.7523
 21
197.01
  0
LINE
  8
0
 10
514.752
 20
197.01
 11
514.264
 21
197.092
  0
LINE
  8
0
 10
514.264
 20
197.092
 11
513.795
 21
197.253
  0
LINE
  8
0
 10
513.795
 20
197.253
 11
513.359
 21
197.488
  0
LINE
  8
0
 10
513.359
 20
197.488
 11
512.968
 21
197.793
  0
LINE
  8
0
 10
512.968
 20
197.793
 11
512.633
 21
198.157
  0
LINE
  8
0
 10
512.633
 20
198.157
 11
512.362
 21
198.572
  0
LINE
  8
0
 10
512.362
 20
198.572
 11
512.163
 21
199.026
  0
LINE
  8
0
 10
512.163
 20
199.026
 11
512.041
 21
199.506
  0
LINE
  8
0
 10
512.041
 20
199.506
 11
512
 21
200
  0
LINE
  8
0
 10
512
 20
200
 11
512.041
 21
200.494
  0
LINE
  8
0
 10
512.041
 20
200.494
 11
512.163
 21
200.974
  0
LINE
  8
0
 10
512.163
 20
200.974
 11
512.362
 21
201.428
  0
LINE
  8
0
 10
512.362
 20
201.428
 11
512.633
 21
201.843
  0
LINE
  8
0
 10
512.633
 20
201.843
 11
512.968
 21
202.207
  0
LINE
  8
0
 10
512.968
 20
202.207
 11
513.359
 21
202.511
  0
LINE
  8
0
 10
513.359
 20
202.511
 11
513.795
 21
202.747
  0
LINE
  8
0
 10
513.795
 20
202.747
 11
514.264
 21
202.908
  0
LINE
  8
0
 10
514.264
 20
202.908
 11
514.752
 21
202.99
  0
LINE
  8
0
 10
514.752
 20
202.99
 11
515.248
 21
202.99
  0
LINE
  8
0
 10
515.248
 20
202.99
 11
515.736
 21
202.908
  0
LINE
  8
0
 10
515.736
 20
202.908
 11
516.205
 21
202.747
  0
LINE
  8
0
 10
516.205
 20
202.747
 11
516.641
 21
202.511
  0
LINE
  8
0
 10
516.641
 20
202.511
 11
517.032
 21
202.207
  0
LINE
  8
0
 10
517.032
 20
202.207
 11
517.367
 21
201.843
  0
LINE
  8
0
 10
517.367
 20
201.843
 11
517.638
 21
201.428
  0
LINE
  8
0
 10
517.638
 20
201.428
 11
517.837
 21
200.974
  0
LINE
  8
0
 10
517.837
 20
200.974
 11
517.959
 21
200.494
  0
LINE
  8
0
 10
517.959
 20
200.494
 11
518
 21
200
  0
LINE
  8
0
 10
518
 20
200
 11
517.959
 21
199.506
  0
LINE
  8
0
 10
517.959
 20
199.506
 11
517.837
 21
199.026
  0
LINE
  8
0
 10
517.837
 20
199.026
 11
517.638
 21
198.572
  0
LINE
  8
0
 10
517.638
 20
198.572
 11
517.367
 21
198.157
  0
LINE
  8
0
 10
517.367
 20
198.157
 11
517.032
 21
197.793
  0
LINE
  8
0
 10
517.032
 20
197.793
 11
516.641
 21
197.488
  0
LINE
  8
0
 10
516.641
 20
197.488
 11
516.205
 21
197.253
  0
LINE
  8
0
 10
516.205
 20
197.253
 11
515.736
 21
197.092
  0
LINE
  8
0
 10
515.736
 20
197.092
 11
515.248
 21
197.01
  0
LINE
  8
0
 10
515.248
 20
197.01
 11
514.752
 21
197.01
  0
LINE
  8
0
 10
165.377
 20
197.01
 11
164.889
 21
197.092
  0
LINE
  8
0
 10
164.889
 20
197.092
 11
164.42
 21
197.253
  0
LINE
  8
0
 10
164.42
 20
197.253
 11
163.984
 21
197.488
  0
LINE
  8
0
 10
163.984
 20
197.488
 11
163.593
 21
197.793
  0
LINE
  8
0
 10
163.593
 20
197.793
 11
163.258
 21
198.157
  0
LINE
  8
0
 10
163.258
 20
198.157
 11
162.987
 21
198.572
  0
LINE
  8
0
 10
162.987
 20
198.572
 11
162.788
 21
199.026
  0
LINE
  8
0
 10
162.788
 20
199.026
 11
162.666
 21
199.506
  0
LINE
  8
0
 10
162.666
 20
199.506
 11
162.625
 21
200
  0
LINE
  8
0
 10
162.625
 20
200
 11
162.666
 21
200.494
  0
LINE
  8
0
 10
162.666
 20
200.494
 11
162.788
 21
200.974
  0
LINE
  8
0
 10
162.788
 20
200.974
 11
162.987
 21
201.428
  0
LINE
  8
0
 10
162.987
 20
201.428
 11
163.258
 21
201.843
  0
LINE
  8
0
 10
163.258
 20
201.843
 11
163.593
 21
202.207
  0
LINE
  8
0
 10
163.593
 20
202.207
 11
163.984
 21
202.511
  0
LINE
  8
0
 10
163.984
 20
202.511
 11
164.42
 21
202.747
  0
LINE
  8
0
 10
164.42
 20
202.747
 11
164.889
 21
202.908
  0
LINE
  8
0
 10
164.889
 20
202.908
 11
165.377
 21
202.99
  0
LINE
  8
0
 10
165.377
 20
202.99
 11
165.873
 21
202.99
  0
LINE
  8
0
 10
165.873
 20
202.99
 11
166.361
 21
202.908
  0
LINE
  8
0
 10
166.361
 20
202.908
 11
166.83
 21
202.747
  0
LINE
  8
0
 10
166.83
 20
202.747
 11
167.266
 21
202.511
  0
LINE
  8
0
 10
167.266
 20
202.511
 11
167.657
 21
202.207
  0
LINE
  8
0
 10
167.657
 20
202.207
 11
167.992
 21
201.843
  0
LINE
  8
0
 10
167.992
 20
201.843
 11
168.263
 21
201.428
  0
LINE
  8
0
 10
168.263
 20
201.428
 11
168.462
 21
200.974
  0
LINE
  8
0
 10
168.462
 20
200.974
 11
168.584
 21
200.494
  0
LINE
  8
0
 10
168.584
 20
200.494
 11
168.625
 21
200
  0
LINE
  8
0
 10
168.625
 20
200
 11
168.584
 21
199.506
  0
LINE
  8
0
 10
168.584
 20
199.506
 11
168.462
 21
199.026
  0
LINE
  8
0
 10
168.462
 20
199.026
 11
168.263
 21
198.572
  0
LINE
  8
0
 10
168.263
 20
198.572
 11
167.992
 21
198.157
  0
LINE
  8
0
 10
167.992
 20
198.157
 11
167.657
 21
197.793
  0
LINE
  8
0
 10
167.657
 20
197.793
 11
167.266
 21
197.488
  0
LINE
  8
0
 10
167.266
 20
197.488
 11
166.83
 21
197.253
  0
LINE
  8
0
 10
166.83
 20
197.253
 11
166.361
 21
197.092
  0
LINE
  8
0
 10
166.361
 20
197.092
 11
165.873
 21
197.01
  0
LINE
  8
0
 10
165.873
 20
197.01
 11
165.377
 21
197.01
  0
LINE
  8
0
 10
95.3974
 20
185.626
 11
94.9841
 21
185.896
  0
LINE
  8
0
 10
94.9841
 20
185.896
 11
94.6808
 21
186.286
  0
LINE
  8
0
 10
94.6808
 20
186.286
 11
94.5204
 21
186.753
  0
LINE
  8
0
 10
94.5204
 20
186.753
 11
94.5204
 21
187.247
  0
LINE
  8
0
 10
94.5204
 20
187.247
 11
94.6808
 21
187.714
  0
LINE
  8
0
 10
94.6808
 20
187.714
 11
94.9841
 21
188.104
  0
LINE
  8
0
 10
94.9841
 20
188.104
 11
95.3974
 21
188.374
  0
LINE
  8
0
 10
95.3974
 20
188.374
 11
95.8761
 21
188.495
  0
LINE
  8
0
 10
95.8761
 20
188.495
 11
96.3682
 21
188.454
  0
LINE
  8
0
 10
96.3682
 20
188.454
 11
96.8204
 21
188.256
  0
LINE
  8
0
 10
96.8204
 20
188.256
 11
97.1837
 21
187.921
  0
LINE
  8
0
 10
97.1837
 20
187.921
 11
97.4187
 21
187.487
  0
LINE
  8
0
 10
97.4187
 20
187.487
 11
97.5
 21
187
  0
LINE
  8
0
 10
97.5
 20
187
 11
97.4187
 21
186.513
  0
LINE
  8
0
 10
97.4187
 20
186.513
 11
97.1837
 21
186.079
  0
LINE
  8
0
 10
97.1837
 20
186.079
 11
96.8204
 21
185.744
  0
LINE
  8
0
 10
96.8204
 20
185.744
 11
96.3682
 21
185.546
  0
LINE
  8
0
 10
96.3682
 20
185.546
 11
95.8761
 21
185.505
  0
LINE
  8
0
 10
95.8761
 20
185.505
 11
95.3974
 21
185.626
  0
LINE
  8
0
 10
199.397
 20
185.626
 11
198.984
 21
185.896
  0
LINE
  8
0
 10
198.984
 20
185.896
 11
198.681
 21
186.286
  0
LINE
  8
0
 10
198.681
 20
186.286
 11
198.52
 21
186.753
  0
LINE
  8
0
 10
198.52
 20
186.753
 11
198.52
 21
187.247
  0
LINE
  8
0
 10
198.52
 20
187.247
 11
198.681
 21
187.714
  0
LINE
  8
0
 10
198.681
 20
187.714
 11
198.984
 21
188.104
  0
LINE
  8
0
 10
198.984
 20
188.104
 11
199.397
 21
188.374
  0
LINE
  8
0
 10
199.397
 20
188.374
 11
199.876
 21
188.495
  0
LINE
  8
0
 10
199.876
 20
188.495
 11
200.368
 21
188.454
  0
LINE
  8
0
 10
200.368
 20
188.454
 11
200.82
 21
188.256
  0
LINE
  8
0
 10
200.82
 20
188.256
 11
201.184
 21
187.921
  0
LINE
  8
0
 10
201.184
 20
187.921
 11
201.419
 21
187.487
  0
LINE
  8
0
 10
201.419
 20
187.487
 11
201.5
 21
187
  0
LINE
  8
0
 10
201.5
 20
187
 11
201.419
 21
186.513
  0
LINE
  8
0
 10
201.419
 20
186.513
 11
201.184
 21
186.079
  0
LINE
  8
0
 10
201.184
 20
186.079
 11
200.82
 21
185.744
  0
LINE
  8
0
 10
200.82
 20
185.744
 11
200.368
 21
185.546
  0
LINE
  8
0
 10
200.368
 20
185.546
 11
199.876
 21
185.505
  0
LINE
  8
0
 10
199.876
 20
185.505
 11
199.397
 21
185.626
  0
LINE
  8
0
 10
349.397
 20
185.626
 11
348.984
 21
185.896
  0
LINE
  8
0
 10
348.984
 20
185.896
 11
348.681
 21
186.286
  0
LINE
  8
0
 10
348.681
 20
186.286
 11
348.52
 21
186.753
  0
LINE
  8
0
 10
348.52
 20
186.753
 11
348.52
 21
187.247
  0
LINE
  8
0
 10
348.52
 20
187.247
 11
348.681
 21
187.714
  0
LINE
  8
0
 10
348.681
 20
187.714
 11
348.984
 21
188.104
  0
LINE
  8
0
 10
348.984
 20
188.104
 11
349.397
 21
188.374
  0
LINE
  8
0
 10
349.397
 20
188.374
 11
349.876
 21
188.495
  0
LINE
  8
0
 10
349.876
 20
188.495
 11
350.368
 21
188.454
  0
LINE
  8
0
 10
350.368
 20
188.454
 11
350.82
 21
188.256
  0
LINE
  8
0
 10
350.82
 20
188.256
 11
351.184
 21
187.921
  0
LINE
  8
0
 10
351.184
 20
187.921
 11
351.419
 21
187.487
  0
LINE
  8
0
 10
351.419
 20
187.487
 11
351.5
 21
187
  0
LINE
  8
0
 10
351.5
 20
187
 11
351.419
 21
186.513
  0
LINE
  8
0
 10
351.419
 20
186.513
 11
351.184
 21
186.079
  0
LINE
  8
0
 10
351.184
 20
186.079
 11
350.82
 21
185.744
  0
LINE
  8
0
 10
350.82
 20
185.744
 11
350.368
 21
185.546
  0
LINE
  8
0
 10
350.368
 20
185.546
 11
349.876
 21
185.505
  0
LINE
  8
0
 10
349.876
 20
185.505
 11
349.397
 21
185.626
  0
LINE
  8
0
 10
89.3974
 20
185.626
 11
88.9841
 21
185.896
  0
LINE
  8
0
 10
88.9841
 20
185.896
 11
88.6808
 21
186.286
  0
LINE
  8
0
 10
88.6808
 20
186.286
 11
88.5204
 21
186.753
  0
LINE
  8
0
 10
88.5204
 20
186.753
 11
88.5204
 21
187.247
  0
LINE
  8
0
 10
88.5204
 20
187.247
 11
88.6808
 21
187.714
  0
LINE
  8
0
 10
88.6808
 20
187.714
 11
88.9841
 21
188.104
  0
LINE
  8
0
 10
88.9841
 20
188.104
 11
89.3974
 21
188.374
  0
LINE
  8
0
 10
89.3974
 20
188.374
 11
89.8761
 21
188.495
  0
LINE
  8
0
 10
89.8761
 20
188.495
 11
90.3682
 21
188.454
  0
LINE
  8
0
 10
90.3682
 20
188.454
 11
90.8204
 21
188.256
  0
LINE
  8
0
 10
90.8204
 20
188.256
 11
91.1837
 21
187.921
  0
LINE
  8
0
 10
91.1837
 20
187.921
 11
91.4187
 21
187.487
  0
LINE
  8
0
 10
91.4187
 20
187.487
 11
91.5
 21
187
  0
LINE
  8
0
 10
91.5
 20
187
 11
91.4187
 21
186.513
  0
LINE
  8
0
 10
91.4187
 20
186.513
 11
91.1837
 21
186.079
  0
LINE
  8
0
 10
91.1837
 20
186.079
 11
90.8204
 21
185.744
  0
LINE
  8
0
 10
90.8204
 20
185.744
 11
90.3682
 21
185.546
  0
LINE
  8
0
 10
90.3682
 20
185.546
 11
89.8761
 21
185.505
  0
LINE
  8
0
 10
89.8761
 20
185.505
 11
89.3974
 21
185.626
  0
LINE
  8
0
 10
239.397
 20
185.626
 11
238.984
 21
185.896
  0
LINE
  8
0
 10
238.984
 20
185.896
 11
238.681
 21
186.286
  0
LINE
  8
0
 10
238.681
 20
186.286
 11
238.52
 21
186.753
  0
LINE
  8
0
 10
238.52
 20
186.753
 11
238.52
 21
187.247
  0
LINE
  8
0
 10
238.52
 20
187.247
 11
238.681
 21
187.714
  0
LINE
  8
0
 10
238.681
 20
187.714
 11
238.984
 21
188.104
  0
LINE
  8
0
 10
238.984
 20
188.104
 11
239.397
 21
188.374
  0
LINE
  8
0
 10
239.397
 20
188.374
 11
239.876
 21
188.495
  0
LINE
  8
0
 10
239.876
 20
188.495
 11
240.368
 21
188.454
  0
LINE
  8
0
 10
240.368
 20
188.454
 11
240.82
 21
188.256
  0
LINE
  8
0
 10
240.82
 20
188.256
 11
241.184
 21
187.921
  0
LINE
  8
0
 10
241.184
 20
187.921
 11
241.419
 21
187.487
  0
LINE
  8
0
 10
241.419
 20
187.487
 11
241.5
 21
187
  0
LINE
  8
0
 10
241.5
 20
187
 11
241.419
 21
186.513
  0
LINE
  8
0
 10
241.419
 20
186.513
 11
241.184
 21
186.079
  0
LINE
  8
0
 10
241.184
 20
186.079
 11
240.82
 21
185.744
  0
LINE
  8
0
 10
240.82
 20
185.744
 11
240.368
 21
185.546
  0
LINE
  8
0
 10
240.368
 20
185.546
 11
239.876
 21
185.505
  0
LINE
  8
0
 10
239.876
 20
185.505
 11
239.397
 21
185.626
  0
LINE
  8
0
 10
389.397
 20
185.626
 11
388.984
 21
185.896
  0
LINE
  8
0
 10
388.984
 20
185.896
 11
388.681
 21
186.286
  0
LINE
  8
0
 10
388.681
 20
186.286
 11
388.52
 21
186.753
  0
LINE
  8
0
 10
388.52
 20
186.753
 11
388.52
 21
187.247
  0
LINE
  8
0
 10
388.52
 20
187.247
 11
388.681
 21
187.714
  0
LINE
  8
0
 10
388.681
 20
187.714
 11
388.984
 21
188.104
  0
LINE
  8
0
 10
388.984
 20
188.104
 11
389.397
 21
188.374
  0
LINE
  8
0
 10
389.397
 20
188.374
 11
389.876
 21
188.495
  0
LINE
  8
0
 10
389.876
 20
188.495
 11
390.368
 21
188.454
  0
LINE
  8
0
 10
390.368
 20
188.454
 11
390.82
 21
188.256
  0
LINE
  8
0
 10
390.82
 20
188.256
 11
391.184
 21
187.921
  0
LINE
  8
0
 10
391.184
 20
187.921
 11
391.419
 21
187.487
  0
LINE
  8
0
 10
391.419
 20
187.487
 11
391.5
 21
187
  0
LINE
  8
0
 10
391.5
 20
187
 11
391.419
 21
186.513
  0
LINE
  8
0
 10
391.419
 20
186.513
 11
391.184
 21
186.079
  0
LINE
  8
0
 10
391.184
 20
186.079
 11
390.82
 21
185.744
  0
LINE
  8
0
 10
390.82
 20
185.744
 11
390.368
 21
185.546
  0
LINE
  8
0
 10
390.368
 20
185.546
 11
389.876
 21
185.505
  0
LINE
  8
0
 10
389.876
 20
185.505
 11
389.397
 21
185.626
  0
LINE
  8
0
 10
55.3974
 20
185.626
 11
54.9841
 21
185.896
  0
LINE
  8
0
 10
54.9841
 20
185.896
 11
54.6808
 21
186.286
  0
LINE
  8
0
 10
54.6808
 20
186.286
 11
54.5204
 21
186.753
  0
LINE
  8
0
 10
54.5204
 20
186.753
 11
54.5204
 21
187.247
  0
LINE
  8
0
 10
54.5204
 20
187.247
 11
54.6808
 21
187.714
  0
LINE
  8
0
 10
54.6808
 20
187.714
 11
54.9841
 21
188.104
  0
LINE
  8
0
 10
54.9841
 20
188.104
 11
55.3974
 21
188.374
  0
LINE
  8
0
 10
55.3974
 20
188.374
 11
55.8761
 21
188.495
  0
LINE
  8
0
 10
55.8761
 20
188.495
 11
56.3682
 21
188.454
  0
LINE
  8
0
 10
56.3682
 20
188.454
 11
56.8204
 21
188.256
  0
LINE
  8
0
 10
56.8204
 20
188.256
 11
57.1837
 21
187.921
  0
LINE
  8
0
 10
57.1837
 20
187.921
 11
57.4187
 21
187.487
  0
LINE
  8
0
 10
57.4187
 20
187.487
 11
57.5
 21
187
  0
LINE
  8
0
 10
57.5
 20
187
 11
57.4187
 21
186.513
  0
LINE
  8
0
 10
57.4187
 20
186.513
 11
57.1837
 21
186.079
  0
LINE
  8
0
 10
57.1837
 20
186.079
 11
56.8204
 21
185.744
  0
LINE
  8
0
 10
56.8204
 20
185.744
 11
56.3682
 21
185.546
  0
LINE
  8
0
 10
56.3682
 20
185.546
 11
55.8761
 21
185.505
  0
LINE
  8
0
 10
55.8761
 20
185.505
 11
55.3974
 21
185.626
  0
LINE
  8
0
 10
205.397
 20
185.626
 11
204.984
 21
185.896
  0
LINE
  8
0
 10
204.984
 20
185.896
 11
204.681
 21
186.286
  0
LINE
  8
0
 10
204.681
 20
186.286
 11
204.52
 21
186.753
  0
LINE
  8
0
 10
204.52
 20
186.753
 11
204.52
 21
187.247
  0
LINE
  8
0
 10
204.52
 20
187.247
 11
204.681
 21
187.714
  0
LINE
  8
0
 10
204.681
 20
187.714
 11
204.984
 21
188.104
  0
LINE
  8
0
 10
204.984
 20
188.104
 11
205.397
 21
188.374
  0
LINE
  8
0
 10
205.397
 20
188.374
 11
205.876
 21
188.495
  0
LINE
  8
0
 10
205.876
 20
188.495
 11
206.368
 21
188.454
  0
LINE
  8
0
 10
206.368
 20
188.454
 11
206.82
 21
188.256
  0
LINE
  8
0
 10
206.82
 20
188.256
 11
207.184
 21
187.921
  0
LINE
  8
0
 10
207.184
 20
187.921
 11
207.419
 21
187.487
  0
LINE
  8
0
 10
207.419
 20
187.487
 11
207.5
 21
187
  0
LINE
  8
0
 10
207.5
 20
187
 11
207.419
 21
186.513
  0
LINE
  8
0
 10
207.419
 20
186.513
 11
207.184
 21
186.079
  0
LINE
  8
0
 10
207.184
 20
186.079
 11
206.82
 21
185.744
  0
LINE
  8
0
 10
206.82
 20
185.744
 11
206.368
 21
185.546
  0
LINE
  8
0
 10
206.368
 20
185.546
 11
205.876
 21
185.505
  0
LINE
  8
0
 10
205.876
 20
185.505
 11
205.397
 21
185.626
  0
LINE
  8
0
 10
355.397
 20
185.626
 11
354.984
 21
185.896
  0
LINE
  8
0
 10
354.984
 20
185.896
 11
354.681
 21
186.286
  0
LINE
  8
0
 10
354.681
 20
186.286
 11
354.52
 21
186.753
  0
LINE
  8
0
 10
354.52
 20
186.753
 11
354.52
 21
187.247
  0
LINE
  8
0
 10
354.52
 20
187.247
 11
354.681
 21
187.714
  0
LINE
  8
0
 10
354.681
 20
187.714
 11
354.984
 21
188.104
  0
LINE
  8
0
 10
354.984
 20
188.104
 11
355.397
 21
188.374
  0
LINE
  8
0
 10
355.397
 20
188.374
 11
355.876
 21
188.495
  0
LINE
  8
0
 10
355.876
 20
188.495
 11
356.368
 21
188.454
  0
LINE
  8
0
 10
356.368
 20
188.454
 11
356.82
 21
188.256
  0
LINE
  8
0
 10
356.82
 20
188.256
 11
357.184
 21
187.921
  0
LINE
  8
0
 10
357.184
 20
187.921
 11
357.419
 21
187.487
  0
LINE
  8
0
 10
357.419
 20
187.487
 11
357.5
 21
187
  0
LINE
  8
0
 10
357.5
 20
187
 11
357.419
 21
186.513
  0
LINE
  8
0
 10
357.419
 20
186.513
 11
357.184
 21
186.079
  0
LINE
  8
0
 10
357.184
 20
186.079
 11
356.82
 21
185.744
  0
LINE
  8
0
 10
356.82
 20
185.744
 11
356.368
 21
185.546
  0
LINE
  8
0
 10
356.368
 20
185.546
 11
355.876
 21
185.505
  0
LINE
  8
0
 10
355.876
 20
185.505
 11
355.397
 21
185.626
  0
LINE
  8
0
 10
245.397
 20
185.626
 11
244.984
 21
185.896
  0
LINE
  8
0
 10
244.984
 20
185.896
 11
244.681
 21
186.286
  0
LINE
  8
0
 10
244.681
 20
186.286
 11
244.52
 21
186.753
  0
LINE
  8
0
 10
244.52
 20
186.753
 11
244.52
 21
187.247
  0
LINE
  8
0
 10
244.52
 20
187.247
 11
244.681
 21
187.714
  0
LINE
  8
0
 10
244.681
 20
187.714
 11
244.984
 21
188.104
  0
LINE
  8
0
 10
244.984
 20
188.104
 11
245.397
 21
188.374
  0
LINE
  8
0
 10
245.397
 20
188.374
 11
245.876
 21
188.495
  0
LINE
  8
0
 10
245.876
 20
188.495
 11
246.368
 21
188.454
  0
LINE
  8
0
 10
246.368
 20
188.454
 11
246.82
 21
188.256
  0
LINE
  8
0
 10
246.82
 20
188.256
 11
247.184
 21
187.921
  0
LINE
  8
0
 10
247.184
 20
187.921
 11
247.419
 21
187.487
  0
LINE
  8
0
 10
247.419
 20
187.487
 11
247.5
 21
187
  0
LINE
  8
0
 10
247.5
 20
187
 11
247.419
 21
186.513
  0
LINE
  8
0
 10
247.419
 20
186.513
 11
247.184
 21
186.079
  0
LINE
  8
0
 10
247.184
 20
186.079
 11
246.82
 21
185.744
  0
LINE
  8
0
 10
246.82
 20
185.744
 11
246.368
 21
185.546
  0
LINE
  8
0
 10
246.368
 20
185.546
 11
245.876
 21
185.505
  0
LINE
  8
0
 10
245.876
 20
185.505
 11
245.397
 21
185.626
  0
LINE
  8
0
 10
61.3974
 20
185.626
 11
60.9841
 21
185.896
  0
LINE
  8
0
 10
60.9841
 20
185.896
 11
60.6808
 21
186.286
  0
LINE
  8
0
 10
60.6808
 20
186.286
 11
60.5204
 21
186.753
  0
LINE
  8
0
 10
60.5204
 20
186.753
 11
60.5204
 21
187.247
  0
LINE
  8
0
 10
60.5204
 20
187.247
 11
60.6808
 21
187.714
  0
LINE
  8
0
 10
60.6808
 20
187.714
 11
60.9841
 21
188.104
  0
LINE
  8
0
 10
60.9841
 20
188.104
 11
61.3974
 21
188.374
  0
LINE
  8
0
 10
61.3974
 20
188.374
 11
61.8761
 21
188.495
  0
LINE
  8
0
 10
61.8761
 20
188.495
 11
62.3682
 21
188.454
  0
LINE
  8
0
 10
62.3682
 20
188.454
 11
62.8204
 21
188.256
  0
LINE
  8
0
 10
62.8204
 20
188.256
 11
63.1837
 21
187.921
  0
LINE
  8
0
 10
63.1837
 20
187.921
 11
63.4187
 21
187.487
  0
LINE
  8
0
 10
63.4187
 20
187.487
 11
63.5
 21
187
  0
LINE
  8
0
 10
63.5
 20
187
 11
63.4187
 21
186.513
  0
LINE
  8
0
 10
63.4187
 20
186.513
 11
63.1837
 21
186.079
  0
LINE
  8
0
 10
63.1837
 20
186.079
 11
62.8204
 21
185.744
  0
LINE
  8
0
 10
62.8204
 20
185.744
 11
62.3682
 21
185.546
  0
LINE
  8
0
 10
62.3682
 20
185.546
 11
61.8761
 21
185.505
  0
LINE
  8
0
 10
61.8761
 20
185.505
 11
61.3974
 21
185.626
  0
LINE
  8
0
 10
211.397
 20
185.626
 11
210.984
 21
185.896
  0
LINE
  8
0
 10
210.984
 20
185.896
 11
210.681
 21
186.286
  0
LINE
  8
0
 10
210.681
 20
186.286
 11
210.52
 21
186.753
  0
LINE
  8
0
 10
210.52
 20
186.753
 11
210.52
 21
187.247
  0
LINE
  8
0
 10
210.52
 20
187.247
 11
210.681
 21
187.714
  0
LINE
  8
0
 10
210.681
 20
187.714
 11
210.984
 21
188.104
  0
LINE
  8
0
 10
210.984
 20
188.104
 11
211.397
 21
188.374
  0
LINE
  8
0
 10
211.397
 20
188.374
 11
211.876
 21
188.495
  0
LINE
  8
0
 10
211.876
 20
188.495
 11
212.368
 21
188.454
  0
LINE
  8
0
 10
212.368
 20
188.454
 11
212.82
 21
188.256
  0
LINE
  8
0
 10
212.82
 20
188.256
 11
213.184
 21
187.921
  0
LINE
  8
0
 10
213.184
 20
187.921
 11
213.419
 21
187.487
  0
LINE
  8
0
 10
213.419
 20
187.487
 11
213.5
 21
187
  0
LINE
  8
0
 10
213.5
 20
187
 11
213.419
 21
186.513
  0
LINE
  8
0
 10
213.419
 20
186.513
 11
213.184
 21
186.079
  0
LINE
  8
0
 10
213.184
 20
186.079
 11
212.82
 21
185.744
  0
LINE
  8
0
 10
212.82
 20
185.744
 11
212.368
 21
185.546
  0
LINE
  8
0
 10
212.368
 20
185.546
 11
211.876
 21
185.505
  0
LINE
  8
0
 10
211.876
 20
185.505
 11
211.397
 21
185.626
  0
LINE
  8
0
 10
361.397
 20
185.626
 11
360.984
 21
185.896
  0
LINE
  8
0
 10
360.984
 20
185.896
 11
360.681
 21
186.286
  0
LINE
  8
0
 10
360.681
 20
186.286
 11
360.52
 21
186.753
  0
LINE
  8
0
 10
360.52
 20
186.753
 11
360.52
 21
187.247
  0
LINE
  8
0
 10
360.52
 20
187.247
 11
360.681
 21
187.714
  0
LINE
  8
0
 10
360.681
 20
187.714
 11
360.984
 21
188.104
  0
LINE
  8
0
 10
360.984
 20
188.104
 11
361.397
 21
188.374
  0
LINE
  8
0
 10
361.397
 20
188.374
 11
361.876
 21
188.495
  0
LINE
  8
0
 10
361.876
 20
188.495
 11
362.368
 21
188.454
  0
LINE
  8
0
 10
362.368
 20
188.454
 11
362.82
 21
188.256
  0
LINE
  8
0
 10
362.82
 20
188.256
 11
363.184
 21
187.921
  0
LINE
  8
0
 10
363.184
 20
187.921
 11
363.419
 21
187.487
  0
LINE
  8
0
 10
363.419
 20
187.487
 11
363.5
 21
187
  0
LINE
  8
0
 10
363.5
 20
187
 11
363.419
 21
186.513
  0
LINE
  8
0
 10
363.419
 20
186.513
 11
363.184
 21
186.079
  0
LINE
  8
0
 10
363.184
 20
186.079
 11
362.82
 21
185.744
  0
LINE
  8
0
 10
362.82
 20
185.744
 11
362.368
 21
185.546
  0
LINE
  8
0
 10
362.368
 20
185.546
 11
361.876
 21
185.505
  0
LINE
  8
0
 10
361.876
 20
185.505
 11
361.397
 21
185.626
  0
LINE
  8
0
 10
101.397
 20
185.626
 11
100.984
 21
185.896
  0
LINE
  8
0
 10
100.984
 20
185.896
 11
100.681
 21
186.286
  0
LINE
  8
0
 10
100.681
 20
186.286
 11
100.52
 21
186.753
  0
LINE
  8
0
 10
100.52
 20
186.753
 11
100.52
 21
187.247
  0
LINE
  8
0
 10
100.52
 20
187.247
 11
100.681
 21
187.714
  0
LINE
  8
0
 10
100.681
 20
187.714
 11
100.984
 21
188.104
  0
LINE
  8
0
 10
100.984
 20
188.104
 11
101.397
 21
188.374
  0
LINE
  8
0
 10
101.397
 20
188.374
 11
101.876
 21
188.495
  0
LINE
  8
0
 10
101.876
 20
188.495
 11
102.368
 21
188.454
  0
LINE
  8
0
 10
102.368
 20
188.454
 11
102.82
 21
188.256
  0
LINE
  8
0
 10
102.82
 20
188.256
 11
103.184
 21
187.921
  0
LINE
  8
0
 10
103.184
 20
187.921
 11
103.419
 21
187.487
  0
LINE
  8
0
 10
103.419
 20
187.487
 11
103.5
 21
187
  0
LINE
  8
0
 10
103.5
 20
187
 11
103.419
 21
186.513
  0
LINE
  8
0
 10
103.419
 20
186.513
 11
103.184
 21
186.079
  0
LINE
  8
0
 10
103.184
 20
186.079
 11
102.82
 21
185.744
  0
LINE
  8
0
 10
102.82
 20
185.744
 11
102.368
 21
185.546
  0
LINE
  8
0
 10
102.368
 20
185.546
 11
101.876
 21
185.505
  0
LINE
  8
0
 10
101.876
 20
185.505
 11
101.397
 21
185.626
  0
LINE
  8
0
 10
251.397
 20
185.626
 11
250.984
 21
185.896
  0
LINE
  8
0
 10
250.984
 20
185.896
 11
250.681
 21
186.286
  0
LINE
  8
0
 10
250.681
 20
186.286
 11
250.52
 21
186.753
  0
LINE
  8
0
 10
250.52
 20
186.753
 11
250.52
 21
187.247
  0
LINE
  8
0
 10
250.52
 20
187.247
 11
250.681
 21
187.714
  0
LINE
  8
0
 10
250.681
 20
187.714
 11
250.984
 21
188.104
  0
LINE
  8
0
 10
250.984
 20
188.104
 11
251.397
 21
188.374
  0
LINE
  8
0
 10
251.397
 20
188.374
 11
251.876
 21
188.495
  0
LINE
  8
0
 10
251.876
 20
188.495
 11
252.368
 21
188.454
  0
LINE
  8
0
 10
252.368
 20
188.454
 11
252.82
 21
188.256
  0
LINE
  8
0
 10
252.82
 20
188.256
 11
253.184
 21
187.921
  0
LINE
  8
0
 10
253.184
 20
187.921
 11
253.419
 21
187.487
  0
LINE
  8
0
 10
253.419
 20
187.487
 11
253.5
 21
187
  0
LINE
  8
0
 10
253.5
 20
187
 11
253.419
 21
186.513
  0
LINE
  8
0
 10
253.419
 20
186.513
 11
253.184
 21
186.079
  0
LINE
  8
0
 10
253.184
 20
186.079
 11
252.82
 21
185.744
  0
LINE
  8
0
 10
252.82
 20
185.744
 11
252.368
 21
185.546
  0
LINE
  8
0
 10
252.368
 20
185.546
 11
251.876
 21
185.505
  0
LINE
  8
0
 10
251.876
 20
185.505
 11
251.397
 21
185.626
  0
LINE
  8
0
 10
401.397
 20
185.626
 11
400.984
 21
185.896
  0
LINE
  8
0
 10
400.984
 20
185.896
 11
400.681
 21
186.286
  0
LINE
  8
0
 10
400.681
 20
186.286
 11
400.52
 21
186.753
  0
LINE
  8
0
 10
400.52
 20
186.753
 11
400.52
 21
187.247
  0
LINE
  8
0
 10
400.52
 20
187.247
 11
400.681
 21
187.714
  0
LINE
  8
0
 10
400.681
 20
187.714
 11
400.984
 21
188.104
  0
LINE
  8
0
 10
400.984
 20
188.104
 11
401.397
 21
188.374
  0
LINE
  8
0
 10
401.397
 20
188.374
 11
401.876
 21
188.495
  0
LINE
  8
0
 10
401.876
 20
188.495
 11
402.368
 21
188.454
  0
LINE
  8
0
 10
402.368
 20
188.454
 11
402.82
 21
188.256
  0
LINE
  8
0
 10
402.82
 20
188.256
 11
403.184
 21
187.921
  0
LINE
  8
0
 10
403.184
 20
187.921
 11
403.419
 21
187.487
  0
LINE
  8
0
 10
403.419
 20
187.487
 11
403.5
 21
187
  0
LINE
  8
0
 10
403.5
 20
187
 11
403.419
 21
186.513
  0
LINE
  8
0
 10
403.419
 20
186.513
 11
403.184
 21
186.079
  0
LINE
  8
0
 10
403.184
 20
186.079
 11
402.82
 21
185.744
  0
LINE
  8
0
 10
402.82
 20
185.744
 11
402.368
 21
185.546
  0
LINE
  8
0
 10
402.368
 20
185.546
 11
401.876
 21
185.505
  0
LINE
  8
0
 10
401.876
 20
185.505
 11
401.397
 21
185.626
  0
LINE
  8
0
 10
395.397
 20
185.626
 11
394.984
 21
185.896
  0
LINE
  8
0
 10
394.984
 20
185.896
 11
394.681
 21
186.286
  0
LINE
  8
0
 10
394.681
 20
186.286
 11
394.52
 21
186.753
  0
LINE
  8
0
 10
394.52
 20
186.753
 11
394.52
 21
187.247
  0
LINE
  8
0
 10
394.52
 20
187.247
 11
394.681
 21
187.714
  0
LINE
  8
0
 10
394.681
 20
187.714
 11
394.984
 21
188.104
  0
LINE
  8
0
 10
394.984
 20
188.104
 11
395.397
 21
188.374
  0
LINE
  8
0
 10
395.397
 20
188.374
 11
395.876
 21
188.495
  0
LINE
  8
0
 10
395.876
 20
188.495
 11
396.368
 21
188.454
  0
LINE
  8
0
 10
396.368
 20
188.454
 11
396.82
 21
188.256
  0
LINE
  8
0
 10
396.82
 20
188.256
 11
397.184
 21
187.921
  0
LINE
  8
0
 10
397.184
 20
187.921
 11
397.419
 21
187.487
  0
LINE
  8
0
 10
397.419
 20
187.487
 11
397.5
 21
187
  0
LINE
  8
0
 10
397.5
 20
187
 11
397.419
 21
186.513
  0
LINE
  8
0
 10
397.419
 20
186.513
 11
397.184
 21
186.079
  0
LINE
  8
0
 10
397.184
 20
186.079
 11
396.82
 21
185.744
  0
LINE
  8
0
 10
396.82
 20
185.744
 11
396.368
 21
185.546
  0
LINE
  8
0
 10
396.368
 20
185.546
 11
395.876
 21
185.505
  0
LINE
  8
0
 10
395.876
 20
185.505
 11
395.397
 21
185.626
  0
LINE
  8
0
 10
49.3974
 20
185.626
 11
48.9841
 21
185.896
  0
LINE
  8
0
 10
48.9841
 20
185.896
 11
48.6808
 21
186.286
  0
LINE
  8
0
 10
48.6808
 20
186.286
 11
48.5204
 21
186.753
  0
LINE
  8
0
 10
48.5204
 20
186.753
 11
48.5204
 21
187.247
  0
LINE
  8
0
 10
48.5204
 20
187.247
 11
48.6808
 21
187.714
  0
LINE
  8
0
 10
48.6808
 20
187.714
 11
48.9841
 21
188.104
  0
LINE
  8
0
 10
48.9841
 20
188.104
 11
49.3974
 21
188.374
  0
LINE
  8
0
 10
49.3974
 20
188.374
 11
49.8761
 21
188.495
  0
LINE
  8
0
 10
49.8761
 20
188.495
 11
50.3682
 21
188.454
  0
LINE
  8
0
 10
50.3682
 20
188.454
 11
50.8204
 21
188.256
  0
LINE
  8
0
 10
50.8204
 20
188.256
 11
51.1837
 21
187.921
  0
LINE
  8
0
 10
51.1837
 20
187.921
 11
51.4187
 21
187.487
  0
LINE
  8
0
 10
51.4187
 20
187.487
 11
51.5
 21
187
  0
LINE
  8
0
 10
51.5
 20
187
 11
51.4187
 21
186.513
  0
LINE
  8
0
 10
51.4187
 20
186.513
 11
51.1837
 21
186.079
  0
LINE
  8
0
 10
51.1837
 20
186.079
 11
50.8204
 21
185.744
  0
LINE
  8
0
 10
50.8204
 20
185.744
 11
50.3682
 21
185.546
  0
LINE
  8
0
 10
50.3682
 20
185.546
 11
49.8761
 21
185.505
  0
LINE
  8
0
 10
49.8761
 20
185.505
 11
49.3974
 21
185.626
  0
LINE
  8
0
 10
211.397
 20
54.6263
 11
210.984
 21
54.8964
  0
LINE
  8
0
 10
210.984
 20
54.8964
 11
210.681
 21
55.2861
  0
LINE
  8
0
 10
210.681
 20
55.2861
 11
210.52
 21
55.7531
  0
LINE
  8
0
 10
210.52
 20
55.7531
 11
210.52
 21
56.2469
  0
LINE
  8
0
 10
210.52
 20
56.2469
 11
210.681
 21
56.7139
  0
LINE
  8
0
 10
210.681
 20
56.7139
 11
210.984
 21
57.1036
  0
LINE
  8
0
 10
210.984
 20
57.1036
 11
211.397
 21
57.3737
  0
LINE
  8
0
 10
211.397
 20
57.3737
 11
211.876
 21
57.4949
  0
LINE
  8
0
 10
211.876
 20
57.4949
 11
212.368
 21
57.4541
  0
LINE
  8
0
 10
212.368
 20
57.4541
 11
212.82
 21
57.2557
  0
LINE
  8
0
 10
212.82
 20
57.2557
 11
213.184
 21
56.9213
  0
LINE
  8
0
 10
213.184
 20
56.9213
 11
213.419
 21
56.487
  0
LINE
  8
0
 10
213.419
 20
56.487
 11
213.5
 21
56
  0
LINE
  8
0
 10
213.5
 20
56
 11
213.419
 21
55.5129
  0
LINE
  8
0
 10
213.419
 20
55.5129
 11
213.184
 21
55.0787
  0
LINE
  8
0
 10
213.184
 20
55.0787
 11
212.82
 21
54.7442
  0
LINE
  8
0
 10
212.82
 20
54.7442
 11
212.368
 21
54.5459
  0
LINE
  8
0
 10
212.368
 20
54.5459
 11
211.876
 21
54.5051
  0
LINE
  8
0
 10
211.876
 20
54.5051
 11
211.397
 21
54.6263
  0
LINE
  8
0
 10
401.397
 20
54.6263
 11
400.984
 21
54.8964
  0
LINE
  8
0
 10
400.984
 20
54.8964
 11
400.681
 21
55.2861
  0
LINE
  8
0
 10
400.681
 20
55.2861
 11
400.52
 21
55.7531
  0
LINE
  8
0
 10
400.52
 20
55.7531
 11
400.52
 21
56.2469
  0
LINE
  8
0
 10
400.52
 20
56.2469
 11
400.681
 21
56.7139
  0
LINE
  8
0
 10
400.681
 20
56.7139
 11
400.984
 21
57.1036
  0
LINE
  8
0
 10
400.984
 20
57.1036
 11
401.397
 21
57.3737
  0
LINE
  8
0
 10
401.397
 20
57.3737
 11
401.876
 21
57.4949
  0
LINE
  8
0
 10
401.876
 20
57.4949
 11
402.368
 21
57.4541
  0
LINE
  8
0
 10
402.368
 20
57.4541
 11
402.82
 21
57.2557
  0
LINE
  8
0
 10
402.82
 20
57.2557
 11
403.184
 21
56.9213
  0
LINE
  8
0
 10
403.184
 20
56.9213
 11
403.419
 21
56.487
  0
LINE
  8
0
 10
403.419
 20
56.487
 11
403.5
 21
56
  0
LINE
  8
0
 10
403.5
 20
56
 11
403.419
 21
55.5129
  0
LINE
  8
0
 10
403.419
 20
55.5129
 11
403.184
 21
55.0787
  0
LINE
  8
0
 10
403.184
 20
55.0787
 11
402.82
 21
54.7442
  0
LINE
  8
0
 10
402.82
 20
54.7442
 11
402.368
 21
54.5459
  0
LINE
  8
0
 10
402.368
 20
54.5459
 11
401.876
 21
54.5051
  0
LINE
  8
0
 10
401.876
 20
54.5051
 11
401.397
 21
54.6263
  0
LINE
  8
0
 10
61.3974
 20
54.6263
 11
60.9841
 21
54.8964
  0
LINE
  8
0
 10
60.9841
 20
54.8964
 11
60.6808
 21
55.2861
  0
LINE
  8
0
 10
60.6808
 20
55.2861
 11
60.5204
 21
55.7531
  0
LINE
  8
0
 10
60.5204
 20
55.7531
 11
60.5204
 21
56.2469
  0
LINE
  8
0
 10
60.5204
 20
56.2469
 11
60.6808
 21
56.7139
  0
LINE
  8
0
 10
60.6808
 20
56.7139
 11
60.9841
 21
57.1036
  0
LINE
  8
0
 10
60.9841
 20
57.1036
 11
61.3974
 21
57.3737
  0
LINE
  8
0
 10
61.3974
 20
57.3737
 11
61.8761
 21
57.4949
  0
LINE
  8
0
 10
61.8761
 20
57.4949
 11
62.3682
 21
57.4541
  0
LINE
  8
0
 10
62.3682
 20
57.4541
 11
62.8204
 21
57.2557
  0
LINE
  8
0
 10
62.8204
 20
57.2557
 11
63.1837
 21
56.9213
  0
LINE
  8
0
 10
63.1837
 20
56.9213
 11
63.4187
 21
56.487
  0
LINE
  8
0
 10
63.4187
 20
56.487
 11
63.5
 21
56
  0
LINE
  8
0
 10
63.5
 20
56
 11
63.4187
 21
55.5129
  0
LINE
  8
0
 10
63.4187
 20
55.5129
 11
63.1837
 21
55.0787
  0
LINE
  8
0
 10
63.1837
 20
55.0787
 11
62.8204
 21
54.7442
  0
LINE
  8
0
 10
62.8204
 20
54.7442
 11
62.3682
 21
54.5459
  0
LINE
  8
0
 10
62.3682
 20
54.5459
 11
61.8761
 21
54.5051
  0
LINE
  8
0
 10
61.8761
 20
54.5051
 11
61.3974
 21
54.6263
  0
LINE
  8
0
 10
395.397
 20
54.6263
 11
394.984
 21
54.8964
  0
LINE
  8
0
 10
394.984
 20
54.8964
 11
394.681
 21
55.2861
  0
LINE
  8
0
 10
394.681
 20
55.2861
 11
394.52
 21
55.7531
  0
LINE
  8
0
 10
394.52
 20
55.7531
 11
394.52
 21
56.2469
  0
LINE
  8
0
 10
394.52
 20
56.2469
 11
394.681
 21
56.7139
  0
LINE
  8
0
 10
394.681
 20
56.7139
 11
394.984
 21
57.1036
  0
LINE
  8
0
 10
394.984
 20
57.1036
 11
395.397
 21
57.3737
  0
LINE
  8
0
 10
395.397
 20
57.3737
 11
395.876
 21
57.4949
  0
LINE
  8
0
 10
395.876
 20
57.4949
 11
396.368
 21
57.4541
  0
LINE
  8
0
 10
396.368
 20
57.4541
 11
396.82
 21
57.2557
  0
LINE
  8
0
 10
396.82
 20
57.2557
 11
397.184
 21
56.9213
  0
LINE
  8
0
 10
397.184
 20
56.9213
 11
397.419
 21
56.487
  0
LINE
  8
0
 10
397.419
 20
56.487
 11
397.5
 21
56
  0
LINE
  8
0
 10
397.5
 20
56
 11
397.419
 21
55.5129
  0
LINE
  8
0
 10
397.419
 20
55.5129
 11
397.184
 21
55.0787
  0
LINE
  8
0
 10
397.184
 20
55.0787
 11
396.82
 21
54.7442
  0
LINE
  8
0
 10
396.82
 20
54.7442
 11
396.368
 21
54.5459
  0
LINE
  8
0
 10
396.368
 20
54.5459
 11
395.876
 21
54.5051
  0
LINE
  8
0
 10
395.876
 20
54.5051
 11
395.397
 21
54.6263
  0
LINE
  8
0
 10
245.397
 20
54.6263
 11
244.984
 21
54.8964
  0
LINE
  8
0
 10
244.984
 20
54.8964
 11
244.681
 21
55.2861
  0
LINE
  8
0
 10
244.681
 20
55.2861
 11
244.52
 21
55.7531
  0
LINE
  8
0
 10
244.52
 20
55.7531
 11
244.52
 21
56.2469
  0
LINE
  8
0
 10
244.52
 20
56.2469
 11
244.681
 21
56.7139
  0
LINE
  8
0
 10
244.681
 20
56.7139
 11
244.984
 21
57.1036
  0
LINE
  8
0
 10
244.984
 20
57.1036
 11
245.397
 21
57.3737
  0
LINE
  8
0
 10
245.397
 20
57.3737
 11
245.876
 21
57.4949
  0
LINE
  8
0
 10
245.876
 20
57.4949
 11
246.368
 21
57.4541
  0
LINE
  8
0
 10
246.368
 20
57.4541
 11
246.82
 21
57.2557
  0
LINE
  8
0
 10
246.82
 20
57.2557
 11
247.184
 21
56.9213
  0
LINE
  8
0
 10
247.184
 20
56.9213
 11
247.419
 21
56.487
  0
LINE
  8
0
 10
247.419
 20
56.487
 11
247.5
 21
56
  0
LINE
  8
0
 10
247.5
 20
56
 11
247.419
 21
55.5129
  0
LINE
  8
0
 10
247.419
 20
55.5129
 11
247.184
 21
55.0787
  0
LINE
  8
0
 10
247.184
 20
55.0787
 11
246.82
 21
54.7442
  0
LINE
  8
0
 10
246.82
 20
54.7442
 11
246.368
 21
54.5459
  0
LINE
  8
0
 10
246.368
 20
54.5459
 11
245.876
 21
54.5051
  0
LINE
  8
0
 10
245.876
 20
54.5051
 11
245.397
 21
54.6263
  0
LINE
  8
0
 10
49.3974
 20
54.6263
 11
48.9841
 21
54.8964
  0
LINE
  8
0
 10
48.9841
 20
54.8964
 11
48.6808
 21
55.2861
  0
LINE
  8
0
 10
48.6808
 20
55.2861
 11
48.5204
 21
55.7531
  0
LINE
  8
0
 10
48.5204
 20
55.7531
 11
48.5204
 21
56.2469
  0
LINE
  8
0
 10
48.5204
 20
56.2469
 11
48.6808
 21
56.7139
  0
LINE
  8
0
 10
48.6808
 20
56.7139
 11
48.9841
 21
57.1036
  0
LINE
  8
0
 10
48.9841
 20
57.1036
 11
49.3974
 21
57.3737
  0
LINE
  8
0
 10
49.3974
 20
57.3737
 11
49.8761
 21
57.4949
  0
LINE
  8
0
 10
49.8761
 20
57.4949
 11
50.3682
 21
57.4541
  0
LINE
  8
0
 10
50.3682
 20
57.4541
 11
50.8204
 21
57.2557
  0
LINE
  8
0
 10
50.8204
 20
57.2557
 11
51.1837
 21
56.9213
  0
LINE
  8
0
 10
51.1837
 20
56.9213
 11
51.4187
 21
56.487
  0
LINE
  8
0
 10
51.4187
 20
56.487
 11
51.5
 21
56
  0
LINE
  8
0
 10
51.5
 20
56
 11
51.4187
 21
55.5129
  0
LINE
  8
0
 10
51.4187
 20
55.5129
 11
51.1837
 21
55.0787
  0
LINE
  8
0
 10
51.1837
 20
55.0787
 11
50.8204
 21
54.7442
  0
LINE
  8
0
 10
50.8204
 20
54.7442
 11
50.3682
 21
54.5459
  0
LINE
  8
0
 10
50.3682
 20
54.5459
 11
49.8761
 21
54.5051
  0
LINE
  8
0
 10
49.8761
 20
54.5051
 11
49.3974
 21
54.6263
  0
LINE
  8
0
 10
355.397
 20
54.6263
 11
354.984
 21
54.8964
  0
LINE
  8
0
 10
354.984
 20
54.8964
 11
354.681
 21
55.2861
  0
LINE
  8
0
 10
354.681
 20
55.2861
 11
354.52
 21
55.7531
  0
LINE
  8
0
 10
354.52
 20
55.7531
 11
354.52
 21
56.2469
  0
LINE
  8
0
 10
354.52
 20
56.2469
 11
354.681
 21
56.7139
  0
LINE
  8
0
 10
354.681
 20
56.7139
 11
354.984
 21
57.1036
  0
LINE
  8
0
 10
354.984
 20
57.1036
 11
355.397
 21
57.3737
  0
LINE
  8
0
 10
355.397
 20
57.3737
 11
355.876
 21
57.4949
  0
LINE
  8
0
 10
355.876
 20
57.4949
 11
356.368
 21
57.4541
  0
LINE
  8
0
 10
356.368
 20
57.4541
 11
356.82
 21
57.2557
  0
LINE
  8
0
 10
356.82
 20
57.2557
 11
357.184
 21
56.9213
  0
LINE
  8
0
 10
357.184
 20
56.9213
 11
357.419
 21
56.487
  0
LINE
  8
0
 10
357.419
 20
56.487
 11
357.5
 21
56
  0
LINE
  8
0
 10
357.5
 20
56
 11
357.419
 21
55.5129
  0
LINE
  8
0
 10
357.419
 20
55.5129
 11
357.184
 21
55.0787
  0
LINE
  8
0
 10
357.184
 20
55.0787
 11
356.82
 21
54.7442
  0
LINE
  8
0
 10
356.82
 20
54.7442
 11
356.368
 21
54.5459
  0
LINE
  8
0
 10
356.368
 20
54.5459
 11
355.876
 21
54.5051
  0
LINE
  8
0
 10
355.876
 20
54.5051
 11
355.397
 21
54.6263
  0
LINE
  8
0
 10
205.397
 20
54.6263
 11
204.984
 21
54.8964
  0
LINE
  8
0
 10
204.984
 20
54.8964
 11
204.681
 21
55.2861
  0
LINE
  8
0
 10
204.681
 20
55.2861
 11
204.52
 21
55.7531
  0
LINE
  8
0
 10
204.52
 20
55.7531
 11
204.52
 21
56.2469
  0
LINE
  8
0
 10
204.52
 20
56.2469
 11
204.681
 21
56.7139
  0
LINE
  8
0
 10
204.681
 20
56.7139
 11
204.984
 21
57.1036
  0
LINE
  8
0
 10
204.984
 20
57.1036
 11
205.397
 21
57.3737
  0
LINE
  8
0
 10
205.397
 20
57.3737
 11
205.876
 21
57.4949
  0
LINE
  8
0
 10
205.876
 20
57.4949
 11
206.368
 21
57.4541
  0
LINE
  8
0
 10
206.368
 20
57.4541
 11
206.82
 21
57.2557
  0
LINE
  8
0
 10
206.82
 20
57.2557
 11
207.184
 21
56.9213
  0
LINE
  8
0
 10
207.184
 20
56.9213
 11
207.419
 21
56.487
  0
LINE
  8
0
 10
207.419
 20
56.487
 11
207.5
 21
56
  0
LINE
  8
0
 10
207.5
 20
56
 11
207.419
 21
55.5129
  0
LINE
  8
0
 10
207.419
 20
55.5129
 11
207.184
 21
55.0787
  0
LINE
  8
0
 10
207.184
 20
55.0787
 11
206.82
 21
54.7442
  0
LINE
  8
0
 10
206.82
 20
54.7442
 11
206.368
 21
54.5459
  0
LINE
  8
0
 10
206.368
 20
54.5459
 11
205.876
 21
54.5051
  0
LINE
  8
0
 10
205.876
 20
54.5051
 11
205.397
 21
54.6263
  0
LINE
  8
0
 10
55.3974
 20
54.6263
 11
54.9841
 21
54.8964
  0
LINE
  8
0
 10
54.9841
 20
54.8964
 11
54.6808
 21
55.2861
  0
LINE
  8
0
 10
54.6808
 20
55.2861
 11
54.5204
 21
55.7531
  0
LINE
  8
0
 10
54.5204
 20
55.7531
 11
54.5204
 21
56.2469
  0
LINE
  8
0
 10
54.5204
 20
56.2469
 11
54.6808
 21
56.7139
  0
LINE
  8
0
 10
54.6808
 20
56.7139
 11
54.9841
 21
57.1036
  0
LINE
  8
0
 10
54.9841
 20
57.1036
 11
55.3974
 21
57.3737
  0
LINE
  8
0
 10
55.3974
 20
57.3737
 11
55.8761
 21
57.4949
  0
LINE
  8
0
 10
55.8761
 20
57.4949
 11
56.3682
 21
57.4541
  0
LINE
  8
0
 10
56.3682
 20
57.4541
 11
56.8204
 21
57.2557
  0
LINE
  8
0
 10
56.8204
 20
57.2557
 11
57.1837
 21
56.9213
  0
LINE
  8
0
 10
57.1837
 20
56.9213
 11
57.4187
 21
56.487
  0
LINE
  8
0
 10
57.4187
 20
56.487
 11
57.5
 21
56
  0
LINE
  8
0
 10
57.5
 20
56
 11
57.4187
 21
55.5129
  0
LINE
  8
0
 10
57.4187
 20
55.5129
 11
57.1837
 21
55.0787
  0
LINE
  8
0
 10
57.1837
 20
55.0787
 11
56.8204
 21
54.7442
  0
LINE
  8
0
 10
56.8204
 20
54.7442
 11
56.3682
 21
54.5459
  0
LINE
  8
0
 10
56.3682
 20
54.5459
 11
55.8761
 21
54.5051
  0
LINE
  8
0
 10
55.8761
 20
54.5051
 11
55.3974
 21
54.6263
  0
LINE
  8
0
 10
361.397
 20
54.6263
 11
360.984
 21
54.8964
  0
LINE
  8
0
 10
360.984
 20
54.8964
 11
360.681
 21
55.2861
  0
LINE
  8
0
 10
360.681
 20
55.2861
 11
360.52
 21
55.7531
  0
LINE
  8
0
 10
360.52
 20
55.7531
 11
360.52
 21
56.2469
  0
LINE
  8
0
 10
360.52
 20
56.2469
 11
360.681
 21
56.7139
  0
LINE
  8
0
 10
360.681
 20
56.7139
 11
360.984
 21
57.1036
  0
LINE
  8
0
 10
360.984
 20
57.1036
 11
361.397
 21
57.3737
  0
LINE
  8
0
 10
361.397
 20
57.3737
 11
361.876
 21
57.4949
  0
LINE
  8
0
 10
361.876
 20
57.4949
 11
362.368
 21
57.4541
  0
LINE
  8
0
 10
362.368
 20
57.4541
 11
362.82
 21
57.2557
  0
LINE
  8
0
 10
362.82
 20
57.2557
 11
363.184
 21
56.9213
  0
LINE
  8
0
 10
363.184
 20
56.9213
 11
363.419
 21
56.487
  0
LINE
  8
0
 10
363.419
 20
56.487
 11
363.5
 21
56
  0
LINE
  8
0
 10
363.5
 20
56
 11
363.419
 21
55.5129
  0
LINE
  8
0
 10
363.419
 20
55.5129
 11
363.184
 21
55.0787
  0
LINE
  8
0
 10
363.184
 20
55.0787
 11
362.82
 21
54.7442
  0
LINE
  8
0
 10
362.82
 20
54.7442
 11
362.368
 21
54.5459
  0
LINE
  8
0
 10
362.368
 20
54.5459
 11
361.876
 21
54.5051
  0
LINE
  8
0
 10
361.876
 20
54.5051
 11
361.397
 21
54.6263
  0
LINE
  8
0
 10
389.397
 20
54.6263
 11
388.984
 21
54.8964
  0
LINE
  8
0
 10
388.984
 20
54.8964
 11
388.681
 21
55.2861
  0
LINE
  8
0
 10
388.681
 20
55.2861
 11
388.52
 21
55.7531
  0
LINE
  8
0
 10
388.52
 20
55.7531
 11
388.52
 21
56.2469
  0
LINE
  8
0
 10
388.52
 20
56.2469
 11
388.681
 21
56.7139
  0
LINE
  8
0
 10
388.681
 20
56.7139
 11
388.984
 21
57.1036
  0
LINE
  8
0
 10
388.984
 20
57.1036
 11
389.397
 21
57.3737
  0
LINE
  8
0
 10
389.397
 20
57.3737
 11
389.876
 21
57.4949
  0
LINE
  8
0
 10
389.876
 20
57.4949
 11
390.368
 21
57.4541
  0
LINE
  8
0
 10
390.368
 20
57.4541
 11
390.82
 21
57.2557
  0
LINE
  8
0
 10
390.82
 20
57.2557
 11
391.184
 21
56.9213
  0
LINE
  8
0
 10
391.184
 20
56.9213
 11
391.419
 21
56.487
  0
LINE
  8
0
 10
391.419
 20
56.487
 11
391.5
 21
56
  0
LINE
  8
0
 10
391.5
 20
56
 11
391.419
 21
55.5129
  0
LINE
  8
0
 10
391.419
 20
55.5129
 11
391.184
 21
55.0787
  0
LINE
  8
0
 10
391.184
 20
55.0787
 11
390.82
 21
54.7442
  0
LINE
  8
0
 10
390.82
 20
54.7442
 11
390.368
 21
54.5459
  0
LINE
  8
0
 10
390.368
 20
54.5459
 11
389.876
 21
54.5051
  0
LINE
  8
0
 10
389.876
 20
54.5051
 11
389.397
 21
54.6263
  0
LINE
  8
0
 10
251.397
 20
54.6263
 11
250.984
 21
54.8964
  0
LINE
  8
0
 10
250.984
 20
54.8964
 11
250.681
 21
55.2861
  0
LINE
  8
0
 10
250.681
 20
55.2861
 11
250.52
 21
55.7531
  0
LINE
  8
0
 10
250.52
 20
55.7531
 11
250.52
 21
56.2469
  0
LINE
  8
0
 10
250.52
 20
56.2469
 11
250.681
 21
56.7139
  0
LINE
  8
0
 10
250.681
 20
56.7139
 11
250.984
 21
57.1036
  0
LINE
  8
0
 10
250.984
 20
57.1036
 11
251.397
 21
57.3737
  0
LINE
  8
0
 10
251.397
 20
57.3737
 11
251.876
 21
57.4949
  0
LINE
  8
0
 10
251.876
 20
57.4949
 11
252.368
 21
57.4541
  0
LINE
  8
0
 10
252.368
 20
57.4541
 11
252.82
 21
57.2557
  0
LINE
  8
0
 10
252.82
 20
57.2557
 11
253.184
 21
56.9213
  0
LINE
  8
0
 10
253.184
 20
56.9213
 11
253.419
 21
56.487
  0
LINE
  8
0
 10
253.419
 20
56.487
 11
253.5
 21
56
  0
LINE
  8
0
 10
253.5
 20
56
 11
253.419
 21
55.5129
  0
LINE
  8
0
 10
253.419
 20
55.5129
 11
253.184
 21
55.0787
  0
LINE
  8
0
 10
253.184
 20
55.0787
 11
252.82
 21
54.7442
  0
LINE
  8
0
 10
252.82
 20
54.7442
 11
252.368
 21
54.5459
  0
LINE
  8
0
 10
252.368
 20
54.5459
 11
251.876
 21
54.5051
  0
LINE
  8
0
 10
251.876
 20
54.5051
 11
251.397
 21
54.6263
  0
LINE
  8
0
 10
239.397
 20
54.6263
 11
238.984
 21
54.8964
  0
LINE
  8
0
 10
238.984
 20
54.8964
 11
238.681
 21
55.2861
  0
LINE
  8
0
 10
238.681
 20
55.2861
 11
238.52
 21
55.7531
  0
LINE
  8
0
 10
238.52
 20
55.7531
 11
238.52
 21
56.2469
  0
LINE
  8
0
 10
238.52
 20
56.2469
 11
238.681
 21
56.7139
  0
LINE
  8
0
 10
238.681
 20
56.7139
 11
238.984
 21
57.1036
  0
LINE
  8
0
 10
238.984
 20
57.1036
 11
239.397
 21
57.3737
  0
LINE
  8
0
 10
239.397
 20
57.3737
 11
239.876
 21
57.4949
  0
LINE
  8
0
 10
239.876
 20
57.4949
 11
240.368
 21
57.4541
  0
LINE
  8
0
 10
240.368
 20
57.4541
 11
240.82
 21
57.2557
  0
LINE
  8
0
 10
240.82
 20
57.2557
 11
241.184
 21
56.9213
  0
LINE
  8
0
 10
241.184
 20
56.9213
 11
241.419
 21
56.487
  0
LINE
  8
0
 10
241.419
 20
56.487
 11
241.5
 21
56
  0
LINE
  8
0
 10
241.5
 20
56
 11
241.419
 21
55.5129
  0
LINE
  8
0
 10
241.419
 20
55.5129
 11
241.184
 21
55.0787
  0
LINE
  8
0
 10
241.184
 20
55.0787
 11
240.82
 21
54.7442
  0
LINE
  8
0
 10
240.82
 20
54.7442
 11
240.368
 21
54.5459
  0
LINE
  8
0
 10
240.368
 20
54.5459
 11
239.876
 21
54.5051
  0
LINE
  8
0
 10
239.876
 20
54.5051
 11
239.397
 21
54.6263
  0
LINE
  8
0
 10
89.3974
 20
54.6263
 11
88.9841
 21
54.8964
  0
LINE
  8
0
 10
88.9841
 20
54.8964
 11
88.6808
 21
55.2861
  0
LINE
  8
0
 10
88.6808
 20
55.2861
 11
88.5204
 21
55.7531
  0
LINE
  8
0
 10
88.5204
 20
55.7531
 11
88.5204
 21
56.2469
  0
LINE
  8
0
 10
88.5204
 20
56.2469
 11
88.6808
 21
56.7139
  0
LINE
  8
0
 10
88.6808
 20
56.7139
 11
88.9841
 21
57.1036
  0
LINE
  8
0
 10
88.9841
 20
57.1036
 11
89.3974
 21
57.3737
  0
LINE
  8
0
 10
89.3974
 20
57.3737
 11
89.8761
 21
57.4949
  0
LINE
  8
0
 10
89.8761
 20
57.4949
 11
90.3682
 21
57.4541
  0
LINE
  8
0
 10
90.3682
 20
57.4541
 11
90.8204
 21
57.2557
  0
LINE
  8
0
 10
90.8204
 20
57.2557
 11
91.1837
 21
56.9213
  0
LINE
  8
0
 10
91.1837
 20
56.9213
 11
91.4187
 21
56.487
  0
LINE
  8
0
 10
91.4187
 20
56.487
 11
91.5
 21
56
  0
LINE
  8
0
 10
91.5
 20
56
 11
91.4187
 21
55.5129
  0
LINE
  8
0
 10
91.4187
 20
55.5129
 11
91.1837
 21
55.0787
  0
LINE
  8
0
 10
91.1837
 20
55.0787
 11
90.8204
 21
54.7442
  0
LINE
  8
0
 10
90.8204
 20
54.7442
 11
90.3682
 21
54.5459
  0
LINE
  8
0
 10
90.3682
 20
54.5459
 11
89.8761
 21
54.5051
  0
LINE
  8
0
 10
89.8761
 20
54.5051
 11
89.3974
 21
54.6263
  0
LINE
  8
0
 10
349.397
 20
54.6263
 11
348.984
 21
54.8964
  0
LINE
  8
0
 10
348.984
 20
54.8964
 11
348.681
 21
55.2861
  0
LINE
  8
0
 10
348.681
 20
55.2861
 11
348.52
 21
55.7531
  0
LINE
  8
0
 10
348.52
 20
55.7531
 11
348.52
 21
56.2469
  0
LINE
  8
0
 10
348.52
 20
56.2469
 11
348.681
 21
56.7139
  0
LINE
  8
0
 10
348.681
 20
56.7139
 11
348.984
 21
57.1036
  0
LINE
  8
0
 10
348.984
 20
57.1036
 11
349.397
 21
57.3737
  0
LINE
  8
0
 10
349.397
 20
57.3737
 11
349.876
 21
57.4949
  0
LINE
  8
0
 10
349.876
 20
57.4949
 11
350.368
 21
57.4541
  0
LINE
  8
0
 10
350.368
 20
57.4541
 11
350.82
 21
57.2557
  0
LINE
  8
0
 10
350.82
 20
57.2557
 11
351.184
 21
56.9213
  0
LINE
  8
0
 10
351.184
 20
56.9213
 11
351.419
 21
56.487
  0
LINE
  8
0
 10
351.419
 20
56.487
 11
351.5
 21
56
  0
LINE
  8
0
 10
351.5
 20
56
 11
351.419
 21
55.5129
  0
LINE
  8
0
 10
351.419
 20
55.5129
 11
351.184
 21
55.0787
  0
LINE
  8
0
 10
351.184
 20
55.0787
 11
350.82
 21
54.7442
  0
LINE
  8
0
 10
350.82
 20
54.7442
 11
350.368
 21
54.5459
  0
LINE
  8
0
 10
350.368
 20
54.5459
 11
349.876
 21
54.5051
  0
LINE
  8
0
 10
349.876
 20
54.5051
 11
349.397
 21
54.6263
  0
LINE
  8
0
 10
199.397
 20
54.6263
 11
198.984
 21
54.8964
  0
LINE
  8
0
 10
198.984
 20
54.8964
 11
198.681
 21
55.2861
  0
LINE
  8
0
 10
198.681
 20
55.2861
 11
198.52
 21
55.7531
  0
LINE
  8
0
 10
198.52
 20
55.7531
 11
198.52
 21
56.2469
  0
LINE
  8
0
 10
198.52
 20
56.2469
 11
198.681
 21
56.7139
  0
LINE
  8
0
 10
198.681
 20
56.7139
 11
198.984
 21
57.1036
  0
LINE
  8
0
 10
198.984
 20
57.1036
 11
199.397
 21
57.3737
  0
LINE
  8
0
 10
199.397
 20
57.3737
 11
199.876
 21
57.4949
  0
LINE
  8
0
 10
199.876
 20
57.4949
 11
200.368
 21
57.4541
  0
LINE
  8
0
 10
200.368
 20
57.4541
 11
200.82
 21
57.2557
  0
LINE
  8
0
 10
200.82
 20
57.2557
 11
201.184
 21
56.9213
  0
LINE
  8
0
 10
201.184
 20
56.9213
 11
201.419
 21
56.487
  0
LINE
  8
0
 10
201.419
 20
56.487
 11
201.5
 21
56
  0
LINE
  8
0
 10
201.5
 20
56
 11
201.419
 21
55.5129
  0
LINE
  8
0
 10
201.419
 20
55.5129
 11
201.184
 21
55.0787
  0
LINE
  8
0
 10
201.184
 20
55.0787
 11
200.82
 21
54.7442
  0
LINE
  8
0
 10
200.82
 20
54.7442
 11
200.368
 21
54.5459
  0
LINE
  8
0
 10
200.368
 20
54.5459
 11
199.876
 21
54.5051
  0
LINE
  8
0
 10
199.876
 20
54.5051
 11
199.397
 21
54.6263
  0
LINE
  8
0
 10
95.3974
 20
54.6263
 11
94.9841
 21
54.8964
  0
LINE
  8
0
 10
94.9841
 20
54.8964
 11
94.6808
 21
55.2861
  0
LINE
  8
0
 10
94.6808
 20
55.2861
 11
94.5204
 21
55.7531
  0
LINE
  8
0
 10
94.5204
 20
55.7531
 11
94.5204
 21
56.2469
  0
LINE
  8
0
 10
94.5204
 20
56.2469
 11
94.6808
 21
56.7139
  0
LINE
  8
0
 10
94.6808
 20
56.7139
 11
94.9841
 21
57.1036
  0
LINE
  8
0
 10
94.9841
 20
57.1036
 11
95.3974
 21
57.3737
  0
LINE
  8
0
 10
95.3974
 20
57.3737
 11
95.8761
 21
57.4949
  0
LINE
  8
0
 10
95.8761
 20
57.4949
 11
96.3682
 21
57.4541
  0
LINE
  8
0
 10
96.3682
 20
57.4541
 11
96.8204
 21
57.2557
  0
LINE
  8
0
 10
96.8204
 20
57.2557
 11
97.1837
 21
56.9213
  0
LINE
  8
0
 10
97.1837
 20
56.9213
 11
97.4187
 21
56.487
  0
LINE
  8
0
 10
97.4187
 20
56.487
 11
97.5
 21
56
  0
LINE
  8
0
 10
97.5
 20
56
 11
97.4187
 21
55.5129
  0
LINE
  8
0
 10
97.4187
 20
55.5129
 11
97.1837
 21
55.0787
  0
LINE
  8
0
 10
97.1837
 20
55.0787
 11
96.8204
 21
54.7442
  0
LINE
  8
0
 10
96.8204
 20
54.7442
 11
96.3682
 21
54.5459
  0
LINE
  8
0
 10
96.3682
 20
54.5459
 11
95.8761
 21
54.5051
  0
LINE
  8
0
 10
95.8761
 20
54.5051
 11
95.3974
 21
54.6263
  0
LINE
  8
0
 10
101.397
 20
54.6263
 11
100.984
 21
54.8964
  0
LINE
  8
0
 10
100.984
 20
54.8964
 11
100.681
 21
55.2861
  0
LINE
  8
0
 10
100.681
 20
55.2861
 11
100.52
 21
55.7531
  0
LINE
  8
0
 10
100.52
 20
55.7531
 11
100.52
 21
56.2469
  0
LINE
  8
0
 10
100.52
 20
56.2469
 11
100.681
 21
56.7139
  0
LINE
  8
0
 10
100.681
 20
56.7139
 11
100.984
 21
57.1036
  0
LINE
  8
0
 10
100.984
 20
57.1036
 11
101.397
 21
57.3737
  0
LINE
  8
0
 10
101.397
 20
57.3737
 11
101.876
 21
57.4949
  0
LINE
  8
0
 10
101.876
 20
57.4949
 11
102.368
 21
57.4541
  0
LINE
  8
0
 10
102.368
 20
57.4541
 11
102.82
 21
57.2557
  0
LINE
  8
0
 10
102.82
 20
57.2557
 11
103.184
 21
56.9213
  0
LINE
  8
0
 10
103.184
 20
56.9213
 11
103.419
 21
56.487
  0
LINE
  8
0
 10
103.419
 20
56.487
 11
103.5
 21
56
  0
LINE
  8
0
 10
103.5
 20
56
 11
103.419
 21
55.5129
  0
LINE
  8
0
 10
103.419
 20
55.5129
 11
103.184
 21
55.0787
  0
LINE
  8
0
 10
103.184
 20
55.0787
 11
102.82
 21
54.7442
  0
LINE
  8
0
 10
102.82
 20
54.7442
 11
102.368
 21
54.5459
  0
LINE
  8
0
 10
102.368
 20
54.5459
 11
101.876
 21
54.5051
  0
LINE
  8
0
 10
101.876
 20
54.5051
 11
101.397
 21
54.6263
  0
LINE
  8
0
 10
14.7523
 20
12.0102
 11
14.2635
 21
12.0918
  0
LINE
  8
0
 10
14.2635
 20
12.0918
 11
13.7949
 21
12.2527
  0
LINE
  8
0
 10
13.7949
 20
12.2527
 11
13.3591
 21
12.4885
  0
LINE
  8
0
 10
13.3591
 20
12.4885
 11
12.9682
 21
12.7928
  0
LINE
  8
0
 10
12.9682
 20
12.7928
 11
12.6326
 21
13.1573
  0
LINE
  8
0
 10
12.6326
 20
13.1573
 11
12.3616
 21
13.5721
  0
LINE
  8
0
 10
12.3616
 20
13.5721
 11
12.1625
 21
14.0259
  0
LINE
  8
0
 10
12.1625
 20
14.0259
 11
12.0409
 21
14.5062
  0
LINE
  8
0
 10
12.0409
 20
14.5062
 11
12
 21
15
  0
LINE
  8
0
 10
12
 20
15
 11
12.0409
 21
15.4938
  0
LINE
  8
0
 10
12.0409
 20
15.4938
 11
12.1625
 21
15.9741
  0
LINE
  8
0
 10
12.1625
 20
15.9741
 11
12.3616
 21
16.4278
  0
LINE
  8
0
 10
12.3616
 20
16.4278
 11
12.6326
 21
16.8426
  0
LINE
  8
0
 10
12.6326
 20
16.8426
 11
12.9682
 21
17.2072
  0
LINE
  8
0
 10
12.9682
 20
17.2072
 11
13.3591
 21
17.5115
  0
LINE
  8
0
 10
13.3591
 20
17.5115
 11
13.7949
 21
17.7473
  0
LINE
  8
0
 10
13.7949
 20
17.7473
 11
14.2635
 21
17.9082
  0
LINE
  8
0
 10
14.2635
 20
17.9082
 11
14.7523
 21
17.9897
  0
LINE
  8
0
 10
14.7523
 20
17.9897
 11
15.2477
 21
17.9897
  0
LINE
  8
0
 10
15.2477
 20
17.9897
 11
15.7365
 21
17.9082
  0
LINE
  8
0
 10
15.7365
 20
17.9082
 11
16.2051
 21
17.7473
  0
LINE
  8
0
 10
16.2051
 20
17.7473
 11
16.6408
 21
17.5115
  0
LINE
  8
0
 10
16.6408
 20
17.5115
 11
17.0318
 21
17.2072
  0
LINE
  8
0
 10
17.0318
 20
17.2072
 11
17.3674
 21
16.8426
  0
LINE
  8
0
 10
17.3674
 20
16.8426
 11
17.6384
 21
16.4278
  0
LINE
  8
0
 10
17.6384
 20
16.4278
 11
17.8374
 21
15.9741
  0
LINE
  8
0
 10
17.8374
 20
15.9741
 11
17.9591
 21
15.4938
  0
LINE
  8
0
 10
17.9591
 20
15.4938
 11
18
 21
15
  0
LINE
  8
0
 10
18
 20
15
 11
17.9591
 21
14.5062
  0
LINE
  8
0
 10
17.9591
 20
14.5062
 11
17.8374
 21
14.0259
  0
LINE
  8
0
 10
17.8374
 20
14.0259
 11
17.6384
 21
13.5721
  0
LINE
  8
0
 10
17.6384
 20
13.5721
 11
17.3674
 21
13.1573
  0
LINE
  8
0
 10
17.3674
 20
13.1573
 11
17.0318
 21
12.7928
  0
LINE
  8
0
 10
17.0318
 20
12.7928
 11
16.6408
 21
12.4885
  0
LINE
  8
0
 10
16.6408
 20
12.4885
 11
16.2051
 21
12.2527
  0
LINE
  8
0
 10
16.2051
 20
12.2527
 11
15.7365
 21
12.0918
  0
LINE
  8
0
 10
15.7365
 20
12.0918
 11
15.2477
 21
12.0102
  0
LINE
  8
0
 10
15.2477
 20
12.0102
 11
14.7523
 21
12.0102
  0
LINE
  8
0
 10
514.752
 20
12.0102
 11
514.264
 21
12.0918
  0
LINE
  8
0
 10
514.264
 20
12.0918
 11
513.795
 21
12.2527
  0
LINE
  8
0
 10
513.795
 20
12.2527
 11
513.359
 21
12.4885
  0
LINE
  8
0
 10
513.359
 20
12.4885
 11
512.968
 21
12.7928
  0
LINE
  8
0
 10
512.968
 20
12.7928
 11
512.633
 21
13.1573
  0
LINE
  8
0
 10
512.633
 20
13.1573
 11
512.362
 21
13.5721
  0
LINE
  8
0
 10
512.362
 20
13.5721
 11
512.163
 21
14.0259
  0
LINE
  8
0
 10
512.163
 20
14.0259
 11
512.041
 21
14.5062
  0
LINE
  8
0
 10
512.041
 20
14.5062
 11
512
 21
15
  0
LINE
  8
0
 10
512
 20
15
 11
512.041
 21
15.4938
  0
LINE
  8
0
 10
512.041
 20
15.4938
 11
512.163
 21
15.9741
  0
LINE
  8
0
 10
512.163
 20
15.9741
 11
512.362
 21
16.4278
  0
LINE
  8
0
 10
512.362
 20
16.4278
 11
512.633
 21
16.8426
  0
LINE
  8
0
 10
512.633
 20
16.8426
 11
512.968
 21
17.2072
  0
LINE
  8
0
 10
512.968
 20
17.2072
 11
513.359
 21
17.5115
  0
LINE
  8
0
 10
513.359
 20
17.5115
 11
513.795
 21
17.7473
  0
LINE
  8
0
 10
513.795
 20
17.7473
 11
514.264
 21
17.9082
  0
LINE
  8
0
 10
514.264
 20
17.9082
 11
514.752
 21
17.9897
  0
LINE
  8
0
 10
514.752
 20
17.9897
 11
515.248
 21
17.9897
  0
LINE
  8
0
 10
515.248
 20
17.9897
 11
515.736
 21
17.9082
  0
LINE
  8
0
 10
515.736
 20
17.9082
 11
516.205
 21
17.7473
  0
LINE
  8
0
 10
516.205
 20
17.7473
 11
516.641
 21
17.5115
  0
LINE
  8
0
 10
516.641
 20
17.5115
 11
517.032
 21
17.2072
  0
LINE
  8
0
 10
517.032
 20
17.2072
 11
517.367
 21
16.8426
  0
LINE
  8
0
 10
517.367
 20
16.8426
 11
517.638
 21
16.4278
  0
LINE
  8
0
 10
517.638
 20
16.4278
 11
517.837
 21
15.9741
  0
LINE
  8
0
 10
517.837
 20
15.9741
 11
517.959
 21
15.4938
  0
LINE
  8
0
 10
517.959
 20
15.4938
 11
518
 21
15
  0
LINE
  8
0
 10
518
 20
15
 11
517.959
 21
14.5062
  0
LINE
  8
0
 10
517.959
 20
14.5062
 11
517.837
 21
14.0259
  0
LINE
  8
0
 10
517.837
 20
14.0259
 11
517.638
 21
13.5721
  0
LINE
  8
0
 10
517.638
 20
13.5721
 11
517.367
 21
13.1573
  0
LINE
  8
0
 10
517.367
 20
13.1573
 11
517.032
 21
12.7928
  0
LINE
  8
0
 10
517.032
 20
12.7928
 11
516.641
 21
12.4885
  0
LINE
  8
0
 10
516.641
 20
12.4885
 11
516.205
 21
12.2527
  0
LINE
  8
0
 10
516.205
 20
12.2527
 11
515.736
 21
12.0918
  0
LINE
  8
0
 10
515.736
 20
12.0918
 11
515.248
 21
12.0102
  0
LINE
  8
0
 10
515.248
 20
12.0102
 11
514.752
 21
12.0102
  0
LINE
  8
0
 10
165.377
 20
12.0102
 11
164.889
 21
12.0918
  0
LINE
  8
0
 10
164.889
 20
12.0918
 11
164.42
 21
12.2527
  0
LINE
  8
0
 10
164.42
 20
12.2527
 11
163.984
 21
12.4885
  0
LINE
  8
0
 10
163.984
 20
12.4885
 11
163.593
 21
12.7928
  0
LINE
  8
0
 10
163.593
 20
12.7928
 11
163.258
 21
13.1573
  0
LINE
  8
0
 10
163.258
 20
13.1573
 11
162.987
 21
13.5721
  0
LINE
  8
0
 10
162.987
 20
13.5721
 11
162.788
 21
14.0259
  0
LINE
  8
0
 10
162.788
 20
14.0259
 11
162.666
 21
14.5062
  0
LINE
  8
0
 10
162.666
 20
14.5062
 11
162.625
 21
15
  0
LINE
  8
0
 10
162.625
 20
15
 11
162.666
 21
15.4938
  0
LINE
  8
0
 10
162.666
 20
15.4938
 11
162.788
 21
15.9741
  0
LINE
  8
0
 10
162.788
 20
15.9741
 11
162.987
 21
16.4278
  0
LINE
  8
0
 10
162.987
 20
16.4278
 11
163.258
 21
16.8426
  0
LINE
  8
0
 10
163.258
 20
16.8426
 11
163.593
 21
17.2072
  0
LINE
  8
0
 10
163.593
 20
17.2072
 11
163.984
 21
17.5115
  0
LINE
  8
0
 10
163.984
 20
17.5115
 11
164.42
 21
17.7473
  0
LINE
  8
0
 10
164.42
 20
17.7473
 11
164.889
 21
17.9082
  0
LINE
  8
0
 10
164.889
 20
17.9082
 11
165.377
 21
17.9897
  0
LINE
  8
0
 10
165.377
 20
17.9897
 11
165.873
 21
17.9897
  0
LINE
  8
0
 10
165.873
 20
17.9897
 11
166.361
 21
17.9082
  0
LINE
  8
0
 10
166.361
 20
17.9082
 11
166.83
 21
17.7473
  0
LINE
  8
0
 10
166.83
 20
17.7473
 11
167.266
 21
17.5115
  0
LINE
  8
0
 10
167.266
 20
17.5115
 11
167.657
 21
17.2072
  0
LINE
  8
0
 10
167.657
 20
17.2072
 11
167.992
 21
16.8426
  0
LINE
  8
0
 10
167.992
 20
16.8426
 11
168.263
 21
16.4278
  0
LINE
  8
0
 10
168.263
 20
16.4278
 11
168.462
 21
15.9741
  0
LINE
  8
0
 10
168.462
 20
15.9741
 11
168.584
 21
15.4938
  0
LINE
  8
0
 10
168.584
 20
15.4938
 11
168.625
 21
15
  0
LINE
  8
0
 10
168.625
 20
15
 11
168.584
 21
14.5062
  0
LINE
  8
0
 10
168.584
 20
14.5062
 11
168.462
 21
14.0259
  0
LINE
  8
0
 10
168.462
 20
14.0259
 11
168.263
 21
13.5721
  0
LINE
  8
0
 10
168.263
 20
13.5721
 11
167.992
 21
13.1573
  0
LINE
  8
0
 10
167.992
 20
13.1573
 11
167.657
 21
12.7928
  0
LINE
  8
0
 10
167.657
 20
12.7928
 11
167.266
 21
12.4885
  0
LINE
  8
0
 10
167.266
 20
12.4885
 11
166.83
 21
12.2527
  0
LINE
  8
0
 10
166.83
 20
12.2527
 11
166.361
 21
12.0918
  0
LINE
  8
0
 10
166.361
 20
12.0918
 11
165.873
 21
12.0102
  0
LINE
  8
0
 10
165.873
 20
12.0102
 11
165.377
 21
12.0102
  0
ENDSEC
  0
SECTION
  2
OBJECTS
  0
DICTIONARY
  0
ENDSEC
  0
EOF
