  0
SECTION
  2
BLOCKS
  0
ENDSEC
  0
SECTION
  2
ENTITIES
  0
LINE
  8
0
 10
504.504
 20
-9.9951
 11
505.008
 21
-9.98044
  0
LINE
  8
0
 10
505.008
 20
-9.98044
 11
505.512
 21
-9.95601
  0
LINE
  8
0
 10
505.512
 20
-9.95601
 11
506.015
 21
-9.92181
  0
LINE
  8
0
 10
506.015
 20
-9.92181
 11
506.517
 21
-9.87787
  0
LINE
  8
0
 10
506.517
 20
-9.87787
 11
507.018
 21
-9.82419
  0
LINE
  8
0
 10
507.018
 20
-9.82419
 11
507.519
 21
-9.7608
  0
LINE
  8
0
 10
507.519
 20
-9.7608
 11
508.017
 21
-9.68773
  0
LINE
  8
0
 10
508.017
 20
-9.68773
 11
508.515
 21
-9.605
  0
LINE
  8
0
 10
508.515
 20
-9.605
 11
509.011
 21
-9.51263
  0
LINE
  8
0
 10
509.011
 20
-9.51263
 11
509.504
 21
-9.41068
  0
LINE
  8
0
 10
509.504
 20
-9.41068
 11
509.996
 21
-9.29916
  0
LINE
  8
0
 10
509.996
 20
-9.29916
 11
510.485
 21
-9.17813
  0
LINE
  8
0
 10
510.485
 20
-9.17813
 11
510.972
 21
-9.04764
  0
LINE
  8
0
 10
510.972
 20
-9.04764
 11
511.457
 21
-8.90771
  0
LINE
  8
0
 10
511.457
 20
-8.90771
 11
511.938
 21
-8.75844
  0
LINE
  8
0
 10
511.938
 20
-8.75844
 11
512.417
 21
-8.59984
  0
LINE
  8
0
 10
512.417
 20
-8.59984
 11
512.893
 21
-8.43201
  0
LINE
  8
0
 10
512.893
 20
-8.43201
 11
513.365
 21
-8.25497
  0
LINE
  8
0
 10
513.365
 20
-8.25497
 11
513.833
 21
-8.06882
  0
LINE
  8
0
 10
513.833
 20
-8.06882
 11
514.298
 21
-7.87361
  0
LINE
  8
0
 10
514.298
 20
-7.87361
 11
514.759
 21
-7.66943
  0
LINE
  8
0
 10
514.759
 20
-7.66943
 11
515.216
 21
-7.45634
  0
LINE
  8
0
 10
515.216
 20
-7.45634
 11
515.669
 21
-7.23444
  0
LINE
  8
0
 10
515.669
 20
-7.23444
 11
516.117
 21
-7.0038
  0
LINE
  8
0
 10
516.117
 20
-7.0038
 11
516.561
 21
-6.76451
  0
LINE
  8
0
 10
516.561
 20
-6.76451
 11
517
 21
-6.51665
  0
LINE
  8
0
 10
517
 20
-6.51665
 11
517.434
 21
-6.26033
  0
LINE
  8
0
 10
517.434
 20
-6.26033
 11
517.863
 21
-5.99564
  0
LINE
  8
0
 10
517.863
 20
-5.99564
 11
518.287
 21
-5.72267
  0
LINE
  8
0
 10
518.287
 20
-5.72267
 11
518.706
 21
-5.44154
  0
LINE
  8
0
 10
518.706
 20
-5.44154
 11
519.119
 21
-5.15234
  0
LINE
  8
0
 10
519.119
 20
-5.15234
 11
519.526
 21
-4.85519
  0
LINE
  8
0
 10
519.526
 20
-4.85519
 11
519.928
 21
-4.5502
  0
LINE
  8
0
 10
519.928
 20
-4.5502
 11
520.323
 21
-4.23747
  0
LINE
  8
0
 10
520.323
 20
-4.23747
 11
520.712
 21
-3.91714
  0
LINE
  8
0
 10
520.712
 20
-3.91714
 11
521.096
 21
-3.58932
  0
LINE
  8
0
 10
521.096
 20
-3.58932
 11
521.472
 21
-3.25414
  0
LINE
  8
0
 10
521.472
 20
-3.25414
 11
521.842
 21
-2.91171
  0
LINE
  8
0
 10
521.842
 20
-2.91171
 11
522.206
 21
-2.56216
  0
LINE
  8
0
 10
522.206
 20
-2.56216
 11
522.562
 21
-2.20564
  0
LINE
  8
0
 10
522.562
 20
-2.20564
 11
522.912
 21
-1.84227
  0
LINE
  8
0
 10
522.912
 20
-1.84227
 11
523.254
 21
-1.4722
  0
LINE
  8
0
 10
523.254
 20
-1.4722
 11
523.589
 21
-1.09555
  0
LINE
  8
0
 10
523.589
 20
-1.09555
 11
523.917
 21
-0.712463
  0
LINE
  8
0
 10
523.917
 20
-0.712463
 11
524.237
 21
-0.323105
  0
LINE
  8
0
 10
524.237
 20
-0.323105
 11
524.55
 21
0.0723877
  0
LINE
  8
0
 10
524.55
 20
0.0723877
 11
524.855
 21
0.473877
  0
LINE
  8
0
 10
524.855
 20
0.473877
 11
525.152
 21
0.88121
  0
LINE
  8
0
 10
525.152
 20
0.88121
 11
525.442
 21
1.29424
  0
LINE
  8
0
 10
525.442
 20
1.29424
 11
525.723
 21
1.71277
  0
LINE
  8
0
 10
525.723
 20
1.71277
 11
525.996
 21
2.13669
  0
LINE
  8
0
 10
525.996
 20
2.13669
 11
526.26
 21
2.56583
  0
LINE
  8
0
 10
526.26
 20
2.56583
 11
526.517
 21
3
  0
LINE
  8
0
 10
526.517
 20
3
 11
526.765
 21
3.43909
  0
LINE
  8
0
 10
526.765
 20
3.43909
 11
527.004
 21
3.88287
  0
LINE
  8
0
 10
527.004
 20
3.88287
 11
527.234
 21
4.33122
  0
LINE
  8
0
 10
527.234
 20
4.33122
 11
527.456
 21
4.78397
  0
LINE
  8
0
 10
527.456
 20
4.78397
 11
527.669
 21
5.24094
  0
LINE
  8
0
 10
527.669
 20
5.24094
 11
527.874
 21
5.70193
  0
LINE
  8
0
 10
527.874
 20
5.70193
 11
528.069
 21
6.16681
  0
LINE
  8
0
 10
528.069
 20
6.16681
 11
528.255
 21
6.63539
  0
LINE
  8
0
 10
528.255
 20
6.63539
 11
528.432
 21
7.10748
  0
LINE
  8
0
 10
528.432
 20
7.10748
 11
528.6
 21
7.58293
  0
LINE
  8
0
 10
528.6
 20
7.58293
 11
528.758
 21
8.06154
  0
LINE
  8
0
 10
528.758
 20
8.06154
 11
528.908
 21
8.54312
  0
LINE
  8
0
 10
528.908
 20
8.54312
 11
529.048
 21
9.02753
  0
LINE
  8
0
 10
529.048
 20
9.02753
 11
529.178
 21
9.51454
  0
LINE
  8
0
 10
529.178
 20
9.51454
 11
529.299
 21
10.004
  0
LINE
  8
0
 10
529.299
 20
10.004
 11
529.411
 21
10.4957
  0
LINE
  8
0
 10
529.411
 20
10.4957
 11
529.513
 21
10.9895
  0
LINE
  8
0
 10
529.513
 20
10.9895
 11
529.605
 21
11.4852
  0
LINE
  8
0
 10
529.605
 20
11.4852
 11
529.688
 21
11.9825
  0
LINE
  8
0
 10
529.688
 20
11.9825
 11
529.692
 21
12.0102
  0
LINE
  8
0
 10
529.692
 20
12.0102
 11
494.752
 21
12.0102
  0
LINE
  8
0
 10
494.752
 20
12.0102
 11
494.264
 21
12.0918
  0
LINE
  8
0
 10
494.264
 20
12.0918
 11
493.795
 21
12.2527
  0
LINE
  8
0
 10
493.795
 20
12.2527
 11
493.359
 21
12.4885
  0
LINE
  8
0
 10
493.359
 20
12.4885
 11
492.968
 21
12.7928
  0
LINE
  8
0
 10
492.968
 20
12.7928
 11
492.633
 21
13.1573
  0
LINE
  8
0
 10
492.633
 20
13.1573
 11
492.362
 21
13.5721
  0
LINE
  8
0
 10
492.362
 20
13.5721
 11
492.163
 21
14.0259
  0
LINE
  8
0
 10
492.163
 20
14.0259
 11
492.041
 21
14.5062
  0
LINE
  8
0
 10
492.041
 20
14.5062
 11
492
 21
15
  0
LINE
  8
0
 10
492
 20
15
 11
492.041
 21
15.4938
  0
LINE
  8
0
 10
492.041
 20
15.4938
 11
492.163
 21
15.9741
  0
LINE
  8
0
 10
492.163
 20
15.9741
 11
492.362
 21
16.4278
  0
LINE
  8
0
 10
492.362
 20
16.4278
 11
492.633
 21
16.8426
  0
LINE
  8
0
 10
492.633
 20
16.8426
 11
492.968
 21
17.2072
  0
LINE
  8
0
 10
492.968
 20
17.2072
 11
493.359
 21
17.5115
  0
LINE
  8
0
 10
493.359
 20
17.5115
 11
493.795
 21
17.7473
  0
LINE
  8
0
 10
493.795
 20
17.7473
 11
494.264
 21
17.9082
  0
LINE
  8
0
 10
494.264
 20
17.9082
 11
494.752
 21
17.9897
  0
LINE
  8
0
 10
494.752
 20
17.9897
 11
530
 21
17.9897
  0
LINE
  8
0
 10
530
 20
17.9897
 11
530
 21
30
  0
LINE
  8
0
 10
530
 20
30
 11
509
 21
30
  0
LINE
  8
0
 10
509
 20
30
 11
508.478
 21
30.0342
  0
LINE
  8
0
 10
508.478
 20
30.0342
 11
507.965
 21
30.1363
  0
LINE
  8
0
 10
507.965
 20
30.1363
 11
507.469
 21
30.3045
  0
LINE
  8
0
 10
507.469
 20
30.3045
 11
507
 21
30.5359
  0
LINE
  8
0
 10
507
 20
30.5359
 11
506.565
 21
30.8266
  0
LINE
  8
0
 10
506.565
 20
30.8266
 11
506.172
 21
31.1716
  0
LINE
  8
0
 10
506.172
 20
31.1716
 11
505.827
 21
31.565
  0
LINE
  8
0
 10
505.827
 20
31.565
 11
505.536
 21
32
  0
LINE
  8
0
 10
505.536
 20
32
 11
505.304
 21
32.4693
  0
LINE
  8
0
 10
505.304
 20
32.4693
 11
505.136
 21
32.9647
  0
LINE
  8
0
 10
505.136
 20
32.9647
 11
505.034
 21
33.4779
  0
LINE
  8
0
 10
505.034
 20
33.4779
 11
505
 21
34
  0
LINE
  8
0
 10
505
 20
34
 11
505
 21
181
  0
LINE
  8
0
 10
505
 20
181
 11
505.034
 21
181.522
  0
LINE
  8
0
 10
505.034
 20
181.522
 11
505.136
 21
182.035
  0
LINE
  8
0
 10
505.136
 20
182.035
 11
505.304
 21
182.531
  0
LINE
  8
0
 10
505.304
 20
182.531
 11
505.536
 21
183
  0
LINE
  8
0
 10
505.536
 20
183
 11
505.827
 21
183.435
  0
LINE
  8
0
 10
505.827
 20
183.435
 11
506.172
 21
183.828
  0
LINE
  8
0
 10
506.172
 20
183.828
 11
506.565
 21
184.173
  0
LINE
  8
0
 10
506.565
 20
184.173
 11
507
 21
184.464
  0
LINE
  8
0
 10
507
 20
184.464
 11
507.469
 21
184.696
  0
LINE
  8
0
 10
507.469
 20
184.696
 11
507.965
 21
184.864
  0
LINE
  8
0
 10
507.965
 20
184.864
 11
508.478
 21
184.966
  0
LINE
  8
0
 10
508.478
 20
184.966
 11
509
 21
185
  0
LINE
  8
0
 10
509
 20
185
 11
530
 21
185
  0
LINE
  8
0
 10
530
 20
185
 11
530
 21
197.01
  0
LINE
  8
0
 10
530
 20
197.01
 11
494.752
 21
197.01
  0
LINE
  8
0
 10
494.752
 20
197.01
 11
494.264
 21
197.092
  0
LINE
  8
0
 10
494.264
 20
197.092
 11
493.795
 21
197.253
  0
LINE
  8
0
 10
493.795
 20
197.253
 11
493.359
 21
197.488
  0
LINE
  8
0
 10
493.359
 20
197.488
 11
492.968
 21
197.793
  0
LINE
  8
0
 10
492.968
 20
197.793
 11
492.633
 21
198.157
  0
LINE
  8
0
 10
492.633
 20
198.157
 11
492.362
 21
198.572
  0
LINE
  8
0
 10
492.362
 20
198.572
 11
492.163
 21
199.026
  0
LINE
  8
0
 10
492.163
 20
199.026
 11
492.041
 21
199.506
  0
LINE
  8
0
 10
492.041
 20
199.506
 11
492
 21
200
  0
LINE
  8
0
 10
492
 20
200
 11
492.041
 21
200.494
  0
LINE
  8
0
 10
492.041
 20
200.494
 11
492.163
 21
200.974
  0
LINE
  8
0
 10
492.163
 20
200.974
 11
492.362
 21
201.428
  0
LINE
  8
0
 10
492.362
 20
201.428
 11
492.633
 21
201.843
  0
LINE
  8
0
 10
492.633
 20
201.843
 11
492.968
 21
202.207
  0
LINE
  8
0
 10
492.968
 20
202.207
 11
493.359
 21
202.511
  0
LINE
  8
0
 10
493.359
 20
202.511
 11
493.795
 21
202.747
  0
LINE
  8
0
 10
493.795
 20
202.747
 11
494.264
 21
202.908
  0
LINE
  8
0
 10
494.264
 20
202.908
 11
494.752
 21
202.99
  0
LINE
  8
0
 10
494.752
 20
202.99
 11
529.692
 21
202.99
  0
LINE
  8
0
 10
529.692
 20
202.99
 11
529.688
 21
203.017
  0
LINE
  8
0
 10
529.688
 20
203.017
 11
529.605
 21
203.515
  0
LINE
  8
0
 10
529.605
 20
203.515
 11
529.513
 21
204.011
  0
LINE
  8
0
 10
529.513
 20
204.011
 11
529.411
 21
204.504
  0
LINE
  8
0
 10
529.411
 20
204.504
 11
529.299
 21
204.996
  0
LINE
  8
0
 10
529.299
 20
204.996
 11
529.178
 21
205.485
  0
LINE
  8
0
 10
529.178
 20
205.485
 11
529.048
 21
205.972
  0
LINE
  8
0
 10
529.048
 20
205.972
 11
528.908
 21
206.457
  0
LINE
  8
0
 10
528.908
 20
206.457
 11
528.758
 21
206.938
  0
LINE
  8
0
 10
528.758
 20
206.938
 11
528.6
 21
207.417
  0
LINE
  8
0
 10
528.6
 20
207.417
 11
528.432
 21
207.893
  0
LINE
  8
0
 10
528.432
 20
207.893
 11
528.255
 21
208.365
  0
LINE
  8
0
 10
528.255
 20
208.365
 11
528.069
 21
208.833
  0
LINE
  8
0
 10
528.069
 20
208.833
 11
527.874
 21
209.298
  0
LINE
  8
0
 10
527.874
 20
209.298
 11
527.669
 21
209.759
  0
LINE
  8
0
 10
527.669
 20
209.759
 11
527.456
 21
210.216
  0
LINE
  8
0
 10
527.456
 20
210.216
 11
527.234
 21
210.669
  0
LINE
  8
0
 10
527.234
 20
210.669
 11
527.004
 21
211.117
  0
LINE
  8
0
 10
527.004
 20
211.117
 11
526.765
 21
211.561
  0
LINE
  8
0
 10
526.765
 20
211.561
 11
526.517
 21
212
  0
LINE
  8
0
 10
526.517
 20
212
 11
526.26
 21
212.434
  0
LINE
  8
0
 10
526.26
 20
212.434
 11
525.996
 21
212.863
  0
LINE
  8
0
 10
525.996
 20
212.863
 11
525.723
 21
213.287
  0
LINE
  8
0
 10
525.723
 20
213.287
 11
525.442
 21
213.706
  0
LINE
  8
0
 10
525.442
 20
213.706
 11
525.152
 21
214.119
  0
LINE
  8
0
 10
525.152
 20
214.119
 11
524.855
 21
214.526
  0
LINE
  8
0
 10
524.855
 20
214.526
 11
524.55
 21
214.928
  0
LINE
  8
0
 10
524.55
 20
214.928
 11
524.237
 21
215.323
  0
LINE
  8
0
 10
524.237
 20
215.323
 11
523.917
 21
215.712
  0
LINE
  8
0
 10
523.917
 20
215.712
 11
523.589
 21
216.096
  0
LINE
  8
0
 10
523.589
 20
216.096
 11
523.254
 21
216.472
  0
LINE
  8
0
 10
523.254
 20
216.472
 11
522.912
 21
216.842
  0
LINE
  8
0
 10
522.912
 20
216.842
 11
522.562
 21
217.206
  0
LINE
  8
0
 10
522.562
 20
217.206
 11
522.206
 21
217.562
  0
LINE
  8
0
 10
522.206
 20
217.562
 11
521.842
 21
217.912
  0
LINE
  8
0
 10
521.842
 20
217.912
 11
521.472
 21
218.254
  0
LINE
  8
0
 10
521.472
 20
218.254
 11
521.096
 21
218.589
  0
LINE
  8
0
 10
521.096
 20
218.589
 11
520.712
 21
218.917
  0
LINE
  8
0
 10
520.712
 20
218.917
 11
520.323
 21
219.237
  0
LINE
  8
0
 10
520.323
 20
219.237
 11
519.928
 21
219.55
  0
LINE
  8
0
 10
519.928
 20
219.55
 11
519.526
 21
219.855
  0
LINE
  8
0
 10
519.526
 20
219.855
 11
519.119
 21
220.152
  0
LINE
  8
0
 10
519.119
 20
220.152
 11
518.706
 21
220.442
  0
LINE
  8
0
 10
518.706
 20
220.442
 11
518.287
 21
220.723
  0
LINE
  8
0
 10
518.287
 20
220.723
 11
517.863
 21
220.996
  0
LINE
  8
0
 10
517.863
 20
220.996
 11
517.434
 21
221.26
  0
LINE
  8
0
 10
517.434
 20
221.26
 11
517
 21
221.517
  0
LINE
  8
0
 10
517
 20
221.517
 11
516.561
 21
221.765
  0
LINE
  8
0
 10
516.561
 20
221.765
 11
516.117
 21
222.004
  0
LINE
  8
0
 10
516.117
 20
222.004
 11
515.669
 21
222.234
  0
LINE
  8
0
 10
515.669
 20
222.234
 11
515.216
 21
222.456
  0
LINE
  8
0
 10
515.216
 20
222.456
 11
514.759
 21
222.669
  0
LINE
  8
0
 10
514.759
 20
222.669
 11
514.298
 21
222.874
  0
LINE
  8
0
 10
514.298
 20
222.874
 11
513.833
 21
223.069
  0
LINE
  8
0
 10
513.833
 20
223.069
 11
513.365
 21
223.255
  0
LINE
  8
0
 10
513.365
 20
223.255
 11
512.893
 21
223.432
  0
LINE
  8
0
 10
512.893
 20
223.432
 11
512.417
 21
223.6
  0
LINE
  8
0
 10
512.417
 20
223.6
 11
511.938
 21
223.758
  0
LINE
  8
0
 10
511.938
 20
223.758
 11
511.457
 21
223.908
  0
LINE
  8
0
 10
511.457
 20
223.908
 11
510.972
 21
224.048
  0
LINE
  8
0
 10
510.972
 20
224.048
 11
510.485
 21
224.178
  0
LINE
  8
0
 10
510.485
 20
224.178
 11
509.996
 21
224.299
  0
LINE
  8
0
 10
509.996
 20
224.299
 11
509.504
 21
224.411
  0
LINE
  8
0
 10
509.504
 20
224.411
 11
509.011
 21
224.513
  0
LINE
  8
0
 10
509.011
 20
224.513
 11
508.515
 21
224.605
  0
LINE
  8
0
 10
508.515
 20
224.605
 11
508.017
 21
224.688
  0
LINE
  8
0
 10
508.017
 20
224.688
 11
507.519
 21
224.761
  0
LINE
  8
0
 10
507.519
 20
224.761
 11
507.018
 21
224.824
  0
LINE
  8
0
 10
507.018
 20
224.824
 11
506.517
 21
224.878
  0
LINE
  8
0
 10
506.517
 20
224.878
 11
506.015
 21
224.922
  0
LINE
  8
0
 10
506.015
 20
224.922
 11
505.512
 21
224.956
  0
LINE
  8
0
 10
505.512
 20
224.956
 11
505.008
 21
224.98
  0
LINE
  8
0
 10
505.008
 20
224.98
 11
504.504
 21
224.995
  0
LINE
  8
0
 10
504.504
 20
224.995
 11
504
 21
225
  0
LINE
  8
0
 10
504
 20
225
 11
26
 21
225
  0
LINE
  8
0
 10
26
 20
225
 11
25.4958
 21
224.995
  0
LINE
  8
0
 10
25.4958
 20
224.995
 11
24.9919
 21
224.98
  0
LINE
  8
0
 10
24.9919
 20
224.98
 11
24.4882
 21
224.956
  0
LINE
  8
0
 10
24.4882
 20
224.956
 11
23.9852
 21
224.922
  0
LINE
  8
0
 10
23.9852
 20
224.922
 11
23.4829
 21
224.878
  0
LINE
  8
0
 10
23.4829
 20
224.878
 11
22.9816
 21
224.824
  0
LINE
  8
0
 10
22.9816
 20
224.824
 11
22.4814
 21
224.761
  0
LINE
  8
0
 10
22.4814
 20
224.761
 11
21.9825
 21
224.688
  0
LINE
  8
0
 10
21.9825
 20
224.688
 11
21.4852
 21
224.605
  0
LINE
  8
0
 10
21.4852
 20
224.605
 11
20.9895
 21
224.513
  0
LINE
  8
0
 10
20.9895
 20
224.513
 11
20.4957
 21
224.411
  0
LINE
  8
0
 10
20.4957
 20
224.411
 11
20.004
 21
224.299
  0
LINE
  8
0
 10
20.004
 20
224.299
 11
19.5145
 21
224.178
  0
LINE
  8
0
 10
19.5145
 20
224.178
 11
19.0275
 21
224.048
  0
LINE
  8
0
 10
19.0275
 20
224.048
 11
18.5431
 21
223.908
  0
LINE
  8
0
 10
18.5431
 20
223.908
 11
18.0615
 21
223.758
  0
LINE
  8
0
 10
18.0615
 20
223.758
 11
17.5829
 21
223.6
  0
LINE
  8
0
 10
17.5829
 20
223.6
 11
17.1075
 21
223.432
  0
LINE
  8
0
 10
17.1075
 20
223.432
 11
16.6354
 21
223.255
  0
LINE
  8
0
 10
16.6354
 20
223.255
 11
16.1668
 21
223.069
  0
LINE
  8
0
 10
16.1668
 20
223.069
 11
15.7019
 21
222.874
  0
LINE
  8
0
 10
15.7019
 20
222.874
 11
15.2409
 21
222.669
  0
LINE
  8
0
 10
15.2409
 20
222.669
 11
14.784
 21
222.456
  0
LINE
  8
0
 10
14.784
 20
222.456
 11
14.3312
 21
222.234
  0
LINE
  8
0
 10
14.3312
 20
222.234
 11
13.8829
 21
222.004
  0
LINE
  8
0
 10
13.8829
 20
222.004
 11
13.4391
 21
221.765
  0
LINE
  8
0
 10
13.4391
 20
221.765
 11
13
 21
221.517
  0
LINE
  8
0
 10
13
 20
221.517
 11
12.5658
 21
221.26
  0
LINE
  8
0
 10
12.5658
 20
221.26
 11
12.1367
 21
220.996
  0
LINE
  8
0
 10
12.1367
 20
220.996
 11
11.7128
 21
220.723
  0
LINE
  8
0
 10
11.7128
 20
220.723
 11
11.2942
 21
220.442
  0
LINE
  8
0
 10
11.2942
 20
220.442
 11
10.8812
 21
220.152
  0
LINE
  8
0
 10
10.8812
 20
220.152
 11
10.4739
 21
219.855
  0
LINE
  8
0
 10
10.4739
 20
219.855
 11
10.0724
 21
219.55
  0
LINE
  8
0
 10
10.0724
 20
219.55
 11
9.6769
 21
219.237
  0
LINE
  8
0
 10
9.6769
 20
219.237
 11
9.28754
 21
218.917
  0
LINE
  8
0
 10
9.28754
 20
218.917
 11
8.90445
 21
218.589
  0
LINE
  8
0
 10
8.90445
 20
218.589
 11
8.5278
 21
218.254
  0
LINE
  8
0
 10
8.5278
 20
218.254
 11
8.15773
 21
217.912
  0
LINE
  8
0
 10
8.15773
 20
217.912
 11
7.79436
 21
217.562
  0
LINE
  8
0
 10
7.79436
 20
217.562
 11
7.43784
 21
217.206
  0
LINE
  8
0
 10
7.43784
 20
217.206
 11
7.08829
 21
216.842
  0
LINE
  8
0
 10
7.08829
 20
216.842
 11
6.74586
 21
216.472
  0
LINE
  8
0
 10
6.74586
 20
216.472
 11
6.41068
 21
216.096
  0
LINE
  8
0
 10
6.41068
 20
216.096
 11
6.08286
 21
215.712
  0
LINE
  8
0
 10
6.08286
 20
215.712
 11
5.76253
 21
215.323
  0
LINE
  8
0
 10
5.76253
 20
215.323
 11
5.4498
 21
214.928
  0
LINE
  8
0
 10
5.4498
 20
214.928
 11
5.14481
 21
214.526
  0
LINE
  8
0
 10
5.14481
 20
214.526
 11
4.84766
 21
214.119
  0
LINE
  8
0
 10
4.84766
 20
214.119
 11
4.55846
 21
213.706
  0
LINE
  8
0
 10
4.55846
 20
213.706
 11
4.27733
 21
213.287
  0
LINE
  8
0
 10
4.27733
 20
213.287
 11
4.00436
 21
212.863
  0
LINE
  8
0
 10
4.00436
 20
212.863
 11
3.73967
 21
212.434
  0
LINE
  8
0
 10
3.73967
 20
212.434
 11
3.48335
 21
212
  0
LINE
  8
0
 10
3.48335
 20
212
 11
3.23549
 21
211.561
  0
LINE
  8
0
 10
3.23549
 20
211.561
 11
2.9962
 21
211.117
  0
LINE
  8
0
 10
2.9962
 20
211.117
 11
2.76556
 21
210.669
  0
LINE
  8
0
 10
2.76556
 20
210.669
 11
2.54366
 21
210.216
  0
LINE
  8
0
 10
2.54366
 20
210.216
 11
2.33057
 21
209.759
  0
LINE
  8
0
 10
2.33057
 20
209.759
 11
2.12639
 21
209.298
  0
LINE
  8
0
 10
2.12639
 20
209.298
 11
1.93118
 21
208.833
  0
LINE
  8
0
 10
1.93118
 20
208.833
 11
1.74503
 21
208.365
  0
LINE
  8
0
 10
1.74503
 20
208.365
 11
1.56799
 21
207.893
  0
LINE
  8
0
 10
1.56799
 20
207.893
 11
1.40016
 21
207.417
  0
LINE
  8
0
 10
1.40016
 20
207.417
 11
1.24156
 21
206.938
  0
LINE
  8
0
 10
1.24156
 20
206.938
 11
1.09229
 21
206.457
  0
LINE
  8
0
 10
1.09229
 20
206.457
 11
0.952362
 21
205.972
  0
LINE
  8
0
 10
0.952362
 20
205.972
 11
0.821869
 21
205.485
  0
LINE
  8
0
 10
0.821869
 20
205.485
 11
0.700836
 21
204.996
  0
LINE
  8
0
 10
0.700836
 20
204.996
 11
0.589325
 21
204.504
  0
LINE
  8
0
 10
0.589325
 20
204.504
 11
0.487366
 21
204.011
  0
LINE
  8
0
 10
0.487366
 20
204.011
 11
0.395004
 21
203.515
  0
LINE
  8
0
 10
0.395004
 20
203.515
 11
0.312271
 21
203.017
  0
LINE
  8
0
 10
0.312271
 20
203.017
 11
0.308212
 21
202.99
  0
LINE
  8
0
 10
0.308212
 20
202.99
 11
35.2477
 21
202.99
  0
LINE
  8
0
 10
35.2477
 20
202.99
 11
35.7365
 21
202.908
  0
LINE
  8
0
 10
35.7365
 20
202.908
 11
36.2051
 21
202.747
  0
LINE
  8
0
 10
36.2051
 20
202.747
 11
36.6408
 21
202.511
  0
LINE
  8
0
 10
36.6408
 20
202.511
 11
37.0318
 21
202.207
  0
LINE
  8
0
 10
37.0318
 20
202.207
 11
37.3674
 21
201.843
  0
LINE
  8
0
 10
37.3674
 20
201.843
 11
37.6384
 21
201.428
  0
LINE
  8
0
 10
37.6384
 20
201.428
 11
37.8374
 21
200.974
  0
LINE
  8
0
 10
37.8374
 20
200.974
 11
37.9591
 21
200.494
  0
LINE
  8
0
 10
37.9591
 20
200.494
 11
38
 21
200
  0
LINE
  8
0
 10
38
 20
200
 11
37.9591
 21
199.506
  0
LINE
  8
0
 10
37.9591
 20
199.506
 11
37.8374
 21
199.026
  0
LINE
  8
0
 10
37.8374
 20
199.026
 11
37.6384
 21
198.572
  0
LINE
  8
0
 10
37.6384
 20
198.572
 11
37.3674
 21
198.157
  0
LINE
  8
0
 10
37.3674
 20
198.157
 11
37.0318
 21
197.793
  0
LINE
  8
0
 10
37.0318
 20
197.793
 11
36.6408
 21
197.488
  0
LINE
  8
0
 10
36.6408
 20
197.488
 11
36.2051
 21
197.253
  0
LINE
  8
0
 10
36.2051
 20
197.253
 11
35.7365
 21
197.092
  0
LINE
  8
0
 10
35.7365
 20
197.092
 11
35.2477
 21
197.01
  0
LINE
  8
0
 10
35.2477
 20
197.01
 11
0
 21
197.01
  0
LINE
  8
0
 10
0
 20
197.01
 11
0
 21
188.5
  0
LINE
  8
0
 10
0
 20
188.5
 11
162.5
 21
188.5
  0
LINE
  8
0
 10
162.5
 20
188.5
 11
163.074
 21
188.386
  0
LINE
  8
0
 10
163.074
 20
188.386
 11
163.561
 21
188.061
  0
LINE
  8
0
 10
163.561
 20
188.061
 11
163.886
 21
187.574
  0
LINE
  8
0
 10
163.886
 20
187.574
 11
164
 21
187
  0
LINE
  8
0
 10
164
 20
187
 11
163.886
 21
186.426
  0
LINE
  8
0
 10
163.886
 20
186.426
 11
163.561
 21
185.939
  0
LINE
  8
0
 10
163.561
 20
185.939
 11
163.074
 21
185.614
  0
LINE
  8
0
 10
163.074
 20
185.614
 11
162.5
 21
185.5
  0
LINE
  8
0
 10
162.5
 20
185.5
 11
125
 21
185.5
  0
LINE
  8
0
 10
125
 20
185.5
 11
125
 21
57.5
  0
LINE
  8
0
 10
125
 20
57.5
 11
162.5
 21
57.5
  0
LINE
  8
0
 10
162.5
 20
57.5
 11
163.074
 21
57.3858
  0
LINE
  8
0
 10
163.074
 20
57.3858
 11
163.561
 21
57.0607
  0
LINE
  8
0
 10
163.561
 20
57.0607
 11
163.886
 21
56.574
  0
LINE
  8
0
 10
163.886
 20
56.574
 11
164
 21
56
  0
LINE
  8
0
 10
164
 20
56
 11
163.886
 21
55.426
  0
LINE
  8
0
 10
163.886
 20
55.426
 11
163.561
 21
54.9393
  0
LINE
  8
0
 10
163.561
 20
54.9393
 11
163.074
 21
54.6142
  0
LINE
  8
0
 10
163.074
 20
54.6142
 11
162.5
 21
54.5
  0
LINE
  8
0
 10
162.5
 20
54.5
 11
125
 21
54.5
  0
LINE
  8
0
 10
125
 20
54.5
 11
125
 21
30
  0
LINE
  8
0
 10
125
 20
30
 11
0
 21
30
  0
LINE
  8
0
 10
0
 20
30
 11
0
 21
17.9897
  0
LINE
  8
0
 10
0
 20
17.9897
 11
35.2477
 21
17.9897
  0
LINE
  8
0
 10
35.2477
 20
17.9897
 11
35.7365
 21
17.9082
  0
LINE
  8
0
 10
35.7365
 20
17.9082
 11
36.2051
 21
17.7473
  0
LINE
  8
0
 10
36.2051
 20
17.7473
 11
36.6408
 21
17.5115
  0
LINE
  8
0
 10
36.6408
 20
17.5115
 11
37.0318
 21
17.2072
  0
LINE
  8
0
 10
37.0318
 20
17.2072
 11
37.3674
 21
16.8426
  0
LINE
  8
0
 10
37.3674
 20
16.8426
 11
37.6384
 21
16.4278
  0
LINE
  8
0
 10
37.6384
 20
16.4278
 11
37.8374
 21
15.9741
  0
LINE
  8
0
 10
37.8374
 20
15.9741
 11
37.9591
 21
15.4938
  0
LINE
  8
0
 10
37.9591
 20
15.4938
 11
38
 21
15
  0
LINE
  8
0
 10
38
 20
15
 11
37.9591
 21
14.5062
  0
LINE
  8
0
 10
37.9591
 20
14.5062
 11
37.8374
 21
14.0259
  0
LINE
  8
0
 10
37.8374
 20
14.0259
 11
37.6384
 21
13.5721
  0
LINE
  8
0
 10
37.6384
 20
13.5721
 11
37.3674
 21
13.1573
  0
LINE
  8
0
 10
37.3674
 20
13.1573
 11
37.0318
 21
12.7928
  0
LINE
  8
0
 10
37.0318
 20
12.7928
 11
36.6408
 21
12.4885
  0
LINE
  8
0
 10
36.6408
 20
12.4885
 11
36.2051
 21
12.2527
  0
LINE
  8
0
 10
36.2051
 20
12.2527
 11
35.7365
 21
12.0918
  0
LINE
  8
0
 10
35.7365
 20
12.0918
 11
35.2477
 21
12.0102
  0
LINE
  8
0
 10
35.2477
 20
12.0102
 11
0.308212
 21
12.0102
  0
LINE
  8
0
 10
0.308212
 20
12.0102
 11
0.312271
 21
11.9825
  0
LINE
  8
0
 10
0.312271
 20
11.9825
 11
0.395004
 21
11.4852
  0
LINE
  8
0
 10
0.395004
 20
11.4852
 11
0.487366
 21
10.9895
  0
LINE
  8
0
 10
0.487366
 20
10.9895
 11
0.589325
 21
10.4957
  0
LINE
  8
0
 10
0.589325
 20
10.4957
 11
0.700836
 21
10.004
  0
LINE
  8
0
 10
0.700836
 20
10.004
 11
0.821869
 21
9.51454
  0
LINE
  8
0
 10
0.821869
 20
9.51454
 11
0.952362
 21
9.02753
  0
LINE
  8
0
 10
0.952362
 20
9.02753
 11
1.09229
 21
8.54312
  0
LINE
  8
0
 10
1.09229
 20
8.54312
 11
1.24156
 21
8.06154
  0
LINE
  8
0
 10
1.24156
 20
8.06154
 11
1.40016
 21
7.58293
  0
LINE
  8
0
 10
1.40016
 20
7.58293
 11
1.56799
 21
7.10748
  0
LINE
  8
0
 10
1.56799
 20
7.10748
 11
1.74503
 21
6.63539
  0
LINE
  8
0
 10
1.74503
 20
6.63539
 11
1.93118
 21
6.16681
  0
LINE
  8
0
 10
1.93118
 20
6.16681
 11
2.12639
 21
5.70193
  0
LINE
  8
0
 10
2.12639
 20
5.70193
 11
2.33057
 21
5.24094
  0
LINE
  8
0
 10
2.33057
 20
5.24094
 11
2.54366
 21
4.78397
  0
LINE
  8
0
 10
2.54366
 20
4.78397
 11
2.76556
 21
4.33122
  0
LINE
  8
0
 10
2.76556
 20
4.33122
 11
2.9962
 21
3.88287
  0
LINE
  8
0
 10
2.9962
 20
3.88287
 11
3.23549
 21
3.43909
  0
LINE
  8
0
 10
3.23549
 20
3.43909
 11
3.48335
 21
3
  0
LINE
  8
0
 10
3.48335
 20
3
 11
3.73967
 21
2.56583
  0
LINE
  8
0
 10
3.73967
 20
2.56583
 11
4.00436
 21
2.13669
  0
LINE
  8
0
 10
4.00436
 20
2.13669
 11
4.27733
 21
1.71277
  0
LINE
  8
0
 10
4.27733
 20
1.71277
 11
4.55846
 21
1.29424
  0
LINE
  8
0
 10
4.55846
 20
1.29424
 11
4.84766
 21
0.88121
  0
LINE
  8
0
 10
4.84766
 20
0.88121
 11
5.14481
 21
0.473877
  0
LINE
  8
0
 10
5.14481
 20
0.473877
 11
5.4498
 21
0.0723877
  0
LINE
  8
0
 10
5.4498
 20
0.0723877
 11
5.76253
 21
-0.323105
  0
LINE
  8
0
 10
5.76253
 20
-0.323105
 11
6.08286
 21
-0.712463
  0
LINE
  8
0
 10
6.08286
 20
-0.712463
 11
6.41068
 21
-1.09555
  0
LINE
  8
0
 10
6.41068
 20
-1.09555
 11
6.74586
 21
-1.4722
  0
LINE
  8
0
 10
6.74586
 20
-1.4722
 11
7.08829
 21
-1.84227
  0
LINE
  8
0
 10
7.08829
 20
-1.84227
 11
7.43784
 21
-2.20564
  0
LINE
  8
0
 10
7.43784
 20
-2.20564
 11
7.79436
 21
-2.56216
  0
LINE
  8
0
 10
7.79436
 20
-2.56216
 11
8.15773
 21
-2.91171
  0
LINE
  8
0
 10
8.15773
 20
-2.91171
 11
8.5278
 21
-3.25414
  0
LINE
  8
0
 10
8.5278
 20
-3.25414
 11
8.90445
 21
-3.58932
  0
LINE
  8
0
 10
8.90445
 20
-3.58932
 11
9.28754
 21
-3.91714
  0
LINE
  8
0
 10
9.28754
 20
-3.91714
 11
9.6769
 21
-4.23747
  0
LINE
  8
0
 10
9.6769
 20
-4.23747
 11
10.0724
 21
-4.5502
  0
LINE
  8
0
 10
10.0724
 20
-4.5502
 11
10.4739
 21
-4.85519
  0
LINE
  8
0
 10
10.4739
 20
-4.85519
 11
10.8812
 21
-5.15234
  0
LINE
  8
0
 10
10.8812
 20
-5.15234
 11
11.2942
 21
-5.44154
  0
LINE
  8
0
 10
11.2942
 20
-5.44154
 11
11.7128
 21
-5.72267
  0
LINE
  8
0
 10
11.7128
 20
-5.72267
 11
12.1367
 21
-5.99564
  0
LINE
  8
0
 10
12.1367
 20
-5.99564
 11
12.5658
 21
-6.26033
  0
LINE
  8
0
 10
12.5658
 20
-6.26033
 11
13
 21
-6.51665
  0
LINE
  8
0
 10
13
 20
-6.51665
 11
13.4391
 21
-6.76451
  0
LINE
  8
0
 10
13.4391
 20
-6.76451
 11
13.8829
 21
-7.0038
  0
LINE
  8
0
 10
13.8829
 20
-7.0038
 11
14.3312
 21
-7.23444
  0
LINE
  8
0
 10
14.3312
 20
-7.23444
 11
14.784
 21
-7.45634
  0
LINE
  8
0
 10
14.784
 20
-7.45634
 11
15.2409
 21
-7.66943
  0
LINE
  8
0
 10
15.2409
 20
-7.66943
 11
15.7019
 21
-7.87361
  0
LINE
  8
0
 10
15.7019
 20
-7.87361
 11
16.1668
 21
-8.06882
  0
LINE
  8
0
 10
16.1668
 20
-8.06882
 11
16.6354
 21
-8.25497
  0
LINE
  8
0
 10
16.6354
 20
-8.25497
 11
17.1075
 21
-8.43201
  0
LINE
  8
0
 10
17.1075
 20
-8.43201
 11
17.5829
 21
-8.59984
  0
LINE
  8
0
 10
17.5829
 20
-8.59984
 11
18.0615
 21
-8.75844
  0
LINE
  8
0
 10
18.0615
 20
-8.75844
 11
18.5431
 21
-8.90771
  0
LINE
  8
0
 10
18.5431
 20
-8.90771
 11
19.0275
 21
-9.04764
  0
LINE
  8
0
 10
19.0275
 20
-9.04764
 11
19.5145
 21
-9.17813
  0
LINE
  8
0
 10
19.5145
 20
-9.17813
 11
20.004
 21
-9.29916
  0
LINE
  8
0
 10
20.004
 20
-9.29916
 11
20.4957
 21
-9.41068
  0
LINE
  8
0
 10
20.4957
 20
-9.41068
 11
20.9895
 21
-9.51263
  0
LINE
  8
0
 10
20.9895
 20
-9.51263
 11
21.4852
 21
-9.605
  0
LINE
  8
0
 10
21.4852
 20
-9.605
 11
21.9825
 21
-9.68773
  0
LINE
  8
0
 10
21.9825
 20
-9.68773
 11
22.4814
 21
-9.7608
  0
LINE
  8
0
 10
22.4814
 20
-9.7608
 11
22.9816
 21
-9.82419
  0
LINE
  8
0
 10
22.9816
 20
-9.82419
 11
23.4829
 21
-9.87787
  0
LINE
  8
0
 10
23.4829
 20
-9.87787
 11
23.9852
 21
-9.92181
  0
LINE
  8
0
 10
23.9852
 20
-9.92181
 11
24.4882
 21
-9.95601
  0
LINE
  8
0
 10
24.4882
 20
-9.95601
 11
24.9919
 21
-9.98044
  0
LINE
  8
0
 10
24.9919
 20
-9.98044
 11
25.4958
 21
-9.9951
  0
LINE
  8
0
 10
25.4958
 20
-9.9951
 11
26
 21
-10
  0
LINE
  8
0
 10
26
 20
-10
 11
504
 21
-10
  0
LINE
  8
0
 10
504
 20
-10
 11
504.504
 21
-9.9951
  0
LINE
  8
0
 10
146.125
 20
197
 11
145.604
 21
197.046
  0
LINE
  8
0
 10
145.604
 20
197.046
 11
145.099
 21
197.181
  0
LINE
  8
0
 10
145.099
 20
197.181
 11
144.625
 21
197.402
  0
LINE
  8
0
 10
144.625
 20
197.402
 11
144.197
 21
197.702
  0
LINE
  8
0
 10
144.197
 20
197.702
 11
143.827
 21
198.072
  0
LINE
  8
0
 10
143.827
 20
198.072
 11
143.527
 21
198.5
  0
LINE
  8
0
 10
143.527
 20
198.5
 11
143.306
 21
198.974
  0
LINE
  8
0
 10
143.306
 20
198.974
 11
143.171
 21
199.479
  0
LINE
  8
0
 10
143.171
 20
199.479
 11
143.125
 21
200
  0
LINE
  8
0
 10
143.125
 20
200
 11
143.171
 21
200.521
  0
LINE
  8
0
 10
143.171
 20
200.521
 11
143.306
 21
201.026
  0
LINE
  8
0
 10
143.306
 20
201.026
 11
143.527
 21
201.5
  0
LINE
  8
0
 10
143.527
 20
201.5
 11
143.827
 21
201.928
  0
LINE
  8
0
 10
143.827
 20
201.928
 11
144.197
 21
202.298
  0
LINE
  8
0
 10
144.197
 20
202.298
 11
144.625
 21
202.598
  0
LINE
  8
0
 10
144.625
 20
202.598
 11
145.099
 21
202.819
  0
LINE
  8
0
 10
145.099
 20
202.819
 11
145.604
 21
202.954
  0
LINE
  8
0
 10
145.604
 20
202.954
 11
146.125
 21
203
  0
LINE
  8
0
 10
146.125
 20
203
 11
230.125
 21
203
  0
LINE
  8
0
 10
230.125
 20
203
 11
230.646
 21
202.954
  0
LINE
  8
0
 10
230.646
 20
202.954
 11
231.151
 21
202.819
  0
LINE
  8
0
 10
231.151
 20
202.819
 11
231.625
 21
202.598
  0
LINE
  8
0
 10
231.625
 20
202.598
 11
232.053
 21
202.298
  0
LINE
  8
0
 10
232.053
 20
202.298
 11
232.423
 21
201.928
  0
LINE
  8
0
 10
232.423
 20
201.928
 11
232.723
 21
201.5
  0
LINE
  8
0
 10
232.723
 20
201.5
 11
232.944
 21
201.026
  0
LINE
  8
0
 10
232.944
 20
201.026
 11
233.079
 21
200.521
  0
LINE
  8
0
 10
233.079
 20
200.521
 11
233.125
 21
200
  0
LINE
  8
0
 10
233.125
 20
200
 11
233.079
 21
199.479
  0
LINE
  8
0
 10
233.079
 20
199.479
 11
232.944
 21
198.974
  0
LINE
  8
0
 10
232.944
 20
198.974
 11
232.723
 21
198.5
  0
LINE
  8
0
 10
232.723
 20
198.5
 11
232.423
 21
198.072
  0
LINE
  8
0
 10
232.423
 20
198.072
 11
232.053
 21
197.702
  0
LINE
  8
0
 10
232.053
 20
197.702
 11
231.625
 21
197.402
  0
LINE
  8
0
 10
231.625
 20
197.402
 11
231.151
 21
197.181
  0
LINE
  8
0
 10
231.151
 20
197.181
 11
230.646
 21
197.046
  0
LINE
  8
0
 10
230.646
 20
197.046
 11
230.125
 21
197
  0
LINE
  8
0
 10
230.125
 20
197
 11
146.125
 21
197
  0
LINE
  8
0
 10
280.641
 20
191.668
 11
280.163
 21
191.808
  0
LINE
  8
0
 10
280.163
 20
191.808
 11
279.744
 21
192.077
  0
LINE
  8
0
 10
279.744
 20
192.077
 11
279.418
 21
192.454
  0
LINE
  8
0
 10
279.418
 20
192.454
 11
279.211
 21
192.907
  0
LINE
  8
0
 10
279.211
 20
192.907
 11
279.14
 21
193.4
  0
LINE
  8
0
 10
279.14
 20
193.4
 11
279.211
 21
193.893
  0
LINE
  8
0
 10
279.211
 20
193.893
 11
279.418
 21
194.346
  0
LINE
  8
0
 10
279.418
 20
194.346
 11
279.744
 21
194.723
  0
LINE
  8
0
 10
279.744
 20
194.723
 11
280.163
 21
194.992
  0
LINE
  8
0
 10
280.163
 20
194.992
 11
280.641
 21
195.132
  0
LINE
  8
0
 10
280.641
 20
195.132
 11
285.639
 21
195.132
  0
LINE
  8
0
 10
285.639
 20
195.132
 11
286.117
 21
194.992
  0
LINE
  8
0
 10
286.117
 20
194.992
 11
286.536
 21
194.723
  0
LINE
  8
0
 10
286.536
 20
194.723
 11
286.862
 21
194.346
  0
LINE
  8
0
 10
286.862
 20
194.346
 11
287.069
 21
193.893
  0
LINE
  8
0
 10
287.069
 20
193.893
 11
287.14
 21
193.4
  0
LINE
  8
0
 10
287.14
 20
193.4
 11
287.069
 21
192.907
  0
LINE
  8
0
 10
287.069
 20
192.907
 11
286.862
 21
192.454
  0
LINE
  8
0
 10
286.862
 20
192.454
 11
286.536
 21
192.077
  0
LINE
  8
0
 10
286.536
 20
192.077
 11
286.117
 21
191.808
  0
LINE
  8
0
 10
286.117
 20
191.808
 11
285.639
 21
191.668
  0
LINE
  8
0
 10
285.639
 20
191.668
 11
280.641
 21
191.668
  0
LINE
  8
0
 10
345.5
 20
185.5
 11
344.926
 21
185.614
  0
LINE
  8
0
 10
344.926
 20
185.614
 11
344.439
 21
185.939
  0
LINE
  8
0
 10
344.439
 20
185.939
 11
344.114
 21
186.426
  0
LINE
  8
0
 10
344.114
 20
186.426
 11
344
 21
187
  0
LINE
  8
0
 10
344
 20
187
 11
344.114
 21
187.574
  0
LINE
  8
0
 10
344.114
 20
187.574
 11
344.439
 21
188.061
  0
LINE
  8
0
 10
344.439
 20
188.061
 11
344.926
 21
188.386
  0
LINE
  8
0
 10
344.926
 20
188.386
 11
345.5
 21
188.5
  0
LINE
  8
0
 10
345.5
 20
188.5
 11
462.5
 21
188.5
  0
LINE
  8
0
 10
462.5
 20
188.5
 11
463.074
 21
188.386
  0
LINE
  8
0
 10
463.074
 20
188.386
 11
463.561
 21
188.061
  0
LINE
  8
0
 10
463.561
 20
188.061
 11
463.886
 21
187.574
  0
LINE
  8
0
 10
463.886
 20
187.574
 11
464
 21
187
  0
LINE
  8
0
 10
464
 20
187
 11
463.886
 21
186.426
  0
LINE
  8
0
 10
463.886
 20
186.426
 11
463.561
 21
185.939
  0
LINE
  8
0
 10
463.561
 20
185.939
 11
463.074
 21
185.614
  0
LINE
  8
0
 10
463.074
 20
185.614
 11
462.5
 21
185.5
  0
LINE
  8
0
 10
462.5
 20
185.5
 11
345.5
 21
185.5
  0
LINE
  8
0
 10
195.5
 20
185.5
 11
194.926
 21
185.614
  0
LINE
  8
0
 10
194.926
 20
185.614
 11
194.439
 21
185.939
  0
LINE
  8
0
 10
194.439
 20
185.939
 11
194.114
 21
186.426
  0
LINE
  8
0
 10
194.114
 20
186.426
 11
194
 21
187
  0
LINE
  8
0
 10
194
 20
187
 11
194.114
 21
187.574
  0
LINE
  8
0
 10
194.114
 20
187.574
 11
194.439
 21
188.061
  0
LINE
  8
0
 10
194.439
 20
188.061
 11
194.926
 21
188.386
  0
LINE
  8
0
 10
194.926
 20
188.386
 11
195.5
 21
188.5
  0
LINE
  8
0
 10
195.5
 20
188.5
 11
312.5
 21
188.5
  0
LINE
  8
0
 10
312.5
 20
188.5
 11
313.074
 21
188.386
  0
LINE
  8
0
 10
313.074
 20
188.386
 11
313.561
 21
188.061
  0
LINE
  8
0
 10
313.561
 20
188.061
 11
313.886
 21
187.574
  0
LINE
  8
0
 10
313.886
 20
187.574
 11
314
 21
187
  0
LINE
  8
0
 10
314
 20
187
 11
313.886
 21
186.426
  0
LINE
  8
0
 10
313.886
 20
186.426
 11
313.561
 21
185.939
  0
LINE
  8
0
 10
313.561
 20
185.939
 11
313.074
 21
185.614
  0
LINE
  8
0
 10
313.074
 20
185.614
 11
312.5
 21
185.5
  0
LINE
  8
0
 10
312.5
 20
185.5
 11
195.5
 21
185.5
  0
LINE
  8
0
 10
130.501
 20
176.068
 11
130.023
 21
176.208
  0
LINE
  8
0
 10
130.023
 20
176.208
 11
129.604
 21
176.477
  0
LINE
  8
0
 10
129.604
 20
176.477
 11
129.278
 21
176.854
  0
LINE
  8
0
 10
129.278
 20
176.854
 11
129.071
 21
177.307
  0
LINE
  8
0
 10
129.071
 20
177.307
 11
129
 21
177.8
  0
LINE
  8
0
 10
129
 20
177.8
 11
129.071
 21
178.293
  0
LINE
  8
0
 10
129.071
 20
178.293
 11
129.278
 21
178.746
  0
LINE
  8
0
 10
129.278
 20
178.746
 11
129.604
 21
179.123
  0
LINE
  8
0
 10
129.604
 20
179.123
 11
130.023
 21
179.392
  0
LINE
  8
0
 10
130.023
 20
179.392
 11
130.501
 21
179.532
  0
LINE
  8
0
 10
130.501
 20
179.532
 11
135.499
 21
179.532
  0
LINE
  8
0
 10
135.499
 20
179.532
 11
135.977
 21
179.392
  0
LINE
  8
0
 10
135.977
 20
179.392
 11
136.396
 21
179.123
  0
LINE
  8
0
 10
136.396
 20
179.123
 11
136.722
 21
178.746
  0
LINE
  8
0
 10
136.722
 20
178.746
 11
136.929
 21
178.293
  0
LINE
  8
0
 10
136.929
 20
178.293
 11
137
 21
177.8
  0
LINE
  8
0
 10
137
 20
177.8
 11
136.929
 21
177.307
  0
LINE
  8
0
 10
136.929
 20
177.307
 11
136.722
 21
176.854
  0
LINE
  8
0
 10
136.722
 20
176.854
 11
136.396
 21
176.477
  0
LINE
  8
0
 10
136.396
 20
176.477
 11
135.977
 21
176.208
  0
LINE
  8
0
 10
135.977
 20
176.208
 11
135.499
 21
176.068
  0
LINE
  8
0
 10
135.499
 20
176.068
 11
130.501
 21
176.068
  0
LINE
  8
0
 10
361.398
 20
138.677
 11
361.325
 21
138.656
  0
LINE
  8
0
 10
361.325
 20
138.656
 11
361.098
 21
138.677
  0
LINE
  8
0
 10
361.098
 20
138.677
 11
361.025
 21
138.656
  0
LINE
  8
0
 10
361.025
 20
138.656
 11
360.798
 21
138.677
  0
LINE
  8
0
 10
360.798
 20
138.677
 11
360.725
 21
138.656
  0
LINE
  8
0
 10
360.725
 20
138.656
 11
360.498
 21
138.677
  0
LINE
  8
0
 10
360.498
 20
138.677
 11
360.425
 21
138.656
  0
LINE
  8
0
 10
360.425
 20
138.656
 11
360.198
 21
138.677
  0
LINE
  8
0
 10
360.198
 20
138.677
 11
360.125
 21
138.656
  0
LINE
  8
0
 10
360.125
 20
138.656
 11
359.898
 21
138.677
  0
LINE
  8
0
 10
359.898
 20
138.677
 11
359.825
 21
138.656
  0
LINE
  8
0
 10
359.825
 20
138.656
 11
359.598
 21
138.677
  0
LINE
  8
0
 10
359.598
 20
138.677
 11
359.525
 21
138.656
  0
LINE
  8
0
 10
359.525
 20
138.656
 11
359.298
 21
138.677
  0
LINE
  8
0
 10
359.298
 20
138.677
 11
359.225
 21
138.656
  0
LINE
  8
0
 10
359.225
 20
138.656
 11
358.998
 21
138.677
  0
LINE
  8
0
 10
358.998
 20
138.677
 11
358.925
 21
138.656
  0
LINE
  8
0
 10
358.925
 20
138.656
 11
358.698
 21
138.677
  0
LINE
  8
0
 10
358.698
 20
138.677
 11
358.625
 21
138.656
  0
LINE
  8
0
 10
358.625
 20
138.656
 11
358.398
 21
138.677
  0
LINE
  8
0
 10
358.398
 20
138.677
 11
358.325
 21
138.656
  0
LINE
  8
0
 10
358.325
 20
138.656
 11
358.098
 21
138.677
  0
LINE
  8
0
 10
358.098
 20
138.677
 11
358.025
 21
138.656
  0
LINE
  8
0
 10
358.025
 20
138.656
 11
357.798
 21
138.677
  0
LINE
  8
0
 10
357.798
 20
138.677
 11
357.725
 21
138.656
  0
LINE
  8
0
 10
357.725
 20
138.656
 11
357.498
 21
138.677
  0
LINE
  8
0
 10
357.498
 20
138.677
 11
357.425
 21
138.656
  0
LINE
  8
0
 10
357.425
 20
138.656
 11
357.198
 21
138.677
  0
LINE
  8
0
 10
357.198
 20
138.677
 11
357.125
 21
138.656
  0
LINE
  8
0
 10
357.125
 20
138.656
 11
356.631
 21
138.702
  0
LINE
  8
0
 10
356.631
 20
138.702
 11
356.186
 21
138.923
  0
LINE
  8
0
 10
356.186
 20
138.923
 11
355.852
 21
139.289
  0
LINE
  8
0
 10
355.852
 20
139.289
 11
355.673
 21
139.752
  0
LINE
  8
0
 10
355.673
 20
139.752
 11
355.673
 21
140.248
  0
LINE
  8
0
 10
355.673
 20
140.248
 11
355.852
 21
140.711
  0
LINE
  8
0
 10
355.852
 20
140.711
 11
356.186
 21
141.077
  0
LINE
  8
0
 10
356.186
 20
141.077
 11
356.631
 21
141.298
  0
LINE
  8
0
 10
356.631
 20
141.298
 11
357.125
 21
141.344
  0
LINE
  8
0
 10
357.125
 20
141.344
 11
357.198
 21
141.323
  0
LINE
  8
0
 10
357.198
 20
141.323
 11
357.425
 21
141.344
  0
LINE
  8
0
 10
357.425
 20
141.344
 11
357.498
 21
141.323
  0
LINE
  8
0
 10
357.498
 20
141.323
 11
357.725
 21
141.344
  0
LINE
  8
0
 10
357.725
 20
141.344
 11
357.798
 21
141.323
  0
LINE
  8
0
 10
357.798
 20
141.323
 11
358.025
 21
141.344
  0
LINE
  8
0
 10
358.025
 20
141.344
 11
358.098
 21
141.323
  0
LINE
  8
0
 10
358.098
 20
141.323
 11
358.325
 21
141.344
  0
LINE
  8
0
 10
358.325
 20
141.344
 11
358.398
 21
141.323
  0
LINE
  8
0
 10
358.398
 20
141.323
 11
358.625
 21
141.344
  0
LINE
  8
0
 10
358.625
 20
141.344
 11
358.698
 21
141.323
  0
LINE
  8
0
 10
358.698
 20
141.323
 11
358.925
 21
141.344
  0
LINE
  8
0
 10
358.925
 20
141.344
 11
358.998
 21
141.323
  0
LINE
  8
0
 10
358.998
 20
141.323
 11
359.225
 21
141.344
  0
LINE
  8
0
 10
359.225
 20
141.344
 11
359.298
 21
141.323
  0
LINE
  8
0
 10
359.298
 20
141.323
 11
359.525
 21
141.344
  0
LINE
  8
0
 10
359.525
 20
141.344
 11
359.598
 21
141.323
  0
LINE
  8
0
 10
359.598
 20
141.323
 11
359.825
 21
141.344
  0
LINE
  8
0
 10
359.825
 20
141.344
 11
359.898
 21
141.323
  0
LINE
  8
0
 10
359.898
 20
141.323
 11
360.125
 21
141.344
  0
LINE
  8
0
 10
360.125
 20
141.344
 11
360.198
 21
141.323
  0
LINE
  8
0
 10
360.198
 20
141.323
 11
360.425
 21
141.344
  0
LINE
  8
0
 10
360.425
 20
141.344
 11
360.498
 21
141.323
  0
LINE
  8
0
 10
360.498
 20
141.323
 11
360.725
 21
141.344
  0
LINE
  8
0
 10
360.725
 20
141.344
 11
360.798
 21
141.323
  0
LINE
  8
0
 10
360.798
 20
141.323
 11
361.025
 21
141.344
  0
LINE
  8
0
 10
361.025
 20
141.344
 11
361.098
 21
141.323
  0
LINE
  8
0
 10
361.098
 20
141.323
 11
361.325
 21
141.344
  0
LINE
  8
0
 10
361.325
 20
141.344
 11
361.398
 21
141.323
  0
LINE
  8
0
 10
361.398
 20
141.323
 11
361.625
 21
141.344
  0
LINE
  8
0
 10
361.625
 20
141.344
 11
362.102
 21
141.208
  0
LINE
  8
0
 10
362.102
 20
141.208
 11
362.498
 21
140.909
  0
LINE
  8
0
 10
362.498
 20
140.909
 11
362.759
 21
140.488
  0
LINE
  8
0
 10
362.759
 20
140.488
 11
362.85
 21
140
  0
LINE
  8
0
 10
362.85
 20
140
 11
362.759
 21
139.512
  0
LINE
  8
0
 10
362.759
 20
139.512
 11
362.498
 21
139.09
  0
LINE
  8
0
 10
362.498
 20
139.09
 11
362.102
 21
138.792
  0
LINE
  8
0
 10
362.102
 20
138.792
 11
361.625
 21
138.656
  0
LINE
  8
0
 10
361.625
 20
138.656
 11
361.398
 21
138.677
  0
LINE
  8
0
 10
338.398
 20
138.677
 11
338.325
 21
138.656
  0
LINE
  8
0
 10
338.325
 20
138.656
 11
338.098
 21
138.677
  0
LINE
  8
0
 10
338.098
 20
138.677
 11
338.025
 21
138.656
  0
LINE
  8
0
 10
338.025
 20
138.656
 11
337.798
 21
138.677
  0
LINE
  8
0
 10
337.798
 20
138.677
 11
337.725
 21
138.656
  0
LINE
  8
0
 10
337.725
 20
138.656
 11
337.498
 21
138.677
  0
LINE
  8
0
 10
337.498
 20
138.677
 11
337.425
 21
138.656
  0
LINE
  8
0
 10
337.425
 20
138.656
 11
337.198
 21
138.677
  0
LINE
  8
0
 10
337.198
 20
138.677
 11
337.125
 21
138.656
  0
LINE
  8
0
 10
337.125
 20
138.656
 11
336.898
 21
138.677
  0
LINE
  8
0
 10
336.898
 20
138.677
 11
336.825
 21
138.656
  0
LINE
  8
0
 10
336.825
 20
138.656
 11
336.598
 21
138.677
  0
LINE
  8
0
 10
336.598
 20
138.677
 11
336.525
 21
138.656
  0
LINE
  8
0
 10
336.525
 20
138.656
 11
336.298
 21
138.677
  0
LINE
  8
0
 10
336.298
 20
138.677
 11
336.225
 21
138.656
  0
LINE
  8
0
 10
336.225
 20
138.656
 11
335.998
 21
138.677
  0
LINE
  8
0
 10
335.998
 20
138.677
 11
335.925
 21
138.656
  0
LINE
  8
0
 10
335.925
 20
138.656
 11
335.698
 21
138.677
  0
LINE
  8
0
 10
335.698
 20
138.677
 11
335.625
 21
138.656
  0
LINE
  8
0
 10
335.625
 20
138.656
 11
335.398
 21
138.677
  0
LINE
  8
0
 10
335.398
 20
138.677
 11
335.325
 21
138.656
  0
LINE
  8
0
 10
335.325
 20
138.656
 11
335.098
 21
138.677
  0
LINE
  8
0
 10
335.098
 20
138.677
 11
335.025
 21
138.656
  0
LINE
  8
0
 10
335.025
 20
138.656
 11
334.798
 21
138.677
  0
LINE
  8
0
 10
334.798
 20
138.677
 11
334.725
 21
138.656
  0
LINE
  8
0
 10
334.725
 20
138.656
 11
334.498
 21
138.677
  0
LINE
  8
0
 10
334.498
 20
138.677
 11
334.425
 21
138.656
  0
LINE
  8
0
 10
334.425
 20
138.656
 11
334.198
 21
138.677
  0
LINE
  8
0
 10
334.198
 20
138.677
 11
334.125
 21
138.656
  0
LINE
  8
0
 10
334.125
 20
138.656
 11
333.631
 21
138.702
  0
LINE
  8
0
 10
333.631
 20
138.702
 11
333.186
 21
138.923
  0
LINE
  8
0
 10
333.186
 20
138.923
 11
332.852
 21
139.289
  0
LINE
  8
0
 10
332.852
 20
139.289
 11
332.673
 21
139.752
  0
LINE
  8
0
 10
332.673
 20
139.752
 11
332.673
 21
140.248
  0
LINE
  8
0
 10
332.673
 20
140.248
 11
332.852
 21
140.711
  0
LINE
  8
0
 10
332.852
 20
140.711
 11
333.186
 21
141.077
  0
LINE
  8
0
 10
333.186
 20
141.077
 11
333.631
 21
141.298
  0
LINE
  8
0
 10
333.631
 20
141.298
 11
334.125
 21
141.344
  0
LINE
  8
0
 10
334.125
 20
141.344
 11
334.198
 21
141.323
  0
LINE
  8
0
 10
334.198
 20
141.323
 11
334.425
 21
141.344
  0
LINE
  8
0
 10
334.425
 20
141.344
 11
334.498
 21
141.323
  0
LINE
  8
0
 10
334.498
 20
141.323
 11
334.725
 21
141.344
  0
LINE
  8
0
 10
334.725
 20
141.344
 11
334.798
 21
141.323
  0
LINE
  8
0
 10
334.798
 20
141.323
 11
335.025
 21
141.344
  0
LINE
  8
0
 10
335.025
 20
141.344
 11
335.098
 21
141.323
  0
LINE
  8
0
 10
335.098
 20
141.323
 11
335.325
 21
141.344
  0
LINE
  8
0
 10
335.325
 20
141.344
 11
335.398
 21
141.323
  0
LINE
  8
0
 10
335.398
 20
141.323
 11
335.625
 21
141.344
  0
LINE
  8
0
 10
335.625
 20
141.344
 11
335.698
 21
141.323
  0
LINE
  8
0
 10
335.698
 20
141.323
 11
335.925
 21
141.344
  0
LINE
  8
0
 10
335.925
 20
141.344
 11
335.998
 21
141.323
  0
LINE
  8
0
 10
335.998
 20
141.323
 11
336.225
 21
141.344
  0
LINE
  8
0
 10
336.225
 20
141.344
 11
336.298
 21
141.323
  0
LINE
  8
0
 10
336.298
 20
141.323
 11
336.525
 21
141.344
  0
LINE
  8
0
 10
336.525
 20
141.344
 11
336.598
 21
141.323
  0
LINE
  8
0
 10
336.598
 20
141.323
 11
336.825
 21
141.344
  0
LINE
  8
0
 10
336.825
 20
141.344
 11
336.898
 21
141.323
  0
LINE
  8
0
 10
336.898
 20
141.323
 11
337.125
 21
141.344
  0
LINE
  8
0
 10
337.125
 20
141.344
 11
337.198
 21
141.323
  0
LINE
  8
0
 10
337.198
 20
141.323
 11
337.425
 21
141.344
  0
LINE
  8
0
 10
337.425
 20
141.344
 11
337.498
 21
141.323
  0
LINE
  8
0
 10
337.498
 20
141.323
 11
337.725
 21
141.344
  0
LINE
  8
0
 10
337.725
 20
141.344
 11
337.798
 21
141.323
  0
LINE
  8
0
 10
337.798
 20
141.323
 11
338.025
 21
141.344
  0
LINE
  8
0
 10
338.025
 20
141.344
 11
338.098
 21
141.323
  0
LINE
  8
0
 10
338.098
 20
141.323
 11
338.325
 21
141.344
  0
LINE
  8
0
 10
338.325
 20
141.344
 11
338.398
 21
141.323
  0
LINE
  8
0
 10
338.398
 20
141.323
 11
338.625
 21
141.344
  0
LINE
  8
0
 10
338.625
 20
141.344
 11
339.102
 21
141.208
  0
LINE
  8
0
 10
339.102
 20
141.208
 11
339.498
 21
140.909
  0
LINE
  8
0
 10
339.498
 20
140.909
 11
339.759
 21
140.488
  0
LINE
  8
0
 10
339.759
 20
140.488
 11
339.85
 21
140
  0
LINE
  8
0
 10
339.85
 20
140
 11
339.759
 21
139.512
  0
LINE
  8
0
 10
339.759
 20
139.512
 11
339.498
 21
139.09
  0
LINE
  8
0
 10
339.498
 20
139.09
 11
339.102
 21
138.792
  0
LINE
  8
0
 10
339.102
 20
138.792
 11
338.625
 21
138.656
  0
LINE
  8
0
 10
338.625
 20
138.656
 11
338.398
 21
138.677
  0
LINE
  8
0
 10
312.498
 20
138.677
 11
312.425
 21
138.656
  0
LINE
  8
0
 10
312.425
 20
138.656
 11
312.198
 21
138.677
  0
LINE
  8
0
 10
312.198
 20
138.677
 11
312.125
 21
138.656
  0
LINE
  8
0
 10
312.125
 20
138.656
 11
311.898
 21
138.677
  0
LINE
  8
0
 10
311.898
 20
138.677
 11
311.825
 21
138.656
  0
LINE
  8
0
 10
311.825
 20
138.656
 11
311.598
 21
138.677
  0
LINE
  8
0
 10
311.598
 20
138.677
 11
311.525
 21
138.656
  0
LINE
  8
0
 10
311.525
 20
138.656
 11
311.298
 21
138.677
  0
LINE
  8
0
 10
311.298
 20
138.677
 11
311.225
 21
138.656
  0
LINE
  8
0
 10
311.225
 20
138.656
 11
310.998
 21
138.677
  0
LINE
  8
0
 10
310.998
 20
138.677
 11
310.925
 21
138.656
  0
LINE
  8
0
 10
310.925
 20
138.656
 11
310.698
 21
138.677
  0
LINE
  8
0
 10
310.698
 20
138.677
 11
310.625
 21
138.656
  0
LINE
  8
0
 10
310.625
 20
138.656
 11
310.398
 21
138.677
  0
LINE
  8
0
 10
310.398
 20
138.677
 11
310.325
 21
138.656
  0
LINE
  8
0
 10
310.325
 20
138.656
 11
310.098
 21
138.677
  0
LINE
  8
0
 10
310.098
 20
138.677
 11
310.025
 21
138.656
  0
LINE
  8
0
 10
310.025
 20
138.656
 11
309.798
 21
138.677
  0
LINE
  8
0
 10
309.798
 20
138.677
 11
309.725
 21
138.656
  0
LINE
  8
0
 10
309.725
 20
138.656
 11
309.498
 21
138.677
  0
LINE
  8
0
 10
309.498
 20
138.677
 11
309.425
 21
138.656
  0
LINE
  8
0
 10
309.425
 20
138.656
 11
309.198
 21
138.677
  0
LINE
  8
0
 10
309.198
 20
138.677
 11
309.125
 21
138.656
  0
LINE
  8
0
 10
309.125
 20
138.656
 11
308.898
 21
138.677
  0
LINE
  8
0
 10
308.898
 20
138.677
 11
308.825
 21
138.656
  0
LINE
  8
0
 10
308.825
 20
138.656
 11
308.598
 21
138.677
  0
LINE
  8
0
 10
308.598
 20
138.677
 11
308.525
 21
138.656
  0
LINE
  8
0
 10
308.525
 20
138.656
 11
308.298
 21
138.677
  0
LINE
  8
0
 10
308.298
 20
138.677
 11
308.225
 21
138.656
  0
LINE
  8
0
 10
308.225
 20
138.656
 11
307.731
 21
138.702
  0
LINE
  8
0
 10
307.731
 20
138.702
 11
307.286
 21
138.923
  0
LINE
  8
0
 10
307.286
 20
138.923
 11
306.952
 21
139.289
  0
LINE
  8
0
 10
306.952
 20
139.289
 11
306.773
 21
139.752
  0
LINE
  8
0
 10
306.773
 20
139.752
 11
306.773
 21
140.248
  0
LINE
  8
0
 10
306.773
 20
140.248
 11
306.952
 21
140.711
  0
LINE
  8
0
 10
306.952
 20
140.711
 11
307.286
 21
141.077
  0
LINE
  8
0
 10
307.286
 20
141.077
 11
307.731
 21
141.298
  0
LINE
  8
0
 10
307.731
 20
141.298
 11
308.225
 21
141.344
  0
LINE
  8
0
 10
308.225
 20
141.344
 11
308.298
 21
141.323
  0
LINE
  8
0
 10
308.298
 20
141.323
 11
308.525
 21
141.344
  0
LINE
  8
0
 10
308.525
 20
141.344
 11
308.598
 21
141.323
  0
LINE
  8
0
 10
308.598
 20
141.323
 11
308.825
 21
141.344
  0
LINE
  8
0
 10
308.825
 20
141.344
 11
308.898
 21
141.323
  0
LINE
  8
0
 10
308.898
 20
141.323
 11
309.125
 21
141.344
  0
LINE
  8
0
 10
309.125
 20
141.344
 11
309.198
 21
141.323
  0
LINE
  8
0
 10
309.198
 20
141.323
 11
309.425
 21
141.344
  0
LINE
  8
0
 10
309.425
 20
141.344
 11
309.498
 21
141.323
  0
LINE
  8
0
 10
309.498
 20
141.323
 11
309.725
 21
141.344
  0
LINE
  8
0
 10
309.725
 20
141.344
 11
309.798
 21
141.323
  0
LINE
  8
0
 10
309.798
 20
141.323
 11
310.025
 21
141.344
  0
LINE
  8
0
 10
310.025
 20
141.344
 11
310.098
 21
141.323
  0
LINE
  8
0
 10
310.098
 20
141.323
 11
310.325
 21
141.344
  0
LINE
  8
0
 10
310.325
 20
141.344
 11
310.398
 21
141.323
  0
LINE
  8
0
 10
310.398
 20
141.323
 11
310.625
 21
141.344
  0
LINE
  8
0
 10
310.625
 20
141.344
 11
310.698
 21
141.323
  0
LINE
  8
0
 10
310.698
 20
141.323
 11
310.925
 21
141.344
  0
LINE
  8
0
 10
310.925
 20
141.344
 11
310.998
 21
141.323
  0
LINE
  8
0
 10
310.998
 20
141.323
 11
311.225
 21
141.344
  0
LINE
  8
0
 10
311.225
 20
141.344
 11
311.298
 21
141.323
  0
LINE
  8
0
 10
311.298
 20
141.323
 11
311.525
 21
141.344
  0
LINE
  8
0
 10
311.525
 20
141.344
 11
311.598
 21
141.323
  0
LINE
  8
0
 10
311.598
 20
141.323
 11
311.825
 21
141.344
  0
LINE
  8
0
 10
311.825
 20
141.344
 11
311.898
 21
141.323
  0
LINE
  8
0
 10
311.898
 20
141.323
 11
312.125
 21
141.344
  0
LINE
  8
0
 10
312.125
 20
141.344
 11
312.198
 21
141.323
  0
LINE
  8
0
 10
312.198
 20
141.323
 11
312.425
 21
141.344
  0
LINE
  8
0
 10
312.425
 20
141.344
 11
312.498
 21
141.323
  0
LINE
  8
0
 10
312.498
 20
141.323
 11
312.725
 21
141.344
  0
LINE
  8
0
 10
312.725
 20
141.344
 11
313.202
 21
141.208
  0
LINE
  8
0
 10
313.202
 20
141.208
 11
313.598
 21
140.909
  0
LINE
  8
0
 10
313.598
 20
140.909
 11
313.859
 21
140.488
  0
LINE
  8
0
 10
313.859
 20
140.488
 11
313.95
 21
140
  0
LINE
  8
0
 10
313.95
 20
140
 11
313.859
 21
139.512
  0
LINE
  8
0
 10
313.859
 20
139.512
 11
313.598
 21
139.09
  0
LINE
  8
0
 10
313.598
 20
139.09
 11
313.202
 21
138.792
  0
LINE
  8
0
 10
313.202
 20
138.792
 11
312.725
 21
138.656
  0
LINE
  8
0
 10
312.725
 20
138.656
 11
312.498
 21
138.677
  0
LINE
  8
0
 10
481.397
 20
126.626
 11
480.984
 21
126.896
  0
LINE
  8
0
 10
480.984
 20
126.896
 11
480.681
 21
127.286
  0
LINE
  8
0
 10
480.681
 20
127.286
 11
480.52
 21
127.753
  0
LINE
  8
0
 10
480.52
 20
127.753
 11
480.52
 21
137.247
  0
LINE
  8
0
 10
480.52
 20
137.247
 11
480.681
 21
137.714
  0
LINE
  8
0
 10
480.681
 20
137.714
 11
480.984
 21
138.104
  0
LINE
  8
0
 10
480.984
 20
138.104
 11
481.397
 21
138.374
  0
LINE
  8
0
 10
481.397
 20
138.374
 11
481.876
 21
138.495
  0
LINE
  8
0
 10
481.876
 20
138.495
 11
482.368
 21
138.454
  0
LINE
  8
0
 10
482.368
 20
138.454
 11
482.82
 21
138.256
  0
LINE
  8
0
 10
482.82
 20
138.256
 11
483.184
 21
137.921
  0
LINE
  8
0
 10
483.184
 20
137.921
 11
483.419
 21
137.487
  0
LINE
  8
0
 10
483.419
 20
137.487
 11
483.5
 21
137
  0
LINE
  8
0
 10
483.5
 20
137
 11
483.475
 21
136.85
  0
LINE
  8
0
 10
483.475
 20
136.85
 11
483.5
 21
136.7
  0
LINE
  8
0
 10
483.5
 20
136.7
 11
483.475
 21
136.55
  0
LINE
  8
0
 10
483.475
 20
136.55
 11
483.5
 21
136.4
  0
LINE
  8
0
 10
483.5
 20
136.4
 11
483.475
 21
136.25
  0
LINE
  8
0
 10
483.475
 20
136.25
 11
483.5
 21
136.1
  0
LINE
  8
0
 10
483.5
 20
136.1
 11
483.475
 21
135.95
  0
LINE
  8
0
 10
483.475
 20
135.95
 11
483.5
 21
135.8
  0
LINE
  8
0
 10
483.5
 20
135.8
 11
483.475
 21
135.65
  0
LINE
  8
0
 10
483.475
 20
135.65
 11
483.5
 21
135.5
  0
LINE
  8
0
 10
483.5
 20
135.5
 11
483.475
 21
135.35
  0
LINE
  8
0
 10
483.475
 20
135.35
 11
483.5
 21
135.2
  0
LINE
  8
0
 10
483.5
 20
135.2
 11
483.475
 21
135.05
  0
LINE
  8
0
 10
483.475
 20
135.05
 11
483.5
 21
134.9
  0
LINE
  8
0
 10
483.5
 20
134.9
 11
483.475
 21
134.75
  0
LINE
  8
0
 10
483.475
 20
134.75
 11
483.5
 21
134.6
  0
LINE
  8
0
 10
483.5
 20
134.6
 11
483.475
 21
134.45
  0
LINE
  8
0
 10
483.475
 20
134.45
 11
483.5
 21
134.3
  0
LINE
  8
0
 10
483.5
 20
134.3
 11
483.475
 21
134.15
  0
LINE
  8
0
 10
483.475
 20
134.15
 11
483.5
 21
134
  0
LINE
  8
0
 10
483.5
 20
134
 11
483.475
 21
133.85
  0
LINE
  8
0
 10
483.475
 20
133.85
 11
483.5
 21
133.7
  0
LINE
  8
0
 10
483.5
 20
133.7
 11
483.475
 21
133.55
  0
LINE
  8
0
 10
483.475
 20
133.55
 11
483.5
 21
133.4
  0
LINE
  8
0
 10
483.5
 20
133.4
 11
483.475
 21
133.25
  0
LINE
  8
0
 10
483.475
 20
133.25
 11
483.5
 21
133.1
  0
LINE
  8
0
 10
483.5
 20
133.1
 11
483.475
 21
132.95
  0
LINE
  8
0
 10
483.475
 20
132.95
 11
483.5
 21
132.8
  0
LINE
  8
0
 10
483.5
 20
132.8
 11
483.475
 21
132.65
  0
LINE
  8
0
 10
483.475
 20
132.65
 11
483.5
 21
132.5
  0
LINE
  8
0
 10
483.5
 20
132.5
 11
483.475
 21
132.35
  0
LINE
  8
0
 10
483.475
 20
132.35
 11
483.5
 21
132.2
  0
LINE
  8
0
 10
483.5
 20
132.2
 11
483.475
 21
132.05
  0
LINE
  8
0
 10
483.475
 20
132.05
 11
483.5
 21
131.9
  0
LINE
  8
0
 10
483.5
 20
131.9
 11
483.475
 21
131.75
  0
LINE
  8
0
 10
483.475
 20
131.75
 11
483.5
 21
131.6
  0
LINE
  8
0
 10
483.5
 20
131.6
 11
483.475
 21
131.45
  0
LINE
  8
0
 10
483.475
 20
131.45
 11
483.5
 21
131.3
  0
LINE
  8
0
 10
483.5
 20
131.3
 11
483.475
 21
131.15
  0
LINE
  8
0
 10
483.475
 20
131.15
 11
483.5
 21
131
  0
LINE
  8
0
 10
483.5
 20
131
 11
483.475
 21
130.85
  0
LINE
  8
0
 10
483.475
 20
130.85
 11
483.5
 21
130.7
  0
LINE
  8
0
 10
483.5
 20
130.7
 11
483.475
 21
130.55
  0
LINE
  8
0
 10
483.475
 20
130.55
 11
483.5
 21
130.4
  0
LINE
  8
0
 10
483.5
 20
130.4
 11
483.475
 21
130.25
  0
LINE
  8
0
 10
483.475
 20
130.25
 11
483.5
 21
130.1
  0
LINE
  8
0
 10
483.5
 20
130.1
 11
483.475
 21
129.95
  0
LINE
  8
0
 10
483.475
 20
129.95
 11
483.5
 21
129.8
  0
LINE
  8
0
 10
483.5
 20
129.8
 11
483.475
 21
129.65
  0
LINE
  8
0
 10
483.475
 20
129.65
 11
483.5
 21
129.5
  0
LINE
  8
0
 10
483.5
 20
129.5
 11
483.475
 21
129.35
  0
LINE
  8
0
 10
483.475
 20
129.35
 11
483.5
 21
129.2
  0
LINE
  8
0
 10
483.5
 20
129.2
 11
483.475
 21
129.05
  0
LINE
  8
0
 10
483.475
 20
129.05
 11
483.5
 21
128.9
  0
LINE
  8
0
 10
483.5
 20
128.9
 11
483.475
 21
128.75
  0
LINE
  8
0
 10
483.475
 20
128.75
 11
483.5
 21
128.6
  0
LINE
  8
0
 10
483.5
 20
128.6
 11
483.475
 21
128.45
  0
LINE
  8
0
 10
483.475
 20
128.45
 11
483.5
 21
128.3
  0
LINE
  8
0
 10
483.5
 20
128.3
 11
483.475
 21
128.15
  0
LINE
  8
0
 10
483.475
 20
128.15
 11
483.5
 21
128
  0
LINE
  8
0
 10
483.5
 20
128
 11
483.419
 21
127.513
  0
LINE
  8
0
 10
483.419
 20
127.513
 11
483.184
 21
127.079
  0
LINE
  8
0
 10
483.184
 20
127.079
 11
482.82
 21
126.744
  0
LINE
  8
0
 10
482.82
 20
126.744
 11
482.368
 21
126.546
  0
LINE
  8
0
 10
482.368
 20
126.546
 11
481.876
 21
126.505
  0
LINE
  8
0
 10
481.876
 20
126.505
 11
481.397
 21
126.626
  0
LINE
  8
0
 10
395.397
 20
126.626
 11
394.984
 21
126.896
  0
LINE
  8
0
 10
394.984
 20
126.896
 11
394.681
 21
127.286
  0
LINE
  8
0
 10
394.681
 20
127.286
 11
394.52
 21
127.753
  0
LINE
  8
0
 10
394.52
 20
127.753
 11
394.52
 21
137.247
  0
LINE
  8
0
 10
394.52
 20
137.247
 11
394.681
 21
137.714
  0
LINE
  8
0
 10
394.681
 20
137.714
 11
394.984
 21
138.104
  0
LINE
  8
0
 10
394.984
 20
138.104
 11
395.397
 21
138.374
  0
LINE
  8
0
 10
395.397
 20
138.374
 11
395.876
 21
138.495
  0
LINE
  8
0
 10
395.876
 20
138.495
 11
396.368
 21
138.454
  0
LINE
  8
0
 10
396.368
 20
138.454
 11
396.82
 21
138.256
  0
LINE
  8
0
 10
396.82
 20
138.256
 11
397.184
 21
137.921
  0
LINE
  8
0
 10
397.184
 20
137.921
 11
397.419
 21
137.487
  0
LINE
  8
0
 10
397.419
 20
137.487
 11
397.5
 21
137
  0
LINE
  8
0
 10
397.5
 20
137
 11
397.475
 21
136.85
  0
LINE
  8
0
 10
397.475
 20
136.85
 11
397.5
 21
136.7
  0
LINE
  8
0
 10
397.5
 20
136.7
 11
397.475
 21
136.55
  0
LINE
  8
0
 10
397.475
 20
136.55
 11
397.5
 21
136.4
  0
LINE
  8
0
 10
397.5
 20
136.4
 11
397.475
 21
136.25
  0
LINE
  8
0
 10
397.475
 20
136.25
 11
397.5
 21
136.1
  0
LINE
  8
0
 10
397.5
 20
136.1
 11
397.475
 21
135.95
  0
LINE
  8
0
 10
397.475
 20
135.95
 11
397.5
 21
135.8
  0
LINE
  8
0
 10
397.5
 20
135.8
 11
397.475
 21
135.65
  0
LINE
  8
0
 10
397.475
 20
135.65
 11
397.5
 21
135.5
  0
LINE
  8
0
 10
397.5
 20
135.5
 11
397.475
 21
135.35
  0
LINE
  8
0
 10
397.475
 20
135.35
 11
397.5
 21
135.2
  0
LINE
  8
0
 10
397.5
 20
135.2
 11
397.475
 21
135.05
  0
LINE
  8
0
 10
397.475
 20
135.05
 11
397.5
 21
134.9
  0
LINE
  8
0
 10
397.5
 20
134.9
 11
397.475
 21
134.75
  0
LINE
  8
0
 10
397.475
 20
134.75
 11
397.5
 21
134.6
  0
LINE
  8
0
 10
397.5
 20
134.6
 11
397.475
 21
134.45
  0
LINE
  8
0
 10
397.475
 20
134.45
 11
397.5
 21
134.3
  0
LINE
  8
0
 10
397.5
 20
134.3
 11
397.475
 21
134.15
  0
LINE
  8
0
 10
397.475
 20
134.15
 11
397.5
 21
134
  0
LINE
  8
0
 10
397.5
 20
134
 11
397.475
 21
133.85
  0
LINE
  8
0
 10
397.475
 20
133.85
 11
397.5
 21
133.7
  0
LINE
  8
0
 10
397.5
 20
133.7
 11
397.475
 21
133.55
  0
LINE
  8
0
 10
397.475
 20
133.55
 11
397.5
 21
133.4
  0
LINE
  8
0
 10
397.5
 20
133.4
 11
397.475
 21
133.25
  0
LINE
  8
0
 10
397.475
 20
133.25
 11
397.5
 21
133.1
  0
LINE
  8
0
 10
397.5
 20
133.1
 11
397.475
 21
132.95
  0
LINE
  8
0
 10
397.475
 20
132.95
 11
397.5
 21
132.8
  0
LINE
  8
0
 10
397.5
 20
132.8
 11
397.475
 21
132.65
  0
LINE
  8
0
 10
397.475
 20
132.65
 11
397.5
 21
132.5
  0
LINE
  8
0
 10
397.5
 20
132.5
 11
397.475
 21
132.35
  0
LINE
  8
0
 10
397.475
 20
132.35
 11
397.5
 21
132.2
  0
LINE
  8
0
 10
397.5
 20
132.2
 11
397.475
 21
132.05
  0
LINE
  8
0
 10
397.475
 20
132.05
 11
397.5
 21
131.9
  0
LINE
  8
0
 10
397.5
 20
131.9
 11
397.475
 21
131.75
  0
LINE
  8
0
 10
397.475
 20
131.75
 11
397.5
 21
131.6
  0
LINE
  8
0
 10
397.5
 20
131.6
 11
397.475
 21
131.45
  0
LINE
  8
0
 10
397.475
 20
131.45
 11
397.5
 21
131.3
  0
LINE
  8
0
 10
397.5
 20
131.3
 11
397.475
 21
131.15
  0
LINE
  8
0
 10
397.475
 20
131.15
 11
397.5
 21
131
  0
LINE
  8
0
 10
397.5
 20
131
 11
397.475
 21
130.85
  0
LINE
  8
0
 10
397.475
 20
130.85
 11
397.5
 21
130.7
  0
LINE
  8
0
 10
397.5
 20
130.7
 11
397.475
 21
130.55
  0
LINE
  8
0
 10
397.475
 20
130.55
 11
397.5
 21
130.4
  0
LINE
  8
0
 10
397.5
 20
130.4
 11
397.475
 21
130.25
  0
LINE
  8
0
 10
397.475
 20
130.25
 11
397.5
 21
130.1
  0
LINE
  8
0
 10
397.5
 20
130.1
 11
397.475
 21
129.95
  0
LINE
  8
0
 10
397.475
 20
129.95
 11
397.5
 21
129.8
  0
LINE
  8
0
 10
397.5
 20
129.8
 11
397.475
 21
129.65
  0
LINE
  8
0
 10
397.475
 20
129.65
 11
397.5
 21
129.5
  0
LINE
  8
0
 10
397.5
 20
129.5
 11
397.475
 21
129.35
  0
LINE
  8
0
 10
397.475
 20
129.35
 11
397.5
 21
129.2
  0
LINE
  8
0
 10
397.5
 20
129.2
 11
397.475
 21
129.05
  0
LINE
  8
0
 10
397.475
 20
129.05
 11
397.5
 21
128.9
  0
LINE
  8
0
 10
397.5
 20
128.9
 11
397.475
 21
128.75
  0
LINE
  8
0
 10
397.475
 20
128.75
 11
397.5
 21
128.6
  0
LINE
  8
0
 10
397.5
 20
128.6
 11
397.475
 21
128.45
  0
LINE
  8
0
 10
397.475
 20
128.45
 11
397.5
 21
128.3
  0
LINE
  8
0
 10
397.5
 20
128.3
 11
397.475
 21
128.15
  0
LINE
  8
0
 10
397.475
 20
128.15
 11
397.5
 21
128
  0
LINE
  8
0
 10
397.5
 20
128
 11
397.419
 21
127.513
  0
LINE
  8
0
 10
397.419
 20
127.513
 11
397.184
 21
127.079
  0
LINE
  8
0
 10
397.184
 20
127.079
 11
396.82
 21
126.744
  0
LINE
  8
0
 10
396.82
 20
126.744
 11
396.368
 21
126.546
  0
LINE
  8
0
 10
396.368
 20
126.546
 11
395.876
 21
126.505
  0
LINE
  8
0
 10
395.876
 20
126.505
 11
395.397
 21
126.626
  0
LINE
  8
0
 10
160.971
 20
124.968
 11
160.493
 21
125.108
  0
LINE
  8
0
 10
160.493
 20
125.108
 11
160.074
 21
125.377
  0
LINE
  8
0
 10
160.074
 20
125.377
 11
159.748
 21
125.754
  0
LINE
  8
0
 10
159.748
 20
125.754
 11
159.541
 21
126.207
  0
LINE
  8
0
 10
159.541
 20
126.207
 11
159.47
 21
126.7
  0
LINE
  8
0
 10
159.47
 20
126.7
 11
159.541
 21
127.193
  0
LINE
  8
0
 10
159.541
 20
127.193
 11
159.748
 21
127.646
  0
LINE
  8
0
 10
159.748
 20
127.646
 11
160.074
 21
128.023
  0
LINE
  8
0
 10
160.074
 20
128.023
 11
160.493
 21
128.292
  0
LINE
  8
0
 10
160.493
 20
128.292
 11
160.971
 21
128.432
  0
LINE
  8
0
 10
160.971
 20
128.432
 11
165.969
 21
128.432
  0
LINE
  8
0
 10
165.969
 20
128.432
 11
166.447
 21
128.292
  0
LINE
  8
0
 10
166.447
 20
128.292
 11
166.866
 21
128.023
  0
LINE
  8
0
 10
166.866
 20
128.023
 11
167.192
 21
127.646
  0
LINE
  8
0
 10
167.192
 20
127.646
 11
167.399
 21
127.193
  0
LINE
  8
0
 10
167.399
 20
127.193
 11
167.47
 21
126.7
  0
LINE
  8
0
 10
167.47
 20
126.7
 11
167.399
 21
126.207
  0
LINE
  8
0
 10
167.399
 20
126.207
 11
167.192
 21
125.754
  0
LINE
  8
0
 10
167.192
 20
125.754
 11
166.866
 21
125.377
  0
LINE
  8
0
 10
166.866
 20
125.377
 11
166.447
 21
125.108
  0
LINE
  8
0
 10
166.447
 20
125.108
 11
165.969
 21
124.968
  0
LINE
  8
0
 10
165.969
 20
124.968
 11
160.971
 21
124.968
  0
LINE
  8
0
 10
239.971
 20
100.068
 11
239.493
 21
100.208
  0
LINE
  8
0
 10
239.493
 20
100.208
 11
239.074
 21
100.477
  0
LINE
  8
0
 10
239.074
 20
100.477
 11
238.748
 21
100.854
  0
LINE
  8
0
 10
238.748
 20
100.854
 11
238.541
 21
101.307
  0
LINE
  8
0
 10
238.541
 20
101.307
 11
238.47
 21
101.8
  0
LINE
  8
0
 10
238.47
 20
101.8
 11
238.541
 21
102.293
  0
LINE
  8
0
 10
238.541
 20
102.293
 11
238.748
 21
102.746
  0
LINE
  8
0
 10
238.748
 20
102.746
 11
239.074
 21
103.123
  0
LINE
  8
0
 10
239.074
 20
103.123
 11
239.493
 21
103.392
  0
LINE
  8
0
 10
239.493
 20
103.392
 11
239.971
 21
103.532
  0
LINE
  8
0
 10
239.971
 20
103.532
 11
244.969
 21
103.532
  0
LINE
  8
0
 10
244.969
 20
103.532
 11
245.447
 21
103.392
  0
LINE
  8
0
 10
245.447
 20
103.392
 11
245.866
 21
103.123
  0
LINE
  8
0
 10
245.866
 20
103.123
 11
246.192
 21
102.746
  0
LINE
  8
0
 10
246.192
 20
102.746
 11
246.399
 21
102.293
  0
LINE
  8
0
 10
246.399
 20
102.293
 11
246.47
 21
101.8
  0
LINE
  8
0
 10
246.47
 20
101.8
 11
246.399
 21
101.307
  0
LINE
  8
0
 10
246.399
 20
101.307
 11
246.192
 21
100.854
  0
LINE
  8
0
 10
246.192
 20
100.854
 11
245.866
 21
100.477
  0
LINE
  8
0
 10
245.866
 20
100.477
 11
245.447
 21
100.208
  0
LINE
  8
0
 10
245.447
 20
100.208
 11
244.969
 21
100.068
  0
LINE
  8
0
 10
244.969
 20
100.068
 11
239.971
 21
100.068
  0
LINE
  8
0
 10
130.751
 20
80.2678
 11
130.273
 21
80.4081
  0
LINE
  8
0
 10
130.273
 20
80.4081
 11
129.854
 21
80.6774
  0
LINE
  8
0
 10
129.854
 20
80.6774
 11
129.528
 21
81.0539
  0
LINE
  8
0
 10
129.528
 20
81.0539
 11
129.321
 21
81.507
  0
LINE
  8
0
 10
129.321
 20
81.507
 11
129.25
 21
82
  0
LINE
  8
0
 10
129.25
 20
82
 11
129.321
 21
82.493
  0
LINE
  8
0
 10
129.321
 20
82.493
 11
129.528
 21
82.9461
  0
LINE
  8
0
 10
129.528
 20
82.9461
 11
129.854
 21
83.3226
  0
LINE
  8
0
 10
129.854
 20
83.3226
 11
130.273
 21
83.5918
  0
LINE
  8
0
 10
130.273
 20
83.5918
 11
130.751
 21
83.7322
  0
LINE
  8
0
 10
130.751
 20
83.7322
 11
135.749
 21
83.7322
  0
LINE
  8
0
 10
135.749
 20
83.7322
 11
136.227
 21
83.5918
  0
LINE
  8
0
 10
136.227
 20
83.5918
 11
136.646
 21
83.3226
  0
LINE
  8
0
 10
136.646
 20
83.3226
 11
136.972
 21
82.9461
  0
LINE
  8
0
 10
136.972
 20
82.9461
 11
137.179
 21
82.493
  0
LINE
  8
0
 10
137.179
 20
82.493
 11
137.25
 21
82
  0
LINE
  8
0
 10
137.25
 20
82
 11
137.179
 21
81.507
  0
LINE
  8
0
 10
137.179
 20
81.507
 11
136.972
 21
81.0539
  0
LINE
  8
0
 10
136.972
 20
81.0539
 11
136.646
 21
80.6774
  0
LINE
  8
0
 10
136.646
 20
80.6774
 11
136.227
 21
80.4081
  0
LINE
  8
0
 10
136.227
 20
80.4081
 11
135.749
 21
80.2678
  0
LINE
  8
0
 10
135.749
 20
80.2678
 11
130.751
 21
80.2678
  0
LINE
  8
0
 10
338.398
 20
80.6767
 11
338.325
 21
80.6557
  0
LINE
  8
0
 10
338.325
 20
80.6557
 11
338.098
 21
80.6767
  0
LINE
  8
0
 10
338.098
 20
80.6767
 11
338.025
 21
80.6557
  0
LINE
  8
0
 10
338.025
 20
80.6557
 11
337.798
 21
80.6767
  0
LINE
  8
0
 10
337.798
 20
80.6767
 11
337.725
 21
80.6557
  0
LINE
  8
0
 10
337.725
 20
80.6557
 11
337.498
 21
80.6767
  0
LINE
  8
0
 10
337.498
 20
80.6767
 11
337.425
 21
80.6557
  0
LINE
  8
0
 10
337.425
 20
80.6557
 11
337.198
 21
80.6767
  0
LINE
  8
0
 10
337.198
 20
80.6767
 11
337.125
 21
80.6557
  0
LINE
  8
0
 10
337.125
 20
80.6557
 11
336.898
 21
80.6767
  0
LINE
  8
0
 10
336.898
 20
80.6767
 11
336.825
 21
80.6557
  0
LINE
  8
0
 10
336.825
 20
80.6557
 11
336.598
 21
80.6767
  0
LINE
  8
0
 10
336.598
 20
80.6767
 11
336.525
 21
80.6557
  0
LINE
  8
0
 10
336.525
 20
80.6557
 11
336.298
 21
80.6767
  0
LINE
  8
0
 10
336.298
 20
80.6767
 11
336.225
 21
80.6557
  0
LINE
  8
0
 10
336.225
 20
80.6557
 11
335.998
 21
80.6767
  0
LINE
  8
0
 10
335.998
 20
80.6767
 11
335.925
 21
80.6557
  0
LINE
  8
0
 10
335.925
 20
80.6557
 11
335.698
 21
80.6767
  0
LINE
  8
0
 10
335.698
 20
80.6767
 11
335.625
 21
80.6557
  0
LINE
  8
0
 10
335.625
 20
80.6557
 11
335.398
 21
80.6767
  0
LINE
  8
0
 10
335.398
 20
80.6767
 11
335.325
 21
80.6557
  0
LINE
  8
0
 10
335.325
 20
80.6557
 11
335.098
 21
80.6767
  0
LINE
  8
0
 10
335.098
 20
80.6767
 11
335.025
 21
80.6557
  0
LINE
  8
0
 10
335.025
 20
80.6557
 11
334.798
 21
80.6767
  0
LINE
  8
0
 10
334.798
 20
80.6767
 11
334.725
 21
80.6557
  0
LINE
  8
0
 10
334.725
 20
80.6557
 11
334.498
 21
80.6767
  0
LINE
  8
0
 10
334.498
 20
80.6767
 11
334.425
 21
80.6557
  0
LINE
  8
0
 10
334.425
 20
80.6557
 11
334.198
 21
80.6767
  0
LINE
  8
0
 10
334.198
 20
80.6767
 11
334.125
 21
80.6557
  0
LINE
  8
0
 10
334.125
 20
80.6557
 11
333.631
 21
80.7015
  0
LINE
  8
0
 10
333.631
 20
80.7015
 11
333.186
 21
80.9227
  0
LINE
  8
0
 10
333.186
 20
80.9227
 11
332.852
 21
81.2893
  0
LINE
  8
0
 10
332.852
 20
81.2893
 11
332.673
 21
81.7519
  0
LINE
  8
0
 10
332.673
 20
81.7519
 11
332.673
 21
82.248
  0
LINE
  8
0
 10
332.673
 20
82.248
 11
332.852
 21
82.7107
  0
LINE
  8
0
 10
332.852
 20
82.7107
 11
333.186
 21
83.0773
  0
LINE
  8
0
 10
333.186
 20
83.0773
 11
333.631
 21
83.2985
  0
LINE
  8
0
 10
333.631
 20
83.2985
 11
334.125
 21
83.3442
  0
LINE
  8
0
 10
334.125
 20
83.3442
 11
334.198
 21
83.3233
  0
LINE
  8
0
 10
334.198
 20
83.3233
 11
334.425
 21
83.3442
  0
LINE
  8
0
 10
334.425
 20
83.3442
 11
334.498
 21
83.3233
  0
LINE
  8
0
 10
334.498
 20
83.3233
 11
334.725
 21
83.3442
  0
LINE
  8
0
 10
334.725
 20
83.3442
 11
334.798
 21
83.3233
  0
LINE
  8
0
 10
334.798
 20
83.3233
 11
335.025
 21
83.3442
  0
LINE
  8
0
 10
335.025
 20
83.3442
 11
335.098
 21
83.3233
  0
LINE
  8
0
 10
335.098
 20
83.3233
 11
335.325
 21
83.3442
  0
LINE
  8
0
 10
335.325
 20
83.3442
 11
335.398
 21
83.3233
  0
LINE
  8
0
 10
335.398
 20
83.3233
 11
335.625
 21
83.3442
  0
LINE
  8
0
 10
335.625
 20
83.3442
 11
335.698
 21
83.3233
  0
LINE
  8
0
 10
335.698
 20
83.3233
 11
335.925
 21
83.3442
  0
LINE
  8
0
 10
335.925
 20
83.3442
 11
335.998
 21
83.3233
  0
LINE
  8
0
 10
335.998
 20
83.3233
 11
336.225
 21
83.3442
  0
LINE
  8
0
 10
336.225
 20
83.3442
 11
336.298
 21
83.3233
  0
LINE
  8
0
 10
336.298
 20
83.3233
 11
336.525
 21
83.3442
  0
LINE
  8
0
 10
336.525
 20
83.3442
 11
336.598
 21
83.3233
  0
LINE
  8
0
 10
336.598
 20
83.3233
 11
336.825
 21
83.3442
  0
LINE
  8
0
 10
336.825
 20
83.3442
 11
336.898
 21
83.3233
  0
LINE
  8
0
 10
336.898
 20
83.3233
 11
337.125
 21
83.3442
  0
LINE
  8
0
 10
337.125
 20
83.3442
 11
337.198
 21
83.3233
  0
LINE
  8
0
 10
337.198
 20
83.3233
 11
337.425
 21
83.3442
  0
LINE
  8
0
 10
337.425
 20
83.3442
 11
337.498
 21
83.3233
  0
LINE
  8
0
 10
337.498
 20
83.3233
 11
337.725
 21
83.3442
  0
LINE
  8
0
 10
337.725
 20
83.3442
 11
337.798
 21
83.3233
  0
LINE
  8
0
 10
337.798
 20
83.3233
 11
338.025
 21
83.3442
  0
LINE
  8
0
 10
338.025
 20
83.3442
 11
338.098
 21
83.3233
  0
LINE
  8
0
 10
338.098
 20
83.3233
 11
338.325
 21
83.3442
  0
LINE
  8
0
 10
338.325
 20
83.3442
 11
338.398
 21
83.3233
  0
LINE
  8
0
 10
338.398
 20
83.3233
 11
338.625
 21
83.3442
  0
LINE
  8
0
 10
338.625
 20
83.3442
 11
339.102
 21
83.2085
  0
LINE
  8
0
 10
339.102
 20
83.2085
 11
339.498
 21
82.9095
  0
LINE
  8
0
 10
339.498
 20
82.9095
 11
339.759
 21
82.4877
  0
LINE
  8
0
 10
339.759
 20
82.4877
 11
339.85
 21
82
  0
LINE
  8
0
 10
339.85
 20
82
 11
339.759
 21
81.5123
  0
LINE
  8
0
 10
339.759
 20
81.5123
 11
339.498
 21
81.0905
  0
LINE
  8
0
 10
339.498
 20
81.0905
 11
339.102
 21
80.7915
  0
LINE
  8
0
 10
339.102
 20
80.7915
 11
338.625
 21
80.6557
  0
LINE
  8
0
 10
338.625
 20
80.6557
 11
338.398
 21
80.6767
  0
LINE
  8
0
 10
361.398
 20
80.6767
 11
361.325
 21
80.6557
  0
LINE
  8
0
 10
361.325
 20
80.6557
 11
361.098
 21
80.6767
  0
LINE
  8
0
 10
361.098
 20
80.6767
 11
361.025
 21
80.6557
  0
LINE
  8
0
 10
361.025
 20
80.6557
 11
360.798
 21
80.6767
  0
LINE
  8
0
 10
360.798
 20
80.6767
 11
360.725
 21
80.6557
  0
LINE
  8
0
 10
360.725
 20
80.6557
 11
360.498
 21
80.6767
  0
LINE
  8
0
 10
360.498
 20
80.6767
 11
360.425
 21
80.6557
  0
LINE
  8
0
 10
360.425
 20
80.6557
 11
360.198
 21
80.6767
  0
LINE
  8
0
 10
360.198
 20
80.6767
 11
360.125
 21
80.6557
  0
LINE
  8
0
 10
360.125
 20
80.6557
 11
359.898
 21
80.6767
  0
LINE
  8
0
 10
359.898
 20
80.6767
 11
359.825
 21
80.6557
  0
LINE
  8
0
 10
359.825
 20
80.6557
 11
359.598
 21
80.6767
  0
LINE
  8
0
 10
359.598
 20
80.6767
 11
359.525
 21
80.6557
  0
LINE
  8
0
 10
359.525
 20
80.6557
 11
359.298
 21
80.6767
  0
LINE
  8
0
 10
359.298
 20
80.6767
 11
359.225
 21
80.6557
  0
LINE
  8
0
 10
359.225
 20
80.6557
 11
358.998
 21
80.6767
  0
LINE
  8
0
 10
358.998
 20
80.6767
 11
358.925
 21
80.6557
  0
LINE
  8
0
 10
358.925
 20
80.6557
 11
358.698
 21
80.6767
  0
LINE
  8
0
 10
358.698
 20
80.6767
 11
358.625
 21
80.6557
  0
LINE
  8
0
 10
358.625
 20
80.6557
 11
358.398
 21
80.6767
  0
LINE
  8
0
 10
358.398
 20
80.6767
 11
358.325
 21
80.6557
  0
LINE
  8
0
 10
358.325
 20
80.6557
 11
358.098
 21
80.6767
  0
LINE
  8
0
 10
358.098
 20
80.6767
 11
358.025
 21
80.6557
  0
LINE
  8
0
 10
358.025
 20
80.6557
 11
357.798
 21
80.6767
  0
LINE
  8
0
 10
357.798
 20
80.6767
 11
357.725
 21
80.6557
  0
LINE
  8
0
 10
357.725
 20
80.6557
 11
357.498
 21
80.6767
  0
LINE
  8
0
 10
357.498
 20
80.6767
 11
357.425
 21
80.6557
  0
LINE
  8
0
 10
357.425
 20
80.6557
 11
357.198
 21
80.6767
  0
LINE
  8
0
 10
357.198
 20
80.6767
 11
357.125
 21
80.6557
  0
LINE
  8
0
 10
357.125
 20
80.6557
 11
356.631
 21
80.7015
  0
LINE
  8
0
 10
356.631
 20
80.7015
 11
356.186
 21
80.9227
  0
LINE
  8
0
 10
356.186
 20
80.9227
 11
355.852
 21
81.2893
  0
LINE
  8
0
 10
355.852
 20
81.2893
 11
355.673
 21
81.7519
  0
LINE
  8
0
 10
355.673
 20
81.7519
 11
355.673
 21
82.248
  0
LINE
  8
0
 10
355.673
 20
82.248
 11
355.852
 21
82.7107
  0
LINE
  8
0
 10
355.852
 20
82.7107
 11
356.186
 21
83.0773
  0
LINE
  8
0
 10
356.186
 20
83.0773
 11
356.631
 21
83.2985
  0
LINE
  8
0
 10
356.631
 20
83.2985
 11
357.125
 21
83.3442
  0
LINE
  8
0
 10
357.125
 20
83.3442
 11
357.198
 21
83.3233
  0
LINE
  8
0
 10
357.198
 20
83.3233
 11
357.425
 21
83.3442
  0
LINE
  8
0
 10
357.425
 20
83.3442
 11
357.498
 21
83.3233
  0
LINE
  8
0
 10
357.498
 20
83.3233
 11
357.725
 21
83.3442
  0
LINE
  8
0
 10
357.725
 20
83.3442
 11
357.798
 21
83.3233
  0
LINE
  8
0
 10
357.798
 20
83.3233
 11
358.025
 21
83.3442
  0
LINE
  8
0
 10
358.025
 20
83.3442
 11
358.098
 21
83.3233
  0
LINE
  8
0
 10
358.098
 20
83.3233
 11
358.325
 21
83.3442
  0
LINE
  8
0
 10
358.325
 20
83.3442
 11
358.398
 21
83.3233
  0
LINE
  8
0
 10
358.398
 20
83.3233
 11
358.625
 21
83.3442
  0
LINE
  8
0
 10
358.625
 20
83.3442
 11
358.698
 21
83.3233
  0
LINE
  8
0
 10
358.698
 20
83.3233
 11
358.925
 21
83.3442
  0
LINE
  8
0
 10
358.925
 20
83.3442
 11
358.998
 21
83.3233
  0
LINE
  8
0
 10
358.998
 20
83.3233
 11
359.225
 21
83.3442
  0
LINE
  8
0
 10
359.225
 20
83.3442
 11
359.298
 21
83.3233
  0
LINE
  8
0
 10
359.298
 20
83.3233
 11
359.525
 21
83.3442
  0
LINE
  8
0
 10
359.525
 20
83.3442
 11
359.598
 21
83.3233
  0
LINE
  8
0
 10
359.598
 20
83.3233
 11
359.825
 21
83.3442
  0
LINE
  8
0
 10
359.825
 20
83.3442
 11
359.898
 21
83.3233
  0
LINE
  8
0
 10
359.898
 20
83.3233
 11
360.125
 21
83.3442
  0
LINE
  8
0
 10
360.125
 20
83.3442
 11
360.198
 21
83.3233
  0
LINE
  8
0
 10
360.198
 20
83.3233
 11
360.425
 21
83.3442
  0
LINE
  8
0
 10
360.425
 20
83.3442
 11
360.498
 21
83.3233
  0
LINE
  8
0
 10
360.498
 20
83.3233
 11
360.725
 21
83.3442
  0
LINE
  8
0
 10
360.725
 20
83.3442
 11
360.798
 21
83.3233
  0
LINE
  8
0
 10
360.798
 20
83.3233
 11
361.025
 21
83.3442
  0
LINE
  8
0
 10
361.025
 20
83.3442
 11
361.098
 21
83.3233
  0
LINE
  8
0
 10
361.098
 20
83.3233
 11
361.325
 21
83.3442
  0
LINE
  8
0
 10
361.325
 20
83.3442
 11
361.398
 21
83.3233
  0
LINE
  8
0
 10
361.398
 20
83.3233
 11
361.625
 21
83.3442
  0
LINE
  8
0
 10
361.625
 20
83.3442
 11
362.102
 21
83.2085
  0
LINE
  8
0
 10
362.102
 20
83.2085
 11
362.498
 21
82.9095
  0
LINE
  8
0
 10
362.498
 20
82.9095
 11
362.759
 21
82.4877
  0
LINE
  8
0
 10
362.759
 20
82.4877
 11
362.85
 21
82
  0
LINE
  8
0
 10
362.85
 20
82
 11
362.759
 21
81.5123
  0
LINE
  8
0
 10
362.759
 20
81.5123
 11
362.498
 21
81.0905
  0
LINE
  8
0
 10
362.498
 20
81.0905
 11
362.102
 21
80.7915
  0
LINE
  8
0
 10
362.102
 20
80.7915
 11
361.625
 21
80.6557
  0
LINE
  8
0
 10
361.625
 20
80.6557
 11
361.398
 21
80.6767
  0
LINE
  8
0
 10
312.548
 20
80.6767
 11
312.475
 21
80.6557
  0
LINE
  8
0
 10
312.475
 20
80.6557
 11
312.248
 21
80.6767
  0
LINE
  8
0
 10
312.248
 20
80.6767
 11
312.175
 21
80.6557
  0
LINE
  8
0
 10
312.175
 20
80.6557
 11
311.948
 21
80.6767
  0
LINE
  8
0
 10
311.948
 20
80.6767
 11
311.875
 21
80.6557
  0
LINE
  8
0
 10
311.875
 20
80.6557
 11
311.648
 21
80.6767
  0
LINE
  8
0
 10
311.648
 20
80.6767
 11
311.575
 21
80.6557
  0
LINE
  8
0
 10
311.575
 20
80.6557
 11
311.348
 21
80.6767
  0
LINE
  8
0
 10
311.348
 20
80.6767
 11
311.275
 21
80.6557
  0
LINE
  8
0
 10
311.275
 20
80.6557
 11
311.048
 21
80.6767
  0
LINE
  8
0
 10
311.048
 20
80.6767
 11
310.975
 21
80.6557
  0
LINE
  8
0
 10
310.975
 20
80.6557
 11
310.748
 21
80.6767
  0
LINE
  8
0
 10
310.748
 20
80.6767
 11
310.675
 21
80.6557
  0
LINE
  8
0
 10
310.675
 20
80.6557
 11
310.448
 21
80.6767
  0
LINE
  8
0
 10
310.448
 20
80.6767
 11
310.375
 21
80.6557
  0
LINE
  8
0
 10
310.375
 20
80.6557
 11
310.148
 21
80.6767
  0
LINE
  8
0
 10
310.148
 20
80.6767
 11
310.075
 21
80.6557
  0
LINE
  8
0
 10
310.075
 20
80.6557
 11
309.848
 21
80.6767
  0
LINE
  8
0
 10
309.848
 20
80.6767
 11
309.775
 21
80.6557
  0
LINE
  8
0
 10
309.775
 20
80.6557
 11
309.548
 21
80.6767
  0
LINE
  8
0
 10
309.548
 20
80.6767
 11
309.475
 21
80.6557
  0
LINE
  8
0
 10
309.475
 20
80.6557
 11
309.248
 21
80.6767
  0
LINE
  8
0
 10
309.248
 20
80.6767
 11
309.175
 21
80.6557
  0
LINE
  8
0
 10
309.175
 20
80.6557
 11
308.948
 21
80.6767
  0
LINE
  8
0
 10
308.948
 20
80.6767
 11
308.875
 21
80.6557
  0
LINE
  8
0
 10
308.875
 20
80.6557
 11
308.648
 21
80.6767
  0
LINE
  8
0
 10
308.648
 20
80.6767
 11
308.575
 21
80.6557
  0
LINE
  8
0
 10
308.575
 20
80.6557
 11
308.348
 21
80.6767
  0
LINE
  8
0
 10
308.348
 20
80.6767
 11
308.275
 21
80.6557
  0
LINE
  8
0
 10
308.275
 20
80.6557
 11
307.781
 21
80.7015
  0
LINE
  8
0
 10
307.781
 20
80.7015
 11
307.336
 21
80.9227
  0
LINE
  8
0
 10
307.336
 20
80.9227
 11
307.002
 21
81.2893
  0
LINE
  8
0
 10
307.002
 20
81.2893
 11
306.823
 21
81.7519
  0
LINE
  8
0
 10
306.823
 20
81.7519
 11
306.823
 21
82.248
  0
LINE
  8
0
 10
306.823
 20
82.248
 11
307.002
 21
82.7107
  0
LINE
  8
0
 10
307.002
 20
82.7107
 11
307.336
 21
83.0773
  0
LINE
  8
0
 10
307.336
 20
83.0773
 11
307.781
 21
83.2985
  0
LINE
  8
0
 10
307.781
 20
83.2985
 11
308.275
 21
83.3442
  0
LINE
  8
0
 10
308.275
 20
83.3442
 11
308.348
 21
83.3233
  0
LINE
  8
0
 10
308.348
 20
83.3233
 11
308.575
 21
83.3442
  0
LINE
  8
0
 10
308.575
 20
83.3442
 11
308.648
 21
83.3233
  0
LINE
  8
0
 10
308.648
 20
83.3233
 11
308.875
 21
83.3442
  0
LINE
  8
0
 10
308.875
 20
83.3442
 11
308.948
 21
83.3233
  0
LINE
  8
0
 10
308.948
 20
83.3233
 11
309.175
 21
83.3442
  0
LINE
  8
0
 10
309.175
 20
83.3442
 11
309.248
 21
83.3233
  0
LINE
  8
0
 10
309.248
 20
83.3233
 11
309.475
 21
83.3442
  0
LINE
  8
0
 10
309.475
 20
83.3442
 11
309.548
 21
83.3233
  0
LINE
  8
0
 10
309.548
 20
83.3233
 11
309.775
 21
83.3442
  0
LINE
  8
0
 10
309.775
 20
83.3442
 11
309.848
 21
83.3233
  0
LINE
  8
0
 10
309.848
 20
83.3233
 11
310.075
 21
83.3442
  0
LINE
  8
0
 10
310.075
 20
83.3442
 11
310.148
 21
83.3233
  0
LINE
  8
0
 10
310.148
 20
83.3233
 11
310.375
 21
83.3442
  0
LINE
  8
0
 10
310.375
 20
83.3442
 11
310.448
 21
83.3233
  0
LINE
  8
0
 10
310.448
 20
83.3233
 11
310.675
 21
83.3442
  0
LINE
  8
0
 10
310.675
 20
83.3442
 11
310.748
 21
83.3233
  0
LINE
  8
0
 10
310.748
 20
83.3233
 11
310.975
 21
83.3442
  0
LINE
  8
0
 10
310.975
 20
83.3442
 11
311.048
 21
83.3233
  0
LINE
  8
0
 10
311.048
 20
83.3233
 11
311.275
 21
83.3442
  0
LINE
  8
0
 10
311.275
 20
83.3442
 11
311.348
 21
83.3233
  0
LINE
  8
0
 10
311.348
 20
83.3233
 11
311.575
 21
83.3442
  0
LINE
  8
0
 10
311.575
 20
83.3442
 11
311.648
 21
83.3233
  0
LINE
  8
0
 10
311.648
 20
83.3233
 11
311.875
 21
83.3442
  0
LINE
  8
0
 10
311.875
 20
83.3442
 11
311.948
 21
83.3233
  0
LINE
  8
0
 10
311.948
 20
83.3233
 11
312.175
 21
83.3442
  0
LINE
  8
0
 10
312.175
 20
83.3442
 11
312.248
 21
83.3233
  0
LINE
  8
0
 10
312.248
 20
83.3233
 11
312.475
 21
83.3442
  0
LINE
  8
0
 10
312.475
 20
83.3442
 11
312.548
 21
83.3233
  0
LINE
  8
0
 10
312.548
 20
83.3233
 11
312.775
 21
83.3442
  0
LINE
  8
0
 10
312.775
 20
83.3442
 11
313.252
 21
83.2085
  0
LINE
  8
0
 10
313.252
 20
83.2085
 11
313.648
 21
82.9095
  0
LINE
  8
0
 10
313.648
 20
82.9095
 11
313.909
 21
82.4877
  0
LINE
  8
0
 10
313.909
 20
82.4877
 11
314
 21
82
  0
LINE
  8
0
 10
314
 20
82
 11
313.909
 21
81.5123
  0
LINE
  8
0
 10
313.909
 20
81.5123
 11
313.648
 21
81.0905
  0
LINE
  8
0
 10
313.648
 20
81.0905
 11
313.252
 21
80.7915
  0
LINE
  8
0
 10
313.252
 20
80.7915
 11
312.775
 21
80.6557
  0
LINE
  8
0
 10
312.775
 20
80.6557
 11
312.548
 21
80.6767
  0
LINE
  8
0
 10
395.397
 20
61.6263
 11
394.984
 21
61.8964
  0
LINE
  8
0
 10
394.984
 20
61.8964
 11
394.681
 21
62.2861
  0
LINE
  8
0
 10
394.681
 20
62.2861
 11
394.52
 21
62.7531
  0
LINE
  8
0
 10
394.52
 20
62.7531
 11
394.52
 21
72.2469
  0
LINE
  8
0
 10
394.52
 20
72.2469
 11
394.681
 21
72.7139
  0
LINE
  8
0
 10
394.681
 20
72.7139
 11
394.984
 21
73.1036
  0
LINE
  8
0
 10
394.984
 20
73.1036
 11
395.397
 21
73.3737
  0
LINE
  8
0
 10
395.397
 20
73.3737
 11
395.876
 21
73.4949
  0
LINE
  8
0
 10
395.876
 20
73.4949
 11
396.368
 21
73.4541
  0
LINE
  8
0
 10
396.368
 20
73.4541
 11
396.82
 21
73.2557
  0
LINE
  8
0
 10
396.82
 20
73.2557
 11
397.184
 21
72.9213
  0
LINE
  8
0
 10
397.184
 20
72.9213
 11
397.419
 21
72.487
  0
LINE
  8
0
 10
397.419
 20
72.487
 11
397.5
 21
72
  0
LINE
  8
0
 10
397.5
 20
72
 11
397.475
 21
71.85
  0
LINE
  8
0
 10
397.475
 20
71.85
 11
397.5
 21
71.7
  0
LINE
  8
0
 10
397.5
 20
71.7
 11
397.475
 21
71.55
  0
LINE
  8
0
 10
397.475
 20
71.55
 11
397.5
 21
71.4
  0
LINE
  8
0
 10
397.5
 20
71.4
 11
397.475
 21
71.25
  0
LINE
  8
0
 10
397.475
 20
71.25
 11
397.5
 21
71.1
  0
LINE
  8
0
 10
397.5
 20
71.1
 11
397.475
 21
70.95
  0
LINE
  8
0
 10
397.475
 20
70.95
 11
397.5
 21
70.8
  0
LINE
  8
0
 10
397.5
 20
70.8
 11
397.475
 21
70.65
  0
LINE
  8
0
 10
397.475
 20
70.65
 11
397.5
 21
70.5
  0
LINE
  8
0
 10
397.5
 20
70.5
 11
397.475
 21
70.35
  0
LINE
  8
0
 10
397.475
 20
70.35
 11
397.5
 21
70.2
  0
LINE
  8
0
 10
397.5
 20
70.2
 11
397.475
 21
70.05
  0
LINE
  8
0
 10
397.475
 20
70.05
 11
397.5
 21
69.9
  0
LINE
  8
0
 10
397.5
 20
69.9
 11
397.475
 21
69.75
  0
LINE
  8
0
 10
397.475
 20
69.75
 11
397.5
 21
69.6
  0
LINE
  8
0
 10
397.5
 20
69.6
 11
397.475
 21
69.45
  0
LINE
  8
0
 10
397.475
 20
69.45
 11
397.5
 21
69.3
  0
LINE
  8
0
 10
397.5
 20
69.3
 11
397.475
 21
69.15
  0
LINE
  8
0
 10
397.475
 20
69.15
 11
397.5
 21
69
  0
LINE
  8
0
 10
397.5
 20
69
 11
397.475
 21
68.85
  0
LINE
  8
0
 10
397.475
 20
68.85
 11
397.5
 21
68.7
  0
LINE
  8
0
 10
397.5
 20
68.7
 11
397.475
 21
68.55
  0
LINE
  8
0
 10
397.475
 20
68.55
 11
397.5
 21
68.4
  0
LINE
  8
0
 10
397.5
 20
68.4
 11
397.475
 21
68.25
  0
LINE
  8
0
 10
397.475
 20
68.25
 11
397.5
 21
68.1
  0
LINE
  8
0
 10
397.5
 20
68.1
 11
397.475
 21
67.95
  0
LINE
  8
0
 10
397.475
 20
67.95
 11
397.5
 21
67.8
  0
LINE
  8
0
 10
397.5
 20
67.8
 11
397.475
 21
67.65
  0
LINE
  8
0
 10
397.475
 20
67.65
 11
397.5
 21
67.5
  0
LINE
  8
0
 10
397.5
 20
67.5
 11
397.475
 21
67.35
  0
LINE
  8
0
 10
397.475
 20
67.35
 11
397.5
 21
67.2
  0
LINE
  8
0
 10
397.5
 20
67.2
 11
397.475
 21
67.05
  0
LINE
  8
0
 10
397.475
 20
67.05
 11
397.5
 21
66.9
  0
LINE
  8
0
 10
397.5
 20
66.9
 11
397.475
 21
66.75
  0
LINE
  8
0
 10
397.475
 20
66.75
 11
397.5
 21
66.6
  0
LINE
  8
0
 10
397.5
 20
66.6
 11
397.475
 21
66.45
  0
LINE
  8
0
 10
397.475
 20
66.45
 11
397.5
 21
66.3
  0
LINE
  8
0
 10
397.5
 20
66.3
 11
397.475
 21
66.15
  0
LINE
  8
0
 10
397.475
 20
66.15
 11
397.5
 21
66
  0
LINE
  8
0
 10
397.5
 20
66
 11
397.475
 21
65.85
  0
LINE
  8
0
 10
397.475
 20
65.85
 11
397.5
 21
65.7
  0
LINE
  8
0
 10
397.5
 20
65.7
 11
397.475
 21
65.55
  0
LINE
  8
0
 10
397.475
 20
65.55
 11
397.5
 21
65.4
  0
LINE
  8
0
 10
397.5
 20
65.4
 11
397.475
 21
65.25
  0
LINE
  8
0
 10
397.475
 20
65.25
 11
397.5
 21
65.1
  0
LINE
  8
0
 10
397.5
 20
65.1
 11
397.475
 21
64.95
  0
LINE
  8
0
 10
397.475
 20
64.95
 11
397.5
 21
64.8
  0
LINE
  8
0
 10
397.5
 20
64.8
 11
397.475
 21
64.65
  0
LINE
  8
0
 10
397.475
 20
64.65
 11
397.5
 21
64.5
  0
LINE
  8
0
 10
397.5
 20
64.5
 11
397.475
 21
64.35
  0
LINE
  8
0
 10
397.475
 20
64.35
 11
397.5
 21
64.2
  0
LINE
  8
0
 10
397.5
 20
64.2
 11
397.475
 21
64.05
  0
LINE
  8
0
 10
397.475
 20
64.05
 11
397.5
 21
63.9
  0
LINE
  8
0
 10
397.5
 20
63.9
 11
397.475
 21
63.75
  0
LINE
  8
0
 10
397.475
 20
63.75
 11
397.5
 21
63.6
  0
LINE
  8
0
 10
397.5
 20
63.6
 11
397.475
 21
63.45
  0
LINE
  8
0
 10
397.475
 20
63.45
 11
397.5
 21
63.3
  0
LINE
  8
0
 10
397.5
 20
63.3
 11
397.475
 21
63.15
  0
LINE
  8
0
 10
397.475
 20
63.15
 11
397.5
 21
63
  0
LINE
  8
0
 10
397.5
 20
63
 11
397.419
 21
62.5129
  0
LINE
  8
0
 10
397.419
 20
62.5129
 11
397.184
 21
62.0787
  0
LINE
  8
0
 10
397.184
 20
62.0787
 11
396.82
 21
61.7442
  0
LINE
  8
0
 10
396.82
 20
61.7442
 11
396.368
 21
61.5459
  0
LINE
  8
0
 10
396.368
 20
61.5459
 11
395.876
 21
61.5051
  0
LINE
  8
0
 10
395.876
 20
61.5051
 11
395.397
 21
61.6263
  0
LINE
  8
0
 10
481.397
 20
61.6263
 11
480.984
 21
61.8964
  0
LINE
  8
0
 10
480.984
 20
61.8964
 11
480.681
 21
62.2861
  0
LINE
  8
0
 10
480.681
 20
62.2861
 11
480.52
 21
62.7531
  0
LINE
  8
0
 10
480.52
 20
62.7531
 11
480.52
 21
72.2469
  0
LINE
  8
0
 10
480.52
 20
72.2469
 11
480.681
 21
72.7139
  0
LINE
  8
0
 10
480.681
 20
72.7139
 11
480.984
 21
73.1036
  0
LINE
  8
0
 10
480.984
 20
73.1036
 11
481.397
 21
73.3737
  0
LINE
  8
0
 10
481.397
 20
73.3737
 11
481.876
 21
73.4949
  0
LINE
  8
0
 10
481.876
 20
73.4949
 11
482.368
 21
73.4541
  0
LINE
  8
0
 10
482.368
 20
73.4541
 11
482.82
 21
73.2557
  0
LINE
  8
0
 10
482.82
 20
73.2557
 11
483.184
 21
72.9213
  0
LINE
  8
0
 10
483.184
 20
72.9213
 11
483.419
 21
72.487
  0
LINE
  8
0
 10
483.419
 20
72.487
 11
483.5
 21
72
  0
LINE
  8
0
 10
483.5
 20
72
 11
483.475
 21
71.85
  0
LINE
  8
0
 10
483.475
 20
71.85
 11
483.5
 21
71.7
  0
LINE
  8
0
 10
483.5
 20
71.7
 11
483.475
 21
71.55
  0
LINE
  8
0
 10
483.475
 20
71.55
 11
483.5
 21
71.4
  0
LINE
  8
0
 10
483.5
 20
71.4
 11
483.475
 21
71.25
  0
LINE
  8
0
 10
483.475
 20
71.25
 11
483.5
 21
71.1
  0
LINE
  8
0
 10
483.5
 20
71.1
 11
483.475
 21
70.95
  0
LINE
  8
0
 10
483.475
 20
70.95
 11
483.5
 21
70.8
  0
LINE
  8
0
 10
483.5
 20
70.8
 11
483.475
 21
70.65
  0
LINE
  8
0
 10
483.475
 20
70.65
 11
483.5
 21
70.5
  0
LINE
  8
0
 10
483.5
 20
70.5
 11
483.475
 21
70.35
  0
LINE
  8
0
 10
483.475
 20
70.35
 11
483.5
 21
70.2
  0
LINE
  8
0
 10
483.5
 20
70.2
 11
483.475
 21
70.05
  0
LINE
  8
0
 10
483.475
 20
70.05
 11
483.5
 21
69.9
  0
LINE
  8
0
 10
483.5
 20
69.9
 11
483.475
 21
69.75
  0
LINE
  8
0
 10
483.475
 20
69.75
 11
483.5
 21
69.6
  0
LINE
  8
0
 10
483.5
 20
69.6
 11
483.475
 21
69.45
  0
LINE
  8
0
 10
483.475
 20
69.45
 11
483.5
 21
69.3
  0
LINE
  8
0
 10
483.5
 20
69.3
 11
483.475
 21
69.15
  0
LINE
  8
0
 10
483.475
 20
69.15
 11
483.5
 21
69
  0
LINE
  8
0
 10
483.5
 20
69
 11
483.475
 21
68.85
  0
LINE
  8
0
 10
483.475
 20
68.85
 11
483.5
 21
68.7
  0
LINE
  8
0
 10
483.5
 20
68.7
 11
483.475
 21
68.55
  0
LINE
  8
0
 10
483.475
 20
68.55
 11
483.5
 21
68.4
  0
LINE
  8
0
 10
483.5
 20
68.4
 11
483.475
 21
68.25
  0
LINE
  8
0
 10
483.475
 20
68.25
 11
483.5
 21
68.1
  0
LINE
  8
0
 10
483.5
 20
68.1
 11
483.475
 21
67.95
  0
LINE
  8
0
 10
483.475
 20
67.95
 11
483.5
 21
67.8
  0
LINE
  8
0
 10
483.5
 20
67.8
 11
483.475
 21
67.65
  0
LINE
  8
0
 10
483.475
 20
67.65
 11
483.5
 21
67.5
  0
LINE
  8
0
 10
483.5
 20
67.5
 11
483.475
 21
67.35
  0
LINE
  8
0
 10
483.475
 20
67.35
 11
483.5
 21
67.2
  0
LINE
  8
0
 10
483.5
 20
67.2
 11
483.475
 21
67.05
  0
LINE
  8
0
 10
483.475
 20
67.05
 11
483.5
 21
66.9
  0
LINE
  8
0
 10
483.5
 20
66.9
 11
483.475
 21
66.75
  0
LINE
  8
0
 10
483.475
 20
66.75
 11
483.5
 21
66.6
  0
LINE
  8
0
 10
483.5
 20
66.6
 11
483.475
 21
66.45
  0
LINE
  8
0
 10
483.475
 20
66.45
 11
483.5
 21
66.3
  0
LINE
  8
0
 10
483.5
 20
66.3
 11
483.475
 21
66.15
  0
LINE
  8
0
 10
483.475
 20
66.15
 11
483.5
 21
66
  0
LINE
  8
0
 10
483.5
 20
66
 11
483.475
 21
65.85
  0
LINE
  8
0
 10
483.475
 20
65.85
 11
483.5
 21
65.7
  0
LINE
  8
0
 10
483.5
 20
65.7
 11
483.475
 21
65.55
  0
LINE
  8
0
 10
483.475
 20
65.55
 11
483.5
 21
65.4
  0
LINE
  8
0
 10
483.5
 20
65.4
 11
483.475
 21
65.25
  0
LINE
  8
0
 10
483.475
 20
65.25
 11
483.5
 21
65.1
  0
LINE
  8
0
 10
483.5
 20
65.1
 11
483.475
 21
64.95
  0
LINE
  8
0
 10
483.475
 20
64.95
 11
483.5
 21
64.8
  0
LINE
  8
0
 10
483.5
 20
64.8
 11
483.475
 21
64.65
  0
LINE
  8
0
 10
483.475
 20
64.65
 11
483.5
 21
64.5
  0
LINE
  8
0
 10
483.5
 20
64.5
 11
483.475
 21
64.35
  0
LINE
  8
0
 10
483.475
 20
64.35
 11
483.5
 21
64.2
  0
LINE
  8
0
 10
483.5
 20
64.2
 11
483.475
 21
64.05
  0
LINE
  8
0
 10
483.475
 20
64.05
 11
483.5
 21
63.9
  0
LINE
  8
0
 10
483.5
 20
63.9
 11
483.475
 21
63.75
  0
LINE
  8
0
 10
483.475
 20
63.75
 11
483.5
 21
63.6
  0
LINE
  8
0
 10
483.5
 20
63.6
 11
483.475
 21
63.45
  0
LINE
  8
0
 10
483.475
 20
63.45
 11
483.5
 21
63.3
  0
LINE
  8
0
 10
483.5
 20
63.3
 11
483.475
 21
63.15
  0
LINE
  8
0
 10
483.475
 20
63.15
 11
483.5
 21
63
  0
LINE
  8
0
 10
483.5
 20
63
 11
483.419
 21
62.5129
  0
LINE
  8
0
 10
483.419
 20
62.5129
 11
483.184
 21
62.0787
  0
LINE
  8
0
 10
483.184
 20
62.0787
 11
482.82
 21
61.7442
  0
LINE
  8
0
 10
482.82
 20
61.7442
 11
482.368
 21
61.5459
  0
LINE
  8
0
 10
482.368
 20
61.5459
 11
481.876
 21
61.5051
  0
LINE
  8
0
 10
481.876
 20
61.5051
 11
481.397
 21
61.6263
  0
LINE
  8
0
 10
195.5
 20
54.5
 11
194.926
 21
54.6142
  0
LINE
  8
0
 10
194.926
 20
54.6142
 11
194.439
 21
54.9393
  0
LINE
  8
0
 10
194.439
 20
54.9393
 11
194.114
 21
55.426
  0
LINE
  8
0
 10
194.114
 20
55.426
 11
194
 21
56
  0
LINE
  8
0
 10
194
 20
56
 11
194.114
 21
56.574
  0
LINE
  8
0
 10
194.114
 20
56.574
 11
194.439
 21
57.0607
  0
LINE
  8
0
 10
194.439
 20
57.0607
 11
194.926
 21
57.3858
  0
LINE
  8
0
 10
194.926
 20
57.3858
 11
195.5
 21
57.5
  0
LINE
  8
0
 10
195.5
 20
57.5
 11
312.5
 21
57.5
  0
LINE
  8
0
 10
312.5
 20
57.5
 11
313.074
 21
57.3858
  0
LINE
  8
0
 10
313.074
 20
57.3858
 11
313.561
 21
57.0607
  0
LINE
  8
0
 10
313.561
 20
57.0607
 11
313.886
 21
56.574
  0
LINE
  8
0
 10
313.886
 20
56.574
 11
314
 21
56
  0
LINE
  8
0
 10
314
 20
56
 11
313.886
 21
55.426
  0
LINE
  8
0
 10
313.886
 20
55.426
 11
313.561
 21
54.9393
  0
LINE
  8
0
 10
313.561
 20
54.9393
 11
313.074
 21
54.6142
  0
LINE
  8
0
 10
313.074
 20
54.6142
 11
312.5
 21
54.5
  0
LINE
  8
0
 10
312.5
 20
54.5
 11
195.5
 21
54.5
  0
LINE
  8
0
 10
345.5
 20
54.5
 11
344.926
 21
54.6142
  0
LINE
  8
0
 10
344.926
 20
54.6142
 11
344.439
 21
54.9393
  0
LINE
  8
0
 10
344.439
 20
54.9393
 11
344.114
 21
55.426
  0
LINE
  8
0
 10
344.114
 20
55.426
 11
344
 21
56
  0
LINE
  8
0
 10
344
 20
56
 11
344.114
 21
56.574
  0
LINE
  8
0
 10
344.114
 20
56.574
 11
344.439
 21
57.0607
  0
LINE
  8
0
 10
344.439
 20
57.0607
 11
344.926
 21
57.3858
  0
LINE
  8
0
 10
344.926
 20
57.3858
 11
345.5
 21
57.5
  0
LINE
  8
0
 10
345.5
 20
57.5
 11
462.5
 21
57.5
  0
LINE
  8
0
 10
462.5
 20
57.5
 11
463.074
 21
57.3858
  0
LINE
  8
0
 10
463.074
 20
57.3858
 11
463.561
 21
57.0607
  0
LINE
  8
0
 10
463.561
 20
57.0607
 11
463.886
 21
56.574
  0
LINE
  8
0
 10
463.886
 20
56.574
 11
464
 21
56
  0
LINE
  8
0
 10
464
 20
56
 11
463.886
 21
55.426
  0
LINE
  8
0
 10
463.886
 20
55.426
 11
463.561
 21
54.9393
  0
LINE
  8
0
 10
463.561
 20
54.9393
 11
463.074
 21
54.6142
  0
LINE
  8
0
 10
463.074
 20
54.6142
 11
462.5
 21
54.5
  0
LINE
  8
0
 10
462.5
 20
54.5
 11
345.5
 21
54.5
  0
LINE
  8
0
 10
352.802
 20
38.5238
 11
352.576
 21
38.5051
  0
LINE
  8
0
 10
352.576
 20
38.5051
 11
352.502
 21
38.5238
  0
LINE
  8
0
 10
352.502
 20
38.5238
 11
352.276
 21
38.5051
  0
LINE
  8
0
 10
352.276
 20
38.5051
 11
352.202
 21
38.5238
  0
LINE
  8
0
 10
352.202
 20
38.5238
 11
351.976
 21
38.5051
  0
LINE
  8
0
 10
351.976
 20
38.5051
 11
351.902
 21
38.5238
  0
LINE
  8
0
 10
351.902
 20
38.5238
 11
351.676
 21
38.5051
  0
LINE
  8
0
 10
351.676
 20
38.5051
 11
351.602
 21
38.5238
  0
LINE
  8
0
 10
351.602
 20
38.5238
 11
351.376
 21
38.5051
  0
LINE
  8
0
 10
351.376
 20
38.5051
 11
351.302
 21
38.5238
  0
LINE
  8
0
 10
351.302
 20
38.5238
 11
351.076
 21
38.5051
  0
LINE
  8
0
 10
351.076
 20
38.5051
 11
351.002
 21
38.5238
  0
LINE
  8
0
 10
351.002
 20
38.5238
 11
350.776
 21
38.5051
  0
LINE
  8
0
 10
350.776
 20
38.5051
 11
350.702
 21
38.5238
  0
LINE
  8
0
 10
350.702
 20
38.5238
 11
350.476
 21
38.5051
  0
LINE
  8
0
 10
350.476
 20
38.5051
 11
350.402
 21
38.5238
  0
LINE
  8
0
 10
350.402
 20
38.5238
 11
350.176
 21
38.5051
  0
LINE
  8
0
 10
350.176
 20
38.5051
 11
350.102
 21
38.5238
  0
LINE
  8
0
 10
350.102
 20
38.5238
 11
349.876
 21
38.5051
  0
LINE
  8
0
 10
349.876
 20
38.5051
 11
349.802
 21
38.5238
  0
LINE
  8
0
 10
349.802
 20
38.5238
 11
349.576
 21
38.5051
  0
LINE
  8
0
 10
349.576
 20
38.5051
 11
349.502
 21
38.5238
  0
LINE
  8
0
 10
349.502
 20
38.5238
 11
349.276
 21
38.5051
  0
LINE
  8
0
 10
349.276
 20
38.5051
 11
349.202
 21
38.5238
  0
LINE
  8
0
 10
349.202
 20
38.5238
 11
348.976
 21
38.5051
  0
LINE
  8
0
 10
348.976
 20
38.5051
 11
348.902
 21
38.5238
  0
LINE
  8
0
 10
348.902
 20
38.5238
 11
348.676
 21
38.5051
  0
LINE
  8
0
 10
348.676
 20
38.5051
 11
348.602
 21
38.5238
  0
LINE
  8
0
 10
348.602
 20
38.5238
 11
348.376
 21
38.5051
  0
LINE
  8
0
 10
348.376
 20
38.5051
 11
348.302
 21
38.5238
  0
LINE
  8
0
 10
348.302
 20
38.5238
 11
348.076
 21
38.5051
  0
LINE
  8
0
 10
348.076
 20
38.5051
 11
348.002
 21
38.5238
  0
LINE
  8
0
 10
348.002
 20
38.5238
 11
347.776
 21
38.5051
  0
LINE
  8
0
 10
347.776
 20
38.5051
 11
347.702
 21
38.5238
  0
LINE
  8
0
 10
347.702
 20
38.5238
 11
347.476
 21
38.5051
  0
LINE
  8
0
 10
347.476
 20
38.5051
 11
347.402
 21
38.5238
  0
LINE
  8
0
 10
347.402
 20
38.5238
 11
347.176
 21
38.5051
  0
LINE
  8
0
 10
347.176
 20
38.5051
 11
347.102
 21
38.5238
  0
LINE
  8
0
 10
347.102
 20
38.5238
 11
346.876
 21
38.5051
  0
LINE
  8
0
 10
346.876
 20
38.5051
 11
346.397
 21
38.6263
  0
LINE
  8
0
 10
346.397
 20
38.6263
 11
345.984
 21
38.8964
  0
LINE
  8
0
 10
345.984
 20
38.8964
 11
345.681
 21
39.2861
  0
LINE
  8
0
 10
345.681
 20
39.2861
 11
345.52
 21
39.7531
  0
LINE
  8
0
 10
345.52
 20
39.7531
 11
345.52
 21
40.2469
  0
LINE
  8
0
 10
345.52
 20
40.2469
 11
345.681
 21
40.7139
  0
LINE
  8
0
 10
345.681
 20
40.7139
 11
345.984
 21
41.1036
  0
LINE
  8
0
 10
345.984
 20
41.1036
 11
346.397
 21
41.3737
  0
LINE
  8
0
 10
346.397
 20
41.3737
 11
346.876
 21
41.4949
  0
LINE
  8
0
 10
346.876
 20
41.4949
 11
347.102
 21
41.4761
  0
LINE
  8
0
 10
347.102
 20
41.4761
 11
347.176
 21
41.4949
  0
LINE
  8
0
 10
347.176
 20
41.4949
 11
347.402
 21
41.4761
  0
LINE
  8
0
 10
347.402
 20
41.4761
 11
347.476
 21
41.4949
  0
LINE
  8
0
 10
347.476
 20
41.4949
 11
347.702
 21
41.4761
  0
LINE
  8
0
 10
347.702
 20
41.4761
 11
347.776
 21
41.4949
  0
LINE
  8
0
 10
347.776
 20
41.4949
 11
348.002
 21
41.4761
  0
LINE
  8
0
 10
348.002
 20
41.4761
 11
348.076
 21
41.4949
  0
LINE
  8
0
 10
348.076
 20
41.4949
 11
348.302
 21
41.4761
  0
LINE
  8
0
 10
348.302
 20
41.4761
 11
348.376
 21
41.4949
  0
LINE
  8
0
 10
348.376
 20
41.4949
 11
348.602
 21
41.4761
  0
LINE
  8
0
 10
348.602
 20
41.4761
 11
348.676
 21
41.4949
  0
LINE
  8
0
 10
348.676
 20
41.4949
 11
348.902
 21
41.4761
  0
LINE
  8
0
 10
348.902
 20
41.4761
 11
348.976
 21
41.4949
  0
LINE
  8
0
 10
348.976
 20
41.4949
 11
349.202
 21
41.4761
  0
LINE
  8
0
 10
349.202
 20
41.4761
 11
349.276
 21
41.4949
  0
LINE
  8
0
 10
349.276
 20
41.4949
 11
349.502
 21
41.4761
  0
LINE
  8
0
 10
349.502
 20
41.4761
 11
349.576
 21
41.4949
  0
LINE
  8
0
 10
349.576
 20
41.4949
 11
349.802
 21
41.4761
  0
LINE
  8
0
 10
349.802
 20
41.4761
 11
349.876
 21
41.4949
  0
LINE
  8
0
 10
349.876
 20
41.4949
 11
350.102
 21
41.4761
  0
LINE
  8
0
 10
350.102
 20
41.4761
 11
350.176
 21
41.4949
  0
LINE
  8
0
 10
350.176
 20
41.4949
 11
350.402
 21
41.4761
  0
LINE
  8
0
 10
350.402
 20
41.4761
 11
350.476
 21
41.4949
  0
LINE
  8
0
 10
350.476
 20
41.4949
 11
350.702
 21
41.4761
  0
LINE
  8
0
 10
350.702
 20
41.4761
 11
350.776
 21
41.4949
  0
LINE
  8
0
 10
350.776
 20
41.4949
 11
351.002
 21
41.4761
  0
LINE
  8
0
 10
351.002
 20
41.4761
 11
351.076
 21
41.4949
  0
LINE
  8
0
 10
351.076
 20
41.4949
 11
351.302
 21
41.4761
  0
LINE
  8
0
 10
351.302
 20
41.4761
 11
351.376
 21
41.4949
  0
LINE
  8
0
 10
351.376
 20
41.4949
 11
351.602
 21
41.4761
  0
LINE
  8
0
 10
351.602
 20
41.4761
 11
351.676
 21
41.4949
  0
LINE
  8
0
 10
351.676
 20
41.4949
 11
351.902
 21
41.4761
  0
LINE
  8
0
 10
351.902
 20
41.4761
 11
351.976
 21
41.4949
  0
LINE
  8
0
 10
351.976
 20
41.4949
 11
352.202
 21
41.4761
  0
LINE
  8
0
 10
352.202
 20
41.4761
 11
352.276
 21
41.4949
  0
LINE
  8
0
 10
352.276
 20
41.4949
 11
352.502
 21
41.4761
  0
LINE
  8
0
 10
352.502
 20
41.4761
 11
352.576
 21
41.4949
  0
LINE
  8
0
 10
352.576
 20
41.4949
 11
352.802
 21
41.4761
  0
LINE
  8
0
 10
352.802
 20
41.4761
 11
352.876
 21
41.4949
  0
LINE
  8
0
 10
352.876
 20
41.4949
 11
353.368
 21
41.4541
  0
LINE
  8
0
 10
353.368
 20
41.4541
 11
353.82
 21
41.2557
  0
LINE
  8
0
 10
353.82
 20
41.2557
 11
354.184
 21
40.9213
  0
LINE
  8
0
 10
354.184
 20
40.9213
 11
354.419
 21
40.487
  0
LINE
  8
0
 10
354.419
 20
40.487
 11
354.5
 21
40
  0
LINE
  8
0
 10
354.5
 20
40
 11
354.419
 21
39.5129
  0
LINE
  8
0
 10
354.419
 20
39.5129
 11
354.184
 21
39.0787
  0
LINE
  8
0
 10
354.184
 20
39.0787
 11
353.82
 21
38.7442
  0
LINE
  8
0
 10
353.82
 20
38.7442
 11
353.368
 21
38.5459
  0
LINE
  8
0
 10
353.368
 20
38.5459
 11
352.876
 21
38.5051
  0
LINE
  8
0
 10
352.876
 20
38.5051
 11
352.802
 21
38.5238
  0
LINE
  8
0
 10
197.802
 20
38.5238
 11
197.576
 21
38.5051
  0
LINE
  8
0
 10
197.576
 20
38.5051
 11
197.502
 21
38.5238
  0
LINE
  8
0
 10
197.502
 20
38.5238
 11
197.276
 21
38.5051
  0
LINE
  8
0
 10
197.276
 20
38.5051
 11
197.202
 21
38.5238
  0
LINE
  8
0
 10
197.202
 20
38.5238
 11
196.976
 21
38.5051
  0
LINE
  8
0
 10
196.976
 20
38.5051
 11
196.902
 21
38.5238
  0
LINE
  8
0
 10
196.902
 20
38.5238
 11
196.676
 21
38.5051
  0
LINE
  8
0
 10
196.676
 20
38.5051
 11
196.602
 21
38.5238
  0
LINE
  8
0
 10
196.602
 20
38.5238
 11
196.376
 21
38.5051
  0
LINE
  8
0
 10
196.376
 20
38.5051
 11
196.302
 21
38.5238
  0
LINE
  8
0
 10
196.302
 20
38.5238
 11
196.076
 21
38.5051
  0
LINE
  8
0
 10
196.076
 20
38.5051
 11
196.002
 21
38.5238
  0
LINE
  8
0
 10
196.002
 20
38.5238
 11
195.776
 21
38.5051
  0
LINE
  8
0
 10
195.776
 20
38.5051
 11
195.702
 21
38.5238
  0
LINE
  8
0
 10
195.702
 20
38.5238
 11
195.476
 21
38.5051
  0
LINE
  8
0
 10
195.476
 20
38.5051
 11
195.402
 21
38.5238
  0
LINE
  8
0
 10
195.402
 20
38.5238
 11
195.176
 21
38.5051
  0
LINE
  8
0
 10
195.176
 20
38.5051
 11
195.102
 21
38.5238
  0
LINE
  8
0
 10
195.102
 20
38.5238
 11
194.876
 21
38.5051
  0
LINE
  8
0
 10
194.876
 20
38.5051
 11
194.802
 21
38.5238
  0
LINE
  8
0
 10
194.802
 20
38.5238
 11
194.576
 21
38.5051
  0
LINE
  8
0
 10
194.576
 20
38.5051
 11
194.502
 21
38.5238
  0
LINE
  8
0
 10
194.502
 20
38.5238
 11
194.276
 21
38.5051
  0
LINE
  8
0
 10
194.276
 20
38.5051
 11
194.202
 21
38.5238
  0
LINE
  8
0
 10
194.202
 20
38.5238
 11
193.976
 21
38.5051
  0
LINE
  8
0
 10
193.976
 20
38.5051
 11
193.902
 21
38.5238
  0
LINE
  8
0
 10
193.902
 20
38.5238
 11
193.676
 21
38.5051
  0
LINE
  8
0
 10
193.676
 20
38.5051
 11
193.602
 21
38.5238
  0
LINE
  8
0
 10
193.602
 20
38.5238
 11
193.376
 21
38.5051
  0
LINE
  8
0
 10
193.376
 20
38.5051
 11
193.302
 21
38.5238
  0
LINE
  8
0
 10
193.302
 20
38.5238
 11
193.076
 21
38.5051
  0
LINE
  8
0
 10
193.076
 20
38.5051
 11
193.002
 21
38.5238
  0
LINE
  8
0
 10
193.002
 20
38.5238
 11
192.776
 21
38.5051
  0
LINE
  8
0
 10
192.776
 20
38.5051
 11
192.702
 21
38.5238
  0
LINE
  8
0
 10
192.702
 20
38.5238
 11
192.476
 21
38.5051
  0
LINE
  8
0
 10
192.476
 20
38.5051
 11
192.402
 21
38.5238
  0
LINE
  8
0
 10
192.402
 20
38.5238
 11
192.176
 21
38.5051
  0
LINE
  8
0
 10
192.176
 20
38.5051
 11
192.102
 21
38.5238
  0
LINE
  8
0
 10
192.102
 20
38.5238
 11
191.876
 21
38.5051
  0
LINE
  8
0
 10
191.876
 20
38.5051
 11
191.397
 21
38.6263
  0
LINE
  8
0
 10
191.397
 20
38.6263
 11
190.984
 21
38.8964
  0
LINE
  8
0
 10
190.984
 20
38.8964
 11
190.681
 21
39.2861
  0
LINE
  8
0
 10
190.681
 20
39.2861
 11
190.52
 21
39.7531
  0
LINE
  8
0
 10
190.52
 20
39.7531
 11
190.52
 21
40.2469
  0
LINE
  8
0
 10
190.52
 20
40.2469
 11
190.681
 21
40.7139
  0
LINE
  8
0
 10
190.681
 20
40.7139
 11
190.984
 21
41.1036
  0
LINE
  8
0
 10
190.984
 20
41.1036
 11
191.397
 21
41.3737
  0
LINE
  8
0
 10
191.397
 20
41.3737
 11
191.876
 21
41.4949
  0
LINE
  8
0
 10
191.876
 20
41.4949
 11
192.102
 21
41.4761
  0
LINE
  8
0
 10
192.102
 20
41.4761
 11
192.176
 21
41.4949
  0
LINE
  8
0
 10
192.176
 20
41.4949
 11
192.402
 21
41.4761
  0
LINE
  8
0
 10
192.402
 20
41.4761
 11
192.476
 21
41.4949
  0
LINE
  8
0
 10
192.476
 20
41.4949
 11
192.702
 21
41.4761
  0
LINE
  8
0
 10
192.702
 20
41.4761
 11
192.776
 21
41.4949
  0
LINE
  8
0
 10
192.776
 20
41.4949
 11
193.002
 21
41.4761
  0
LINE
  8
0
 10
193.002
 20
41.4761
 11
193.076
 21
41.4949
  0
LINE
  8
0
 10
193.076
 20
41.4949
 11
193.302
 21
41.4761
  0
LINE
  8
0
 10
193.302
 20
41.4761
 11
193.376
 21
41.4949
  0
LINE
  8
0
 10
193.376
 20
41.4949
 11
193.602
 21
41.4761
  0
LINE
  8
0
 10
193.602
 20
41.4761
 11
193.676
 21
41.4949
  0
LINE
  8
0
 10
193.676
 20
41.4949
 11
193.902
 21
41.4761
  0
LINE
  8
0
 10
193.902
 20
41.4761
 11
193.976
 21
41.4949
  0
LINE
  8
0
 10
193.976
 20
41.4949
 11
194.202
 21
41.4761
  0
LINE
  8
0
 10
194.202
 20
41.4761
 11
194.276
 21
41.4949
  0
LINE
  8
0
 10
194.276
 20
41.4949
 11
194.502
 21
41.4761
  0
LINE
  8
0
 10
194.502
 20
41.4761
 11
194.576
 21
41.4949
  0
LINE
  8
0
 10
194.576
 20
41.4949
 11
194.802
 21
41.4761
  0
LINE
  8
0
 10
194.802
 20
41.4761
 11
194.876
 21
41.4949
  0
LINE
  8
0
 10
194.876
 20
41.4949
 11
195.102
 21
41.4761
  0
LINE
  8
0
 10
195.102
 20
41.4761
 11
195.176
 21
41.4949
  0
LINE
  8
0
 10
195.176
 20
41.4949
 11
195.402
 21
41.4761
  0
LINE
  8
0
 10
195.402
 20
41.4761
 11
195.476
 21
41.4949
  0
LINE
  8
0
 10
195.476
 20
41.4949
 11
195.702
 21
41.4761
  0
LINE
  8
0
 10
195.702
 20
41.4761
 11
195.776
 21
41.4949
  0
LINE
  8
0
 10
195.776
 20
41.4949
 11
196.002
 21
41.4761
  0
LINE
  8
0
 10
196.002
 20
41.4761
 11
196.076
 21
41.4949
  0
LINE
  8
0
 10
196.076
 20
41.4949
 11
196.302
 21
41.4761
  0
LINE
  8
0
 10
196.302
 20
41.4761
 11
196.376
 21
41.4949
  0
LINE
  8
0
 10
196.376
 20
41.4949
 11
196.602
 21
41.4761
  0
LINE
  8
0
 10
196.602
 20
41.4761
 11
196.676
 21
41.4949
  0
LINE
  8
0
 10
196.676
 20
41.4949
 11
196.902
 21
41.4761
  0
LINE
  8
0
 10
196.902
 20
41.4761
 11
196.976
 21
41.4949
  0
LINE
  8
0
 10
196.976
 20
41.4949
 11
197.202
 21
41.4761
  0
LINE
  8
0
 10
197.202
 20
41.4761
 11
197.276
 21
41.4949
  0
LINE
  8
0
 10
197.276
 20
41.4949
 11
197.502
 21
41.4761
  0
LINE
  8
0
 10
197.502
 20
41.4761
 11
197.576
 21
41.4949
  0
LINE
  8
0
 10
197.576
 20
41.4949
 11
197.802
 21
41.4761
  0
LINE
  8
0
 10
197.802
 20
41.4761
 11
197.876
 21
41.4949
  0
LINE
  8
0
 10
197.876
 20
41.4949
 11
198.368
 21
41.4541
  0
LINE
  8
0
 10
198.368
 20
41.4541
 11
198.82
 21
41.2557
  0
LINE
  8
0
 10
198.82
 20
41.2557
 11
199.184
 21
40.9213
  0
LINE
  8
0
 10
199.184
 20
40.9213
 11
199.419
 21
40.487
  0
LINE
  8
0
 10
199.419
 20
40.487
 11
199.5
 21
40
  0
LINE
  8
0
 10
199.5
 20
40
 11
199.419
 21
39.5129
  0
LINE
  8
0
 10
199.419
 20
39.5129
 11
199.184
 21
39.0787
  0
LINE
  8
0
 10
199.184
 20
39.0787
 11
198.82
 21
38.7442
  0
LINE
  8
0
 10
198.82
 20
38.7442
 11
198.368
 21
38.5459
  0
LINE
  8
0
 10
198.368
 20
38.5459
 11
197.876
 21
38.5051
  0
LINE
  8
0
 10
197.876
 20
38.5051
 11
197.802
 21
38.5238
  0
LINE
  8
0
 10
287.802
 20
38.5238
 11
287.576
 21
38.5051
  0
LINE
  8
0
 10
287.576
 20
38.5051
 11
287.502
 21
38.5238
  0
LINE
  8
0
 10
287.502
 20
38.5238
 11
287.276
 21
38.5051
  0
LINE
  8
0
 10
287.276
 20
38.5051
 11
287.202
 21
38.5238
  0
LINE
  8
0
 10
287.202
 20
38.5238
 11
286.976
 21
38.5051
  0
LINE
  8
0
 10
286.976
 20
38.5051
 11
286.902
 21
38.5238
  0
LINE
  8
0
 10
286.902
 20
38.5238
 11
286.676
 21
38.5051
  0
LINE
  8
0
 10
286.676
 20
38.5051
 11
286.602
 21
38.5238
  0
LINE
  8
0
 10
286.602
 20
38.5238
 11
286.376
 21
38.5051
  0
LINE
  8
0
 10
286.376
 20
38.5051
 11
286.302
 21
38.5238
  0
LINE
  8
0
 10
286.302
 20
38.5238
 11
286.076
 21
38.5051
  0
LINE
  8
0
 10
286.076
 20
38.5051
 11
286.002
 21
38.5238
  0
LINE
  8
0
 10
286.002
 20
38.5238
 11
285.776
 21
38.5051
  0
LINE
  8
0
 10
285.776
 20
38.5051
 11
285.702
 21
38.5238
  0
LINE
  8
0
 10
285.702
 20
38.5238
 11
285.476
 21
38.5051
  0
LINE
  8
0
 10
285.476
 20
38.5051
 11
285.402
 21
38.5238
  0
LINE
  8
0
 10
285.402
 20
38.5238
 11
285.176
 21
38.5051
  0
LINE
  8
0
 10
285.176
 20
38.5051
 11
285.102
 21
38.5238
  0
LINE
  8
0
 10
285.102
 20
38.5238
 11
284.876
 21
38.5051
  0
LINE
  8
0
 10
284.876
 20
38.5051
 11
284.802
 21
38.5238
  0
LINE
  8
0
 10
284.802
 20
38.5238
 11
284.576
 21
38.5051
  0
LINE
  8
0
 10
284.576
 20
38.5051
 11
284.502
 21
38.5238
  0
LINE
  8
0
 10
284.502
 20
38.5238
 11
284.276
 21
38.5051
  0
LINE
  8
0
 10
284.276
 20
38.5051
 11
284.202
 21
38.5238
  0
LINE
  8
0
 10
284.202
 20
38.5238
 11
283.976
 21
38.5051
  0
LINE
  8
0
 10
283.976
 20
38.5051
 11
283.902
 21
38.5238
  0
LINE
  8
0
 10
283.902
 20
38.5238
 11
283.676
 21
38.5051
  0
LINE
  8
0
 10
283.676
 20
38.5051
 11
283.602
 21
38.5238
  0
LINE
  8
0
 10
283.602
 20
38.5238
 11
283.376
 21
38.5051
  0
LINE
  8
0
 10
283.376
 20
38.5051
 11
283.302
 21
38.5238
  0
LINE
  8
0
 10
283.302
 20
38.5238
 11
283.076
 21
38.5051
  0
LINE
  8
0
 10
283.076
 20
38.5051
 11
283.002
 21
38.5238
  0
LINE
  8
0
 10
283.002
 20
38.5238
 11
282.776
 21
38.5051
  0
LINE
  8
0
 10
282.776
 20
38.5051
 11
282.702
 21
38.5238
  0
LINE
  8
0
 10
282.702
 20
38.5238
 11
282.476
 21
38.5051
  0
LINE
  8
0
 10
282.476
 20
38.5051
 11
282.402
 21
38.5238
  0
LINE
  8
0
 10
282.402
 20
38.5238
 11
282.176
 21
38.5051
  0
LINE
  8
0
 10
282.176
 20
38.5051
 11
282.102
 21
38.5238
  0
LINE
  8
0
 10
282.102
 20
38.5238
 11
281.876
 21
38.5051
  0
LINE
  8
0
 10
281.876
 20
38.5051
 11
281.397
 21
38.6263
  0
LINE
  8
0
 10
281.397
 20
38.6263
 11
280.984
 21
38.8964
  0
LINE
  8
0
 10
280.984
 20
38.8964
 11
280.681
 21
39.2861
  0
LINE
  8
0
 10
280.681
 20
39.2861
 11
280.52
 21
39.7531
  0
LINE
  8
0
 10
280.52
 20
39.7531
 11
280.52
 21
40.2469
  0
LINE
  8
0
 10
280.52
 20
40.2469
 11
280.681
 21
40.7139
  0
LINE
  8
0
 10
280.681
 20
40.7139
 11
280.984
 21
41.1036
  0
LINE
  8
0
 10
280.984
 20
41.1036
 11
281.397
 21
41.3737
  0
LINE
  8
0
 10
281.397
 20
41.3737
 11
281.876
 21
41.4949
  0
LINE
  8
0
 10
281.876
 20
41.4949
 11
282.102
 21
41.4761
  0
LINE
  8
0
 10
282.102
 20
41.4761
 11
282.176
 21
41.4949
  0
LINE
  8
0
 10
282.176
 20
41.4949
 11
282.402
 21
41.4761
  0
LINE
  8
0
 10
282.402
 20
41.4761
 11
282.476
 21
41.4949
  0
LINE
  8
0
 10
282.476
 20
41.4949
 11
282.702
 21
41.4761
  0
LINE
  8
0
 10
282.702
 20
41.4761
 11
282.776
 21
41.4949
  0
LINE
  8
0
 10
282.776
 20
41.4949
 11
283.002
 21
41.4761
  0
LINE
  8
0
 10
283.002
 20
41.4761
 11
283.076
 21
41.4949
  0
LINE
  8
0
 10
283.076
 20
41.4949
 11
283.302
 21
41.4761
  0
LINE
  8
0
 10
283.302
 20
41.4761
 11
283.376
 21
41.4949
  0
LINE
  8
0
 10
283.376
 20
41.4949
 11
283.602
 21
41.4761
  0
LINE
  8
0
 10
283.602
 20
41.4761
 11
283.676
 21
41.4949
  0
LINE
  8
0
 10
283.676
 20
41.4949
 11
283.902
 21
41.4761
  0
LINE
  8
0
 10
283.902
 20
41.4761
 11
283.976
 21
41.4949
  0
LINE
  8
0
 10
283.976
 20
41.4949
 11
284.202
 21
41.4761
  0
LINE
  8
0
 10
284.202
 20
41.4761
 11
284.276
 21
41.4949
  0
LINE
  8
0
 10
284.276
 20
41.4949
 11
284.502
 21
41.4761
  0
LINE
  8
0
 10
284.502
 20
41.4761
 11
284.576
 21
41.4949
  0
LINE
  8
0
 10
284.576
 20
41.4949
 11
284.802
 21
41.4761
  0
LINE
  8
0
 10
284.802
 20
41.4761
 11
284.876
 21
41.4949
  0
LINE
  8
0
 10
284.876
 20
41.4949
 11
285.102
 21
41.4761
  0
LINE
  8
0
 10
285.102
 20
41.4761
 11
285.176
 21
41.4949
  0
LINE
  8
0
 10
285.176
 20
41.4949
 11
285.402
 21
41.4761
  0
LINE
  8
0
 10
285.402
 20
41.4761
 11
285.476
 21
41.4949
  0
LINE
  8
0
 10
285.476
 20
41.4949
 11
285.702
 21
41.4761
  0
LINE
  8
0
 10
285.702
 20
41.4761
 11
285.776
 21
41.4949
  0
LINE
  8
0
 10
285.776
 20
41.4949
 11
286.002
 21
41.4761
  0
LINE
  8
0
 10
286.002
 20
41.4761
 11
286.076
 21
41.4949
  0
LINE
  8
0
 10
286.076
 20
41.4949
 11
286.302
 21
41.4761
  0
LINE
  8
0
 10
286.302
 20
41.4761
 11
286.376
 21
41.4949
  0
LINE
  8
0
 10
286.376
 20
41.4949
 11
286.602
 21
41.4761
  0
LINE
  8
0
 10
286.602
 20
41.4761
 11
286.676
 21
41.4949
  0
LINE
  8
0
 10
286.676
 20
41.4949
 11
286.902
 21
41.4761
  0
LINE
  8
0
 10
286.902
 20
41.4761
 11
286.976
 21
41.4949
  0
LINE
  8
0
 10
286.976
 20
41.4949
 11
287.202
 21
41.4761
  0
LINE
  8
0
 10
287.202
 20
41.4761
 11
287.276
 21
41.4949
  0
LINE
  8
0
 10
287.276
 20
41.4949
 11
287.502
 21
41.4761
  0
LINE
  8
0
 10
287.502
 20
41.4761
 11
287.576
 21
41.4949
  0
LINE
  8
0
 10
287.576
 20
41.4949
 11
287.802
 21
41.4761
  0
LINE
  8
0
 10
287.802
 20
41.4761
 11
287.876
 21
41.4949
  0
LINE
  8
0
 10
287.876
 20
41.4949
 11
288.368
 21
41.4541
  0
LINE
  8
0
 10
288.368
 20
41.4541
 11
288.82
 21
41.2557
  0
LINE
  8
0
 10
288.82
 20
41.2557
 11
289.184
 21
40.9213
  0
LINE
  8
0
 10
289.184
 20
40.9213
 11
289.419
 21
40.487
  0
LINE
  8
0
 10
289.419
 20
40.487
 11
289.5
 21
40
  0
LINE
  8
0
 10
289.5
 20
40
 11
289.419
 21
39.5129
  0
LINE
  8
0
 10
289.419
 20
39.5129
 11
289.184
 21
39.0787
  0
LINE
  8
0
 10
289.184
 20
39.0787
 11
288.82
 21
38.7442
  0
LINE
  8
0
 10
288.82
 20
38.7442
 11
288.368
 21
38.5459
  0
LINE
  8
0
 10
288.368
 20
38.5459
 11
287.876
 21
38.5051
  0
LINE
  8
0
 10
287.876
 20
38.5051
 11
287.802
 21
38.5238
  0
LINE
  8
0
 10
262.802
 20
38.5238
 11
262.576
 21
38.5051
  0
LINE
  8
0
 10
262.576
 20
38.5051
 11
262.502
 21
38.5238
  0
LINE
  8
0
 10
262.502
 20
38.5238
 11
262.276
 21
38.5051
  0
LINE
  8
0
 10
262.276
 20
38.5051
 11
262.202
 21
38.5238
  0
LINE
  8
0
 10
262.202
 20
38.5238
 11
261.976
 21
38.5051
  0
LINE
  8
0
 10
261.976
 20
38.5051
 11
261.902
 21
38.5238
  0
LINE
  8
0
 10
261.902
 20
38.5238
 11
261.676
 21
38.5051
  0
LINE
  8
0
 10
261.676
 20
38.5051
 11
261.602
 21
38.5238
  0
LINE
  8
0
 10
261.602
 20
38.5238
 11
261.376
 21
38.5051
  0
LINE
  8
0
 10
261.376
 20
38.5051
 11
261.302
 21
38.5238
  0
LINE
  8
0
 10
261.302
 20
38.5238
 11
261.076
 21
38.5051
  0
LINE
  8
0
 10
261.076
 20
38.5051
 11
261.002
 21
38.5238
  0
LINE
  8
0
 10
261.002
 20
38.5238
 11
260.776
 21
38.5051
  0
LINE
  8
0
 10
260.776
 20
38.5051
 11
260.702
 21
38.5238
  0
LINE
  8
0
 10
260.702
 20
38.5238
 11
260.476
 21
38.5051
  0
LINE
  8
0
 10
260.476
 20
38.5051
 11
260.402
 21
38.5238
  0
LINE
  8
0
 10
260.402
 20
38.5238
 11
260.176
 21
38.5051
  0
LINE
  8
0
 10
260.176
 20
38.5051
 11
260.102
 21
38.5238
  0
LINE
  8
0
 10
260.102
 20
38.5238
 11
259.876
 21
38.5051
  0
LINE
  8
0
 10
259.876
 20
38.5051
 11
259.802
 21
38.5238
  0
LINE
  8
0
 10
259.802
 20
38.5238
 11
259.576
 21
38.5051
  0
LINE
  8
0
 10
259.576
 20
38.5051
 11
259.502
 21
38.5238
  0
LINE
  8
0
 10
259.502
 20
38.5238
 11
259.276
 21
38.5051
  0
LINE
  8
0
 10
259.276
 20
38.5051
 11
259.202
 21
38.5238
  0
LINE
  8
0
 10
259.202
 20
38.5238
 11
258.976
 21
38.5051
  0
LINE
  8
0
 10
258.976
 20
38.5051
 11
258.902
 21
38.5238
  0
LINE
  8
0
 10
258.902
 20
38.5238
 11
258.676
 21
38.5051
  0
LINE
  8
0
 10
258.676
 20
38.5051
 11
258.602
 21
38.5238
  0
LINE
  8
0
 10
258.602
 20
38.5238
 11
258.376
 21
38.5051
  0
LINE
  8
0
 10
258.376
 20
38.5051
 11
258.302
 21
38.5238
  0
LINE
  8
0
 10
258.302
 20
38.5238
 11
258.076
 21
38.5051
  0
LINE
  8
0
 10
258.076
 20
38.5051
 11
258.002
 21
38.5238
  0
LINE
  8
0
 10
258.002
 20
38.5238
 11
257.776
 21
38.5051
  0
LINE
  8
0
 10
257.776
 20
38.5051
 11
257.702
 21
38.5238
  0
LINE
  8
0
 10
257.702
 20
38.5238
 11
257.476
 21
38.5051
  0
LINE
  8
0
 10
257.476
 20
38.5051
 11
257.402
 21
38.5238
  0
LINE
  8
0
 10
257.402
 20
38.5238
 11
257.176
 21
38.5051
  0
LINE
  8
0
 10
257.176
 20
38.5051
 11
257.102
 21
38.5238
  0
LINE
  8
0
 10
257.102
 20
38.5238
 11
256.876
 21
38.5051
  0
LINE
  8
0
 10
256.876
 20
38.5051
 11
256.397
 21
38.6263
  0
LINE
  8
0
 10
256.397
 20
38.6263
 11
255.984
 21
38.8964
  0
LINE
  8
0
 10
255.984
 20
38.8964
 11
255.681
 21
39.2861
  0
LINE
  8
0
 10
255.681
 20
39.2861
 11
255.52
 21
39.7531
  0
LINE
  8
0
 10
255.52
 20
39.7531
 11
255.52
 21
40.2469
  0
LINE
  8
0
 10
255.52
 20
40.2469
 11
255.681
 21
40.7139
  0
LINE
  8
0
 10
255.681
 20
40.7139
 11
255.984
 21
41.1036
  0
LINE
  8
0
 10
255.984
 20
41.1036
 11
256.397
 21
41.3737
  0
LINE
  8
0
 10
256.397
 20
41.3737
 11
256.876
 21
41.4949
  0
LINE
  8
0
 10
256.876
 20
41.4949
 11
257.102
 21
41.4761
  0
LINE
  8
0
 10
257.102
 20
41.4761
 11
257.176
 21
41.4949
  0
LINE
  8
0
 10
257.176
 20
41.4949
 11
257.402
 21
41.4761
  0
LINE
  8
0
 10
257.402
 20
41.4761
 11
257.476
 21
41.4949
  0
LINE
  8
0
 10
257.476
 20
41.4949
 11
257.702
 21
41.4761
  0
LINE
  8
0
 10
257.702
 20
41.4761
 11
257.776
 21
41.4949
  0
LINE
  8
0
 10
257.776
 20
41.4949
 11
258.002
 21
41.4761
  0
LINE
  8
0
 10
258.002
 20
41.4761
 11
258.076
 21
41.4949
  0
LINE
  8
0
 10
258.076
 20
41.4949
 11
258.302
 21
41.4761
  0
LINE
  8
0
 10
258.302
 20
41.4761
 11
258.376
 21
41.4949
  0
LINE
  8
0
 10
258.376
 20
41.4949
 11
258.602
 21
41.4761
  0
LINE
  8
0
 10
258.602
 20
41.4761
 11
258.676
 21
41.4949
  0
LINE
  8
0
 10
258.676
 20
41.4949
 11
258.902
 21
41.4761
  0
LINE
  8
0
 10
258.902
 20
41.4761
 11
258.976
 21
41.4949
  0
LINE
  8
0
 10
258.976
 20
41.4949
 11
259.202
 21
41.4761
  0
LINE
  8
0
 10
259.202
 20
41.4761
 11
259.276
 21
41.4949
  0
LINE
  8
0
 10
259.276
 20
41.4949
 11
259.502
 21
41.4761
  0
LINE
  8
0
 10
259.502
 20
41.4761
 11
259.576
 21
41.4949
  0
LINE
  8
0
 10
259.576
 20
41.4949
 11
259.802
 21
41.4761
  0
LINE
  8
0
 10
259.802
 20
41.4761
 11
259.876
 21
41.4949
  0
LINE
  8
0
 10
259.876
 20
41.4949
 11
260.102
 21
41.4761
  0
LINE
  8
0
 10
260.102
 20
41.4761
 11
260.176
 21
41.4949
  0
LINE
  8
0
 10
260.176
 20
41.4949
 11
260.402
 21
41.4761
  0
LINE
  8
0
 10
260.402
 20
41.4761
 11
260.476
 21
41.4949
  0
LINE
  8
0
 10
260.476
 20
41.4949
 11
260.702
 21
41.4761
  0
LINE
  8
0
 10
260.702
 20
41.4761
 11
260.776
 21
41.4949
  0
LINE
  8
0
 10
260.776
 20
41.4949
 11
261.002
 21
41.4761
  0
LINE
  8
0
 10
261.002
 20
41.4761
 11
261.076
 21
41.4949
  0
LINE
  8
0
 10
261.076
 20
41.4949
 11
261.302
 21
41.4761
  0
LINE
  8
0
 10
261.302
 20
41.4761
 11
261.376
 21
41.4949
  0
LINE
  8
0
 10
261.376
 20
41.4949
 11
261.602
 21
41.4761
  0
LINE
  8
0
 10
261.602
 20
41.4761
 11
261.676
 21
41.4949
  0
LINE
  8
0
 10
261.676
 20
41.4949
 11
261.902
 21
41.4761
  0
LINE
  8
0
 10
261.902
 20
41.4761
 11
261.976
 21
41.4949
  0
LINE
  8
0
 10
261.976
 20
41.4949
 11
262.202
 21
41.4761
  0
LINE
  8
0
 10
262.202
 20
41.4761
 11
262.276
 21
41.4949
  0
LINE
  8
0
 10
262.276
 20
41.4949
 11
262.502
 21
41.4761
  0
LINE
  8
0
 10
262.502
 20
41.4761
 11
262.576
 21
41.4949
  0
LINE
  8
0
 10
262.576
 20
41.4949
 11
262.802
 21
41.4761
  0
LINE
  8
0
 10
262.802
 20
41.4761
 11
262.876
 21
41.4949
  0
LINE
  8
0
 10
262.876
 20
41.4949
 11
263.368
 21
41.4541
  0
LINE
  8
0
 10
263.368
 20
41.4541
 11
263.82
 21
41.2557
  0
LINE
  8
0
 10
263.82
 20
41.2557
 11
264.184
 21
40.9213
  0
LINE
  8
0
 10
264.184
 20
40.9213
 11
264.419
 21
40.487
  0
LINE
  8
0
 10
264.419
 20
40.487
 11
264.5
 21
40
  0
LINE
  8
0
 10
264.5
 20
40
 11
264.419
 21
39.5129
  0
LINE
  8
0
 10
264.419
 20
39.5129
 11
264.184
 21
39.0787
  0
LINE
  8
0
 10
264.184
 20
39.0787
 11
263.82
 21
38.7442
  0
LINE
  8
0
 10
263.82
 20
38.7442
 11
263.368
 21
38.5459
  0
LINE
  8
0
 10
263.368
 20
38.5459
 11
262.876
 21
38.5051
  0
LINE
  8
0
 10
262.876
 20
38.5051
 11
262.802
 21
38.5238
  0
LINE
  8
0
 10
146.125
 20
12
 11
145.604
 21
12.0456
  0
LINE
  8
0
 10
145.604
 20
12.0456
 11
145.099
 21
12.1809
  0
LINE
  8
0
 10
145.099
 20
12.1809
 11
144.625
 21
12.4019
  0
LINE
  8
0
 10
144.625
 20
12.4019
 11
144.197
 21
12.7019
  0
LINE
  8
0
 10
144.197
 20
12.7019
 11
143.827
 21
13.0716
  0
LINE
  8
0
 10
143.827
 20
13.0716
 11
143.527
 21
13.5
  0
LINE
  8
0
 10
143.527
 20
13.5
 11
143.306
 21
13.974
  0
LINE
  8
0
 10
143.306
 20
13.974
 11
143.171
 21
14.4791
  0
LINE
  8
0
 10
143.171
 20
14.4791
 11
143.125
 21
15
  0
LINE
  8
0
 10
143.125
 20
15
 11
143.171
 21
15.5209
  0
LINE
  8
0
 10
143.171
 20
15.5209
 11
143.306
 21
16.026
  0
LINE
  8
0
 10
143.306
 20
16.026
 11
143.527
 21
16.5
  0
LINE
  8
0
 10
143.527
 20
16.5
 11
143.827
 21
16.9284
  0
LINE
  8
0
 10
143.827
 20
16.9284
 11
144.197
 21
17.2981
  0
LINE
  8
0
 10
144.197
 20
17.2981
 11
144.625
 21
17.5981
  0
LINE
  8
0
 10
144.625
 20
17.5981
 11
145.099
 21
17.8191
  0
LINE
  8
0
 10
145.099
 20
17.8191
 11
145.604
 21
17.9544
  0
LINE
  8
0
 10
145.604
 20
17.9544
 11
146.125
 21
18
  0
LINE
  8
0
 10
146.125
 20
18
 11
230.125
 21
18
  0
LINE
  8
0
 10
230.125
 20
18
 11
230.646
 21
17.9544
  0
LINE
  8
0
 10
230.646
 20
17.9544
 11
231.151
 21
17.8191
  0
LINE
  8
0
 10
231.151
 20
17.8191
 11
231.625
 21
17.5981
  0
LINE
  8
0
 10
231.625
 20
17.5981
 11
232.053
 21
17.2981
  0
LINE
  8
0
 10
232.053
 20
17.2981
 11
232.423
 21
16.9284
  0
LINE
  8
0
 10
232.423
 20
16.9284
 11
232.723
 21
16.5
  0
LINE
  8
0
 10
232.723
 20
16.5
 11
232.944
 21
16.026
  0
LINE
  8
0
 10
232.944
 20
16.026
 11
233.079
 21
15.5209
  0
LINE
  8
0
 10
233.079
 20
15.5209
 11
233.125
 21
15
  0
LINE
  8
0
 10
233.125
 20
15
 11
233.079
 21
14.4791
  0
LINE
  8
0
 10
233.079
 20
14.4791
 11
232.944
 21
13.974
  0
LINE
  8
0
 10
232.944
 20
13.974
 11
232.723
 21
13.5
  0
LINE
  8
0
 10
232.723
 20
13.5
 11
232.423
 21
13.0716
  0
LINE
  8
0
 10
232.423
 20
13.0716
 11
232.053
 21
12.7019
  0
LINE
  8
0
 10
232.053
 20
12.7019
 11
231.625
 21
12.4019
  0
LINE
  8
0
 10
231.625
 20
12.4019
 11
231.151
 21
12.1809
  0
LINE
  8
0
 10
231.151
 20
12.1809
 11
230.646
 21
12.0456
  0
LINE
  8
0
 10
230.646
 20
12.0456
 11
230.125
 21
12
  0
LINE
  8
0
 10
230.125
 20
12
 11
146.125
 21
12
  0
LINE
  8
0
 10
287.802
 20
-1.47614
 11
287.576
 21
-1.49487
  0
LINE
  8
0
 10
287.576
 20
-1.49487
 11
287.502
 21
-1.47614
  0
LINE
  8
0
 10
287.502
 20
-1.47614
 11
287.276
 21
-1.49487
  0
LINE
  8
0
 10
287.276
 20
-1.49487
 11
287.202
 21
-1.47614
  0
LINE
  8
0
 10
287.202
 20
-1.47614
 11
286.976
 21
-1.49487
  0
LINE
  8
0
 10
286.976
 20
-1.49487
 11
286.902
 21
-1.47614
  0
LINE
  8
0
 10
286.902
 20
-1.47614
 11
286.676
 21
-1.49487
  0
LINE
  8
0
 10
286.676
 20
-1.49487
 11
286.602
 21
-1.47614
  0
LINE
  8
0
 10
286.602
 20
-1.47614
 11
286.376
 21
-1.49487
  0
LINE
  8
0
 10
286.376
 20
-1.49487
 11
286.302
 21
-1.47614
  0
LINE
  8
0
 10
286.302
 20
-1.47614
 11
286.076
 21
-1.49487
  0
LINE
  8
0
 10
286.076
 20
-1.49487
 11
286.002
 21
-1.47614
  0
LINE
  8
0
 10
286.002
 20
-1.47614
 11
285.776
 21
-1.49487
  0
LINE
  8
0
 10
285.776
 20
-1.49487
 11
285.702
 21
-1.47614
  0
LINE
  8
0
 10
285.702
 20
-1.47614
 11
285.476
 21
-1.49487
  0
LINE
  8
0
 10
285.476
 20
-1.49487
 11
285.402
 21
-1.47614
  0
LINE
  8
0
 10
285.402
 20
-1.47614
 11
285.176
 21
-1.49487
  0
LINE
  8
0
 10
285.176
 20
-1.49487
 11
285.102
 21
-1.47614
  0
LINE
  8
0
 10
285.102
 20
-1.47614
 11
284.876
 21
-1.49487
  0
LINE
  8
0
 10
284.876
 20
-1.49487
 11
284.802
 21
-1.47614
  0
LINE
  8
0
 10
284.802
 20
-1.47614
 11
284.576
 21
-1.49487
  0
LINE
  8
0
 10
284.576
 20
-1.49487
 11
284.502
 21
-1.47614
  0
LINE
  8
0
 10
284.502
 20
-1.47614
 11
284.276
 21
-1.49487
  0
LINE
  8
0
 10
284.276
 20
-1.49487
 11
284.202
 21
-1.47614
  0
LINE
  8
0
 10
284.202
 20
-1.47614
 11
283.976
 21
-1.49487
  0
LINE
  8
0
 10
283.976
 20
-1.49487
 11
283.902
 21
-1.47614
  0
LINE
  8
0
 10
283.902
 20
-1.47614
 11
283.676
 21
-1.49487
  0
LINE
  8
0
 10
283.676
 20
-1.49487
 11
283.602
 21
-1.47614
  0
LINE
  8
0
 10
283.602
 20
-1.47614
 11
283.376
 21
-1.49487
  0
LINE
  8
0
 10
283.376
 20
-1.49487
 11
283.302
 21
-1.47614
  0
LINE
  8
0
 10
283.302
 20
-1.47614
 11
283.076
 21
-1.49487
  0
LINE
  8
0
 10
283.076
 20
-1.49487
 11
283.002
 21
-1.47614
  0
LINE
  8
0
 10
283.002
 20
-1.47614
 11
282.776
 21
-1.49487
  0
LINE
  8
0
 10
282.776
 20
-1.49487
 11
282.702
 21
-1.47614
  0
LINE
  8
0
 10
282.702
 20
-1.47614
 11
282.476
 21
-1.49487
  0
LINE
  8
0
 10
282.476
 20
-1.49487
 11
282.402
 21
-1.47614
  0
LINE
  8
0
 10
282.402
 20
-1.47614
 11
282.176
 21
-1.49487
  0
LINE
  8
0
 10
282.176
 20
-1.49487
 11
282.102
 21
-1.47614
  0
LINE
  8
0
 10
282.102
 20
-1.47614
 11
281.876
 21
-1.49487
  0
LINE
  8
0
 10
281.876
 20
-1.49487
 11
281.397
 21
-1.37366
  0
LINE
  8
0
 10
281.397
 20
-1.37366
 11
280.984
 21
-1.10358
  0
LINE
  8
0
 10
280.984
 20
-1.10358
 11
280.681
 21
-0.713913
  0
LINE
  8
0
 10
280.681
 20
-0.713913
 11
280.52
 21
-0.246887
  0
LINE
  8
0
 10
280.52
 20
-0.246887
 11
280.52
 21
0.246887
  0
LINE
  8
0
 10
280.52
 20
0.246887
 11
280.681
 21
0.713913
  0
LINE
  8
0
 10
280.681
 20
0.713913
 11
280.984
 21
1.10358
  0
LINE
  8
0
 10
280.984
 20
1.10358
 11
281.397
 21
1.37366
  0
LINE
  8
0
 10
281.397
 20
1.37366
 11
281.876
 21
1.49487
  0
LINE
  8
0
 10
281.876
 20
1.49487
 11
282.102
 21
1.47614
  0
LINE
  8
0
 10
282.102
 20
1.47614
 11
282.176
 21
1.49487
  0
LINE
  8
0
 10
282.176
 20
1.49487
 11
282.402
 21
1.47614
  0
LINE
  8
0
 10
282.402
 20
1.47614
 11
282.476
 21
1.49487
  0
LINE
  8
0
 10
282.476
 20
1.49487
 11
282.702
 21
1.47614
  0
LINE
  8
0
 10
282.702
 20
1.47614
 11
282.776
 21
1.49487
  0
LINE
  8
0
 10
282.776
 20
1.49487
 11
283.002
 21
1.47614
  0
LINE
  8
0
 10
283.002
 20
1.47614
 11
283.076
 21
1.49487
  0
LINE
  8
0
 10
283.076
 20
1.49487
 11
283.302
 21
1.47614
  0
LINE
  8
0
 10
283.302
 20
1.47614
 11
283.376
 21
1.49487
  0
LINE
  8
0
 10
283.376
 20
1.49487
 11
283.602
 21
1.47614
  0
LINE
  8
0
 10
283.602
 20
1.47614
 11
283.676
 21
1.49487
  0
LINE
  8
0
 10
283.676
 20
1.49487
 11
283.902
 21
1.47614
  0
LINE
  8
0
 10
283.902
 20
1.47614
 11
283.976
 21
1.49487
  0
LINE
  8
0
 10
283.976
 20
1.49487
 11
284.202
 21
1.47614
  0
LINE
  8
0
 10
284.202
 20
1.47614
 11
284.276
 21
1.49487
  0
LINE
  8
0
 10
284.276
 20
1.49487
 11
284.502
 21
1.47614
  0
LINE
  8
0
 10
284.502
 20
1.47614
 11
284.576
 21
1.49487
  0
LINE
  8
0
 10
284.576
 20
1.49487
 11
284.802
 21
1.47614
  0
LINE
  8
0
 10
284.802
 20
1.47614
 11
284.876
 21
1.49487
  0
LINE
  8
0
 10
284.876
 20
1.49487
 11
285.102
 21
1.47614
  0
LINE
  8
0
 10
285.102
 20
1.47614
 11
285.176
 21
1.49487
  0
LINE
  8
0
 10
285.176
 20
1.49487
 11
285.402
 21
1.47614
  0
LINE
  8
0
 10
285.402
 20
1.47614
 11
285.476
 21
1.49487
  0
LINE
  8
0
 10
285.476
 20
1.49487
 11
285.702
 21
1.47614
  0
LINE
  8
0
 10
285.702
 20
1.47614
 11
285.776
 21
1.49487
  0
LINE
  8
0
 10
285.776
 20
1.49487
 11
286.002
 21
1.47614
  0
LINE
  8
0
 10
286.002
 20
1.47614
 11
286.076
 21
1.49487
  0
LINE
  8
0
 10
286.076
 20
1.49487
 11
286.302
 21
1.47614
  0
LINE
  8
0
 10
286.302
 20
1.47614
 11
286.376
 21
1.49487
  0
LINE
  8
0
 10
286.376
 20
1.49487
 11
286.602
 21
1.47614
  0
LINE
  8
0
 10
286.602
 20
1.47614
 11
286.676
 21
1.49487
  0
LINE
  8
0
 10
286.676
 20
1.49487
 11
286.902
 21
1.47614
  0
LINE
  8
0
 10
286.902
 20
1.47614
 11
286.976
 21
1.49487
  0
LINE
  8
0
 10
286.976
 20
1.49487
 11
287.202
 21
1.47614
  0
LINE
  8
0
 10
287.202
 20
1.47614
 11
287.276
 21
1.49487
  0
LINE
  8
0
 10
287.276
 20
1.49487
 11
287.502
 21
1.47614
  0
LINE
  8
0
 10
287.502
 20
1.47614
 11
287.576
 21
1.49487
  0
LINE
  8
0
 10
287.576
 20
1.49487
 11
287.802
 21
1.47614
  0
LINE
  8
0
 10
287.802
 20
1.47614
 11
287.876
 21
1.49487
  0
LINE
  8
0
 10
287.876
 20
1.49487
 11
288.368
 21
1.45409
  0
LINE
  8
0
 10
288.368
 20
1.45409
 11
288.82
 21
1.25574
  0
LINE
  8
0
 10
288.82
 20
1.25574
 11
289.184
 21
0.92131
  0
LINE
  8
0
 10
289.184
 20
0.92131
 11
289.419
 21
0.487045
  0
LINE
  8
0
 10
289.419
 20
0.487045
 11
289.5
 21
0
  0
LINE
  8
0
 10
289.5
 20
0
 11
289.419
 21
-0.487045
  0
LINE
  8
0
 10
289.419
 20
-0.487045
 11
289.184
 21
-0.92131
  0
LINE
  8
0
 10
289.184
 20
-0.92131
 11
288.82
 21
-1.25574
  0
LINE
  8
0
 10
288.82
 20
-1.25574
 11
288.368
 21
-1.45409
  0
LINE
  8
0
 10
288.368
 20
-1.45409
 11
287.876
 21
-1.49487
  0
LINE
  8
0
 10
287.876
 20
-1.49487
 11
287.802
 21
-1.47614
  0
LINE
  8
0
 10
197.802
 20
-1.47614
 11
197.576
 21
-1.49487
  0
LINE
  8
0
 10
197.576
 20
-1.49487
 11
197.502
 21
-1.47614
  0
LINE
  8
0
 10
197.502
 20
-1.47614
 11
197.276
 21
-1.49487
  0
LINE
  8
0
 10
197.276
 20
-1.49487
 11
197.202
 21
-1.47614
  0
LINE
  8
0
 10
197.202
 20
-1.47614
 11
196.976
 21
-1.49487
  0
LINE
  8
0
 10
196.976
 20
-1.49487
 11
196.902
 21
-1.47614
  0
LINE
  8
0
 10
196.902
 20
-1.47614
 11
196.676
 21
-1.49487
  0
LINE
  8
0
 10
196.676
 20
-1.49487
 11
196.602
 21
-1.47614
  0
LINE
  8
0
 10
196.602
 20
-1.47614
 11
196.376
 21
-1.49487
  0
LINE
  8
0
 10
196.376
 20
-1.49487
 11
196.302
 21
-1.47614
  0
LINE
  8
0
 10
196.302
 20
-1.47614
 11
196.076
 21
-1.49487
  0
LINE
  8
0
 10
196.076
 20
-1.49487
 11
196.002
 21
-1.47614
  0
LINE
  8
0
 10
196.002
 20
-1.47614
 11
195.776
 21
-1.49487
  0
LINE
  8
0
 10
195.776
 20
-1.49487
 11
195.702
 21
-1.47614
  0
LINE
  8
0
 10
195.702
 20
-1.47614
 11
195.476
 21
-1.49487
  0
LINE
  8
0
 10
195.476
 20
-1.49487
 11
195.402
 21
-1.47614
  0
LINE
  8
0
 10
195.402
 20
-1.47614
 11
195.176
 21
-1.49487
  0
LINE
  8
0
 10
195.176
 20
-1.49487
 11
195.102
 21
-1.47614
  0
LINE
  8
0
 10
195.102
 20
-1.47614
 11
194.876
 21
-1.49487
  0
LINE
  8
0
 10
194.876
 20
-1.49487
 11
194.802
 21
-1.47614
  0
LINE
  8
0
 10
194.802
 20
-1.47614
 11
194.576
 21
-1.49487
  0
LINE
  8
0
 10
194.576
 20
-1.49487
 11
194.502
 21
-1.47614
  0
LINE
  8
0
 10
194.502
 20
-1.47614
 11
194.276
 21
-1.49487
  0
LINE
  8
0
 10
194.276
 20
-1.49487
 11
194.202
 21
-1.47614
  0
LINE
  8
0
 10
194.202
 20
-1.47614
 11
193.976
 21
-1.49487
  0
LINE
  8
0
 10
193.976
 20
-1.49487
 11
193.902
 21
-1.47614
  0
LINE
  8
0
 10
193.902
 20
-1.47614
 11
193.676
 21
-1.49487
  0
LINE
  8
0
 10
193.676
 20
-1.49487
 11
193.602
 21
-1.47614
  0
LINE
  8
0
 10
193.602
 20
-1.47614
 11
193.376
 21
-1.49487
  0
LINE
  8
0
 10
193.376
 20
-1.49487
 11
193.302
 21
-1.47614
  0
LINE
  8
0
 10
193.302
 20
-1.47614
 11
193.076
 21
-1.49487
  0
LINE
  8
0
 10
193.076
 20
-1.49487
 11
193.002
 21
-1.47614
  0
LINE
  8
0
 10
193.002
 20
-1.47614
 11
192.776
 21
-1.49487
  0
LINE
  8
0
 10
192.776
 20
-1.49487
 11
192.702
 21
-1.47614
  0
LINE
  8
0
 10
192.702
 20
-1.47614
 11
192.476
 21
-1.49487
  0
LINE
  8
0
 10
192.476
 20
-1.49487
 11
192.402
 21
-1.47614
  0
LINE
  8
0
 10
192.402
 20
-1.47614
 11
192.176
 21
-1.49487
  0
LINE
  8
0
 10
192.176
 20
-1.49487
 11
192.102
 21
-1.47614
  0
LINE
  8
0
 10
192.102
 20
-1.47614
 11
191.876
 21
-1.49487
  0
LINE
  8
0
 10
191.876
 20
-1.49487
 11
191.397
 21
-1.37366
  0
LINE
  8
0
 10
191.397
 20
-1.37366
 11
190.984
 21
-1.10358
  0
LINE
  8
0
 10
190.984
 20
-1.10358
 11
190.681
 21
-0.713913
  0
LINE
  8
0
 10
190.681
 20
-0.713913
 11
190.52
 21
-0.246887
  0
LINE
  8
0
 10
190.52
 20
-0.246887
 11
190.52
 21
0.246887
  0
LINE
  8
0
 10
190.52
 20
0.246887
 11
190.681
 21
0.713913
  0
LINE
  8
0
 10
190.681
 20
0.713913
 11
190.984
 21
1.10358
  0
LINE
  8
0
 10
190.984
 20
1.10358
 11
191.397
 21
1.37366
  0
LINE
  8
0
 10
191.397
 20
1.37366
 11
191.876
 21
1.49487
  0
LINE
  8
0
 10
191.876
 20
1.49487
 11
192.102
 21
1.47614
  0
LINE
  8
0
 10
192.102
 20
1.47614
 11
192.176
 21
1.49487
  0
LINE
  8
0
 10
192.176
 20
1.49487
 11
192.402
 21
1.47614
  0
LINE
  8
0
 10
192.402
 20
1.47614
 11
192.476
 21
1.49487
  0
LINE
  8
0
 10
192.476
 20
1.49487
 11
192.702
 21
1.47614
  0
LINE
  8
0
 10
192.702
 20
1.47614
 11
192.776
 21
1.49487
  0
LINE
  8
0
 10
192.776
 20
1.49487
 11
193.002
 21
1.47614
  0
LINE
  8
0
 10
193.002
 20
1.47614
 11
193.076
 21
1.49487
  0
LINE
  8
0
 10
193.076
 20
1.49487
 11
193.302
 21
1.47614
  0
LINE
  8
0
 10
193.302
 20
1.47614
 11
193.376
 21
1.49487
  0
LINE
  8
0
 10
193.376
 20
1.49487
 11
193.602
 21
1.47614
  0
LINE
  8
0
 10
193.602
 20
1.47614
 11
193.676
 21
1.49487
  0
LINE
  8
0
 10
193.676
 20
1.49487
 11
193.902
 21
1.47614
  0
LINE
  8
0
 10
193.902
 20
1.47614
 11
193.976
 21
1.49487
  0
LINE
  8
0
 10
193.976
 20
1.49487
 11
194.202
 21
1.47614
  0
LINE
  8
0
 10
194.202
 20
1.47614
 11
194.276
 21
1.49487
  0
LINE
  8
0
 10
194.276
 20
1.49487
 11
194.502
 21
1.47614
  0
LINE
  8
0
 10
194.502
 20
1.47614
 11
194.576
 21
1.49487
  0
LINE
  8
0
 10
194.576
 20
1.49487
 11
194.802
 21
1.47614
  0
LINE
  8
0
 10
194.802
 20
1.47614
 11
194.876
 21
1.49487
  0
LINE
  8
0
 10
194.876
 20
1.49487
 11
195.102
 21
1.47614
  0
LINE
  8
0
 10
195.102
 20
1.47614
 11
195.176
 21
1.49487
  0
LINE
  8
0
 10
195.176
 20
1.49487
 11
195.402
 21
1.47614
  0
LINE
  8
0
 10
195.402
 20
1.47614
 11
195.476
 21
1.49487
  0
LINE
  8
0
 10
195.476
 20
1.49487
 11
195.702
 21
1.47614
  0
LINE
  8
0
 10
195.702
 20
1.47614
 11
195.776
 21
1.49487
  0
LINE
  8
0
 10
195.776
 20
1.49487
 11
196.002
 21
1.47614
  0
LINE
  8
0
 10
196.002
 20
1.47614
 11
196.076
 21
1.49487
  0
LINE
  8
0
 10
196.076
 20
1.49487
 11
196.302
 21
1.47614
  0
LINE
  8
0
 10
196.302
 20
1.47614
 11
196.376
 21
1.49487
  0
LINE
  8
0
 10
196.376
 20
1.49487
 11
196.602
 21
1.47614
  0
LINE
  8
0
 10
196.602
 20
1.47614
 11
196.676
 21
1.49487
  0
LINE
  8
0
 10
196.676
 20
1.49487
 11
196.902
 21
1.47614
  0
LINE
  8
0
 10
196.902
 20
1.47614
 11
196.976
 21
1.49487
  0
LINE
  8
0
 10
196.976
 20
1.49487
 11
197.202
 21
1.47614
  0
LINE
  8
0
 10
197.202
 20
1.47614
 11
197.276
 21
1.49487
  0
LINE
  8
0
 10
197.276
 20
1.49487
 11
197.502
 21
1.47614
  0
LINE
  8
0
 10
197.502
 20
1.47614
 11
197.576
 21
1.49487
  0
LINE
  8
0
 10
197.576
 20
1.49487
 11
197.802
 21
1.47614
  0
LINE
  8
0
 10
197.802
 20
1.47614
 11
197.876
 21
1.49487
  0
LINE
  8
0
 10
197.876
 20
1.49487
 11
198.368
 21
1.45409
  0
LINE
  8
0
 10
198.368
 20
1.45409
 11
198.82
 21
1.25574
  0
LINE
  8
0
 10
198.82
 20
1.25574
 11
199.184
 21
0.92131
  0
LINE
  8
0
 10
199.184
 20
0.92131
 11
199.419
 21
0.487045
  0
LINE
  8
0
 10
199.419
 20
0.487045
 11
199.5
 21
0
  0
LINE
  8
0
 10
199.5
 20
0
 11
199.419
 21
-0.487045
  0
LINE
  8
0
 10
199.419
 20
-0.487045
 11
199.184
 21
-0.92131
  0
LINE
  8
0
 10
199.184
 20
-0.92131
 11
198.82
 21
-1.25574
  0
LINE
  8
0
 10
198.82
 20
-1.25574
 11
198.368
 21
-1.45409
  0
LINE
  8
0
 10
198.368
 20
-1.45409
 11
197.876
 21
-1.49487
  0
LINE
  8
0
 10
197.876
 20
-1.49487
 11
197.802
 21
-1.47614
  0
LINE
  8
0
 10
352.802
 20
-1.47614
 11
352.576
 21
-1.49487
  0
LINE
  8
0
 10
352.576
 20
-1.49487
 11
352.502
 21
-1.47614
  0
LINE
  8
0
 10
352.502
 20
-1.47614
 11
352.276
 21
-1.49487
  0
LINE
  8
0
 10
352.276
 20
-1.49487
 11
352.202
 21
-1.47614
  0
LINE
  8
0
 10
352.202
 20
-1.47614
 11
351.976
 21
-1.49487
  0
LINE
  8
0
 10
351.976
 20
-1.49487
 11
351.902
 21
-1.47614
  0
LINE
  8
0
 10
351.902
 20
-1.47614
 11
351.676
 21
-1.49487
  0
LINE
  8
0
 10
351.676
 20
-1.49487
 11
351.602
 21
-1.47614
  0
LINE
  8
0
 10
351.602
 20
-1.47614
 11
351.376
 21
-1.49487
  0
LINE
  8
0
 10
351.376
 20
-1.49487
 11
351.302
 21
-1.47614
  0
LINE
  8
0
 10
351.302
 20
-1.47614
 11
351.076
 21
-1.49487
  0
LINE
  8
0
 10
351.076
 20
-1.49487
 11
351.002
 21
-1.47614
  0
LINE
  8
0
 10
351.002
 20
-1.47614
 11
350.776
 21
-1.49487
  0
LINE
  8
0
 10
350.776
 20
-1.49487
 11
350.702
 21
-1.47614
  0
LINE
  8
0
 10
350.702
 20
-1.47614
 11
350.476
 21
-1.49487
  0
LINE
  8
0
 10
350.476
 20
-1.49487
 11
350.402
 21
-1.47614
  0
LINE
  8
0
 10
350.402
 20
-1.47614
 11
350.176
 21
-1.49487
  0
LINE
  8
0
 10
350.176
 20
-1.49487
 11
350.102
 21
-1.47614
  0
LINE
  8
0
 10
350.102
 20
-1.47614
 11
349.876
 21
-1.49487
  0
LINE
  8
0
 10
349.876
 20
-1.49487
 11
349.802
 21
-1.47614
  0
LINE
  8
0
 10
349.802
 20
-1.47614
 11
349.576
 21
-1.49487
  0
LINE
  8
0
 10
349.576
 20
-1.49487
 11
349.502
 21
-1.47614
  0
LINE
  8
0
 10
349.502
 20
-1.47614
 11
349.276
 21
-1.49487
  0
LINE
  8
0
 10
349.276
 20
-1.49487
 11
349.202
 21
-1.47614
  0
LINE
  8
0
 10
349.202
 20
-1.47614
 11
348.976
 21
-1.49487
  0
LINE
  8
0
 10
348.976
 20
-1.49487
 11
348.902
 21
-1.47614
  0
LINE
  8
0
 10
348.902
 20
-1.47614
 11
348.676
 21
-1.49487
  0
LINE
  8
0
 10
348.676
 20
-1.49487
 11
348.602
 21
-1.47614
  0
LINE
  8
0
 10
348.602
 20
-1.47614
 11
348.376
 21
-1.49487
  0
LINE
  8
0
 10
348.376
 20
-1.49487
 11
348.302
 21
-1.47614
  0
LINE
  8
0
 10
348.302
 20
-1.47614
 11
348.076
 21
-1.49487
  0
LINE
  8
0
 10
348.076
 20
-1.49487
 11
348.002
 21
-1.47614
  0
LINE
  8
0
 10
348.002
 20
-1.47614
 11
347.776
 21
-1.49487
  0
LINE
  8
0
 10
347.776
 20
-1.49487
 11
347.702
 21
-1.47614
  0
LINE
  8
0
 10
347.702
 20
-1.47614
 11
347.476
 21
-1.49487
  0
LINE
  8
0
 10
347.476
 20
-1.49487
 11
347.402
 21
-1.47614
  0
LINE
  8
0
 10
347.402
 20
-1.47614
 11
347.176
 21
-1.49487
  0
LINE
  8
0
 10
347.176
 20
-1.49487
 11
347.102
 21
-1.47614
  0
LINE
  8
0
 10
347.102
 20
-1.47614
 11
346.876
 21
-1.49487
  0
LINE
  8
0
 10
346.876
 20
-1.49487
 11
346.397
 21
-1.37366
  0
LINE
  8
0
 10
346.397
 20
-1.37366
 11
345.984
 21
-1.10358
  0
LINE
  8
0
 10
345.984
 20
-1.10358
 11
345.681
 21
-0.713913
  0
LINE
  8
0
 10
345.681
 20
-0.713913
 11
345.52
 21
-0.246887
  0
LINE
  8
0
 10
345.52
 20
-0.246887
 11
345.52
 21
0.246887
  0
LINE
  8
0
 10
345.52
 20
0.246887
 11
345.681
 21
0.713913
  0
LINE
  8
0
 10
345.681
 20
0.713913
 11
345.984
 21
1.10358
  0
LINE
  8
0
 10
345.984
 20
1.10358
 11
346.397
 21
1.37366
  0
LINE
  8
0
 10
346.397
 20
1.37366
 11
346.876
 21
1.49487
  0
LINE
  8
0
 10
346.876
 20
1.49487
 11
347.102
 21
1.47614
  0
LINE
  8
0
 10
347.102
 20
1.47614
 11
347.176
 21
1.49487
  0
LINE
  8
0
 10
347.176
 20
1.49487
 11
347.402
 21
1.47614
  0
LINE
  8
0
 10
347.402
 20
1.47614
 11
347.476
 21
1.49487
  0
LINE
  8
0
 10
347.476
 20
1.49487
 11
347.702
 21
1.47614
  0
LINE
  8
0
 10
347.702
 20
1.47614
 11
347.776
 21
1.49487
  0
LINE
  8
0
 10
347.776
 20
1.49487
 11
348.002
 21
1.47614
  0
LINE
  8
0
 10
348.002
 20
1.47614
 11
348.076
 21
1.49487
  0
LINE
  8
0
 10
348.076
 20
1.49487
 11
348.302
 21
1.47614
  0
LINE
  8
0
 10
348.302
 20
1.47614
 11
348.376
 21
1.49487
  0
LINE
  8
0
 10
348.376
 20
1.49487
 11
348.602
 21
1.47614
  0
LINE
  8
0
 10
348.602
 20
1.47614
 11
348.676
 21
1.49487
  0
LINE
  8
0
 10
348.676
 20
1.49487
 11
348.902
 21
1.47614
  0
LINE
  8
0
 10
348.902
 20
1.47614
 11
348.976
 21
1.49487
  0
LINE
  8
0
 10
348.976
 20
1.49487
 11
349.202
 21
1.47614
  0
LINE
  8
0
 10
349.202
 20
1.47614
 11
349.276
 21
1.49487
  0
LINE
  8
0
 10
349.276
 20
1.49487
 11
349.502
 21
1.47614
  0
LINE
  8
0
 10
349.502
 20
1.47614
 11
349.576
 21
1.49487
  0
LINE
  8
0
 10
349.576
 20
1.49487
 11
349.802
 21
1.47614
  0
LINE
  8
0
 10
349.802
 20
1.47614
 11
349.876
 21
1.49487
  0
LINE
  8
0
 10
349.876
 20
1.49487
 11
350.102
 21
1.47614
  0
LINE
  8
0
 10
350.102
 20
1.47614
 11
350.176
 21
1.49487
  0
LINE
  8
0
 10
350.176
 20
1.49487
 11
350.402
 21
1.47614
  0
LINE
  8
0
 10
350.402
 20
1.47614
 11
350.476
 21
1.49487
  0
LINE
  8
0
 10
350.476
 20
1.49487
 11
350.702
 21
1.47614
  0
LINE
  8
0
 10
350.702
 20
1.47614
 11
350.776
 21
1.49487
  0
LINE
  8
0
 10
350.776
 20
1.49487
 11
351.002
 21
1.47614
  0
LINE
  8
0
 10
351.002
 20
1.47614
 11
351.076
 21
1.49487
  0
LINE
  8
0
 10
351.076
 20
1.49487
 11
351.302
 21
1.47614
  0
LINE
  8
0
 10
351.302
 20
1.47614
 11
351.376
 21
1.49487
  0
LINE
  8
0
 10
351.376
 20
1.49487
 11
351.602
 21
1.47614
  0
LINE
  8
0
 10
351.602
 20
1.47614
 11
351.676
 21
1.49487
  0
LINE
  8
0
 10
351.676
 20
1.49487
 11
351.902
 21
1.47614
  0
LINE
  8
0
 10
351.902
 20
1.47614
 11
351.976
 21
1.49487
  0
LINE
  8
0
 10
351.976
 20
1.49487
 11
352.202
 21
1.47614
  0
LINE
  8
0
 10
352.202
 20
1.47614
 11
352.276
 21
1.49487
  0
LINE
  8
0
 10
352.276
 20
1.49487
 11
352.502
 21
1.47614
  0
LINE
  8
0
 10
352.502
 20
1.47614
 11
352.576
 21
1.49487
  0
LINE
  8
0
 10
352.576
 20
1.49487
 11
352.802
 21
1.47614
  0
LINE
  8
0
 10
352.802
 20
1.47614
 11
352.876
 21
1.49487
  0
LINE
  8
0
 10
352.876
 20
1.49487
 11
353.368
 21
1.45409
  0
LINE
  8
0
 10
353.368
 20
1.45409
 11
353.82
 21
1.25574
  0
LINE
  8
0
 10
353.82
 20
1.25574
 11
354.184
 21
0.92131
  0
LINE
  8
0
 10
354.184
 20
0.92131
 11
354.419
 21
0.487045
  0
LINE
  8
0
 10
354.419
 20
0.487045
 11
354.5
 21
0
  0
LINE
  8
0
 10
354.5
 20
0
 11
354.419
 21
-0.487045
  0
LINE
  8
0
 10
354.419
 20
-0.487045
 11
354.184
 21
-0.92131
  0
LINE
  8
0
 10
354.184
 20
-0.92131
 11
353.82
 21
-1.25574
  0
LINE
  8
0
 10
353.82
 20
-1.25574
 11
353.368
 21
-1.45409
  0
LINE
  8
0
 10
353.368
 20
-1.45409
 11
352.876
 21
-1.49487
  0
LINE
  8
0
 10
352.876
 20
-1.49487
 11
352.802
 21
-1.47614
  0
LINE
  8
0
 10
262.802
 20
-1.47614
 11
262.576
 21
-1.49487
  0
LINE
  8
0
 10
262.576
 20
-1.49487
 11
262.502
 21
-1.47614
  0
LINE
  8
0
 10
262.502
 20
-1.47614
 11
262.276
 21
-1.49487
  0
LINE
  8
0
 10
262.276
 20
-1.49487
 11
262.202
 21
-1.47614
  0
LINE
  8
0
 10
262.202
 20
-1.47614
 11
261.976
 21
-1.49487
  0
LINE
  8
0
 10
261.976
 20
-1.49487
 11
261.902
 21
-1.47614
  0
LINE
  8
0
 10
261.902
 20
-1.47614
 11
261.676
 21
-1.49487
  0
LINE
  8
0
 10
261.676
 20
-1.49487
 11
261.602
 21
-1.47614
  0
LINE
  8
0
 10
261.602
 20
-1.47614
 11
261.376
 21
-1.49487
  0
LINE
  8
0
 10
261.376
 20
-1.49487
 11
261.302
 21
-1.47614
  0
LINE
  8
0
 10
261.302
 20
-1.47614
 11
261.076
 21
-1.49487
  0
LINE
  8
0
 10
261.076
 20
-1.49487
 11
261.002
 21
-1.47614
  0
LINE
  8
0
 10
261.002
 20
-1.47614
 11
260.776
 21
-1.49487
  0
LINE
  8
0
 10
260.776
 20
-1.49487
 11
260.702
 21
-1.47614
  0
LINE
  8
0
 10
260.702
 20
-1.47614
 11
260.476
 21
-1.49487
  0
LINE
  8
0
 10
260.476
 20
-1.49487
 11
260.402
 21
-1.47614
  0
LINE
  8
0
 10
260.402
 20
-1.47614
 11
260.176
 21
-1.49487
  0
LINE
  8
0
 10
260.176
 20
-1.49487
 11
260.102
 21
-1.47614
  0
LINE
  8
0
 10
260.102
 20
-1.47614
 11
259.876
 21
-1.49487
  0
LINE
  8
0
 10
259.876
 20
-1.49487
 11
259.802
 21
-1.47614
  0
LINE
  8
0
 10
259.802
 20
-1.47614
 11
259.576
 21
-1.49487
  0
LINE
  8
0
 10
259.576
 20
-1.49487
 11
259.502
 21
-1.47614
  0
LINE
  8
0
 10
259.502
 20
-1.47614
 11
259.276
 21
-1.49487
  0
LINE
  8
0
 10
259.276
 20
-1.49487
 11
259.202
 21
-1.47614
  0
LINE
  8
0
 10
259.202
 20
-1.47614
 11
258.976
 21
-1.49487
  0
LINE
  8
0
 10
258.976
 20
-1.49487
 11
258.902
 21
-1.47614
  0
LINE
  8
0
 10
258.902
 20
-1.47614
 11
258.676
 21
-1.49487
  0
LINE
  8
0
 10
258.676
 20
-1.49487
 11
258.602
 21
-1.47614
  0
LINE
  8
0
 10
258.602
 20
-1.47614
 11
258.376
 21
-1.49487
  0
LINE
  8
0
 10
258.376
 20
-1.49487
 11
258.302
 21
-1.47614
  0
LINE
  8
0
 10
258.302
 20
-1.47614
 11
258.076
 21
-1.49487
  0
LINE
  8
0
 10
258.076
 20
-1.49487
 11
258.002
 21
-1.47614
  0
LINE
  8
0
 10
258.002
 20
-1.47614
 11
257.776
 21
-1.49487
  0
LINE
  8
0
 10
257.776
 20
-1.49487
 11
257.702
 21
-1.47614
  0
LINE
  8
0
 10
257.702
 20
-1.47614
 11
257.476
 21
-1.49487
  0
LINE
  8
0
 10
257.476
 20
-1.49487
 11
257.402
 21
-1.47614
  0
LINE
  8
0
 10
257.402
 20
-1.47614
 11
257.176
 21
-1.49487
  0
LINE
  8
0
 10
257.176
 20
-1.49487
 11
257.102
 21
-1.47614
  0
LINE
  8
0
 10
257.102
 20
-1.47614
 11
256.876
 21
-1.49487
  0
LINE
  8
0
 10
256.876
 20
-1.49487
 11
256.397
 21
-1.37366
  0
LINE
  8
0
 10
256.397
 20
-1.37366
 11
255.984
 21
-1.10358
  0
LINE
  8
0
 10
255.984
 20
-1.10358
 11
255.681
 21
-0.713913
  0
LINE
  8
0
 10
255.681
 20
-0.713913
 11
255.52
 21
-0.246887
  0
LINE
  8
0
 10
255.52
 20
-0.246887
 11
255.52
 21
0.246887
  0
LINE
  8
0
 10
255.52
 20
0.246887
 11
255.681
 21
0.713913
  0
LINE
  8
0
 10
255.681
 20
0.713913
 11
255.984
 21
1.10358
  0
LINE
  8
0
 10
255.984
 20
1.10358
 11
256.397
 21
1.37366
  0
LINE
  8
0
 10
256.397
 20
1.37366
 11
256.876
 21
1.49487
  0
LINE
  8
0
 10
256.876
 20
1.49487
 11
257.102
 21
1.47614
  0
LINE
  8
0
 10
257.102
 20
1.47614
 11
257.176
 21
1.49487
  0
LINE
  8
0
 10
257.176
 20
1.49487
 11
257.402
 21
1.47614
  0
LINE
  8
0
 10
257.402
 20
1.47614
 11
257.476
 21
1.49487
  0
LINE
  8
0
 10
257.476
 20
1.49487
 11
257.702
 21
1.47614
  0
LINE
  8
0
 10
257.702
 20
1.47614
 11
257.776
 21
1.49487
  0
LINE
  8
0
 10
257.776
 20
1.49487
 11
258.002
 21
1.47614
  0
LINE
  8
0
 10
258.002
 20
1.47614
 11
258.076
 21
1.49487
  0
LINE
  8
0
 10
258.076
 20
1.49487
 11
258.302
 21
1.47614
  0
LINE
  8
0
 10
258.302
 20
1.47614
 11
258.376
 21
1.49487
  0
LINE
  8
0
 10
258.376
 20
1.49487
 11
258.602
 21
1.47614
  0
LINE
  8
0
 10
258.602
 20
1.47614
 11
258.676
 21
1.49487
  0
LINE
  8
0
 10
258.676
 20
1.49487
 11
258.902
 21
1.47614
  0
LINE
  8
0
 10
258.902
 20
1.47614
 11
258.976
 21
1.49487
  0
LINE
  8
0
 10
258.976
 20
1.49487
 11
259.202
 21
1.47614
  0
LINE
  8
0
 10
259.202
 20
1.47614
 11
259.276
 21
1.49487
  0
LINE
  8
0
 10
259.276
 20
1.49487
 11
259.502
 21
1.47614
  0
LINE
  8
0
 10
259.502
 20
1.47614
 11
259.576
 21
1.49487
  0
LINE
  8
0
 10
259.576
 20
1.49487
 11
259.802
 21
1.47614
  0
LINE
  8
0
 10
259.802
 20
1.47614
 11
259.876
 21
1.49487
  0
LINE
  8
0
 10
259.876
 20
1.49487
 11
260.102
 21
1.47614
  0
LINE
  8
0
 10
260.102
 20
1.47614
 11
260.176
 21
1.49487
  0
LINE
  8
0
 10
260.176
 20
1.49487
 11
260.402
 21
1.47614
  0
LINE
  8
0
 10
260.402
 20
1.47614
 11
260.476
 21
1.49487
  0
LINE
  8
0
 10
260.476
 20
1.49487
 11
260.702
 21
1.47614
  0
LINE
  8
0
 10
260.702
 20
1.47614
 11
260.776
 21
1.49487
  0
LINE
  8
0
 10
260.776
 20
1.49487
 11
261.002
 21
1.47614
  0
LINE
  8
0
 10
261.002
 20
1.47614
 11
261.076
 21
1.49487
  0
LINE
  8
0
 10
261.076
 20
1.49487
 11
261.302
 21
1.47614
  0
LINE
  8
0
 10
261.302
 20
1.47614
 11
261.376
 21
1.49487
  0
LINE
  8
0
 10
261.376
 20
1.49487
 11
261.602
 21
1.47614
  0
LINE
  8
0
 10
261.602
 20
1.47614
 11
261.676
 21
1.49487
  0
LINE
  8
0
 10
261.676
 20
1.49487
 11
261.902
 21
1.47614
  0
LINE
  8
0
 10
261.902
 20
1.47614
 11
261.976
 21
1.49487
  0
LINE
  8
0
 10
261.976
 20
1.49487
 11
262.202
 21
1.47614
  0
LINE
  8
0
 10
262.202
 20
1.47614
 11
262.276
 21
1.49487
  0
LINE
  8
0
 10
262.276
 20
1.49487
 11
262.502
 21
1.47614
  0
LINE
  8
0
 10
262.502
 20
1.47614
 11
262.576
 21
1.49487
  0
LINE
  8
0
 10
262.576
 20
1.49487
 11
262.802
 21
1.47614
  0
LINE
  8
0
 10
262.802
 20
1.47614
 11
262.876
 21
1.49487
  0
LINE
  8
0
 10
262.876
 20
1.49487
 11
263.368
 21
1.45409
  0
LINE
  8
0
 10
263.368
 20
1.45409
 11
263.82
 21
1.25574
  0
LINE
  8
0
 10
263.82
 20
1.25574
 11
264.184
 21
0.92131
  0
LINE
  8
0
 10
264.184
 20
0.92131
 11
264.419
 21
0.487045
  0
LINE
  8
0
 10
264.419
 20
0.487045
 11
264.5
 21
0
  0
LINE
  8
0
 10
264.5
 20
0
 11
264.419
 21
-0.487045
  0
LINE
  8
0
 10
264.419
 20
-0.487045
 11
264.184
 21
-0.92131
  0
LINE
  8
0
 10
264.184
 20
-0.92131
 11
263.82
 21
-1.25574
  0
LINE
  8
0
 10
263.82
 20
-1.25574
 11
263.368
 21
-1.45409
  0
LINE
  8
0
 10
263.368
 20
-1.45409
 11
262.876
 21
-1.49487
  0
LINE
  8
0
 10
262.876
 20
-1.49487
 11
262.802
 21
-1.47614
  0
ENDSEC
  0
SECTION
  2
OBJECTS
  0
DICTIONARY
  0
ENDSEC
  0
EOF
