  0
SECTION
  2
BLOCKS
  0
ENDSEC
  0
SECTION
  2
ENTITIES
  0
LINE
  8
0
 10
524.523
 20
-9.97716
 11
525.042
 21
-9.90884
  0
LINE
  8
0
 10
525.042
 20
-9.90884
 11
525.553
 21
-9.79555
  0
LINE
  8
0
 10
525.553
 20
-9.79555
 11
526.052
 21
-9.63815
  0
LINE
  8
0
 10
526.052
 20
-9.63815
 11
526.536
 21
-9.43784
  0
LINE
  8
0
 10
526.536
 20
-9.43784
 11
527
 21
-9.19615
  0
LINE
  8
0
 10
527
 20
-9.19615
 11
527.441
 21
-8.9149
  0
LINE
  8
0
 10
527.441
 20
-8.9149
 11
527.857
 21
-8.59625
  0
LINE
  8
0
 10
527.857
 20
-8.59625
 11
528.243
 21
-8.24263
  0
LINE
  8
0
 10
528.243
 20
-8.24263
 11
528.596
 21
-7.85672
  0
LINE
  8
0
 10
528.596
 20
-7.85672
 11
528.915
 21
-7.44145
  0
LINE
  8
0
 10
528.915
 20
-7.44145
 11
529.196
 21
-7
  0
LINE
  8
0
 10
529.196
 20
-7
 11
529.438
 21
-6.53571
  0
LINE
  8
0
 10
529.438
 20
-6.53571
 11
529.638
 21
-6.05211
  0
LINE
  8
0
 10
529.638
 20
-6.05211
 11
529.796
 21
-5.5529
  0
LINE
  8
0
 10
529.796
 20
-5.5529
 11
529.909
 21
-5.04189
  0
LINE
  8
0
 10
529.909
 20
-5.04189
 11
529.977
 21
-4.52293
  0
LINE
  8
0
 10
529.977
 20
-4.52293
 11
530
 21
-4
  0
LINE
  8
0
 10
530
 20
-4
 11
530
 21
12.0102
  0
LINE
  8
0
 10
530
 20
12.0102
 11
514.752
 21
12.0102
  0
LINE
  8
0
 10
514.752
 20
12.0102
 11
514.264
 21
12.0918
  0
LINE
  8
0
 10
514.264
 20
12.0918
 11
513.795
 21
12.2527
  0
LINE
  8
0
 10
513.795
 20
12.2527
 11
513.359
 21
12.4885
  0
LINE
  8
0
 10
513.359
 20
12.4885
 11
512.968
 21
12.7928
  0
LINE
  8
0
 10
512.968
 20
12.7928
 11
512.633
 21
13.1573
  0
LINE
  8
0
 10
512.633
 20
13.1573
 11
512.362
 21
13.5721
  0
LINE
  8
0
 10
512.362
 20
13.5721
 11
512.163
 21
14.0259
  0
LINE
  8
0
 10
512.163
 20
14.0259
 11
512.041
 21
14.5062
  0
LINE
  8
0
 10
512.041
 20
14.5062
 11
512
 21
15
  0
LINE
  8
0
 10
512
 20
15
 11
512.041
 21
15.4938
  0
LINE
  8
0
 10
512.041
 20
15.4938
 11
512.163
 21
15.9741
  0
LINE
  8
0
 10
512.163
 20
15.9741
 11
512.362
 21
16.4278
  0
LINE
  8
0
 10
512.362
 20
16.4278
 11
512.633
 21
16.8426
  0
LINE
  8
0
 10
512.633
 20
16.8426
 11
512.968
 21
17.2072
  0
LINE
  8
0
 10
512.968
 20
17.2072
 11
513.359
 21
17.5115
  0
LINE
  8
0
 10
513.359
 20
17.5115
 11
513.795
 21
17.7473
  0
LINE
  8
0
 10
513.795
 20
17.7473
 11
514.264
 21
17.9082
  0
LINE
  8
0
 10
514.264
 20
17.9082
 11
514.752
 21
17.9897
  0
LINE
  8
0
 10
514.752
 20
17.9897
 11
530
 21
17.9897
  0
LINE
  8
0
 10
530
 20
17.9897
 11
530
 21
30
  0
LINE
  8
0
 10
530
 20
30
 11
509
 21
30
  0
LINE
  8
0
 10
509
 20
30
 11
508.478
 21
30.0342
  0
LINE
  8
0
 10
508.478
 20
30.0342
 11
507.965
 21
30.1363
  0
LINE
  8
0
 10
507.965
 20
30.1363
 11
507.469
 21
30.3045
  0
LINE
  8
0
 10
507.469
 20
30.3045
 11
507
 21
30.5359
  0
LINE
  8
0
 10
507
 20
30.5359
 11
506.565
 21
30.8266
  0
LINE
  8
0
 10
506.565
 20
30.8266
 11
506.172
 21
31.1716
  0
LINE
  8
0
 10
506.172
 20
31.1716
 11
505.827
 21
31.565
  0
LINE
  8
0
 10
505.827
 20
31.565
 11
505.536
 21
32
  0
LINE
  8
0
 10
505.536
 20
32
 11
505.304
 21
32.4693
  0
LINE
  8
0
 10
505.304
 20
32.4693
 11
505.136
 21
32.9647
  0
LINE
  8
0
 10
505.136
 20
32.9647
 11
505.034
 21
33.4779
  0
LINE
  8
0
 10
505.034
 20
33.4779
 11
505
 21
34
  0
LINE
  8
0
 10
505
 20
34
 11
505
 21
181
  0
LINE
  8
0
 10
505
 20
181
 11
505.034
 21
181.522
  0
LINE
  8
0
 10
505.034
 20
181.522
 11
505.136
 21
182.035
  0
LINE
  8
0
 10
505.136
 20
182.035
 11
505.304
 21
182.531
  0
LINE
  8
0
 10
505.304
 20
182.531
 11
505.536
 21
183
  0
LINE
  8
0
 10
505.536
 20
183
 11
505.827
 21
183.435
  0
LINE
  8
0
 10
505.827
 20
183.435
 11
506.172
 21
183.828
  0
LINE
  8
0
 10
506.172
 20
183.828
 11
506.565
 21
184.173
  0
LINE
  8
0
 10
506.565
 20
184.173
 11
507
 21
184.464
  0
LINE
  8
0
 10
507
 20
184.464
 11
507.469
 21
184.696
  0
LINE
  8
0
 10
507.469
 20
184.696
 11
507.965
 21
184.864
  0
LINE
  8
0
 10
507.965
 20
184.864
 11
508.478
 21
184.966
  0
LINE
  8
0
 10
508.478
 20
184.966
 11
509
 21
185
  0
LINE
  8
0
 10
509
 20
185
 11
530
 21
185
  0
LINE
  8
0
 10
530
 20
185
 11
530
 21
197.01
  0
LINE
  8
0
 10
530
 20
197.01
 11
514.752
 21
197.01
  0
LINE
  8
0
 10
514.752
 20
197.01
 11
514.264
 21
197.092
  0
LINE
  8
0
 10
514.264
 20
197.092
 11
513.795
 21
197.253
  0
LINE
  8
0
 10
513.795
 20
197.253
 11
513.359
 21
197.488
  0
LINE
  8
0
 10
513.359
 20
197.488
 11
512.968
 21
197.793
  0
LINE
  8
0
 10
512.968
 20
197.793
 11
512.633
 21
198.157
  0
LINE
  8
0
 10
512.633
 20
198.157
 11
512.362
 21
198.572
  0
LINE
  8
0
 10
512.362
 20
198.572
 11
512.163
 21
199.026
  0
LINE
  8
0
 10
512.163
 20
199.026
 11
512.041
 21
199.506
  0
LINE
  8
0
 10
512.041
 20
199.506
 11
512
 21
200
  0
LINE
  8
0
 10
512
 20
200
 11
512.041
 21
200.494
  0
LINE
  8
0
 10
512.041
 20
200.494
 11
512.163
 21
200.974
  0
LINE
  8
0
 10
512.163
 20
200.974
 11
512.362
 21
201.428
  0
LINE
  8
0
 10
512.362
 20
201.428
 11
512.633
 21
201.843
  0
LINE
  8
0
 10
512.633
 20
201.843
 11
512.968
 21
202.207
  0
LINE
  8
0
 10
512.968
 20
202.207
 11
513.359
 21
202.511
  0
LINE
  8
0
 10
513.359
 20
202.511
 11
513.795
 21
202.747
  0
LINE
  8
0
 10
513.795
 20
202.747
 11
514.264
 21
202.908
  0
LINE
  8
0
 10
514.264
 20
202.908
 11
514.752
 21
202.99
  0
LINE
  8
0
 10
514.752
 20
202.99
 11
530
 21
202.99
  0
LINE
  8
0
 10
530
 20
202.99
 11
530
 21
219
  0
LINE
  8
0
 10
530
 20
219
 11
529.977
 21
219.523
  0
LINE
  8
0
 10
529.977
 20
219.523
 11
529.909
 21
220.042
  0
LINE
  8
0
 10
529.909
 20
220.042
 11
529.796
 21
220.553
  0
LINE
  8
0
 10
529.796
 20
220.553
 11
529.638
 21
221.052
  0
LINE
  8
0
 10
529.638
 20
221.052
 11
529.438
 21
221.536
  0
LINE
  8
0
 10
529.438
 20
221.536
 11
529.196
 21
222
  0
LINE
  8
0
 10
529.196
 20
222
 11
528.915
 21
222.441
  0
LINE
  8
0
 10
528.915
 20
222.441
 11
528.596
 21
222.857
  0
LINE
  8
0
 10
528.596
 20
222.857
 11
528.243
 21
223.243
  0
LINE
  8
0
 10
528.243
 20
223.243
 11
527.857
 21
223.596
  0
LINE
  8
0
 10
527.857
 20
223.596
 11
527.441
 21
223.915
  0
LINE
  8
0
 10
527.441
 20
223.915
 11
527
 21
224.196
  0
LINE
  8
0
 10
527
 20
224.196
 11
526.536
 21
224.438
  0
LINE
  8
0
 10
526.536
 20
224.438
 11
526.052
 21
224.638
  0
LINE
  8
0
 10
526.052
 20
224.638
 11
525.553
 21
224.796
  0
LINE
  8
0
 10
525.553
 20
224.796
 11
525.042
 21
224.909
  0
LINE
  8
0
 10
525.042
 20
224.909
 11
524.523
 21
224.977
  0
LINE
  8
0
 10
524.523
 20
224.977
 11
524
 21
225
  0
LINE
  8
0
 10
524
 20
225
 11
6
 21
225
  0
LINE
  8
0
 10
6
 20
225
 11
5.47707
 21
224.977
  0
LINE
  8
0
 10
5.47707
 20
224.977
 11
4.95811
 21
224.909
  0
LINE
  8
0
 10
4.95811
 20
224.909
 11
4.4471
 21
224.796
  0
LINE
  8
0
 10
4.4471
 20
224.796
 11
3.94789
 21
224.638
  0
LINE
  8
0
 10
3.94789
 20
224.638
 11
3.46429
 21
224.438
  0
LINE
  8
0
 10
3.46429
 20
224.438
 11
3
 21
224.196
  0
LINE
  8
0
 10
3
 20
224.196
 11
2.55855
 21
223.915
  0
LINE
  8
0
 10
2.55855
 20
223.915
 11
2.14328
 21
223.596
  0
LINE
  8
0
 10
2.14328
 20
223.596
 11
1.75737
 21
223.243
  0
LINE
  8
0
 10
1.75737
 20
223.243
 11
1.40375
 21
222.857
  0
LINE
  8
0
 10
1.40375
 20
222.857
 11
1.0851
 21
222.441
  0
LINE
  8
0
 10
1.0851
 20
222.441
 11
0.803848
 21
222
  0
LINE
  8
0
 10
0.803848
 20
222
 11
0.562164
 21
221.536
  0
LINE
  8
0
 10
0.562164
 20
221.536
 11
0.361847
 21
221.052
  0
LINE
  8
0
 10
0.361847
 20
221.052
 11
0.204453
 21
220.553
  0
LINE
  8
0
 10
0.204453
 20
220.553
 11
0.091156
 21
220.042
  0
LINE
  8
0
 10
0.091156
 20
220.042
 11
0.0228424
 21
219.523
  0
LINE
  8
0
 10
0.0228424
 20
219.523
 11
0
 21
219
  0
LINE
  8
0
 10
0
 20
219
 11
0
 21
202.99
  0
LINE
  8
0
 10
0
 20
202.99
 11
15.2477
 21
202.99
  0
LINE
  8
0
 10
15.2477
 20
202.99
 11
15.7365
 21
202.908
  0
LINE
  8
0
 10
15.7365
 20
202.908
 11
16.2051
 21
202.747
  0
LINE
  8
0
 10
16.2051
 20
202.747
 11
16.6408
 21
202.511
  0
LINE
  8
0
 10
16.6408
 20
202.511
 11
17.0318
 21
202.207
  0
LINE
  8
0
 10
17.0318
 20
202.207
 11
17.3674
 21
201.843
  0
LINE
  8
0
 10
17.3674
 20
201.843
 11
17.6384
 21
201.428
  0
LINE
  8
0
 10
17.6384
 20
201.428
 11
17.8374
 21
200.974
  0
LINE
  8
0
 10
17.8374
 20
200.974
 11
17.9591
 21
200.494
  0
LINE
  8
0
 10
17.9591
 20
200.494
 11
18
 21
200
  0
LINE
  8
0
 10
18
 20
200
 11
17.9591
 21
199.506
  0
LINE
  8
0
 10
17.9591
 20
199.506
 11
17.8374
 21
199.026
  0
LINE
  8
0
 10
17.8374
 20
199.026
 11
17.6384
 21
198.572
  0
LINE
  8
0
 10
17.6384
 20
198.572
 11
17.3674
 21
198.157
  0
LINE
  8
0
 10
17.3674
 20
198.157
 11
17.0318
 21
197.793
  0
LINE
  8
0
 10
17.0318
 20
197.793
 11
16.6408
 21
197.488
  0
LINE
  8
0
 10
16.6408
 20
197.488
 11
16.2051
 21
197.253
  0
LINE
  8
0
 10
16.2051
 20
197.253
 11
15.7365
 21
197.092
  0
LINE
  8
0
 10
15.7365
 20
197.092
 11
15.2477
 21
197.01
  0
LINE
  8
0
 10
15.2477
 20
197.01
 11
0
 21
197.01
  0
LINE
  8
0
 10
0
 20
197.01
 11
0
 21
188
  0
LINE
  8
0
 10
0
 20
188
 11
50.3988
 21
188
  0
LINE
  8
0
 10
50.3988
 20
188
 11
50.4393
 21
188.061
  0
LINE
  8
0
 10
50.4393
 20
188.061
 11
50.926
 21
188.386
  0
LINE
  8
0
 10
50.926
 20
188.386
 11
51.5
 21
188.5
  0
LINE
  8
0
 10
51.5
 20
188.5
 11
168.5
 21
188.5
  0
LINE
  8
0
 10
168.5
 20
188.5
 11
169.074
 21
188.386
  0
LINE
  8
0
 10
169.074
 20
188.386
 11
169.561
 21
188.061
  0
LINE
  8
0
 10
169.561
 20
188.061
 11
169.886
 21
187.574
  0
LINE
  8
0
 10
169.886
 20
187.574
 11
170
 21
187
  0
LINE
  8
0
 10
170
 20
187
 11
169.886
 21
186.426
  0
LINE
  8
0
 10
169.886
 20
186.426
 11
169.561
 21
185.939
  0
LINE
  8
0
 10
169.561
 20
185.939
 11
169.074
 21
185.614
  0
LINE
  8
0
 10
169.074
 20
185.614
 11
168.5
 21
185.5
  0
LINE
  8
0
 10
168.5
 20
185.5
 11
124.706
 21
185.5
  0
LINE
  8
0
 10
124.706
 20
185.5
 11
124.864
 21
185.035
  0
LINE
  8
0
 10
124.864
 20
185.035
 11
124.966
 21
184.522
  0
LINE
  8
0
 10
124.966
 20
184.522
 11
125
 21
184
  0
LINE
  8
0
 10
125
 20
184
 11
125
 21
57.5
  0
LINE
  8
0
 10
125
 20
57.5
 11
168.5
 21
57.5
  0
LINE
  8
0
 10
168.5
 20
57.5
 11
169.074
 21
57.3858
  0
LINE
  8
0
 10
169.074
 20
57.3858
 11
169.561
 21
57.0607
  0
LINE
  8
0
 10
169.561
 20
57.0607
 11
169.886
 21
56.574
  0
LINE
  8
0
 10
169.886
 20
56.574
 11
170
 21
56
  0
LINE
  8
0
 10
170
 20
56
 11
169.886
 21
55.426
  0
LINE
  8
0
 10
169.886
 20
55.426
 11
169.561
 21
54.9393
  0
LINE
  8
0
 10
169.561
 20
54.9393
 11
169.074
 21
54.6142
  0
LINE
  8
0
 10
169.074
 20
54.6142
 11
168.5
 21
54.5
  0
LINE
  8
0
 10
168.5
 20
54.5
 11
125
 21
54.5
  0
LINE
  8
0
 10
125
 20
54.5
 11
125
 21
34
  0
LINE
  8
0
 10
125
 20
34
 11
124.966
 21
33.4779
  0
LINE
  8
0
 10
124.966
 20
33.4779
 11
124.864
 21
32.9647
  0
LINE
  8
0
 10
124.864
 20
32.9647
 11
124.696
 21
32.4693
  0
LINE
  8
0
 10
124.696
 20
32.4693
 11
124.464
 21
32
  0
LINE
  8
0
 10
124.464
 20
32
 11
124.173
 21
31.565
  0
LINE
  8
0
 10
124.173
 20
31.565
 11
123.828
 21
31.1716
  0
LINE
  8
0
 10
123.828
 20
31.1716
 11
123.435
 21
30.8266
  0
LINE
  8
0
 10
123.435
 20
30.8266
 11
123
 21
30.5359
  0
LINE
  8
0
 10
123
 20
30.5359
 11
122.531
 21
30.3045
  0
LINE
  8
0
 10
122.531
 20
30.3045
 11
122.035
 21
30.1363
  0
LINE
  8
0
 10
122.035
 20
30.1363
 11
121.522
 21
30.0342
  0
LINE
  8
0
 10
121.522
 20
30.0342
 11
121
 21
30
  0
LINE
  8
0
 10
121
 20
30
 11
0
 21
30
  0
LINE
  8
0
 10
0
 20
30
 11
0
 21
17.9897
  0
LINE
  8
0
 10
0
 20
17.9897
 11
15.2477
 21
17.9897
  0
LINE
  8
0
 10
15.2477
 20
17.9897
 11
15.7365
 21
17.9082
  0
LINE
  8
0
 10
15.7365
 20
17.9082
 11
16.2051
 21
17.7473
  0
LINE
  8
0
 10
16.2051
 20
17.7473
 11
16.6408
 21
17.5115
  0
LINE
  8
0
 10
16.6408
 20
17.5115
 11
17.0318
 21
17.2072
  0
LINE
  8
0
 10
17.0318
 20
17.2072
 11
17.3674
 21
16.8426
  0
LINE
  8
0
 10
17.3674
 20
16.8426
 11
17.6384
 21
16.4278
  0
LINE
  8
0
 10
17.6384
 20
16.4278
 11
17.8374
 21
15.9741
  0
LINE
  8
0
 10
17.8374
 20
15.9741
 11
17.9591
 21
15.4938
  0
LINE
  8
0
 10
17.9591
 20
15.4938
 11
18
 21
15
  0
LINE
  8
0
 10
18
 20
15
 11
17.9591
 21
14.5062
  0
LINE
  8
0
 10
17.9591
 20
14.5062
 11
17.8374
 21
14.0259
  0
LINE
  8
0
 10
17.8374
 20
14.0259
 11
17.6384
 21
13.5721
  0
LINE
  8
0
 10
17.6384
 20
13.5721
 11
17.3674
 21
13.1573
  0
LINE
  8
0
 10
17.3674
 20
13.1573
 11
17.0318
 21
12.7928
  0
LINE
  8
0
 10
17.0318
 20
12.7928
 11
16.6408
 21
12.4885
  0
LINE
  8
0
 10
16.6408
 20
12.4885
 11
16.2051
 21
12.2527
  0
LINE
  8
0
 10
16.2051
 20
12.2527
 11
15.7365
 21
12.0918
  0
LINE
  8
0
 10
15.7365
 20
12.0918
 11
15.2477
 21
12.0102
  0
LINE
  8
0
 10
15.2477
 20
12.0102
 11
0
 21
12.0102
  0
LINE
  8
0
 10
0
 20
12.0102
 11
0
 21
-4
  0
LINE
  8
0
 10
0
 20
-4
 11
0.0228424
 21
-4.52293
  0
LINE
  8
0
 10
0.0228424
 20
-4.52293
 11
0.091156
 21
-5.04189
  0
LINE
  8
0
 10
0.091156
 20
-5.04189
 11
0.204453
 21
-5.5529
  0
LINE
  8
0
 10
0.204453
 20
-5.5529
 11
0.361847
 21
-6.05211
  0
LINE
  8
0
 10
0.361847
 20
-6.05211
 11
0.562164
 21
-6.53571
  0
LINE
  8
0
 10
0.562164
 20
-6.53571
 11
0.803848
 21
-7
  0
LINE
  8
0
 10
0.803848
 20
-7
 11
1.0851
 21
-7.44145
  0
LINE
  8
0
 10
1.0851
 20
-7.44145
 11
1.40375
 21
-7.85672
  0
LINE
  8
0
 10
1.40375
 20
-7.85672
 11
1.75737
 21
-8.24263
  0
LINE
  8
0
 10
1.75737
 20
-8.24263
 11
2.14328
 21
-8.59625
  0
LINE
  8
0
 10
2.14328
 20
-8.59625
 11
2.55855
 21
-8.9149
  0
LINE
  8
0
 10
2.55855
 20
-8.9149
 11
3
 21
-9.19615
  0
LINE
  8
0
 10
3
 20
-9.19615
 11
3.46429
 21
-9.43784
  0
LINE
  8
0
 10
3.46429
 20
-9.43784
 11
3.94789
 21
-9.63815
  0
LINE
  8
0
 10
3.94789
 20
-9.63815
 11
4.4471
 21
-9.79555
  0
LINE
  8
0
 10
4.4471
 20
-9.79555
 11
4.95811
 21
-9.90884
  0
LINE
  8
0
 10
4.95811
 20
-9.90884
 11
5.47707
 21
-9.97716
  0
LINE
  8
0
 10
5.47707
 20
-9.97716
 11
6
 21
-10
  0
LINE
  8
0
 10
6
 20
-10
 11
524
 21
-10
  0
LINE
  8
0
 10
524
 20
-10
 11
524.523
 21
-9.97716
  0
LINE
  8
0
 10
168.625
 20
197
 11
168.104
 21
197.046
  0
LINE
  8
0
 10
168.104
 20
197.046
 11
167.599
 21
197.181
  0
LINE
  8
0
 10
167.599
 20
197.181
 11
167.125
 21
197.402
  0
LINE
  8
0
 10
167.125
 20
197.402
 11
166.697
 21
197.702
  0
LINE
  8
0
 10
166.697
 20
197.702
 11
166.327
 21
198.072
  0
LINE
  8
0
 10
166.327
 20
198.072
 11
166.027
 21
198.5
  0
LINE
  8
0
 10
166.027
 20
198.5
 11
165.806
 21
198.974
  0
LINE
  8
0
 10
165.806
 20
198.974
 11
165.671
 21
199.479
  0
LINE
  8
0
 10
165.671
 20
199.479
 11
165.625
 21
200
  0
LINE
  8
0
 10
165.625
 20
200
 11
165.671
 21
200.521
  0
LINE
  8
0
 10
165.671
 20
200.521
 11
165.806
 21
201.026
  0
LINE
  8
0
 10
165.806
 20
201.026
 11
166.027
 21
201.5
  0
LINE
  8
0
 10
166.027
 20
201.5
 11
166.327
 21
201.928
  0
LINE
  8
0
 10
166.327
 20
201.928
 11
166.697
 21
202.298
  0
LINE
  8
0
 10
166.697
 20
202.298
 11
167.125
 21
202.598
  0
LINE
  8
0
 10
167.125
 20
202.598
 11
167.599
 21
202.819
  0
LINE
  8
0
 10
167.599
 20
202.819
 11
168.104
 21
202.954
  0
LINE
  8
0
 10
168.104
 20
202.954
 11
168.625
 21
203
  0
LINE
  8
0
 10
168.625
 20
203
 11
252.625
 21
203
  0
LINE
  8
0
 10
252.625
 20
203
 11
253.146
 21
202.954
  0
LINE
  8
0
 10
253.146
 20
202.954
 11
253.651
 21
202.819
  0
LINE
  8
0
 10
253.651
 20
202.819
 11
254.125
 21
202.598
  0
LINE
  8
0
 10
254.125
 20
202.598
 11
254.553
 21
202.298
  0
LINE
  8
0
 10
254.553
 20
202.298
 11
254.923
 21
201.928
  0
LINE
  8
0
 10
254.923
 20
201.928
 11
255.223
 21
201.5
  0
LINE
  8
0
 10
255.223
 20
201.5
 11
255.444
 21
201.026
  0
LINE
  8
0
 10
255.444
 20
201.026
 11
255.579
 21
200.521
  0
LINE
  8
0
 10
255.579
 20
200.521
 11
255.625
 21
200
  0
LINE
  8
0
 10
255.625
 20
200
 11
255.579
 21
199.479
  0
LINE
  8
0
 10
255.579
 20
199.479
 11
255.444
 21
198.974
  0
LINE
  8
0
 10
255.444
 20
198.974
 11
255.223
 21
198.5
  0
LINE
  8
0
 10
255.223
 20
198.5
 11
254.923
 21
198.072
  0
LINE
  8
0
 10
254.923
 20
198.072
 11
254.553
 21
197.702
  0
LINE
  8
0
 10
254.553
 20
197.702
 11
254.125
 21
197.402
  0
LINE
  8
0
 10
254.125
 20
197.402
 11
253.651
 21
197.181
  0
LINE
  8
0
 10
253.651
 20
197.181
 11
253.146
 21
197.046
  0
LINE
  8
0
 10
253.146
 20
197.046
 11
252.625
 21
197
  0
LINE
  8
0
 10
252.625
 20
197
 11
168.625
 21
197
  0
LINE
  8
0
 10
280.651
 20
191.668
 11
280.173
 21
191.808
  0
LINE
  8
0
 10
280.173
 20
191.808
 11
279.754
 21
192.077
  0
LINE
  8
0
 10
279.754
 20
192.077
 11
279.428
 21
192.454
  0
LINE
  8
0
 10
279.428
 20
192.454
 11
279.221
 21
192.907
  0
LINE
  8
0
 10
279.221
 20
192.907
 11
279.15
 21
193.4
  0
LINE
  8
0
 10
279.15
 20
193.4
 11
279.221
 21
193.893
  0
LINE
  8
0
 10
279.221
 20
193.893
 11
279.428
 21
194.346
  0
LINE
  8
0
 10
279.428
 20
194.346
 11
279.754
 21
194.723
  0
LINE
  8
0
 10
279.754
 20
194.723
 11
280.173
 21
194.992
  0
LINE
  8
0
 10
280.173
 20
194.992
 11
280.651
 21
195.132
  0
LINE
  8
0
 10
280.651
 20
195.132
 11
285.649
 21
195.132
  0
LINE
  8
0
 10
285.649
 20
195.132
 11
286.127
 21
194.992
  0
LINE
  8
0
 10
286.127
 20
194.992
 11
286.546
 21
194.723
  0
LINE
  8
0
 10
286.546
 20
194.723
 11
286.872
 21
194.346
  0
LINE
  8
0
 10
286.872
 20
194.346
 11
287.079
 21
193.893
  0
LINE
  8
0
 10
287.079
 20
193.893
 11
287.15
 21
193.4
  0
LINE
  8
0
 10
287.15
 20
193.4
 11
287.079
 21
192.907
  0
LINE
  8
0
 10
287.079
 20
192.907
 11
286.872
 21
192.454
  0
LINE
  8
0
 10
286.872
 20
192.454
 11
286.546
 21
192.077
  0
LINE
  8
0
 10
286.546
 20
192.077
 11
286.127
 21
191.808
  0
LINE
  8
0
 10
286.127
 20
191.808
 11
285.649
 21
191.668
  0
LINE
  8
0
 10
285.649
 20
191.668
 11
280.651
 21
191.668
  0
LINE
  8
0
 10
351.5
 20
185.5
 11
350.926
 21
185.614
  0
LINE
  8
0
 10
350.926
 20
185.614
 11
350.439
 21
185.939
  0
LINE
  8
0
 10
350.439
 20
185.939
 11
350.114
 21
186.426
  0
LINE
  8
0
 10
350.114
 20
186.426
 11
350
 21
187
  0
LINE
  8
0
 10
350
 20
187
 11
350.114
 21
187.574
  0
LINE
  8
0
 10
350.114
 20
187.574
 11
350.439
 21
188.061
  0
LINE
  8
0
 10
350.439
 20
188.061
 11
350.926
 21
188.386
  0
LINE
  8
0
 10
350.926
 20
188.386
 11
351.5
 21
188.5
  0
LINE
  8
0
 10
351.5
 20
188.5
 11
468.5
 21
188.5
  0
LINE
  8
0
 10
468.5
 20
188.5
 11
469.074
 21
188.386
  0
LINE
  8
0
 10
469.074
 20
188.386
 11
469.561
 21
188.061
  0
LINE
  8
0
 10
469.561
 20
188.061
 11
469.886
 21
187.574
  0
LINE
  8
0
 10
469.886
 20
187.574
 11
470
 21
187
  0
LINE
  8
0
 10
470
 20
187
 11
469.886
 21
186.426
  0
LINE
  8
0
 10
469.886
 20
186.426
 11
469.561
 21
185.939
  0
LINE
  8
0
 10
469.561
 20
185.939
 11
469.074
 21
185.614
  0
LINE
  8
0
 10
469.074
 20
185.614
 11
468.5
 21
185.5
  0
LINE
  8
0
 10
468.5
 20
185.5
 11
351.5
 21
185.5
  0
LINE
  8
0
 10
201.5
 20
185.5
 11
200.926
 21
185.614
  0
LINE
  8
0
 10
200.926
 20
185.614
 11
200.439
 21
185.939
  0
LINE
  8
0
 10
200.439
 20
185.939
 11
200.114
 21
186.426
  0
LINE
  8
0
 10
200.114
 20
186.426
 11
200
 21
187
  0
LINE
  8
0
 10
200
 20
187
 11
200.114
 21
187.574
  0
LINE
  8
0
 10
200.114
 20
187.574
 11
200.439
 21
188.061
  0
LINE
  8
0
 10
200.439
 20
188.061
 11
200.926
 21
188.386
  0
LINE
  8
0
 10
200.926
 20
188.386
 11
201.5
 21
188.5
  0
LINE
  8
0
 10
201.5
 20
188.5
 11
318.5
 21
188.5
  0
LINE
  8
0
 10
318.5
 20
188.5
 11
319.074
 21
188.386
  0
LINE
  8
0
 10
319.074
 20
188.386
 11
319.561
 21
188.061
  0
LINE
  8
0
 10
319.561
 20
188.061
 11
319.886
 21
187.574
  0
LINE
  8
0
 10
319.886
 20
187.574
 11
320
 21
187
  0
LINE
  8
0
 10
320
 20
187
 11
319.886
 21
186.426
  0
LINE
  8
0
 10
319.886
 20
186.426
 11
319.561
 21
185.939
  0
LINE
  8
0
 10
319.561
 20
185.939
 11
319.074
 21
185.614
  0
LINE
  8
0
 10
319.074
 20
185.614
 11
318.5
 21
185.5
  0
LINE
  8
0
 10
318.5
 20
185.5
 11
201.5
 21
185.5
  0
LINE
  8
0
 10
130.751
 20
176.068
 11
130.273
 21
176.208
  0
LINE
  8
0
 10
130.273
 20
176.208
 11
129.854
 21
176.477
  0
LINE
  8
0
 10
129.854
 20
176.477
 11
129.528
 21
176.854
  0
LINE
  8
0
 10
129.528
 20
176.854
 11
129.321
 21
177.307
  0
LINE
  8
0
 10
129.321
 20
177.307
 11
129.25
 21
177.8
  0
LINE
  8
0
 10
129.25
 20
177.8
 11
129.321
 21
178.293
  0
LINE
  8
0
 10
129.321
 20
178.293
 11
129.528
 21
178.746
  0
LINE
  8
0
 10
129.528
 20
178.746
 11
129.854
 21
179.123
  0
LINE
  8
0
 10
129.854
 20
179.123
 11
130.273
 21
179.392
  0
LINE
  8
0
 10
130.273
 20
179.392
 11
130.751
 21
179.532
  0
LINE
  8
0
 10
130.751
 20
179.532
 11
135.749
 21
179.532
  0
LINE
  8
0
 10
135.749
 20
179.532
 11
136.227
 21
179.392
  0
LINE
  8
0
 10
136.227
 20
179.392
 11
136.646
 21
179.123
  0
LINE
  8
0
 10
136.646
 20
179.123
 11
136.972
 21
178.746
  0
LINE
  8
0
 10
136.972
 20
178.746
 11
137.179
 21
178.293
  0
LINE
  8
0
 10
137.179
 20
178.293
 11
137.25
 21
177.8
  0
LINE
  8
0
 10
137.25
 20
177.8
 11
137.179
 21
177.307
  0
LINE
  8
0
 10
137.179
 20
177.307
 11
136.972
 21
176.854
  0
LINE
  8
0
 10
136.972
 20
176.854
 11
136.646
 21
176.477
  0
LINE
  8
0
 10
136.646
 20
176.477
 11
136.227
 21
176.208
  0
LINE
  8
0
 10
136.227
 20
176.208
 11
135.749
 21
176.068
  0
LINE
  8
0
 10
135.749
 20
176.068
 11
130.751
 21
176.068
  0
LINE
  8
0
 10
361.398
 20
138.677
 11
361.325
 21
138.656
  0
LINE
  8
0
 10
361.325
 20
138.656
 11
361.098
 21
138.677
  0
LINE
  8
0
 10
361.098
 20
138.677
 11
361.025
 21
138.656
  0
LINE
  8
0
 10
361.025
 20
138.656
 11
360.798
 21
138.677
  0
LINE
  8
0
 10
360.798
 20
138.677
 11
360.725
 21
138.656
  0
LINE
  8
0
 10
360.725
 20
138.656
 11
360.498
 21
138.677
  0
LINE
  8
0
 10
360.498
 20
138.677
 11
360.425
 21
138.656
  0
LINE
  8
0
 10
360.425
 20
138.656
 11
360.198
 21
138.677
  0
LINE
  8
0
 10
360.198
 20
138.677
 11
360.125
 21
138.656
  0
LINE
  8
0
 10
360.125
 20
138.656
 11
359.898
 21
138.677
  0
LINE
  8
0
 10
359.898
 20
138.677
 11
359.825
 21
138.656
  0
LINE
  8
0
 10
359.825
 20
138.656
 11
359.598
 21
138.677
  0
LINE
  8
0
 10
359.598
 20
138.677
 11
359.525
 21
138.656
  0
LINE
  8
0
 10
359.525
 20
138.656
 11
359.298
 21
138.677
  0
LINE
  8
0
 10
359.298
 20
138.677
 11
359.225
 21
138.656
  0
LINE
  8
0
 10
359.225
 20
138.656
 11
358.998
 21
138.677
  0
LINE
  8
0
 10
358.998
 20
138.677
 11
358.925
 21
138.656
  0
LINE
  8
0
 10
358.925
 20
138.656
 11
358.698
 21
138.677
  0
LINE
  8
0
 10
358.698
 20
138.677
 11
358.625
 21
138.656
  0
LINE
  8
0
 10
358.625
 20
138.656
 11
358.398
 21
138.677
  0
LINE
  8
0
 10
358.398
 20
138.677
 11
358.325
 21
138.656
  0
LINE
  8
0
 10
358.325
 20
138.656
 11
358.098
 21
138.677
  0
LINE
  8
0
 10
358.098
 20
138.677
 11
358.025
 21
138.656
  0
LINE
  8
0
 10
358.025
 20
138.656
 11
357.798
 21
138.677
  0
LINE
  8
0
 10
357.798
 20
138.677
 11
357.725
 21
138.656
  0
LINE
  8
0
 10
357.725
 20
138.656
 11
357.498
 21
138.677
  0
LINE
  8
0
 10
357.498
 20
138.677
 11
357.425
 21
138.656
  0
LINE
  8
0
 10
357.425
 20
138.656
 11
357.198
 21
138.677
  0
LINE
  8
0
 10
357.198
 20
138.677
 11
357.125
 21
138.656
  0
LINE
  8
0
 10
357.125
 20
138.656
 11
356.631
 21
138.702
  0
LINE
  8
0
 10
356.631
 20
138.702
 11
356.186
 21
138.923
  0
LINE
  8
0
 10
356.186
 20
138.923
 11
355.852
 21
139.289
  0
LINE
  8
0
 10
355.852
 20
139.289
 11
355.673
 21
139.752
  0
LINE
  8
0
 10
355.673
 20
139.752
 11
355.673
 21
140.248
  0
LINE
  8
0
 10
355.673
 20
140.248
 11
355.852
 21
140.711
  0
LINE
  8
0
 10
355.852
 20
140.711
 11
356.186
 21
141.077
  0
LINE
  8
0
 10
356.186
 20
141.077
 11
356.631
 21
141.298
  0
LINE
  8
0
 10
356.631
 20
141.298
 11
357.125
 21
141.344
  0
LINE
  8
0
 10
357.125
 20
141.344
 11
357.198
 21
141.323
  0
LINE
  8
0
 10
357.198
 20
141.323
 11
357.425
 21
141.344
  0
LINE
  8
0
 10
357.425
 20
141.344
 11
357.498
 21
141.323
  0
LINE
  8
0
 10
357.498
 20
141.323
 11
357.725
 21
141.344
  0
LINE
  8
0
 10
357.725
 20
141.344
 11
357.798
 21
141.323
  0
LINE
  8
0
 10
357.798
 20
141.323
 11
358.025
 21
141.344
  0
LINE
  8
0
 10
358.025
 20
141.344
 11
358.098
 21
141.323
  0
LINE
  8
0
 10
358.098
 20
141.323
 11
358.325
 21
141.344
  0
LINE
  8
0
 10
358.325
 20
141.344
 11
358.398
 21
141.323
  0
LINE
  8
0
 10
358.398
 20
141.323
 11
358.625
 21
141.344
  0
LINE
  8
0
 10
358.625
 20
141.344
 11
358.698
 21
141.323
  0
LINE
  8
0
 10
358.698
 20
141.323
 11
358.925
 21
141.344
  0
LINE
  8
0
 10
358.925
 20
141.344
 11
358.998
 21
141.323
  0
LINE
  8
0
 10
358.998
 20
141.323
 11
359.225
 21
141.344
  0
LINE
  8
0
 10
359.225
 20
141.344
 11
359.298
 21
141.323
  0
LINE
  8
0
 10
359.298
 20
141.323
 11
359.525
 21
141.344
  0
LINE
  8
0
 10
359.525
 20
141.344
 11
359.598
 21
141.323
  0
LINE
  8
0
 10
359.598
 20
141.323
 11
359.825
 21
141.344
  0
LINE
  8
0
 10
359.825
 20
141.344
 11
359.898
 21
141.323
  0
LINE
  8
0
 10
359.898
 20
141.323
 11
360.125
 21
141.344
  0
LINE
  8
0
 10
360.125
 20
141.344
 11
360.198
 21
141.323
  0
LINE
  8
0
 10
360.198
 20
141.323
 11
360.425
 21
141.344
  0
LINE
  8
0
 10
360.425
 20
141.344
 11
360.498
 21
141.323
  0
LINE
  8
0
 10
360.498
 20
141.323
 11
360.725
 21
141.344
  0
LINE
  8
0
 10
360.725
 20
141.344
 11
360.798
 21
141.323
  0
LINE
  8
0
 10
360.798
 20
141.323
 11
361.025
 21
141.344
  0
LINE
  8
0
 10
361.025
 20
141.344
 11
361.098
 21
141.323
  0
LINE
  8
0
 10
361.098
 20
141.323
 11
361.325
 21
141.344
  0
LINE
  8
0
 10
361.325
 20
141.344
 11
361.398
 21
141.323
  0
LINE
  8
0
 10
361.398
 20
141.323
 11
361.625
 21
141.344
  0
LINE
  8
0
 10
361.625
 20
141.344
 11
362.102
 21
141.208
  0
LINE
  8
0
 10
362.102
 20
141.208
 11
362.498
 21
140.909
  0
LINE
  8
0
 10
362.498
 20
140.909
 11
362.759
 21
140.488
  0
LINE
  8
0
 10
362.759
 20
140.488
 11
362.85
 21
140
  0
LINE
  8
0
 10
362.85
 20
140
 11
362.759
 21
139.512
  0
LINE
  8
0
 10
362.759
 20
139.512
 11
362.498
 21
139.09
  0
LINE
  8
0
 10
362.498
 20
139.09
 11
362.102
 21
138.792
  0
LINE
  8
0
 10
362.102
 20
138.792
 11
361.625
 21
138.656
  0
LINE
  8
0
 10
361.625
 20
138.656
 11
361.398
 21
138.677
  0
LINE
  8
0
 10
338.398
 20
138.677
 11
338.325
 21
138.656
  0
LINE
  8
0
 10
338.325
 20
138.656
 11
338.098
 21
138.677
  0
LINE
  8
0
 10
338.098
 20
138.677
 11
338.025
 21
138.656
  0
LINE
  8
0
 10
338.025
 20
138.656
 11
337.798
 21
138.677
  0
LINE
  8
0
 10
337.798
 20
138.677
 11
337.725
 21
138.656
  0
LINE
  8
0
 10
337.725
 20
138.656
 11
337.498
 21
138.677
  0
LINE
  8
0
 10
337.498
 20
138.677
 11
337.425
 21
138.656
  0
LINE
  8
0
 10
337.425
 20
138.656
 11
337.198
 21
138.677
  0
LINE
  8
0
 10
337.198
 20
138.677
 11
337.125
 21
138.656
  0
LINE
  8
0
 10
337.125
 20
138.656
 11
336.898
 21
138.677
  0
LINE
  8
0
 10
336.898
 20
138.677
 11
336.825
 21
138.656
  0
LINE
  8
0
 10
336.825
 20
138.656
 11
336.598
 21
138.677
  0
LINE
  8
0
 10
336.598
 20
138.677
 11
336.525
 21
138.656
  0
LINE
  8
0
 10
336.525
 20
138.656
 11
336.298
 21
138.677
  0
LINE
  8
0
 10
336.298
 20
138.677
 11
336.225
 21
138.656
  0
LINE
  8
0
 10
336.225
 20
138.656
 11
335.998
 21
138.677
  0
LINE
  8
0
 10
335.998
 20
138.677
 11
335.925
 21
138.656
  0
LINE
  8
0
 10
335.925
 20
138.656
 11
335.698
 21
138.677
  0
LINE
  8
0
 10
335.698
 20
138.677
 11
335.625
 21
138.656
  0
LINE
  8
0
 10
335.625
 20
138.656
 11
335.398
 21
138.677
  0
LINE
  8
0
 10
335.398
 20
138.677
 11
335.325
 21
138.656
  0
LINE
  8
0
 10
335.325
 20
138.656
 11
335.098
 21
138.677
  0
LINE
  8
0
 10
335.098
 20
138.677
 11
335.025
 21
138.656
  0
LINE
  8
0
 10
335.025
 20
138.656
 11
334.798
 21
138.677
  0
LINE
  8
0
 10
334.798
 20
138.677
 11
334.725
 21
138.656
  0
LINE
  8
0
 10
334.725
 20
138.656
 11
334.498
 21
138.677
  0
LINE
  8
0
 10
334.498
 20
138.677
 11
334.425
 21
138.656
  0
LINE
  8
0
 10
334.425
 20
138.656
 11
334.198
 21
138.677
  0
LINE
  8
0
 10
334.198
 20
138.677
 11
334.125
 21
138.656
  0
LINE
  8
0
 10
334.125
 20
138.656
 11
333.631
 21
138.702
  0
LINE
  8
0
 10
333.631
 20
138.702
 11
333.186
 21
138.923
  0
LINE
  8
0
 10
333.186
 20
138.923
 11
332.852
 21
139.289
  0
LINE
  8
0
 10
332.852
 20
139.289
 11
332.673
 21
139.752
  0
LINE
  8
0
 10
332.673
 20
139.752
 11
332.673
 21
140.248
  0
LINE
  8
0
 10
332.673
 20
140.248
 11
332.852
 21
140.711
  0
LINE
  8
0
 10
332.852
 20
140.711
 11
333.186
 21
141.077
  0
LINE
  8
0
 10
333.186
 20
141.077
 11
333.631
 21
141.298
  0
LINE
  8
0
 10
333.631
 20
141.298
 11
334.125
 21
141.344
  0
LINE
  8
0
 10
334.125
 20
141.344
 11
334.198
 21
141.323
  0
LINE
  8
0
 10
334.198
 20
141.323
 11
334.425
 21
141.344
  0
LINE
  8
0
 10
334.425
 20
141.344
 11
334.498
 21
141.323
  0
LINE
  8
0
 10
334.498
 20
141.323
 11
334.725
 21
141.344
  0
LINE
  8
0
 10
334.725
 20
141.344
 11
334.798
 21
141.323
  0
LINE
  8
0
 10
334.798
 20
141.323
 11
335.025
 21
141.344
  0
LINE
  8
0
 10
335.025
 20
141.344
 11
335.098
 21
141.323
  0
LINE
  8
0
 10
335.098
 20
141.323
 11
335.325
 21
141.344
  0
LINE
  8
0
 10
335.325
 20
141.344
 11
335.398
 21
141.323
  0
LINE
  8
0
 10
335.398
 20
141.323
 11
335.625
 21
141.344
  0
LINE
  8
0
 10
335.625
 20
141.344
 11
335.698
 21
141.323
  0
LINE
  8
0
 10
335.698
 20
141.323
 11
335.925
 21
141.344
  0
LINE
  8
0
 10
335.925
 20
141.344
 11
335.998
 21
141.323
  0
LINE
  8
0
 10
335.998
 20
141.323
 11
336.225
 21
141.344
  0
LINE
  8
0
 10
336.225
 20
141.344
 11
336.298
 21
141.323
  0
LINE
  8
0
 10
336.298
 20
141.323
 11
336.525
 21
141.344
  0
LINE
  8
0
 10
336.525
 20
141.344
 11
336.598
 21
141.323
  0
LINE
  8
0
 10
336.598
 20
141.323
 11
336.825
 21
141.344
  0
LINE
  8
0
 10
336.825
 20
141.344
 11
336.898
 21
141.323
  0
LINE
  8
0
 10
336.898
 20
141.323
 11
337.125
 21
141.344
  0
LINE
  8
0
 10
337.125
 20
141.344
 11
337.198
 21
141.323
  0
LINE
  8
0
 10
337.198
 20
141.323
 11
337.425
 21
141.344
  0
LINE
  8
0
 10
337.425
 20
141.344
 11
337.498
 21
141.323
  0
LINE
  8
0
 10
337.498
 20
141.323
 11
337.725
 21
141.344
  0
LINE
  8
0
 10
337.725
 20
141.344
 11
337.798
 21
141.323
  0
LINE
  8
0
 10
337.798
 20
141.323
 11
338.025
 21
141.344
  0
LINE
  8
0
 10
338.025
 20
141.344
 11
338.098
 21
141.323
  0
LINE
  8
0
 10
338.098
 20
141.323
 11
338.325
 21
141.344
  0
LINE
  8
0
 10
338.325
 20
141.344
 11
338.398
 21
141.323
  0
LINE
  8
0
 10
338.398
 20
141.323
 11
338.625
 21
141.344
  0
LINE
  8
0
 10
338.625
 20
141.344
 11
339.102
 21
141.208
  0
LINE
  8
0
 10
339.102
 20
141.208
 11
339.498
 21
140.909
  0
LINE
  8
0
 10
339.498
 20
140.909
 11
339.759
 21
140.488
  0
LINE
  8
0
 10
339.759
 20
140.488
 11
339.85
 21
140
  0
LINE
  8
0
 10
339.85
 20
140
 11
339.759
 21
139.512
  0
LINE
  8
0
 10
339.759
 20
139.512
 11
339.498
 21
139.09
  0
LINE
  8
0
 10
339.498
 20
139.09
 11
339.102
 21
138.792
  0
LINE
  8
0
 10
339.102
 20
138.792
 11
338.625
 21
138.656
  0
LINE
  8
0
 10
338.625
 20
138.656
 11
338.398
 21
138.677
  0
LINE
  8
0
 10
312.398
 20
138.677
 11
312.325
 21
138.656
  0
LINE
  8
0
 10
312.325
 20
138.656
 11
312.098
 21
138.677
  0
LINE
  8
0
 10
312.098
 20
138.677
 11
312.025
 21
138.656
  0
LINE
  8
0
 10
312.025
 20
138.656
 11
311.798
 21
138.677
  0
LINE
  8
0
 10
311.798
 20
138.677
 11
311.725
 21
138.656
  0
LINE
  8
0
 10
311.725
 20
138.656
 11
311.498
 21
138.677
  0
LINE
  8
0
 10
311.498
 20
138.677
 11
311.425
 21
138.656
  0
LINE
  8
0
 10
311.425
 20
138.656
 11
311.198
 21
138.677
  0
LINE
  8
0
 10
311.198
 20
138.677
 11
311.125
 21
138.656
  0
LINE
  8
0
 10
311.125
 20
138.656
 11
310.898
 21
138.677
  0
LINE
  8
0
 10
310.898
 20
138.677
 11
310.825
 21
138.656
  0
LINE
  8
0
 10
310.825
 20
138.656
 11
310.598
 21
138.677
  0
LINE
  8
0
 10
310.598
 20
138.677
 11
310.525
 21
138.656
  0
LINE
  8
0
 10
310.525
 20
138.656
 11
310.298
 21
138.677
  0
LINE
  8
0
 10
310.298
 20
138.677
 11
310.225
 21
138.656
  0
LINE
  8
0
 10
310.225
 20
138.656
 11
309.998
 21
138.677
  0
LINE
  8
0
 10
309.998
 20
138.677
 11
309.925
 21
138.656
  0
LINE
  8
0
 10
309.925
 20
138.656
 11
309.698
 21
138.677
  0
LINE
  8
0
 10
309.698
 20
138.677
 11
309.625
 21
138.656
  0
LINE
  8
0
 10
309.625
 20
138.656
 11
309.398
 21
138.677
  0
LINE
  8
0
 10
309.398
 20
138.677
 11
309.325
 21
138.656
  0
LINE
  8
0
 10
309.325
 20
138.656
 11
309.098
 21
138.677
  0
LINE
  8
0
 10
309.098
 20
138.677
 11
309.025
 21
138.656
  0
LINE
  8
0
 10
309.025
 20
138.656
 11
308.798
 21
138.677
  0
LINE
  8
0
 10
308.798
 20
138.677
 11
308.725
 21
138.656
  0
LINE
  8
0
 10
308.725
 20
138.656
 11
308.498
 21
138.677
  0
LINE
  8
0
 10
308.498
 20
138.677
 11
308.425
 21
138.656
  0
LINE
  8
0
 10
308.425
 20
138.656
 11
308.198
 21
138.677
  0
LINE
  8
0
 10
308.198
 20
138.677
 11
308.125
 21
138.656
  0
LINE
  8
0
 10
308.125
 20
138.656
 11
307.631
 21
138.702
  0
LINE
  8
0
 10
307.631
 20
138.702
 11
307.186
 21
138.923
  0
LINE
  8
0
 10
307.186
 20
138.923
 11
306.852
 21
139.289
  0
LINE
  8
0
 10
306.852
 20
139.289
 11
306.673
 21
139.752
  0
LINE
  8
0
 10
306.673
 20
139.752
 11
306.673
 21
140.248
  0
LINE
  8
0
 10
306.673
 20
140.248
 11
306.852
 21
140.711
  0
LINE
  8
0
 10
306.852
 20
140.711
 11
307.186
 21
141.077
  0
LINE
  8
0
 10
307.186
 20
141.077
 11
307.631
 21
141.298
  0
LINE
  8
0
 10
307.631
 20
141.298
 11
308.125
 21
141.344
  0
LINE
  8
0
 10
308.125
 20
141.344
 11
308.198
 21
141.323
  0
LINE
  8
0
 10
308.198
 20
141.323
 11
308.425
 21
141.344
  0
LINE
  8
0
 10
308.425
 20
141.344
 11
308.498
 21
141.323
  0
LINE
  8
0
 10
308.498
 20
141.323
 11
308.725
 21
141.344
  0
LINE
  8
0
 10
308.725
 20
141.344
 11
308.798
 21
141.323
  0
LINE
  8
0
 10
308.798
 20
141.323
 11
309.025
 21
141.344
  0
LINE
  8
0
 10
309.025
 20
141.344
 11
309.098
 21
141.323
  0
LINE
  8
0
 10
309.098
 20
141.323
 11
309.325
 21
141.344
  0
LINE
  8
0
 10
309.325
 20
141.344
 11
309.398
 21
141.323
  0
LINE
  8
0
 10
309.398
 20
141.323
 11
309.625
 21
141.344
  0
LINE
  8
0
 10
309.625
 20
141.344
 11
309.698
 21
141.323
  0
LINE
  8
0
 10
309.698
 20
141.323
 11
309.925
 21
141.344
  0
LINE
  8
0
 10
309.925
 20
141.344
 11
309.998
 21
141.323
  0
LINE
  8
0
 10
309.998
 20
141.323
 11
310.225
 21
141.344
  0
LINE
  8
0
 10
310.225
 20
141.344
 11
310.298
 21
141.323
  0
LINE
  8
0
 10
310.298
 20
141.323
 11
310.525
 21
141.344
  0
LINE
  8
0
 10
310.525
 20
141.344
 11
310.598
 21
141.323
  0
LINE
  8
0
 10
310.598
 20
141.323
 11
310.825
 21
141.344
  0
LINE
  8
0
 10
310.825
 20
141.344
 11
310.898
 21
141.323
  0
LINE
  8
0
 10
310.898
 20
141.323
 11
311.125
 21
141.344
  0
LINE
  8
0
 10
311.125
 20
141.344
 11
311.198
 21
141.323
  0
LINE
  8
0
 10
311.198
 20
141.323
 11
311.425
 21
141.344
  0
LINE
  8
0
 10
311.425
 20
141.344
 11
311.498
 21
141.323
  0
LINE
  8
0
 10
311.498
 20
141.323
 11
311.725
 21
141.344
  0
LINE
  8
0
 10
311.725
 20
141.344
 11
311.798
 21
141.323
  0
LINE
  8
0
 10
311.798
 20
141.323
 11
312.025
 21
141.344
  0
LINE
  8
0
 10
312.025
 20
141.344
 11
312.098
 21
141.323
  0
LINE
  8
0
 10
312.098
 20
141.323
 11
312.325
 21
141.344
  0
LINE
  8
0
 10
312.325
 20
141.344
 11
312.398
 21
141.323
  0
LINE
  8
0
 10
312.398
 20
141.323
 11
312.625
 21
141.344
  0
LINE
  8
0
 10
312.625
 20
141.344
 11
313.102
 21
141.208
  0
LINE
  8
0
 10
313.102
 20
141.208
 11
313.498
 21
140.909
  0
LINE
  8
0
 10
313.498
 20
140.909
 11
313.759
 21
140.488
  0
LINE
  8
0
 10
313.759
 20
140.488
 11
313.85
 21
140
  0
LINE
  8
0
 10
313.85
 20
140
 11
313.759
 21
139.512
  0
LINE
  8
0
 10
313.759
 20
139.512
 11
313.498
 21
139.09
  0
LINE
  8
0
 10
313.498
 20
139.09
 11
313.102
 21
138.792
  0
LINE
  8
0
 10
313.102
 20
138.792
 11
312.625
 21
138.656
  0
LINE
  8
0
 10
312.625
 20
138.656
 11
312.398
 21
138.677
  0
LINE
  8
0
 10
175.451
 20
135.168
 11
174.973
 21
135.308
  0
LINE
  8
0
 10
174.973
 20
135.308
 11
174.554
 21
135.577
  0
LINE
  8
0
 10
174.554
 20
135.577
 11
174.228
 21
135.954
  0
LINE
  8
0
 10
174.228
 20
135.954
 11
174.021
 21
136.407
  0
LINE
  8
0
 10
174.021
 20
136.407
 11
173.95
 21
136.9
  0
LINE
  8
0
 10
173.95
 20
136.9
 11
174.021
 21
137.393
  0
LINE
  8
0
 10
174.021
 20
137.393
 11
174.228
 21
137.846
  0
LINE
  8
0
 10
174.228
 20
137.846
 11
174.554
 21
138.223
  0
LINE
  8
0
 10
174.554
 20
138.223
 11
174.973
 21
138.492
  0
LINE
  8
0
 10
174.973
 20
138.492
 11
175.451
 21
138.632
  0
LINE
  8
0
 10
175.451
 20
138.632
 11
180.449
 21
138.632
  0
LINE
  8
0
 10
180.449
 20
138.632
 11
180.927
 21
138.492
  0
LINE
  8
0
 10
180.927
 20
138.492
 11
181.346
 21
138.223
  0
LINE
  8
0
 10
181.346
 20
138.223
 11
181.672
 21
137.846
  0
LINE
  8
0
 10
181.672
 20
137.846
 11
181.879
 21
137.393
  0
LINE
  8
0
 10
181.879
 20
137.393
 11
181.95
 21
136.9
  0
LINE
  8
0
 10
181.95
 20
136.9
 11
181.879
 21
136.407
  0
LINE
  8
0
 10
181.879
 20
136.407
 11
181.672
 21
135.954
  0
LINE
  8
0
 10
181.672
 20
135.954
 11
181.346
 21
135.577
  0
LINE
  8
0
 10
181.346
 20
135.577
 11
180.927
 21
135.308
  0
LINE
  8
0
 10
180.927
 20
135.308
 11
180.449
 21
135.168
  0
LINE
  8
0
 10
180.449
 20
135.168
 11
175.451
 21
135.168
  0
LINE
  8
0
 10
481.397
 20
126.626
 11
480.984
 21
126.896
  0
LINE
  8
0
 10
480.984
 20
126.896
 11
480.681
 21
127.286
  0
LINE
  8
0
 10
480.681
 20
127.286
 11
480.52
 21
127.753
  0
LINE
  8
0
 10
480.52
 20
127.753
 11
480.52
 21
137.247
  0
LINE
  8
0
 10
480.52
 20
137.247
 11
480.681
 21
137.714
  0
LINE
  8
0
 10
480.681
 20
137.714
 11
480.984
 21
138.104
  0
LINE
  8
0
 10
480.984
 20
138.104
 11
481.397
 21
138.374
  0
LINE
  8
0
 10
481.397
 20
138.374
 11
481.876
 21
138.495
  0
LINE
  8
0
 10
481.876
 20
138.495
 11
482.368
 21
138.454
  0
LINE
  8
0
 10
482.368
 20
138.454
 11
482.82
 21
138.256
  0
LINE
  8
0
 10
482.82
 20
138.256
 11
483.184
 21
137.921
  0
LINE
  8
0
 10
483.184
 20
137.921
 11
483.419
 21
137.487
  0
LINE
  8
0
 10
483.419
 20
137.487
 11
483.5
 21
137
  0
LINE
  8
0
 10
483.5
 20
137
 11
483.475
 21
136.85
  0
LINE
  8
0
 10
483.475
 20
136.85
 11
483.5
 21
136.7
  0
LINE
  8
0
 10
483.5
 20
136.7
 11
483.475
 21
136.55
  0
LINE
  8
0
 10
483.475
 20
136.55
 11
483.5
 21
136.4
  0
LINE
  8
0
 10
483.5
 20
136.4
 11
483.475
 21
136.25
  0
LINE
  8
0
 10
483.475
 20
136.25
 11
483.5
 21
136.1
  0
LINE
  8
0
 10
483.5
 20
136.1
 11
483.475
 21
135.95
  0
LINE
  8
0
 10
483.475
 20
135.95
 11
483.5
 21
135.8
  0
LINE
  8
0
 10
483.5
 20
135.8
 11
483.475
 21
135.65
  0
LINE
  8
0
 10
483.475
 20
135.65
 11
483.5
 21
135.5
  0
LINE
  8
0
 10
483.5
 20
135.5
 11
483.475
 21
135.35
  0
LINE
  8
0
 10
483.475
 20
135.35
 11
483.5
 21
135.2
  0
LINE
  8
0
 10
483.5
 20
135.2
 11
483.475
 21
135.05
  0
LINE
  8
0
 10
483.475
 20
135.05
 11
483.5
 21
134.9
  0
LINE
  8
0
 10
483.5
 20
134.9
 11
483.475
 21
134.75
  0
LINE
  8
0
 10
483.475
 20
134.75
 11
483.5
 21
134.6
  0
LINE
  8
0
 10
483.5
 20
134.6
 11
483.475
 21
134.45
  0
LINE
  8
0
 10
483.475
 20
134.45
 11
483.5
 21
134.3
  0
LINE
  8
0
 10
483.5
 20
134.3
 11
483.475
 21
134.15
  0
LINE
  8
0
 10
483.475
 20
134.15
 11
483.5
 21
134
  0
LINE
  8
0
 10
483.5
 20
134
 11
483.475
 21
133.85
  0
LINE
  8
0
 10
483.475
 20
133.85
 11
483.5
 21
133.7
  0
LINE
  8
0
 10
483.5
 20
133.7
 11
483.475
 21
133.55
  0
LINE
  8
0
 10
483.475
 20
133.55
 11
483.5
 21
133.4
  0
LINE
  8
0
 10
483.5
 20
133.4
 11
483.475
 21
133.25
  0
LINE
  8
0
 10
483.475
 20
133.25
 11
483.5
 21
133.1
  0
LINE
  8
0
 10
483.5
 20
133.1
 11
483.475
 21
132.95
  0
LINE
  8
0
 10
483.475
 20
132.95
 11
483.5
 21
132.8
  0
LINE
  8
0
 10
483.5
 20
132.8
 11
483.475
 21
132.65
  0
LINE
  8
0
 10
483.475
 20
132.65
 11
483.5
 21
132.5
  0
LINE
  8
0
 10
483.5
 20
132.5
 11
483.475
 21
132.35
  0
LINE
  8
0
 10
483.475
 20
132.35
 11
483.5
 21
132.2
  0
LINE
  8
0
 10
483.5
 20
132.2
 11
483.475
 21
132.05
  0
LINE
  8
0
 10
483.475
 20
132.05
 11
483.5
 21
131.9
  0
LINE
  8
0
 10
483.5
 20
131.9
 11
483.475
 21
131.75
  0
LINE
  8
0
 10
483.475
 20
131.75
 11
483.5
 21
131.6
  0
LINE
  8
0
 10
483.5
 20
131.6
 11
483.475
 21
131.45
  0
LINE
  8
0
 10
483.475
 20
131.45
 11
483.5
 21
131.3
  0
LINE
  8
0
 10
483.5
 20
131.3
 11
483.475
 21
131.15
  0
LINE
  8
0
 10
483.475
 20
131.15
 11
483.5
 21
131
  0
LINE
  8
0
 10
483.5
 20
131
 11
483.475
 21
130.85
  0
LINE
  8
0
 10
483.475
 20
130.85
 11
483.5
 21
130.7
  0
LINE
  8
0
 10
483.5
 20
130.7
 11
483.475
 21
130.55
  0
LINE
  8
0
 10
483.475
 20
130.55
 11
483.5
 21
130.4
  0
LINE
  8
0
 10
483.5
 20
130.4
 11
483.475
 21
130.25
  0
LINE
  8
0
 10
483.475
 20
130.25
 11
483.5
 21
130.1
  0
LINE
  8
0
 10
483.5
 20
130.1
 11
483.475
 21
129.95
  0
LINE
  8
0
 10
483.475
 20
129.95
 11
483.5
 21
129.8
  0
LINE
  8
0
 10
483.5
 20
129.8
 11
483.475
 21
129.65
  0
LINE
  8
0
 10
483.475
 20
129.65
 11
483.5
 21
129.5
  0
LINE
  8
0
 10
483.5
 20
129.5
 11
483.475
 21
129.35
  0
LINE
  8
0
 10
483.475
 20
129.35
 11
483.5
 21
129.2
  0
LINE
  8
0
 10
483.5
 20
129.2
 11
483.475
 21
129.05
  0
LINE
  8
0
 10
483.475
 20
129.05
 11
483.5
 21
128.9
  0
LINE
  8
0
 10
483.5
 20
128.9
 11
483.475
 21
128.75
  0
LINE
  8
0
 10
483.475
 20
128.75
 11
483.5
 21
128.6
  0
LINE
  8
0
 10
483.5
 20
128.6
 11
483.475
 21
128.45
  0
LINE
  8
0
 10
483.475
 20
128.45
 11
483.5
 21
128.3
  0
LINE
  8
0
 10
483.5
 20
128.3
 11
483.475
 21
128.15
  0
LINE
  8
0
 10
483.475
 20
128.15
 11
483.5
 21
128
  0
LINE
  8
0
 10
483.5
 20
128
 11
483.419
 21
127.513
  0
LINE
  8
0
 10
483.419
 20
127.513
 11
483.184
 21
127.079
  0
LINE
  8
0
 10
483.184
 20
127.079
 11
482.82
 21
126.744
  0
LINE
  8
0
 10
482.82
 20
126.744
 11
482.368
 21
126.546
  0
LINE
  8
0
 10
482.368
 20
126.546
 11
481.876
 21
126.505
  0
LINE
  8
0
 10
481.876
 20
126.505
 11
481.397
 21
126.626
  0
LINE
  8
0
 10
395.397
 20
126.626
 11
394.984
 21
126.896
  0
LINE
  8
0
 10
394.984
 20
126.896
 11
394.681
 21
127.286
  0
LINE
  8
0
 10
394.681
 20
127.286
 11
394.52
 21
127.753
  0
LINE
  8
0
 10
394.52
 20
127.753
 11
394.52
 21
137.247
  0
LINE
  8
0
 10
394.52
 20
137.247
 11
394.681
 21
137.714
  0
LINE
  8
0
 10
394.681
 20
137.714
 11
394.984
 21
138.104
  0
LINE
  8
0
 10
394.984
 20
138.104
 11
395.397
 21
138.374
  0
LINE
  8
0
 10
395.397
 20
138.374
 11
395.876
 21
138.495
  0
LINE
  8
0
 10
395.876
 20
138.495
 11
396.368
 21
138.454
  0
LINE
  8
0
 10
396.368
 20
138.454
 11
396.82
 21
138.256
  0
LINE
  8
0
 10
396.82
 20
138.256
 11
397.184
 21
137.921
  0
LINE
  8
0
 10
397.184
 20
137.921
 11
397.419
 21
137.487
  0
LINE
  8
0
 10
397.419
 20
137.487
 11
397.5
 21
137
  0
LINE
  8
0
 10
397.5
 20
137
 11
397.475
 21
136.85
  0
LINE
  8
0
 10
397.475
 20
136.85
 11
397.5
 21
136.7
  0
LINE
  8
0
 10
397.5
 20
136.7
 11
397.475
 21
136.55
  0
LINE
  8
0
 10
397.475
 20
136.55
 11
397.5
 21
136.4
  0
LINE
  8
0
 10
397.5
 20
136.4
 11
397.475
 21
136.25
  0
LINE
  8
0
 10
397.475
 20
136.25
 11
397.5
 21
136.1
  0
LINE
  8
0
 10
397.5
 20
136.1
 11
397.475
 21
135.95
  0
LINE
  8
0
 10
397.475
 20
135.95
 11
397.5
 21
135.8
  0
LINE
  8
0
 10
397.5
 20
135.8
 11
397.475
 21
135.65
  0
LINE
  8
0
 10
397.475
 20
135.65
 11
397.5
 21
135.5
  0
LINE
  8
0
 10
397.5
 20
135.5
 11
397.475
 21
135.35
  0
LINE
  8
0
 10
397.475
 20
135.35
 11
397.5
 21
135.2
  0
LINE
  8
0
 10
397.5
 20
135.2
 11
397.475
 21
135.05
  0
LINE
  8
0
 10
397.475
 20
135.05
 11
397.5
 21
134.9
  0
LINE
  8
0
 10
397.5
 20
134.9
 11
397.475
 21
134.75
  0
LINE
  8
0
 10
397.475
 20
134.75
 11
397.5
 21
134.6
  0
LINE
  8
0
 10
397.5
 20
134.6
 11
397.475
 21
134.45
  0
LINE
  8
0
 10
397.475
 20
134.45
 11
397.5
 21
134.3
  0
LINE
  8
0
 10
397.5
 20
134.3
 11
397.475
 21
134.15
  0
LINE
  8
0
 10
397.475
 20
134.15
 11
397.5
 21
134
  0
LINE
  8
0
 10
397.5
 20
134
 11
397.475
 21
133.85
  0
LINE
  8
0
 10
397.475
 20
133.85
 11
397.5
 21
133.7
  0
LINE
  8
0
 10
397.5
 20
133.7
 11
397.475
 21
133.55
  0
LINE
  8
0
 10
397.475
 20
133.55
 11
397.5
 21
133.4
  0
LINE
  8
0
 10
397.5
 20
133.4
 11
397.475
 21
133.25
  0
LINE
  8
0
 10
397.475
 20
133.25
 11
397.5
 21
133.1
  0
LINE
  8
0
 10
397.5
 20
133.1
 11
397.475
 21
132.95
  0
LINE
  8
0
 10
397.475
 20
132.95
 11
397.5
 21
132.8
  0
LINE
  8
0
 10
397.5
 20
132.8
 11
397.475
 21
132.65
  0
LINE
  8
0
 10
397.475
 20
132.65
 11
397.5
 21
132.5
  0
LINE
  8
0
 10
397.5
 20
132.5
 11
397.475
 21
132.35
  0
LINE
  8
0
 10
397.475
 20
132.35
 11
397.5
 21
132.2
  0
LINE
  8
0
 10
397.5
 20
132.2
 11
397.475
 21
132.05
  0
LINE
  8
0
 10
397.475
 20
132.05
 11
397.5
 21
131.9
  0
LINE
  8
0
 10
397.5
 20
131.9
 11
397.475
 21
131.75
  0
LINE
  8
0
 10
397.475
 20
131.75
 11
397.5
 21
131.6
  0
LINE
  8
0
 10
397.5
 20
131.6
 11
397.475
 21
131.45
  0
LINE
  8
0
 10
397.475
 20
131.45
 11
397.5
 21
131.3
  0
LINE
  8
0
 10
397.5
 20
131.3
 11
397.475
 21
131.15
  0
LINE
  8
0
 10
397.475
 20
131.15
 11
397.5
 21
131
  0
LINE
  8
0
 10
397.5
 20
131
 11
397.475
 21
130.85
  0
LINE
  8
0
 10
397.475
 20
130.85
 11
397.5
 21
130.7
  0
LINE
  8
0
 10
397.5
 20
130.7
 11
397.475
 21
130.55
  0
LINE
  8
0
 10
397.475
 20
130.55
 11
397.5
 21
130.4
  0
LINE
  8
0
 10
397.5
 20
130.4
 11
397.475
 21
130.25
  0
LINE
  8
0
 10
397.475
 20
130.25
 11
397.5
 21
130.1
  0
LINE
  8
0
 10
397.5
 20
130.1
 11
397.475
 21
129.95
  0
LINE
  8
0
 10
397.475
 20
129.95
 11
397.5
 21
129.8
  0
LINE
  8
0
 10
397.5
 20
129.8
 11
397.475
 21
129.65
  0
LINE
  8
0
 10
397.475
 20
129.65
 11
397.5
 21
129.5
  0
LINE
  8
0
 10
397.5
 20
129.5
 11
397.475
 21
129.35
  0
LINE
  8
0
 10
397.475
 20
129.35
 11
397.5
 21
129.2
  0
LINE
  8
0
 10
397.5
 20
129.2
 11
397.475
 21
129.05
  0
LINE
  8
0
 10
397.475
 20
129.05
 11
397.5
 21
128.9
  0
LINE
  8
0
 10
397.5
 20
128.9
 11
397.475
 21
128.75
  0
LINE
  8
0
 10
397.475
 20
128.75
 11
397.5
 21
128.6
  0
LINE
  8
0
 10
397.5
 20
128.6
 11
397.475
 21
128.45
  0
LINE
  8
0
 10
397.475
 20
128.45
 11
397.5
 21
128.3
  0
LINE
  8
0
 10
397.5
 20
128.3
 11
397.475
 21
128.15
  0
LINE
  8
0
 10
397.475
 20
128.15
 11
397.5
 21
128
  0
LINE
  8
0
 10
397.5
 20
128
 11
397.419
 21
127.513
  0
LINE
  8
0
 10
397.419
 20
127.513
 11
397.184
 21
127.079
  0
LINE
  8
0
 10
397.184
 20
127.079
 11
396.82
 21
126.744
  0
LINE
  8
0
 10
396.82
 20
126.744
 11
396.368
 21
126.546
  0
LINE
  8
0
 10
396.368
 20
126.546
 11
395.876
 21
126.505
  0
LINE
  8
0
 10
395.876
 20
126.505
 11
395.397
 21
126.626
  0
LINE
  8
0
 10
239.951
 20
100.068
 11
239.473
 21
100.208
  0
LINE
  8
0
 10
239.473
 20
100.208
 11
239.054
 21
100.477
  0
LINE
  8
0
 10
239.054
 20
100.477
 11
238.728
 21
100.854
  0
LINE
  8
0
 10
238.728
 20
100.854
 11
238.521
 21
101.307
  0
LINE
  8
0
 10
238.521
 20
101.307
 11
238.45
 21
101.8
  0
LINE
  8
0
 10
238.45
 20
101.8
 11
238.521
 21
102.293
  0
LINE
  8
0
 10
238.521
 20
102.293
 11
238.728
 21
102.746
  0
LINE
  8
0
 10
238.728
 20
102.746
 11
239.054
 21
103.123
  0
LINE
  8
0
 10
239.054
 20
103.123
 11
239.473
 21
103.392
  0
LINE
  8
0
 10
239.473
 20
103.392
 11
239.951
 21
103.532
  0
LINE
  8
0
 10
239.951
 20
103.532
 11
244.949
 21
103.532
  0
LINE
  8
0
 10
244.949
 20
103.532
 11
245.427
 21
103.392
  0
LINE
  8
0
 10
245.427
 20
103.392
 11
245.846
 21
103.123
  0
LINE
  8
0
 10
245.846
 20
103.123
 11
246.172
 21
102.746
  0
LINE
  8
0
 10
246.172
 20
102.746
 11
246.379
 21
102.293
  0
LINE
  8
0
 10
246.379
 20
102.293
 11
246.45
 21
101.8
  0
LINE
  8
0
 10
246.45
 20
101.8
 11
246.379
 21
101.307
  0
LINE
  8
0
 10
246.379
 20
101.307
 11
246.172
 21
100.854
  0
LINE
  8
0
 10
246.172
 20
100.854
 11
245.846
 21
100.477
  0
LINE
  8
0
 10
245.846
 20
100.477
 11
245.427
 21
100.208
  0
LINE
  8
0
 10
245.427
 20
100.208
 11
244.949
 21
100.068
  0
LINE
  8
0
 10
244.949
 20
100.068
 11
239.951
 21
100.068
  0
LINE
  8
0
 10
130.751
 20
80.2678
 11
130.273
 21
80.4081
  0
LINE
  8
0
 10
130.273
 20
80.4081
 11
129.854
 21
80.6774
  0
LINE
  8
0
 10
129.854
 20
80.6774
 11
129.528
 21
81.0539
  0
LINE
  8
0
 10
129.528
 20
81.0539
 11
129.321
 21
81.507
  0
LINE
  8
0
 10
129.321
 20
81.507
 11
129.25
 21
82
  0
LINE
  8
0
 10
129.25
 20
82
 11
129.321
 21
82.493
  0
LINE
  8
0
 10
129.321
 20
82.493
 11
129.528
 21
82.9461
  0
LINE
  8
0
 10
129.528
 20
82.9461
 11
129.854
 21
83.3226
  0
LINE
  8
0
 10
129.854
 20
83.3226
 11
130.273
 21
83.5918
  0
LINE
  8
0
 10
130.273
 20
83.5918
 11
130.751
 21
83.7322
  0
LINE
  8
0
 10
130.751
 20
83.7322
 11
135.749
 21
83.7322
  0
LINE
  8
0
 10
135.749
 20
83.7322
 11
136.227
 21
83.5918
  0
LINE
  8
0
 10
136.227
 20
83.5918
 11
136.646
 21
83.3226
  0
LINE
  8
0
 10
136.646
 20
83.3226
 11
136.972
 21
82.9461
  0
LINE
  8
0
 10
136.972
 20
82.9461
 11
137.179
 21
82.493
  0
LINE
  8
0
 10
137.179
 20
82.493
 11
137.25
 21
82
  0
LINE
  8
0
 10
137.25
 20
82
 11
137.179
 21
81.507
  0
LINE
  8
0
 10
137.179
 20
81.507
 11
136.972
 21
81.0539
  0
LINE
  8
0
 10
136.972
 20
81.0539
 11
136.646
 21
80.6774
  0
LINE
  8
0
 10
136.646
 20
80.6774
 11
136.227
 21
80.4081
  0
LINE
  8
0
 10
136.227
 20
80.4081
 11
135.749
 21
80.2678
  0
LINE
  8
0
 10
135.749
 20
80.2678
 11
130.751
 21
80.2678
  0
LINE
  8
0
 10
338.398
 20
80.6767
 11
338.325
 21
80.6557
  0
LINE
  8
0
 10
338.325
 20
80.6557
 11
338.098
 21
80.6767
  0
LINE
  8
0
 10
338.098
 20
80.6767
 11
338.025
 21
80.6557
  0
LINE
  8
0
 10
338.025
 20
80.6557
 11
337.798
 21
80.6767
  0
LINE
  8
0
 10
337.798
 20
80.6767
 11
337.725
 21
80.6557
  0
LINE
  8
0
 10
337.725
 20
80.6557
 11
337.498
 21
80.6767
  0
LINE
  8
0
 10
337.498
 20
80.6767
 11
337.425
 21
80.6557
  0
LINE
  8
0
 10
337.425
 20
80.6557
 11
337.198
 21
80.6767
  0
LINE
  8
0
 10
337.198
 20
80.6767
 11
337.125
 21
80.6557
  0
LINE
  8
0
 10
337.125
 20
80.6557
 11
336.898
 21
80.6767
  0
LINE
  8
0
 10
336.898
 20
80.6767
 11
336.825
 21
80.6557
  0
LINE
  8
0
 10
336.825
 20
80.6557
 11
336.598
 21
80.6767
  0
LINE
  8
0
 10
336.598
 20
80.6767
 11
336.525
 21
80.6557
  0
LINE
  8
0
 10
336.525
 20
80.6557
 11
336.298
 21
80.6767
  0
LINE
  8
0
 10
336.298
 20
80.6767
 11
336.225
 21
80.6557
  0
LINE
  8
0
 10
336.225
 20
80.6557
 11
335.998
 21
80.6767
  0
LINE
  8
0
 10
335.998
 20
80.6767
 11
335.925
 21
80.6557
  0
LINE
  8
0
 10
335.925
 20
80.6557
 11
335.698
 21
80.6767
  0
LINE
  8
0
 10
335.698
 20
80.6767
 11
335.625
 21
80.6557
  0
LINE
  8
0
 10
335.625
 20
80.6557
 11
335.398
 21
80.6767
  0
LINE
  8
0
 10
335.398
 20
80.6767
 11
335.325
 21
80.6557
  0
LINE
  8
0
 10
335.325
 20
80.6557
 11
335.098
 21
80.6767
  0
LINE
  8
0
 10
335.098
 20
80.6767
 11
335.025
 21
80.6557
  0
LINE
  8
0
 10
335.025
 20
80.6557
 11
334.798
 21
80.6767
  0
LINE
  8
0
 10
334.798
 20
80.6767
 11
334.725
 21
80.6557
  0
LINE
  8
0
 10
334.725
 20
80.6557
 11
334.498
 21
80.6767
  0
LINE
  8
0
 10
334.498
 20
80.6767
 11
334.425
 21
80.6557
  0
LINE
  8
0
 10
334.425
 20
80.6557
 11
334.198
 21
80.6767
  0
LINE
  8
0
 10
334.198
 20
80.6767
 11
334.125
 21
80.6557
  0
LINE
  8
0
 10
334.125
 20
80.6557
 11
333.631
 21
80.7015
  0
LINE
  8
0
 10
333.631
 20
80.7015
 11
333.186
 21
80.9227
  0
LINE
  8
0
 10
333.186
 20
80.9227
 11
332.852
 21
81.2893
  0
LINE
  8
0
 10
332.852
 20
81.2893
 11
332.673
 21
81.7519
  0
LINE
  8
0
 10
332.673
 20
81.7519
 11
332.673
 21
82.248
  0
LINE
  8
0
 10
332.673
 20
82.248
 11
332.852
 21
82.7107
  0
LINE
  8
0
 10
332.852
 20
82.7107
 11
333.186
 21
83.0773
  0
LINE
  8
0
 10
333.186
 20
83.0773
 11
333.631
 21
83.2985
  0
LINE
  8
0
 10
333.631
 20
83.2985
 11
334.125
 21
83.3442
  0
LINE
  8
0
 10
334.125
 20
83.3442
 11
334.198
 21
83.3233
  0
LINE
  8
0
 10
334.198
 20
83.3233
 11
334.425
 21
83.3442
  0
LINE
  8
0
 10
334.425
 20
83.3442
 11
334.498
 21
83.3233
  0
LINE
  8
0
 10
334.498
 20
83.3233
 11
334.725
 21
83.3442
  0
LINE
  8
0
 10
334.725
 20
83.3442
 11
334.798
 21
83.3233
  0
LINE
  8
0
 10
334.798
 20
83.3233
 11
335.025
 21
83.3442
  0
LINE
  8
0
 10
335.025
 20
83.3442
 11
335.098
 21
83.3233
  0
LINE
  8
0
 10
335.098
 20
83.3233
 11
335.325
 21
83.3442
  0
LINE
  8
0
 10
335.325
 20
83.3442
 11
335.398
 21
83.3233
  0
LINE
  8
0
 10
335.398
 20
83.3233
 11
335.625
 21
83.3442
  0
LINE
  8
0
 10
335.625
 20
83.3442
 11
335.698
 21
83.3233
  0
LINE
  8
0
 10
335.698
 20
83.3233
 11
335.925
 21
83.3442
  0
LINE
  8
0
 10
335.925
 20
83.3442
 11
335.998
 21
83.3233
  0
LINE
  8
0
 10
335.998
 20
83.3233
 11
336.225
 21
83.3442
  0
LINE
  8
0
 10
336.225
 20
83.3442
 11
336.298
 21
83.3233
  0
LINE
  8
0
 10
336.298
 20
83.3233
 11
336.525
 21
83.3442
  0
LINE
  8
0
 10
336.525
 20
83.3442
 11
336.598
 21
83.3233
  0
LINE
  8
0
 10
336.598
 20
83.3233
 11
336.825
 21
83.3442
  0
LINE
  8
0
 10
336.825
 20
83.3442
 11
336.898
 21
83.3233
  0
LINE
  8
0
 10
336.898
 20
83.3233
 11
337.125
 21
83.3442
  0
LINE
  8
0
 10
337.125
 20
83.3442
 11
337.198
 21
83.3233
  0
LINE
  8
0
 10
337.198
 20
83.3233
 11
337.425
 21
83.3442
  0
LINE
  8
0
 10
337.425
 20
83.3442
 11
337.498
 21
83.3233
  0
LINE
  8
0
 10
337.498
 20
83.3233
 11
337.725
 21
83.3442
  0
LINE
  8
0
 10
337.725
 20
83.3442
 11
337.798
 21
83.3233
  0
LINE
  8
0
 10
337.798
 20
83.3233
 11
338.025
 21
83.3442
  0
LINE
  8
0
 10
338.025
 20
83.3442
 11
338.098
 21
83.3233
  0
LINE
  8
0
 10
338.098
 20
83.3233
 11
338.325
 21
83.3442
  0
LINE
  8
0
 10
338.325
 20
83.3442
 11
338.398
 21
83.3233
  0
LINE
  8
0
 10
338.398
 20
83.3233
 11
338.625
 21
83.3442
  0
LINE
  8
0
 10
338.625
 20
83.3442
 11
339.102
 21
83.2085
  0
LINE
  8
0
 10
339.102
 20
83.2085
 11
339.498
 21
82.9095
  0
LINE
  8
0
 10
339.498
 20
82.9095
 11
339.759
 21
82.4877
  0
LINE
  8
0
 10
339.759
 20
82.4877
 11
339.85
 21
82
  0
LINE
  8
0
 10
339.85
 20
82
 11
339.759
 21
81.5123
  0
LINE
  8
0
 10
339.759
 20
81.5123
 11
339.498
 21
81.0905
  0
LINE
  8
0
 10
339.498
 20
81.0905
 11
339.102
 21
80.7915
  0
LINE
  8
0
 10
339.102
 20
80.7915
 11
338.625
 21
80.6557
  0
LINE
  8
0
 10
338.625
 20
80.6557
 11
338.398
 21
80.6767
  0
LINE
  8
0
 10
361.398
 20
80.6767
 11
361.325
 21
80.6557
  0
LINE
  8
0
 10
361.325
 20
80.6557
 11
361.098
 21
80.6767
  0
LINE
  8
0
 10
361.098
 20
80.6767
 11
361.025
 21
80.6557
  0
LINE
  8
0
 10
361.025
 20
80.6557
 11
360.798
 21
80.6767
  0
LINE
  8
0
 10
360.798
 20
80.6767
 11
360.725
 21
80.6557
  0
LINE
  8
0
 10
360.725
 20
80.6557
 11
360.498
 21
80.6767
  0
LINE
  8
0
 10
360.498
 20
80.6767
 11
360.425
 21
80.6557
  0
LINE
  8
0
 10
360.425
 20
80.6557
 11
360.198
 21
80.6767
  0
LINE
  8
0
 10
360.198
 20
80.6767
 11
360.125
 21
80.6557
  0
LINE
  8
0
 10
360.125
 20
80.6557
 11
359.898
 21
80.6767
  0
LINE
  8
0
 10
359.898
 20
80.6767
 11
359.825
 21
80.6557
  0
LINE
  8
0
 10
359.825
 20
80.6557
 11
359.598
 21
80.6767
  0
LINE
  8
0
 10
359.598
 20
80.6767
 11
359.525
 21
80.6557
  0
LINE
  8
0
 10
359.525
 20
80.6557
 11
359.298
 21
80.6767
  0
LINE
  8
0
 10
359.298
 20
80.6767
 11
359.225
 21
80.6557
  0
LINE
  8
0
 10
359.225
 20
80.6557
 11
358.998
 21
80.6767
  0
LINE
  8
0
 10
358.998
 20
80.6767
 11
358.925
 21
80.6557
  0
LINE
  8
0
 10
358.925
 20
80.6557
 11
358.698
 21
80.6767
  0
LINE
  8
0
 10
358.698
 20
80.6767
 11
358.625
 21
80.6557
  0
LINE
  8
0
 10
358.625
 20
80.6557
 11
358.398
 21
80.6767
  0
LINE
  8
0
 10
358.398
 20
80.6767
 11
358.325
 21
80.6557
  0
LINE
  8
0
 10
358.325
 20
80.6557
 11
358.098
 21
80.6767
  0
LINE
  8
0
 10
358.098
 20
80.6767
 11
358.025
 21
80.6557
  0
LINE
  8
0
 10
358.025
 20
80.6557
 11
357.798
 21
80.6767
  0
LINE
  8
0
 10
357.798
 20
80.6767
 11
357.725
 21
80.6557
  0
LINE
  8
0
 10
357.725
 20
80.6557
 11
357.498
 21
80.6767
  0
LINE
  8
0
 10
357.498
 20
80.6767
 11
357.425
 21
80.6557
  0
LINE
  8
0
 10
357.425
 20
80.6557
 11
357.198
 21
80.6767
  0
LINE
  8
0
 10
357.198
 20
80.6767
 11
357.125
 21
80.6557
  0
LINE
  8
0
 10
357.125
 20
80.6557
 11
356.631
 21
80.7015
  0
LINE
  8
0
 10
356.631
 20
80.7015
 11
356.186
 21
80.9227
  0
LINE
  8
0
 10
356.186
 20
80.9227
 11
355.852
 21
81.2893
  0
LINE
  8
0
 10
355.852
 20
81.2893
 11
355.673
 21
81.7519
  0
LINE
  8
0
 10
355.673
 20
81.7519
 11
355.673
 21
82.248
  0
LINE
  8
0
 10
355.673
 20
82.248
 11
355.852
 21
82.7107
  0
LINE
  8
0
 10
355.852
 20
82.7107
 11
356.186
 21
83.0773
  0
LINE
  8
0
 10
356.186
 20
83.0773
 11
356.631
 21
83.2985
  0
LINE
  8
0
 10
356.631
 20
83.2985
 11
357.125
 21
83.3442
  0
LINE
  8
0
 10
357.125
 20
83.3442
 11
357.198
 21
83.3233
  0
LINE
  8
0
 10
357.198
 20
83.3233
 11
357.425
 21
83.3442
  0
LINE
  8
0
 10
357.425
 20
83.3442
 11
357.498
 21
83.3233
  0
LINE
  8
0
 10
357.498
 20
83.3233
 11
357.725
 21
83.3442
  0
LINE
  8
0
 10
357.725
 20
83.3442
 11
357.798
 21
83.3233
  0
LINE
  8
0
 10
357.798
 20
83.3233
 11
358.025
 21
83.3442
  0
LINE
  8
0
 10
358.025
 20
83.3442
 11
358.098
 21
83.3233
  0
LINE
  8
0
 10
358.098
 20
83.3233
 11
358.325
 21
83.3442
  0
LINE
  8
0
 10
358.325
 20
83.3442
 11
358.398
 21
83.3233
  0
LINE
  8
0
 10
358.398
 20
83.3233
 11
358.625
 21
83.3442
  0
LINE
  8
0
 10
358.625
 20
83.3442
 11
358.698
 21
83.3233
  0
LINE
  8
0
 10
358.698
 20
83.3233
 11
358.925
 21
83.3442
  0
LINE
  8
0
 10
358.925
 20
83.3442
 11
358.998
 21
83.3233
  0
LINE
  8
0
 10
358.998
 20
83.3233
 11
359.225
 21
83.3442
  0
LINE
  8
0
 10
359.225
 20
83.3442
 11
359.298
 21
83.3233
  0
LINE
  8
0
 10
359.298
 20
83.3233
 11
359.525
 21
83.3442
  0
LINE
  8
0
 10
359.525
 20
83.3442
 11
359.598
 21
83.3233
  0
LINE
  8
0
 10
359.598
 20
83.3233
 11
359.825
 21
83.3442
  0
LINE
  8
0
 10
359.825
 20
83.3442
 11
359.898
 21
83.3233
  0
LINE
  8
0
 10
359.898
 20
83.3233
 11
360.125
 21
83.3442
  0
LINE
  8
0
 10
360.125
 20
83.3442
 11
360.198
 21
83.3233
  0
LINE
  8
0
 10
360.198
 20
83.3233
 11
360.425
 21
83.3442
  0
LINE
  8
0
 10
360.425
 20
83.3442
 11
360.498
 21
83.3233
  0
LINE
  8
0
 10
360.498
 20
83.3233
 11
360.725
 21
83.3442
  0
LINE
  8
0
 10
360.725
 20
83.3442
 11
360.798
 21
83.3233
  0
LINE
  8
0
 10
360.798
 20
83.3233
 11
361.025
 21
83.3442
  0
LINE
  8
0
 10
361.025
 20
83.3442
 11
361.098
 21
83.3233
  0
LINE
  8
0
 10
361.098
 20
83.3233
 11
361.325
 21
83.3442
  0
LINE
  8
0
 10
361.325
 20
83.3442
 11
361.398
 21
83.3233
  0
LINE
  8
0
 10
361.398
 20
83.3233
 11
361.625
 21
83.3442
  0
LINE
  8
0
 10
361.625
 20
83.3442
 11
362.102
 21
83.2085
  0
LINE
  8
0
 10
362.102
 20
83.2085
 11
362.498
 21
82.9095
  0
LINE
  8
0
 10
362.498
 20
82.9095
 11
362.759
 21
82.4877
  0
LINE
  8
0
 10
362.759
 20
82.4877
 11
362.85
 21
82
  0
LINE
  8
0
 10
362.85
 20
82
 11
362.759
 21
81.5123
  0
LINE
  8
0
 10
362.759
 20
81.5123
 11
362.498
 21
81.0905
  0
LINE
  8
0
 10
362.498
 20
81.0905
 11
362.102
 21
80.7915
  0
LINE
  8
0
 10
362.102
 20
80.7915
 11
361.625
 21
80.6557
  0
LINE
  8
0
 10
361.625
 20
80.6557
 11
361.398
 21
80.6767
  0
LINE
  8
0
 10
312.398
 20
80.6767
 11
312.325
 21
80.6557
  0
LINE
  8
0
 10
312.325
 20
80.6557
 11
312.098
 21
80.6767
  0
LINE
  8
0
 10
312.098
 20
80.6767
 11
312.025
 21
80.6557
  0
LINE
  8
0
 10
312.025
 20
80.6557
 11
311.798
 21
80.6767
  0
LINE
  8
0
 10
311.798
 20
80.6767
 11
311.725
 21
80.6557
  0
LINE
  8
0
 10
311.725
 20
80.6557
 11
311.498
 21
80.6767
  0
LINE
  8
0
 10
311.498
 20
80.6767
 11
311.425
 21
80.6557
  0
LINE
  8
0
 10
311.425
 20
80.6557
 11
311.198
 21
80.6767
  0
LINE
  8
0
 10
311.198
 20
80.6767
 11
311.125
 21
80.6557
  0
LINE
  8
0
 10
311.125
 20
80.6557
 11
310.898
 21
80.6767
  0
LINE
  8
0
 10
310.898
 20
80.6767
 11
310.825
 21
80.6557
  0
LINE
  8
0
 10
310.825
 20
80.6557
 11
310.598
 21
80.6767
  0
LINE
  8
0
 10
310.598
 20
80.6767
 11
310.525
 21
80.6557
  0
LINE
  8
0
 10
310.525
 20
80.6557
 11
310.298
 21
80.6767
  0
LINE
  8
0
 10
310.298
 20
80.6767
 11
310.225
 21
80.6557
  0
LINE
  8
0
 10
310.225
 20
80.6557
 11
309.998
 21
80.6767
  0
LINE
  8
0
 10
309.998
 20
80.6767
 11
309.925
 21
80.6557
  0
LINE
  8
0
 10
309.925
 20
80.6557
 11
309.698
 21
80.6767
  0
LINE
  8
0
 10
309.698
 20
80.6767
 11
309.625
 21
80.6557
  0
LINE
  8
0
 10
309.625
 20
80.6557
 11
309.398
 21
80.6767
  0
LINE
  8
0
 10
309.398
 20
80.6767
 11
309.325
 21
80.6557
  0
LINE
  8
0
 10
309.325
 20
80.6557
 11
309.098
 21
80.6767
  0
LINE
  8
0
 10
309.098
 20
80.6767
 11
309.025
 21
80.6557
  0
LINE
  8
0
 10
309.025
 20
80.6557
 11
308.798
 21
80.6767
  0
LINE
  8
0
 10
308.798
 20
80.6767
 11
308.725
 21
80.6557
  0
LINE
  8
0
 10
308.725
 20
80.6557
 11
308.498
 21
80.6767
  0
LINE
  8
0
 10
308.498
 20
80.6767
 11
308.425
 21
80.6557
  0
LINE
  8
0
 10
308.425
 20
80.6557
 11
308.198
 21
80.6767
  0
LINE
  8
0
 10
308.198
 20
80.6767
 11
308.125
 21
80.6557
  0
LINE
  8
0
 10
308.125
 20
80.6557
 11
307.631
 21
80.7015
  0
LINE
  8
0
 10
307.631
 20
80.7015
 11
307.186
 21
80.9227
  0
LINE
  8
0
 10
307.186
 20
80.9227
 11
306.852
 21
81.2893
  0
LINE
  8
0
 10
306.852
 20
81.2893
 11
306.673
 21
81.7519
  0
LINE
  8
0
 10
306.673
 20
81.7519
 11
306.673
 21
82.248
  0
LINE
  8
0
 10
306.673
 20
82.248
 11
306.852
 21
82.7107
  0
LINE
  8
0
 10
306.852
 20
82.7107
 11
307.186
 21
83.0773
  0
LINE
  8
0
 10
307.186
 20
83.0773
 11
307.631
 21
83.2985
  0
LINE
  8
0
 10
307.631
 20
83.2985
 11
308.125
 21
83.3442
  0
LINE
  8
0
 10
308.125
 20
83.3442
 11
308.198
 21
83.3233
  0
LINE
  8
0
 10
308.198
 20
83.3233
 11
308.425
 21
83.3442
  0
LINE
  8
0
 10
308.425
 20
83.3442
 11
308.498
 21
83.3233
  0
LINE
  8
0
 10
308.498
 20
83.3233
 11
308.725
 21
83.3442
  0
LINE
  8
0
 10
308.725
 20
83.3442
 11
308.798
 21
83.3233
  0
LINE
  8
0
 10
308.798
 20
83.3233
 11
309.025
 21
83.3442
  0
LINE
  8
0
 10
309.025
 20
83.3442
 11
309.098
 21
83.3233
  0
LINE
  8
0
 10
309.098
 20
83.3233
 11
309.325
 21
83.3442
  0
LINE
  8
0
 10
309.325
 20
83.3442
 11
309.398
 21
83.3233
  0
LINE
  8
0
 10
309.398
 20
83.3233
 11
309.625
 21
83.3442
  0
LINE
  8
0
 10
309.625
 20
83.3442
 11
309.698
 21
83.3233
  0
LINE
  8
0
 10
309.698
 20
83.3233
 11
309.925
 21
83.3442
  0
LINE
  8
0
 10
309.925
 20
83.3442
 11
309.998
 21
83.3233
  0
LINE
  8
0
 10
309.998
 20
83.3233
 11
310.225
 21
83.3442
  0
LINE
  8
0
 10
310.225
 20
83.3442
 11
310.298
 21
83.3233
  0
LINE
  8
0
 10
310.298
 20
83.3233
 11
310.525
 21
83.3442
  0
LINE
  8
0
 10
310.525
 20
83.3442
 11
310.598
 21
83.3233
  0
LINE
  8
0
 10
310.598
 20
83.3233
 11
310.825
 21
83.3442
  0
LINE
  8
0
 10
310.825
 20
83.3442
 11
310.898
 21
83.3233
  0
LINE
  8
0
 10
310.898
 20
83.3233
 11
311.125
 21
83.3442
  0
LINE
  8
0
 10
311.125
 20
83.3442
 11
311.198
 21
83.3233
  0
LINE
  8
0
 10
311.198
 20
83.3233
 11
311.425
 21
83.3442
  0
LINE
  8
0
 10
311.425
 20
83.3442
 11
311.498
 21
83.3233
  0
LINE
  8
0
 10
311.498
 20
83.3233
 11
311.725
 21
83.3442
  0
LINE
  8
0
 10
311.725
 20
83.3442
 11
311.798
 21
83.3233
  0
LINE
  8
0
 10
311.798
 20
83.3233
 11
312.025
 21
83.3442
  0
LINE
  8
0
 10
312.025
 20
83.3442
 11
312.098
 21
83.3233
  0
LINE
  8
0
 10
312.098
 20
83.3233
 11
312.325
 21
83.3442
  0
LINE
  8
0
 10
312.325
 20
83.3442
 11
312.398
 21
83.3233
  0
LINE
  8
0
 10
312.398
 20
83.3233
 11
312.625
 21
83.3442
  0
LINE
  8
0
 10
312.625
 20
83.3442
 11
313.102
 21
83.2085
  0
LINE
  8
0
 10
313.102
 20
83.2085
 11
313.498
 21
82.9095
  0
LINE
  8
0
 10
313.498
 20
82.9095
 11
313.759
 21
82.4877
  0
LINE
  8
0
 10
313.759
 20
82.4877
 11
313.85
 21
82
  0
LINE
  8
0
 10
313.85
 20
82
 11
313.759
 21
81.5123
  0
LINE
  8
0
 10
313.759
 20
81.5123
 11
313.498
 21
81.0905
  0
LINE
  8
0
 10
313.498
 20
81.0905
 11
313.102
 21
80.7915
  0
LINE
  8
0
 10
313.102
 20
80.7915
 11
312.625
 21
80.6557
  0
LINE
  8
0
 10
312.625
 20
80.6557
 11
312.398
 21
80.6767
  0
LINE
  8
0
 10
395.397
 20
61.6263
 11
394.984
 21
61.8964
  0
LINE
  8
0
 10
394.984
 20
61.8964
 11
394.681
 21
62.2861
  0
LINE
  8
0
 10
394.681
 20
62.2861
 11
394.52
 21
62.7531
  0
LINE
  8
0
 10
394.52
 20
62.7531
 11
394.52
 21
72.2469
  0
LINE
  8
0
 10
394.52
 20
72.2469
 11
394.681
 21
72.7139
  0
LINE
  8
0
 10
394.681
 20
72.7139
 11
394.984
 21
73.1036
  0
LINE
  8
0
 10
394.984
 20
73.1036
 11
395.397
 21
73.3737
  0
LINE
  8
0
 10
395.397
 20
73.3737
 11
395.876
 21
73.4949
  0
LINE
  8
0
 10
395.876
 20
73.4949
 11
396.368
 21
73.4541
  0
LINE
  8
0
 10
396.368
 20
73.4541
 11
396.82
 21
73.2557
  0
LINE
  8
0
 10
396.82
 20
73.2557
 11
397.184
 21
72.9213
  0
LINE
  8
0
 10
397.184
 20
72.9213
 11
397.419
 21
72.487
  0
LINE
  8
0
 10
397.419
 20
72.487
 11
397.5
 21
72
  0
LINE
  8
0
 10
397.5
 20
72
 11
397.475
 21
71.85
  0
LINE
  8
0
 10
397.475
 20
71.85
 11
397.5
 21
71.7
  0
LINE
  8
0
 10
397.5
 20
71.7
 11
397.475
 21
71.55
  0
LINE
  8
0
 10
397.475
 20
71.55
 11
397.5
 21
71.4
  0
LINE
  8
0
 10
397.5
 20
71.4
 11
397.475
 21
71.25
  0
LINE
  8
0
 10
397.475
 20
71.25
 11
397.5
 21
71.1
  0
LINE
  8
0
 10
397.5
 20
71.1
 11
397.475
 21
70.95
  0
LINE
  8
0
 10
397.475
 20
70.95
 11
397.5
 21
70.8
  0
LINE
  8
0
 10
397.5
 20
70.8
 11
397.475
 21
70.65
  0
LINE
  8
0
 10
397.475
 20
70.65
 11
397.5
 21
70.5
  0
LINE
  8
0
 10
397.5
 20
70.5
 11
397.475
 21
70.35
  0
LINE
  8
0
 10
397.475
 20
70.35
 11
397.5
 21
70.2
  0
LINE
  8
0
 10
397.5
 20
70.2
 11
397.475
 21
70.05
  0
LINE
  8
0
 10
397.475
 20
70.05
 11
397.5
 21
69.9
  0
LINE
  8
0
 10
397.5
 20
69.9
 11
397.475
 21
69.75
  0
LINE
  8
0
 10
397.475
 20
69.75
 11
397.5
 21
69.6
  0
LINE
  8
0
 10
397.5
 20
69.6
 11
397.475
 21
69.45
  0
LINE
  8
0
 10
397.475
 20
69.45
 11
397.5
 21
69.3
  0
LINE
  8
0
 10
397.5
 20
69.3
 11
397.475
 21
69.15
  0
LINE
  8
0
 10
397.475
 20
69.15
 11
397.5
 21
69
  0
LINE
  8
0
 10
397.5
 20
69
 11
397.475
 21
68.85
  0
LINE
  8
0
 10
397.475
 20
68.85
 11
397.5
 21
68.7
  0
LINE
  8
0
 10
397.5
 20
68.7
 11
397.475
 21
68.55
  0
LINE
  8
0
 10
397.475
 20
68.55
 11
397.5
 21
68.4
  0
LINE
  8
0
 10
397.5
 20
68.4
 11
397.475
 21
68.25
  0
LINE
  8
0
 10
397.475
 20
68.25
 11
397.5
 21
68.1
  0
LINE
  8
0
 10
397.5
 20
68.1
 11
397.475
 21
67.95
  0
LINE
  8
0
 10
397.475
 20
67.95
 11
397.5
 21
67.8
  0
LINE
  8
0
 10
397.5
 20
67.8
 11
397.475
 21
67.65
  0
LINE
  8
0
 10
397.475
 20
67.65
 11
397.5
 21
67.5
  0
LINE
  8
0
 10
397.5
 20
67.5
 11
397.475
 21
67.35
  0
LINE
  8
0
 10
397.475
 20
67.35
 11
397.5
 21
67.2
  0
LINE
  8
0
 10
397.5
 20
67.2
 11
397.475
 21
67.05
  0
LINE
  8
0
 10
397.475
 20
67.05
 11
397.5
 21
66.9
  0
LINE
  8
0
 10
397.5
 20
66.9
 11
397.475
 21
66.75
  0
LINE
  8
0
 10
397.475
 20
66.75
 11
397.5
 21
66.6
  0
LINE
  8
0
 10
397.5
 20
66.6
 11
397.475
 21
66.45
  0
LINE
  8
0
 10
397.475
 20
66.45
 11
397.5
 21
66.3
  0
LINE
  8
0
 10
397.5
 20
66.3
 11
397.475
 21
66.15
  0
LINE
  8
0
 10
397.475
 20
66.15
 11
397.5
 21
66
  0
LINE
  8
0
 10
397.5
 20
66
 11
397.475
 21
65.85
  0
LINE
  8
0
 10
397.475
 20
65.85
 11
397.5
 21
65.7
  0
LINE
  8
0
 10
397.5
 20
65.7
 11
397.475
 21
65.55
  0
LINE
  8
0
 10
397.475
 20
65.55
 11
397.5
 21
65.4
  0
LINE
  8
0
 10
397.5
 20
65.4
 11
397.475
 21
65.25
  0
LINE
  8
0
 10
397.475
 20
65.25
 11
397.5
 21
65.1
  0
LINE
  8
0
 10
397.5
 20
65.1
 11
397.475
 21
64.95
  0
LINE
  8
0
 10
397.475
 20
64.95
 11
397.5
 21
64.8
  0
LINE
  8
0
 10
397.5
 20
64.8
 11
397.475
 21
64.65
  0
LINE
  8
0
 10
397.475
 20
64.65
 11
397.5
 21
64.5
  0
LINE
  8
0
 10
397.5
 20
64.5
 11
397.475
 21
64.35
  0
LINE
  8
0
 10
397.475
 20
64.35
 11
397.5
 21
64.2
  0
LINE
  8
0
 10
397.5
 20
64.2
 11
397.475
 21
64.05
  0
LINE
  8
0
 10
397.475
 20
64.05
 11
397.5
 21
63.9
  0
LINE
  8
0
 10
397.5
 20
63.9
 11
397.475
 21
63.75
  0
LINE
  8
0
 10
397.475
 20
63.75
 11
397.5
 21
63.6
  0
LINE
  8
0
 10
397.5
 20
63.6
 11
397.475
 21
63.45
  0
LINE
  8
0
 10
397.475
 20
63.45
 11
397.5
 21
63.3
  0
LINE
  8
0
 10
397.5
 20
63.3
 11
397.475
 21
63.15
  0
LINE
  8
0
 10
397.475
 20
63.15
 11
397.5
 21
63
  0
LINE
  8
0
 10
397.5
 20
63
 11
397.419
 21
62.5129
  0
LINE
  8
0
 10
397.419
 20
62.5129
 11
397.184
 21
62.0787
  0
LINE
  8
0
 10
397.184
 20
62.0787
 11
396.82
 21
61.7442
  0
LINE
  8
0
 10
396.82
 20
61.7442
 11
396.368
 21
61.5459
  0
LINE
  8
0
 10
396.368
 20
61.5459
 11
395.876
 21
61.5051
  0
LINE
  8
0
 10
395.876
 20
61.5051
 11
395.397
 21
61.6263
  0
LINE
  8
0
 10
481.397
 20
61.6263
 11
480.984
 21
61.8964
  0
LINE
  8
0
 10
480.984
 20
61.8964
 11
480.681
 21
62.2861
  0
LINE
  8
0
 10
480.681
 20
62.2861
 11
480.52
 21
62.7531
  0
LINE
  8
0
 10
480.52
 20
62.7531
 11
480.52
 21
72.2469
  0
LINE
  8
0
 10
480.52
 20
72.2469
 11
480.681
 21
72.7139
  0
LINE
  8
0
 10
480.681
 20
72.7139
 11
480.984
 21
73.1036
  0
LINE
  8
0
 10
480.984
 20
73.1036
 11
481.397
 21
73.3737
  0
LINE
  8
0
 10
481.397
 20
73.3737
 11
481.876
 21
73.4949
  0
LINE
  8
0
 10
481.876
 20
73.4949
 11
482.368
 21
73.4541
  0
LINE
  8
0
 10
482.368
 20
73.4541
 11
482.82
 21
73.2557
  0
LINE
  8
0
 10
482.82
 20
73.2557
 11
483.184
 21
72.9213
  0
LINE
  8
0
 10
483.184
 20
72.9213
 11
483.419
 21
72.487
  0
LINE
  8
0
 10
483.419
 20
72.487
 11
483.5
 21
72
  0
LINE
  8
0
 10
483.5
 20
72
 11
483.475
 21
71.85
  0
LINE
  8
0
 10
483.475
 20
71.85
 11
483.5
 21
71.7
  0
LINE
  8
0
 10
483.5
 20
71.7
 11
483.475
 21
71.55
  0
LINE
  8
0
 10
483.475
 20
71.55
 11
483.5
 21
71.4
  0
LINE
  8
0
 10
483.5
 20
71.4
 11
483.475
 21
71.25
  0
LINE
  8
0
 10
483.475
 20
71.25
 11
483.5
 21
71.1
  0
LINE
  8
0
 10
483.5
 20
71.1
 11
483.475
 21
70.95
  0
LINE
  8
0
 10
483.475
 20
70.95
 11
483.5
 21
70.8
  0
LINE
  8
0
 10
483.5
 20
70.8
 11
483.475
 21
70.65
  0
LINE
  8
0
 10
483.475
 20
70.65
 11
483.5
 21
70.5
  0
LINE
  8
0
 10
483.5
 20
70.5
 11
483.475
 21
70.35
  0
LINE
  8
0
 10
483.475
 20
70.35
 11
483.5
 21
70.2
  0
LINE
  8
0
 10
483.5
 20
70.2
 11
483.475
 21
70.05
  0
LINE
  8
0
 10
483.475
 20
70.05
 11
483.5
 21
69.9
  0
LINE
  8
0
 10
483.5
 20
69.9
 11
483.475
 21
69.75
  0
LINE
  8
0
 10
483.475
 20
69.75
 11
483.5
 21
69.6
  0
LINE
  8
0
 10
483.5
 20
69.6
 11
483.475
 21
69.45
  0
LINE
  8
0
 10
483.475
 20
69.45
 11
483.5
 21
69.3
  0
LINE
  8
0
 10
483.5
 20
69.3
 11
483.475
 21
69.15
  0
LINE
  8
0
 10
483.475
 20
69.15
 11
483.5
 21
69
  0
LINE
  8
0
 10
483.5
 20
69
 11
483.475
 21
68.85
  0
LINE
  8
0
 10
483.475
 20
68.85
 11
483.5
 21
68.7
  0
LINE
  8
0
 10
483.5
 20
68.7
 11
483.475
 21
68.55
  0
LINE
  8
0
 10
483.475
 20
68.55
 11
483.5
 21
68.4
  0
LINE
  8
0
 10
483.5
 20
68.4
 11
483.475
 21
68.25
  0
LINE
  8
0
 10
483.475
 20
68.25
 11
483.5
 21
68.1
  0
LINE
  8
0
 10
483.5
 20
68.1
 11
483.475
 21
67.95
  0
LINE
  8
0
 10
483.475
 20
67.95
 11
483.5
 21
67.8
  0
LINE
  8
0
 10
483.5
 20
67.8
 11
483.475
 21
67.65
  0
LINE
  8
0
 10
483.475
 20
67.65
 11
483.5
 21
67.5
  0
LINE
  8
0
 10
483.5
 20
67.5
 11
483.475
 21
67.35
  0
LINE
  8
0
 10
483.475
 20
67.35
 11
483.5
 21
67.2
  0
LINE
  8
0
 10
483.5
 20
67.2
 11
483.475
 21
67.05
  0
LINE
  8
0
 10
483.475
 20
67.05
 11
483.5
 21
66.9
  0
LINE
  8
0
 10
483.5
 20
66.9
 11
483.475
 21
66.75
  0
LINE
  8
0
 10
483.475
 20
66.75
 11
483.5
 21
66.6
  0
LINE
  8
0
 10
483.5
 20
66.6
 11
483.475
 21
66.45
  0
LINE
  8
0
 10
483.475
 20
66.45
 11
483.5
 21
66.3
  0
LINE
  8
0
 10
483.5
 20
66.3
 11
483.475
 21
66.15
  0
LINE
  8
0
 10
483.475
 20
66.15
 11
483.5
 21
66
  0
LINE
  8
0
 10
483.5
 20
66
 11
483.475
 21
65.85
  0
LINE
  8
0
 10
483.475
 20
65.85
 11
483.5
 21
65.7
  0
LINE
  8
0
 10
483.5
 20
65.7
 11
483.475
 21
65.55
  0
LINE
  8
0
 10
483.475
 20
65.55
 11
483.5
 21
65.4
  0
LINE
  8
0
 10
483.5
 20
65.4
 11
483.475
 21
65.25
  0
LINE
  8
0
 10
483.475
 20
65.25
 11
483.5
 21
65.1
  0
LINE
  8
0
 10
483.5
 20
65.1
 11
483.475
 21
64.95
  0
LINE
  8
0
 10
483.475
 20
64.95
 11
483.5
 21
64.8
  0
LINE
  8
0
 10
483.5
 20
64.8
 11
483.475
 21
64.65
  0
LINE
  8
0
 10
483.475
 20
64.65
 11
483.5
 21
64.5
  0
LINE
  8
0
 10
483.5
 20
64.5
 11
483.475
 21
64.35
  0
LINE
  8
0
 10
483.475
 20
64.35
 11
483.5
 21
64.2
  0
LINE
  8
0
 10
483.5
 20
64.2
 11
483.475
 21
64.05
  0
LINE
  8
0
 10
483.475
 20
64.05
 11
483.5
 21
63.9
  0
LINE
  8
0
 10
483.5
 20
63.9
 11
483.475
 21
63.75
  0
LINE
  8
0
 10
483.475
 20
63.75
 11
483.5
 21
63.6
  0
LINE
  8
0
 10
483.5
 20
63.6
 11
483.475
 21
63.45
  0
LINE
  8
0
 10
483.475
 20
63.45
 11
483.5
 21
63.3
  0
LINE
  8
0
 10
483.5
 20
63.3
 11
483.475
 21
63.15
  0
LINE
  8
0
 10
483.475
 20
63.15
 11
483.5
 21
63
  0
LINE
  8
0
 10
483.5
 20
63
 11
483.419
 21
62.5129
  0
LINE
  8
0
 10
483.419
 20
62.5129
 11
483.184
 21
62.0787
  0
LINE
  8
0
 10
483.184
 20
62.0787
 11
482.82
 21
61.7442
  0
LINE
  8
0
 10
482.82
 20
61.7442
 11
482.368
 21
61.5459
  0
LINE
  8
0
 10
482.368
 20
61.5459
 11
481.876
 21
61.5051
  0
LINE
  8
0
 10
481.876
 20
61.5051
 11
481.397
 21
61.6263
  0
LINE
  8
0
 10
201.5
 20
54.5
 11
200.926
 21
54.6142
  0
LINE
  8
0
 10
200.926
 20
54.6142
 11
200.439
 21
54.9393
  0
LINE
  8
0
 10
200.439
 20
54.9393
 11
200.114
 21
55.426
  0
LINE
  8
0
 10
200.114
 20
55.426
 11
200
 21
56
  0
LINE
  8
0
 10
200
 20
56
 11
200.114
 21
56.574
  0
LINE
  8
0
 10
200.114
 20
56.574
 11
200.439
 21
57.0607
  0
LINE
  8
0
 10
200.439
 20
57.0607
 11
200.926
 21
57.3858
  0
LINE
  8
0
 10
200.926
 20
57.3858
 11
201.5
 21
57.5
  0
LINE
  8
0
 10
201.5
 20
57.5
 11
318.5
 21
57.5
  0
LINE
  8
0
 10
318.5
 20
57.5
 11
319.074
 21
57.3858
  0
LINE
  8
0
 10
319.074
 20
57.3858
 11
319.561
 21
57.0607
  0
LINE
  8
0
 10
319.561
 20
57.0607
 11
319.886
 21
56.574
  0
LINE
  8
0
 10
319.886
 20
56.574
 11
320
 21
56
  0
LINE
  8
0
 10
320
 20
56
 11
319.886
 21
55.426
  0
LINE
  8
0
 10
319.886
 20
55.426
 11
319.561
 21
54.9393
  0
LINE
  8
0
 10
319.561
 20
54.9393
 11
319.074
 21
54.6142
  0
LINE
  8
0
 10
319.074
 20
54.6142
 11
318.5
 21
54.5
  0
LINE
  8
0
 10
318.5
 20
54.5
 11
201.5
 21
54.5
  0
LINE
  8
0
 10
351.5
 20
54.5
 11
350.926
 21
54.6142
  0
LINE
  8
0
 10
350.926
 20
54.6142
 11
350.439
 21
54.9393
  0
LINE
  8
0
 10
350.439
 20
54.9393
 11
350.114
 21
55.426
  0
LINE
  8
0
 10
350.114
 20
55.426
 11
350
 21
56
  0
LINE
  8
0
 10
350
 20
56
 11
350.114
 21
56.574
  0
LINE
  8
0
 10
350.114
 20
56.574
 11
350.439
 21
57.0607
  0
LINE
  8
0
 10
350.439
 20
57.0607
 11
350.926
 21
57.3858
  0
LINE
  8
0
 10
350.926
 20
57.3858
 11
351.5
 21
57.5
  0
LINE
  8
0
 10
351.5
 20
57.5
 11
468.5
 21
57.5
  0
LINE
  8
0
 10
468.5
 20
57.5
 11
469.074
 21
57.3858
  0
LINE
  8
0
 10
469.074
 20
57.3858
 11
469.561
 21
57.0607
  0
LINE
  8
0
 10
469.561
 20
57.0607
 11
469.886
 21
56.574
  0
LINE
  8
0
 10
469.886
 20
56.574
 11
470
 21
56
  0
LINE
  8
0
 10
470
 20
56
 11
469.886
 21
55.426
  0
LINE
  8
0
 10
469.886
 20
55.426
 11
469.561
 21
54.9393
  0
LINE
  8
0
 10
469.561
 20
54.9393
 11
469.074
 21
54.6142
  0
LINE
  8
0
 10
469.074
 20
54.6142
 11
468.5
 21
54.5
  0
LINE
  8
0
 10
468.5
 20
54.5
 11
351.5
 21
54.5
  0
LINE
  8
0
 10
352.802
 20
38.5238
 11
352.576
 21
38.5051
  0
LINE
  8
0
 10
352.576
 20
38.5051
 11
352.502
 21
38.5238
  0
LINE
  8
0
 10
352.502
 20
38.5238
 11
352.276
 21
38.5051
  0
LINE
  8
0
 10
352.276
 20
38.5051
 11
352.202
 21
38.5238
  0
LINE
  8
0
 10
352.202
 20
38.5238
 11
351.976
 21
38.5051
  0
LINE
  8
0
 10
351.976
 20
38.5051
 11
351.902
 21
38.5238
  0
LINE
  8
0
 10
351.902
 20
38.5238
 11
351.676
 21
38.5051
  0
LINE
  8
0
 10
351.676
 20
38.5051
 11
351.602
 21
38.5238
  0
LINE
  8
0
 10
351.602
 20
38.5238
 11
351.376
 21
38.5051
  0
LINE
  8
0
 10
351.376
 20
38.5051
 11
351.302
 21
38.5238
  0
LINE
  8
0
 10
351.302
 20
38.5238
 11
351.076
 21
38.5051
  0
LINE
  8
0
 10
351.076
 20
38.5051
 11
351.002
 21
38.5238
  0
LINE
  8
0
 10
351.002
 20
38.5238
 11
350.776
 21
38.5051
  0
LINE
  8
0
 10
350.776
 20
38.5051
 11
350.702
 21
38.5238
  0
LINE
  8
0
 10
350.702
 20
38.5238
 11
350.476
 21
38.5051
  0
LINE
  8
0
 10
350.476
 20
38.5051
 11
350.402
 21
38.5238
  0
LINE
  8
0
 10
350.402
 20
38.5238
 11
350.176
 21
38.5051
  0
LINE
  8
0
 10
350.176
 20
38.5051
 11
350.102
 21
38.5238
  0
LINE
  8
0
 10
350.102
 20
38.5238
 11
349.876
 21
38.5051
  0
LINE
  8
0
 10
349.876
 20
38.5051
 11
349.802
 21
38.5238
  0
LINE
  8
0
 10
349.802
 20
38.5238
 11
349.576
 21
38.5051
  0
LINE
  8
0
 10
349.576
 20
38.5051
 11
349.502
 21
38.5238
  0
LINE
  8
0
 10
349.502
 20
38.5238
 11
349.276
 21
38.5051
  0
LINE
  8
0
 10
349.276
 20
38.5051
 11
349.202
 21
38.5238
  0
LINE
  8
0
 10
349.202
 20
38.5238
 11
348.976
 21
38.5051
  0
LINE
  8
0
 10
348.976
 20
38.5051
 11
348.902
 21
38.5238
  0
LINE
  8
0
 10
348.902
 20
38.5238
 11
348.676
 21
38.5051
  0
LINE
  8
0
 10
348.676
 20
38.5051
 11
348.602
 21
38.5238
  0
LINE
  8
0
 10
348.602
 20
38.5238
 11
348.376
 21
38.5051
  0
LINE
  8
0
 10
348.376
 20
38.5051
 11
348.302
 21
38.5238
  0
LINE
  8
0
 10
348.302
 20
38.5238
 11
348.076
 21
38.5051
  0
LINE
  8
0
 10
348.076
 20
38.5051
 11
348.002
 21
38.5238
  0
LINE
  8
0
 10
348.002
 20
38.5238
 11
347.776
 21
38.5051
  0
LINE
  8
0
 10
347.776
 20
38.5051
 11
347.702
 21
38.5238
  0
LINE
  8
0
 10
347.702
 20
38.5238
 11
347.476
 21
38.5051
  0
LINE
  8
0
 10
347.476
 20
38.5051
 11
347.402
 21
38.5238
  0
LINE
  8
0
 10
347.402
 20
38.5238
 11
347.176
 21
38.5051
  0
LINE
  8
0
 10
347.176
 20
38.5051
 11
347.102
 21
38.5238
  0
LINE
  8
0
 10
347.102
 20
38.5238
 11
346.876
 21
38.5051
  0
LINE
  8
0
 10
346.876
 20
38.5051
 11
346.397
 21
38.6263
  0
LINE
  8
0
 10
346.397
 20
38.6263
 11
345.984
 21
38.8964
  0
LINE
  8
0
 10
345.984
 20
38.8964
 11
345.681
 21
39.2861
  0
LINE
  8
0
 10
345.681
 20
39.2861
 11
345.52
 21
39.7531
  0
LINE
  8
0
 10
345.52
 20
39.7531
 11
345.52
 21
40.2469
  0
LINE
  8
0
 10
345.52
 20
40.2469
 11
345.681
 21
40.7139
  0
LINE
  8
0
 10
345.681
 20
40.7139
 11
345.984
 21
41.1036
  0
LINE
  8
0
 10
345.984
 20
41.1036
 11
346.397
 21
41.3737
  0
LINE
  8
0
 10
346.397
 20
41.3737
 11
346.876
 21
41.4949
  0
LINE
  8
0
 10
346.876
 20
41.4949
 11
347.102
 21
41.4761
  0
LINE
  8
0
 10
347.102
 20
41.4761
 11
347.176
 21
41.4949
  0
LINE
  8
0
 10
347.176
 20
41.4949
 11
347.402
 21
41.4761
  0
LINE
  8
0
 10
347.402
 20
41.4761
 11
347.476
 21
41.4949
  0
LINE
  8
0
 10
347.476
 20
41.4949
 11
347.702
 21
41.4761
  0
LINE
  8
0
 10
347.702
 20
41.4761
 11
347.776
 21
41.4949
  0
LINE
  8
0
 10
347.776
 20
41.4949
 11
348.002
 21
41.4761
  0
LINE
  8
0
 10
348.002
 20
41.4761
 11
348.076
 21
41.4949
  0
LINE
  8
0
 10
348.076
 20
41.4949
 11
348.302
 21
41.4761
  0
LINE
  8
0
 10
348.302
 20
41.4761
 11
348.376
 21
41.4949
  0
LINE
  8
0
 10
348.376
 20
41.4949
 11
348.602
 21
41.4761
  0
LINE
  8
0
 10
348.602
 20
41.4761
 11
348.676
 21
41.4949
  0
LINE
  8
0
 10
348.676
 20
41.4949
 11
348.902
 21
41.4761
  0
LINE
  8
0
 10
348.902
 20
41.4761
 11
348.976
 21
41.4949
  0
LINE
  8
0
 10
348.976
 20
41.4949
 11
349.202
 21
41.4761
  0
LINE
  8
0
 10
349.202
 20
41.4761
 11
349.276
 21
41.4949
  0
LINE
  8
0
 10
349.276
 20
41.4949
 11
349.502
 21
41.4761
  0
LINE
  8
0
 10
349.502
 20
41.4761
 11
349.576
 21
41.4949
  0
LINE
  8
0
 10
349.576
 20
41.4949
 11
349.802
 21
41.4761
  0
LINE
  8
0
 10
349.802
 20
41.4761
 11
349.876
 21
41.4949
  0
LINE
  8
0
 10
349.876
 20
41.4949
 11
350.102
 21
41.4761
  0
LINE
  8
0
 10
350.102
 20
41.4761
 11
350.176
 21
41.4949
  0
LINE
  8
0
 10
350.176
 20
41.4949
 11
350.402
 21
41.4761
  0
LINE
  8
0
 10
350.402
 20
41.4761
 11
350.476
 21
41.4949
  0
LINE
  8
0
 10
350.476
 20
41.4949
 11
350.702
 21
41.4761
  0
LINE
  8
0
 10
350.702
 20
41.4761
 11
350.776
 21
41.4949
  0
LINE
  8
0
 10
350.776
 20
41.4949
 11
351.002
 21
41.4761
  0
LINE
  8
0
 10
351.002
 20
41.4761
 11
351.076
 21
41.4949
  0
LINE
  8
0
 10
351.076
 20
41.4949
 11
351.302
 21
41.4761
  0
LINE
  8
0
 10
351.302
 20
41.4761
 11
351.376
 21
41.4949
  0
LINE
  8
0
 10
351.376
 20
41.4949
 11
351.602
 21
41.4761
  0
LINE
  8
0
 10
351.602
 20
41.4761
 11
351.676
 21
41.4949
  0
LINE
  8
0
 10
351.676
 20
41.4949
 11
351.902
 21
41.4761
  0
LINE
  8
0
 10
351.902
 20
41.4761
 11
351.976
 21
41.4949
  0
LINE
  8
0
 10
351.976
 20
41.4949
 11
352.202
 21
41.4761
  0
LINE
  8
0
 10
352.202
 20
41.4761
 11
352.276
 21
41.4949
  0
LINE
  8
0
 10
352.276
 20
41.4949
 11
352.502
 21
41.4761
  0
LINE
  8
0
 10
352.502
 20
41.4761
 11
352.576
 21
41.4949
  0
LINE
  8
0
 10
352.576
 20
41.4949
 11
352.802
 21
41.4761
  0
LINE
  8
0
 10
352.802
 20
41.4761
 11
352.876
 21
41.4949
  0
LINE
  8
0
 10
352.876
 20
41.4949
 11
353.368
 21
41.4541
  0
LINE
  8
0
 10
353.368
 20
41.4541
 11
353.82
 21
41.2557
  0
LINE
  8
0
 10
353.82
 20
41.2557
 11
354.184
 21
40.9213
  0
LINE
  8
0
 10
354.184
 20
40.9213
 11
354.419
 21
40.487
  0
LINE
  8
0
 10
354.419
 20
40.487
 11
354.5
 21
40
  0
LINE
  8
0
 10
354.5
 20
40
 11
354.419
 21
39.5129
  0
LINE
  8
0
 10
354.419
 20
39.5129
 11
354.184
 21
39.0787
  0
LINE
  8
0
 10
354.184
 20
39.0787
 11
353.82
 21
38.7442
  0
LINE
  8
0
 10
353.82
 20
38.7442
 11
353.368
 21
38.5459
  0
LINE
  8
0
 10
353.368
 20
38.5459
 11
352.876
 21
38.5051
  0
LINE
  8
0
 10
352.876
 20
38.5051
 11
352.802
 21
38.5238
  0
LINE
  8
0
 10
197.802
 20
38.5238
 11
197.576
 21
38.5051
  0
LINE
  8
0
 10
197.576
 20
38.5051
 11
197.502
 21
38.5238
  0
LINE
  8
0
 10
197.502
 20
38.5238
 11
197.276
 21
38.5051
  0
LINE
  8
0
 10
197.276
 20
38.5051
 11
197.202
 21
38.5238
  0
LINE
  8
0
 10
197.202
 20
38.5238
 11
196.976
 21
38.5051
  0
LINE
  8
0
 10
196.976
 20
38.5051
 11
196.902
 21
38.5238
  0
LINE
  8
0
 10
196.902
 20
38.5238
 11
196.676
 21
38.5051
  0
LINE
  8
0
 10
196.676
 20
38.5051
 11
196.602
 21
38.5238
  0
LINE
  8
0
 10
196.602
 20
38.5238
 11
196.376
 21
38.5051
  0
LINE
  8
0
 10
196.376
 20
38.5051
 11
196.302
 21
38.5238
  0
LINE
  8
0
 10
196.302
 20
38.5238
 11
196.076
 21
38.5051
  0
LINE
  8
0
 10
196.076
 20
38.5051
 11
196.002
 21
38.5238
  0
LINE
  8
0
 10
196.002
 20
38.5238
 11
195.776
 21
38.5051
  0
LINE
  8
0
 10
195.776
 20
38.5051
 11
195.702
 21
38.5238
  0
LINE
  8
0
 10
195.702
 20
38.5238
 11
195.476
 21
38.5051
  0
LINE
  8
0
 10
195.476
 20
38.5051
 11
195.402
 21
38.5238
  0
LINE
  8
0
 10
195.402
 20
38.5238
 11
195.176
 21
38.5051
  0
LINE
  8
0
 10
195.176
 20
38.5051
 11
195.102
 21
38.5238
  0
LINE
  8
0
 10
195.102
 20
38.5238
 11
194.876
 21
38.5051
  0
LINE
  8
0
 10
194.876
 20
38.5051
 11
194.802
 21
38.5238
  0
LINE
  8
0
 10
194.802
 20
38.5238
 11
194.576
 21
38.5051
  0
LINE
  8
0
 10
194.576
 20
38.5051
 11
194.502
 21
38.5238
  0
LINE
  8
0
 10
194.502
 20
38.5238
 11
194.276
 21
38.5051
  0
LINE
  8
0
 10
194.276
 20
38.5051
 11
194.202
 21
38.5238
  0
LINE
  8
0
 10
194.202
 20
38.5238
 11
193.976
 21
38.5051
  0
LINE
  8
0
 10
193.976
 20
38.5051
 11
193.902
 21
38.5238
  0
LINE
  8
0
 10
193.902
 20
38.5238
 11
193.676
 21
38.5051
  0
LINE
  8
0
 10
193.676
 20
38.5051
 11
193.602
 21
38.5238
  0
LINE
  8
0
 10
193.602
 20
38.5238
 11
193.376
 21
38.5051
  0
LINE
  8
0
 10
193.376
 20
38.5051
 11
193.302
 21
38.5238
  0
LINE
  8
0
 10
193.302
 20
38.5238
 11
193.076
 21
38.5051
  0
LINE
  8
0
 10
193.076
 20
38.5051
 11
193.002
 21
38.5238
  0
LINE
  8
0
 10
193.002
 20
38.5238
 11
192.776
 21
38.5051
  0
LINE
  8
0
 10
192.776
 20
38.5051
 11
192.702
 21
38.5238
  0
LINE
  8
0
 10
192.702
 20
38.5238
 11
192.476
 21
38.5051
  0
LINE
  8
0
 10
192.476
 20
38.5051
 11
192.402
 21
38.5238
  0
LINE
  8
0
 10
192.402
 20
38.5238
 11
192.176
 21
38.5051
  0
LINE
  8
0
 10
192.176
 20
38.5051
 11
192.102
 21
38.5238
  0
LINE
  8
0
 10
192.102
 20
38.5238
 11
191.876
 21
38.5051
  0
LINE
  8
0
 10
191.876
 20
38.5051
 11
191.397
 21
38.6263
  0
LINE
  8
0
 10
191.397
 20
38.6263
 11
190.984
 21
38.8964
  0
LINE
  8
0
 10
190.984
 20
38.8964
 11
190.681
 21
39.2861
  0
LINE
  8
0
 10
190.681
 20
39.2861
 11
190.52
 21
39.7531
  0
LINE
  8
0
 10
190.52
 20
39.7531
 11
190.52
 21
40.2469
  0
LINE
  8
0
 10
190.52
 20
40.2469
 11
190.681
 21
40.7139
  0
LINE
  8
0
 10
190.681
 20
40.7139
 11
190.984
 21
41.1036
  0
LINE
  8
0
 10
190.984
 20
41.1036
 11
191.397
 21
41.3737
  0
LINE
  8
0
 10
191.397
 20
41.3737
 11
191.876
 21
41.4949
  0
LINE
  8
0
 10
191.876
 20
41.4949
 11
192.102
 21
41.4761
  0
LINE
  8
0
 10
192.102
 20
41.4761
 11
192.176
 21
41.4949
  0
LINE
  8
0
 10
192.176
 20
41.4949
 11
192.402
 21
41.4761
  0
LINE
  8
0
 10
192.402
 20
41.4761
 11
192.476
 21
41.4949
  0
LINE
  8
0
 10
192.476
 20
41.4949
 11
192.702
 21
41.4761
  0
LINE
  8
0
 10
192.702
 20
41.4761
 11
192.776
 21
41.4949
  0
LINE
  8
0
 10
192.776
 20
41.4949
 11
193.002
 21
41.4761
  0
LINE
  8
0
 10
193.002
 20
41.4761
 11
193.076
 21
41.4949
  0
LINE
  8
0
 10
193.076
 20
41.4949
 11
193.302
 21
41.4761
  0
LINE
  8
0
 10
193.302
 20
41.4761
 11
193.376
 21
41.4949
  0
LINE
  8
0
 10
193.376
 20
41.4949
 11
193.602
 21
41.4761
  0
LINE
  8
0
 10
193.602
 20
41.4761
 11
193.676
 21
41.4949
  0
LINE
  8
0
 10
193.676
 20
41.4949
 11
193.902
 21
41.4761
  0
LINE
  8
0
 10
193.902
 20
41.4761
 11
193.976
 21
41.4949
  0
LINE
  8
0
 10
193.976
 20
41.4949
 11
194.202
 21
41.4761
  0
LINE
  8
0
 10
194.202
 20
41.4761
 11
194.276
 21
41.4949
  0
LINE
  8
0
 10
194.276
 20
41.4949
 11
194.502
 21
41.4761
  0
LINE
  8
0
 10
194.502
 20
41.4761
 11
194.576
 21
41.4949
  0
LINE
  8
0
 10
194.576
 20
41.4949
 11
194.802
 21
41.4761
  0
LINE
  8
0
 10
194.802
 20
41.4761
 11
194.876
 21
41.4949
  0
LINE
  8
0
 10
194.876
 20
41.4949
 11
195.102
 21
41.4761
  0
LINE
  8
0
 10
195.102
 20
41.4761
 11
195.176
 21
41.4949
  0
LINE
  8
0
 10
195.176
 20
41.4949
 11
195.402
 21
41.4761
  0
LINE
  8
0
 10
195.402
 20
41.4761
 11
195.476
 21
41.4949
  0
LINE
  8
0
 10
195.476
 20
41.4949
 11
195.702
 21
41.4761
  0
LINE
  8
0
 10
195.702
 20
41.4761
 11
195.776
 21
41.4949
  0
LINE
  8
0
 10
195.776
 20
41.4949
 11
196.002
 21
41.4761
  0
LINE
  8
0
 10
196.002
 20
41.4761
 11
196.076
 21
41.4949
  0
LINE
  8
0
 10
196.076
 20
41.4949
 11
196.302
 21
41.4761
  0
LINE
  8
0
 10
196.302
 20
41.4761
 11
196.376
 21
41.4949
  0
LINE
  8
0
 10
196.376
 20
41.4949
 11
196.602
 21
41.4761
  0
LINE
  8
0
 10
196.602
 20
41.4761
 11
196.676
 21
41.4949
  0
LINE
  8
0
 10
196.676
 20
41.4949
 11
196.902
 21
41.4761
  0
LINE
  8
0
 10
196.902
 20
41.4761
 11
196.976
 21
41.4949
  0
LINE
  8
0
 10
196.976
 20
41.4949
 11
197.202
 21
41.4761
  0
LINE
  8
0
 10
197.202
 20
41.4761
 11
197.276
 21
41.4949
  0
LINE
  8
0
 10
197.276
 20
41.4949
 11
197.502
 21
41.4761
  0
LINE
  8
0
 10
197.502
 20
41.4761
 11
197.576
 21
41.4949
  0
LINE
  8
0
 10
197.576
 20
41.4949
 11
197.802
 21
41.4761
  0
LINE
  8
0
 10
197.802
 20
41.4761
 11
197.876
 21
41.4949
  0
LINE
  8
0
 10
197.876
 20
41.4949
 11
198.368
 21
41.4541
  0
LINE
  8
0
 10
198.368
 20
41.4541
 11
198.82
 21
41.2557
  0
LINE
  8
0
 10
198.82
 20
41.2557
 11
199.184
 21
40.9213
  0
LINE
  8
0
 10
199.184
 20
40.9213
 11
199.419
 21
40.487
  0
LINE
  8
0
 10
199.419
 20
40.487
 11
199.5
 21
40
  0
LINE
  8
0
 10
199.5
 20
40
 11
199.419
 21
39.5129
  0
LINE
  8
0
 10
199.419
 20
39.5129
 11
199.184
 21
39.0787
  0
LINE
  8
0
 10
199.184
 20
39.0787
 11
198.82
 21
38.7442
  0
LINE
  8
0
 10
198.82
 20
38.7442
 11
198.368
 21
38.5459
  0
LINE
  8
0
 10
198.368
 20
38.5459
 11
197.876
 21
38.5051
  0
LINE
  8
0
 10
197.876
 20
38.5051
 11
197.802
 21
38.5238
  0
LINE
  8
0
 10
287.802
 20
38.5238
 11
287.576
 21
38.5051
  0
LINE
  8
0
 10
287.576
 20
38.5051
 11
287.502
 21
38.5238
  0
LINE
  8
0
 10
287.502
 20
38.5238
 11
287.276
 21
38.5051
  0
LINE
  8
0
 10
287.276
 20
38.5051
 11
287.202
 21
38.5238
  0
LINE
  8
0
 10
287.202
 20
38.5238
 11
286.976
 21
38.5051
  0
LINE
  8
0
 10
286.976
 20
38.5051
 11
286.902
 21
38.5238
  0
LINE
  8
0
 10
286.902
 20
38.5238
 11
286.676
 21
38.5051
  0
LINE
  8
0
 10
286.676
 20
38.5051
 11
286.602
 21
38.5238
  0
LINE
  8
0
 10
286.602
 20
38.5238
 11
286.376
 21
38.5051
  0
LINE
  8
0
 10
286.376
 20
38.5051
 11
286.302
 21
38.5238
  0
LINE
  8
0
 10
286.302
 20
38.5238
 11
286.076
 21
38.5051
  0
LINE
  8
0
 10
286.076
 20
38.5051
 11
286.002
 21
38.5238
  0
LINE
  8
0
 10
286.002
 20
38.5238
 11
285.776
 21
38.5051
  0
LINE
  8
0
 10
285.776
 20
38.5051
 11
285.702
 21
38.5238
  0
LINE
  8
0
 10
285.702
 20
38.5238
 11
285.476
 21
38.5051
  0
LINE
  8
0
 10
285.476
 20
38.5051
 11
285.402
 21
38.5238
  0
LINE
  8
0
 10
285.402
 20
38.5238
 11
285.176
 21
38.5051
  0
LINE
  8
0
 10
285.176
 20
38.5051
 11
285.102
 21
38.5238
  0
LINE
  8
0
 10
285.102
 20
38.5238
 11
284.876
 21
38.5051
  0
LINE
  8
0
 10
284.876
 20
38.5051
 11
284.802
 21
38.5238
  0
LINE
  8
0
 10
284.802
 20
38.5238
 11
284.576
 21
38.5051
  0
LINE
  8
0
 10
284.576
 20
38.5051
 11
284.502
 21
38.5238
  0
LINE
  8
0
 10
284.502
 20
38.5238
 11
284.276
 21
38.5051
  0
LINE
  8
0
 10
284.276
 20
38.5051
 11
284.202
 21
38.5238
  0
LINE
  8
0
 10
284.202
 20
38.5238
 11
283.976
 21
38.5051
  0
LINE
  8
0
 10
283.976
 20
38.5051
 11
283.902
 21
38.5238
  0
LINE
  8
0
 10
283.902
 20
38.5238
 11
283.676
 21
38.5051
  0
LINE
  8
0
 10
283.676
 20
38.5051
 11
283.602
 21
38.5238
  0
LINE
  8
0
 10
283.602
 20
38.5238
 11
283.376
 21
38.5051
  0
LINE
  8
0
 10
283.376
 20
38.5051
 11
283.302
 21
38.5238
  0
LINE
  8
0
 10
283.302
 20
38.5238
 11
283.076
 21
38.5051
  0
LINE
  8
0
 10
283.076
 20
38.5051
 11
283.002
 21
38.5238
  0
LINE
  8
0
 10
283.002
 20
38.5238
 11
282.776
 21
38.5051
  0
LINE
  8
0
 10
282.776
 20
38.5051
 11
282.702
 21
38.5238
  0
LINE
  8
0
 10
282.702
 20
38.5238
 11
282.476
 21
38.5051
  0
LINE
  8
0
 10
282.476
 20
38.5051
 11
282.402
 21
38.5238
  0
LINE
  8
0
 10
282.402
 20
38.5238
 11
282.176
 21
38.5051
  0
LINE
  8
0
 10
282.176
 20
38.5051
 11
282.102
 21
38.5238
  0
LINE
  8
0
 10
282.102
 20
38.5238
 11
281.876
 21
38.5051
  0
LINE
  8
0
 10
281.876
 20
38.5051
 11
281.397
 21
38.6263
  0
LINE
  8
0
 10
281.397
 20
38.6263
 11
280.984
 21
38.8964
  0
LINE
  8
0
 10
280.984
 20
38.8964
 11
280.681
 21
39.2861
  0
LINE
  8
0
 10
280.681
 20
39.2861
 11
280.52
 21
39.7531
  0
LINE
  8
0
 10
280.52
 20
39.7531
 11
280.52
 21
40.2469
  0
LINE
  8
0
 10
280.52
 20
40.2469
 11
280.681
 21
40.7139
  0
LINE
  8
0
 10
280.681
 20
40.7139
 11
280.984
 21
41.1036
  0
LINE
  8
0
 10
280.984
 20
41.1036
 11
281.397
 21
41.3737
  0
LINE
  8
0
 10
281.397
 20
41.3737
 11
281.876
 21
41.4949
  0
LINE
  8
0
 10
281.876
 20
41.4949
 11
282.102
 21
41.4761
  0
LINE
  8
0
 10
282.102
 20
41.4761
 11
282.176
 21
41.4949
  0
LINE
  8
0
 10
282.176
 20
41.4949
 11
282.402
 21
41.4761
  0
LINE
  8
0
 10
282.402
 20
41.4761
 11
282.476
 21
41.4949
  0
LINE
  8
0
 10
282.476
 20
41.4949
 11
282.702
 21
41.4761
  0
LINE
  8
0
 10
282.702
 20
41.4761
 11
282.776
 21
41.4949
  0
LINE
  8
0
 10
282.776
 20
41.4949
 11
283.002
 21
41.4761
  0
LINE
  8
0
 10
283.002
 20
41.4761
 11
283.076
 21
41.4949
  0
LINE
  8
0
 10
283.076
 20
41.4949
 11
283.302
 21
41.4761
  0
LINE
  8
0
 10
283.302
 20
41.4761
 11
283.376
 21
41.4949
  0
LINE
  8
0
 10
283.376
 20
41.4949
 11
283.602
 21
41.4761
  0
LINE
  8
0
 10
283.602
 20
41.4761
 11
283.676
 21
41.4949
  0
LINE
  8
0
 10
283.676
 20
41.4949
 11
283.902
 21
41.4761
  0
LINE
  8
0
 10
283.902
 20
41.4761
 11
283.976
 21
41.4949
  0
LINE
  8
0
 10
283.976
 20
41.4949
 11
284.202
 21
41.4761
  0
LINE
  8
0
 10
284.202
 20
41.4761
 11
284.276
 21
41.4949
  0
LINE
  8
0
 10
284.276
 20
41.4949
 11
284.502
 21
41.4761
  0
LINE
  8
0
 10
284.502
 20
41.4761
 11
284.576
 21
41.4949
  0
LINE
  8
0
 10
284.576
 20
41.4949
 11
284.802
 21
41.4761
  0
LINE
  8
0
 10
284.802
 20
41.4761
 11
284.876
 21
41.4949
  0
LINE
  8
0
 10
284.876
 20
41.4949
 11
285.102
 21
41.4761
  0
LINE
  8
0
 10
285.102
 20
41.4761
 11
285.176
 21
41.4949
  0
LINE
  8
0
 10
285.176
 20
41.4949
 11
285.402
 21
41.4761
  0
LINE
  8
0
 10
285.402
 20
41.4761
 11
285.476
 21
41.4949
  0
LINE
  8
0
 10
285.476
 20
41.4949
 11
285.702
 21
41.4761
  0
LINE
  8
0
 10
285.702
 20
41.4761
 11
285.776
 21
41.4949
  0
LINE
  8
0
 10
285.776
 20
41.4949
 11
286.002
 21
41.4761
  0
LINE
  8
0
 10
286.002
 20
41.4761
 11
286.076
 21
41.4949
  0
LINE
  8
0
 10
286.076
 20
41.4949
 11
286.302
 21
41.4761
  0
LINE
  8
0
 10
286.302
 20
41.4761
 11
286.376
 21
41.4949
  0
LINE
  8
0
 10
286.376
 20
41.4949
 11
286.602
 21
41.4761
  0
LINE
  8
0
 10
286.602
 20
41.4761
 11
286.676
 21
41.4949
  0
LINE
  8
0
 10
286.676
 20
41.4949
 11
286.902
 21
41.4761
  0
LINE
  8
0
 10
286.902
 20
41.4761
 11
286.976
 21
41.4949
  0
LINE
  8
0
 10
286.976
 20
41.4949
 11
287.202
 21
41.4761
  0
LINE
  8
0
 10
287.202
 20
41.4761
 11
287.276
 21
41.4949
  0
LINE
  8
0
 10
287.276
 20
41.4949
 11
287.502
 21
41.4761
  0
LINE
  8
0
 10
287.502
 20
41.4761
 11
287.576
 21
41.4949
  0
LINE
  8
0
 10
287.576
 20
41.4949
 11
287.802
 21
41.4761
  0
LINE
  8
0
 10
287.802
 20
41.4761
 11
287.876
 21
41.4949
  0
LINE
  8
0
 10
287.876
 20
41.4949
 11
288.368
 21
41.4541
  0
LINE
  8
0
 10
288.368
 20
41.4541
 11
288.82
 21
41.2557
  0
LINE
  8
0
 10
288.82
 20
41.2557
 11
289.184
 21
40.9213
  0
LINE
  8
0
 10
289.184
 20
40.9213
 11
289.419
 21
40.487
  0
LINE
  8
0
 10
289.419
 20
40.487
 11
289.5
 21
40
  0
LINE
  8
0
 10
289.5
 20
40
 11
289.419
 21
39.5129
  0
LINE
  8
0
 10
289.419
 20
39.5129
 11
289.184
 21
39.0787
  0
LINE
  8
0
 10
289.184
 20
39.0787
 11
288.82
 21
38.7442
  0
LINE
  8
0
 10
288.82
 20
38.7442
 11
288.368
 21
38.5459
  0
LINE
  8
0
 10
288.368
 20
38.5459
 11
287.876
 21
38.5051
  0
LINE
  8
0
 10
287.876
 20
38.5051
 11
287.802
 21
38.5238
  0
LINE
  8
0
 10
262.802
 20
38.5238
 11
262.576
 21
38.5051
  0
LINE
  8
0
 10
262.576
 20
38.5051
 11
262.502
 21
38.5238
  0
LINE
  8
0
 10
262.502
 20
38.5238
 11
262.276
 21
38.5051
  0
LINE
  8
0
 10
262.276
 20
38.5051
 11
262.202
 21
38.5238
  0
LINE
  8
0
 10
262.202
 20
38.5238
 11
261.976
 21
38.5051
  0
LINE
  8
0
 10
261.976
 20
38.5051
 11
261.902
 21
38.5238
  0
LINE
  8
0
 10
261.902
 20
38.5238
 11
261.676
 21
38.5051
  0
LINE
  8
0
 10
261.676
 20
38.5051
 11
261.602
 21
38.5238
  0
LINE
  8
0
 10
261.602
 20
38.5238
 11
261.376
 21
38.5051
  0
LINE
  8
0
 10
261.376
 20
38.5051
 11
261.302
 21
38.5238
  0
LINE
  8
0
 10
261.302
 20
38.5238
 11
261.076
 21
38.5051
  0
LINE
  8
0
 10
261.076
 20
38.5051
 11
261.002
 21
38.5238
  0
LINE
  8
0
 10
261.002
 20
38.5238
 11
260.776
 21
38.5051
  0
LINE
  8
0
 10
260.776
 20
38.5051
 11
260.702
 21
38.5238
  0
LINE
  8
0
 10
260.702
 20
38.5238
 11
260.476
 21
38.5051
  0
LINE
  8
0
 10
260.476
 20
38.5051
 11
260.402
 21
38.5238
  0
LINE
  8
0
 10
260.402
 20
38.5238
 11
260.176
 21
38.5051
  0
LINE
  8
0
 10
260.176
 20
38.5051
 11
260.102
 21
38.5238
  0
LINE
  8
0
 10
260.102
 20
38.5238
 11
259.876
 21
38.5051
  0
LINE
  8
0
 10
259.876
 20
38.5051
 11
259.802
 21
38.5238
  0
LINE
  8
0
 10
259.802
 20
38.5238
 11
259.576
 21
38.5051
  0
LINE
  8
0
 10
259.576
 20
38.5051
 11
259.502
 21
38.5238
  0
LINE
  8
0
 10
259.502
 20
38.5238
 11
259.276
 21
38.5051
  0
LINE
  8
0
 10
259.276
 20
38.5051
 11
259.202
 21
38.5238
  0
LINE
  8
0
 10
259.202
 20
38.5238
 11
258.976
 21
38.5051
  0
LINE
  8
0
 10
258.976
 20
38.5051
 11
258.902
 21
38.5238
  0
LINE
  8
0
 10
258.902
 20
38.5238
 11
258.676
 21
38.5051
  0
LINE
  8
0
 10
258.676
 20
38.5051
 11
258.602
 21
38.5238
  0
LINE
  8
0
 10
258.602
 20
38.5238
 11
258.376
 21
38.5051
  0
LINE
  8
0
 10
258.376
 20
38.5051
 11
258.302
 21
38.5238
  0
LINE
  8
0
 10
258.302
 20
38.5238
 11
258.076
 21
38.5051
  0
LINE
  8
0
 10
258.076
 20
38.5051
 11
258.002
 21
38.5238
  0
LINE
  8
0
 10
258.002
 20
38.5238
 11
257.776
 21
38.5051
  0
LINE
  8
0
 10
257.776
 20
38.5051
 11
257.702
 21
38.5238
  0
LINE
  8
0
 10
257.702
 20
38.5238
 11
257.476
 21
38.5051
  0
LINE
  8
0
 10
257.476
 20
38.5051
 11
257.402
 21
38.5238
  0
LINE
  8
0
 10
257.402
 20
38.5238
 11
257.176
 21
38.5051
  0
LINE
  8
0
 10
257.176
 20
38.5051
 11
257.102
 21
38.5238
  0
LINE
  8
0
 10
257.102
 20
38.5238
 11
256.876
 21
38.5051
  0
LINE
  8
0
 10
256.876
 20
38.5051
 11
256.397
 21
38.6263
  0
LINE
  8
0
 10
256.397
 20
38.6263
 11
255.984
 21
38.8964
  0
LINE
  8
0
 10
255.984
 20
38.8964
 11
255.681
 21
39.2861
  0
LINE
  8
0
 10
255.681
 20
39.2861
 11
255.52
 21
39.7531
  0
LINE
  8
0
 10
255.52
 20
39.7531
 11
255.52
 21
40.2469
  0
LINE
  8
0
 10
255.52
 20
40.2469
 11
255.681
 21
40.7139
  0
LINE
  8
0
 10
255.681
 20
40.7139
 11
255.984
 21
41.1036
  0
LINE
  8
0
 10
255.984
 20
41.1036
 11
256.397
 21
41.3737
  0
LINE
  8
0
 10
256.397
 20
41.3737
 11
256.876
 21
41.4949
  0
LINE
  8
0
 10
256.876
 20
41.4949
 11
257.102
 21
41.4761
  0
LINE
  8
0
 10
257.102
 20
41.4761
 11
257.176
 21
41.4949
  0
LINE
  8
0
 10
257.176
 20
41.4949
 11
257.402
 21
41.4761
  0
LINE
  8
0
 10
257.402
 20
41.4761
 11
257.476
 21
41.4949
  0
LINE
  8
0
 10
257.476
 20
41.4949
 11
257.702
 21
41.4761
  0
LINE
  8
0
 10
257.702
 20
41.4761
 11
257.776
 21
41.4949
  0
LINE
  8
0
 10
257.776
 20
41.4949
 11
258.002
 21
41.4761
  0
LINE
  8
0
 10
258.002
 20
41.4761
 11
258.076
 21
41.4949
  0
LINE
  8
0
 10
258.076
 20
41.4949
 11
258.302
 21
41.4761
  0
LINE
  8
0
 10
258.302
 20
41.4761
 11
258.376
 21
41.4949
  0
LINE
  8
0
 10
258.376
 20
41.4949
 11
258.602
 21
41.4761
  0
LINE
  8
0
 10
258.602
 20
41.4761
 11
258.676
 21
41.4949
  0
LINE
  8
0
 10
258.676
 20
41.4949
 11
258.902
 21
41.4761
  0
LINE
  8
0
 10
258.902
 20
41.4761
 11
258.976
 21
41.4949
  0
LINE
  8
0
 10
258.976
 20
41.4949
 11
259.202
 21
41.4761
  0
LINE
  8
0
 10
259.202
 20
41.4761
 11
259.276
 21
41.4949
  0
LINE
  8
0
 10
259.276
 20
41.4949
 11
259.502
 21
41.4761
  0
LINE
  8
0
 10
259.502
 20
41.4761
 11
259.576
 21
41.4949
  0
LINE
  8
0
 10
259.576
 20
41.4949
 11
259.802
 21
41.4761
  0
LINE
  8
0
 10
259.802
 20
41.4761
 11
259.876
 21
41.4949
  0
LINE
  8
0
 10
259.876
 20
41.4949
 11
260.102
 21
41.4761
  0
LINE
  8
0
 10
260.102
 20
41.4761
 11
260.176
 21
41.4949
  0
LINE
  8
0
 10
260.176
 20
41.4949
 11
260.402
 21
41.4761
  0
LINE
  8
0
 10
260.402
 20
41.4761
 11
260.476
 21
41.4949
  0
LINE
  8
0
 10
260.476
 20
41.4949
 11
260.702
 21
41.4761
  0
LINE
  8
0
 10
260.702
 20
41.4761
 11
260.776
 21
41.4949
  0
LINE
  8
0
 10
260.776
 20
41.4949
 11
261.002
 21
41.4761
  0
LINE
  8
0
 10
261.002
 20
41.4761
 11
261.076
 21
41.4949
  0
LINE
  8
0
 10
261.076
 20
41.4949
 11
261.302
 21
41.4761
  0
LINE
  8
0
 10
261.302
 20
41.4761
 11
261.376
 21
41.4949
  0
LINE
  8
0
 10
261.376
 20
41.4949
 11
261.602
 21
41.4761
  0
LINE
  8
0
 10
261.602
 20
41.4761
 11
261.676
 21
41.4949
  0
LINE
  8
0
 10
261.676
 20
41.4949
 11
261.902
 21
41.4761
  0
LINE
  8
0
 10
261.902
 20
41.4761
 11
261.976
 21
41.4949
  0
LINE
  8
0
 10
261.976
 20
41.4949
 11
262.202
 21
41.4761
  0
LINE
  8
0
 10
262.202
 20
41.4761
 11
262.276
 21
41.4949
  0
LINE
  8
0
 10
262.276
 20
41.4949
 11
262.502
 21
41.4761
  0
LINE
  8
0
 10
262.502
 20
41.4761
 11
262.576
 21
41.4949
  0
LINE
  8
0
 10
262.576
 20
41.4949
 11
262.802
 21
41.4761
  0
LINE
  8
0
 10
262.802
 20
41.4761
 11
262.876
 21
41.4949
  0
LINE
  8
0
 10
262.876
 20
41.4949
 11
263.368
 21
41.4541
  0
LINE
  8
0
 10
263.368
 20
41.4541
 11
263.82
 21
41.2557
  0
LINE
  8
0
 10
263.82
 20
41.2557
 11
264.184
 21
40.9213
  0
LINE
  8
0
 10
264.184
 20
40.9213
 11
264.419
 21
40.487
  0
LINE
  8
0
 10
264.419
 20
40.487
 11
264.5
 21
40
  0
LINE
  8
0
 10
264.5
 20
40
 11
264.419
 21
39.5129
  0
LINE
  8
0
 10
264.419
 20
39.5129
 11
264.184
 21
39.0787
  0
LINE
  8
0
 10
264.184
 20
39.0787
 11
263.82
 21
38.7442
  0
LINE
  8
0
 10
263.82
 20
38.7442
 11
263.368
 21
38.5459
  0
LINE
  8
0
 10
263.368
 20
38.5459
 11
262.876
 21
38.5051
  0
LINE
  8
0
 10
262.876
 20
38.5051
 11
262.802
 21
38.5238
  0
LINE
  8
0
 10
168.625
 20
12
 11
168.104
 21
12.0456
  0
LINE
  8
0
 10
168.104
 20
12.0456
 11
167.599
 21
12.1809
  0
LINE
  8
0
 10
167.599
 20
12.1809
 11
167.125
 21
12.4019
  0
LINE
  8
0
 10
167.125
 20
12.4019
 11
166.697
 21
12.7019
  0
LINE
  8
0
 10
166.697
 20
12.7019
 11
166.327
 21
13.0716
  0
LINE
  8
0
 10
166.327
 20
13.0716
 11
166.027
 21
13.5
  0
LINE
  8
0
 10
166.027
 20
13.5
 11
165.806
 21
13.974
  0
LINE
  8
0
 10
165.806
 20
13.974
 11
165.671
 21
14.4791
  0
LINE
  8
0
 10
165.671
 20
14.4791
 11
165.625
 21
15
  0
LINE
  8
0
 10
165.625
 20
15
 11
165.671
 21
15.5209
  0
LINE
  8
0
 10
165.671
 20
15.5209
 11
165.806
 21
16.026
  0
LINE
  8
0
 10
165.806
 20
16.026
 11
166.027
 21
16.5
  0
LINE
  8
0
 10
166.027
 20
16.5
 11
166.327
 21
16.9284
  0
LINE
  8
0
 10
166.327
 20
16.9284
 11
166.697
 21
17.2981
  0
LINE
  8
0
 10
166.697
 20
17.2981
 11
167.125
 21
17.5981
  0
LINE
  8
0
 10
167.125
 20
17.5981
 11
167.599
 21
17.8191
  0
LINE
  8
0
 10
167.599
 20
17.8191
 11
168.104
 21
17.9544
  0
LINE
  8
0
 10
168.104
 20
17.9544
 11
168.625
 21
18
  0
LINE
  8
0
 10
168.625
 20
18
 11
252.625
 21
18
  0
LINE
  8
0
 10
252.625
 20
18
 11
253.146
 21
17.9544
  0
LINE
  8
0
 10
253.146
 20
17.9544
 11
253.651
 21
17.8191
  0
LINE
  8
0
 10
253.651
 20
17.8191
 11
254.125
 21
17.5981
  0
LINE
  8
0
 10
254.125
 20
17.5981
 11
254.553
 21
17.2981
  0
LINE
  8
0
 10
254.553
 20
17.2981
 11
254.923
 21
16.9284
  0
LINE
  8
0
 10
254.923
 20
16.9284
 11
255.223
 21
16.5
  0
LINE
  8
0
 10
255.223
 20
16.5
 11
255.444
 21
16.026
  0
LINE
  8
0
 10
255.444
 20
16.026
 11
255.579
 21
15.5209
  0
LINE
  8
0
 10
255.579
 20
15.5209
 11
255.625
 21
15
  0
LINE
  8
0
 10
255.625
 20
15
 11
255.579
 21
14.4791
  0
LINE
  8
0
 10
255.579
 20
14.4791
 11
255.444
 21
13.974
  0
LINE
  8
0
 10
255.444
 20
13.974
 11
255.223
 21
13.5
  0
LINE
  8
0
 10
255.223
 20
13.5
 11
254.923
 21
13.0716
  0
LINE
  8
0
 10
254.923
 20
13.0716
 11
254.553
 21
12.7019
  0
LINE
  8
0
 10
254.553
 20
12.7019
 11
254.125
 21
12.4019
  0
LINE
  8
0
 10
254.125
 20
12.4019
 11
253.651
 21
12.1809
  0
LINE
  8
0
 10
253.651
 20
12.1809
 11
253.146
 21
12.0456
  0
LINE
  8
0
 10
253.146
 20
12.0456
 11
252.625
 21
12
  0
LINE
  8
0
 10
252.625
 20
12
 11
168.625
 21
12
  0
LINE
  8
0
 10
287.802
 20
-1.47614
 11
287.576
 21
-1.49487
  0
LINE
  8
0
 10
287.576
 20
-1.49487
 11
287.502
 21
-1.47614
  0
LINE
  8
0
 10
287.502
 20
-1.47614
 11
287.276
 21
-1.49487
  0
LINE
  8
0
 10
287.276
 20
-1.49487
 11
287.202
 21
-1.47614
  0
LINE
  8
0
 10
287.202
 20
-1.47614
 11
286.976
 21
-1.49487
  0
LINE
  8
0
 10
286.976
 20
-1.49487
 11
286.902
 21
-1.47614
  0
LINE
  8
0
 10
286.902
 20
-1.47614
 11
286.676
 21
-1.49487
  0
LINE
  8
0
 10
286.676
 20
-1.49487
 11
286.602
 21
-1.47614
  0
LINE
  8
0
 10
286.602
 20
-1.47614
 11
286.376
 21
-1.49487
  0
LINE
  8
0
 10
286.376
 20
-1.49487
 11
286.302
 21
-1.47614
  0
LINE
  8
0
 10
286.302
 20
-1.47614
 11
286.076
 21
-1.49487
  0
LINE
  8
0
 10
286.076
 20
-1.49487
 11
286.002
 21
-1.47614
  0
LINE
  8
0
 10
286.002
 20
-1.47614
 11
285.776
 21
-1.49487
  0
LINE
  8
0
 10
285.776
 20
-1.49487
 11
285.702
 21
-1.47614
  0
LINE
  8
0
 10
285.702
 20
-1.47614
 11
285.476
 21
-1.49487
  0
LINE
  8
0
 10
285.476
 20
-1.49487
 11
285.402
 21
-1.47614
  0
LINE
  8
0
 10
285.402
 20
-1.47614
 11
285.176
 21
-1.49487
  0
LINE
  8
0
 10
285.176
 20
-1.49487
 11
285.102
 21
-1.47614
  0
LINE
  8
0
 10
285.102
 20
-1.47614
 11
284.876
 21
-1.49487
  0
LINE
  8
0
 10
284.876
 20
-1.49487
 11
284.802
 21
-1.47614
  0
LINE
  8
0
 10
284.802
 20
-1.47614
 11
284.576
 21
-1.49487
  0
LINE
  8
0
 10
284.576
 20
-1.49487
 11
284.502
 21
-1.47614
  0
LINE
  8
0
 10
284.502
 20
-1.47614
 11
284.276
 21
-1.49487
  0
LINE
  8
0
 10
284.276
 20
-1.49487
 11
284.202
 21
-1.47614
  0
LINE
  8
0
 10
284.202
 20
-1.47614
 11
283.976
 21
-1.49487
  0
LINE
  8
0
 10
283.976
 20
-1.49487
 11
283.902
 21
-1.47614
  0
LINE
  8
0
 10
283.902
 20
-1.47614
 11
283.676
 21
-1.49487
  0
LINE
  8
0
 10
283.676
 20
-1.49487
 11
283.602
 21
-1.47614
  0
LINE
  8
0
 10
283.602
 20
-1.47614
 11
283.376
 21
-1.49487
  0
LINE
  8
0
 10
283.376
 20
-1.49487
 11
283.302
 21
-1.47614
  0
LINE
  8
0
 10
283.302
 20
-1.47614
 11
283.076
 21
-1.49487
  0
LINE
  8
0
 10
283.076
 20
-1.49487
 11
283.002
 21
-1.47614
  0
LINE
  8
0
 10
283.002
 20
-1.47614
 11
282.776
 21
-1.49487
  0
LINE
  8
0
 10
282.776
 20
-1.49487
 11
282.702
 21
-1.47614
  0
LINE
  8
0
 10
282.702
 20
-1.47614
 11
282.476
 21
-1.49487
  0
LINE
  8
0
 10
282.476
 20
-1.49487
 11
282.402
 21
-1.47614
  0
LINE
  8
0
 10
282.402
 20
-1.47614
 11
282.176
 21
-1.49487
  0
LINE
  8
0
 10
282.176
 20
-1.49487
 11
282.102
 21
-1.47614
  0
LINE
  8
0
 10
282.102
 20
-1.47614
 11
281.876
 21
-1.49487
  0
LINE
  8
0
 10
281.876
 20
-1.49487
 11
281.397
 21
-1.37366
  0
LINE
  8
0
 10
281.397
 20
-1.37366
 11
280.984
 21
-1.10358
  0
LINE
  8
0
 10
280.984
 20
-1.10358
 11
280.681
 21
-0.713913
  0
LINE
  8
0
 10
280.681
 20
-0.713913
 11
280.52
 21
-0.246887
  0
LINE
  8
0
 10
280.52
 20
-0.246887
 11
280.52
 21
0.246887
  0
LINE
  8
0
 10
280.52
 20
0.246887
 11
280.681
 21
0.713913
  0
LINE
  8
0
 10
280.681
 20
0.713913
 11
280.984
 21
1.10358
  0
LINE
  8
0
 10
280.984
 20
1.10358
 11
281.397
 21
1.37366
  0
LINE
  8
0
 10
281.397
 20
1.37366
 11
281.876
 21
1.49487
  0
LINE
  8
0
 10
281.876
 20
1.49487
 11
282.102
 21
1.47614
  0
LINE
  8
0
 10
282.102
 20
1.47614
 11
282.176
 21
1.49487
  0
LINE
  8
0
 10
282.176
 20
1.49487
 11
282.402
 21
1.47614
  0
LINE
  8
0
 10
282.402
 20
1.47614
 11
282.476
 21
1.49487
  0
LINE
  8
0
 10
282.476
 20
1.49487
 11
282.702
 21
1.47614
  0
LINE
  8
0
 10
282.702
 20
1.47614
 11
282.776
 21
1.49487
  0
LINE
  8
0
 10
282.776
 20
1.49487
 11
283.002
 21
1.47614
  0
LINE
  8
0
 10
283.002
 20
1.47614
 11
283.076
 21
1.49487
  0
LINE
  8
0
 10
283.076
 20
1.49487
 11
283.302
 21
1.47614
  0
LINE
  8
0
 10
283.302
 20
1.47614
 11
283.376
 21
1.49487
  0
LINE
  8
0
 10
283.376
 20
1.49487
 11
283.602
 21
1.47614
  0
LINE
  8
0
 10
283.602
 20
1.47614
 11
283.676
 21
1.49487
  0
LINE
  8
0
 10
283.676
 20
1.49487
 11
283.902
 21
1.47614
  0
LINE
  8
0
 10
283.902
 20
1.47614
 11
283.976
 21
1.49487
  0
LINE
  8
0
 10
283.976
 20
1.49487
 11
284.202
 21
1.47614
  0
LINE
  8
0
 10
284.202
 20
1.47614
 11
284.276
 21
1.49487
  0
LINE
  8
0
 10
284.276
 20
1.49487
 11
284.502
 21
1.47614
  0
LINE
  8
0
 10
284.502
 20
1.47614
 11
284.576
 21
1.49487
  0
LINE
  8
0
 10
284.576
 20
1.49487
 11
284.802
 21
1.47614
  0
LINE
  8
0
 10
284.802
 20
1.47614
 11
284.876
 21
1.49487
  0
LINE
  8
0
 10
284.876
 20
1.49487
 11
285.102
 21
1.47614
  0
LINE
  8
0
 10
285.102
 20
1.47614
 11
285.176
 21
1.49487
  0
LINE
  8
0
 10
285.176
 20
1.49487
 11
285.402
 21
1.47614
  0
LINE
  8
0
 10
285.402
 20
1.47614
 11
285.476
 21
1.49487
  0
LINE
  8
0
 10
285.476
 20
1.49487
 11
285.702
 21
1.47614
  0
LINE
  8
0
 10
285.702
 20
1.47614
 11
285.776
 21
1.49487
  0
LINE
  8
0
 10
285.776
 20
1.49487
 11
286.002
 21
1.47614
  0
LINE
  8
0
 10
286.002
 20
1.47614
 11
286.076
 21
1.49487
  0
LINE
  8
0
 10
286.076
 20
1.49487
 11
286.302
 21
1.47614
  0
LINE
  8
0
 10
286.302
 20
1.47614
 11
286.376
 21
1.49487
  0
LINE
  8
0
 10
286.376
 20
1.49487
 11
286.602
 21
1.47614
  0
LINE
  8
0
 10
286.602
 20
1.47614
 11
286.676
 21
1.49487
  0
LINE
  8
0
 10
286.676
 20
1.49487
 11
286.902
 21
1.47614
  0
LINE
  8
0
 10
286.902
 20
1.47614
 11
286.976
 21
1.49487
  0
LINE
  8
0
 10
286.976
 20
1.49487
 11
287.202
 21
1.47614
  0
LINE
  8
0
 10
287.202
 20
1.47614
 11
287.276
 21
1.49487
  0
LINE
  8
0
 10
287.276
 20
1.49487
 11
287.502
 21
1.47614
  0
LINE
  8
0
 10
287.502
 20
1.47614
 11
287.576
 21
1.49487
  0
LINE
  8
0
 10
287.576
 20
1.49487
 11
287.802
 21
1.47614
  0
LINE
  8
0
 10
287.802
 20
1.47614
 11
287.876
 21
1.49487
  0
LINE
  8
0
 10
287.876
 20
1.49487
 11
288.368
 21
1.45409
  0
LINE
  8
0
 10
288.368
 20
1.45409
 11
288.82
 21
1.25574
  0
LINE
  8
0
 10
288.82
 20
1.25574
 11
289.184
 21
0.92131
  0
LINE
  8
0
 10
289.184
 20
0.92131
 11
289.419
 21
0.487045
  0
LINE
  8
0
 10
289.419
 20
0.487045
 11
289.5
 21
0
  0
LINE
  8
0
 10
289.5
 20
0
 11
289.419
 21
-0.487045
  0
LINE
  8
0
 10
289.419
 20
-0.487045
 11
289.184
 21
-0.92131
  0
LINE
  8
0
 10
289.184
 20
-0.92131
 11
288.82
 21
-1.25574
  0
LINE
  8
0
 10
288.82
 20
-1.25574
 11
288.368
 21
-1.45409
  0
LINE
  8
0
 10
288.368
 20
-1.45409
 11
287.876
 21
-1.49487
  0
LINE
  8
0
 10
287.876
 20
-1.49487
 11
287.802
 21
-1.47614
  0
LINE
  8
0
 10
197.802
 20
-1.47614
 11
197.576
 21
-1.49487
  0
LINE
  8
0
 10
197.576
 20
-1.49487
 11
197.502
 21
-1.47614
  0
LINE
  8
0
 10
197.502
 20
-1.47614
 11
197.276
 21
-1.49487
  0
LINE
  8
0
 10
197.276
 20
-1.49487
 11
197.202
 21
-1.47614
  0
LINE
  8
0
 10
197.202
 20
-1.47614
 11
196.976
 21
-1.49487
  0
LINE
  8
0
 10
196.976
 20
-1.49487
 11
196.902
 21
-1.47614
  0
LINE
  8
0
 10
196.902
 20
-1.47614
 11
196.676
 21
-1.49487
  0
LINE
  8
0
 10
196.676
 20
-1.49487
 11
196.602
 21
-1.47614
  0
LINE
  8
0
 10
196.602
 20
-1.47614
 11
196.376
 21
-1.49487
  0
LINE
  8
0
 10
196.376
 20
-1.49487
 11
196.302
 21
-1.47614
  0
LINE
  8
0
 10
196.302
 20
-1.47614
 11
196.076
 21
-1.49487
  0
LINE
  8
0
 10
196.076
 20
-1.49487
 11
196.002
 21
-1.47614
  0
LINE
  8
0
 10
196.002
 20
-1.47614
 11
195.776
 21
-1.49487
  0
LINE
  8
0
 10
195.776
 20
-1.49487
 11
195.702
 21
-1.47614
  0
LINE
  8
0
 10
195.702
 20
-1.47614
 11
195.476
 21
-1.49487
  0
LINE
  8
0
 10
195.476
 20
-1.49487
 11
195.402
 21
-1.47614
  0
LINE
  8
0
 10
195.402
 20
-1.47614
 11
195.176
 21
-1.49487
  0
LINE
  8
0
 10
195.176
 20
-1.49487
 11
195.102
 21
-1.47614
  0
LINE
  8
0
 10
195.102
 20
-1.47614
 11
194.876
 21
-1.49487
  0
LINE
  8
0
 10
194.876
 20
-1.49487
 11
194.802
 21
-1.47614
  0
LINE
  8
0
 10
194.802
 20
-1.47614
 11
194.576
 21
-1.49487
  0
LINE
  8
0
 10
194.576
 20
-1.49487
 11
194.502
 21
-1.47614
  0
LINE
  8
0
 10
194.502
 20
-1.47614
 11
194.276
 21
-1.49487
  0
LINE
  8
0
 10
194.276
 20
-1.49487
 11
194.202
 21
-1.47614
  0
LINE
  8
0
 10
194.202
 20
-1.47614
 11
193.976
 21
-1.49487
  0
LINE
  8
0
 10
193.976
 20
-1.49487
 11
193.902
 21
-1.47614
  0
LINE
  8
0
 10
193.902
 20
-1.47614
 11
193.676
 21
-1.49487
  0
LINE
  8
0
 10
193.676
 20
-1.49487
 11
193.602
 21
-1.47614
  0
LINE
  8
0
 10
193.602
 20
-1.47614
 11
193.376
 21
-1.49487
  0
LINE
  8
0
 10
193.376
 20
-1.49487
 11
193.302
 21
-1.47614
  0
LINE
  8
0
 10
193.302
 20
-1.47614
 11
193.076
 21
-1.49487
  0
LINE
  8
0
 10
193.076
 20
-1.49487
 11
193.002
 21
-1.47614
  0
LINE
  8
0
 10
193.002
 20
-1.47614
 11
192.776
 21
-1.49487
  0
LINE
  8
0
 10
192.776
 20
-1.49487
 11
192.702
 21
-1.47614
  0
LINE
  8
0
 10
192.702
 20
-1.47614
 11
192.476
 21
-1.49487
  0
LINE
  8
0
 10
192.476
 20
-1.49487
 11
192.402
 21
-1.47614
  0
LINE
  8
0
 10
192.402
 20
-1.47614
 11
192.176
 21
-1.49487
  0
LINE
  8
0
 10
192.176
 20
-1.49487
 11
192.102
 21
-1.47614
  0
LINE
  8
0
 10
192.102
 20
-1.47614
 11
191.876
 21
-1.49487
  0
LINE
  8
0
 10
191.876
 20
-1.49487
 11
191.397
 21
-1.37366
  0
LINE
  8
0
 10
191.397
 20
-1.37366
 11
190.984
 21
-1.10358
  0
LINE
  8
0
 10
190.984
 20
-1.10358
 11
190.681
 21
-0.713913
  0
LINE
  8
0
 10
190.681
 20
-0.713913
 11
190.52
 21
-0.246887
  0
LINE
  8
0
 10
190.52
 20
-0.246887
 11
190.52
 21
0.246887
  0
LINE
  8
0
 10
190.52
 20
0.246887
 11
190.681
 21
0.713913
  0
LINE
  8
0
 10
190.681
 20
0.713913
 11
190.984
 21
1.10358
  0
LINE
  8
0
 10
190.984
 20
1.10358
 11
191.397
 21
1.37366
  0
LINE
  8
0
 10
191.397
 20
1.37366
 11
191.876
 21
1.49487
  0
LINE
  8
0
 10
191.876
 20
1.49487
 11
192.102
 21
1.47614
  0
LINE
  8
0
 10
192.102
 20
1.47614
 11
192.176
 21
1.49487
  0
LINE
  8
0
 10
192.176
 20
1.49487
 11
192.402
 21
1.47614
  0
LINE
  8
0
 10
192.402
 20
1.47614
 11
192.476
 21
1.49487
  0
LINE
  8
0
 10
192.476
 20
1.49487
 11
192.702
 21
1.47614
  0
LINE
  8
0
 10
192.702
 20
1.47614
 11
192.776
 21
1.49487
  0
LINE
  8
0
 10
192.776
 20
1.49487
 11
193.002
 21
1.47614
  0
LINE
  8
0
 10
193.002
 20
1.47614
 11
193.076
 21
1.49487
  0
LINE
  8
0
 10
193.076
 20
1.49487
 11
193.302
 21
1.47614
  0
LINE
  8
0
 10
193.302
 20
1.47614
 11
193.376
 21
1.49487
  0
LINE
  8
0
 10
193.376
 20
1.49487
 11
193.602
 21
1.47614
  0
LINE
  8
0
 10
193.602
 20
1.47614
 11
193.676
 21
1.49487
  0
LINE
  8
0
 10
193.676
 20
1.49487
 11
193.902
 21
1.47614
  0
LINE
  8
0
 10
193.902
 20
1.47614
 11
193.976
 21
1.49487
  0
LINE
  8
0
 10
193.976
 20
1.49487
 11
194.202
 21
1.47614
  0
LINE
  8
0
 10
194.202
 20
1.47614
 11
194.276
 21
1.49487
  0
LINE
  8
0
 10
194.276
 20
1.49487
 11
194.502
 21
1.47614
  0
LINE
  8
0
 10
194.502
 20
1.47614
 11
194.576
 21
1.49487
  0
LINE
  8
0
 10
194.576
 20
1.49487
 11
194.802
 21
1.47614
  0
LINE
  8
0
 10
194.802
 20
1.47614
 11
194.876
 21
1.49487
  0
LINE
  8
0
 10
194.876
 20
1.49487
 11
195.102
 21
1.47614
  0
LINE
  8
0
 10
195.102
 20
1.47614
 11
195.176
 21
1.49487
  0
LINE
  8
0
 10
195.176
 20
1.49487
 11
195.402
 21
1.47614
  0
LINE
  8
0
 10
195.402
 20
1.47614
 11
195.476
 21
1.49487
  0
LINE
  8
0
 10
195.476
 20
1.49487
 11
195.702
 21
1.47614
  0
LINE
  8
0
 10
195.702
 20
1.47614
 11
195.776
 21
1.49487
  0
LINE
  8
0
 10
195.776
 20
1.49487
 11
196.002
 21
1.47614
  0
LINE
  8
0
 10
196.002
 20
1.47614
 11
196.076
 21
1.49487
  0
LINE
  8
0
 10
196.076
 20
1.49487
 11
196.302
 21
1.47614
  0
LINE
  8
0
 10
196.302
 20
1.47614
 11
196.376
 21
1.49487
  0
LINE
  8
0
 10
196.376
 20
1.49487
 11
196.602
 21
1.47614
  0
LINE
  8
0
 10
196.602
 20
1.47614
 11
196.676
 21
1.49487
  0
LINE
  8
0
 10
196.676
 20
1.49487
 11
196.902
 21
1.47614
  0
LINE
  8
0
 10
196.902
 20
1.47614
 11
196.976
 21
1.49487
  0
LINE
  8
0
 10
196.976
 20
1.49487
 11
197.202
 21
1.47614
  0
LINE
  8
0
 10
197.202
 20
1.47614
 11
197.276
 21
1.49487
  0
LINE
  8
0
 10
197.276
 20
1.49487
 11
197.502
 21
1.47614
  0
LINE
  8
0
 10
197.502
 20
1.47614
 11
197.576
 21
1.49487
  0
LINE
  8
0
 10
197.576
 20
1.49487
 11
197.802
 21
1.47614
  0
LINE
  8
0
 10
197.802
 20
1.47614
 11
197.876
 21
1.49487
  0
LINE
  8
0
 10
197.876
 20
1.49487
 11
198.368
 21
1.45409
  0
LINE
  8
0
 10
198.368
 20
1.45409
 11
198.82
 21
1.25574
  0
LINE
  8
0
 10
198.82
 20
1.25574
 11
199.184
 21
0.92131
  0
LINE
  8
0
 10
199.184
 20
0.92131
 11
199.419
 21
0.487045
  0
LINE
  8
0
 10
199.419
 20
0.487045
 11
199.5
 21
0
  0
LINE
  8
0
 10
199.5
 20
0
 11
199.419
 21
-0.487045
  0
LINE
  8
0
 10
199.419
 20
-0.487045
 11
199.184
 21
-0.92131
  0
LINE
  8
0
 10
199.184
 20
-0.92131
 11
198.82
 21
-1.25574
  0
LINE
  8
0
 10
198.82
 20
-1.25574
 11
198.368
 21
-1.45409
  0
LINE
  8
0
 10
198.368
 20
-1.45409
 11
197.876
 21
-1.49487
  0
LINE
  8
0
 10
197.876
 20
-1.49487
 11
197.802
 21
-1.47614
  0
LINE
  8
0
 10
352.802
 20
-1.47614
 11
352.576
 21
-1.49487
  0
LINE
  8
0
 10
352.576
 20
-1.49487
 11
352.502
 21
-1.47614
  0
LINE
  8
0
 10
352.502
 20
-1.47614
 11
352.276
 21
-1.49487
  0
LINE
  8
0
 10
352.276
 20
-1.49487
 11
352.202
 21
-1.47614
  0
LINE
  8
0
 10
352.202
 20
-1.47614
 11
351.976
 21
-1.49487
  0
LINE
  8
0
 10
351.976
 20
-1.49487
 11
351.902
 21
-1.47614
  0
LINE
  8
0
 10
351.902
 20
-1.47614
 11
351.676
 21
-1.49487
  0
LINE
  8
0
 10
351.676
 20
-1.49487
 11
351.602
 21
-1.47614
  0
LINE
  8
0
 10
351.602
 20
-1.47614
 11
351.376
 21
-1.49487
  0
LINE
  8
0
 10
351.376
 20
-1.49487
 11
351.302
 21
-1.47614
  0
LINE
  8
0
 10
351.302
 20
-1.47614
 11
351.076
 21
-1.49487
  0
LINE
  8
0
 10
351.076
 20
-1.49487
 11
351.002
 21
-1.47614
  0
LINE
  8
0
 10
351.002
 20
-1.47614
 11
350.776
 21
-1.49487
  0
LINE
  8
0
 10
350.776
 20
-1.49487
 11
350.702
 21
-1.47614
  0
LINE
  8
0
 10
350.702
 20
-1.47614
 11
350.476
 21
-1.49487
  0
LINE
  8
0
 10
350.476
 20
-1.49487
 11
350.402
 21
-1.47614
  0
LINE
  8
0
 10
350.402
 20
-1.47614
 11
350.176
 21
-1.49487
  0
LINE
  8
0
 10
350.176
 20
-1.49487
 11
350.102
 21
-1.47614
  0
LINE
  8
0
 10
350.102
 20
-1.47614
 11
349.876
 21
-1.49487
  0
LINE
  8
0
 10
349.876
 20
-1.49487
 11
349.802
 21
-1.47614
  0
LINE
  8
0
 10
349.802
 20
-1.47614
 11
349.576
 21
-1.49487
  0
LINE
  8
0
 10
349.576
 20
-1.49487
 11
349.502
 21
-1.47614
  0
LINE
  8
0
 10
349.502
 20
-1.47614
 11
349.276
 21
-1.49487
  0
LINE
  8
0
 10
349.276
 20
-1.49487
 11
349.202
 21
-1.47614
  0
LINE
  8
0
 10
349.202
 20
-1.47614
 11
348.976
 21
-1.49487
  0
LINE
  8
0
 10
348.976
 20
-1.49487
 11
348.902
 21
-1.47614
  0
LINE
  8
0
 10
348.902
 20
-1.47614
 11
348.676
 21
-1.49487
  0
LINE
  8
0
 10
348.676
 20
-1.49487
 11
348.602
 21
-1.47614
  0
LINE
  8
0
 10
348.602
 20
-1.47614
 11
348.376
 21
-1.49487
  0
LINE
  8
0
 10
348.376
 20
-1.49487
 11
348.302
 21
-1.47614
  0
LINE
  8
0
 10
348.302
 20
-1.47614
 11
348.076
 21
-1.49487
  0
LINE
  8
0
 10
348.076
 20
-1.49487
 11
348.002
 21
-1.47614
  0
LINE
  8
0
 10
348.002
 20
-1.47614
 11
347.776
 21
-1.49487
  0
LINE
  8
0
 10
347.776
 20
-1.49487
 11
347.702
 21
-1.47614
  0
LINE
  8
0
 10
347.702
 20
-1.47614
 11
347.476
 21
-1.49487
  0
LINE
  8
0
 10
347.476
 20
-1.49487
 11
347.402
 21
-1.47614
  0
LINE
  8
0
 10
347.402
 20
-1.47614
 11
347.176
 21
-1.49487
  0
LINE
  8
0
 10
347.176
 20
-1.49487
 11
347.102
 21
-1.47614
  0
LINE
  8
0
 10
347.102
 20
-1.47614
 11
346.876
 21
-1.49487
  0
LINE
  8
0
 10
346.876
 20
-1.49487
 11
346.397
 21
-1.37366
  0
LINE
  8
0
 10
346.397
 20
-1.37366
 11
345.984
 21
-1.10358
  0
LINE
  8
0
 10
345.984
 20
-1.10358
 11
345.681
 21
-0.713913
  0
LINE
  8
0
 10
345.681
 20
-0.713913
 11
345.52
 21
-0.246887
  0
LINE
  8
0
 10
345.52
 20
-0.246887
 11
345.52
 21
0.246887
  0
LINE
  8
0
 10
345.52
 20
0.246887
 11
345.681
 21
0.713913
  0
LINE
  8
0
 10
345.681
 20
0.713913
 11
345.984
 21
1.10358
  0
LINE
  8
0
 10
345.984
 20
1.10358
 11
346.397
 21
1.37366
  0
LINE
  8
0
 10
346.397
 20
1.37366
 11
346.876
 21
1.49487
  0
LINE
  8
0
 10
346.876
 20
1.49487
 11
347.102
 21
1.47614
  0
LINE
  8
0
 10
347.102
 20
1.47614
 11
347.176
 21
1.49487
  0
LINE
  8
0
 10
347.176
 20
1.49487
 11
347.402
 21
1.47614
  0
LINE
  8
0
 10
347.402
 20
1.47614
 11
347.476
 21
1.49487
  0
LINE
  8
0
 10
347.476
 20
1.49487
 11
347.702
 21
1.47614
  0
LINE
  8
0
 10
347.702
 20
1.47614
 11
347.776
 21
1.49487
  0
LINE
  8
0
 10
347.776
 20
1.49487
 11
348.002
 21
1.47614
  0
LINE
  8
0
 10
348.002
 20
1.47614
 11
348.076
 21
1.49487
  0
LINE
  8
0
 10
348.076
 20
1.49487
 11
348.302
 21
1.47614
  0
LINE
  8
0
 10
348.302
 20
1.47614
 11
348.376
 21
1.49487
  0
LINE
  8
0
 10
348.376
 20
1.49487
 11
348.602
 21
1.47614
  0
LINE
  8
0
 10
348.602
 20
1.47614
 11
348.676
 21
1.49487
  0
LINE
  8
0
 10
348.676
 20
1.49487
 11
348.902
 21
1.47614
  0
LINE
  8
0
 10
348.902
 20
1.47614
 11
348.976
 21
1.49487
  0
LINE
  8
0
 10
348.976
 20
1.49487
 11
349.202
 21
1.47614
  0
LINE
  8
0
 10
349.202
 20
1.47614
 11
349.276
 21
1.49487
  0
LINE
  8
0
 10
349.276
 20
1.49487
 11
349.502
 21
1.47614
  0
LINE
  8
0
 10
349.502
 20
1.47614
 11
349.576
 21
1.49487
  0
LINE
  8
0
 10
349.576
 20
1.49487
 11
349.802
 21
1.47614
  0
LINE
  8
0
 10
349.802
 20
1.47614
 11
349.876
 21
1.49487
  0
LINE
  8
0
 10
349.876
 20
1.49487
 11
350.102
 21
1.47614
  0
LINE
  8
0
 10
350.102
 20
1.47614
 11
350.176
 21
1.49487
  0
LINE
  8
0
 10
350.176
 20
1.49487
 11
350.402
 21
1.47614
  0
LINE
  8
0
 10
350.402
 20
1.47614
 11
350.476
 21
1.49487
  0
LINE
  8
0
 10
350.476
 20
1.49487
 11
350.702
 21
1.47614
  0
LINE
  8
0
 10
350.702
 20
1.47614
 11
350.776
 21
1.49487
  0
LINE
  8
0
 10
350.776
 20
1.49487
 11
351.002
 21
1.47614
  0
LINE
  8
0
 10
351.002
 20
1.47614
 11
351.076
 21
1.49487
  0
LINE
  8
0
 10
351.076
 20
1.49487
 11
351.302
 21
1.47614
  0
LINE
  8
0
 10
351.302
 20
1.47614
 11
351.376
 21
1.49487
  0
LINE
  8
0
 10
351.376
 20
1.49487
 11
351.602
 21
1.47614
  0
LINE
  8
0
 10
351.602
 20
1.47614
 11
351.676
 21
1.49487
  0
LINE
  8
0
 10
351.676
 20
1.49487
 11
351.902
 21
1.47614
  0
LINE
  8
0
 10
351.902
 20
1.47614
 11
351.976
 21
1.49487
  0
LINE
  8
0
 10
351.976
 20
1.49487
 11
352.202
 21
1.47614
  0
LINE
  8
0
 10
352.202
 20
1.47614
 11
352.276
 21
1.49487
  0
LINE
  8
0
 10
352.276
 20
1.49487
 11
352.502
 21
1.47614
  0
LINE
  8
0
 10
352.502
 20
1.47614
 11
352.576
 21
1.49487
  0
LINE
  8
0
 10
352.576
 20
1.49487
 11
352.802
 21
1.47614
  0
LINE
  8
0
 10
352.802
 20
1.47614
 11
352.876
 21
1.49487
  0
LINE
  8
0
 10
352.876
 20
1.49487
 11
353.368
 21
1.45409
  0
LINE
  8
0
 10
353.368
 20
1.45409
 11
353.82
 21
1.25574
  0
LINE
  8
0
 10
353.82
 20
1.25574
 11
354.184
 21
0.92131
  0
LINE
  8
0
 10
354.184
 20
0.92131
 11
354.419
 21
0.487045
  0
LINE
  8
0
 10
354.419
 20
0.487045
 11
354.5
 21
0
  0
LINE
  8
0
 10
354.5
 20
0
 11
354.419
 21
-0.487045
  0
LINE
  8
0
 10
354.419
 20
-0.487045
 11
354.184
 21
-0.92131
  0
LINE
  8
0
 10
354.184
 20
-0.92131
 11
353.82
 21
-1.25574
  0
LINE
  8
0
 10
353.82
 20
-1.25574
 11
353.368
 21
-1.45409
  0
LINE
  8
0
 10
353.368
 20
-1.45409
 11
352.876
 21
-1.49487
  0
LINE
  8
0
 10
352.876
 20
-1.49487
 11
352.802
 21
-1.47614
  0
LINE
  8
0
 10
262.802
 20
-1.47614
 11
262.576
 21
-1.49487
  0
LINE
  8
0
 10
262.576
 20
-1.49487
 11
262.502
 21
-1.47614
  0
LINE
  8
0
 10
262.502
 20
-1.47614
 11
262.276
 21
-1.49487
  0
LINE
  8
0
 10
262.276
 20
-1.49487
 11
262.202
 21
-1.47614
  0
LINE
  8
0
 10
262.202
 20
-1.47614
 11
261.976
 21
-1.49487
  0
LINE
  8
0
 10
261.976
 20
-1.49487
 11
261.902
 21
-1.47614
  0
LINE
  8
0
 10
261.902
 20
-1.47614
 11
261.676
 21
-1.49487
  0
LINE
  8
0
 10
261.676
 20
-1.49487
 11
261.602
 21
-1.47614
  0
LINE
  8
0
 10
261.602
 20
-1.47614
 11
261.376
 21
-1.49487
  0
LINE
  8
0
 10
261.376
 20
-1.49487
 11
261.302
 21
-1.47614
  0
LINE
  8
0
 10
261.302
 20
-1.47614
 11
261.076
 21
-1.49487
  0
LINE
  8
0
 10
261.076
 20
-1.49487
 11
261.002
 21
-1.47614
  0
LINE
  8
0
 10
261.002
 20
-1.47614
 11
260.776
 21
-1.49487
  0
LINE
  8
0
 10
260.776
 20
-1.49487
 11
260.702
 21
-1.47614
  0
LINE
  8
0
 10
260.702
 20
-1.47614
 11
260.476
 21
-1.49487
  0
LINE
  8
0
 10
260.476
 20
-1.49487
 11
260.402
 21
-1.47614
  0
LINE
  8
0
 10
260.402
 20
-1.47614
 11
260.176
 21
-1.49487
  0
LINE
  8
0
 10
260.176
 20
-1.49487
 11
260.102
 21
-1.47614
  0
LINE
  8
0
 10
260.102
 20
-1.47614
 11
259.876
 21
-1.49487
  0
LINE
  8
0
 10
259.876
 20
-1.49487
 11
259.802
 21
-1.47614
  0
LINE
  8
0
 10
259.802
 20
-1.47614
 11
259.576
 21
-1.49487
  0
LINE
  8
0
 10
259.576
 20
-1.49487
 11
259.502
 21
-1.47614
  0
LINE
  8
0
 10
259.502
 20
-1.47614
 11
259.276
 21
-1.49487
  0
LINE
  8
0
 10
259.276
 20
-1.49487
 11
259.202
 21
-1.47614
  0
LINE
  8
0
 10
259.202
 20
-1.47614
 11
258.976
 21
-1.49487
  0
LINE
  8
0
 10
258.976
 20
-1.49487
 11
258.902
 21
-1.47614
  0
LINE
  8
0
 10
258.902
 20
-1.47614
 11
258.676
 21
-1.49487
  0
LINE
  8
0
 10
258.676
 20
-1.49487
 11
258.602
 21
-1.47614
  0
LINE
  8
0
 10
258.602
 20
-1.47614
 11
258.376
 21
-1.49487
  0
LINE
  8
0
 10
258.376
 20
-1.49487
 11
258.302
 21
-1.47614
  0
LINE
  8
0
 10
258.302
 20
-1.47614
 11
258.076
 21
-1.49487
  0
LINE
  8
0
 10
258.076
 20
-1.49487
 11
258.002
 21
-1.47614
  0
LINE
  8
0
 10
258.002
 20
-1.47614
 11
257.776
 21
-1.49487
  0
LINE
  8
0
 10
257.776
 20
-1.49487
 11
257.702
 21
-1.47614
  0
LINE
  8
0
 10
257.702
 20
-1.47614
 11
257.476
 21
-1.49487
  0
LINE
  8
0
 10
257.476
 20
-1.49487
 11
257.402
 21
-1.47614
  0
LINE
  8
0
 10
257.402
 20
-1.47614
 11
257.176
 21
-1.49487
  0
LINE
  8
0
 10
257.176
 20
-1.49487
 11
257.102
 21
-1.47614
  0
LINE
  8
0
 10
257.102
 20
-1.47614
 11
256.876
 21
-1.49487
  0
LINE
  8
0
 10
256.876
 20
-1.49487
 11
256.397
 21
-1.37366
  0
LINE
  8
0
 10
256.397
 20
-1.37366
 11
255.984
 21
-1.10358
  0
LINE
  8
0
 10
255.984
 20
-1.10358
 11
255.681
 21
-0.713913
  0
LINE
  8
0
 10
255.681
 20
-0.713913
 11
255.52
 21
-0.246887
  0
LINE
  8
0
 10
255.52
 20
-0.246887
 11
255.52
 21
0.246887
  0
LINE
  8
0
 10
255.52
 20
0.246887
 11
255.681
 21
0.713913
  0
LINE
  8
0
 10
255.681
 20
0.713913
 11
255.984
 21
1.10358
  0
LINE
  8
0
 10
255.984
 20
1.10358
 11
256.397
 21
1.37366
  0
LINE
  8
0
 10
256.397
 20
1.37366
 11
256.876
 21
1.49487
  0
LINE
  8
0
 10
256.876
 20
1.49487
 11
257.102
 21
1.47614
  0
LINE
  8
0
 10
257.102
 20
1.47614
 11
257.176
 21
1.49487
  0
LINE
  8
0
 10
257.176
 20
1.49487
 11
257.402
 21
1.47614
  0
LINE
  8
0
 10
257.402
 20
1.47614
 11
257.476
 21
1.49487
  0
LINE
  8
0
 10
257.476
 20
1.49487
 11
257.702
 21
1.47614
  0
LINE
  8
0
 10
257.702
 20
1.47614
 11
257.776
 21
1.49487
  0
LINE
  8
0
 10
257.776
 20
1.49487
 11
258.002
 21
1.47614
  0
LINE
  8
0
 10
258.002
 20
1.47614
 11
258.076
 21
1.49487
  0
LINE
  8
0
 10
258.076
 20
1.49487
 11
258.302
 21
1.47614
  0
LINE
  8
0
 10
258.302
 20
1.47614
 11
258.376
 21
1.49487
  0
LINE
  8
0
 10
258.376
 20
1.49487
 11
258.602
 21
1.47614
  0
LINE
  8
0
 10
258.602
 20
1.47614
 11
258.676
 21
1.49487
  0
LINE
  8
0
 10
258.676
 20
1.49487
 11
258.902
 21
1.47614
  0
LINE
  8
0
 10
258.902
 20
1.47614
 11
258.976
 21
1.49487
  0
LINE
  8
0
 10
258.976
 20
1.49487
 11
259.202
 21
1.47614
  0
LINE
  8
0
 10
259.202
 20
1.47614
 11
259.276
 21
1.49487
  0
LINE
  8
0
 10
259.276
 20
1.49487
 11
259.502
 21
1.47614
  0
LINE
  8
0
 10
259.502
 20
1.47614
 11
259.576
 21
1.49487
  0
LINE
  8
0
 10
259.576
 20
1.49487
 11
259.802
 21
1.47614
  0
LINE
  8
0
 10
259.802
 20
1.47614
 11
259.876
 21
1.49487
  0
LINE
  8
0
 10
259.876
 20
1.49487
 11
260.102
 21
1.47614
  0
LINE
  8
0
 10
260.102
 20
1.47614
 11
260.176
 21
1.49487
  0
LINE
  8
0
 10
260.176
 20
1.49487
 11
260.402
 21
1.47614
  0
LINE
  8
0
 10
260.402
 20
1.47614
 11
260.476
 21
1.49487
  0
LINE
  8
0
 10
260.476
 20
1.49487
 11
260.702
 21
1.47614
  0
LINE
  8
0
 10
260.702
 20
1.47614
 11
260.776
 21
1.49487
  0
LINE
  8
0
 10
260.776
 20
1.49487
 11
261.002
 21
1.47614
  0
LINE
  8
0
 10
261.002
 20
1.47614
 11
261.076
 21
1.49487
  0
LINE
  8
0
 10
261.076
 20
1.49487
 11
261.302
 21
1.47614
  0
LINE
  8
0
 10
261.302
 20
1.47614
 11
261.376
 21
1.49487
  0
LINE
  8
0
 10
261.376
 20
1.49487
 11
261.602
 21
1.47614
  0
LINE
  8
0
 10
261.602
 20
1.47614
 11
261.676
 21
1.49487
  0
LINE
  8
0
 10
261.676
 20
1.49487
 11
261.902
 21
1.47614
  0
LINE
  8
0
 10
261.902
 20
1.47614
 11
261.976
 21
1.49487
  0
LINE
  8
0
 10
261.976
 20
1.49487
 11
262.202
 21
1.47614
  0
LINE
  8
0
 10
262.202
 20
1.47614
 11
262.276
 21
1.49487
  0
LINE
  8
0
 10
262.276
 20
1.49487
 11
262.502
 21
1.47614
  0
LINE
  8
0
 10
262.502
 20
1.47614
 11
262.576
 21
1.49487
  0
LINE
  8
0
 10
262.576
 20
1.49487
 11
262.802
 21
1.47614
  0
LINE
  8
0
 10
262.802
 20
1.47614
 11
262.876
 21
1.49487
  0
LINE
  8
0
 10
262.876
 20
1.49487
 11
263.368
 21
1.45409
  0
LINE
  8
0
 10
263.368
 20
1.45409
 11
263.82
 21
1.25574
  0
LINE
  8
0
 10
263.82
 20
1.25574
 11
264.184
 21
0.92131
  0
LINE
  8
0
 10
264.184
 20
0.92131
 11
264.419
 21
0.487045
  0
LINE
  8
0
 10
264.419
 20
0.487045
 11
264.5
 21
0
  0
LINE
  8
0
 10
264.5
 20
0
 11
264.419
 21
-0.487045
  0
LINE
  8
0
 10
264.419
 20
-0.487045
 11
264.184
 21
-0.92131
  0
LINE
  8
0
 10
264.184
 20
-0.92131
 11
263.82
 21
-1.25574
  0
LINE
  8
0
 10
263.82
 20
-1.25574
 11
263.368
 21
-1.45409
  0
LINE
  8
0
 10
263.368
 20
-1.45409
 11
262.876
 21
-1.49487
  0
LINE
  8
0
 10
262.876
 20
-1.49487
 11
262.802
 21
-1.47614
  0
ENDSEC
  0
SECTION
  2
OBJECTS
  0
DICTIONARY
  0
ENDSEC
  0
EOF
