G04 MADE WITH FRITZING*
G04 WWW.FRITZING.ORG*
G04 DOUBLE SIDED*
G04 HOLES PLATED*
G04 CONTOUR ON CENTER OF CONTOUR VECTOR*
%ASAXBY*%
%FSLAX23Y23*%
%MOIN*%
%OFA0B0*%
%SFA1.0B1.0*%
%ADD10C,0.089370*%
%ADD11C,0.135984*%
%ADD12C,0.085000*%
%ADD13C,0.078000*%
%ADD14C,0.080000*%
%ADD15C,0.085361*%
%ADD16C,0.109055*%
%ADD17R,0.089370X0.089370*%
%ADD18R,0.085000X0.085000*%
%ADD19R,0.109055X0.109055*%
%ADD20R,0.001000X0.001000*%
%LNMASK0*%
G90*
G70*
G54D10*
X3976Y641D03*
X3976Y541D03*
X3976Y441D03*
X3876Y641D03*
X3876Y541D03*
X3876Y441D03*
G54D11*
X4250Y2470D03*
X2301Y2470D03*
X2321Y187D03*
X4250Y187D03*
G54D12*
X1661Y95D03*
X1661Y195D03*
X1061Y195D03*
X1661Y295D03*
X1061Y295D03*
X1661Y895D03*
X1061Y895D03*
X1661Y1095D03*
X1061Y1095D03*
X1624Y2465D03*
X1224Y2465D03*
X1224Y2371D03*
X824Y2371D03*
X213Y2229D03*
X613Y2229D03*
X614Y2096D03*
X214Y2096D03*
G54D13*
X1522Y2165D03*
X1422Y2165D03*
X1322Y2165D03*
X1222Y2165D03*
X1222Y1865D03*
X1322Y1865D03*
X1422Y1865D03*
X1522Y1865D03*
X1021Y2160D03*
X921Y2160D03*
X821Y2160D03*
X721Y2160D03*
X721Y1860D03*
X821Y1860D03*
X921Y1860D03*
X1021Y1860D03*
G54D12*
X1067Y2470D03*
X667Y2470D03*
X614Y1860D03*
X214Y1860D03*
G54D14*
X1409Y1705D03*
X1479Y1776D03*
X936Y1705D03*
X1007Y1776D03*
X1828Y1328D03*
X1828Y1428D03*
X1828Y1528D03*
X1828Y1628D03*
X1828Y1728D03*
X1828Y1828D03*
X1828Y1928D03*
X1828Y2028D03*
X1828Y2128D03*
X1828Y2228D03*
X3546Y1724D03*
X3446Y1724D03*
X3346Y1724D03*
X3246Y1724D03*
X3146Y1724D03*
X3046Y1724D03*
X2946Y1724D03*
X2846Y1724D03*
X2746Y1724D03*
X2646Y1724D03*
G54D12*
X4546Y2074D03*
X4546Y1774D03*
X4446Y2074D03*
X4446Y1774D03*
X4346Y2074D03*
X4346Y1774D03*
X4246Y2074D03*
X4246Y1774D03*
G54D14*
X4246Y1674D03*
X4346Y1674D03*
G54D15*
X2346Y374D03*
X2346Y474D03*
X2346Y574D03*
X2346Y674D03*
X2346Y774D03*
X2346Y874D03*
X2346Y974D03*
X2346Y1074D03*
X2346Y1174D03*
X2346Y1274D03*
X2346Y1374D03*
X2346Y1474D03*
X2346Y1574D03*
X2346Y1674D03*
X2346Y1774D03*
X2346Y1874D03*
X2346Y1974D03*
X2346Y2074D03*
X2346Y2174D03*
X2346Y2274D03*
X2246Y2274D03*
X2246Y2174D03*
X2246Y2074D03*
X2246Y1974D03*
X2246Y1874D03*
X2246Y1774D03*
X2246Y1674D03*
X2246Y1574D03*
X2246Y1474D03*
X2246Y1374D03*
X2246Y1274D03*
X2246Y1174D03*
X2246Y1074D03*
X2246Y974D03*
X2246Y874D03*
X2246Y774D03*
X2246Y674D03*
X2246Y574D03*
X2246Y474D03*
X2246Y374D03*
G54D16*
X5218Y423D03*
X5018Y423D03*
X769Y423D03*
X569Y423D03*
X369Y423D03*
X169Y423D03*
X431Y1424D03*
X431Y1624D03*
X5014Y2175D03*
X5214Y2175D03*
G54D12*
X4696Y2124D03*
X4696Y1724D03*
X4546Y674D03*
X4846Y674D03*
X4546Y574D03*
X4846Y574D03*
X4546Y1224D03*
X4846Y1224D03*
X4546Y1124D03*
X4846Y1124D03*
X4546Y1524D03*
X4846Y1524D03*
X4546Y1424D03*
X4846Y1424D03*
X4546Y924D03*
X4846Y924D03*
X4546Y824D03*
X4846Y824D03*
X3996Y974D03*
X4396Y974D03*
X3996Y1474D03*
X4396Y1474D03*
X3046Y1074D03*
X3046Y974D03*
X3046Y874D03*
X3046Y774D03*
X3046Y674D03*
X3046Y574D03*
X3046Y474D03*
X3046Y374D03*
X3046Y274D03*
X3346Y274D03*
X3346Y374D03*
X3346Y474D03*
X3346Y574D03*
X3346Y674D03*
X3346Y774D03*
X3346Y874D03*
X3346Y974D03*
X3346Y1074D03*
G54D17*
X3876Y641D03*
G54D18*
X1661Y95D03*
X4546Y2074D03*
G54D19*
X5218Y423D03*
X769Y423D03*
X431Y1424D03*
X5014Y2175D03*
G54D18*
X4546Y674D03*
X4546Y1224D03*
X4546Y1524D03*
X4546Y924D03*
X3046Y1074D03*
G54D20*
X91Y1025D02*
X103Y1025D01*
X169Y1025D02*
X182Y1025D01*
X280Y1025D02*
X292Y1025D01*
X358Y1025D02*
X371Y1025D01*
X437Y1025D02*
X449Y1025D01*
X87Y1024D02*
X106Y1024D01*
X166Y1024D02*
X185Y1024D01*
X276Y1024D02*
X295Y1024D01*
X355Y1024D02*
X374Y1024D01*
X434Y1024D02*
X453Y1024D01*
X85Y1023D02*
X109Y1023D01*
X163Y1023D02*
X188Y1023D01*
X274Y1023D02*
X298Y1023D01*
X352Y1023D02*
X377Y1023D01*
X431Y1023D02*
X455Y1023D01*
X82Y1022D02*
X111Y1022D01*
X161Y1022D02*
X190Y1022D01*
X271Y1022D02*
X300Y1022D01*
X350Y1022D02*
X379Y1022D01*
X429Y1022D02*
X457Y1022D01*
X81Y1021D02*
X113Y1021D01*
X159Y1021D02*
X192Y1021D01*
X270Y1021D02*
X302Y1021D01*
X348Y1021D02*
X380Y1021D01*
X427Y1021D02*
X459Y1021D01*
X79Y1020D02*
X114Y1020D01*
X158Y1020D02*
X193Y1020D01*
X268Y1020D02*
X303Y1020D01*
X347Y1020D02*
X382Y1020D01*
X426Y1020D02*
X461Y1020D01*
X78Y1019D02*
X116Y1019D01*
X156Y1019D02*
X195Y1019D01*
X267Y1019D02*
X305Y1019D01*
X345Y1019D02*
X383Y1019D01*
X424Y1019D02*
X462Y1019D01*
X76Y1018D02*
X117Y1018D01*
X155Y1018D02*
X196Y1018D01*
X265Y1018D02*
X306Y1018D01*
X344Y1018D02*
X385Y1018D01*
X423Y1018D02*
X464Y1018D01*
X75Y1017D02*
X118Y1017D01*
X154Y1017D02*
X197Y1017D01*
X264Y1017D02*
X307Y1017D01*
X343Y1017D02*
X386Y1017D01*
X422Y1017D02*
X465Y1017D01*
X74Y1016D02*
X119Y1016D01*
X153Y1016D02*
X198Y1016D01*
X263Y1016D02*
X308Y1016D01*
X342Y1016D02*
X387Y1016D01*
X421Y1016D02*
X466Y1016D01*
X73Y1015D02*
X120Y1015D01*
X152Y1015D02*
X199Y1015D01*
X262Y1015D02*
X309Y1015D01*
X341Y1015D02*
X388Y1015D01*
X420Y1015D02*
X467Y1015D01*
X73Y1014D02*
X121Y1014D01*
X151Y1014D02*
X200Y1014D01*
X261Y1014D02*
X310Y1014D01*
X340Y1014D02*
X389Y1014D01*
X419Y1014D02*
X467Y1014D01*
X72Y1013D02*
X122Y1013D01*
X151Y1013D02*
X200Y1013D01*
X261Y1013D02*
X311Y1013D01*
X340Y1013D02*
X389Y1013D01*
X418Y1013D02*
X468Y1013D01*
X71Y1012D02*
X122Y1012D01*
X150Y1012D02*
X201Y1012D01*
X260Y1012D02*
X311Y1012D01*
X339Y1012D02*
X390Y1012D01*
X418Y1012D02*
X469Y1012D01*
X70Y1011D02*
X123Y1011D01*
X149Y1011D02*
X202Y1011D01*
X259Y1011D02*
X312Y1011D01*
X338Y1011D02*
X391Y1011D01*
X417Y1011D02*
X469Y1011D01*
X70Y1010D02*
X124Y1010D01*
X149Y1010D02*
X202Y1010D01*
X259Y1010D02*
X313Y1010D01*
X338Y1010D02*
X391Y1010D01*
X416Y1010D02*
X470Y1010D01*
X69Y1009D02*
X124Y1009D01*
X148Y1009D02*
X203Y1009D01*
X258Y1009D02*
X313Y1009D01*
X337Y1009D02*
X392Y1009D01*
X416Y1009D02*
X471Y1009D01*
X69Y1008D02*
X125Y1008D01*
X148Y1008D02*
X203Y1008D01*
X258Y1008D02*
X314Y1008D01*
X336Y1008D02*
X392Y1008D01*
X415Y1008D02*
X471Y1008D01*
X68Y1007D02*
X125Y1007D01*
X147Y1007D02*
X204Y1007D01*
X257Y1007D02*
X314Y1007D01*
X336Y1007D02*
X393Y1007D01*
X415Y1007D02*
X472Y1007D01*
X68Y1006D02*
X126Y1006D01*
X147Y1006D02*
X204Y1006D01*
X257Y1006D02*
X315Y1006D01*
X336Y1006D02*
X393Y1006D01*
X414Y1006D02*
X472Y1006D01*
X67Y1005D02*
X126Y1005D01*
X146Y1005D02*
X205Y1005D01*
X256Y1005D02*
X315Y1005D01*
X335Y1005D02*
X394Y1005D01*
X414Y1005D02*
X472Y1005D01*
X67Y1004D02*
X126Y1004D01*
X146Y1004D02*
X205Y1004D01*
X256Y1004D02*
X315Y1004D01*
X335Y1004D02*
X394Y1004D01*
X414Y1004D02*
X473Y1004D01*
X67Y1003D02*
X127Y1003D01*
X146Y1003D02*
X205Y1003D01*
X256Y1003D02*
X316Y1003D01*
X334Y1003D02*
X394Y1003D01*
X413Y1003D02*
X473Y1003D01*
X67Y1002D02*
X127Y1002D01*
X145Y1002D02*
X206Y1002D01*
X255Y1002D02*
X316Y1002D01*
X334Y1002D02*
X395Y1002D01*
X413Y1002D02*
X473Y1002D01*
X66Y1001D02*
X93Y1001D01*
X101Y1001D02*
X127Y1001D01*
X145Y1001D02*
X171Y1001D01*
X180Y1001D02*
X206Y1001D01*
X255Y1001D02*
X282Y1001D01*
X290Y1001D02*
X316Y1001D01*
X334Y1001D02*
X360Y1001D01*
X369Y1001D02*
X395Y1001D01*
X413Y1001D02*
X439Y1001D01*
X448Y1001D02*
X474Y1001D01*
X66Y1000D02*
X91Y1000D01*
X102Y1000D02*
X127Y1000D01*
X145Y1000D02*
X170Y1000D01*
X181Y1000D02*
X206Y1000D01*
X255Y1000D02*
X280Y1000D01*
X291Y1000D02*
X316Y1000D01*
X334Y1000D02*
X359Y1000D01*
X370Y1000D02*
X395Y1000D01*
X412Y1000D02*
X438Y1000D01*
X449Y1000D02*
X474Y1000D01*
X66Y999D02*
X90Y999D01*
X103Y999D02*
X128Y999D01*
X145Y999D02*
X169Y999D01*
X182Y999D02*
X206Y999D01*
X255Y999D02*
X279Y999D01*
X292Y999D02*
X317Y999D01*
X334Y999D02*
X358Y999D01*
X371Y999D02*
X395Y999D01*
X412Y999D02*
X437Y999D01*
X450Y999D02*
X474Y999D01*
X66Y998D02*
X89Y998D01*
X104Y998D02*
X128Y998D01*
X144Y998D02*
X168Y998D01*
X183Y998D02*
X207Y998D01*
X255Y998D02*
X278Y998D01*
X293Y998D02*
X317Y998D01*
X333Y998D02*
X357Y998D01*
X372Y998D02*
X396Y998D01*
X412Y998D02*
X436Y998D01*
X451Y998D02*
X474Y998D01*
X66Y997D02*
X89Y997D01*
X105Y997D02*
X128Y997D01*
X144Y997D02*
X168Y997D01*
X184Y997D02*
X207Y997D01*
X254Y997D02*
X278Y997D01*
X294Y997D02*
X317Y997D01*
X333Y997D02*
X357Y997D01*
X372Y997D02*
X396Y997D01*
X412Y997D02*
X435Y997D01*
X451Y997D02*
X474Y997D01*
X65Y996D02*
X89Y996D01*
X105Y996D02*
X128Y996D01*
X144Y996D02*
X167Y996D01*
X184Y996D02*
X207Y996D01*
X254Y996D02*
X278Y996D01*
X294Y996D02*
X317Y996D01*
X333Y996D02*
X356Y996D01*
X373Y996D02*
X396Y996D01*
X412Y996D02*
X435Y996D01*
X452Y996D02*
X474Y996D01*
X65Y995D02*
X88Y995D01*
X105Y995D02*
X128Y995D01*
X144Y995D02*
X167Y995D01*
X184Y995D02*
X207Y995D01*
X254Y995D02*
X277Y995D01*
X294Y995D02*
X317Y995D01*
X333Y995D02*
X356Y995D01*
X373Y995D02*
X396Y995D01*
X412Y995D02*
X435Y995D01*
X452Y995D02*
X475Y995D01*
X65Y994D02*
X88Y994D01*
X105Y994D02*
X128Y994D01*
X144Y994D02*
X167Y994D01*
X184Y994D02*
X207Y994D01*
X254Y994D02*
X277Y994D01*
X294Y994D02*
X317Y994D01*
X333Y994D02*
X356Y994D01*
X373Y994D02*
X396Y994D01*
X412Y994D02*
X435Y994D01*
X452Y994D02*
X475Y994D01*
X65Y993D02*
X88Y993D01*
X105Y993D02*
X128Y993D01*
X144Y993D02*
X167Y993D01*
X184Y993D02*
X207Y993D01*
X254Y993D02*
X277Y993D01*
X294Y993D02*
X317Y993D01*
X333Y993D02*
X356Y993D01*
X373Y993D02*
X396Y993D01*
X412Y993D02*
X435Y993D01*
X452Y993D02*
X475Y993D01*
X65Y992D02*
X88Y992D01*
X105Y992D02*
X128Y992D01*
X144Y992D02*
X167Y992D01*
X184Y992D02*
X207Y992D01*
X254Y992D02*
X277Y992D01*
X294Y992D02*
X317Y992D01*
X333Y992D02*
X356Y992D01*
X373Y992D02*
X396Y992D01*
X412Y992D02*
X435Y992D01*
X452Y992D02*
X475Y992D01*
X65Y991D02*
X89Y991D01*
X105Y991D02*
X128Y991D01*
X144Y991D02*
X167Y991D01*
X184Y991D02*
X207Y991D01*
X254Y991D02*
X278Y991D01*
X294Y991D02*
X317Y991D01*
X333Y991D02*
X356Y991D01*
X373Y991D02*
X396Y991D01*
X412Y991D02*
X435Y991D01*
X451Y991D02*
X474Y991D01*
X66Y990D02*
X89Y990D01*
X104Y990D02*
X128Y990D01*
X144Y990D02*
X168Y990D01*
X183Y990D02*
X207Y990D01*
X255Y990D02*
X278Y990D01*
X293Y990D02*
X317Y990D01*
X333Y990D02*
X357Y990D01*
X372Y990D02*
X396Y990D01*
X412Y990D02*
X436Y990D01*
X451Y990D02*
X474Y990D01*
X66Y989D02*
X90Y989D01*
X104Y989D02*
X128Y989D01*
X145Y989D02*
X169Y989D01*
X183Y989D02*
X206Y989D01*
X255Y989D02*
X279Y989D01*
X293Y989D02*
X317Y989D01*
X333Y989D02*
X358Y989D01*
X372Y989D02*
X395Y989D01*
X412Y989D02*
X436Y989D01*
X450Y989D02*
X474Y989D01*
X66Y988D02*
X91Y988D01*
X103Y988D02*
X128Y988D01*
X145Y988D02*
X170Y988D01*
X182Y988D02*
X206Y988D01*
X255Y988D02*
X280Y988D01*
X292Y988D02*
X317Y988D01*
X334Y988D02*
X358Y988D01*
X371Y988D02*
X395Y988D01*
X412Y988D02*
X437Y988D01*
X449Y988D02*
X474Y988D01*
X66Y987D02*
X92Y987D01*
X102Y987D02*
X127Y987D01*
X145Y987D02*
X171Y987D01*
X180Y987D02*
X206Y987D01*
X255Y987D02*
X281Y987D01*
X291Y987D02*
X316Y987D01*
X334Y987D02*
X360Y987D01*
X369Y987D02*
X395Y987D01*
X413Y987D02*
X438Y987D01*
X448Y987D02*
X474Y987D01*
X66Y986D02*
X94Y986D01*
X100Y986D02*
X127Y986D01*
X145Y986D02*
X173Y986D01*
X178Y986D02*
X206Y986D01*
X255Y986D02*
X283Y986D01*
X289Y986D02*
X316Y986D01*
X334Y986D02*
X362Y986D01*
X367Y986D02*
X395Y986D01*
X413Y986D02*
X440Y986D01*
X446Y986D02*
X474Y986D01*
X67Y985D02*
X127Y985D01*
X145Y985D02*
X206Y985D01*
X256Y985D02*
X316Y985D01*
X334Y985D02*
X394Y985D01*
X413Y985D02*
X473Y985D01*
X67Y984D02*
X126Y984D01*
X146Y984D02*
X205Y984D01*
X256Y984D02*
X315Y984D01*
X335Y984D02*
X394Y984D01*
X413Y984D02*
X473Y984D01*
X67Y983D02*
X126Y983D01*
X146Y983D02*
X205Y983D01*
X256Y983D02*
X315Y983D01*
X335Y983D02*
X394Y983D01*
X414Y983D02*
X473Y983D01*
X68Y982D02*
X126Y982D01*
X146Y982D02*
X204Y982D01*
X257Y982D02*
X315Y982D01*
X335Y982D02*
X393Y982D01*
X414Y982D02*
X472Y982D01*
X68Y981D02*
X125Y981D01*
X147Y981D02*
X204Y981D01*
X257Y981D02*
X314Y981D01*
X336Y981D02*
X393Y981D01*
X415Y981D02*
X472Y981D01*
X69Y980D02*
X125Y980D01*
X147Y980D02*
X204Y980D01*
X258Y980D02*
X314Y980D01*
X336Y980D02*
X393Y980D01*
X415Y980D02*
X471Y980D01*
X69Y979D02*
X124Y979D01*
X148Y979D02*
X203Y979D01*
X258Y979D02*
X313Y979D01*
X337Y979D02*
X392Y979D01*
X416Y979D02*
X471Y979D01*
X70Y978D02*
X124Y978D01*
X148Y978D02*
X203Y978D01*
X259Y978D02*
X313Y978D01*
X337Y978D02*
X392Y978D01*
X416Y978D02*
X470Y978D01*
X70Y977D02*
X123Y977D01*
X149Y977D02*
X202Y977D01*
X259Y977D02*
X312Y977D01*
X338Y977D02*
X391Y977D01*
X417Y977D02*
X470Y977D01*
X71Y976D02*
X123Y976D01*
X150Y976D02*
X201Y976D01*
X260Y976D02*
X312Y976D01*
X339Y976D02*
X390Y976D01*
X417Y976D02*
X469Y976D01*
X72Y975D02*
X122Y975D01*
X150Y975D02*
X201Y975D01*
X261Y975D02*
X311Y975D01*
X339Y975D02*
X390Y975D01*
X418Y975D02*
X468Y975D01*
X72Y974D02*
X121Y974D01*
X151Y974D02*
X200Y974D01*
X261Y974D02*
X310Y974D01*
X340Y974D02*
X389Y974D01*
X419Y974D02*
X468Y974D01*
X73Y973D02*
X120Y973D01*
X152Y973D02*
X199Y973D01*
X262Y973D02*
X309Y973D01*
X341Y973D02*
X388Y973D01*
X420Y973D02*
X467Y973D01*
X74Y972D02*
X119Y972D01*
X153Y972D02*
X198Y972D01*
X263Y972D02*
X308Y972D01*
X342Y972D02*
X387Y972D01*
X420Y972D02*
X466Y972D01*
X75Y971D02*
X118Y971D01*
X154Y971D02*
X197Y971D01*
X264Y971D02*
X307Y971D01*
X343Y971D02*
X386Y971D01*
X421Y971D02*
X465Y971D01*
X76Y970D02*
X117Y970D01*
X155Y970D02*
X196Y970D01*
X265Y970D02*
X306Y970D01*
X344Y970D02*
X385Y970D01*
X423Y970D02*
X464Y970D01*
X77Y969D02*
X116Y969D01*
X156Y969D02*
X195Y969D01*
X266Y969D02*
X305Y969D01*
X345Y969D02*
X384Y969D01*
X424Y969D02*
X463Y969D01*
X79Y968D02*
X115Y968D01*
X157Y968D02*
X194Y968D01*
X268Y968D02*
X304Y968D01*
X346Y968D02*
X383Y968D01*
X425Y968D02*
X461Y968D01*
X80Y967D02*
X113Y967D01*
X159Y967D02*
X192Y967D01*
X269Y967D02*
X302Y967D01*
X348Y967D02*
X381Y967D01*
X427Y967D02*
X460Y967D01*
X82Y966D02*
X112Y966D01*
X161Y966D02*
X190Y966D01*
X271Y966D02*
X301Y966D01*
X350Y966D02*
X379Y966D01*
X428Y966D02*
X458Y966D01*
X84Y965D02*
X109Y965D01*
X163Y965D02*
X188Y965D01*
X273Y965D02*
X298Y965D01*
X352Y965D02*
X377Y965D01*
X430Y965D02*
X456Y965D01*
X86Y964D02*
X107Y964D01*
X165Y964D02*
X186Y964D01*
X275Y964D02*
X296Y964D01*
X354Y964D02*
X375Y964D01*
X433Y964D02*
X453Y964D01*
X90Y963D02*
X104Y963D01*
X168Y963D02*
X183Y963D01*
X279Y963D02*
X293Y963D01*
X357Y963D02*
X372Y963D01*
X436Y963D02*
X450Y963D01*
X96Y962D02*
X97Y962D01*
X175Y962D02*
X176Y962D01*
X285Y962D02*
X286Y962D01*
X364Y962D02*
X365Y962D01*
X443Y962D02*
X444Y962D01*
D02*
G04 End of Mask0*
M02*