G04 MADE WITH FRITZING*
G04 WWW.FRITZING.ORG*
G04 DOUBLE SIDED*
G04 HOLES PLATED*
G04 CONTOUR ON CENTER OF CONTOUR VECTOR*
%ASAXBY*%
%FSLAX23Y23*%
%MOIN*%
%OFA0B0*%
%SFA1.0B1.0*%
%ADD10C,0.089370*%
%ADD11C,0.135984*%
%ADD12C,0.085000*%
%ADD13C,0.078000*%
%ADD14C,0.080000*%
%ADD15C,0.085361*%
%ADD16C,0.109055*%
%ADD17R,0.089370X0.089370*%
%ADD18R,0.085000X0.085000*%
%ADD19R,0.109055X0.109055*%
%ADD20R,0.001000X0.001000*%
%LNMASK1*%
G90*
G70*
G54D10*
X3976Y641D03*
X3976Y541D03*
X3976Y441D03*
X3876Y641D03*
X3876Y541D03*
X3876Y441D03*
G54D11*
X4250Y2470D03*
X2301Y2470D03*
X2321Y187D03*
X4250Y187D03*
G54D12*
X1661Y95D03*
X1661Y195D03*
X1061Y195D03*
X1661Y295D03*
X1061Y295D03*
X1661Y895D03*
X1061Y895D03*
X1661Y1095D03*
X1061Y1095D03*
X1624Y2465D03*
X1224Y2465D03*
X1224Y2371D03*
X824Y2371D03*
X213Y2229D03*
X613Y2229D03*
X614Y2096D03*
X214Y2096D03*
G54D13*
X1522Y2165D03*
X1422Y2165D03*
X1322Y2165D03*
X1222Y2165D03*
X1222Y1865D03*
X1322Y1865D03*
X1422Y1865D03*
X1522Y1865D03*
X1522Y2165D03*
X1422Y2165D03*
X1322Y2165D03*
X1222Y2165D03*
X1222Y1865D03*
X1322Y1865D03*
X1422Y1865D03*
X1522Y1865D03*
X1021Y2160D03*
X921Y2160D03*
X821Y2160D03*
X721Y2160D03*
X721Y1860D03*
X821Y1860D03*
X921Y1860D03*
X1021Y1860D03*
X1021Y2160D03*
X921Y2160D03*
X821Y2160D03*
X721Y2160D03*
X721Y1860D03*
X821Y1860D03*
X921Y1860D03*
X1021Y1860D03*
G54D12*
X1067Y2470D03*
X667Y2470D03*
X614Y1860D03*
X214Y1860D03*
G54D14*
X1409Y1705D03*
X1479Y1776D03*
X936Y1705D03*
X1007Y1776D03*
X1828Y1328D03*
X1828Y1428D03*
X1828Y1528D03*
X1828Y1628D03*
X1828Y1728D03*
X1828Y1828D03*
X1828Y1928D03*
X1828Y2028D03*
X1828Y2128D03*
X1828Y2228D03*
X3546Y1724D03*
X3446Y1724D03*
X3346Y1724D03*
X3246Y1724D03*
X3146Y1724D03*
X3046Y1724D03*
X2946Y1724D03*
X2846Y1724D03*
X2746Y1724D03*
X2646Y1724D03*
G54D12*
X4546Y2074D03*
X4546Y1774D03*
X4446Y2074D03*
X4446Y1774D03*
X4346Y2074D03*
X4346Y1774D03*
X4246Y2074D03*
X4246Y1774D03*
G54D14*
X4246Y1674D03*
X4346Y1674D03*
G54D15*
X2346Y374D03*
X2346Y474D03*
X2346Y574D03*
X2346Y674D03*
X2346Y774D03*
X2346Y874D03*
X2346Y974D03*
X2346Y1074D03*
X2346Y1174D03*
X2346Y1274D03*
X2346Y1374D03*
X2346Y1474D03*
X2346Y1574D03*
X2346Y1674D03*
X2346Y1774D03*
X2346Y1874D03*
X2346Y1974D03*
X2346Y2074D03*
X2346Y2174D03*
X2346Y2274D03*
X2246Y2274D03*
X2246Y2174D03*
X2246Y2074D03*
X2246Y1974D03*
X2246Y1874D03*
X2246Y1774D03*
X2246Y1674D03*
X2246Y1574D03*
X2246Y1474D03*
X2246Y1374D03*
X2246Y1274D03*
X2246Y1174D03*
X2246Y1074D03*
X2246Y974D03*
X2246Y874D03*
X2246Y774D03*
X2246Y674D03*
X2246Y574D03*
X2246Y474D03*
X2246Y374D03*
G54D16*
X5218Y423D03*
X5018Y423D03*
X769Y423D03*
X569Y423D03*
X369Y423D03*
X169Y423D03*
X431Y1424D03*
X431Y1624D03*
X5014Y2175D03*
X5214Y2175D03*
G54D12*
X4696Y2124D03*
X4696Y1724D03*
X4546Y674D03*
X4846Y674D03*
X4546Y574D03*
X4846Y574D03*
X4546Y1224D03*
X4846Y1224D03*
X4546Y1124D03*
X4846Y1124D03*
X4546Y1524D03*
X4846Y1524D03*
X4546Y1424D03*
X4846Y1424D03*
X4546Y924D03*
X4846Y924D03*
X4546Y824D03*
X4846Y824D03*
X3996Y974D03*
X4396Y974D03*
X3996Y1474D03*
X4396Y1474D03*
X3046Y1074D03*
X3046Y974D03*
X3046Y874D03*
X3046Y774D03*
X3046Y674D03*
X3046Y574D03*
X3046Y474D03*
X3046Y374D03*
X3046Y274D03*
X3346Y274D03*
X3346Y374D03*
X3346Y474D03*
X3346Y574D03*
X3346Y674D03*
X3346Y774D03*
X3346Y874D03*
X3346Y974D03*
X3346Y1074D03*
G54D17*
X3876Y641D03*
G54D18*
X1661Y95D03*
X4546Y2074D03*
G54D19*
X5218Y423D03*
X769Y423D03*
X431Y1424D03*
X5014Y2175D03*
G54D18*
X4546Y674D03*
X4546Y1224D03*
X4546Y1524D03*
X4546Y924D03*
X3046Y1074D03*
G54D20*
X90Y1026D02*
X102Y1026D01*
X168Y1026D02*
X181Y1026D01*
X279Y1026D02*
X291Y1026D01*
X357Y1026D02*
X370Y1026D01*
X436Y1026D02*
X448Y1026D01*
X86Y1025D02*
X105Y1025D01*
X165Y1025D02*
X184Y1025D01*
X275Y1025D02*
X294Y1025D01*
X354Y1025D02*
X373Y1025D01*
X433Y1025D02*
X452Y1025D01*
X84Y1024D02*
X108Y1024D01*
X162Y1024D02*
X187Y1024D01*
X273Y1024D02*
X297Y1024D01*
X351Y1024D02*
X376Y1024D01*
X430Y1024D02*
X454Y1024D01*
X81Y1023D02*
X110Y1023D01*
X160Y1023D02*
X189Y1023D01*
X270Y1023D02*
X299Y1023D01*
X349Y1023D02*
X378Y1023D01*
X428Y1023D02*
X456Y1023D01*
X80Y1022D02*
X112Y1022D01*
X158Y1022D02*
X191Y1022D01*
X269Y1022D02*
X301Y1022D01*
X347Y1022D02*
X379Y1022D01*
X426Y1022D02*
X458Y1022D01*
X78Y1021D02*
X113Y1021D01*
X157Y1021D02*
X192Y1021D01*
X267Y1021D02*
X302Y1021D01*
X346Y1021D02*
X381Y1021D01*
X425Y1021D02*
X460Y1021D01*
X77Y1020D02*
X115Y1020D01*
X155Y1020D02*
X194Y1020D01*
X266Y1020D02*
X304Y1020D01*
X344Y1020D02*
X382Y1020D01*
X423Y1020D02*
X461Y1020D01*
X75Y1019D02*
X116Y1019D01*
X154Y1019D02*
X195Y1019D01*
X264Y1019D02*
X305Y1019D01*
X343Y1019D02*
X384Y1019D01*
X422Y1019D02*
X463Y1019D01*
X74Y1018D02*
X117Y1018D01*
X153Y1018D02*
X196Y1018D01*
X263Y1018D02*
X306Y1018D01*
X342Y1018D02*
X385Y1018D01*
X421Y1018D02*
X464Y1018D01*
X73Y1017D02*
X118Y1017D01*
X152Y1017D02*
X197Y1017D01*
X262Y1017D02*
X307Y1017D01*
X341Y1017D02*
X386Y1017D01*
X420Y1017D02*
X465Y1017D01*
X72Y1016D02*
X119Y1016D01*
X151Y1016D02*
X198Y1016D01*
X261Y1016D02*
X308Y1016D01*
X340Y1016D02*
X387Y1016D01*
X419Y1016D02*
X466Y1016D01*
X72Y1015D02*
X120Y1015D01*
X150Y1015D02*
X199Y1015D01*
X260Y1015D02*
X309Y1015D01*
X339Y1015D02*
X388Y1015D01*
X418Y1015D02*
X466Y1015D01*
X71Y1014D02*
X121Y1014D01*
X150Y1014D02*
X199Y1014D01*
X260Y1014D02*
X310Y1014D01*
X339Y1014D02*
X388Y1014D01*
X417Y1014D02*
X467Y1014D01*
X70Y1013D02*
X121Y1013D01*
X149Y1013D02*
X200Y1013D01*
X259Y1013D02*
X310Y1013D01*
X338Y1013D02*
X389Y1013D01*
X417Y1013D02*
X468Y1013D01*
X69Y1012D02*
X122Y1012D01*
X148Y1012D02*
X201Y1012D01*
X258Y1012D02*
X311Y1012D01*
X337Y1012D02*
X390Y1012D01*
X416Y1012D02*
X468Y1012D01*
X69Y1011D02*
X123Y1011D01*
X148Y1011D02*
X201Y1011D01*
X258Y1011D02*
X312Y1011D01*
X337Y1011D02*
X390Y1011D01*
X415Y1011D02*
X469Y1011D01*
X68Y1010D02*
X123Y1010D01*
X147Y1010D02*
X202Y1010D01*
X257Y1010D02*
X312Y1010D01*
X336Y1010D02*
X391Y1010D01*
X415Y1010D02*
X470Y1010D01*
X68Y1009D02*
X124Y1009D01*
X147Y1009D02*
X202Y1009D01*
X257Y1009D02*
X313Y1009D01*
X335Y1009D02*
X391Y1009D01*
X414Y1009D02*
X470Y1009D01*
X67Y1008D02*
X124Y1008D01*
X146Y1008D02*
X203Y1008D01*
X256Y1008D02*
X313Y1008D01*
X335Y1008D02*
X392Y1008D01*
X414Y1008D02*
X471Y1008D01*
X67Y1007D02*
X125Y1007D01*
X146Y1007D02*
X203Y1007D01*
X256Y1007D02*
X314Y1007D01*
X335Y1007D02*
X392Y1007D01*
X413Y1007D02*
X471Y1007D01*
X66Y1006D02*
X125Y1006D01*
X145Y1006D02*
X204Y1006D01*
X255Y1006D02*
X314Y1006D01*
X334Y1006D02*
X393Y1006D01*
X413Y1006D02*
X471Y1006D01*
X66Y1005D02*
X125Y1005D01*
X145Y1005D02*
X204Y1005D01*
X255Y1005D02*
X314Y1005D01*
X334Y1005D02*
X393Y1005D01*
X413Y1005D02*
X472Y1005D01*
X66Y1004D02*
X126Y1004D01*
X145Y1004D02*
X204Y1004D01*
X255Y1004D02*
X315Y1004D01*
X333Y1004D02*
X393Y1004D01*
X412Y1004D02*
X472Y1004D01*
X66Y1003D02*
X126Y1003D01*
X144Y1003D02*
X205Y1003D01*
X254Y1003D02*
X315Y1003D01*
X333Y1003D02*
X394Y1003D01*
X412Y1003D02*
X472Y1003D01*
X65Y1002D02*
X92Y1002D01*
X100Y1002D02*
X126Y1002D01*
X144Y1002D02*
X170Y1002D01*
X179Y1002D02*
X205Y1002D01*
X254Y1002D02*
X281Y1002D01*
X289Y1002D02*
X315Y1002D01*
X333Y1002D02*
X359Y1002D01*
X368Y1002D02*
X394Y1002D01*
X412Y1002D02*
X438Y1002D01*
X447Y1002D02*
X473Y1002D01*
X65Y1001D02*
X90Y1001D01*
X101Y1001D02*
X126Y1001D01*
X144Y1001D02*
X169Y1001D01*
X180Y1001D02*
X205Y1001D01*
X254Y1001D02*
X279Y1001D01*
X290Y1001D02*
X315Y1001D01*
X333Y1001D02*
X358Y1001D01*
X369Y1001D02*
X394Y1001D01*
X411Y1001D02*
X437Y1001D01*
X448Y1001D02*
X473Y1001D01*
X65Y1000D02*
X89Y1000D01*
X102Y1000D02*
X127Y1000D01*
X144Y1000D02*
X168Y1000D01*
X181Y1000D02*
X205Y1000D01*
X254Y1000D02*
X278Y1000D01*
X291Y1000D02*
X316Y1000D01*
X333Y1000D02*
X357Y1000D01*
X370Y1000D02*
X394Y1000D01*
X411Y1000D02*
X436Y1000D01*
X449Y1000D02*
X473Y1000D01*
X65Y999D02*
X88Y999D01*
X103Y999D02*
X127Y999D01*
X143Y999D02*
X167Y999D01*
X182Y999D02*
X206Y999D01*
X254Y999D02*
X277Y999D01*
X292Y999D02*
X316Y999D01*
X332Y999D02*
X356Y999D01*
X371Y999D02*
X395Y999D01*
X411Y999D02*
X435Y999D01*
X450Y999D02*
X473Y999D01*
X65Y998D02*
X88Y998D01*
X104Y998D02*
X127Y998D01*
X143Y998D02*
X167Y998D01*
X183Y998D02*
X206Y998D01*
X253Y998D02*
X277Y998D01*
X293Y998D02*
X316Y998D01*
X332Y998D02*
X356Y998D01*
X371Y998D02*
X395Y998D01*
X411Y998D02*
X434Y998D01*
X450Y998D02*
X473Y998D01*
X64Y997D02*
X88Y997D01*
X104Y997D02*
X127Y997D01*
X143Y997D02*
X166Y997D01*
X183Y997D02*
X206Y997D01*
X253Y997D02*
X277Y997D01*
X293Y997D02*
X316Y997D01*
X332Y997D02*
X355Y997D01*
X372Y997D02*
X395Y997D01*
X411Y997D02*
X434Y997D01*
X451Y997D02*
X473Y997D01*
X64Y996D02*
X87Y996D01*
X104Y996D02*
X127Y996D01*
X143Y996D02*
X166Y996D01*
X183Y996D02*
X206Y996D01*
X253Y996D02*
X276Y996D01*
X293Y996D02*
X316Y996D01*
X332Y996D02*
X355Y996D01*
X372Y996D02*
X395Y996D01*
X411Y996D02*
X434Y996D01*
X451Y996D02*
X474Y996D01*
X64Y995D02*
X87Y995D01*
X104Y995D02*
X127Y995D01*
X143Y995D02*
X166Y995D01*
X183Y995D02*
X206Y995D01*
X253Y995D02*
X276Y995D01*
X293Y995D02*
X316Y995D01*
X332Y995D02*
X355Y995D01*
X372Y995D02*
X395Y995D01*
X411Y995D02*
X434Y995D01*
X451Y995D02*
X474Y995D01*
X64Y994D02*
X87Y994D01*
X104Y994D02*
X127Y994D01*
X143Y994D02*
X166Y994D01*
X183Y994D02*
X206Y994D01*
X253Y994D02*
X276Y994D01*
X293Y994D02*
X316Y994D01*
X332Y994D02*
X355Y994D01*
X372Y994D02*
X395Y994D01*
X411Y994D02*
X434Y994D01*
X451Y994D02*
X474Y994D01*
X64Y993D02*
X87Y993D01*
X104Y993D02*
X127Y993D01*
X143Y993D02*
X166Y993D01*
X183Y993D02*
X206Y993D01*
X253Y993D02*
X276Y993D01*
X293Y993D02*
X316Y993D01*
X332Y993D02*
X355Y993D01*
X372Y993D02*
X395Y993D01*
X411Y993D02*
X434Y993D01*
X451Y993D02*
X474Y993D01*
X64Y992D02*
X88Y992D01*
X104Y992D02*
X127Y992D01*
X143Y992D02*
X166Y992D01*
X183Y992D02*
X206Y992D01*
X253Y992D02*
X277Y992D01*
X293Y992D02*
X316Y992D01*
X332Y992D02*
X355Y992D01*
X372Y992D02*
X395Y992D01*
X411Y992D02*
X434Y992D01*
X450Y992D02*
X473Y992D01*
X65Y991D02*
X88Y991D01*
X103Y991D02*
X127Y991D01*
X143Y991D02*
X167Y991D01*
X182Y991D02*
X206Y991D01*
X254Y991D02*
X277Y991D01*
X292Y991D02*
X316Y991D01*
X332Y991D02*
X356Y991D01*
X371Y991D02*
X395Y991D01*
X411Y991D02*
X435Y991D01*
X450Y991D02*
X473Y991D01*
X65Y990D02*
X89Y990D01*
X103Y990D02*
X127Y990D01*
X144Y990D02*
X168Y990D01*
X182Y990D02*
X205Y990D01*
X254Y990D02*
X278Y990D01*
X292Y990D02*
X316Y990D01*
X332Y990D02*
X357Y990D01*
X371Y990D02*
X394Y990D01*
X411Y990D02*
X435Y990D01*
X449Y990D02*
X473Y990D01*
X65Y989D02*
X90Y989D01*
X102Y989D02*
X127Y989D01*
X144Y989D02*
X169Y989D01*
X181Y989D02*
X205Y989D01*
X254Y989D02*
X279Y989D01*
X291Y989D02*
X316Y989D01*
X333Y989D02*
X357Y989D01*
X370Y989D02*
X394Y989D01*
X411Y989D02*
X436Y989D01*
X448Y989D02*
X473Y989D01*
X65Y988D02*
X91Y988D01*
X101Y988D02*
X126Y988D01*
X144Y988D02*
X170Y988D01*
X179Y988D02*
X205Y988D01*
X254Y988D02*
X280Y988D01*
X290Y988D02*
X315Y988D01*
X333Y988D02*
X359Y988D01*
X368Y988D02*
X394Y988D01*
X412Y988D02*
X437Y988D01*
X447Y988D02*
X473Y988D01*
X65Y987D02*
X93Y987D01*
X99Y987D02*
X126Y987D01*
X144Y987D02*
X172Y987D01*
X177Y987D02*
X205Y987D01*
X254Y987D02*
X282Y987D01*
X288Y987D02*
X315Y987D01*
X333Y987D02*
X361Y987D01*
X366Y987D02*
X394Y987D01*
X412Y987D02*
X439Y987D01*
X445Y987D02*
X473Y987D01*
X66Y986D02*
X126Y986D01*
X144Y986D02*
X205Y986D01*
X255Y986D02*
X315Y986D01*
X333Y986D02*
X393Y986D01*
X412Y986D02*
X472Y986D01*
X66Y985D02*
X125Y985D01*
X145Y985D02*
X204Y985D01*
X255Y985D02*
X314Y985D01*
X334Y985D02*
X393Y985D01*
X412Y985D02*
X472Y985D01*
X66Y984D02*
X125Y984D01*
X145Y984D02*
X204Y984D01*
X255Y984D02*
X314Y984D01*
X334Y984D02*
X393Y984D01*
X413Y984D02*
X472Y984D01*
X67Y983D02*
X125Y983D01*
X145Y983D02*
X203Y983D01*
X256Y983D02*
X314Y983D01*
X334Y983D02*
X392Y983D01*
X413Y983D02*
X471Y983D01*
X67Y982D02*
X124Y982D01*
X146Y982D02*
X203Y982D01*
X256Y982D02*
X313Y982D01*
X335Y982D02*
X392Y982D01*
X414Y982D02*
X471Y982D01*
X68Y981D02*
X124Y981D01*
X146Y981D02*
X203Y981D01*
X257Y981D02*
X313Y981D01*
X335Y981D02*
X392Y981D01*
X414Y981D02*
X470Y981D01*
X68Y980D02*
X123Y980D01*
X147Y980D02*
X202Y980D01*
X257Y980D02*
X312Y980D01*
X336Y980D02*
X391Y980D01*
X415Y980D02*
X470Y980D01*
X69Y979D02*
X123Y979D01*
X147Y979D02*
X202Y979D01*
X258Y979D02*
X312Y979D01*
X336Y979D02*
X391Y979D01*
X415Y979D02*
X469Y979D01*
X69Y978D02*
X122Y978D01*
X148Y978D02*
X201Y978D01*
X258Y978D02*
X311Y978D01*
X337Y978D02*
X390Y978D01*
X416Y978D02*
X469Y978D01*
X70Y977D02*
X122Y977D01*
X149Y977D02*
X200Y977D01*
X259Y977D02*
X311Y977D01*
X338Y977D02*
X389Y977D01*
X416Y977D02*
X468Y977D01*
X71Y976D02*
X121Y976D01*
X149Y976D02*
X200Y976D01*
X260Y976D02*
X310Y976D01*
X338Y976D02*
X389Y976D01*
X417Y976D02*
X467Y976D01*
X71Y975D02*
X120Y975D01*
X150Y975D02*
X199Y975D01*
X260Y975D02*
X309Y975D01*
X339Y975D02*
X388Y975D01*
X418Y975D02*
X467Y975D01*
X72Y974D02*
X119Y974D01*
X151Y974D02*
X198Y974D01*
X261Y974D02*
X308Y974D01*
X340Y974D02*
X387Y974D01*
X419Y974D02*
X466Y974D01*
X73Y973D02*
X118Y973D01*
X152Y973D02*
X197Y973D01*
X262Y973D02*
X307Y973D01*
X341Y973D02*
X386Y973D01*
X419Y973D02*
X465Y973D01*
X74Y972D02*
X117Y972D01*
X153Y972D02*
X196Y972D01*
X263Y972D02*
X306Y972D01*
X342Y972D02*
X385Y972D01*
X420Y972D02*
X464Y972D01*
X75Y971D02*
X116Y971D01*
X154Y971D02*
X195Y971D01*
X264Y971D02*
X305Y971D01*
X343Y971D02*
X384Y971D01*
X422Y971D02*
X463Y971D01*
X76Y970D02*
X115Y970D01*
X155Y970D02*
X194Y970D01*
X265Y970D02*
X304Y970D01*
X344Y970D02*
X383Y970D01*
X423Y970D02*
X462Y970D01*
X78Y969D02*
X114Y969D01*
X156Y969D02*
X193Y969D01*
X267Y969D02*
X303Y969D01*
X345Y969D02*
X382Y969D01*
X424Y969D02*
X460Y969D01*
X79Y968D02*
X112Y968D01*
X158Y968D02*
X191Y968D01*
X268Y968D02*
X301Y968D01*
X347Y968D02*
X380Y968D01*
X426Y968D02*
X459Y968D01*
X81Y967D02*
X111Y967D01*
X160Y967D02*
X189Y967D01*
X270Y967D02*
X300Y967D01*
X349Y967D02*
X378Y967D01*
X427Y967D02*
X457Y967D01*
X83Y966D02*
X108Y966D01*
X162Y966D02*
X187Y966D01*
X272Y966D02*
X297Y966D01*
X351Y966D02*
X376Y966D01*
X429Y966D02*
X455Y966D01*
X85Y965D02*
X106Y965D01*
X164Y965D02*
X185Y965D01*
X274Y965D02*
X295Y965D01*
X353Y965D02*
X374Y965D01*
X432Y965D02*
X452Y965D01*
X89Y964D02*
X103Y964D01*
X167Y964D02*
X182Y964D01*
X278Y964D02*
X292Y964D01*
X356Y964D02*
X371Y964D01*
X435Y964D02*
X449Y964D01*
X95Y963D02*
X96Y963D01*
X174Y963D02*
X175Y963D01*
X284Y963D02*
X285Y963D01*
X363Y963D02*
X364Y963D01*
X442Y963D02*
X443Y963D01*
D02*
G04 End of Mask1*
M02*