G04 MADE WITH FRITZING*
G04 WWW.FRITZING.ORG*
G04 DOUBLE SIDED*
G04 HOLES PLATED*
G04 CONTOUR ON CENTER OF CONTOUR VECTOR*
%ASAXBY*%
%FSLAX23Y23*%
%MOIN*%
%OFA0B0*%
%SFA1.0B1.0*%
%ADD10C,0.079370*%
%ADD11C,0.075000*%
%ADD12C,0.053843*%
%ADD13C,0.068000*%
%ADD14C,0.070000*%
%ADD15C,0.075361*%
%ADD16C,0.099055*%
%ADD17R,0.079370X0.079370*%
%ADD18R,0.075000X0.075000*%
%ADD19R,0.099055X0.099055*%
%ADD20C,0.024000*%
%ADD21C,0.048000*%
%ADD22C,0.012000*%
%ADD23C,0.032000*%
%ADD24R,0.001000X0.001000*%
%LNCOPPER1*%
G90*
G70*
G54D10*
X3976Y641D03*
X3976Y541D03*
X3976Y441D03*
X3876Y641D03*
X3876Y541D03*
X3876Y441D03*
G54D11*
X1661Y95D03*
X1661Y195D03*
X1061Y195D03*
X1661Y295D03*
X1061Y295D03*
X1661Y895D03*
X1061Y895D03*
X1661Y1095D03*
X1061Y1095D03*
G54D12*
X96Y994D03*
X175Y994D03*
X285Y994D03*
X364Y994D03*
X443Y994D03*
G54D11*
X1624Y2465D03*
X1224Y2465D03*
X1224Y2371D03*
X824Y2371D03*
X213Y2229D03*
X613Y2229D03*
X614Y2096D03*
X214Y2096D03*
G54D13*
X1522Y2165D03*
X1422Y2165D03*
X1322Y2165D03*
X1222Y2165D03*
X1222Y1865D03*
X1322Y1865D03*
X1422Y1865D03*
X1522Y1865D03*
X1522Y2165D03*
X1422Y2165D03*
X1322Y2165D03*
X1222Y2165D03*
X1222Y1865D03*
X1322Y1865D03*
X1422Y1865D03*
X1522Y1865D03*
X1021Y2160D03*
X921Y2160D03*
X821Y2160D03*
X721Y2160D03*
X721Y1860D03*
X821Y1860D03*
X921Y1860D03*
X1021Y1860D03*
X1021Y2160D03*
X921Y2160D03*
X821Y2160D03*
X721Y2160D03*
X721Y1860D03*
X821Y1860D03*
X921Y1860D03*
X1021Y1860D03*
G54D11*
X1067Y2470D03*
X667Y2470D03*
X614Y1860D03*
X214Y1860D03*
G54D14*
X1409Y1705D03*
X1479Y1776D03*
X936Y1705D03*
X1007Y1776D03*
X1828Y1328D03*
X1828Y1428D03*
X1828Y1528D03*
X1828Y1628D03*
X1828Y1728D03*
X1828Y1828D03*
X1828Y1928D03*
X1828Y2028D03*
X1828Y2128D03*
X1828Y2228D03*
X3546Y1724D03*
X3446Y1724D03*
X3346Y1724D03*
X3246Y1724D03*
X3146Y1724D03*
X3046Y1724D03*
X2946Y1724D03*
X2846Y1724D03*
X2746Y1724D03*
X2646Y1724D03*
G54D11*
X4546Y2074D03*
X4546Y1774D03*
X4446Y2074D03*
X4446Y1774D03*
X4346Y2074D03*
X4346Y1774D03*
X4246Y2074D03*
X4246Y1774D03*
G54D14*
X4246Y1674D03*
X4346Y1674D03*
G54D15*
X2346Y374D03*
X2346Y474D03*
X2346Y574D03*
X2346Y674D03*
X2346Y774D03*
X2346Y874D03*
X2346Y974D03*
X2346Y1074D03*
X2346Y1174D03*
X2346Y1274D03*
X2346Y1374D03*
X2346Y1474D03*
X2346Y1574D03*
X2346Y1674D03*
X2346Y1774D03*
X2346Y1874D03*
X2346Y1974D03*
X2346Y2074D03*
X2346Y2174D03*
X2346Y2274D03*
X2246Y2274D03*
X2246Y2174D03*
X2246Y2074D03*
X2246Y1974D03*
X2246Y1874D03*
X2246Y1774D03*
X2246Y1674D03*
X2246Y1574D03*
X2246Y1474D03*
X2246Y1374D03*
X2246Y1274D03*
X2246Y1174D03*
X2246Y1074D03*
X2246Y974D03*
X2246Y874D03*
X2246Y774D03*
X2246Y674D03*
X2246Y574D03*
X2246Y474D03*
X2246Y374D03*
G54D16*
X5218Y423D03*
X5018Y423D03*
X769Y423D03*
X569Y423D03*
X369Y423D03*
X169Y423D03*
X431Y1424D03*
X431Y1624D03*
X5014Y2175D03*
X5214Y2175D03*
G54D11*
X4696Y2124D03*
X4696Y1724D03*
X4546Y674D03*
X4846Y674D03*
X4546Y574D03*
X4846Y574D03*
X4546Y1224D03*
X4846Y1224D03*
X4546Y1124D03*
X4846Y1124D03*
X4546Y1524D03*
X4846Y1524D03*
X4546Y1424D03*
X4846Y1424D03*
X4546Y924D03*
X4846Y924D03*
X4546Y824D03*
X4846Y824D03*
X3996Y974D03*
X4396Y974D03*
X3996Y1474D03*
X4396Y1474D03*
X3046Y1074D03*
X3046Y974D03*
X3046Y874D03*
X3046Y774D03*
X3046Y674D03*
X3046Y574D03*
X3046Y474D03*
X3046Y374D03*
X3046Y274D03*
X3346Y274D03*
X3346Y374D03*
X3346Y474D03*
X3346Y574D03*
X3346Y674D03*
X3346Y774D03*
X3346Y874D03*
X3346Y974D03*
X3346Y1074D03*
G54D17*
X3876Y641D03*
G54D18*
X1661Y95D03*
X4546Y2074D03*
G54D19*
X5218Y423D03*
X769Y423D03*
X431Y1424D03*
X5014Y2175D03*
G54D18*
X4546Y674D03*
X4546Y1224D03*
X4546Y1524D03*
X4546Y924D03*
X3046Y1074D03*
G54D20*
X1417Y660D02*
X1417Y1093D01*
D02*
X1417Y1093D02*
X1089Y1095D01*
D02*
X1986Y660D02*
X1417Y660D01*
G54D21*
D02*
X3876Y344D02*
X3876Y399D01*
D02*
X4545Y344D02*
X3876Y344D01*
D02*
X4546Y535D02*
X4545Y344D01*
G54D20*
D02*
X4112Y816D02*
X4112Y442D01*
D02*
X4112Y442D02*
X4007Y441D01*
D02*
X4093Y837D02*
X4112Y816D01*
D02*
X3719Y837D02*
X4093Y837D01*
D02*
X3678Y816D02*
X3719Y837D01*
D02*
X3678Y187D02*
X3678Y816D01*
D02*
X3236Y189D02*
X3678Y187D01*
D02*
X169Y463D02*
X175Y960D01*
D02*
X1986Y1761D02*
X1856Y1816D01*
G54D22*
D02*
X2852Y1761D02*
X2852Y2313D01*
D02*
X2950Y1761D02*
X2950Y2333D01*
G54D20*
D02*
X1632Y1565D02*
X1611Y1584D01*
D02*
X1593Y1979D02*
X1435Y1979D01*
D02*
X1435Y1979D02*
X1415Y1957D01*
D02*
X1415Y1899D02*
X1416Y1891D01*
D02*
X1553Y2175D02*
X1548Y2173D01*
D02*
X1632Y2175D02*
X1553Y2175D01*
G54D22*
D02*
X1712Y1940D02*
X1789Y1939D01*
D02*
X1730Y2037D02*
X1790Y2036D01*
D02*
X1712Y2350D02*
X1689Y2331D01*
G54D20*
D02*
X1986Y1761D02*
X1985Y2214D01*
D02*
X1986Y660D02*
X1986Y1761D01*
G54D22*
D02*
X2852Y2313D02*
X2833Y2333D01*
D02*
X2950Y2333D02*
X2930Y2353D01*
G54D20*
D02*
X668Y1860D02*
X694Y1860D01*
D02*
X1453Y1776D02*
X1033Y1776D01*
G54D22*
D02*
X1730Y2332D02*
X1710Y2312D01*
G54D20*
D02*
X643Y1860D02*
X668Y1860D01*
D02*
X1611Y1584D02*
X1612Y1957D01*
D02*
X1612Y1957D02*
X1593Y1979D01*
D02*
X1789Y1643D02*
X1671Y1644D01*
D02*
X1671Y1644D02*
X1652Y1663D01*
D02*
X1789Y1564D02*
X1632Y1565D01*
D02*
X1415Y1957D02*
X1415Y1899D01*
D02*
X1806Y1549D02*
X1789Y1564D01*
D02*
X1652Y1663D02*
X1652Y2154D01*
D02*
X1652Y2154D02*
X1632Y2175D01*
D02*
X1799Y1639D02*
X1789Y1643D01*
D02*
X1849Y2233D02*
X1858Y2236D01*
D02*
X1966Y2233D02*
X1849Y2233D01*
G54D22*
D02*
X1790Y2036D02*
X1803Y2033D01*
D02*
X1789Y1939D02*
X1804Y1935D01*
D02*
X2930Y2353D02*
X1712Y2350D01*
D02*
X1689Y2331D02*
X1689Y1959D01*
D02*
X1689Y1959D02*
X1712Y1940D01*
D02*
X2949Y1749D02*
X2950Y1761D01*
G54D20*
D02*
X1985Y2214D02*
X1966Y2233D01*
D02*
X2147Y473D02*
X1986Y660D01*
G54D22*
D02*
X2833Y2333D02*
X1730Y2332D01*
D02*
X1710Y2312D02*
X1710Y2057D01*
D02*
X1710Y2057D02*
X1730Y2037D01*
D02*
X2850Y1749D02*
X2852Y1761D01*
G54D20*
D02*
X943Y1270D02*
X924Y1250D01*
D02*
X924Y934D02*
X903Y915D01*
D02*
X608Y1446D02*
X588Y1427D01*
D02*
X470Y1427D02*
X471Y1427D01*
D02*
X77Y2451D02*
X77Y1644D01*
D02*
X214Y307D02*
X1032Y296D01*
D02*
X183Y385D02*
X214Y307D01*
D02*
X707Y600D02*
X960Y600D01*
D02*
X960Y600D02*
X1161Y816D01*
D02*
X1161Y1033D02*
X1085Y1080D01*
D02*
X1161Y816D02*
X1161Y1033D01*
D02*
X594Y455D02*
X707Y600D01*
D02*
X924Y1250D02*
X924Y934D01*
D02*
X294Y915D02*
X289Y960D01*
D02*
X1001Y1270D02*
X943Y1270D01*
D02*
X588Y1427D02*
X470Y1427D01*
D02*
X614Y1831D02*
X608Y1446D01*
D02*
X97Y1624D02*
X390Y1624D01*
D02*
X1007Y1750D02*
X1001Y1270D01*
D02*
X77Y1644D02*
X97Y1624D01*
D02*
X96Y2470D02*
X77Y2451D01*
D02*
X639Y2470D02*
X96Y2470D01*
D02*
X765Y915D02*
X294Y915D01*
D02*
X903Y915D02*
X765Y915D01*
D02*
X4348Y1584D02*
X4346Y1648D01*
D02*
X4329Y1564D02*
X4348Y1584D01*
D02*
X3915Y1564D02*
X4329Y1564D01*
D02*
X3895Y1152D02*
X3895Y1544D01*
D02*
X3895Y1544D02*
X3915Y1564D01*
D02*
X3876Y1132D02*
X3895Y1152D01*
D02*
X3463Y1132D02*
X3876Y1132D01*
D02*
X3374Y1075D02*
X3395Y1075D01*
D02*
X3395Y1075D02*
X3463Y1132D01*
D02*
X4446Y1226D02*
X4496Y1224D01*
D02*
X4496Y1224D02*
X4517Y1224D01*
D02*
X4445Y1374D02*
X4446Y1226D01*
D02*
X4396Y1503D02*
X4396Y1523D01*
D02*
X4396Y1523D02*
X4517Y1524D01*
D02*
X4496Y874D02*
X4526Y904D01*
D02*
X4496Y724D02*
X4396Y724D01*
D02*
X4445Y1424D02*
X4445Y1374D01*
D02*
X4496Y1524D02*
X4445Y1424D01*
D02*
X3295Y1074D02*
X3317Y1074D01*
D02*
X3620Y1072D02*
X3599Y1053D01*
D02*
X3659Y974D02*
X3640Y954D01*
D02*
X3384Y265D02*
X3374Y268D01*
D02*
X3620Y265D02*
X3384Y265D01*
D02*
X3384Y383D02*
X3374Y381D01*
D02*
X3581Y383D02*
X3384Y383D01*
D02*
X3599Y403D02*
X3581Y383D01*
D02*
X3640Y285D02*
X3620Y265D01*
D02*
X3247Y1026D02*
X3295Y1074D01*
D02*
X3236Y189D02*
X3247Y1026D01*
D02*
X3967Y974D02*
X3659Y974D01*
D02*
X3640Y954D02*
X3640Y285D01*
D02*
X3936Y1446D02*
X3936Y1091D01*
D02*
X3936Y1091D02*
X3917Y1072D01*
D02*
X3917Y1072D02*
X3620Y1072D01*
D02*
X3970Y1462D02*
X3936Y1445D01*
D02*
X3599Y1053D02*
X3599Y403D01*
D02*
X4396Y724D02*
X4396Y876D01*
D02*
X4526Y695D02*
X4496Y724D01*
D02*
X4447Y874D02*
X4496Y874D01*
D02*
X4396Y876D02*
X4447Y874D01*
D02*
X4517Y1524D02*
X4496Y1524D01*
G54D23*
D02*
X4946Y874D02*
X4896Y874D01*
D02*
X4946Y1424D02*
X4996Y1374D01*
G54D22*
D02*
X2655Y580D02*
X2655Y1052D01*
D02*
X2675Y482D02*
X2695Y502D01*
D02*
X2715Y974D02*
X3023Y974D01*
D02*
X2675Y1072D02*
X3023Y1074D01*
G54D20*
D02*
X3227Y186D02*
X3236Y189D01*
G54D22*
D02*
X2655Y1052D02*
X2675Y1072D01*
D02*
X2695Y502D02*
X2695Y954D01*
G54D23*
D02*
X5046Y524D02*
X5030Y467D01*
D02*
X4996Y1374D02*
X4996Y974D01*
D02*
X4896Y874D02*
X4870Y848D01*
D02*
X4996Y974D02*
X4946Y874D01*
D02*
X4880Y1424D02*
X4946Y1424D01*
D02*
X4945Y524D02*
X5046Y524D01*
D02*
X4945Y574D02*
X4945Y524D01*
D02*
X4880Y574D02*
X4945Y574D01*
G54D22*
D02*
X2399Y560D02*
X2636Y560D01*
D02*
X2371Y568D02*
X2399Y560D01*
D02*
X2636Y560D02*
X2655Y580D01*
D02*
X2399Y482D02*
X2675Y482D01*
D02*
X2372Y478D02*
X2399Y482D01*
D02*
X2695Y954D02*
X2715Y974D01*
G54D20*
D02*
X2597Y186D02*
X3227Y186D01*
D02*
X2597Y284D02*
X2597Y186D01*
D02*
X2144Y284D02*
X2597Y284D01*
D02*
X2104Y325D02*
X2144Y284D01*
D02*
X1219Y1899D02*
X1219Y1892D01*
D02*
X1219Y2076D02*
X1219Y1899D01*
D02*
X1198Y2097D02*
X1219Y2076D01*
D02*
X2214Y474D02*
X2147Y473D01*
D02*
X2104Y424D02*
X2104Y325D01*
D02*
X2147Y473D02*
X2104Y424D01*
D02*
X643Y2096D02*
X1198Y2097D01*
D02*
X1395Y1865D02*
X1349Y1865D01*
D02*
X1495Y2165D02*
X1449Y2165D01*
D02*
X1321Y2465D02*
X1252Y2465D01*
D02*
X1321Y2249D02*
X1321Y2465D01*
D02*
X1322Y2192D02*
X1321Y2249D01*
D02*
X1224Y2436D02*
X1224Y2400D01*
D02*
X1001Y2194D02*
X1007Y2183D01*
D02*
X1001Y2333D02*
X1001Y2194D01*
D02*
X982Y2371D02*
X1001Y2333D01*
D02*
X853Y2371D02*
X982Y2371D01*
G54D23*
D02*
X4795Y1024D02*
X4897Y1024D01*
G54D20*
D02*
X233Y1978D02*
X903Y1978D01*
G54D23*
D02*
X4795Y675D02*
X4747Y723D01*
G54D20*
D02*
X903Y1978D02*
X923Y1958D01*
G54D23*
D02*
X4747Y574D02*
X4812Y574D01*
G54D20*
D02*
X923Y1899D02*
X923Y1887D01*
D02*
X923Y1958D02*
X923Y1899D01*
G54D23*
D02*
X4746Y1124D02*
X4696Y1075D01*
D02*
X4946Y1075D02*
X4946Y1274D01*
G54D20*
D02*
X215Y1998D02*
X233Y1978D01*
D02*
X214Y2067D02*
X215Y1998D01*
G54D23*
D02*
X4796Y1324D02*
X4746Y1374D01*
D02*
X4796Y1525D02*
X4812Y1525D01*
D02*
X4747Y723D02*
X4746Y974D01*
D02*
X4746Y974D02*
X4795Y1024D01*
D02*
X4897Y1024D02*
X4946Y1075D01*
D02*
X4896Y1324D02*
X4796Y1324D01*
D02*
X4946Y1274D02*
X4896Y1324D01*
D02*
X4746Y1374D02*
X4746Y1475D01*
D02*
X4812Y675D02*
X4795Y675D01*
G54D20*
D02*
X706Y2273D02*
X725Y2254D01*
D02*
X707Y2411D02*
X706Y2273D01*
G54D23*
D02*
X4746Y1475D02*
X4796Y1525D01*
D02*
X4695Y623D02*
X4747Y574D01*
D02*
X4812Y1124D02*
X4746Y1124D01*
D02*
X4696Y1075D02*
X4695Y623D01*
G54D20*
D02*
X3197Y624D02*
X3146Y574D01*
D02*
X3247Y1123D02*
X3195Y1075D01*
D02*
X3295Y1123D02*
X3247Y1123D01*
D02*
X3346Y1074D02*
X3295Y1123D01*
D02*
X3197Y775D02*
X3197Y673D01*
G54D22*
D02*
X2872Y1131D02*
X2774Y1172D01*
D02*
X2793Y1781D02*
X2829Y1743D01*
D02*
X2597Y1821D02*
X2793Y1821D01*
D02*
X2597Y1172D02*
X2576Y1209D01*
D02*
X2576Y1209D02*
X2576Y1800D01*
D02*
X2793Y1821D02*
X2793Y1781D01*
D02*
X2576Y1800D02*
X2597Y1821D01*
D02*
X2774Y1172D02*
X2597Y1172D01*
D02*
X3049Y1131D02*
X2872Y1131D01*
D02*
X3047Y1097D02*
X3049Y1131D01*
G54D20*
D02*
X894Y1860D02*
X849Y1860D01*
D02*
X949Y2160D02*
X994Y2160D01*
D02*
X3195Y1075D02*
X3197Y775D01*
D02*
X3146Y574D02*
X3074Y574D01*
D02*
X3197Y673D02*
X3197Y624D01*
D02*
X825Y2234D02*
X823Y2187D01*
D02*
X803Y2254D02*
X825Y2234D01*
D02*
X1524Y1810D02*
X1523Y1838D01*
G54D22*
D02*
X3147Y1150D02*
X3128Y1172D01*
G54D20*
D02*
X1013Y1830D02*
X1010Y1802D01*
G54D22*
D02*
X2951Y1191D02*
X2946Y1699D01*
G54D20*
D02*
X1014Y1834D02*
X1013Y1830D01*
G54D22*
D02*
X2970Y1172D02*
X2951Y1191D01*
G54D20*
D02*
X1500Y1792D02*
X1524Y1810D01*
G54D22*
D02*
X3128Y1172D02*
X2970Y1172D01*
D02*
X3148Y993D02*
X3147Y1150D01*
D02*
X3128Y973D02*
X3148Y993D01*
D02*
X3069Y974D02*
X3128Y973D01*
G54D20*
D02*
X4645Y2076D02*
X4574Y2075D01*
D02*
X4346Y1746D02*
X4346Y1700D01*
D02*
X3296Y1623D02*
X3246Y1673D01*
D02*
X3246Y1673D02*
X3246Y1694D01*
D02*
X3595Y1623D02*
X3296Y1623D01*
D02*
X3647Y1674D02*
X3595Y1623D01*
D02*
X3647Y1773D02*
X3647Y1674D01*
D02*
X3694Y1825D02*
X3647Y1773D01*
D02*
X4194Y1824D02*
X3694Y1825D01*
D02*
X4225Y1794D02*
X4194Y1824D01*
D02*
X4675Y2105D02*
X4645Y2076D01*
G54D23*
D02*
X4796Y2124D02*
X4730Y2124D01*
D02*
X4846Y2074D02*
X4796Y2124D01*
D02*
X4846Y1559D02*
X4847Y1675D01*
D02*
X4847Y1675D02*
X4846Y2074D01*
G54D20*
D02*
X4645Y1774D02*
X4574Y1774D01*
D02*
X4675Y1744D02*
X4645Y1774D01*
G54D23*
D02*
X4646Y1774D02*
X4672Y1749D01*
D02*
X4196Y1924D02*
X4446Y1924D01*
D02*
X4446Y1924D02*
X4546Y1774D01*
D02*
X4546Y1774D02*
X4646Y1774D01*
D02*
X4147Y1975D02*
X4196Y1924D01*
D02*
X4146Y2224D02*
X4147Y1975D01*
D02*
X4645Y2275D02*
X4446Y2275D01*
D02*
X4195Y2273D02*
X4146Y2224D01*
D02*
X4446Y2275D02*
X4195Y2273D01*
D02*
X5096Y2274D02*
X4645Y2275D01*
D02*
X5179Y2204D02*
X5096Y2274D01*
G54D20*
D02*
X4497Y973D02*
X4424Y974D01*
D02*
X4526Y944D02*
X4497Y973D01*
G54D23*
D02*
X5146Y825D02*
X4880Y824D01*
D02*
X5196Y775D02*
X5146Y825D01*
D02*
X5195Y526D02*
X5196Y775D01*
D02*
X5208Y468D02*
X5195Y526D01*
G54D24*
X663Y2482D02*
X670Y2482D01*
X661Y2481D02*
X672Y2481D01*
X659Y2480D02*
X674Y2480D01*
X658Y2479D02*
X675Y2479D01*
X658Y2478D02*
X676Y2478D01*
X657Y2477D02*
X676Y2477D01*
X656Y2476D02*
X677Y2476D01*
X656Y2475D02*
X678Y2475D01*
X656Y2474D02*
X678Y2474D01*
X655Y2473D02*
X679Y2473D01*
X655Y2472D02*
X680Y2472D01*
X655Y2471D02*
X680Y2471D01*
X655Y2470D02*
X681Y2470D01*
X655Y2469D02*
X682Y2469D01*
X655Y2468D02*
X682Y2468D01*
X656Y2467D02*
X683Y2467D01*
X656Y2466D02*
X684Y2466D01*
X657Y2465D02*
X684Y2465D01*
X657Y2464D02*
X685Y2464D01*
X658Y2463D02*
X686Y2463D01*
X659Y2462D02*
X687Y2462D01*
X659Y2461D02*
X687Y2461D01*
X660Y2460D02*
X688Y2460D01*
X661Y2459D02*
X689Y2459D01*
X661Y2458D02*
X689Y2458D01*
X662Y2457D02*
X690Y2457D01*
X663Y2456D02*
X691Y2456D01*
X663Y2455D02*
X691Y2455D01*
X664Y2454D02*
X692Y2454D01*
X665Y2453D02*
X693Y2453D01*
X665Y2452D02*
X693Y2452D01*
X666Y2451D02*
X694Y2451D01*
X667Y2450D02*
X695Y2450D01*
X667Y2449D02*
X695Y2449D01*
X668Y2448D02*
X696Y2448D01*
X669Y2447D02*
X697Y2447D01*
X669Y2446D02*
X697Y2446D01*
X670Y2445D02*
X698Y2445D01*
X671Y2444D02*
X699Y2444D01*
X671Y2443D02*
X699Y2443D01*
X672Y2442D02*
X700Y2442D01*
X673Y2441D02*
X701Y2441D01*
X673Y2440D02*
X701Y2440D01*
X674Y2439D02*
X702Y2439D01*
X675Y2438D02*
X703Y2438D01*
X675Y2437D02*
X703Y2437D01*
X676Y2436D02*
X704Y2436D01*
X677Y2435D02*
X705Y2435D01*
X677Y2434D02*
X705Y2434D01*
X678Y2433D02*
X706Y2433D01*
X679Y2432D02*
X707Y2432D01*
X679Y2431D02*
X707Y2431D01*
X680Y2430D02*
X708Y2430D01*
X681Y2429D02*
X709Y2429D01*
X681Y2428D02*
X709Y2428D01*
X682Y2427D02*
X710Y2427D01*
X683Y2426D02*
X711Y2426D01*
X684Y2425D02*
X711Y2425D01*
X684Y2424D02*
X712Y2424D01*
X685Y2423D02*
X713Y2423D01*
X686Y2422D02*
X713Y2422D01*
X686Y2421D02*
X714Y2421D01*
X687Y2420D02*
X715Y2420D01*
X688Y2419D02*
X716Y2419D01*
X688Y2418D02*
X716Y2418D01*
X689Y2417D02*
X717Y2417D01*
X690Y2416D02*
X717Y2416D01*
X690Y2415D02*
X717Y2415D01*
X691Y2414D02*
X718Y2414D01*
X692Y2413D02*
X718Y2413D01*
X692Y2412D02*
X718Y2412D01*
X693Y2411D02*
X718Y2411D01*
X694Y2410D02*
X717Y2410D01*
X694Y2409D02*
X717Y2409D01*
X695Y2408D02*
X717Y2408D01*
X696Y2407D02*
X717Y2407D01*
X696Y2406D02*
X716Y2406D01*
X697Y2405D02*
X715Y2405D01*
X698Y2404D02*
X715Y2404D01*
X699Y2403D02*
X713Y2403D01*
X700Y2402D02*
X712Y2402D01*
X702Y2401D02*
X710Y2401D01*
X721Y2266D02*
X807Y2266D01*
X719Y2265D02*
X809Y2265D01*
X718Y2264D02*
X810Y2264D01*
X717Y2263D02*
X811Y2263D01*
X716Y2262D02*
X812Y2262D01*
X715Y2261D02*
X813Y2261D01*
X715Y2260D02*
X813Y2260D01*
X714Y2259D02*
X814Y2259D01*
X714Y2258D02*
X814Y2258D01*
X714Y2257D02*
X814Y2257D01*
X714Y2256D02*
X814Y2256D01*
X713Y2255D02*
X814Y2255D01*
X714Y2254D02*
X814Y2254D01*
X714Y2253D02*
X814Y2253D01*
X714Y2252D02*
X814Y2252D01*
X714Y2251D02*
X814Y2251D01*
X715Y2250D02*
X813Y2250D01*
X715Y2249D02*
X813Y2249D01*
X716Y2248D02*
X812Y2248D01*
X717Y2247D02*
X811Y2247D01*
X718Y2246D02*
X810Y2246D01*
X719Y2245D02*
X809Y2245D01*
X721Y2244D02*
X807Y2244D01*
X725Y2243D02*
X804Y2243D01*
X90Y1019D02*
X101Y1019D01*
X169Y1019D02*
X180Y1019D01*
X279Y1019D02*
X290Y1019D01*
X358Y1019D02*
X369Y1019D01*
X436Y1019D02*
X448Y1019D01*
X87Y1018D02*
X105Y1018D01*
X166Y1018D02*
X183Y1018D01*
X276Y1018D02*
X293Y1018D01*
X355Y1018D02*
X372Y1018D01*
X433Y1018D02*
X451Y1018D01*
X85Y1017D02*
X107Y1017D01*
X164Y1017D02*
X185Y1017D01*
X274Y1017D02*
X295Y1017D01*
X353Y1017D02*
X374Y1017D01*
X431Y1017D02*
X453Y1017D01*
X83Y1016D02*
X108Y1016D01*
X162Y1016D02*
X187Y1016D01*
X272Y1016D02*
X297Y1016D01*
X351Y1016D02*
X376Y1016D01*
X430Y1016D02*
X455Y1016D01*
X82Y1015D02*
X110Y1015D01*
X160Y1015D02*
X189Y1015D01*
X271Y1015D02*
X299Y1015D01*
X349Y1015D02*
X378Y1015D01*
X428Y1015D02*
X456Y1015D01*
X80Y1014D02*
X111Y1014D01*
X159Y1014D02*
X190Y1014D01*
X269Y1014D02*
X300Y1014D01*
X348Y1014D02*
X379Y1014D01*
X427Y1014D02*
X458Y1014D01*
X79Y1013D02*
X112Y1013D01*
X158Y1013D02*
X191Y1013D01*
X268Y1013D02*
X301Y1013D01*
X347Y1013D02*
X380Y1013D01*
X426Y1013D02*
X459Y1013D01*
X78Y1012D02*
X113Y1012D01*
X157Y1012D02*
X192Y1012D01*
X267Y1012D02*
X302Y1012D01*
X346Y1012D02*
X381Y1012D01*
X425Y1012D02*
X460Y1012D01*
X77Y1011D02*
X114Y1011D01*
X156Y1011D02*
X193Y1011D01*
X266Y1011D02*
X303Y1011D01*
X345Y1011D02*
X382Y1011D01*
X424Y1011D02*
X461Y1011D01*
X77Y1010D02*
X115Y1010D01*
X155Y1010D02*
X194Y1010D01*
X265Y1010D02*
X304Y1010D01*
X344Y1010D02*
X383Y1010D01*
X423Y1010D02*
X461Y1010D01*
X76Y1009D02*
X91Y1009D01*
X101Y1009D02*
X116Y1009D01*
X154Y1009D02*
X169Y1009D01*
X180Y1009D02*
X195Y1009D01*
X265Y1009D02*
X280Y1009D01*
X290Y1009D02*
X305Y1009D01*
X343Y1009D02*
X358Y1009D01*
X369Y1009D02*
X383Y1009D01*
X422Y1009D02*
X437Y1009D01*
X448Y1009D02*
X462Y1009D01*
X75Y1008D02*
X88Y1008D01*
X103Y1008D02*
X116Y1008D01*
X154Y1008D02*
X167Y1008D01*
X182Y1008D02*
X195Y1008D01*
X264Y1008D02*
X277Y1008D01*
X292Y1008D02*
X305Y1008D01*
X343Y1008D02*
X356Y1008D01*
X371Y1008D02*
X384Y1008D01*
X422Y1008D02*
X435Y1008D01*
X450Y1008D02*
X463Y1008D01*
X75Y1007D02*
X87Y1007D01*
X105Y1007D02*
X117Y1007D01*
X153Y1007D02*
X165Y1007D01*
X184Y1007D02*
X196Y1007D01*
X264Y1007D02*
X276Y1007D01*
X294Y1007D02*
X306Y1007D01*
X342Y1007D02*
X354Y1007D01*
X373Y1007D02*
X385Y1007D01*
X421Y1007D02*
X433Y1007D01*
X451Y1007D02*
X463Y1007D01*
X74Y1006D02*
X85Y1006D01*
X106Y1006D02*
X117Y1006D01*
X153Y1006D02*
X164Y1006D01*
X185Y1006D02*
X196Y1006D01*
X263Y1006D02*
X274Y1006D01*
X295Y1006D02*
X306Y1006D01*
X342Y1006D02*
X353Y1006D01*
X374Y1006D02*
X385Y1006D01*
X420Y1006D02*
X432Y1006D01*
X453Y1006D02*
X464Y1006D01*
X73Y1005D02*
X84Y1005D01*
X107Y1005D02*
X118Y1005D01*
X152Y1005D02*
X163Y1005D01*
X186Y1005D02*
X197Y1005D01*
X262Y1005D02*
X273Y1005D01*
X296Y1005D02*
X307Y1005D01*
X341Y1005D02*
X352Y1005D01*
X375Y1005D02*
X386Y1005D01*
X420Y1005D02*
X431Y1005D01*
X454Y1005D02*
X464Y1005D01*
X73Y1004D02*
X84Y1004D01*
X108Y1004D02*
X118Y1004D01*
X152Y1004D02*
X162Y1004D01*
X187Y1004D02*
X197Y1004D01*
X262Y1004D02*
X273Y1004D01*
X297Y1004D02*
X307Y1004D01*
X341Y1004D02*
X351Y1004D01*
X376Y1004D02*
X386Y1004D01*
X419Y1004D02*
X430Y1004D01*
X455Y1004D02*
X465Y1004D01*
X73Y1003D02*
X83Y1003D01*
X109Y1003D02*
X119Y1003D01*
X151Y1003D02*
X162Y1003D01*
X188Y1003D02*
X198Y1003D01*
X262Y1003D02*
X272Y1003D01*
X298Y1003D02*
X308Y1003D01*
X340Y1003D02*
X351Y1003D01*
X377Y1003D02*
X387Y1003D01*
X419Y1003D02*
X429Y1003D01*
X455Y1003D02*
X465Y1003D01*
X72Y1002D02*
X82Y1002D01*
X109Y1002D02*
X119Y1002D01*
X151Y1002D02*
X161Y1002D01*
X188Y1002D02*
X198Y1002D01*
X261Y1002D02*
X271Y1002D01*
X298Y1002D02*
X308Y1002D01*
X340Y1002D02*
X350Y1002D01*
X377Y1002D02*
X387Y1002D01*
X419Y1002D02*
X429Y1002D01*
X456Y1002D02*
X466Y1002D01*
X72Y1001D02*
X82Y1001D01*
X110Y1001D02*
X119Y1001D01*
X151Y1001D02*
X160Y1001D01*
X189Y1001D02*
X198Y1001D01*
X261Y1001D02*
X271Y1001D01*
X299Y1001D02*
X308Y1001D01*
X340Y1001D02*
X349Y1001D01*
X378Y1001D02*
X387Y1001D01*
X419Y1001D02*
X428Y1001D01*
X456Y1001D02*
X466Y1001D01*
X72Y1000D02*
X81Y1000D01*
X110Y1000D02*
X120Y1000D01*
X151Y1000D02*
X160Y1000D01*
X189Y1000D02*
X198Y1000D01*
X261Y1000D02*
X270Y1000D01*
X299Y1000D02*
X309Y1000D01*
X340Y1000D02*
X349Y1000D01*
X378Y1000D02*
X387Y1000D01*
X418Y1000D02*
X428Y1000D01*
X457Y1000D02*
X466Y1000D01*
X72Y999D02*
X81Y999D01*
X111Y999D02*
X120Y999D01*
X150Y999D02*
X160Y999D01*
X189Y999D02*
X199Y999D01*
X261Y999D02*
X270Y999D01*
X300Y999D02*
X309Y999D01*
X339Y999D02*
X349Y999D01*
X378Y999D02*
X388Y999D01*
X418Y999D02*
X427Y999D01*
X457Y999D02*
X466Y999D01*
X71Y998D02*
X81Y998D01*
X111Y998D02*
X120Y998D01*
X150Y998D02*
X159Y998D01*
X190Y998D02*
X199Y998D01*
X260Y998D02*
X270Y998D01*
X300Y998D02*
X309Y998D01*
X339Y998D02*
X348Y998D01*
X379Y998D02*
X388Y998D01*
X418Y998D02*
X427Y998D01*
X457Y998D02*
X466Y998D01*
X71Y997D02*
X81Y997D01*
X111Y997D02*
X120Y997D01*
X150Y997D02*
X159Y997D01*
X190Y997D02*
X199Y997D01*
X260Y997D02*
X270Y997D01*
X300Y997D02*
X309Y997D01*
X339Y997D02*
X348Y997D01*
X379Y997D02*
X388Y997D01*
X418Y997D02*
X427Y997D01*
X458Y997D02*
X467Y997D01*
X71Y996D02*
X80Y996D01*
X111Y996D02*
X120Y996D01*
X150Y996D02*
X159Y996D01*
X190Y996D02*
X199Y996D01*
X260Y996D02*
X269Y996D01*
X300Y996D02*
X309Y996D01*
X339Y996D02*
X348Y996D01*
X379Y996D02*
X388Y996D01*
X418Y996D02*
X427Y996D01*
X458Y996D02*
X467Y996D01*
X71Y995D02*
X80Y995D01*
X111Y995D02*
X120Y995D01*
X150Y995D02*
X159Y995D01*
X190Y995D02*
X199Y995D01*
X260Y995D02*
X269Y995D01*
X300Y995D02*
X309Y995D01*
X339Y995D02*
X348Y995D01*
X379Y995D02*
X388Y995D01*
X418Y995D02*
X427Y995D01*
X458Y995D02*
X467Y995D01*
X71Y994D02*
X80Y994D01*
X111Y994D02*
X120Y994D01*
X150Y994D02*
X159Y994D01*
X190Y994D02*
X199Y994D01*
X260Y994D02*
X269Y994D01*
X300Y994D02*
X309Y994D01*
X339Y994D02*
X348Y994D01*
X379Y994D02*
X388Y994D01*
X418Y994D02*
X427Y994D01*
X458Y994D02*
X467Y994D01*
X71Y993D02*
X81Y993D01*
X111Y993D02*
X120Y993D01*
X150Y993D02*
X159Y993D01*
X190Y993D02*
X199Y993D01*
X260Y993D02*
X269Y993D01*
X300Y993D02*
X309Y993D01*
X339Y993D02*
X348Y993D01*
X379Y993D02*
X388Y993D01*
X418Y993D02*
X427Y993D01*
X458Y993D02*
X467Y993D01*
X71Y992D02*
X81Y992D01*
X111Y992D02*
X120Y992D01*
X150Y992D02*
X159Y992D01*
X190Y992D02*
X199Y992D01*
X260Y992D02*
X270Y992D01*
X300Y992D02*
X309Y992D01*
X339Y992D02*
X348Y992D01*
X379Y992D02*
X388Y992D01*
X418Y992D02*
X427Y992D01*
X457Y992D02*
X466Y992D01*
X72Y991D02*
X81Y991D01*
X111Y991D02*
X120Y991D01*
X150Y991D02*
X160Y991D01*
X190Y991D02*
X199Y991D01*
X261Y991D02*
X270Y991D01*
X300Y991D02*
X309Y991D01*
X339Y991D02*
X349Y991D01*
X378Y991D02*
X388Y991D01*
X418Y991D02*
X427Y991D01*
X457Y991D02*
X466Y991D01*
X72Y990D02*
X81Y990D01*
X110Y990D02*
X120Y990D01*
X150Y990D02*
X160Y990D01*
X189Y990D02*
X198Y990D01*
X261Y990D02*
X270Y990D01*
X299Y990D02*
X309Y990D01*
X339Y990D02*
X349Y990D01*
X378Y990D02*
X387Y990D01*
X418Y990D02*
X428Y990D01*
X457Y990D02*
X466Y990D01*
X72Y989D02*
X82Y989D01*
X110Y989D02*
X119Y989D01*
X151Y989D02*
X160Y989D01*
X189Y989D02*
X198Y989D01*
X261Y989D02*
X270Y989D01*
X299Y989D02*
X308Y989D01*
X340Y989D02*
X349Y989D01*
X378Y989D02*
X387Y989D01*
X418Y989D02*
X428Y989D01*
X457Y989D02*
X466Y989D01*
X72Y988D02*
X82Y988D01*
X110Y988D02*
X119Y988D01*
X151Y988D02*
X161Y988D01*
X188Y988D02*
X198Y988D01*
X261Y988D02*
X271Y988D01*
X299Y988D02*
X308Y988D01*
X340Y988D02*
X350Y988D01*
X377Y988D02*
X387Y988D01*
X419Y988D02*
X428Y988D01*
X456Y988D02*
X466Y988D01*
X73Y987D02*
X83Y987D01*
X109Y987D02*
X119Y987D01*
X151Y987D02*
X161Y987D01*
X188Y987D02*
X198Y987D01*
X262Y987D02*
X272Y987D01*
X298Y987D02*
X308Y987D01*
X340Y987D02*
X350Y987D01*
X377Y987D02*
X387Y987D01*
X419Y987D02*
X429Y987D01*
X456Y987D02*
X465Y987D01*
X73Y986D02*
X83Y986D01*
X108Y986D02*
X119Y986D01*
X152Y986D02*
X162Y986D01*
X187Y986D02*
X197Y986D01*
X262Y986D02*
X272Y986D01*
X297Y986D02*
X308Y986D01*
X341Y986D02*
X351Y986D01*
X376Y986D02*
X386Y986D01*
X419Y986D02*
X430Y986D01*
X455Y986D02*
X465Y986D01*
X73Y985D02*
X84Y985D01*
X108Y985D02*
X118Y985D01*
X152Y985D02*
X163Y985D01*
X186Y985D02*
X197Y985D01*
X262Y985D02*
X273Y985D01*
X297Y985D02*
X307Y985D01*
X341Y985D02*
X352Y985D01*
X375Y985D02*
X386Y985D01*
X420Y985D02*
X430Y985D01*
X454Y985D02*
X465Y985D01*
X74Y984D02*
X85Y984D01*
X107Y984D02*
X118Y984D01*
X153Y984D02*
X164Y984D01*
X185Y984D02*
X196Y984D01*
X263Y984D02*
X274Y984D01*
X296Y984D02*
X307Y984D01*
X342Y984D02*
X353Y984D01*
X374Y984D02*
X385Y984D01*
X420Y984D02*
X431Y984D01*
X453Y984D02*
X464Y984D01*
X74Y983D02*
X86Y983D01*
X106Y983D02*
X117Y983D01*
X153Y983D02*
X165Y983D01*
X184Y983D02*
X196Y983D01*
X263Y983D02*
X275Y983D01*
X295Y983D02*
X306Y983D01*
X342Y983D02*
X354Y983D01*
X373Y983D02*
X385Y983D01*
X421Y983D02*
X433Y983D01*
X452Y983D02*
X464Y983D01*
X75Y982D02*
X88Y982D01*
X104Y982D02*
X117Y982D01*
X154Y982D02*
X166Y982D01*
X183Y982D02*
X195Y982D01*
X264Y982D02*
X276Y982D01*
X293Y982D02*
X305Y982D01*
X343Y982D02*
X355Y982D01*
X372Y982D02*
X384Y982D01*
X421Y982D02*
X434Y982D01*
X451Y982D02*
X463Y982D01*
X76Y981D02*
X89Y981D01*
X102Y981D02*
X116Y981D01*
X154Y981D02*
X168Y981D01*
X181Y981D02*
X195Y981D01*
X264Y981D02*
X278Y981D01*
X291Y981D02*
X305Y981D01*
X343Y981D02*
X357Y981D01*
X370Y981D02*
X384Y981D01*
X422Y981D02*
X436Y981D01*
X449Y981D02*
X462Y981D01*
X76Y980D02*
X93Y980D01*
X99Y980D02*
X115Y980D01*
X155Y980D02*
X172Y980D01*
X178Y980D02*
X194Y980D01*
X265Y980D02*
X282Y980D01*
X288Y980D02*
X304Y980D01*
X344Y980D02*
X360Y980D01*
X367Y980D02*
X383Y980D01*
X423Y980D02*
X439Y980D01*
X445Y980D02*
X462Y980D01*
X77Y979D02*
X114Y979D01*
X156Y979D02*
X193Y979D01*
X266Y979D02*
X303Y979D01*
X345Y979D02*
X382Y979D01*
X424Y979D02*
X461Y979D01*
X78Y978D02*
X114Y978D01*
X157Y978D02*
X192Y978D01*
X267Y978D02*
X303Y978D01*
X346Y978D02*
X381Y978D01*
X424Y978D02*
X460Y978D01*
X79Y977D02*
X113Y977D01*
X158Y977D02*
X191Y977D01*
X268Y977D02*
X302Y977D01*
X347Y977D02*
X380Y977D01*
X425Y977D02*
X459Y977D01*
X80Y976D02*
X111Y976D01*
X159Y976D02*
X190Y976D01*
X269Y976D02*
X300Y976D01*
X348Y976D02*
X379Y976D01*
X427Y976D02*
X458Y976D01*
X81Y975D02*
X110Y975D01*
X160Y975D02*
X189Y975D01*
X270Y975D02*
X299Y975D01*
X349Y975D02*
X378Y975D01*
X428Y975D02*
X457Y975D01*
X83Y974D02*
X109Y974D01*
X161Y974D02*
X188Y974D01*
X272Y974D02*
X298Y974D01*
X350Y974D02*
X377Y974D01*
X429Y974D02*
X455Y974D01*
X84Y973D02*
X107Y973D01*
X163Y973D02*
X186Y973D01*
X273Y973D02*
X296Y973D01*
X352Y973D02*
X375Y973D01*
X431Y973D02*
X453Y973D01*
X86Y972D02*
X105Y972D01*
X165Y972D02*
X184Y972D01*
X275Y972D02*
X294Y972D01*
X354Y972D02*
X373Y972D01*
X433Y972D02*
X452Y972D01*
X89Y971D02*
X103Y971D01*
X168Y971D02*
X181Y971D01*
X278Y971D02*
X291Y971D01*
X357Y971D02*
X370Y971D01*
X435Y971D02*
X449Y971D01*
X95Y970D02*
X97Y970D01*
X173Y970D02*
X176Y970D01*
X284Y970D02*
X286Y970D01*
X362Y970D02*
X365Y970D01*
X441Y970D02*
X443Y970D01*
D02*
G04 End of Copper1*
M02*