M48
; DRILL file {KiCad 7.0.6} date Wed Nov  8 16:42:51 2023
; FORMAT={-:-/ absolute / inch / decimal}
; #@! TF.CreationDate,2023-11-08T16:42:51+01:00
; #@! TF.GenerationSoftware,Kicad,Pcbnew,7.0.6
; #@! TF.FileFunction,Plated,1,2,PTH
FMAT,2
INCH
; #@! TA.AperFunction,Plated,PTH,ViaDrill
T1C0.0157
; #@! TA.AperFunction,Plated,PTH,ComponentDrill
T2C0.0276
; #@! TA.AperFunction,Plated,PTH,ComponentDrill
T3C0.0315
; #@! TA.AperFunction,Plated,PTH,ComponentDrill
T4C0.0354
; #@! TA.AperFunction,Plated,PTH,ComponentDrill
T5C0.0394
; #@! TA.AperFunction,Plated,PTH,ComponentDrill
T6C0.0433
; #@! TA.AperFunction,Plated,PTH,ComponentDrill
T7C0.0437
; #@! TA.AperFunction,Plated,PTH,ComponentDrill
T8C0.0472
; #@! TA.AperFunction,Plated,PTH,ComponentDrill
T9C0.0512
; #@! TA.AperFunction,Plated,PTH,ComponentDrill
T10C0.0984
; #@! TA.AperFunction,Plated,PTH,ComponentDrill
T11C0.1260
%
G90
G05
T1
X1.33Y-2.78
X1.41Y-2.57
X1.54Y-2.82
X1.6Y-2.94
X1.83Y-2.7
X1.97Y-2.78
X1.97Y-5.505
X1.98Y-2.54
X2.14Y-2.54
X2.48Y-3.13
X2.84Y-2.8
X3.03Y-2.45
X4.02Y-3.14
X4.18Y-2.45
X4.3031Y-2.2902
X4.5839Y-5.5661
X4.6807Y-2.7031
X5.0Y-2.5
X5.1079Y-2.8421
X5.1575Y-2.7559
X5.1969Y-4.0945
X5.3937Y-3.937
X5.45Y-2.95
X5.4894Y-5.2512
X5.6693Y-5.4724
X6.6592Y-2.9471
X7.2047Y-2.9528
X7.7482Y-5.5982
X7.8Y-4.4
X7.9569Y-4.653
X8.1484Y-4.9398
X8.1677Y-3.6433
X8.24Y-3.73
X8.2567Y-4.8559
X8.47Y-4.37
X8.5868Y-4.2986
X8.6614Y-3.8189
X8.7794Y-3.266
X8.89Y-3.26
X8.975Y-3.266
X9.15Y-4.25
X9.2126Y-3.2677
X9.39Y-4.24
X9.4882Y-3.622
X9.5276Y-4.3701
X9.71Y-2.56
X9.8Y-2.37
T2
X4.65Y-4.41
X4.75Y-3.81
X4.75Y-4.41
X4.85Y-3.81
X4.85Y-4.41
X5.45Y-3.81
X5.45Y-4.41
X5.65Y-3.81
X5.65Y-4.41
X6.88Y-2.66
X6.88Y-2.86
X6.88Y-3.46
X6.88Y-3.56
X7.48Y-2.66
X7.48Y-2.86
X7.48Y-3.46
X7.48Y-3.56
X7.48Y-3.66
T3
X1.1504Y-5.8562
X1.16Y-3.0996
X1.16Y-3.2965
X1.18Y-2.67
X1.18Y-2.77
X1.18Y-2.87
X1.18Y-2.97
X1.23Y-2.4896
X1.2504Y-5.9562
X1.33Y-2.4896
X1.3504Y-5.8562
X1.3696Y-3.1212
X1.3696Y-3.2196
X1.4Y-5.95
X1.43Y-2.4896
X1.48Y-2.67
X1.48Y-2.77
X1.48Y-2.87
X1.48Y-2.97
X1.6212Y-2.3628
X1.6212Y-2.5596
X1.6234Y-2.79
X1.7Y-5.95
X1.7219Y-2.79
X1.78Y-2.97
X1.78Y-3.11
X1.8Y-2.32
X1.8Y-2.62
X1.8316Y-2.16
X1.8504Y-5.8543
X1.8994Y-2.7504
X1.9Y-2.32
X1.9Y-2.62
X1.9504Y-5.9543
X2.0Y-2.32
X2.0Y-2.62
X2.0284Y-2.16
X2.0504Y-5.8543
X2.08Y-2.97
X2.08Y-3.11
X2.1Y-2.32
X2.1Y-2.62
X2.1Y-5.95
X2.1994Y-2.7504
X2.2Y-2.32
X2.2Y-2.62
X2.2316Y-3.25
X2.2334Y-2.09
X2.2916Y-3.05
X2.3Y-2.32
X2.3Y-2.62
X2.3319Y-2.09
X2.39Y-3.05
X2.4Y-2.32
X2.4Y-2.62
X2.4Y-5.95
X2.4284Y-3.25
X2.5Y-2.32
X2.5Y-2.62
X2.5604Y-2.9004
X2.5604Y-3.0004
X2.5604Y-3.1004
X2.5604Y-3.2004
X2.62Y-2.2431
X2.62Y-2.44
X2.69Y-2.71
X2.7504Y-5.8665
X2.7781Y-2.42
X2.79Y-2.71
X2.8Y-4.39
X2.8504Y-5.9665
X2.8604Y-2.9004
X2.8604Y-3.0004
X2.8604Y-3.1004
X2.8604Y-3.2004
X2.8766Y-2.42
X2.89Y-2.71
X2.9Y-3.79
X2.9Y-4.39
X2.9504Y-5.8665
X2.985Y-3.02
X2.99Y-2.9
X3.0Y-3.79
X3.0Y-4.39
X3.0Y-5.95
X3.0734Y-3.22
X3.1719Y-3.22
X3.1819Y-3.02
X3.29Y-2.9
X3.3Y-5.95
X3.31Y-2.75
X3.32Y-3.1
X3.32Y-3.4
X3.39Y-2.9
X3.4004Y-5.8665
X3.4016Y-2.21
X3.4096Y-2.3304
X3.4096Y-2.6304
X3.41Y-2.75
X3.4631Y-3.36
X3.5004Y-5.9665
X3.5096Y-2.3304
X3.5096Y-2.6304
X3.51Y-2.75
X3.5134Y-3.16
X3.54Y-3.58
X3.5984Y-2.21
X3.6Y-3.79
X3.6Y-4.39
X3.6004Y-5.8665
X3.6096Y-2.3304
X3.6096Y-2.6304
X3.61Y-2.75
X3.6119Y-3.16
X3.66Y-3.36
X3.69Y-2.9
X3.7Y-5.9646
X3.7096Y-2.3304
X3.7096Y-2.6304
X3.71Y-2.75
X3.75Y-2.12
X3.8Y-3.79
X3.8Y-4.39
X3.8096Y-2.3304
X3.8096Y-2.6304
X3.81Y-2.75
X3.8304Y-3.1204
X3.8304Y-3.2204
X3.8304Y-3.3204
X3.8304Y-3.4204
X3.84Y-3.58
X3.8484Y-2.12
X3.86Y-2.93
X3.9096Y-2.3304
X3.9096Y-2.6304
X3.91Y-2.75
X3.96Y-2.93
X4.0Y-5.9646
X4.0096Y-2.3304
X4.0096Y-2.6304
X4.01Y-2.75
X4.06Y-2.93
X4.1096Y-2.3304
X4.1096Y-2.6304
X4.11Y-2.75
X4.1304Y-3.1204
X4.1304Y-3.2204
X4.1304Y-3.3204
X4.1304Y-3.4204
X4.1596Y-3.5404
X4.1596Y-3.8404
X4.2096Y-2.3304
X4.2096Y-2.6304
X4.2516Y-3.01
X4.2596Y-3.5404
X4.2596Y-3.8404
X4.27Y-3.96
X4.27Y-4.1569
X4.2761Y-2.86
X4.2816Y-3.41
X4.3Y-3.21
X4.3596Y-3.5404
X4.3596Y-3.8404
X4.39Y-2.32
X4.39Y-2.62
X4.3984Y-3.21
X4.4484Y-3.01
X4.4596Y-3.5404
X4.4596Y-3.8404
X4.4784Y-3.41
X4.5761Y-2.86
X4.59Y-2.32
X4.59Y-2.62
X4.6Y-3.14
X4.6Y-3.44
X7.8073Y-4.5427
X7.8073Y-4.6427
X7.8073Y-4.7427
X7.8073Y-4.8427
X8.1Y-3.75
X8.1073Y-4.5427
X8.1073Y-4.6427
X8.1073Y-4.7427
X8.1073Y-4.8427
X8.1504Y-2.6835
X8.2358Y-2.9134
X8.248Y-3.5039
X8.2504Y-2.7835
X8.3268Y-3.2283
X8.3465Y-3.5039
X8.3504Y-2.6835
X8.4Y-3.75
X8.5236Y-3.2283
X8.5358Y-2.9134
X8.5374Y-3.3535
X8.5374Y-3.6535
X8.6Y-3.8
X8.6374Y-3.3535
X8.6374Y-3.6535
X8.7374Y-3.3535
X8.7374Y-3.6535
X8.7795Y-4.5669
X8.7795Y-4.8669
X8.8374Y-3.3535
X8.8374Y-3.6535
X8.9Y-3.8
X8.9374Y-3.3535
X8.9374Y-3.6535
X9.0157Y-4.5669
X9.0157Y-4.8669
X9.0374Y-3.3535
X9.0374Y-3.6535
X9.1004Y-2.6835
X9.1374Y-3.3535
X9.1374Y-3.6535
X9.15Y-2.9
X9.2004Y-2.7835
X9.2374Y-3.3535
X9.2374Y-3.6535
X9.252Y-4.5744
X9.252Y-4.8744
X9.3004Y-2.6835
X9.3374Y-3.3535
X9.3374Y-3.6535
X9.45Y-2.9
X9.4882Y-4.5744
X9.4882Y-4.8744
T4
X8.7795Y-5.0181
X8.7795Y-5.1181
X9.0157Y-5.0181
X9.0157Y-5.1181
X9.252Y-5.0181
X9.252Y-5.1181
X9.4882Y-5.0181
X9.4882Y-5.1181
T5
X1.01Y-2.43
X1.03Y-3.07
X4.702Y-4.7
X4.702Y-5.2906
X4.7037Y-4.9762
X4.7037Y-5.0762
X4.95Y-2.1204
X4.95Y-2.2204
X5.05Y-2.1204
X5.05Y-2.2204
X5.15Y-2.1204
X5.15Y-2.2204
X5.45Y-4.7
X5.45Y-5.6055
X5.55Y-4.7
X5.55Y-5.6055
X5.5512Y-2.7807
X5.5512Y-2.8807
X5.5512Y-2.9807
X5.5512Y-3.0807
X5.65Y-4.7
X5.65Y-5.6055
X5.75Y-4.7
X5.75Y-5.6055
X5.753Y-2.4409
X5.753Y-3.3465
X5.85Y-4.7
X5.85Y-5.6055
X5.853Y-2.4409
X5.853Y-3.3465
X5.95Y-4.7
X5.95Y-5.6055
X5.953Y-2.4409
X5.953Y-3.3465
X6.05Y-4.7
X6.05Y-5.6055
X6.053Y-2.4409
X6.053Y-3.3465
X6.15Y-4.7
X6.15Y-5.6055
X6.153Y-2.4409
X6.153Y-3.3465
X6.253Y-2.4409
X6.253Y-3.3465
X6.353Y-2.4409
X6.353Y-3.3465
X6.453Y-2.4409
X6.453Y-3.3465
X6.55Y-5.25
X6.9685Y-5.5512
X8.0502Y-5.05
X8.1502Y-5.05
X8.1504Y-5.7
X8.2502Y-5.05
X8.2504Y-5.7
X8.3502Y-5.05
X8.3504Y-5.7
X8.4079Y-4.0708
X8.4079Y-4.1708
X8.4502Y-5.05
X8.4504Y-5.7
X8.5079Y-4.0708
X8.5079Y-4.1708
X8.6079Y-4.0708
X8.6079Y-4.1708
X9.44Y-2.1398
X9.44Y-2.2398
X9.44Y-2.3398
X9.44Y-2.4398
X9.44Y-2.5398
X9.7047Y-3.7756
X9.7047Y-3.8756
X9.7047Y-3.9756
X9.7047Y-4.0756
X9.7047Y-4.1756
X9.7047Y-4.2756
X9.7047Y-4.3756
X9.7047Y-4.4756
X9.7047Y-4.5756
X9.7047Y-4.6756
X9.7047Y-4.7756
X9.7047Y-4.8756
X9.7047Y-4.9756
X9.7047Y-5.0756
X9.7047Y-5.1756
X9.7047Y-5.2756
X9.7047Y-5.3756
X9.7047Y-5.4756
X9.7047Y-5.5756
X9.7047Y-5.6756
X9.7796Y-3.0002
X9.7796Y-3.1002
X9.7796Y-3.2002
X9.8047Y-3.7756
X9.8047Y-3.8756
X9.8047Y-3.9756
X9.8047Y-4.0756
X9.8047Y-4.1756
X9.8047Y-4.2756
X9.8047Y-4.3756
X9.8047Y-4.4756
X9.8047Y-4.5756
X9.8047Y-4.6756
X9.8047Y-4.7756
X9.8047Y-4.8756
X9.8047Y-4.9756
X9.8047Y-5.0756
X9.8047Y-5.1756
X9.8047Y-5.2756
X9.8047Y-5.3756
X9.8047Y-5.4756
X9.8047Y-5.5756
X9.8047Y-5.6756
X9.8796Y-3.0002
X9.8796Y-3.1002
X9.8796Y-3.2002
X10.09Y-2.14
X10.09Y-2.24
X10.09Y-2.34
X10.09Y-2.44
T6
X1.2Y-5.6897
X1.6Y-5.6897
X1.85Y-5.7
X2.25Y-5.7
X2.8Y-5.7
X3.2Y-5.7
X3.45Y-5.7
X3.85Y-5.7
X7.7921Y-2.4016
X8.1921Y-2.4016
X8.6976Y-2.4016
X9.0976Y-2.4016
T7
X4.8268Y-2.54
X4.8268Y-2.64
X4.8268Y-2.74
X4.8268Y-2.84
X4.8268Y-2.94
X4.8268Y-3.04
X4.8268Y-3.14
X4.8268Y-3.24
X4.8268Y-3.34
X4.8268Y-3.44
X7.12Y-4.08
X7.12Y-4.18
X7.12Y-4.28
X7.12Y-4.38
X7.12Y-4.48
X7.12Y-4.58
X7.12Y-4.68
X7.12Y-4.78
X7.12Y-4.88
X7.12Y-4.98
T8
X4.1902Y-4.7331
X4.1902Y-5.5331
T9
X0.838Y-5.1998
X0.838Y-5.3998
X0.85Y-2.65
X0.85Y-2.85
X1.1638Y-4.8806
X1.1638Y-5.3609
X1.4Y-5.4397
X1.6362Y-4.8806
X1.6362Y-5.3609
X1.8638Y-4.8806
X1.8638Y-5.3609
X2.1Y-5.4397
X2.3362Y-4.8806
X2.3362Y-5.3609
X2.4803Y-4.0157
X2.4803Y-4.2157
X2.7638Y-4.8806
X2.7638Y-5.3609
X3.0Y-5.4397
X3.2362Y-4.8806
X3.2362Y-5.3609
X3.4638Y-4.8806
X3.4638Y-5.3609
X3.7Y-5.4397
X3.9362Y-4.8806
X3.9362Y-5.3609
X6.5537Y-5.5512
X6.7537Y-5.5512
X7.3896Y-1.7112
X7.3896Y-1.9112
X7.8346Y-1.6063
X7.8346Y-2.0866
X8.0709Y-2.1654
X8.3071Y-1.6063
X8.3071Y-2.0866
X8.7402Y-1.6063
X8.7402Y-2.0866
X8.9764Y-2.1654
X9.2126Y-1.6063
X9.2126Y-2.0866
X9.9726Y-1.7112
X9.9726Y-1.9112
T10
X5.3168Y-2.54
X5.3168Y-3.44
X7.61Y-4.08
X7.61Y-4.98
T11
X0.84Y-2.1
X0.85Y-5.87
X2.04Y-4.11
X5.15Y-5.09
X6.7512Y-1.4839
T0
M30
