%TF.GenerationSoftware,KiCad,Pcbnew,7.0.6*%
%TF.CreationDate,2023-11-08T16:42:53+01:00*%
%TF.ProjectId,mb.2024.0.2,6d622e32-3032-4342-9e30-2e322e6b6963,rev?*%
%TF.SameCoordinates,Original*%
%TF.FileFunction,Drillmap*%
%TF.FilePolarity,Positive*%
%FSLAX45Y45*%
G04 Gerber Fmt 4.5, Leading zero omitted, Abs format (unit mm)*
G04 Created by KiCad (PCBNEW 7.0.6) date 2023-11-08 16:42:53*
%MOMM*%
%LPD*%
G01*
G04 APERTURE LIST*
%ADD10C,0.100000*%
%ADD11C,0.200000*%
%ADD12C,0.040000*%
%ADD13C,0.070000*%
%ADD14C,0.080000*%
%ADD15C,0.090000*%
%ADD16C,0.110000*%
%ADD17C,0.111000*%
%ADD18C,0.120000*%
%ADD19C,0.130000*%
%ADD20C,0.250000*%
%ADD21C,0.320000*%
G04 APERTURE END LIST*
D10*
X16500000Y-3100000D02*
X16200000Y-3300000D01*
X3733800Y-11455400D02*
X1549400Y-11455400D01*
X16200000Y-3300000D02*
X16200000Y-4699000D01*
X1752600Y-4826000D02*
X1524000Y-5054600D01*
X25698000Y-15502000D02*
X25900000Y-15500000D01*
X1524000Y-8890000D02*
X1778000Y-9144000D01*
X15975000Y-4826000D02*
X1752600Y-4826000D01*
X26000000Y-3100000D02*
X16500000Y-3100000D01*
X2700000Y-10400000D02*
X2700000Y-10400000D01*
X26200000Y-15200000D02*
X26200000Y-3300000D01*
X3810000Y-9144000D02*
X4089400Y-9525000D01*
X1778000Y-9144000D02*
X3810000Y-9144000D01*
X1549400Y-11455400D02*
X1424000Y-11557000D01*
X16200000Y-4699000D02*
X15975000Y-4826000D01*
X1424000Y-15300000D02*
X1624000Y-15500000D01*
X1424000Y-11557000D02*
X1424000Y-15300000D01*
X25900000Y-15500000D02*
X26200000Y-15200000D01*
X4089400Y-11125200D02*
X4089400Y-9525000D01*
X18827000Y-15340000D02*
X18821400Y-15519400D01*
X1524000Y-5054600D02*
X1524000Y-8890000D01*
X25603200Y-15341600D02*
X25698000Y-15502000D01*
X4089400Y-11125200D02*
X3733800Y-11455400D01*
X1624000Y-15500000D02*
X18821400Y-15519400D01*
X18827000Y-15340000D02*
X25603200Y-15341600D01*
X26000000Y-3100000D02*
X26200000Y-3300000D01*
D11*
D12*
X3358200Y-7041200D02*
X3398200Y-7081200D01*
X3398200Y-7041200D02*
X3358200Y-7081200D01*
X3561400Y-6507800D02*
X3601400Y-6547800D01*
X3601400Y-6507800D02*
X3561400Y-6547800D01*
X3891600Y-7142800D02*
X3931600Y-7182800D01*
X3931600Y-7142800D02*
X3891600Y-7182800D01*
X4044000Y-7447600D02*
X4084000Y-7487600D01*
X4084000Y-7447600D02*
X4044000Y-7487600D01*
X4628200Y-6838000D02*
X4668200Y-6878000D01*
X4668200Y-6838000D02*
X4628200Y-6878000D01*
X4983800Y-7041200D02*
X5023800Y-7081200D01*
X5023800Y-7041200D02*
X4983800Y-7081200D01*
X4983800Y-13962700D02*
X5023800Y-14002700D01*
X5023800Y-13962700D02*
X4983800Y-14002700D01*
X5009200Y-6431600D02*
X5049200Y-6471600D01*
X5049200Y-6431600D02*
X5009200Y-6471600D01*
X5415600Y-6431600D02*
X5455600Y-6471600D01*
X5455600Y-6431600D02*
X5415600Y-6471600D01*
X6279200Y-7930200D02*
X6319200Y-7970200D01*
X6319200Y-7930200D02*
X6279200Y-7970200D01*
X7193600Y-7092000D02*
X7233600Y-7132000D01*
X7233600Y-7092000D02*
X7193600Y-7132000D01*
X7676200Y-6203000D02*
X7716200Y-6243000D01*
X7716200Y-6203000D02*
X7676200Y-6243000D01*
X10190800Y-7955600D02*
X10230800Y-7995600D01*
X10230800Y-7955600D02*
X10190800Y-7995600D01*
X10597200Y-6203000D02*
X10637200Y-6243000D01*
X10637200Y-6203000D02*
X10597200Y-6243000D01*
X10910000Y-5797000D02*
X10950000Y-5837000D01*
X10950000Y-5797000D02*
X10910000Y-5837000D01*
X11623000Y-14118000D02*
X11663000Y-14158000D01*
X11663000Y-14118000D02*
X11623000Y-14158000D01*
X11869000Y-6846000D02*
X11909000Y-6886000D01*
X11909000Y-6846000D02*
X11869000Y-6886000D01*
X12680000Y-6330000D02*
X12720000Y-6370000D01*
X12720000Y-6330000D02*
X12680000Y-6370000D01*
X12954000Y-7199000D02*
X12994000Y-7239000D01*
X12994000Y-7199000D02*
X12954000Y-7239000D01*
X13080000Y-6980000D02*
X13120000Y-7020000D01*
X13120000Y-6980000D02*
X13080000Y-7020000D01*
X13180000Y-10380000D02*
X13220000Y-10420000D01*
X13220000Y-10380000D02*
X13180000Y-10420000D01*
X13680000Y-9980000D02*
X13720000Y-10020000D01*
X13720000Y-9980000D02*
X13680000Y-10020000D01*
X13823000Y-7473000D02*
X13863000Y-7513000D01*
X13863000Y-7473000D02*
X13823000Y-7513000D01*
X13923000Y-13318000D02*
X13963000Y-13358000D01*
X13963000Y-13318000D02*
X13923000Y-13358000D01*
X14380000Y-13880000D02*
X14420000Y-13920000D01*
X14420000Y-13880000D02*
X14380000Y-13920000D01*
X16894250Y-7465750D02*
X16934250Y-7505750D01*
X16934250Y-7465750D02*
X16894250Y-7505750D01*
X18280000Y-7480000D02*
X18320000Y-7520000D01*
X18320000Y-7480000D02*
X18280000Y-7520000D01*
X19660500Y-14199500D02*
X19700500Y-14239500D01*
X19700500Y-14199500D02*
X19660500Y-14239500D01*
X19792000Y-11156000D02*
X19832000Y-11196000D01*
X19832000Y-11156000D02*
X19792000Y-11196000D01*
X20190500Y-11798500D02*
X20230500Y-11838500D01*
X20230500Y-11798500D02*
X20190500Y-11838500D01*
X20677000Y-12527000D02*
X20717000Y-12567000D01*
X20717000Y-12527000D02*
X20677000Y-12567000D01*
X20726000Y-9234000D02*
X20766000Y-9274000D01*
X20766000Y-9234000D02*
X20726000Y-9274000D01*
X20909600Y-9454200D02*
X20949600Y-9494200D01*
X20949600Y-9454200D02*
X20909600Y-9494200D01*
X20952000Y-12314000D02*
X20992000Y-12354000D01*
X20992000Y-12314000D02*
X20952000Y-12354000D01*
X21493800Y-11079800D02*
X21533800Y-11119800D01*
X21533800Y-11079800D02*
X21493800Y-11119800D01*
X21790500Y-10898500D02*
X21830500Y-10938500D01*
X21830500Y-10898500D02*
X21790500Y-10938500D01*
X21980000Y-9680000D02*
X22020000Y-9720000D01*
X22020000Y-9680000D02*
X21980000Y-9720000D01*
X22279716Y-8275523D02*
X22319716Y-8315523D01*
X22319716Y-8275523D02*
X22279716Y-8315523D01*
X22560600Y-8260400D02*
X22600600Y-8300400D01*
X22600600Y-8260400D02*
X22560600Y-8300400D01*
X22776551Y-8275523D02*
X22816551Y-8315523D01*
X22816551Y-8275523D02*
X22776551Y-8315523D01*
X23221000Y-10775000D02*
X23261000Y-10815000D01*
X23261000Y-10775000D02*
X23221000Y-10815000D01*
X23380000Y-8280000D02*
X23420000Y-8320000D01*
X23420000Y-8280000D02*
X23380000Y-8320000D01*
X23830600Y-10749600D02*
X23870600Y-10789600D01*
X23870600Y-10749600D02*
X23830600Y-10789600D01*
X24080000Y-9180000D02*
X24120000Y-9220000D01*
X24120000Y-9180000D02*
X24080000Y-9220000D01*
X24180000Y-11080000D02*
X24220000Y-11120000D01*
X24220000Y-11080000D02*
X24180000Y-11120000D01*
X24643400Y-6482400D02*
X24683400Y-6522400D01*
X24683400Y-6482400D02*
X24643400Y-6522400D01*
X24872000Y-5999800D02*
X24912000Y-6039800D01*
X24912000Y-5999800D02*
X24872000Y-6039800D01*
D13*
X11846000Y-11201400D02*
G75*
G03*
X11846000Y-11201400I-35000J0D01*
G01*
X12100000Y-9677400D02*
G75*
G03*
X12100000Y-9677400I-35000J0D01*
G01*
X12100000Y-11201400D02*
G75*
G03*
X12100000Y-11201400I-35000J0D01*
G01*
X12354000Y-9677400D02*
G75*
G03*
X12354000Y-9677400I-35000J0D01*
G01*
X12354000Y-11201400D02*
G75*
G03*
X12354000Y-11201400I-35000J0D01*
G01*
X13878000Y-9677400D02*
G75*
G03*
X13878000Y-9677400I-35000J0D01*
G01*
X13878000Y-11201400D02*
G75*
G03*
X13878000Y-11201400I-35000J0D01*
G01*
X14386000Y-9677400D02*
G75*
G03*
X14386000Y-9677400I-35000J0D01*
G01*
X14386000Y-11201400D02*
G75*
G03*
X14386000Y-11201400I-35000J0D01*
G01*
X17510200Y-6756400D02*
G75*
G03*
X17510200Y-6756400I-35000J0D01*
G01*
X17510200Y-7264400D02*
G75*
G03*
X17510200Y-7264400I-35000J0D01*
G01*
X17510200Y-8788400D02*
G75*
G03*
X17510200Y-8788400I-35000J0D01*
G01*
X17510200Y-9042400D02*
G75*
G03*
X17510200Y-9042400I-35000J0D01*
G01*
X19034200Y-6756400D02*
G75*
G03*
X19034200Y-6756400I-35000J0D01*
G01*
X19034200Y-7264400D02*
G75*
G03*
X19034200Y-7264400I-35000J0D01*
G01*
X19034200Y-8788400D02*
G75*
G03*
X19034200Y-8788400I-35000J0D01*
G01*
X19034200Y-9042400D02*
G75*
G03*
X19034200Y-9042400I-35000J0D01*
G01*
X19034200Y-9296400D02*
G75*
G03*
X19034200Y-9296400I-35000J0D01*
G01*
D14*
X2922000Y-14834750D02*
X2922000Y-14914750D01*
X2882000Y-14874750D02*
X2962000Y-14874750D01*
X2946400Y-7833000D02*
X2946400Y-7913000D01*
X2906400Y-7873000D02*
X2986400Y-7873000D01*
X2946400Y-8333000D02*
X2946400Y-8413000D01*
X2906400Y-8373000D02*
X2986400Y-8373000D01*
X2997200Y-6741800D02*
X2997200Y-6821800D01*
X2957200Y-6781800D02*
X3037200Y-6781800D01*
X2997200Y-6995800D02*
X2997200Y-7075800D01*
X2957200Y-7035800D02*
X3037200Y-7035800D01*
X2997200Y-7249800D02*
X2997200Y-7329800D01*
X2957200Y-7289800D02*
X3037200Y-7289800D01*
X2997200Y-7503800D02*
X2997200Y-7583800D01*
X2957200Y-7543800D02*
X3037200Y-7543800D01*
X3124200Y-6283600D02*
X3124200Y-6363600D01*
X3084200Y-6323600D02*
X3164200Y-6323600D01*
X3176000Y-15088750D02*
X3176000Y-15168750D01*
X3136000Y-15128750D02*
X3216000Y-15128750D01*
X3378200Y-6283600D02*
X3378200Y-6363600D01*
X3338200Y-6323600D02*
X3418200Y-6323600D01*
X3430000Y-14834750D02*
X3430000Y-14914750D01*
X3390000Y-14874750D02*
X3470000Y-14874750D01*
X3478800Y-7887800D02*
X3478800Y-7967800D01*
X3438800Y-7927800D02*
X3518800Y-7927800D01*
X3478800Y-8137800D02*
X3478800Y-8217800D01*
X3438800Y-8177800D02*
X3518800Y-8177800D01*
X3556000Y-15073000D02*
X3556000Y-15153000D01*
X3516000Y-15113000D02*
X3596000Y-15113000D01*
X3632200Y-6283600D02*
X3632200Y-6363600D01*
X3592200Y-6323600D02*
X3672200Y-6323600D01*
X3759200Y-6741800D02*
X3759200Y-6821800D01*
X3719200Y-6781800D02*
X3799200Y-6781800D01*
X3759200Y-6995800D02*
X3759200Y-7075800D01*
X3719200Y-7035800D02*
X3799200Y-7035800D01*
X3759200Y-7249800D02*
X3759200Y-7329800D01*
X3719200Y-7289800D02*
X3799200Y-7289800D01*
X3759200Y-7503800D02*
X3759200Y-7583800D01*
X3719200Y-7543800D02*
X3799200Y-7543800D01*
X4117800Y-5961400D02*
X4117800Y-6041400D01*
X4077800Y-6001400D02*
X4157800Y-6001400D01*
X4117800Y-6461400D02*
X4117800Y-6541400D01*
X4077800Y-6501400D02*
X4157800Y-6501400D01*
X4123562Y-7046600D02*
X4123562Y-7126600D01*
X4083562Y-7086600D02*
X4163562Y-7086600D01*
X4318000Y-15073000D02*
X4318000Y-15153000D01*
X4278000Y-15113000D02*
X4358000Y-15113000D01*
X4373562Y-7046600D02*
X4373562Y-7126600D01*
X4333562Y-7086600D02*
X4413562Y-7086600D01*
X4521200Y-7503800D02*
X4521200Y-7583800D01*
X4481200Y-7543800D02*
X4561200Y-7543800D01*
X4521200Y-7859400D02*
X4521200Y-7939400D01*
X4481200Y-7899400D02*
X4561200Y-7899400D01*
X4572000Y-5852800D02*
X4572000Y-5932800D01*
X4532000Y-5892800D02*
X4612000Y-5892800D01*
X4572000Y-6614800D02*
X4572000Y-6694800D01*
X4532000Y-6654800D02*
X4612000Y-6654800D01*
X4652200Y-5446400D02*
X4652200Y-5526400D01*
X4612200Y-5486400D02*
X4692200Y-5486400D01*
X4700000Y-14830000D02*
X4700000Y-14910000D01*
X4660000Y-14870000D02*
X4740000Y-14870000D01*
X4824500Y-6946000D02*
X4824500Y-7026000D01*
X4784500Y-6986000D02*
X4864500Y-6986000D01*
X4826000Y-5852800D02*
X4826000Y-5932800D01*
X4786000Y-5892800D02*
X4866000Y-5892800D01*
X4826000Y-6614800D02*
X4826000Y-6694800D01*
X4786000Y-6654800D02*
X4866000Y-6654800D01*
X4954000Y-15084000D02*
X4954000Y-15164000D01*
X4914000Y-15124000D02*
X4994000Y-15124000D01*
X5080000Y-5852800D02*
X5080000Y-5932800D01*
X5040000Y-5892800D02*
X5120000Y-5892800D01*
X5080000Y-6614800D02*
X5080000Y-6694800D01*
X5040000Y-6654800D02*
X5120000Y-6654800D01*
X5152200Y-5446400D02*
X5152200Y-5526400D01*
X5112200Y-5486400D02*
X5192200Y-5486400D01*
X5208000Y-14830000D02*
X5208000Y-14910000D01*
X5168000Y-14870000D02*
X5248000Y-14870000D01*
X5283200Y-7503800D02*
X5283200Y-7583800D01*
X5243200Y-7543800D02*
X5323200Y-7543800D01*
X5283200Y-7859400D02*
X5283200Y-7939400D01*
X5243200Y-7899400D02*
X5323200Y-7899400D01*
X5334000Y-5852800D02*
X5334000Y-5932800D01*
X5294000Y-5892800D02*
X5374000Y-5892800D01*
X5334000Y-6614800D02*
X5334000Y-6694800D01*
X5294000Y-6654800D02*
X5374000Y-6654800D01*
X5334000Y-15073000D02*
X5334000Y-15153000D01*
X5294000Y-15113000D02*
X5374000Y-15113000D01*
X5586500Y-6946000D02*
X5586500Y-7026000D01*
X5546500Y-6986000D02*
X5626500Y-6986000D01*
X5588000Y-5852800D02*
X5588000Y-5932800D01*
X5548000Y-5892800D02*
X5628000Y-5892800D01*
X5588000Y-6614800D02*
X5588000Y-6694800D01*
X5548000Y-6654800D02*
X5628000Y-6654800D01*
X5668200Y-8215000D02*
X5668200Y-8295000D01*
X5628200Y-8255000D02*
X5708200Y-8255000D01*
X5672962Y-5268600D02*
X5672962Y-5348600D01*
X5632962Y-5308600D02*
X5712962Y-5308600D01*
X5820600Y-7707000D02*
X5820600Y-7787000D01*
X5780600Y-7747000D02*
X5860600Y-7747000D01*
X5842000Y-5852800D02*
X5842000Y-5932800D01*
X5802000Y-5892800D02*
X5882000Y-5892800D01*
X5842000Y-6614800D02*
X5842000Y-6694800D01*
X5802000Y-6654800D02*
X5882000Y-6654800D01*
X5922962Y-5268600D02*
X5922962Y-5348600D01*
X5882962Y-5308600D02*
X5962962Y-5308600D01*
X6070600Y-7707000D02*
X6070600Y-7787000D01*
X6030600Y-7747000D02*
X6110600Y-7747000D01*
X6096000Y-5852800D02*
X6096000Y-5932800D01*
X6056000Y-5892800D02*
X6136000Y-5892800D01*
X6096000Y-6614800D02*
X6096000Y-6694800D01*
X6056000Y-6654800D02*
X6136000Y-6654800D01*
X6096000Y-15073000D02*
X6096000Y-15153000D01*
X6056000Y-15113000D02*
X6136000Y-15113000D01*
X6168200Y-8215000D02*
X6168200Y-8295000D01*
X6128200Y-8255000D02*
X6208200Y-8255000D01*
X6350000Y-5852800D02*
X6350000Y-5932800D01*
X6310000Y-5892800D02*
X6390000Y-5892800D01*
X6350000Y-6614800D02*
X6350000Y-6694800D01*
X6310000Y-6654800D02*
X6390000Y-6654800D01*
X6503400Y-7327000D02*
X6503400Y-7407000D01*
X6463400Y-7367000D02*
X6543400Y-7367000D01*
X6503400Y-7581000D02*
X6503400Y-7661000D01*
X6463400Y-7621000D02*
X6543400Y-7621000D01*
X6503400Y-7835000D02*
X6503400Y-7915000D01*
X6463400Y-7875000D02*
X6543400Y-7875000D01*
X6503400Y-8089000D02*
X6503400Y-8169000D01*
X6463400Y-8129000D02*
X6543400Y-8129000D01*
X6654800Y-5657600D02*
X6654800Y-5737600D01*
X6614800Y-5697600D02*
X6694800Y-5697600D01*
X6654800Y-6157600D02*
X6654800Y-6237600D01*
X6614800Y-6197600D02*
X6694800Y-6197600D01*
X6832600Y-6843400D02*
X6832600Y-6923400D01*
X6792600Y-6883400D02*
X6872600Y-6883400D01*
X6986000Y-14861000D02*
X6986000Y-14941000D01*
X6946000Y-14901000D02*
X7026000Y-14901000D01*
X7056438Y-6106800D02*
X7056438Y-6186800D01*
X7016438Y-6146800D02*
X7096438Y-6146800D01*
X7086600Y-6843400D02*
X7086600Y-6923400D01*
X7046600Y-6883400D02*
X7126600Y-6883400D01*
X7112000Y-11110600D02*
X7112000Y-11190600D01*
X7072000Y-11150600D02*
X7152000Y-11150600D01*
X7240000Y-15115000D02*
X7240000Y-15195000D01*
X7200000Y-15155000D02*
X7280000Y-15155000D01*
X7265400Y-7327000D02*
X7265400Y-7407000D01*
X7225400Y-7367000D02*
X7305400Y-7367000D01*
X7265400Y-7581000D02*
X7265400Y-7661000D01*
X7225400Y-7621000D02*
X7305400Y-7621000D01*
X7265400Y-7835000D02*
X7265400Y-7915000D01*
X7225400Y-7875000D02*
X7305400Y-7875000D01*
X7265400Y-8089000D02*
X7265400Y-8169000D01*
X7225400Y-8129000D02*
X7305400Y-8129000D01*
X7306438Y-6106800D02*
X7306438Y-6186800D01*
X7266438Y-6146800D02*
X7346438Y-6146800D01*
X7340600Y-6843400D02*
X7340600Y-6923400D01*
X7300600Y-6883400D02*
X7380600Y-6883400D01*
X7366000Y-9586600D02*
X7366000Y-9666600D01*
X7326000Y-9626600D02*
X7406000Y-9626600D01*
X7366000Y-11110600D02*
X7366000Y-11190600D01*
X7326000Y-11150600D02*
X7406000Y-11150600D01*
X7494000Y-14861000D02*
X7494000Y-14941000D01*
X7454000Y-14901000D02*
X7534000Y-14901000D01*
X7581962Y-7630800D02*
X7581962Y-7710800D01*
X7541962Y-7670800D02*
X7621962Y-7670800D01*
X7594600Y-7326000D02*
X7594600Y-7406000D01*
X7554600Y-7366000D02*
X7634600Y-7366000D01*
X7620000Y-9586600D02*
X7620000Y-9666600D01*
X7580000Y-9626600D02*
X7660000Y-9626600D01*
X7620000Y-11110600D02*
X7620000Y-11190600D01*
X7580000Y-11150600D02*
X7660000Y-11150600D01*
X7620000Y-15073000D02*
X7620000Y-15153000D01*
X7580000Y-15113000D02*
X7660000Y-15113000D01*
X7806562Y-8138800D02*
X7806562Y-8218800D01*
X7766562Y-8178800D02*
X7846562Y-8178800D01*
X8056562Y-8138800D02*
X8056562Y-8218800D01*
X8016562Y-8178800D02*
X8096562Y-8178800D01*
X8081962Y-7630800D02*
X8081962Y-7710800D01*
X8041962Y-7670800D02*
X8121962Y-7670800D01*
X8356600Y-7326000D02*
X8356600Y-7406000D01*
X8316600Y-7366000D02*
X8396600Y-7366000D01*
X8382000Y-15073000D02*
X8382000Y-15153000D01*
X8342000Y-15113000D02*
X8422000Y-15113000D01*
X8407400Y-6945000D02*
X8407400Y-7025000D01*
X8367400Y-6985000D02*
X8447400Y-6985000D01*
X8432800Y-7834000D02*
X8432800Y-7914000D01*
X8392800Y-7874000D02*
X8472800Y-7874000D01*
X8432800Y-8596000D02*
X8432800Y-8676000D01*
X8392800Y-8636000D02*
X8472800Y-8636000D01*
X8610600Y-7326000D02*
X8610600Y-7406000D01*
X8570600Y-7366000D02*
X8650600Y-7366000D01*
X8637000Y-14861000D02*
X8637000Y-14941000D01*
X8597000Y-14901000D02*
X8677000Y-14901000D01*
X8640000Y-5573400D02*
X8640000Y-5653400D01*
X8600000Y-5613400D02*
X8680000Y-5613400D01*
X8660400Y-5879200D02*
X8660400Y-5959200D01*
X8620400Y-5919200D02*
X8700400Y-5919200D01*
X8660400Y-6641200D02*
X8660400Y-6721200D01*
X8620400Y-6681200D02*
X8700400Y-6681200D01*
X8661400Y-6945000D02*
X8661400Y-7025000D01*
X8621400Y-6985000D02*
X8701400Y-6985000D01*
X8796400Y-8494400D02*
X8796400Y-8574400D01*
X8756400Y-8534400D02*
X8836400Y-8534400D01*
X8891000Y-15115000D02*
X8891000Y-15195000D01*
X8851000Y-15155000D02*
X8931000Y-15155000D01*
X8914400Y-5879200D02*
X8914400Y-5959200D01*
X8874400Y-5919200D02*
X8954400Y-5919200D01*
X8914400Y-6641200D02*
X8914400Y-6721200D01*
X8874400Y-6681200D02*
X8954400Y-6681200D01*
X8915400Y-6945000D02*
X8915400Y-7025000D01*
X8875400Y-6985000D02*
X8955400Y-6985000D01*
X8924162Y-7986400D02*
X8924162Y-8066400D01*
X8884162Y-8026400D02*
X8964162Y-8026400D01*
X8991600Y-9053200D02*
X8991600Y-9133200D01*
X8951600Y-9093200D02*
X9031600Y-9093200D01*
X9140000Y-5573400D02*
X9140000Y-5653400D01*
X9100000Y-5613400D02*
X9180000Y-5613400D01*
X9144000Y-9586600D02*
X9144000Y-9666600D01*
X9104000Y-9626600D02*
X9184000Y-9626600D01*
X9144000Y-11110600D02*
X9144000Y-11190600D01*
X9104000Y-11150600D02*
X9184000Y-11150600D01*
X9145000Y-14861000D02*
X9145000Y-14941000D01*
X9105000Y-14901000D02*
X9185000Y-14901000D01*
X9168400Y-5879200D02*
X9168400Y-5959200D01*
X9128400Y-5919200D02*
X9208400Y-5919200D01*
X9168400Y-6641200D02*
X9168400Y-6721200D01*
X9128400Y-6681200D02*
X9208400Y-6681200D01*
X9169400Y-6945000D02*
X9169400Y-7025000D01*
X9129400Y-6985000D02*
X9209400Y-6985000D01*
X9174162Y-7986400D02*
X9174162Y-8066400D01*
X9134162Y-8026400D02*
X9214162Y-8026400D01*
X9296400Y-8494400D02*
X9296400Y-8574400D01*
X9256400Y-8534400D02*
X9336400Y-8534400D01*
X9372600Y-7326000D02*
X9372600Y-7406000D01*
X9332600Y-7366000D02*
X9412600Y-7366000D01*
X9398000Y-15110000D02*
X9398000Y-15190000D01*
X9358000Y-15150000D02*
X9438000Y-15150000D01*
X9422400Y-5879200D02*
X9422400Y-5959200D01*
X9382400Y-5919200D02*
X9462400Y-5919200D01*
X9422400Y-6641200D02*
X9422400Y-6721200D01*
X9382400Y-6681200D02*
X9462400Y-6681200D01*
X9423400Y-6945000D02*
X9423400Y-7025000D01*
X9383400Y-6985000D02*
X9463400Y-6985000D01*
X9525000Y-5344800D02*
X9525000Y-5424800D01*
X9485000Y-5384800D02*
X9565000Y-5384800D01*
X9652000Y-9586600D02*
X9652000Y-9666600D01*
X9612000Y-9626600D02*
X9692000Y-9626600D01*
X9652000Y-11110600D02*
X9652000Y-11190600D01*
X9612000Y-11150600D02*
X9692000Y-11150600D01*
X9676400Y-5879200D02*
X9676400Y-5959200D01*
X9636400Y-5919200D02*
X9716400Y-5919200D01*
X9676400Y-6641200D02*
X9676400Y-6721200D01*
X9636400Y-6681200D02*
X9716400Y-6681200D01*
X9677400Y-6945000D02*
X9677400Y-7025000D01*
X9637400Y-6985000D02*
X9717400Y-6985000D01*
X9729200Y-7885800D02*
X9729200Y-7965800D01*
X9689200Y-7925800D02*
X9769200Y-7925800D01*
X9729200Y-8139800D02*
X9729200Y-8219800D01*
X9689200Y-8179800D02*
X9769200Y-8179800D01*
X9729200Y-8393800D02*
X9729200Y-8473800D01*
X9689200Y-8433800D02*
X9769200Y-8433800D01*
X9729200Y-8647800D02*
X9729200Y-8727800D01*
X9689200Y-8687800D02*
X9769200Y-8687800D01*
X9753600Y-9053200D02*
X9753600Y-9133200D01*
X9713600Y-9093200D02*
X9793600Y-9093200D01*
X9775000Y-5344800D02*
X9775000Y-5424800D01*
X9735000Y-5384800D02*
X9815000Y-5384800D01*
X9804400Y-7402200D02*
X9804400Y-7482200D01*
X9764400Y-7442200D02*
X9844400Y-7442200D01*
X9930400Y-5879200D02*
X9930400Y-5959200D01*
X9890400Y-5919200D02*
X9970400Y-5919200D01*
X9930400Y-6641200D02*
X9930400Y-6721200D01*
X9890400Y-6681200D02*
X9970400Y-6681200D01*
X9931400Y-6945000D02*
X9931400Y-7025000D01*
X9891400Y-6985000D02*
X9971400Y-6985000D01*
X10058400Y-7402200D02*
X10058400Y-7482200D01*
X10018400Y-7442200D02*
X10098400Y-7442200D01*
X10160000Y-15110000D02*
X10160000Y-15190000D01*
X10120000Y-15150000D02*
X10200000Y-15150000D01*
X10184400Y-5879200D02*
X10184400Y-5959200D01*
X10144400Y-5919200D02*
X10224400Y-5919200D01*
X10184400Y-6641200D02*
X10184400Y-6721200D01*
X10144400Y-6681200D02*
X10224400Y-6681200D01*
X10185400Y-6945000D02*
X10185400Y-7025000D01*
X10145400Y-6985000D02*
X10225400Y-6985000D01*
X10312400Y-7402200D02*
X10312400Y-7482200D01*
X10272400Y-7442200D02*
X10352400Y-7442200D01*
X10438400Y-5879200D02*
X10438400Y-5959200D01*
X10398400Y-5919200D02*
X10478400Y-5919200D01*
X10438400Y-6641200D02*
X10438400Y-6721200D01*
X10398400Y-6681200D02*
X10478400Y-6681200D01*
X10439400Y-6945000D02*
X10439400Y-7025000D01*
X10399400Y-6985000D02*
X10479400Y-6985000D01*
X10491200Y-7885800D02*
X10491200Y-7965800D01*
X10451200Y-7925800D02*
X10531200Y-7925800D01*
X10491200Y-8139800D02*
X10491200Y-8219800D01*
X10451200Y-8179800D02*
X10531200Y-8179800D01*
X10491200Y-8393800D02*
X10491200Y-8473800D01*
X10451200Y-8433800D02*
X10531200Y-8433800D01*
X10491200Y-8647800D02*
X10491200Y-8727800D01*
X10451200Y-8687800D02*
X10531200Y-8687800D01*
X10565400Y-8952600D02*
X10565400Y-9032600D01*
X10525400Y-8992600D02*
X10605400Y-8992600D01*
X10565400Y-9714600D02*
X10565400Y-9794600D01*
X10525400Y-9754600D02*
X10605400Y-9754600D01*
X10692400Y-5879200D02*
X10692400Y-5959200D01*
X10652400Y-5919200D02*
X10732400Y-5919200D01*
X10692400Y-6641200D02*
X10692400Y-6721200D01*
X10652400Y-6681200D02*
X10732400Y-6681200D01*
X10799000Y-7605400D02*
X10799000Y-7685400D01*
X10759000Y-7645400D02*
X10839000Y-7645400D01*
X10819400Y-8952600D02*
X10819400Y-9032600D01*
X10779400Y-8992600D02*
X10859400Y-8992600D01*
X10819400Y-9714600D02*
X10819400Y-9794600D01*
X10779400Y-9754600D02*
X10859400Y-9754600D01*
X10845800Y-10018400D02*
X10845800Y-10098400D01*
X10805800Y-10058400D02*
X10885800Y-10058400D01*
X10845800Y-10518400D02*
X10845800Y-10598400D01*
X10805800Y-10558400D02*
X10885800Y-10558400D01*
X10861208Y-7224400D02*
X10861208Y-7304400D01*
X10821208Y-7264400D02*
X10901208Y-7264400D01*
X10875200Y-8621400D02*
X10875200Y-8701400D01*
X10835200Y-8661400D02*
X10915200Y-8661400D01*
X10922000Y-8113400D02*
X10922000Y-8193400D01*
X10882000Y-8153400D02*
X10962000Y-8153400D01*
X11073400Y-8952600D02*
X11073400Y-9032600D01*
X11033400Y-8992600D02*
X11113400Y-8992600D01*
X11073400Y-9714600D02*
X11073400Y-9794600D01*
X11033400Y-9754600D02*
X11113400Y-9754600D01*
X11150600Y-5852800D02*
X11150600Y-5932800D01*
X11110600Y-5892800D02*
X11190600Y-5892800D01*
X11150600Y-6614800D02*
X11150600Y-6694800D01*
X11110600Y-6654800D02*
X11190600Y-6654800D01*
X11172000Y-8113400D02*
X11172000Y-8193400D01*
X11132000Y-8153400D02*
X11212000Y-8153400D01*
X11299000Y-7605400D02*
X11299000Y-7685400D01*
X11259000Y-7645400D02*
X11339000Y-7645400D01*
X11327400Y-8952600D02*
X11327400Y-9032600D01*
X11287400Y-8992600D02*
X11367400Y-8992600D01*
X11327400Y-9714600D02*
X11327400Y-9794600D01*
X11287400Y-9754600D02*
X11367400Y-9754600D01*
X11375200Y-8621400D02*
X11375200Y-8701400D01*
X11335200Y-8661400D02*
X11415200Y-8661400D01*
X11623208Y-7224400D02*
X11623208Y-7304400D01*
X11583208Y-7264400D02*
X11663208Y-7264400D01*
X11658600Y-5852800D02*
X11658600Y-5932800D01*
X11618600Y-5892800D02*
X11698600Y-5892800D01*
X11658600Y-6614800D02*
X11658600Y-6694800D01*
X11618600Y-6654800D02*
X11698600Y-6654800D01*
X11684000Y-7935600D02*
X11684000Y-8015600D01*
X11644000Y-7975600D02*
X11724000Y-7975600D01*
X11684000Y-8697600D02*
X11684000Y-8777600D01*
X11644000Y-8737600D02*
X11724000Y-8737600D01*
X19830500Y-11498500D02*
X19830500Y-11578500D01*
X19790500Y-11538500D02*
X19870500Y-11538500D01*
X19830500Y-11752500D02*
X19830500Y-11832500D01*
X19790500Y-11792500D02*
X19870500Y-11792500D01*
X19830500Y-12006500D02*
X19830500Y-12086500D01*
X19790500Y-12046500D02*
X19870500Y-12046500D01*
X19830500Y-12260500D02*
X19830500Y-12340500D01*
X19790500Y-12300500D02*
X19870500Y-12300500D01*
X20574000Y-9485000D02*
X20574000Y-9565000D01*
X20534000Y-9525000D02*
X20614000Y-9525000D01*
X20592500Y-11498500D02*
X20592500Y-11578500D01*
X20552500Y-11538500D02*
X20632500Y-11538500D01*
X20592500Y-11752500D02*
X20592500Y-11832500D01*
X20552500Y-11792500D02*
X20632500Y-11792500D01*
X20592500Y-12006500D02*
X20592500Y-12086500D01*
X20552500Y-12046500D02*
X20632500Y-12046500D01*
X20592500Y-12260500D02*
X20592500Y-12340500D01*
X20552500Y-12300500D02*
X20632500Y-12300500D01*
X20702000Y-6776000D02*
X20702000Y-6856000D01*
X20662000Y-6816000D02*
X20742000Y-6816000D01*
X20919000Y-7360000D02*
X20919000Y-7440000D01*
X20879000Y-7400000D02*
X20959000Y-7400000D01*
X20950000Y-8860000D02*
X20950000Y-8940000D01*
X20910000Y-8900000D02*
X20990000Y-8900000D01*
X20956000Y-7030000D02*
X20956000Y-7110000D01*
X20916000Y-7070000D02*
X20996000Y-7070000D01*
X21150000Y-8160000D02*
X21150000Y-8240000D01*
X21110000Y-8200000D02*
X21190000Y-8200000D01*
X21200000Y-8860000D02*
X21200000Y-8940000D01*
X21160000Y-8900000D02*
X21240000Y-8900000D01*
X21210000Y-6776000D02*
X21210000Y-6856000D01*
X21170000Y-6816000D02*
X21250000Y-6816000D01*
X21336000Y-9485000D02*
X21336000Y-9565000D01*
X21296000Y-9525000D02*
X21376000Y-9525000D01*
X21650000Y-8160000D02*
X21650000Y-8240000D01*
X21610000Y-8200000D02*
X21690000Y-8200000D01*
X21681000Y-7360000D02*
X21681000Y-7440000D01*
X21641000Y-7400000D02*
X21721000Y-7400000D01*
X21685000Y-8478000D02*
X21685000Y-8558000D01*
X21645000Y-8518000D02*
X21725000Y-8518000D01*
X21685000Y-9240000D02*
X21685000Y-9320000D01*
X21645000Y-9280000D02*
X21725000Y-9280000D01*
X21844000Y-9612000D02*
X21844000Y-9692000D01*
X21804000Y-9652000D02*
X21884000Y-9652000D01*
X21939000Y-8478000D02*
X21939000Y-8558000D01*
X21899000Y-8518000D02*
X21979000Y-8518000D01*
X21939000Y-9240000D02*
X21939000Y-9320000D01*
X21899000Y-9280000D02*
X21979000Y-9280000D01*
X22193000Y-8478000D02*
X22193000Y-8558000D01*
X22153000Y-8518000D02*
X22233000Y-8518000D01*
X22193000Y-9240000D02*
X22193000Y-9320000D01*
X22153000Y-9280000D02*
X22233000Y-9280000D01*
X22300000Y-11560000D02*
X22300000Y-11640000D01*
X22260000Y-11600000D02*
X22340000Y-11600000D01*
X22300000Y-12322000D02*
X22300000Y-12402000D01*
X22260000Y-12362000D02*
X22340000Y-12362000D01*
X22447000Y-8478000D02*
X22447000Y-8558000D01*
X22407000Y-8518000D02*
X22487000Y-8518000D01*
X22447000Y-9240000D02*
X22447000Y-9320000D01*
X22407000Y-9280000D02*
X22487000Y-9280000D01*
X22606000Y-9612000D02*
X22606000Y-9692000D01*
X22566000Y-9652000D02*
X22646000Y-9652000D01*
X22701000Y-8478000D02*
X22701000Y-8558000D01*
X22661000Y-8518000D02*
X22741000Y-8518000D01*
X22701000Y-9240000D02*
X22701000Y-9320000D01*
X22661000Y-9280000D02*
X22741000Y-9280000D01*
X22900000Y-11560000D02*
X22900000Y-11640000D01*
X22860000Y-11600000D02*
X22940000Y-11600000D01*
X22900000Y-12322000D02*
X22900000Y-12402000D01*
X22860000Y-12362000D02*
X22940000Y-12362000D01*
X22955000Y-8478000D02*
X22955000Y-8558000D01*
X22915000Y-8518000D02*
X22995000Y-8518000D01*
X22955000Y-9240000D02*
X22955000Y-9320000D01*
X22915000Y-9280000D02*
X22995000Y-9280000D01*
X23115000Y-6776000D02*
X23115000Y-6856000D01*
X23075000Y-6816000D02*
X23155000Y-6816000D01*
X23209000Y-8478000D02*
X23209000Y-8558000D01*
X23169000Y-8518000D02*
X23249000Y-8518000D01*
X23209000Y-9240000D02*
X23209000Y-9320000D01*
X23169000Y-9280000D02*
X23249000Y-9280000D01*
X23241000Y-7326000D02*
X23241000Y-7406000D01*
X23201000Y-7366000D02*
X23281000Y-7366000D01*
X23369000Y-7030000D02*
X23369000Y-7110000D01*
X23329000Y-7070000D02*
X23409000Y-7070000D01*
X23463000Y-8478000D02*
X23463000Y-8558000D01*
X23423000Y-8518000D02*
X23503000Y-8518000D01*
X23463000Y-9240000D02*
X23463000Y-9320000D01*
X23423000Y-9280000D02*
X23503000Y-9280000D01*
X23500000Y-11579000D02*
X23500000Y-11659000D01*
X23460000Y-11619000D02*
X23540000Y-11619000D01*
X23500000Y-12341000D02*
X23500000Y-12421000D01*
X23460000Y-12381000D02*
X23540000Y-12381000D01*
X23623000Y-6776000D02*
X23623000Y-6856000D01*
X23583000Y-6816000D02*
X23663000Y-6816000D01*
X23717000Y-8478000D02*
X23717000Y-8558000D01*
X23677000Y-8518000D02*
X23757000Y-8518000D01*
X23717000Y-9240000D02*
X23717000Y-9320000D01*
X23677000Y-9280000D02*
X23757000Y-9280000D01*
X24003000Y-7326000D02*
X24003000Y-7406000D01*
X23963000Y-7366000D02*
X24043000Y-7366000D01*
X24100000Y-11579000D02*
X24100000Y-11659000D01*
X24060000Y-11619000D02*
X24140000Y-11619000D01*
X24100000Y-12341000D02*
X24100000Y-12421000D01*
X24060000Y-12381000D02*
X24140000Y-12381000D01*
D15*
X22331820Y-12777820D02*
X22331820Y-12714180D01*
X22268180Y-12714180D01*
X22268180Y-12777820D01*
X22331820Y-12777820D01*
X22331820Y-13031820D02*
X22331820Y-12968180D01*
X22268180Y-12968180D01*
X22268180Y-13031820D01*
X22331820Y-13031820D01*
X22931820Y-12777820D02*
X22931820Y-12714180D01*
X22868180Y-12714180D01*
X22868180Y-12777820D01*
X22931820Y-12777820D01*
X22931820Y-13031820D02*
X22931820Y-12968180D01*
X22868180Y-12968180D01*
X22868180Y-13031820D01*
X22931820Y-13031820D01*
X23531820Y-12777820D02*
X23531820Y-12714180D01*
X23468180Y-12714180D01*
X23468180Y-12777820D01*
X23531820Y-12777820D01*
X23531820Y-13031820D02*
X23531820Y-12968180D01*
X23468180Y-12968180D01*
X23468180Y-13031820D01*
X23531820Y-13031820D01*
X24131820Y-12777820D02*
X24131820Y-12714180D01*
X24068180Y-12714180D01*
X24068180Y-12777820D01*
X24131820Y-12777820D01*
X24131820Y-13031820D02*
X24131820Y-12968180D01*
X24068180Y-12968180D01*
X24068180Y-13031820D01*
X24131820Y-13031820D01*
D10*
X2565400Y-6222200D02*
X2615400Y-6172200D01*
X2565400Y-6122200D01*
X2515400Y-6172200D01*
X2565400Y-6222200D01*
X2616200Y-7847800D02*
X2666200Y-7797800D01*
X2616200Y-7747800D01*
X2566200Y-7797800D01*
X2616200Y-7847800D01*
X11943000Y-11988000D02*
X11993000Y-11938000D01*
X11943000Y-11888000D01*
X11893000Y-11938000D01*
X11943000Y-11988000D01*
X11943000Y-13488000D02*
X11993000Y-13438000D01*
X11943000Y-13388000D01*
X11893000Y-13438000D01*
X11943000Y-13488000D01*
X11947500Y-12689500D02*
X11997500Y-12639500D01*
X11947500Y-12589500D01*
X11897500Y-12639500D01*
X11947500Y-12689500D01*
X11947500Y-12943500D02*
X11997500Y-12893500D01*
X11947500Y-12843500D01*
X11897500Y-12893500D01*
X11947500Y-12943500D01*
X12573000Y-5435750D02*
X12623000Y-5385750D01*
X12573000Y-5335750D01*
X12523000Y-5385750D01*
X12573000Y-5435750D01*
X12573000Y-5689750D02*
X12623000Y-5639750D01*
X12573000Y-5589750D01*
X12523000Y-5639750D01*
X12573000Y-5689750D01*
X12827000Y-5435750D02*
X12877000Y-5385750D01*
X12827000Y-5335750D01*
X12777000Y-5385750D01*
X12827000Y-5435750D01*
X12827000Y-5689750D02*
X12877000Y-5639750D01*
X12827000Y-5589750D01*
X12777000Y-5639750D01*
X12827000Y-5689750D01*
X13081000Y-5435750D02*
X13131000Y-5385750D01*
X13081000Y-5335750D01*
X13031000Y-5385750D01*
X13081000Y-5435750D01*
X13081000Y-5689750D02*
X13131000Y-5639750D01*
X13081000Y-5589750D01*
X13031000Y-5639750D01*
X13081000Y-5689750D01*
X13843000Y-11988000D02*
X13893000Y-11938000D01*
X13843000Y-11888000D01*
X13793000Y-11938000D01*
X13843000Y-11988000D01*
X13843000Y-14288000D02*
X13893000Y-14238000D01*
X13843000Y-14188000D01*
X13793000Y-14238000D01*
X13843000Y-14288000D01*
X14097000Y-11988000D02*
X14147000Y-11938000D01*
X14097000Y-11888000D01*
X14047000Y-11938000D01*
X14097000Y-11988000D01*
X14097000Y-14288000D02*
X14147000Y-14238000D01*
X14097000Y-14188000D01*
X14047000Y-14238000D01*
X14097000Y-14288000D01*
X14100000Y-7113000D02*
X14150000Y-7063000D01*
X14100000Y-7013000D01*
X14050000Y-7063000D01*
X14100000Y-7113000D01*
X14100000Y-7367000D02*
X14150000Y-7317000D01*
X14100000Y-7267000D01*
X14050000Y-7317000D01*
X14100000Y-7367000D01*
X14100000Y-7621000D02*
X14150000Y-7571000D01*
X14100000Y-7521000D01*
X14050000Y-7571000D01*
X14100000Y-7621000D01*
X14100000Y-7875000D02*
X14150000Y-7825000D01*
X14100000Y-7775000D01*
X14050000Y-7825000D01*
X14100000Y-7875000D01*
X14351000Y-11988000D02*
X14401000Y-11938000D01*
X14351000Y-11888000D01*
X14301000Y-11938000D01*
X14351000Y-11988000D01*
X14351000Y-14288000D02*
X14401000Y-14238000D01*
X14351000Y-14188000D01*
X14301000Y-14238000D01*
X14351000Y-14288000D01*
X14605000Y-11988000D02*
X14655000Y-11938000D01*
X14605000Y-11888000D01*
X14555000Y-11938000D01*
X14605000Y-11988000D01*
X14605000Y-14288000D02*
X14655000Y-14238000D01*
X14605000Y-14188000D01*
X14555000Y-14238000D01*
X14605000Y-14288000D01*
X14612500Y-6250000D02*
X14662500Y-6200000D01*
X14612500Y-6150000D01*
X14562500Y-6200000D01*
X14612500Y-6250000D01*
X14612500Y-8550000D02*
X14662500Y-8500000D01*
X14612500Y-8450000D01*
X14562500Y-8500000D01*
X14612500Y-8550000D01*
X14859000Y-11988000D02*
X14909000Y-11938000D01*
X14859000Y-11888000D01*
X14809000Y-11938000D01*
X14859000Y-11988000D01*
X14859000Y-14288000D02*
X14909000Y-14238000D01*
X14859000Y-14188000D01*
X14809000Y-14238000D01*
X14859000Y-14288000D01*
X14866500Y-6250000D02*
X14916500Y-6200000D01*
X14866500Y-6150000D01*
X14816500Y-6200000D01*
X14866500Y-6250000D01*
X14866500Y-8550000D02*
X14916500Y-8500000D01*
X14866500Y-8450000D01*
X14816500Y-8500000D01*
X14866500Y-8550000D01*
X15113000Y-11988000D02*
X15163000Y-11938000D01*
X15113000Y-11888000D01*
X15063000Y-11938000D01*
X15113000Y-11988000D01*
X15113000Y-14288000D02*
X15163000Y-14238000D01*
X15113000Y-14188000D01*
X15063000Y-14238000D01*
X15113000Y-14288000D01*
X15120500Y-6250000D02*
X15170500Y-6200000D01*
X15120500Y-6150000D01*
X15070500Y-6200000D01*
X15120500Y-6250000D01*
X15120500Y-8550000D02*
X15170500Y-8500000D01*
X15120500Y-8450000D01*
X15070500Y-8500000D01*
X15120500Y-8550000D01*
X15367000Y-11988000D02*
X15417000Y-11938000D01*
X15367000Y-11888000D01*
X15317000Y-11938000D01*
X15367000Y-11988000D01*
X15367000Y-14288000D02*
X15417000Y-14238000D01*
X15367000Y-14188000D01*
X15317000Y-14238000D01*
X15367000Y-14288000D01*
X15374500Y-6250000D02*
X15424500Y-6200000D01*
X15374500Y-6150000D01*
X15324500Y-6200000D01*
X15374500Y-6250000D01*
X15374500Y-8550000D02*
X15424500Y-8500000D01*
X15374500Y-8450000D01*
X15324500Y-8500000D01*
X15374500Y-8550000D01*
X15621000Y-11988000D02*
X15671000Y-11938000D01*
X15621000Y-11888000D01*
X15571000Y-11938000D01*
X15621000Y-11988000D01*
X15621000Y-14288000D02*
X15671000Y-14238000D01*
X15621000Y-14188000D01*
X15571000Y-14238000D01*
X15621000Y-14288000D01*
X15628500Y-6250000D02*
X15678500Y-6200000D01*
X15628500Y-6150000D01*
X15578500Y-6200000D01*
X15628500Y-6250000D01*
X15628500Y-8550000D02*
X15678500Y-8500000D01*
X15628500Y-8450000D01*
X15578500Y-8500000D01*
X15628500Y-8550000D01*
X15882500Y-6250000D02*
X15932500Y-6200000D01*
X15882500Y-6150000D01*
X15832500Y-6200000D01*
X15882500Y-6250000D01*
X15882500Y-8550000D02*
X15932500Y-8500000D01*
X15882500Y-8450000D01*
X15832500Y-8500000D01*
X15882500Y-8550000D01*
X16136500Y-6250000D02*
X16186500Y-6200000D01*
X16136500Y-6150000D01*
X16086500Y-6200000D01*
X16136500Y-6250000D01*
X16136500Y-8550000D02*
X16186500Y-8500000D01*
X16136500Y-8450000D01*
X16086500Y-8500000D01*
X16136500Y-8550000D01*
X16390500Y-6250000D02*
X16440500Y-6200000D01*
X16390500Y-6150000D01*
X16340500Y-6200000D01*
X16390500Y-6250000D01*
X16390500Y-8550000D02*
X16440500Y-8500000D01*
X16390500Y-8450000D01*
X16340500Y-8500000D01*
X16390500Y-8550000D01*
X16637000Y-13385000D02*
X16687000Y-13335000D01*
X16637000Y-13285000D01*
X16587000Y-13335000D01*
X16637000Y-13385000D01*
X17700000Y-14150000D02*
X17750000Y-14100000D01*
X17700000Y-14050000D01*
X17650000Y-14100000D01*
X17700000Y-14150000D01*
X20447500Y-12877000D02*
X20497500Y-12827000D01*
X20447500Y-12777000D01*
X20397500Y-12827000D01*
X20447500Y-12877000D01*
X20701500Y-12877000D02*
X20751500Y-12827000D01*
X20701500Y-12777000D01*
X20651500Y-12827000D01*
X20701500Y-12877000D01*
X20702000Y-14528000D02*
X20752000Y-14478000D01*
X20702000Y-14428000D01*
X20652000Y-14478000D01*
X20702000Y-14528000D01*
X20955500Y-12877000D02*
X21005500Y-12827000D01*
X20955500Y-12777000D01*
X20905500Y-12827000D01*
X20955500Y-12877000D01*
X20956000Y-14528000D02*
X21006000Y-14478000D01*
X20956000Y-14428000D01*
X20906000Y-14478000D01*
X20956000Y-14528000D01*
X21209500Y-12877000D02*
X21259500Y-12827000D01*
X21209500Y-12777000D01*
X21159500Y-12827000D01*
X21209500Y-12877000D01*
X21210000Y-14528000D02*
X21260000Y-14478000D01*
X21210000Y-14428000D01*
X21160000Y-14478000D01*
X21210000Y-14528000D01*
X21356000Y-10389750D02*
X21406000Y-10339750D01*
X21356000Y-10289750D01*
X21306000Y-10339750D01*
X21356000Y-10389750D01*
X21356000Y-10643750D02*
X21406000Y-10593750D01*
X21356000Y-10543750D01*
X21306000Y-10593750D01*
X21356000Y-10643750D01*
X21463500Y-12877000D02*
X21513500Y-12827000D01*
X21463500Y-12777000D01*
X21413500Y-12827000D01*
X21463500Y-12877000D01*
X21464000Y-14528000D02*
X21514000Y-14478000D01*
X21464000Y-14428000D01*
X21414000Y-14478000D01*
X21464000Y-14528000D01*
X21610000Y-10389750D02*
X21660000Y-10339750D01*
X21610000Y-10289750D01*
X21560000Y-10339750D01*
X21610000Y-10389750D01*
X21610000Y-10643750D02*
X21660000Y-10593750D01*
X21610000Y-10543750D01*
X21560000Y-10593750D01*
X21610000Y-10643750D01*
X21864000Y-10389750D02*
X21914000Y-10339750D01*
X21864000Y-10289750D01*
X21814000Y-10339750D01*
X21864000Y-10389750D01*
X21864000Y-10643750D02*
X21914000Y-10593750D01*
X21864000Y-10543750D01*
X21814000Y-10593750D01*
X21864000Y-10643750D01*
X23977600Y-5485100D02*
X24027600Y-5435100D01*
X23977600Y-5385100D01*
X23927600Y-5435100D01*
X23977600Y-5485100D01*
X23977600Y-5739100D02*
X24027600Y-5689100D01*
X23977600Y-5639100D01*
X23927600Y-5689100D01*
X23977600Y-5739100D01*
X23977600Y-5993100D02*
X24027600Y-5943100D01*
X23977600Y-5893100D01*
X23927600Y-5943100D01*
X23977600Y-5993100D01*
X23977600Y-6247100D02*
X24027600Y-6197100D01*
X23977600Y-6147100D01*
X23927600Y-6197100D01*
X23977600Y-6247100D01*
X23977600Y-6501100D02*
X24027600Y-6451100D01*
X23977600Y-6401100D01*
X23927600Y-6451100D01*
X23977600Y-6501100D01*
X24650000Y-9640000D02*
X24700000Y-9590000D01*
X24650000Y-9540000D01*
X24600000Y-9590000D01*
X24650000Y-9640000D01*
X24650000Y-9894000D02*
X24700000Y-9844000D01*
X24650000Y-9794000D01*
X24600000Y-9844000D01*
X24650000Y-9894000D01*
X24650000Y-10148000D02*
X24700000Y-10098000D01*
X24650000Y-10048000D01*
X24600000Y-10098000D01*
X24650000Y-10148000D01*
X24650000Y-10402000D02*
X24700000Y-10352000D01*
X24650000Y-10302000D01*
X24600000Y-10352000D01*
X24650000Y-10402000D01*
X24650000Y-10656000D02*
X24700000Y-10606000D01*
X24650000Y-10556000D01*
X24600000Y-10606000D01*
X24650000Y-10656000D01*
X24650000Y-10910000D02*
X24700000Y-10860000D01*
X24650000Y-10810000D01*
X24600000Y-10860000D01*
X24650000Y-10910000D01*
X24650000Y-11164000D02*
X24700000Y-11114000D01*
X24650000Y-11064000D01*
X24600000Y-11114000D01*
X24650000Y-11164000D01*
X24650000Y-11418000D02*
X24700000Y-11368000D01*
X24650000Y-11318000D01*
X24600000Y-11368000D01*
X24650000Y-11418000D01*
X24650000Y-11672000D02*
X24700000Y-11622000D01*
X24650000Y-11572000D01*
X24600000Y-11622000D01*
X24650000Y-11672000D01*
X24650000Y-11926000D02*
X24700000Y-11876000D01*
X24650000Y-11826000D01*
X24600000Y-11876000D01*
X24650000Y-11926000D01*
X24650000Y-12180000D02*
X24700000Y-12130000D01*
X24650000Y-12080000D01*
X24600000Y-12130000D01*
X24650000Y-12180000D01*
X24650000Y-12434000D02*
X24700000Y-12384000D01*
X24650000Y-12334000D01*
X24600000Y-12384000D01*
X24650000Y-12434000D01*
X24650000Y-12688000D02*
X24700000Y-12638000D01*
X24650000Y-12588000D01*
X24600000Y-12638000D01*
X24650000Y-12688000D01*
X24650000Y-12942000D02*
X24700000Y-12892000D01*
X24650000Y-12842000D01*
X24600000Y-12892000D01*
X24650000Y-12942000D01*
X24650000Y-13196000D02*
X24700000Y-13146000D01*
X24650000Y-13096000D01*
X24600000Y-13146000D01*
X24650000Y-13196000D01*
X24650000Y-13450000D02*
X24700000Y-13400000D01*
X24650000Y-13350000D01*
X24600000Y-13400000D01*
X24650000Y-13450000D01*
X24650000Y-13704000D02*
X24700000Y-13654000D01*
X24650000Y-13604000D01*
X24600000Y-13654000D01*
X24650000Y-13704000D01*
X24650000Y-13958000D02*
X24700000Y-13908000D01*
X24650000Y-13858000D01*
X24600000Y-13908000D01*
X24650000Y-13958000D01*
X24650000Y-14212000D02*
X24700000Y-14162000D01*
X24650000Y-14112000D01*
X24600000Y-14162000D01*
X24650000Y-14212000D01*
X24650000Y-14466000D02*
X24700000Y-14416000D01*
X24650000Y-14366000D01*
X24600000Y-14416000D01*
X24650000Y-14466000D01*
X24840250Y-7670500D02*
X24890250Y-7620500D01*
X24840250Y-7570500D01*
X24790250Y-7620500D01*
X24840250Y-7670500D01*
X24840250Y-7924500D02*
X24890250Y-7874500D01*
X24840250Y-7824500D01*
X24790250Y-7874500D01*
X24840250Y-7924500D01*
X24840250Y-8178500D02*
X24890250Y-8128500D01*
X24840250Y-8078500D01*
X24790250Y-8128500D01*
X24840250Y-8178500D01*
X24904000Y-9640000D02*
X24954000Y-9590000D01*
X24904000Y-9540000D01*
X24854000Y-9590000D01*
X24904000Y-9640000D01*
X24904000Y-9894000D02*
X24954000Y-9844000D01*
X24904000Y-9794000D01*
X24854000Y-9844000D01*
X24904000Y-9894000D01*
X24904000Y-10148000D02*
X24954000Y-10098000D01*
X24904000Y-10048000D01*
X24854000Y-10098000D01*
X24904000Y-10148000D01*
X24904000Y-10402000D02*
X24954000Y-10352000D01*
X24904000Y-10302000D01*
X24854000Y-10352000D01*
X24904000Y-10402000D01*
X24904000Y-10656000D02*
X24954000Y-10606000D01*
X24904000Y-10556000D01*
X24854000Y-10606000D01*
X24904000Y-10656000D01*
X24904000Y-10910000D02*
X24954000Y-10860000D01*
X24904000Y-10810000D01*
X24854000Y-10860000D01*
X24904000Y-10910000D01*
X24904000Y-11164000D02*
X24954000Y-11114000D01*
X24904000Y-11064000D01*
X24854000Y-11114000D01*
X24904000Y-11164000D01*
X24904000Y-11418000D02*
X24954000Y-11368000D01*
X24904000Y-11318000D01*
X24854000Y-11368000D01*
X24904000Y-11418000D01*
X24904000Y-11672000D02*
X24954000Y-11622000D01*
X24904000Y-11572000D01*
X24854000Y-11622000D01*
X24904000Y-11672000D01*
X24904000Y-11926000D02*
X24954000Y-11876000D01*
X24904000Y-11826000D01*
X24854000Y-11876000D01*
X24904000Y-11926000D01*
X24904000Y-12180000D02*
X24954000Y-12130000D01*
X24904000Y-12080000D01*
X24854000Y-12130000D01*
X24904000Y-12180000D01*
X24904000Y-12434000D02*
X24954000Y-12384000D01*
X24904000Y-12334000D01*
X24854000Y-12384000D01*
X24904000Y-12434000D01*
X24904000Y-12688000D02*
X24954000Y-12638000D01*
X24904000Y-12588000D01*
X24854000Y-12638000D01*
X24904000Y-12688000D01*
X24904000Y-12942000D02*
X24954000Y-12892000D01*
X24904000Y-12842000D01*
X24854000Y-12892000D01*
X24904000Y-12942000D01*
X24904000Y-13196000D02*
X24954000Y-13146000D01*
X24904000Y-13096000D01*
X24854000Y-13146000D01*
X24904000Y-13196000D01*
X24904000Y-13450000D02*
X24954000Y-13400000D01*
X24904000Y-13350000D01*
X24854000Y-13400000D01*
X24904000Y-13450000D01*
X24904000Y-13704000D02*
X24954000Y-13654000D01*
X24904000Y-13604000D01*
X24854000Y-13654000D01*
X24904000Y-13704000D01*
X24904000Y-13958000D02*
X24954000Y-13908000D01*
X24904000Y-13858000D01*
X24854000Y-13908000D01*
X24904000Y-13958000D01*
X24904000Y-14212000D02*
X24954000Y-14162000D01*
X24904000Y-14112000D01*
X24854000Y-14162000D01*
X24904000Y-14212000D01*
X24904000Y-14466000D02*
X24954000Y-14416000D01*
X24904000Y-14366000D01*
X24854000Y-14416000D01*
X24904000Y-14466000D01*
X25094250Y-7670500D02*
X25144250Y-7620500D01*
X25094250Y-7570500D01*
X25044250Y-7620500D01*
X25094250Y-7670500D01*
X25094250Y-7924500D02*
X25144250Y-7874500D01*
X25094250Y-7824500D01*
X25044250Y-7874500D01*
X25094250Y-7924500D01*
X25094250Y-8178500D02*
X25144250Y-8128500D01*
X25094250Y-8078500D01*
X25044250Y-8128500D01*
X25094250Y-8178500D01*
X25628600Y-5485600D02*
X25678600Y-5435600D01*
X25628600Y-5385600D01*
X25578600Y-5435600D01*
X25628600Y-5485600D01*
X25628600Y-5739600D02*
X25678600Y-5689600D01*
X25628600Y-5639600D01*
X25578600Y-5689600D01*
X25628600Y-5739600D01*
X25628600Y-5993600D02*
X25678600Y-5943600D01*
X25628600Y-5893600D01*
X25578600Y-5943600D01*
X25628600Y-5993600D01*
X25628600Y-6247600D02*
X25678600Y-6197600D01*
X25628600Y-6147600D01*
X25578600Y-6197600D01*
X25628600Y-6247600D01*
D16*
X2993000Y-14396750D02*
X3103000Y-14506750D01*
X3103000Y-14396750D02*
X2993000Y-14506750D01*
X3103000Y-14451750D02*
G75*
G03*
X3103000Y-14451750I-55000J0D01*
G01*
X4009000Y-14396750D02*
X4119000Y-14506750D01*
X4119000Y-14396750D02*
X4009000Y-14506750D01*
X4119000Y-14451750D02*
G75*
G03*
X4119000Y-14451750I-55000J0D01*
G01*
X4644000Y-14423000D02*
X4754000Y-14533000D01*
X4754000Y-14423000D02*
X4644000Y-14533000D01*
X4754000Y-14478000D02*
G75*
G03*
X4754000Y-14478000I-55000J0D01*
G01*
X5660000Y-14423000D02*
X5770000Y-14533000D01*
X5770000Y-14423000D02*
X5660000Y-14533000D01*
X5770000Y-14478000D02*
G75*
G03*
X5770000Y-14478000I-55000J0D01*
G01*
X7057000Y-14423000D02*
X7167000Y-14533000D01*
X7167000Y-14423000D02*
X7057000Y-14533000D01*
X7167000Y-14478000D02*
G75*
G03*
X7167000Y-14478000I-55000J0D01*
G01*
X8073000Y-14423000D02*
X8183000Y-14533000D01*
X8183000Y-14423000D02*
X8073000Y-14533000D01*
X8183000Y-14478000D02*
G75*
G03*
X8183000Y-14478000I-55000J0D01*
G01*
X8708000Y-14423000D02*
X8818000Y-14533000D01*
X8818000Y-14423000D02*
X8708000Y-14533000D01*
X8818000Y-14478000D02*
G75*
G03*
X8818000Y-14478000I-55000J0D01*
G01*
X9724000Y-14423000D02*
X9834000Y-14533000D01*
X9834000Y-14423000D02*
X9724000Y-14533000D01*
X9834000Y-14478000D02*
G75*
G03*
X9834000Y-14478000I-55000J0D01*
G01*
X19737000Y-6045000D02*
X19847000Y-6155000D01*
X19847000Y-6045000D02*
X19737000Y-6155000D01*
X19847000Y-6100000D02*
G75*
G03*
X19847000Y-6100000I-55000J0D01*
G01*
X20753000Y-6045000D02*
X20863000Y-6155000D01*
X20863000Y-6045000D02*
X20753000Y-6155000D01*
X20863000Y-6100000D02*
G75*
G03*
X20863000Y-6100000I-55000J0D01*
G01*
X22037000Y-6045000D02*
X22147000Y-6155000D01*
X22147000Y-6045000D02*
X22037000Y-6155000D01*
X22147000Y-6100000D02*
G75*
G03*
X22147000Y-6100000I-55000J0D01*
G01*
X23053000Y-6045000D02*
X23163000Y-6155000D01*
X23163000Y-6045000D02*
X23053000Y-6155000D01*
X23163000Y-6100000D02*
G75*
G03*
X23163000Y-6100000I-55000J0D01*
G01*
D17*
X12204500Y-6396100D02*
X12315500Y-6507100D01*
X12315500Y-6396100D02*
X12204500Y-6507100D01*
X12260000Y-6396100D02*
X12260000Y-6507100D01*
X12204500Y-6451600D02*
X12315500Y-6451600D01*
X12204500Y-6650100D02*
X12315500Y-6761100D01*
X12315500Y-6650100D02*
X12204500Y-6761100D01*
X12260000Y-6650100D02*
X12260000Y-6761100D01*
X12204500Y-6705600D02*
X12315500Y-6705600D01*
X12204500Y-6904100D02*
X12315500Y-7015100D01*
X12315500Y-6904100D02*
X12204500Y-7015100D01*
X12260000Y-6904100D02*
X12260000Y-7015100D01*
X12204500Y-6959600D02*
X12315500Y-6959600D01*
X12204500Y-7158100D02*
X12315500Y-7269100D01*
X12315500Y-7158100D02*
X12204500Y-7269100D01*
X12260000Y-7158100D02*
X12260000Y-7269100D01*
X12204500Y-7213600D02*
X12315500Y-7213600D01*
X12204500Y-7412100D02*
X12315500Y-7523100D01*
X12315500Y-7412100D02*
X12204500Y-7523100D01*
X12260000Y-7412100D02*
X12260000Y-7523100D01*
X12204500Y-7467600D02*
X12315500Y-7467600D01*
X12204500Y-7666100D02*
X12315500Y-7777100D01*
X12315500Y-7666100D02*
X12204500Y-7777100D01*
X12260000Y-7666100D02*
X12260000Y-7777100D01*
X12204500Y-7721600D02*
X12315500Y-7721600D01*
X12204500Y-7920100D02*
X12315500Y-8031100D01*
X12315500Y-7920100D02*
X12204500Y-8031100D01*
X12260000Y-7920100D02*
X12260000Y-8031100D01*
X12204500Y-7975600D02*
X12315500Y-7975600D01*
X12204500Y-8174100D02*
X12315500Y-8285100D01*
X12315500Y-8174100D02*
X12204500Y-8285100D01*
X12260000Y-8174100D02*
X12260000Y-8285100D01*
X12204500Y-8229600D02*
X12315500Y-8229600D01*
X12204500Y-8428100D02*
X12315500Y-8539100D01*
X12315500Y-8428100D02*
X12204500Y-8539100D01*
X12260000Y-8428100D02*
X12260000Y-8539100D01*
X12204500Y-8483600D02*
X12315500Y-8483600D01*
X12204500Y-8682100D02*
X12315500Y-8793100D01*
X12315500Y-8682100D02*
X12204500Y-8793100D01*
X12260000Y-8682100D02*
X12260000Y-8793100D01*
X12204500Y-8737600D02*
X12315500Y-8737600D01*
X18029300Y-10307700D02*
X18140300Y-10418700D01*
X18140300Y-10307700D02*
X18029300Y-10418700D01*
X18084800Y-10307700D02*
X18084800Y-10418700D01*
X18029300Y-10363200D02*
X18140300Y-10363200D01*
X18029300Y-10561700D02*
X18140300Y-10672700D01*
X18140300Y-10561700D02*
X18029300Y-10672700D01*
X18084800Y-10561700D02*
X18084800Y-10672700D01*
X18029300Y-10617200D02*
X18140300Y-10617200D01*
X18029300Y-10815700D02*
X18140300Y-10926700D01*
X18140300Y-10815700D02*
X18029300Y-10926700D01*
X18084800Y-10815700D02*
X18084800Y-10926700D01*
X18029300Y-10871200D02*
X18140300Y-10871200D01*
X18029300Y-11069700D02*
X18140300Y-11180700D01*
X18140300Y-11069700D02*
X18029300Y-11180700D01*
X18084800Y-11069700D02*
X18084800Y-11180700D01*
X18029300Y-11125200D02*
X18140300Y-11125200D01*
X18029300Y-11323700D02*
X18140300Y-11434700D01*
X18140300Y-11323700D02*
X18029300Y-11434700D01*
X18084800Y-11323700D02*
X18084800Y-11434700D01*
X18029300Y-11379200D02*
X18140300Y-11379200D01*
X18029300Y-11577700D02*
X18140300Y-11688700D01*
X18140300Y-11577700D02*
X18029300Y-11688700D01*
X18084800Y-11577700D02*
X18084800Y-11688700D01*
X18029300Y-11633200D02*
X18140300Y-11633200D01*
X18029300Y-11831700D02*
X18140300Y-11942700D01*
X18140300Y-11831700D02*
X18029300Y-11942700D01*
X18084800Y-11831700D02*
X18084800Y-11942700D01*
X18029300Y-11887200D02*
X18140300Y-11887200D01*
X18029300Y-12085700D02*
X18140300Y-12196700D01*
X18140300Y-12085700D02*
X18029300Y-12196700D01*
X18084800Y-12085700D02*
X18084800Y-12196700D01*
X18029300Y-12141200D02*
X18140300Y-12141200D01*
X18029300Y-12339700D02*
X18140300Y-12450700D01*
X18140300Y-12339700D02*
X18029300Y-12450700D01*
X18084800Y-12339700D02*
X18084800Y-12450700D01*
X18029300Y-12395200D02*
X18140300Y-12395200D01*
X18029300Y-12593700D02*
X18140300Y-12704700D01*
X18140300Y-12593700D02*
X18029300Y-12704700D01*
X18084800Y-12593700D02*
X18084800Y-12704700D01*
X18029300Y-12649200D02*
X18140300Y-12649200D01*
D18*
X10583000Y-11962000D02*
X10703000Y-12082000D01*
X10703000Y-11962000D02*
X10583000Y-12082000D01*
X10685427Y-12064427D02*
X10685427Y-11979573D01*
X10600573Y-11979573D01*
X10600573Y-12064427D01*
X10685427Y-12064427D01*
X10583000Y-13994000D02*
X10703000Y-14114000D01*
X10703000Y-13994000D02*
X10583000Y-14114000D01*
X10685427Y-14096427D02*
X10685427Y-14011573D01*
X10600573Y-14011573D01*
X10600573Y-14096427D01*
X10685427Y-14096427D01*
D19*
X2063500Y-13142500D02*
X2193500Y-13272500D01*
X2193500Y-13142500D02*
X2063500Y-13272500D01*
X2128500Y-13272500D02*
X2193500Y-13207500D01*
X2128500Y-13142500D01*
X2063500Y-13207500D01*
X2128500Y-13272500D01*
X2063500Y-13650500D02*
X2193500Y-13780500D01*
X2193500Y-13650500D02*
X2063500Y-13780500D01*
X2128500Y-13780500D02*
X2193500Y-13715500D01*
X2128500Y-13650500D01*
X2063500Y-13715500D01*
X2128500Y-13780500D01*
X2094000Y-6666000D02*
X2224000Y-6796000D01*
X2224000Y-6666000D02*
X2094000Y-6796000D01*
X2159000Y-6796000D02*
X2224000Y-6731000D01*
X2159000Y-6666000D01*
X2094000Y-6731000D01*
X2159000Y-6796000D01*
X2094000Y-7174000D02*
X2224000Y-7304000D01*
X2224000Y-7174000D02*
X2094000Y-7304000D01*
X2159000Y-7304000D02*
X2224000Y-7239000D01*
X2159000Y-7174000D01*
X2094000Y-7239000D01*
X2159000Y-7304000D01*
X2891000Y-12331750D02*
X3021000Y-12461750D01*
X3021000Y-12331750D02*
X2891000Y-12461750D01*
X2956000Y-12461750D02*
X3021000Y-12396750D01*
X2956000Y-12331750D01*
X2891000Y-12396750D01*
X2956000Y-12461750D01*
X2891000Y-13551750D02*
X3021000Y-13681750D01*
X3021000Y-13551750D02*
X2891000Y-13681750D01*
X2956000Y-13681750D02*
X3021000Y-13616750D01*
X2956000Y-13551750D01*
X2891000Y-13616750D01*
X2956000Y-13681750D01*
X3491000Y-13751750D02*
X3621000Y-13881750D01*
X3621000Y-13751750D02*
X3491000Y-13881750D01*
X3556000Y-13881750D02*
X3621000Y-13816750D01*
X3556000Y-13751750D01*
X3491000Y-13816750D01*
X3556000Y-13881750D01*
X4091000Y-12331750D02*
X4221000Y-12461750D01*
X4221000Y-12331750D02*
X4091000Y-12461750D01*
X4156000Y-12461750D02*
X4221000Y-12396750D01*
X4156000Y-12331750D01*
X4091000Y-12396750D01*
X4156000Y-12461750D01*
X4091000Y-13551750D02*
X4221000Y-13681750D01*
X4221000Y-13551750D02*
X4091000Y-13681750D01*
X4156000Y-13681750D02*
X4221000Y-13616750D01*
X4156000Y-13551750D01*
X4091000Y-13616750D01*
X4156000Y-13681750D01*
X4669000Y-12331750D02*
X4799000Y-12461750D01*
X4799000Y-12331750D02*
X4669000Y-12461750D01*
X4734000Y-12461750D02*
X4799000Y-12396750D01*
X4734000Y-12331750D01*
X4669000Y-12396750D01*
X4734000Y-12461750D01*
X4669000Y-13551750D02*
X4799000Y-13681750D01*
X4799000Y-13551750D02*
X4669000Y-13681750D01*
X4734000Y-13681750D02*
X4799000Y-13616750D01*
X4734000Y-13551750D01*
X4669000Y-13616750D01*
X4734000Y-13681750D01*
X5269000Y-13751750D02*
X5399000Y-13881750D01*
X5399000Y-13751750D02*
X5269000Y-13881750D01*
X5334000Y-13881750D02*
X5399000Y-13816750D01*
X5334000Y-13751750D01*
X5269000Y-13816750D01*
X5334000Y-13881750D01*
X5869000Y-12331750D02*
X5999000Y-12461750D01*
X5999000Y-12331750D02*
X5869000Y-12461750D01*
X5934000Y-12461750D02*
X5999000Y-12396750D01*
X5934000Y-12331750D01*
X5869000Y-12396750D01*
X5934000Y-12461750D01*
X5869000Y-13551750D02*
X5999000Y-13681750D01*
X5999000Y-13551750D02*
X5869000Y-13681750D01*
X5934000Y-13681750D02*
X5999000Y-13616750D01*
X5934000Y-13551750D01*
X5869000Y-13616750D01*
X5934000Y-13681750D01*
X6235000Y-10135000D02*
X6365000Y-10265000D01*
X6365000Y-10135000D02*
X6235000Y-10265000D01*
X6300000Y-10265000D02*
X6365000Y-10200000D01*
X6300000Y-10135000D01*
X6235000Y-10200000D01*
X6300000Y-10265000D01*
X6235000Y-10643000D02*
X6365000Y-10773000D01*
X6365000Y-10643000D02*
X6235000Y-10773000D01*
X6300000Y-10773000D02*
X6365000Y-10708000D01*
X6300000Y-10643000D01*
X6235000Y-10708000D01*
X6300000Y-10773000D01*
X6955000Y-12331750D02*
X7085000Y-12461750D01*
X7085000Y-12331750D02*
X6955000Y-12461750D01*
X7020000Y-12461750D02*
X7085000Y-12396750D01*
X7020000Y-12331750D01*
X6955000Y-12396750D01*
X7020000Y-12461750D01*
X6955000Y-13551750D02*
X7085000Y-13681750D01*
X7085000Y-13551750D02*
X6955000Y-13681750D01*
X7020000Y-13681750D02*
X7085000Y-13616750D01*
X7020000Y-13551750D01*
X6955000Y-13616750D01*
X7020000Y-13681750D01*
X7555000Y-13751750D02*
X7685000Y-13881750D01*
X7685000Y-13751750D02*
X7555000Y-13881750D01*
X7620000Y-13881750D02*
X7685000Y-13816750D01*
X7620000Y-13751750D01*
X7555000Y-13816750D01*
X7620000Y-13881750D01*
X8155000Y-12331750D02*
X8285000Y-12461750D01*
X8285000Y-12331750D02*
X8155000Y-12461750D01*
X8220000Y-12461750D02*
X8285000Y-12396750D01*
X8220000Y-12331750D01*
X8155000Y-12396750D01*
X8220000Y-12461750D01*
X8155000Y-13551750D02*
X8285000Y-13681750D01*
X8285000Y-13551750D02*
X8155000Y-13681750D01*
X8220000Y-13681750D02*
X8285000Y-13616750D01*
X8220000Y-13551750D01*
X8155000Y-13616750D01*
X8220000Y-13681750D01*
X8733000Y-12331750D02*
X8863000Y-12461750D01*
X8863000Y-12331750D02*
X8733000Y-12461750D01*
X8798000Y-12461750D02*
X8863000Y-12396750D01*
X8798000Y-12331750D01*
X8733000Y-12396750D01*
X8798000Y-12461750D01*
X8733000Y-13551750D02*
X8863000Y-13681750D01*
X8863000Y-13551750D02*
X8733000Y-13681750D01*
X8798000Y-13681750D02*
X8863000Y-13616750D01*
X8798000Y-13551750D01*
X8733000Y-13616750D01*
X8798000Y-13681750D01*
X9333000Y-13751750D02*
X9463000Y-13881750D01*
X9463000Y-13751750D02*
X9333000Y-13881750D01*
X9398000Y-13881750D02*
X9463000Y-13816750D01*
X9398000Y-13751750D01*
X9333000Y-13816750D01*
X9398000Y-13881750D01*
X9933000Y-12331750D02*
X10063000Y-12461750D01*
X10063000Y-12331750D02*
X9933000Y-12461750D01*
X9998000Y-12461750D02*
X10063000Y-12396750D01*
X9998000Y-12331750D01*
X9933000Y-12396750D01*
X9998000Y-12461750D01*
X9933000Y-13551750D02*
X10063000Y-13681750D01*
X10063000Y-13551750D02*
X9933000Y-13681750D01*
X9998000Y-13681750D02*
X10063000Y-13616750D01*
X9998000Y-13551750D01*
X9933000Y-13616750D01*
X9998000Y-13681750D01*
X16581500Y-14035000D02*
X16711500Y-14165000D01*
X16711500Y-14035000D02*
X16581500Y-14165000D01*
X16646500Y-14165000D02*
X16711500Y-14100000D01*
X16646500Y-14035000D01*
X16581500Y-14100000D01*
X16646500Y-14165000D01*
X17089500Y-14035000D02*
X17219500Y-14165000D01*
X17219500Y-14035000D02*
X17089500Y-14165000D01*
X17154500Y-14165000D02*
X17219500Y-14100000D01*
X17154500Y-14035000D01*
X17089500Y-14100000D01*
X17154500Y-14165000D01*
X18704500Y-4281500D02*
X18834500Y-4411500D01*
X18834500Y-4281500D02*
X18704500Y-4411500D01*
X18769500Y-4411500D02*
X18834500Y-4346500D01*
X18769500Y-4281500D01*
X18704500Y-4346500D01*
X18769500Y-4411500D01*
X18704500Y-4789500D02*
X18834500Y-4919500D01*
X18834500Y-4789500D02*
X18704500Y-4919500D01*
X18769500Y-4919500D02*
X18834500Y-4854500D01*
X18769500Y-4789500D01*
X18704500Y-4854500D01*
X18769500Y-4919500D01*
X19835000Y-4015000D02*
X19965000Y-4145000D01*
X19965000Y-4015000D02*
X19835000Y-4145000D01*
X19900000Y-4145000D02*
X19965000Y-4080000D01*
X19900000Y-4015000D01*
X19835000Y-4080000D01*
X19900000Y-4145000D01*
X19835000Y-5235000D02*
X19965000Y-5365000D01*
X19965000Y-5235000D02*
X19835000Y-5365000D01*
X19900000Y-5365000D02*
X19965000Y-5300000D01*
X19900000Y-5235000D01*
X19835000Y-5300000D01*
X19900000Y-5365000D01*
X20435000Y-5435000D02*
X20565000Y-5565000D01*
X20565000Y-5435000D02*
X20435000Y-5565000D01*
X20500000Y-5565000D02*
X20565000Y-5500000D01*
X20500000Y-5435000D01*
X20435000Y-5500000D01*
X20500000Y-5565000D01*
X21035000Y-4015000D02*
X21165000Y-4145000D01*
X21165000Y-4015000D02*
X21035000Y-4145000D01*
X21100000Y-4145000D02*
X21165000Y-4080000D01*
X21100000Y-4015000D01*
X21035000Y-4080000D01*
X21100000Y-4145000D01*
X21035000Y-5235000D02*
X21165000Y-5365000D01*
X21165000Y-5235000D02*
X21035000Y-5365000D01*
X21100000Y-5365000D02*
X21165000Y-5300000D01*
X21100000Y-5235000D01*
X21035000Y-5300000D01*
X21100000Y-5365000D01*
X22135000Y-4015000D02*
X22265000Y-4145000D01*
X22265000Y-4015000D02*
X22135000Y-4145000D01*
X22200000Y-4145000D02*
X22265000Y-4080000D01*
X22200000Y-4015000D01*
X22135000Y-4080000D01*
X22200000Y-4145000D01*
X22135000Y-5235000D02*
X22265000Y-5365000D01*
X22265000Y-5235000D02*
X22135000Y-5365000D01*
X22200000Y-5365000D02*
X22265000Y-5300000D01*
X22200000Y-5235000D01*
X22135000Y-5300000D01*
X22200000Y-5365000D01*
X22735000Y-5435000D02*
X22865000Y-5565000D01*
X22865000Y-5435000D02*
X22735000Y-5565000D01*
X22800000Y-5565000D02*
X22865000Y-5500000D01*
X22800000Y-5435000D01*
X22735000Y-5500000D01*
X22800000Y-5565000D01*
X23335000Y-4015000D02*
X23465000Y-4145000D01*
X23465000Y-4015000D02*
X23335000Y-4145000D01*
X23400000Y-4145000D02*
X23465000Y-4080000D01*
X23400000Y-4015000D01*
X23335000Y-4080000D01*
X23400000Y-4145000D01*
X23335000Y-5235000D02*
X23465000Y-5365000D01*
X23465000Y-5235000D02*
X23335000Y-5365000D01*
X23400000Y-5365000D02*
X23465000Y-5300000D01*
X23400000Y-5235000D01*
X23335000Y-5300000D01*
X23400000Y-5365000D01*
X25265500Y-4281500D02*
X25395500Y-4411500D01*
X25395500Y-4281500D02*
X25265500Y-4411500D01*
X25330500Y-4411500D02*
X25395500Y-4346500D01*
X25330500Y-4281500D01*
X25265500Y-4346500D01*
X25330500Y-4411500D01*
X25265500Y-4789500D02*
X25395500Y-4919500D01*
X25395500Y-4789500D02*
X25265500Y-4919500D01*
X25330500Y-4919500D02*
X25395500Y-4854500D01*
X25330500Y-4789500D01*
X25265500Y-4854500D01*
X25330500Y-4919500D01*
D20*
X13504600Y-6326600D02*
X13504600Y-6576600D01*
X13379600Y-6451600D02*
X13629600Y-6451600D01*
X13629600Y-6451600D02*
G75*
G03*
X13629600Y-6451600I-125000J0D01*
G01*
X13504600Y-8612600D02*
X13504600Y-8862600D01*
X13379600Y-8737600D02*
X13629600Y-8737600D01*
X13629600Y-8737600D02*
G75*
G03*
X13629600Y-8737600I-125000J0D01*
G01*
X19329400Y-10238200D02*
X19329400Y-10488200D01*
X19204400Y-10363200D02*
X19454400Y-10363200D01*
X19454400Y-10363200D02*
G75*
G03*
X19454400Y-10363200I-125000J0D01*
G01*
X19329400Y-12524200D02*
X19329400Y-12774200D01*
X19204400Y-12649200D02*
X19454400Y-12649200D01*
X19454400Y-12649200D02*
G75*
G03*
X19454400Y-12649200I-125000J0D01*
G01*
D21*
X2246738Y-5447138D02*
X2246738Y-5220862D01*
X2020462Y-5220862D01*
X2020462Y-5447138D01*
X2246738Y-5447138D01*
X2293600Y-5334000D02*
G75*
G03*
X2293600Y-5334000I-160000J0D01*
G01*
X2272138Y-15022938D02*
X2272138Y-14796662D01*
X2045862Y-14796662D01*
X2045862Y-15022938D01*
X2272138Y-15022938D01*
X2319000Y-14909800D02*
G75*
G03*
X2319000Y-14909800I-160000J0D01*
G01*
X5294738Y-10552538D02*
X5294738Y-10326262D01*
X5068462Y-10326262D01*
X5068462Y-10552538D01*
X5294738Y-10552538D01*
X5341600Y-10439400D02*
G75*
G03*
X5341600Y-10439400I-160000J0D01*
G01*
X13194138Y-13041738D02*
X13194138Y-12815462D01*
X12967862Y-12815462D01*
X12967862Y-13041738D01*
X13194138Y-13041738D01*
X13241000Y-12928600D02*
G75*
G03*
X13241000Y-12928600I-160000J0D01*
G01*
X17261138Y-3882138D02*
X17261138Y-3655862D01*
X17034862Y-3655862D01*
X17034862Y-3882138D01*
X17261138Y-3882138D01*
X17308000Y-3769000D02*
G75*
G03*
X17308000Y-3769000I-160000J0D01*
G01*
D11*
X1679777Y-15835884D02*
X1679777Y-15635884D01*
X1679777Y-15635884D02*
X1727396Y-15635884D01*
X1727396Y-15635884D02*
X1755967Y-15645408D01*
X1755967Y-15645408D02*
X1775015Y-15664455D01*
X1775015Y-15664455D02*
X1784539Y-15683503D01*
X1784539Y-15683503D02*
X1794062Y-15721598D01*
X1794062Y-15721598D02*
X1794062Y-15750169D01*
X1794062Y-15750169D02*
X1784539Y-15788265D01*
X1784539Y-15788265D02*
X1775015Y-15807312D01*
X1775015Y-15807312D02*
X1755967Y-15826360D01*
X1755967Y-15826360D02*
X1727396Y-15835884D01*
X1727396Y-15835884D02*
X1679777Y-15835884D01*
X1879777Y-15835884D02*
X1879777Y-15702550D01*
X1879777Y-15740646D02*
X1889301Y-15721598D01*
X1889301Y-15721598D02*
X1898824Y-15712074D01*
X1898824Y-15712074D02*
X1917872Y-15702550D01*
X1917872Y-15702550D02*
X1936920Y-15702550D01*
X2003586Y-15835884D02*
X2003586Y-15702550D01*
X2003586Y-15635884D02*
X1994062Y-15645408D01*
X1994062Y-15645408D02*
X2003586Y-15654931D01*
X2003586Y-15654931D02*
X2013110Y-15645408D01*
X2013110Y-15645408D02*
X2003586Y-15635884D01*
X2003586Y-15635884D02*
X2003586Y-15654931D01*
X2127396Y-15835884D02*
X2108348Y-15826360D01*
X2108348Y-15826360D02*
X2098824Y-15807312D01*
X2098824Y-15807312D02*
X2098824Y-15635884D01*
X2232158Y-15835884D02*
X2213110Y-15826360D01*
X2213110Y-15826360D02*
X2203586Y-15807312D01*
X2203586Y-15807312D02*
X2203586Y-15635884D01*
X2460729Y-15835884D02*
X2460729Y-15635884D01*
X2460729Y-15635884D02*
X2527396Y-15778741D01*
X2527396Y-15778741D02*
X2594063Y-15635884D01*
X2594063Y-15635884D02*
X2594063Y-15835884D01*
X2775015Y-15835884D02*
X2775015Y-15731122D01*
X2775015Y-15731122D02*
X2765491Y-15712074D01*
X2765491Y-15712074D02*
X2746444Y-15702550D01*
X2746444Y-15702550D02*
X2708348Y-15702550D01*
X2708348Y-15702550D02*
X2689301Y-15712074D01*
X2775015Y-15826360D02*
X2755967Y-15835884D01*
X2755967Y-15835884D02*
X2708348Y-15835884D01*
X2708348Y-15835884D02*
X2689301Y-15826360D01*
X2689301Y-15826360D02*
X2679777Y-15807312D01*
X2679777Y-15807312D02*
X2679777Y-15788265D01*
X2679777Y-15788265D02*
X2689301Y-15769217D01*
X2689301Y-15769217D02*
X2708348Y-15759693D01*
X2708348Y-15759693D02*
X2755967Y-15759693D01*
X2755967Y-15759693D02*
X2775015Y-15750169D01*
X2870253Y-15702550D02*
X2870253Y-15902550D01*
X2870253Y-15712074D02*
X2889301Y-15702550D01*
X2889301Y-15702550D02*
X2927396Y-15702550D01*
X2927396Y-15702550D02*
X2946443Y-15712074D01*
X2946443Y-15712074D02*
X2955967Y-15721598D01*
X2955967Y-15721598D02*
X2965491Y-15740646D01*
X2965491Y-15740646D02*
X2965491Y-15797788D01*
X2965491Y-15797788D02*
X2955967Y-15816836D01*
X2955967Y-15816836D02*
X2946443Y-15826360D01*
X2946443Y-15826360D02*
X2927396Y-15835884D01*
X2927396Y-15835884D02*
X2889301Y-15835884D01*
X2889301Y-15835884D02*
X2870253Y-15826360D01*
X3051205Y-15816836D02*
X3060729Y-15826360D01*
X3060729Y-15826360D02*
X3051205Y-15835884D01*
X3051205Y-15835884D02*
X3041682Y-15826360D01*
X3041682Y-15826360D02*
X3051205Y-15816836D01*
X3051205Y-15816836D02*
X3051205Y-15835884D01*
X3051205Y-15712074D02*
X3060729Y-15721598D01*
X3060729Y-15721598D02*
X3051205Y-15731122D01*
X3051205Y-15731122D02*
X3041682Y-15721598D01*
X3041682Y-15721598D02*
X3051205Y-15712074D01*
X3051205Y-15712074D02*
X3051205Y-15731122D01*
D12*
X1379000Y-16144400D02*
X1419000Y-16184400D01*
X1419000Y-16144400D02*
X1379000Y-16184400D01*
D11*
X1717872Y-16055884D02*
X1736920Y-16055884D01*
X1736920Y-16055884D02*
X1755967Y-16065408D01*
X1755967Y-16065408D02*
X1765491Y-16074931D01*
X1765491Y-16074931D02*
X1775015Y-16093979D01*
X1775015Y-16093979D02*
X1784539Y-16132074D01*
X1784539Y-16132074D02*
X1784539Y-16179693D01*
X1784539Y-16179693D02*
X1775015Y-16217788D01*
X1775015Y-16217788D02*
X1765491Y-16236836D01*
X1765491Y-16236836D02*
X1755967Y-16246360D01*
X1755967Y-16246360D02*
X1736920Y-16255884D01*
X1736920Y-16255884D02*
X1717872Y-16255884D01*
X1717872Y-16255884D02*
X1698824Y-16246360D01*
X1698824Y-16246360D02*
X1689301Y-16236836D01*
X1689301Y-16236836D02*
X1679777Y-16217788D01*
X1679777Y-16217788D02*
X1670253Y-16179693D01*
X1670253Y-16179693D02*
X1670253Y-16132074D01*
X1670253Y-16132074D02*
X1679777Y-16093979D01*
X1679777Y-16093979D02*
X1689301Y-16074931D01*
X1689301Y-16074931D02*
X1698824Y-16065408D01*
X1698824Y-16065408D02*
X1717872Y-16055884D01*
X1870253Y-16236836D02*
X1879777Y-16246360D01*
X1879777Y-16246360D02*
X1870253Y-16255884D01*
X1870253Y-16255884D02*
X1860729Y-16246360D01*
X1860729Y-16246360D02*
X1870253Y-16236836D01*
X1870253Y-16236836D02*
X1870253Y-16255884D01*
X2051205Y-16122550D02*
X2051205Y-16255884D01*
X2003586Y-16046360D02*
X1955967Y-16189217D01*
X1955967Y-16189217D02*
X2079777Y-16189217D01*
X2194063Y-16055884D02*
X2213110Y-16055884D01*
X2213110Y-16055884D02*
X2232158Y-16065408D01*
X2232158Y-16065408D02*
X2241682Y-16074931D01*
X2241682Y-16074931D02*
X2251205Y-16093979D01*
X2251205Y-16093979D02*
X2260729Y-16132074D01*
X2260729Y-16132074D02*
X2260729Y-16179693D01*
X2260729Y-16179693D02*
X2251205Y-16217788D01*
X2251205Y-16217788D02*
X2241682Y-16236836D01*
X2241682Y-16236836D02*
X2232158Y-16246360D01*
X2232158Y-16246360D02*
X2213110Y-16255884D01*
X2213110Y-16255884D02*
X2194063Y-16255884D01*
X2194063Y-16255884D02*
X2175015Y-16246360D01*
X2175015Y-16246360D02*
X2165491Y-16236836D01*
X2165491Y-16236836D02*
X2155967Y-16217788D01*
X2155967Y-16217788D02*
X2146444Y-16179693D01*
X2146444Y-16179693D02*
X2146444Y-16132074D01*
X2146444Y-16132074D02*
X2155967Y-16093979D01*
X2155967Y-16093979D02*
X2165491Y-16074931D01*
X2165491Y-16074931D02*
X2175015Y-16065408D01*
X2175015Y-16065408D02*
X2194063Y-16055884D01*
X2384539Y-16055884D02*
X2403586Y-16055884D01*
X2403586Y-16055884D02*
X2422634Y-16065408D01*
X2422634Y-16065408D02*
X2432158Y-16074931D01*
X2432158Y-16074931D02*
X2441682Y-16093979D01*
X2441682Y-16093979D02*
X2451205Y-16132074D01*
X2451205Y-16132074D02*
X2451205Y-16179693D01*
X2451205Y-16179693D02*
X2441682Y-16217788D01*
X2441682Y-16217788D02*
X2432158Y-16236836D01*
X2432158Y-16236836D02*
X2422634Y-16246360D01*
X2422634Y-16246360D02*
X2403586Y-16255884D01*
X2403586Y-16255884D02*
X2384539Y-16255884D01*
X2384539Y-16255884D02*
X2365491Y-16246360D01*
X2365491Y-16246360D02*
X2355967Y-16236836D01*
X2355967Y-16236836D02*
X2346444Y-16217788D01*
X2346444Y-16217788D02*
X2336920Y-16179693D01*
X2336920Y-16179693D02*
X2336920Y-16132074D01*
X2336920Y-16132074D02*
X2346444Y-16093979D01*
X2346444Y-16093979D02*
X2355967Y-16074931D01*
X2355967Y-16074931D02*
X2365491Y-16065408D01*
X2365491Y-16065408D02*
X2384539Y-16055884D01*
X2536920Y-16255884D02*
X2536920Y-16122550D01*
X2536920Y-16141598D02*
X2546444Y-16132074D01*
X2546444Y-16132074D02*
X2565491Y-16122550D01*
X2565491Y-16122550D02*
X2594063Y-16122550D01*
X2594063Y-16122550D02*
X2613110Y-16132074D01*
X2613110Y-16132074D02*
X2622634Y-16151122D01*
X2622634Y-16151122D02*
X2622634Y-16255884D01*
X2622634Y-16151122D02*
X2632158Y-16132074D01*
X2632158Y-16132074D02*
X2651205Y-16122550D01*
X2651205Y-16122550D02*
X2679777Y-16122550D01*
X2679777Y-16122550D02*
X2698825Y-16132074D01*
X2698825Y-16132074D02*
X2708348Y-16151122D01*
X2708348Y-16151122D02*
X2708348Y-16255884D01*
X2803586Y-16255884D02*
X2803586Y-16122550D01*
X2803586Y-16141598D02*
X2813110Y-16132074D01*
X2813110Y-16132074D02*
X2832158Y-16122550D01*
X2832158Y-16122550D02*
X2860729Y-16122550D01*
X2860729Y-16122550D02*
X2879777Y-16132074D01*
X2879777Y-16132074D02*
X2889301Y-16151122D01*
X2889301Y-16151122D02*
X2889301Y-16255884D01*
X2889301Y-16151122D02*
X2898824Y-16132074D01*
X2898824Y-16132074D02*
X2917872Y-16122550D01*
X2917872Y-16122550D02*
X2946443Y-16122550D01*
X2946443Y-16122550D02*
X2965491Y-16132074D01*
X2965491Y-16132074D02*
X2975015Y-16151122D01*
X2975015Y-16151122D02*
X2975015Y-16255884D01*
X3365491Y-16046360D02*
X3194063Y-16303503D01*
X3622634Y-16055884D02*
X3641682Y-16055884D01*
X3641682Y-16055884D02*
X3660729Y-16065408D01*
X3660729Y-16065408D02*
X3670253Y-16074931D01*
X3670253Y-16074931D02*
X3679777Y-16093979D01*
X3679777Y-16093979D02*
X3689301Y-16132074D01*
X3689301Y-16132074D02*
X3689301Y-16179693D01*
X3689301Y-16179693D02*
X3679777Y-16217788D01*
X3679777Y-16217788D02*
X3670253Y-16236836D01*
X3670253Y-16236836D02*
X3660729Y-16246360D01*
X3660729Y-16246360D02*
X3641682Y-16255884D01*
X3641682Y-16255884D02*
X3622634Y-16255884D01*
X3622634Y-16255884D02*
X3603586Y-16246360D01*
X3603586Y-16246360D02*
X3594063Y-16236836D01*
X3594063Y-16236836D02*
X3584539Y-16217788D01*
X3584539Y-16217788D02*
X3575015Y-16179693D01*
X3575015Y-16179693D02*
X3575015Y-16132074D01*
X3575015Y-16132074D02*
X3584539Y-16093979D01*
X3584539Y-16093979D02*
X3594063Y-16074931D01*
X3594063Y-16074931D02*
X3603586Y-16065408D01*
X3603586Y-16065408D02*
X3622634Y-16055884D01*
X3775015Y-16236836D02*
X3784539Y-16246360D01*
X3784539Y-16246360D02*
X3775015Y-16255884D01*
X3775015Y-16255884D02*
X3765491Y-16246360D01*
X3765491Y-16246360D02*
X3775015Y-16236836D01*
X3775015Y-16236836D02*
X3775015Y-16255884D01*
X3908348Y-16055884D02*
X3927396Y-16055884D01*
X3927396Y-16055884D02*
X3946444Y-16065408D01*
X3946444Y-16065408D02*
X3955967Y-16074931D01*
X3955967Y-16074931D02*
X3965491Y-16093979D01*
X3965491Y-16093979D02*
X3975015Y-16132074D01*
X3975015Y-16132074D02*
X3975015Y-16179693D01*
X3975015Y-16179693D02*
X3965491Y-16217788D01*
X3965491Y-16217788D02*
X3955967Y-16236836D01*
X3955967Y-16236836D02*
X3946444Y-16246360D01*
X3946444Y-16246360D02*
X3927396Y-16255884D01*
X3927396Y-16255884D02*
X3908348Y-16255884D01*
X3908348Y-16255884D02*
X3889301Y-16246360D01*
X3889301Y-16246360D02*
X3879777Y-16236836D01*
X3879777Y-16236836D02*
X3870253Y-16217788D01*
X3870253Y-16217788D02*
X3860729Y-16179693D01*
X3860729Y-16179693D02*
X3860729Y-16132074D01*
X3860729Y-16132074D02*
X3870253Y-16093979D01*
X3870253Y-16093979D02*
X3879777Y-16074931D01*
X3879777Y-16074931D02*
X3889301Y-16065408D01*
X3889301Y-16065408D02*
X3908348Y-16055884D01*
X4165491Y-16255884D02*
X4051206Y-16255884D01*
X4108348Y-16255884D02*
X4108348Y-16055884D01*
X4108348Y-16055884D02*
X4089301Y-16084455D01*
X4089301Y-16084455D02*
X4070253Y-16103503D01*
X4070253Y-16103503D02*
X4051206Y-16113027D01*
X4346444Y-16055884D02*
X4251206Y-16055884D01*
X4251206Y-16055884D02*
X4241682Y-16151122D01*
X4241682Y-16151122D02*
X4251206Y-16141598D01*
X4251206Y-16141598D02*
X4270253Y-16132074D01*
X4270253Y-16132074D02*
X4317872Y-16132074D01*
X4317872Y-16132074D02*
X4336920Y-16141598D01*
X4336920Y-16141598D02*
X4346444Y-16151122D01*
X4346444Y-16151122D02*
X4355968Y-16170169D01*
X4355968Y-16170169D02*
X4355968Y-16217788D01*
X4355968Y-16217788D02*
X4346444Y-16236836D01*
X4346444Y-16236836D02*
X4336920Y-16246360D01*
X4336920Y-16246360D02*
X4317872Y-16255884D01*
X4317872Y-16255884D02*
X4270253Y-16255884D01*
X4270253Y-16255884D02*
X4251206Y-16246360D01*
X4251206Y-16246360D02*
X4241682Y-16236836D01*
X4422634Y-16055884D02*
X4555968Y-16055884D01*
X4555968Y-16055884D02*
X4470253Y-16255884D01*
X4622634Y-16055884D02*
X4622634Y-16093979D01*
X4698825Y-16055884D02*
X4698825Y-16093979D01*
X4994063Y-16332074D02*
X4984539Y-16322550D01*
X4984539Y-16322550D02*
X4965491Y-16293979D01*
X4965491Y-16293979D02*
X4955968Y-16274931D01*
X4955968Y-16274931D02*
X4946444Y-16246360D01*
X4946444Y-16246360D02*
X4936920Y-16198741D01*
X4936920Y-16198741D02*
X4936920Y-16160646D01*
X4936920Y-16160646D02*
X4946444Y-16113027D01*
X4946444Y-16113027D02*
X4955968Y-16084455D01*
X4955968Y-16084455D02*
X4965491Y-16065408D01*
X4965491Y-16065408D02*
X4984539Y-16036836D01*
X4984539Y-16036836D02*
X4994063Y-16027312D01*
X5155968Y-16122550D02*
X5155968Y-16255884D01*
X5108349Y-16046360D02*
X5060730Y-16189217D01*
X5060730Y-16189217D02*
X5184539Y-16189217D01*
X5241682Y-16055884D02*
X5375015Y-16055884D01*
X5375015Y-16055884D02*
X5289301Y-16255884D01*
X5603587Y-16255884D02*
X5603587Y-16055884D01*
X5689301Y-16255884D02*
X5689301Y-16151122D01*
X5689301Y-16151122D02*
X5679777Y-16132074D01*
X5679777Y-16132074D02*
X5660730Y-16122550D01*
X5660730Y-16122550D02*
X5632158Y-16122550D01*
X5632158Y-16122550D02*
X5613110Y-16132074D01*
X5613110Y-16132074D02*
X5603587Y-16141598D01*
X5813110Y-16255884D02*
X5794063Y-16246360D01*
X5794063Y-16246360D02*
X5784539Y-16236836D01*
X5784539Y-16236836D02*
X5775015Y-16217788D01*
X5775015Y-16217788D02*
X5775015Y-16160646D01*
X5775015Y-16160646D02*
X5784539Y-16141598D01*
X5784539Y-16141598D02*
X5794063Y-16132074D01*
X5794063Y-16132074D02*
X5813110Y-16122550D01*
X5813110Y-16122550D02*
X5841682Y-16122550D01*
X5841682Y-16122550D02*
X5860730Y-16132074D01*
X5860730Y-16132074D02*
X5870253Y-16141598D01*
X5870253Y-16141598D02*
X5879777Y-16160646D01*
X5879777Y-16160646D02*
X5879777Y-16217788D01*
X5879777Y-16217788D02*
X5870253Y-16236836D01*
X5870253Y-16236836D02*
X5860730Y-16246360D01*
X5860730Y-16246360D02*
X5841682Y-16255884D01*
X5841682Y-16255884D02*
X5813110Y-16255884D01*
X5994063Y-16255884D02*
X5975015Y-16246360D01*
X5975015Y-16246360D02*
X5965491Y-16227312D01*
X5965491Y-16227312D02*
X5965491Y-16055884D01*
X6146444Y-16246360D02*
X6127396Y-16255884D01*
X6127396Y-16255884D02*
X6089301Y-16255884D01*
X6089301Y-16255884D02*
X6070253Y-16246360D01*
X6070253Y-16246360D02*
X6060730Y-16227312D01*
X6060730Y-16227312D02*
X6060730Y-16151122D01*
X6060730Y-16151122D02*
X6070253Y-16132074D01*
X6070253Y-16132074D02*
X6089301Y-16122550D01*
X6089301Y-16122550D02*
X6127396Y-16122550D01*
X6127396Y-16122550D02*
X6146444Y-16132074D01*
X6146444Y-16132074D02*
X6155968Y-16151122D01*
X6155968Y-16151122D02*
X6155968Y-16170169D01*
X6155968Y-16170169D02*
X6060730Y-16189217D01*
X6232158Y-16246360D02*
X6251206Y-16255884D01*
X6251206Y-16255884D02*
X6289301Y-16255884D01*
X6289301Y-16255884D02*
X6308349Y-16246360D01*
X6308349Y-16246360D02*
X6317872Y-16227312D01*
X6317872Y-16227312D02*
X6317872Y-16217788D01*
X6317872Y-16217788D02*
X6308349Y-16198741D01*
X6308349Y-16198741D02*
X6289301Y-16189217D01*
X6289301Y-16189217D02*
X6260730Y-16189217D01*
X6260730Y-16189217D02*
X6241682Y-16179693D01*
X6241682Y-16179693D02*
X6232158Y-16160646D01*
X6232158Y-16160646D02*
X6232158Y-16151122D01*
X6232158Y-16151122D02*
X6241682Y-16132074D01*
X6241682Y-16132074D02*
X6260730Y-16122550D01*
X6260730Y-16122550D02*
X6289301Y-16122550D01*
X6289301Y-16122550D02*
X6308349Y-16132074D01*
X6384539Y-16332074D02*
X6394063Y-16322550D01*
X6394063Y-16322550D02*
X6413111Y-16293979D01*
X6413111Y-16293979D02*
X6422634Y-16274931D01*
X6422634Y-16274931D02*
X6432158Y-16246360D01*
X6432158Y-16246360D02*
X6441682Y-16198741D01*
X6441682Y-16198741D02*
X6441682Y-16160646D01*
X6441682Y-16160646D02*
X6432158Y-16113027D01*
X6432158Y-16113027D02*
X6422634Y-16084455D01*
X6422634Y-16084455D02*
X6413111Y-16065408D01*
X6413111Y-16065408D02*
X6394063Y-16036836D01*
X6394063Y-16036836D02*
X6384539Y-16027312D01*
D13*
X1419000Y-16428400D02*
G75*
G03*
X1419000Y-16428400I-35000J0D01*
G01*
D11*
X1717872Y-16319884D02*
X1736920Y-16319884D01*
X1736920Y-16319884D02*
X1755967Y-16329408D01*
X1755967Y-16329408D02*
X1765491Y-16338931D01*
X1765491Y-16338931D02*
X1775015Y-16357979D01*
X1775015Y-16357979D02*
X1784539Y-16396074D01*
X1784539Y-16396074D02*
X1784539Y-16443693D01*
X1784539Y-16443693D02*
X1775015Y-16481788D01*
X1775015Y-16481788D02*
X1765491Y-16500836D01*
X1765491Y-16500836D02*
X1755967Y-16510360D01*
X1755967Y-16510360D02*
X1736920Y-16519884D01*
X1736920Y-16519884D02*
X1717872Y-16519884D01*
X1717872Y-16519884D02*
X1698824Y-16510360D01*
X1698824Y-16510360D02*
X1689301Y-16500836D01*
X1689301Y-16500836D02*
X1679777Y-16481788D01*
X1679777Y-16481788D02*
X1670253Y-16443693D01*
X1670253Y-16443693D02*
X1670253Y-16396074D01*
X1670253Y-16396074D02*
X1679777Y-16357979D01*
X1679777Y-16357979D02*
X1689301Y-16338931D01*
X1689301Y-16338931D02*
X1698824Y-16329408D01*
X1698824Y-16329408D02*
X1717872Y-16319884D01*
X1870253Y-16500836D02*
X1879777Y-16510360D01*
X1879777Y-16510360D02*
X1870253Y-16519884D01*
X1870253Y-16519884D02*
X1860729Y-16510360D01*
X1860729Y-16510360D02*
X1870253Y-16500836D01*
X1870253Y-16500836D02*
X1870253Y-16519884D01*
X1946443Y-16319884D02*
X2079777Y-16319884D01*
X2079777Y-16319884D02*
X1994062Y-16519884D01*
X2194063Y-16319884D02*
X2213110Y-16319884D01*
X2213110Y-16319884D02*
X2232158Y-16329408D01*
X2232158Y-16329408D02*
X2241682Y-16338931D01*
X2241682Y-16338931D02*
X2251205Y-16357979D01*
X2251205Y-16357979D02*
X2260729Y-16396074D01*
X2260729Y-16396074D02*
X2260729Y-16443693D01*
X2260729Y-16443693D02*
X2251205Y-16481788D01*
X2251205Y-16481788D02*
X2241682Y-16500836D01*
X2241682Y-16500836D02*
X2232158Y-16510360D01*
X2232158Y-16510360D02*
X2213110Y-16519884D01*
X2213110Y-16519884D02*
X2194063Y-16519884D01*
X2194063Y-16519884D02*
X2175015Y-16510360D01*
X2175015Y-16510360D02*
X2165491Y-16500836D01*
X2165491Y-16500836D02*
X2155967Y-16481788D01*
X2155967Y-16481788D02*
X2146444Y-16443693D01*
X2146444Y-16443693D02*
X2146444Y-16396074D01*
X2146444Y-16396074D02*
X2155967Y-16357979D01*
X2155967Y-16357979D02*
X2165491Y-16338931D01*
X2165491Y-16338931D02*
X2175015Y-16329408D01*
X2175015Y-16329408D02*
X2194063Y-16319884D01*
X2384539Y-16319884D02*
X2403586Y-16319884D01*
X2403586Y-16319884D02*
X2422634Y-16329408D01*
X2422634Y-16329408D02*
X2432158Y-16338931D01*
X2432158Y-16338931D02*
X2441682Y-16357979D01*
X2441682Y-16357979D02*
X2451205Y-16396074D01*
X2451205Y-16396074D02*
X2451205Y-16443693D01*
X2451205Y-16443693D02*
X2441682Y-16481788D01*
X2441682Y-16481788D02*
X2432158Y-16500836D01*
X2432158Y-16500836D02*
X2422634Y-16510360D01*
X2422634Y-16510360D02*
X2403586Y-16519884D01*
X2403586Y-16519884D02*
X2384539Y-16519884D01*
X2384539Y-16519884D02*
X2365491Y-16510360D01*
X2365491Y-16510360D02*
X2355967Y-16500836D01*
X2355967Y-16500836D02*
X2346444Y-16481788D01*
X2346444Y-16481788D02*
X2336920Y-16443693D01*
X2336920Y-16443693D02*
X2336920Y-16396074D01*
X2336920Y-16396074D02*
X2346444Y-16357979D01*
X2346444Y-16357979D02*
X2355967Y-16338931D01*
X2355967Y-16338931D02*
X2365491Y-16329408D01*
X2365491Y-16329408D02*
X2384539Y-16319884D01*
X2536920Y-16519884D02*
X2536920Y-16386550D01*
X2536920Y-16405598D02*
X2546444Y-16396074D01*
X2546444Y-16396074D02*
X2565491Y-16386550D01*
X2565491Y-16386550D02*
X2594063Y-16386550D01*
X2594063Y-16386550D02*
X2613110Y-16396074D01*
X2613110Y-16396074D02*
X2622634Y-16415122D01*
X2622634Y-16415122D02*
X2622634Y-16519884D01*
X2622634Y-16415122D02*
X2632158Y-16396074D01*
X2632158Y-16396074D02*
X2651205Y-16386550D01*
X2651205Y-16386550D02*
X2679777Y-16386550D01*
X2679777Y-16386550D02*
X2698825Y-16396074D01*
X2698825Y-16396074D02*
X2708348Y-16415122D01*
X2708348Y-16415122D02*
X2708348Y-16519884D01*
X2803586Y-16519884D02*
X2803586Y-16386550D01*
X2803586Y-16405598D02*
X2813110Y-16396074D01*
X2813110Y-16396074D02*
X2832158Y-16386550D01*
X2832158Y-16386550D02*
X2860729Y-16386550D01*
X2860729Y-16386550D02*
X2879777Y-16396074D01*
X2879777Y-16396074D02*
X2889301Y-16415122D01*
X2889301Y-16415122D02*
X2889301Y-16519884D01*
X2889301Y-16415122D02*
X2898824Y-16396074D01*
X2898824Y-16396074D02*
X2917872Y-16386550D01*
X2917872Y-16386550D02*
X2946443Y-16386550D01*
X2946443Y-16386550D02*
X2965491Y-16396074D01*
X2965491Y-16396074D02*
X2975015Y-16415122D01*
X2975015Y-16415122D02*
X2975015Y-16519884D01*
X3365491Y-16310360D02*
X3194063Y-16567503D01*
X3622634Y-16319884D02*
X3641682Y-16319884D01*
X3641682Y-16319884D02*
X3660729Y-16329408D01*
X3660729Y-16329408D02*
X3670253Y-16338931D01*
X3670253Y-16338931D02*
X3679777Y-16357979D01*
X3679777Y-16357979D02*
X3689301Y-16396074D01*
X3689301Y-16396074D02*
X3689301Y-16443693D01*
X3689301Y-16443693D02*
X3679777Y-16481788D01*
X3679777Y-16481788D02*
X3670253Y-16500836D01*
X3670253Y-16500836D02*
X3660729Y-16510360D01*
X3660729Y-16510360D02*
X3641682Y-16519884D01*
X3641682Y-16519884D02*
X3622634Y-16519884D01*
X3622634Y-16519884D02*
X3603586Y-16510360D01*
X3603586Y-16510360D02*
X3594063Y-16500836D01*
X3594063Y-16500836D02*
X3584539Y-16481788D01*
X3584539Y-16481788D02*
X3575015Y-16443693D01*
X3575015Y-16443693D02*
X3575015Y-16396074D01*
X3575015Y-16396074D02*
X3584539Y-16357979D01*
X3584539Y-16357979D02*
X3594063Y-16338931D01*
X3594063Y-16338931D02*
X3603586Y-16329408D01*
X3603586Y-16329408D02*
X3622634Y-16319884D01*
X3775015Y-16500836D02*
X3784539Y-16510360D01*
X3784539Y-16510360D02*
X3775015Y-16519884D01*
X3775015Y-16519884D02*
X3765491Y-16510360D01*
X3765491Y-16510360D02*
X3775015Y-16500836D01*
X3775015Y-16500836D02*
X3775015Y-16519884D01*
X3908348Y-16319884D02*
X3927396Y-16319884D01*
X3927396Y-16319884D02*
X3946444Y-16329408D01*
X3946444Y-16329408D02*
X3955967Y-16338931D01*
X3955967Y-16338931D02*
X3965491Y-16357979D01*
X3965491Y-16357979D02*
X3975015Y-16396074D01*
X3975015Y-16396074D02*
X3975015Y-16443693D01*
X3975015Y-16443693D02*
X3965491Y-16481788D01*
X3965491Y-16481788D02*
X3955967Y-16500836D01*
X3955967Y-16500836D02*
X3946444Y-16510360D01*
X3946444Y-16510360D02*
X3927396Y-16519884D01*
X3927396Y-16519884D02*
X3908348Y-16519884D01*
X3908348Y-16519884D02*
X3889301Y-16510360D01*
X3889301Y-16510360D02*
X3879777Y-16500836D01*
X3879777Y-16500836D02*
X3870253Y-16481788D01*
X3870253Y-16481788D02*
X3860729Y-16443693D01*
X3860729Y-16443693D02*
X3860729Y-16396074D01*
X3860729Y-16396074D02*
X3870253Y-16357979D01*
X3870253Y-16357979D02*
X3879777Y-16338931D01*
X3879777Y-16338931D02*
X3889301Y-16329408D01*
X3889301Y-16329408D02*
X3908348Y-16319884D01*
X4051206Y-16338931D02*
X4060729Y-16329408D01*
X4060729Y-16329408D02*
X4079777Y-16319884D01*
X4079777Y-16319884D02*
X4127396Y-16319884D01*
X4127396Y-16319884D02*
X4146444Y-16329408D01*
X4146444Y-16329408D02*
X4155967Y-16338931D01*
X4155967Y-16338931D02*
X4165491Y-16357979D01*
X4165491Y-16357979D02*
X4165491Y-16377027D01*
X4165491Y-16377027D02*
X4155967Y-16405598D01*
X4155967Y-16405598D02*
X4041682Y-16519884D01*
X4041682Y-16519884D02*
X4165491Y-16519884D01*
X4232158Y-16319884D02*
X4365491Y-16319884D01*
X4365491Y-16319884D02*
X4279777Y-16519884D01*
X4527396Y-16319884D02*
X4489301Y-16319884D01*
X4489301Y-16319884D02*
X4470253Y-16329408D01*
X4470253Y-16329408D02*
X4460729Y-16338931D01*
X4460729Y-16338931D02*
X4441682Y-16367503D01*
X4441682Y-16367503D02*
X4432158Y-16405598D01*
X4432158Y-16405598D02*
X4432158Y-16481788D01*
X4432158Y-16481788D02*
X4441682Y-16500836D01*
X4441682Y-16500836D02*
X4451206Y-16510360D01*
X4451206Y-16510360D02*
X4470253Y-16519884D01*
X4470253Y-16519884D02*
X4508349Y-16519884D01*
X4508349Y-16519884D02*
X4527396Y-16510360D01*
X4527396Y-16510360D02*
X4536920Y-16500836D01*
X4536920Y-16500836D02*
X4546444Y-16481788D01*
X4546444Y-16481788D02*
X4546444Y-16434169D01*
X4546444Y-16434169D02*
X4536920Y-16415122D01*
X4536920Y-16415122D02*
X4527396Y-16405598D01*
X4527396Y-16405598D02*
X4508349Y-16396074D01*
X4508349Y-16396074D02*
X4470253Y-16396074D01*
X4470253Y-16396074D02*
X4451206Y-16405598D01*
X4451206Y-16405598D02*
X4441682Y-16415122D01*
X4441682Y-16415122D02*
X4432158Y-16434169D01*
X4622634Y-16319884D02*
X4622634Y-16357979D01*
X4698825Y-16319884D02*
X4698825Y-16357979D01*
X4994063Y-16596074D02*
X4984539Y-16586550D01*
X4984539Y-16586550D02*
X4965491Y-16557979D01*
X4965491Y-16557979D02*
X4955968Y-16538931D01*
X4955968Y-16538931D02*
X4946444Y-16510360D01*
X4946444Y-16510360D02*
X4936920Y-16462741D01*
X4936920Y-16462741D02*
X4936920Y-16424646D01*
X4936920Y-16424646D02*
X4946444Y-16377027D01*
X4946444Y-16377027D02*
X4955968Y-16348455D01*
X4955968Y-16348455D02*
X4965491Y-16329408D01*
X4965491Y-16329408D02*
X4984539Y-16300836D01*
X4984539Y-16300836D02*
X4994063Y-16291312D01*
X5175015Y-16519884D02*
X5060730Y-16519884D01*
X5117872Y-16519884D02*
X5117872Y-16319884D01*
X5117872Y-16319884D02*
X5098825Y-16348455D01*
X5098825Y-16348455D02*
X5079777Y-16367503D01*
X5079777Y-16367503D02*
X5060730Y-16377027D01*
X5289301Y-16405598D02*
X5270253Y-16396074D01*
X5270253Y-16396074D02*
X5260730Y-16386550D01*
X5260730Y-16386550D02*
X5251206Y-16367503D01*
X5251206Y-16367503D02*
X5251206Y-16357979D01*
X5251206Y-16357979D02*
X5260730Y-16338931D01*
X5260730Y-16338931D02*
X5270253Y-16329408D01*
X5270253Y-16329408D02*
X5289301Y-16319884D01*
X5289301Y-16319884D02*
X5327396Y-16319884D01*
X5327396Y-16319884D02*
X5346444Y-16329408D01*
X5346444Y-16329408D02*
X5355968Y-16338931D01*
X5355968Y-16338931D02*
X5365491Y-16357979D01*
X5365491Y-16357979D02*
X5365491Y-16367503D01*
X5365491Y-16367503D02*
X5355968Y-16386550D01*
X5355968Y-16386550D02*
X5346444Y-16396074D01*
X5346444Y-16396074D02*
X5327396Y-16405598D01*
X5327396Y-16405598D02*
X5289301Y-16405598D01*
X5289301Y-16405598D02*
X5270253Y-16415122D01*
X5270253Y-16415122D02*
X5260730Y-16424646D01*
X5260730Y-16424646D02*
X5251206Y-16443693D01*
X5251206Y-16443693D02*
X5251206Y-16481788D01*
X5251206Y-16481788D02*
X5260730Y-16500836D01*
X5260730Y-16500836D02*
X5270253Y-16510360D01*
X5270253Y-16510360D02*
X5289301Y-16519884D01*
X5289301Y-16519884D02*
X5327396Y-16519884D01*
X5327396Y-16519884D02*
X5346444Y-16510360D01*
X5346444Y-16510360D02*
X5355968Y-16500836D01*
X5355968Y-16500836D02*
X5365491Y-16481788D01*
X5365491Y-16481788D02*
X5365491Y-16443693D01*
X5365491Y-16443693D02*
X5355968Y-16424646D01*
X5355968Y-16424646D02*
X5346444Y-16415122D01*
X5346444Y-16415122D02*
X5327396Y-16405598D01*
X5603587Y-16519884D02*
X5603587Y-16319884D01*
X5689301Y-16519884D02*
X5689301Y-16415122D01*
X5689301Y-16415122D02*
X5679777Y-16396074D01*
X5679777Y-16396074D02*
X5660730Y-16386550D01*
X5660730Y-16386550D02*
X5632158Y-16386550D01*
X5632158Y-16386550D02*
X5613110Y-16396074D01*
X5613110Y-16396074D02*
X5603587Y-16405598D01*
X5813110Y-16519884D02*
X5794063Y-16510360D01*
X5794063Y-16510360D02*
X5784539Y-16500836D01*
X5784539Y-16500836D02*
X5775015Y-16481788D01*
X5775015Y-16481788D02*
X5775015Y-16424646D01*
X5775015Y-16424646D02*
X5784539Y-16405598D01*
X5784539Y-16405598D02*
X5794063Y-16396074D01*
X5794063Y-16396074D02*
X5813110Y-16386550D01*
X5813110Y-16386550D02*
X5841682Y-16386550D01*
X5841682Y-16386550D02*
X5860730Y-16396074D01*
X5860730Y-16396074D02*
X5870253Y-16405598D01*
X5870253Y-16405598D02*
X5879777Y-16424646D01*
X5879777Y-16424646D02*
X5879777Y-16481788D01*
X5879777Y-16481788D02*
X5870253Y-16500836D01*
X5870253Y-16500836D02*
X5860730Y-16510360D01*
X5860730Y-16510360D02*
X5841682Y-16519884D01*
X5841682Y-16519884D02*
X5813110Y-16519884D01*
X5994063Y-16519884D02*
X5975015Y-16510360D01*
X5975015Y-16510360D02*
X5965491Y-16491312D01*
X5965491Y-16491312D02*
X5965491Y-16319884D01*
X6146444Y-16510360D02*
X6127396Y-16519884D01*
X6127396Y-16519884D02*
X6089301Y-16519884D01*
X6089301Y-16519884D02*
X6070253Y-16510360D01*
X6070253Y-16510360D02*
X6060730Y-16491312D01*
X6060730Y-16491312D02*
X6060730Y-16415122D01*
X6060730Y-16415122D02*
X6070253Y-16396074D01*
X6070253Y-16396074D02*
X6089301Y-16386550D01*
X6089301Y-16386550D02*
X6127396Y-16386550D01*
X6127396Y-16386550D02*
X6146444Y-16396074D01*
X6146444Y-16396074D02*
X6155968Y-16415122D01*
X6155968Y-16415122D02*
X6155968Y-16434169D01*
X6155968Y-16434169D02*
X6060730Y-16453217D01*
X6232158Y-16510360D02*
X6251206Y-16519884D01*
X6251206Y-16519884D02*
X6289301Y-16519884D01*
X6289301Y-16519884D02*
X6308349Y-16510360D01*
X6308349Y-16510360D02*
X6317872Y-16491312D01*
X6317872Y-16491312D02*
X6317872Y-16481788D01*
X6317872Y-16481788D02*
X6308349Y-16462741D01*
X6308349Y-16462741D02*
X6289301Y-16453217D01*
X6289301Y-16453217D02*
X6260730Y-16453217D01*
X6260730Y-16453217D02*
X6241682Y-16443693D01*
X6241682Y-16443693D02*
X6232158Y-16424646D01*
X6232158Y-16424646D02*
X6232158Y-16415122D01*
X6232158Y-16415122D02*
X6241682Y-16396074D01*
X6241682Y-16396074D02*
X6260730Y-16386550D01*
X6260730Y-16386550D02*
X6289301Y-16386550D01*
X6289301Y-16386550D02*
X6308349Y-16396074D01*
X6384539Y-16596074D02*
X6394063Y-16586550D01*
X6394063Y-16586550D02*
X6413111Y-16557979D01*
X6413111Y-16557979D02*
X6422634Y-16538931D01*
X6422634Y-16538931D02*
X6432158Y-16510360D01*
X6432158Y-16510360D02*
X6441682Y-16462741D01*
X6441682Y-16462741D02*
X6441682Y-16424646D01*
X6441682Y-16424646D02*
X6432158Y-16377027D01*
X6432158Y-16377027D02*
X6422634Y-16348455D01*
X6422634Y-16348455D02*
X6413111Y-16329408D01*
X6413111Y-16329408D02*
X6394063Y-16300836D01*
X6394063Y-16300836D02*
X6384539Y-16291312D01*
D14*
X1379000Y-16652400D02*
X1379000Y-16732400D01*
X1339000Y-16692400D02*
X1419000Y-16692400D01*
D11*
X1717872Y-16583884D02*
X1736920Y-16583884D01*
X1736920Y-16583884D02*
X1755967Y-16593408D01*
X1755967Y-16593408D02*
X1765491Y-16602931D01*
X1765491Y-16602931D02*
X1775015Y-16621979D01*
X1775015Y-16621979D02*
X1784539Y-16660074D01*
X1784539Y-16660074D02*
X1784539Y-16707693D01*
X1784539Y-16707693D02*
X1775015Y-16745788D01*
X1775015Y-16745788D02*
X1765491Y-16764836D01*
X1765491Y-16764836D02*
X1755967Y-16774360D01*
X1755967Y-16774360D02*
X1736920Y-16783884D01*
X1736920Y-16783884D02*
X1717872Y-16783884D01*
X1717872Y-16783884D02*
X1698824Y-16774360D01*
X1698824Y-16774360D02*
X1689301Y-16764836D01*
X1689301Y-16764836D02*
X1679777Y-16745788D01*
X1679777Y-16745788D02*
X1670253Y-16707693D01*
X1670253Y-16707693D02*
X1670253Y-16660074D01*
X1670253Y-16660074D02*
X1679777Y-16621979D01*
X1679777Y-16621979D02*
X1689301Y-16602931D01*
X1689301Y-16602931D02*
X1698824Y-16593408D01*
X1698824Y-16593408D02*
X1717872Y-16583884D01*
X1870253Y-16764836D02*
X1879777Y-16774360D01*
X1879777Y-16774360D02*
X1870253Y-16783884D01*
X1870253Y-16783884D02*
X1860729Y-16774360D01*
X1860729Y-16774360D02*
X1870253Y-16764836D01*
X1870253Y-16764836D02*
X1870253Y-16783884D01*
X1994062Y-16669598D02*
X1975015Y-16660074D01*
X1975015Y-16660074D02*
X1965491Y-16650550D01*
X1965491Y-16650550D02*
X1955967Y-16631503D01*
X1955967Y-16631503D02*
X1955967Y-16621979D01*
X1955967Y-16621979D02*
X1965491Y-16602931D01*
X1965491Y-16602931D02*
X1975015Y-16593408D01*
X1975015Y-16593408D02*
X1994062Y-16583884D01*
X1994062Y-16583884D02*
X2032158Y-16583884D01*
X2032158Y-16583884D02*
X2051205Y-16593408D01*
X2051205Y-16593408D02*
X2060729Y-16602931D01*
X2060729Y-16602931D02*
X2070253Y-16621979D01*
X2070253Y-16621979D02*
X2070253Y-16631503D01*
X2070253Y-16631503D02*
X2060729Y-16650550D01*
X2060729Y-16650550D02*
X2051205Y-16660074D01*
X2051205Y-16660074D02*
X2032158Y-16669598D01*
X2032158Y-16669598D02*
X1994062Y-16669598D01*
X1994062Y-16669598D02*
X1975015Y-16679122D01*
X1975015Y-16679122D02*
X1965491Y-16688646D01*
X1965491Y-16688646D02*
X1955967Y-16707693D01*
X1955967Y-16707693D02*
X1955967Y-16745788D01*
X1955967Y-16745788D02*
X1965491Y-16764836D01*
X1965491Y-16764836D02*
X1975015Y-16774360D01*
X1975015Y-16774360D02*
X1994062Y-16783884D01*
X1994062Y-16783884D02*
X2032158Y-16783884D01*
X2032158Y-16783884D02*
X2051205Y-16774360D01*
X2051205Y-16774360D02*
X2060729Y-16764836D01*
X2060729Y-16764836D02*
X2070253Y-16745788D01*
X2070253Y-16745788D02*
X2070253Y-16707693D01*
X2070253Y-16707693D02*
X2060729Y-16688646D01*
X2060729Y-16688646D02*
X2051205Y-16679122D01*
X2051205Y-16679122D02*
X2032158Y-16669598D01*
X2194063Y-16583884D02*
X2213110Y-16583884D01*
X2213110Y-16583884D02*
X2232158Y-16593408D01*
X2232158Y-16593408D02*
X2241682Y-16602931D01*
X2241682Y-16602931D02*
X2251205Y-16621979D01*
X2251205Y-16621979D02*
X2260729Y-16660074D01*
X2260729Y-16660074D02*
X2260729Y-16707693D01*
X2260729Y-16707693D02*
X2251205Y-16745788D01*
X2251205Y-16745788D02*
X2241682Y-16764836D01*
X2241682Y-16764836D02*
X2232158Y-16774360D01*
X2232158Y-16774360D02*
X2213110Y-16783884D01*
X2213110Y-16783884D02*
X2194063Y-16783884D01*
X2194063Y-16783884D02*
X2175015Y-16774360D01*
X2175015Y-16774360D02*
X2165491Y-16764836D01*
X2165491Y-16764836D02*
X2155967Y-16745788D01*
X2155967Y-16745788D02*
X2146444Y-16707693D01*
X2146444Y-16707693D02*
X2146444Y-16660074D01*
X2146444Y-16660074D02*
X2155967Y-16621979D01*
X2155967Y-16621979D02*
X2165491Y-16602931D01*
X2165491Y-16602931D02*
X2175015Y-16593408D01*
X2175015Y-16593408D02*
X2194063Y-16583884D01*
X2384539Y-16583884D02*
X2403586Y-16583884D01*
X2403586Y-16583884D02*
X2422634Y-16593408D01*
X2422634Y-16593408D02*
X2432158Y-16602931D01*
X2432158Y-16602931D02*
X2441682Y-16621979D01*
X2441682Y-16621979D02*
X2451205Y-16660074D01*
X2451205Y-16660074D02*
X2451205Y-16707693D01*
X2451205Y-16707693D02*
X2441682Y-16745788D01*
X2441682Y-16745788D02*
X2432158Y-16764836D01*
X2432158Y-16764836D02*
X2422634Y-16774360D01*
X2422634Y-16774360D02*
X2403586Y-16783884D01*
X2403586Y-16783884D02*
X2384539Y-16783884D01*
X2384539Y-16783884D02*
X2365491Y-16774360D01*
X2365491Y-16774360D02*
X2355967Y-16764836D01*
X2355967Y-16764836D02*
X2346444Y-16745788D01*
X2346444Y-16745788D02*
X2336920Y-16707693D01*
X2336920Y-16707693D02*
X2336920Y-16660074D01*
X2336920Y-16660074D02*
X2346444Y-16621979D01*
X2346444Y-16621979D02*
X2355967Y-16602931D01*
X2355967Y-16602931D02*
X2365491Y-16593408D01*
X2365491Y-16593408D02*
X2384539Y-16583884D01*
X2536920Y-16783884D02*
X2536920Y-16650550D01*
X2536920Y-16669598D02*
X2546444Y-16660074D01*
X2546444Y-16660074D02*
X2565491Y-16650550D01*
X2565491Y-16650550D02*
X2594063Y-16650550D01*
X2594063Y-16650550D02*
X2613110Y-16660074D01*
X2613110Y-16660074D02*
X2622634Y-16679122D01*
X2622634Y-16679122D02*
X2622634Y-16783884D01*
X2622634Y-16679122D02*
X2632158Y-16660074D01*
X2632158Y-16660074D02*
X2651205Y-16650550D01*
X2651205Y-16650550D02*
X2679777Y-16650550D01*
X2679777Y-16650550D02*
X2698825Y-16660074D01*
X2698825Y-16660074D02*
X2708348Y-16679122D01*
X2708348Y-16679122D02*
X2708348Y-16783884D01*
X2803586Y-16783884D02*
X2803586Y-16650550D01*
X2803586Y-16669598D02*
X2813110Y-16660074D01*
X2813110Y-16660074D02*
X2832158Y-16650550D01*
X2832158Y-16650550D02*
X2860729Y-16650550D01*
X2860729Y-16650550D02*
X2879777Y-16660074D01*
X2879777Y-16660074D02*
X2889301Y-16679122D01*
X2889301Y-16679122D02*
X2889301Y-16783884D01*
X2889301Y-16679122D02*
X2898824Y-16660074D01*
X2898824Y-16660074D02*
X2917872Y-16650550D01*
X2917872Y-16650550D02*
X2946443Y-16650550D01*
X2946443Y-16650550D02*
X2965491Y-16660074D01*
X2965491Y-16660074D02*
X2975015Y-16679122D01*
X2975015Y-16679122D02*
X2975015Y-16783884D01*
X3365491Y-16574360D02*
X3194063Y-16831503D01*
X3622634Y-16583884D02*
X3641682Y-16583884D01*
X3641682Y-16583884D02*
X3660729Y-16593408D01*
X3660729Y-16593408D02*
X3670253Y-16602931D01*
X3670253Y-16602931D02*
X3679777Y-16621979D01*
X3679777Y-16621979D02*
X3689301Y-16660074D01*
X3689301Y-16660074D02*
X3689301Y-16707693D01*
X3689301Y-16707693D02*
X3679777Y-16745788D01*
X3679777Y-16745788D02*
X3670253Y-16764836D01*
X3670253Y-16764836D02*
X3660729Y-16774360D01*
X3660729Y-16774360D02*
X3641682Y-16783884D01*
X3641682Y-16783884D02*
X3622634Y-16783884D01*
X3622634Y-16783884D02*
X3603586Y-16774360D01*
X3603586Y-16774360D02*
X3594063Y-16764836D01*
X3594063Y-16764836D02*
X3584539Y-16745788D01*
X3584539Y-16745788D02*
X3575015Y-16707693D01*
X3575015Y-16707693D02*
X3575015Y-16660074D01*
X3575015Y-16660074D02*
X3584539Y-16621979D01*
X3584539Y-16621979D02*
X3594063Y-16602931D01*
X3594063Y-16602931D02*
X3603586Y-16593408D01*
X3603586Y-16593408D02*
X3622634Y-16583884D01*
X3775015Y-16764836D02*
X3784539Y-16774360D01*
X3784539Y-16774360D02*
X3775015Y-16783884D01*
X3775015Y-16783884D02*
X3765491Y-16774360D01*
X3765491Y-16774360D02*
X3775015Y-16764836D01*
X3775015Y-16764836D02*
X3775015Y-16783884D01*
X3908348Y-16583884D02*
X3927396Y-16583884D01*
X3927396Y-16583884D02*
X3946444Y-16593408D01*
X3946444Y-16593408D02*
X3955967Y-16602931D01*
X3955967Y-16602931D02*
X3965491Y-16621979D01*
X3965491Y-16621979D02*
X3975015Y-16660074D01*
X3975015Y-16660074D02*
X3975015Y-16707693D01*
X3975015Y-16707693D02*
X3965491Y-16745788D01*
X3965491Y-16745788D02*
X3955967Y-16764836D01*
X3955967Y-16764836D02*
X3946444Y-16774360D01*
X3946444Y-16774360D02*
X3927396Y-16783884D01*
X3927396Y-16783884D02*
X3908348Y-16783884D01*
X3908348Y-16783884D02*
X3889301Y-16774360D01*
X3889301Y-16774360D02*
X3879777Y-16764836D01*
X3879777Y-16764836D02*
X3870253Y-16745788D01*
X3870253Y-16745788D02*
X3860729Y-16707693D01*
X3860729Y-16707693D02*
X3860729Y-16660074D01*
X3860729Y-16660074D02*
X3870253Y-16621979D01*
X3870253Y-16621979D02*
X3879777Y-16602931D01*
X3879777Y-16602931D02*
X3889301Y-16593408D01*
X3889301Y-16593408D02*
X3908348Y-16583884D01*
X4041682Y-16583884D02*
X4165491Y-16583884D01*
X4165491Y-16583884D02*
X4098825Y-16660074D01*
X4098825Y-16660074D02*
X4127396Y-16660074D01*
X4127396Y-16660074D02*
X4146444Y-16669598D01*
X4146444Y-16669598D02*
X4155967Y-16679122D01*
X4155967Y-16679122D02*
X4165491Y-16698169D01*
X4165491Y-16698169D02*
X4165491Y-16745788D01*
X4165491Y-16745788D02*
X4155967Y-16764836D01*
X4155967Y-16764836D02*
X4146444Y-16774360D01*
X4146444Y-16774360D02*
X4127396Y-16783884D01*
X4127396Y-16783884D02*
X4070253Y-16783884D01*
X4070253Y-16783884D02*
X4051206Y-16774360D01*
X4051206Y-16774360D02*
X4041682Y-16764836D01*
X4355968Y-16783884D02*
X4241682Y-16783884D01*
X4298825Y-16783884D02*
X4298825Y-16583884D01*
X4298825Y-16583884D02*
X4279777Y-16612455D01*
X4279777Y-16612455D02*
X4260729Y-16631503D01*
X4260729Y-16631503D02*
X4241682Y-16641027D01*
X4536920Y-16583884D02*
X4441682Y-16583884D01*
X4441682Y-16583884D02*
X4432158Y-16679122D01*
X4432158Y-16679122D02*
X4441682Y-16669598D01*
X4441682Y-16669598D02*
X4460729Y-16660074D01*
X4460729Y-16660074D02*
X4508349Y-16660074D01*
X4508349Y-16660074D02*
X4527396Y-16669598D01*
X4527396Y-16669598D02*
X4536920Y-16679122D01*
X4536920Y-16679122D02*
X4546444Y-16698169D01*
X4546444Y-16698169D02*
X4546444Y-16745788D01*
X4546444Y-16745788D02*
X4536920Y-16764836D01*
X4536920Y-16764836D02*
X4527396Y-16774360D01*
X4527396Y-16774360D02*
X4508349Y-16783884D01*
X4508349Y-16783884D02*
X4460729Y-16783884D01*
X4460729Y-16783884D02*
X4441682Y-16774360D01*
X4441682Y-16774360D02*
X4432158Y-16764836D01*
X4622634Y-16583884D02*
X4622634Y-16621979D01*
X4698825Y-16583884D02*
X4698825Y-16621979D01*
X4994063Y-16860074D02*
X4984539Y-16850550D01*
X4984539Y-16850550D02*
X4965491Y-16821979D01*
X4965491Y-16821979D02*
X4955968Y-16802931D01*
X4955968Y-16802931D02*
X4946444Y-16774360D01*
X4946444Y-16774360D02*
X4936920Y-16726741D01*
X4936920Y-16726741D02*
X4936920Y-16688646D01*
X4936920Y-16688646D02*
X4946444Y-16641027D01*
X4946444Y-16641027D02*
X4955968Y-16612455D01*
X4955968Y-16612455D02*
X4965491Y-16593408D01*
X4965491Y-16593408D02*
X4984539Y-16564836D01*
X4984539Y-16564836D02*
X4994063Y-16555312D01*
X5060730Y-16602931D02*
X5070253Y-16593408D01*
X5070253Y-16593408D02*
X5089301Y-16583884D01*
X5089301Y-16583884D02*
X5136920Y-16583884D01*
X5136920Y-16583884D02*
X5155968Y-16593408D01*
X5155968Y-16593408D02*
X5165491Y-16602931D01*
X5165491Y-16602931D02*
X5175015Y-16621979D01*
X5175015Y-16621979D02*
X5175015Y-16641027D01*
X5175015Y-16641027D02*
X5165491Y-16669598D01*
X5165491Y-16669598D02*
X5051206Y-16783884D01*
X5051206Y-16783884D02*
X5175015Y-16783884D01*
X5251206Y-16602931D02*
X5260730Y-16593408D01*
X5260730Y-16593408D02*
X5279777Y-16583884D01*
X5279777Y-16583884D02*
X5327396Y-16583884D01*
X5327396Y-16583884D02*
X5346444Y-16593408D01*
X5346444Y-16593408D02*
X5355968Y-16602931D01*
X5355968Y-16602931D02*
X5365491Y-16621979D01*
X5365491Y-16621979D02*
X5365491Y-16641027D01*
X5365491Y-16641027D02*
X5355968Y-16669598D01*
X5355968Y-16669598D02*
X5241682Y-16783884D01*
X5241682Y-16783884D02*
X5365491Y-16783884D01*
X5432158Y-16583884D02*
X5565491Y-16583884D01*
X5565491Y-16583884D02*
X5479777Y-16783884D01*
X5794063Y-16783884D02*
X5794063Y-16583884D01*
X5879777Y-16783884D02*
X5879777Y-16679122D01*
X5879777Y-16679122D02*
X5870253Y-16660074D01*
X5870253Y-16660074D02*
X5851206Y-16650550D01*
X5851206Y-16650550D02*
X5822634Y-16650550D01*
X5822634Y-16650550D02*
X5803587Y-16660074D01*
X5803587Y-16660074D02*
X5794063Y-16669598D01*
X6003587Y-16783884D02*
X5984539Y-16774360D01*
X5984539Y-16774360D02*
X5975015Y-16764836D01*
X5975015Y-16764836D02*
X5965491Y-16745788D01*
X5965491Y-16745788D02*
X5965491Y-16688646D01*
X5965491Y-16688646D02*
X5975015Y-16669598D01*
X5975015Y-16669598D02*
X5984539Y-16660074D01*
X5984539Y-16660074D02*
X6003587Y-16650550D01*
X6003587Y-16650550D02*
X6032158Y-16650550D01*
X6032158Y-16650550D02*
X6051206Y-16660074D01*
X6051206Y-16660074D02*
X6060730Y-16669598D01*
X6060730Y-16669598D02*
X6070253Y-16688646D01*
X6070253Y-16688646D02*
X6070253Y-16745788D01*
X6070253Y-16745788D02*
X6060730Y-16764836D01*
X6060730Y-16764836D02*
X6051206Y-16774360D01*
X6051206Y-16774360D02*
X6032158Y-16783884D01*
X6032158Y-16783884D02*
X6003587Y-16783884D01*
X6184539Y-16783884D02*
X6165491Y-16774360D01*
X6165491Y-16774360D02*
X6155968Y-16755312D01*
X6155968Y-16755312D02*
X6155968Y-16583884D01*
X6336920Y-16774360D02*
X6317872Y-16783884D01*
X6317872Y-16783884D02*
X6279777Y-16783884D01*
X6279777Y-16783884D02*
X6260730Y-16774360D01*
X6260730Y-16774360D02*
X6251206Y-16755312D01*
X6251206Y-16755312D02*
X6251206Y-16679122D01*
X6251206Y-16679122D02*
X6260730Y-16660074D01*
X6260730Y-16660074D02*
X6279777Y-16650550D01*
X6279777Y-16650550D02*
X6317872Y-16650550D01*
X6317872Y-16650550D02*
X6336920Y-16660074D01*
X6336920Y-16660074D02*
X6346444Y-16679122D01*
X6346444Y-16679122D02*
X6346444Y-16698169D01*
X6346444Y-16698169D02*
X6251206Y-16717217D01*
X6422634Y-16774360D02*
X6441682Y-16783884D01*
X6441682Y-16783884D02*
X6479777Y-16783884D01*
X6479777Y-16783884D02*
X6498825Y-16774360D01*
X6498825Y-16774360D02*
X6508349Y-16755312D01*
X6508349Y-16755312D02*
X6508349Y-16745788D01*
X6508349Y-16745788D02*
X6498825Y-16726741D01*
X6498825Y-16726741D02*
X6479777Y-16717217D01*
X6479777Y-16717217D02*
X6451206Y-16717217D01*
X6451206Y-16717217D02*
X6432158Y-16707693D01*
X6432158Y-16707693D02*
X6422634Y-16688646D01*
X6422634Y-16688646D02*
X6422634Y-16679122D01*
X6422634Y-16679122D02*
X6432158Y-16660074D01*
X6432158Y-16660074D02*
X6451206Y-16650550D01*
X6451206Y-16650550D02*
X6479777Y-16650550D01*
X6479777Y-16650550D02*
X6498825Y-16660074D01*
X6575015Y-16860074D02*
X6584539Y-16850550D01*
X6584539Y-16850550D02*
X6603587Y-16821979D01*
X6603587Y-16821979D02*
X6613111Y-16802931D01*
X6613111Y-16802931D02*
X6622634Y-16774360D01*
X6622634Y-16774360D02*
X6632158Y-16726741D01*
X6632158Y-16726741D02*
X6632158Y-16688646D01*
X6632158Y-16688646D02*
X6622634Y-16641027D01*
X6622634Y-16641027D02*
X6613111Y-16612455D01*
X6613111Y-16612455D02*
X6603587Y-16593408D01*
X6603587Y-16593408D02*
X6584539Y-16564836D01*
X6584539Y-16564836D02*
X6575015Y-16555312D01*
D15*
X1405820Y-16988220D02*
X1405820Y-16924580D01*
X1342180Y-16924580D01*
X1342180Y-16988220D01*
X1405820Y-16988220D01*
D11*
X1717872Y-16847884D02*
X1736920Y-16847884D01*
X1736920Y-16847884D02*
X1755967Y-16857408D01*
X1755967Y-16857408D02*
X1765491Y-16866931D01*
X1765491Y-16866931D02*
X1775015Y-16885979D01*
X1775015Y-16885979D02*
X1784539Y-16924074D01*
X1784539Y-16924074D02*
X1784539Y-16971693D01*
X1784539Y-16971693D02*
X1775015Y-17009789D01*
X1775015Y-17009789D02*
X1765491Y-17028836D01*
X1765491Y-17028836D02*
X1755967Y-17038360D01*
X1755967Y-17038360D02*
X1736920Y-17047884D01*
X1736920Y-17047884D02*
X1717872Y-17047884D01*
X1717872Y-17047884D02*
X1698824Y-17038360D01*
X1698824Y-17038360D02*
X1689301Y-17028836D01*
X1689301Y-17028836D02*
X1679777Y-17009789D01*
X1679777Y-17009789D02*
X1670253Y-16971693D01*
X1670253Y-16971693D02*
X1670253Y-16924074D01*
X1670253Y-16924074D02*
X1679777Y-16885979D01*
X1679777Y-16885979D02*
X1689301Y-16866931D01*
X1689301Y-16866931D02*
X1698824Y-16857408D01*
X1698824Y-16857408D02*
X1717872Y-16847884D01*
X1870253Y-17028836D02*
X1879777Y-17038360D01*
X1879777Y-17038360D02*
X1870253Y-17047884D01*
X1870253Y-17047884D02*
X1860729Y-17038360D01*
X1860729Y-17038360D02*
X1870253Y-17028836D01*
X1870253Y-17028836D02*
X1870253Y-17047884D01*
X1975015Y-17047884D02*
X2013110Y-17047884D01*
X2013110Y-17047884D02*
X2032158Y-17038360D01*
X2032158Y-17038360D02*
X2041682Y-17028836D01*
X2041682Y-17028836D02*
X2060729Y-17000265D01*
X2060729Y-17000265D02*
X2070253Y-16962170D01*
X2070253Y-16962170D02*
X2070253Y-16885979D01*
X2070253Y-16885979D02*
X2060729Y-16866931D01*
X2060729Y-16866931D02*
X2051205Y-16857408D01*
X2051205Y-16857408D02*
X2032158Y-16847884D01*
X2032158Y-16847884D02*
X1994062Y-16847884D01*
X1994062Y-16847884D02*
X1975015Y-16857408D01*
X1975015Y-16857408D02*
X1965491Y-16866931D01*
X1965491Y-16866931D02*
X1955967Y-16885979D01*
X1955967Y-16885979D02*
X1955967Y-16933598D01*
X1955967Y-16933598D02*
X1965491Y-16952646D01*
X1965491Y-16952646D02*
X1975015Y-16962170D01*
X1975015Y-16962170D02*
X1994062Y-16971693D01*
X1994062Y-16971693D02*
X2032158Y-16971693D01*
X2032158Y-16971693D02*
X2051205Y-16962170D01*
X2051205Y-16962170D02*
X2060729Y-16952646D01*
X2060729Y-16952646D02*
X2070253Y-16933598D01*
X2194063Y-16847884D02*
X2213110Y-16847884D01*
X2213110Y-16847884D02*
X2232158Y-16857408D01*
X2232158Y-16857408D02*
X2241682Y-16866931D01*
X2241682Y-16866931D02*
X2251205Y-16885979D01*
X2251205Y-16885979D02*
X2260729Y-16924074D01*
X2260729Y-16924074D02*
X2260729Y-16971693D01*
X2260729Y-16971693D02*
X2251205Y-17009789D01*
X2251205Y-17009789D02*
X2241682Y-17028836D01*
X2241682Y-17028836D02*
X2232158Y-17038360D01*
X2232158Y-17038360D02*
X2213110Y-17047884D01*
X2213110Y-17047884D02*
X2194063Y-17047884D01*
X2194063Y-17047884D02*
X2175015Y-17038360D01*
X2175015Y-17038360D02*
X2165491Y-17028836D01*
X2165491Y-17028836D02*
X2155967Y-17009789D01*
X2155967Y-17009789D02*
X2146444Y-16971693D01*
X2146444Y-16971693D02*
X2146444Y-16924074D01*
X2146444Y-16924074D02*
X2155967Y-16885979D01*
X2155967Y-16885979D02*
X2165491Y-16866931D01*
X2165491Y-16866931D02*
X2175015Y-16857408D01*
X2175015Y-16857408D02*
X2194063Y-16847884D01*
X2384539Y-16847884D02*
X2403586Y-16847884D01*
X2403586Y-16847884D02*
X2422634Y-16857408D01*
X2422634Y-16857408D02*
X2432158Y-16866931D01*
X2432158Y-16866931D02*
X2441682Y-16885979D01*
X2441682Y-16885979D02*
X2451205Y-16924074D01*
X2451205Y-16924074D02*
X2451205Y-16971693D01*
X2451205Y-16971693D02*
X2441682Y-17009789D01*
X2441682Y-17009789D02*
X2432158Y-17028836D01*
X2432158Y-17028836D02*
X2422634Y-17038360D01*
X2422634Y-17038360D02*
X2403586Y-17047884D01*
X2403586Y-17047884D02*
X2384539Y-17047884D01*
X2384539Y-17047884D02*
X2365491Y-17038360D01*
X2365491Y-17038360D02*
X2355967Y-17028836D01*
X2355967Y-17028836D02*
X2346444Y-17009789D01*
X2346444Y-17009789D02*
X2336920Y-16971693D01*
X2336920Y-16971693D02*
X2336920Y-16924074D01*
X2336920Y-16924074D02*
X2346444Y-16885979D01*
X2346444Y-16885979D02*
X2355967Y-16866931D01*
X2355967Y-16866931D02*
X2365491Y-16857408D01*
X2365491Y-16857408D02*
X2384539Y-16847884D01*
X2536920Y-17047884D02*
X2536920Y-16914550D01*
X2536920Y-16933598D02*
X2546444Y-16924074D01*
X2546444Y-16924074D02*
X2565491Y-16914550D01*
X2565491Y-16914550D02*
X2594063Y-16914550D01*
X2594063Y-16914550D02*
X2613110Y-16924074D01*
X2613110Y-16924074D02*
X2622634Y-16943122D01*
X2622634Y-16943122D02*
X2622634Y-17047884D01*
X2622634Y-16943122D02*
X2632158Y-16924074D01*
X2632158Y-16924074D02*
X2651205Y-16914550D01*
X2651205Y-16914550D02*
X2679777Y-16914550D01*
X2679777Y-16914550D02*
X2698825Y-16924074D01*
X2698825Y-16924074D02*
X2708348Y-16943122D01*
X2708348Y-16943122D02*
X2708348Y-17047884D01*
X2803586Y-17047884D02*
X2803586Y-16914550D01*
X2803586Y-16933598D02*
X2813110Y-16924074D01*
X2813110Y-16924074D02*
X2832158Y-16914550D01*
X2832158Y-16914550D02*
X2860729Y-16914550D01*
X2860729Y-16914550D02*
X2879777Y-16924074D01*
X2879777Y-16924074D02*
X2889301Y-16943122D01*
X2889301Y-16943122D02*
X2889301Y-17047884D01*
X2889301Y-16943122D02*
X2898824Y-16924074D01*
X2898824Y-16924074D02*
X2917872Y-16914550D01*
X2917872Y-16914550D02*
X2946443Y-16914550D01*
X2946443Y-16914550D02*
X2965491Y-16924074D01*
X2965491Y-16924074D02*
X2975015Y-16943122D01*
X2975015Y-16943122D02*
X2975015Y-17047884D01*
X3365491Y-16838360D02*
X3194063Y-17095503D01*
X3622634Y-16847884D02*
X3641682Y-16847884D01*
X3641682Y-16847884D02*
X3660729Y-16857408D01*
X3660729Y-16857408D02*
X3670253Y-16866931D01*
X3670253Y-16866931D02*
X3679777Y-16885979D01*
X3679777Y-16885979D02*
X3689301Y-16924074D01*
X3689301Y-16924074D02*
X3689301Y-16971693D01*
X3689301Y-16971693D02*
X3679777Y-17009789D01*
X3679777Y-17009789D02*
X3670253Y-17028836D01*
X3670253Y-17028836D02*
X3660729Y-17038360D01*
X3660729Y-17038360D02*
X3641682Y-17047884D01*
X3641682Y-17047884D02*
X3622634Y-17047884D01*
X3622634Y-17047884D02*
X3603586Y-17038360D01*
X3603586Y-17038360D02*
X3594063Y-17028836D01*
X3594063Y-17028836D02*
X3584539Y-17009789D01*
X3584539Y-17009789D02*
X3575015Y-16971693D01*
X3575015Y-16971693D02*
X3575015Y-16924074D01*
X3575015Y-16924074D02*
X3584539Y-16885979D01*
X3584539Y-16885979D02*
X3594063Y-16866931D01*
X3594063Y-16866931D02*
X3603586Y-16857408D01*
X3603586Y-16857408D02*
X3622634Y-16847884D01*
X3775015Y-17028836D02*
X3784539Y-17038360D01*
X3784539Y-17038360D02*
X3775015Y-17047884D01*
X3775015Y-17047884D02*
X3765491Y-17038360D01*
X3765491Y-17038360D02*
X3775015Y-17028836D01*
X3775015Y-17028836D02*
X3775015Y-17047884D01*
X3908348Y-16847884D02*
X3927396Y-16847884D01*
X3927396Y-16847884D02*
X3946444Y-16857408D01*
X3946444Y-16857408D02*
X3955967Y-16866931D01*
X3955967Y-16866931D02*
X3965491Y-16885979D01*
X3965491Y-16885979D02*
X3975015Y-16924074D01*
X3975015Y-16924074D02*
X3975015Y-16971693D01*
X3975015Y-16971693D02*
X3965491Y-17009789D01*
X3965491Y-17009789D02*
X3955967Y-17028836D01*
X3955967Y-17028836D02*
X3946444Y-17038360D01*
X3946444Y-17038360D02*
X3927396Y-17047884D01*
X3927396Y-17047884D02*
X3908348Y-17047884D01*
X3908348Y-17047884D02*
X3889301Y-17038360D01*
X3889301Y-17038360D02*
X3879777Y-17028836D01*
X3879777Y-17028836D02*
X3870253Y-17009789D01*
X3870253Y-17009789D02*
X3860729Y-16971693D01*
X3860729Y-16971693D02*
X3860729Y-16924074D01*
X3860729Y-16924074D02*
X3870253Y-16885979D01*
X3870253Y-16885979D02*
X3879777Y-16866931D01*
X3879777Y-16866931D02*
X3889301Y-16857408D01*
X3889301Y-16857408D02*
X3908348Y-16847884D01*
X4041682Y-16847884D02*
X4165491Y-16847884D01*
X4165491Y-16847884D02*
X4098825Y-16924074D01*
X4098825Y-16924074D02*
X4127396Y-16924074D01*
X4127396Y-16924074D02*
X4146444Y-16933598D01*
X4146444Y-16933598D02*
X4155967Y-16943122D01*
X4155967Y-16943122D02*
X4165491Y-16962170D01*
X4165491Y-16962170D02*
X4165491Y-17009789D01*
X4165491Y-17009789D02*
X4155967Y-17028836D01*
X4155967Y-17028836D02*
X4146444Y-17038360D01*
X4146444Y-17038360D02*
X4127396Y-17047884D01*
X4127396Y-17047884D02*
X4070253Y-17047884D01*
X4070253Y-17047884D02*
X4051206Y-17038360D01*
X4051206Y-17038360D02*
X4041682Y-17028836D01*
X4346444Y-16847884D02*
X4251206Y-16847884D01*
X4251206Y-16847884D02*
X4241682Y-16943122D01*
X4241682Y-16943122D02*
X4251206Y-16933598D01*
X4251206Y-16933598D02*
X4270253Y-16924074D01*
X4270253Y-16924074D02*
X4317872Y-16924074D01*
X4317872Y-16924074D02*
X4336920Y-16933598D01*
X4336920Y-16933598D02*
X4346444Y-16943122D01*
X4346444Y-16943122D02*
X4355968Y-16962170D01*
X4355968Y-16962170D02*
X4355968Y-17009789D01*
X4355968Y-17009789D02*
X4346444Y-17028836D01*
X4346444Y-17028836D02*
X4336920Y-17038360D01*
X4336920Y-17038360D02*
X4317872Y-17047884D01*
X4317872Y-17047884D02*
X4270253Y-17047884D01*
X4270253Y-17047884D02*
X4251206Y-17038360D01*
X4251206Y-17038360D02*
X4241682Y-17028836D01*
X4527396Y-16914550D02*
X4527396Y-17047884D01*
X4479777Y-16838360D02*
X4432158Y-16981217D01*
X4432158Y-16981217D02*
X4555968Y-16981217D01*
X4622634Y-16847884D02*
X4622634Y-16885979D01*
X4698825Y-16847884D02*
X4698825Y-16885979D01*
X4994063Y-17124074D02*
X4984539Y-17114550D01*
X4984539Y-17114550D02*
X4965491Y-17085979D01*
X4965491Y-17085979D02*
X4955968Y-17066931D01*
X4955968Y-17066931D02*
X4946444Y-17038360D01*
X4946444Y-17038360D02*
X4936920Y-16990741D01*
X4936920Y-16990741D02*
X4936920Y-16952646D01*
X4936920Y-16952646D02*
X4946444Y-16905027D01*
X4946444Y-16905027D02*
X4955968Y-16876455D01*
X4955968Y-16876455D02*
X4965491Y-16857408D01*
X4965491Y-16857408D02*
X4984539Y-16828836D01*
X4984539Y-16828836D02*
X4994063Y-16819312D01*
X5098825Y-16933598D02*
X5079777Y-16924074D01*
X5079777Y-16924074D02*
X5070253Y-16914550D01*
X5070253Y-16914550D02*
X5060730Y-16895503D01*
X5060730Y-16895503D02*
X5060730Y-16885979D01*
X5060730Y-16885979D02*
X5070253Y-16866931D01*
X5070253Y-16866931D02*
X5079777Y-16857408D01*
X5079777Y-16857408D02*
X5098825Y-16847884D01*
X5098825Y-16847884D02*
X5136920Y-16847884D01*
X5136920Y-16847884D02*
X5155968Y-16857408D01*
X5155968Y-16857408D02*
X5165491Y-16866931D01*
X5165491Y-16866931D02*
X5175015Y-16885979D01*
X5175015Y-16885979D02*
X5175015Y-16895503D01*
X5175015Y-16895503D02*
X5165491Y-16914550D01*
X5165491Y-16914550D02*
X5155968Y-16924074D01*
X5155968Y-16924074D02*
X5136920Y-16933598D01*
X5136920Y-16933598D02*
X5098825Y-16933598D01*
X5098825Y-16933598D02*
X5079777Y-16943122D01*
X5079777Y-16943122D02*
X5070253Y-16952646D01*
X5070253Y-16952646D02*
X5060730Y-16971693D01*
X5060730Y-16971693D02*
X5060730Y-17009789D01*
X5060730Y-17009789D02*
X5070253Y-17028836D01*
X5070253Y-17028836D02*
X5079777Y-17038360D01*
X5079777Y-17038360D02*
X5098825Y-17047884D01*
X5098825Y-17047884D02*
X5136920Y-17047884D01*
X5136920Y-17047884D02*
X5155968Y-17038360D01*
X5155968Y-17038360D02*
X5165491Y-17028836D01*
X5165491Y-17028836D02*
X5175015Y-17009789D01*
X5175015Y-17009789D02*
X5175015Y-16971693D01*
X5175015Y-16971693D02*
X5165491Y-16952646D01*
X5165491Y-16952646D02*
X5155968Y-16943122D01*
X5155968Y-16943122D02*
X5136920Y-16933598D01*
X5413111Y-17047884D02*
X5413111Y-16847884D01*
X5498825Y-17047884D02*
X5498825Y-16943122D01*
X5498825Y-16943122D02*
X5489301Y-16924074D01*
X5489301Y-16924074D02*
X5470253Y-16914550D01*
X5470253Y-16914550D02*
X5441682Y-16914550D01*
X5441682Y-16914550D02*
X5422634Y-16924074D01*
X5422634Y-16924074D02*
X5413111Y-16933598D01*
X5622634Y-17047884D02*
X5603587Y-17038360D01*
X5603587Y-17038360D02*
X5594063Y-17028836D01*
X5594063Y-17028836D02*
X5584539Y-17009789D01*
X5584539Y-17009789D02*
X5584539Y-16952646D01*
X5584539Y-16952646D02*
X5594063Y-16933598D01*
X5594063Y-16933598D02*
X5603587Y-16924074D01*
X5603587Y-16924074D02*
X5622634Y-16914550D01*
X5622634Y-16914550D02*
X5651206Y-16914550D01*
X5651206Y-16914550D02*
X5670253Y-16924074D01*
X5670253Y-16924074D02*
X5679777Y-16933598D01*
X5679777Y-16933598D02*
X5689301Y-16952646D01*
X5689301Y-16952646D02*
X5689301Y-17009789D01*
X5689301Y-17009789D02*
X5679777Y-17028836D01*
X5679777Y-17028836D02*
X5670253Y-17038360D01*
X5670253Y-17038360D02*
X5651206Y-17047884D01*
X5651206Y-17047884D02*
X5622634Y-17047884D01*
X5803587Y-17047884D02*
X5784539Y-17038360D01*
X5784539Y-17038360D02*
X5775015Y-17019312D01*
X5775015Y-17019312D02*
X5775015Y-16847884D01*
X5955968Y-17038360D02*
X5936920Y-17047884D01*
X5936920Y-17047884D02*
X5898825Y-17047884D01*
X5898825Y-17047884D02*
X5879777Y-17038360D01*
X5879777Y-17038360D02*
X5870253Y-17019312D01*
X5870253Y-17019312D02*
X5870253Y-16943122D01*
X5870253Y-16943122D02*
X5879777Y-16924074D01*
X5879777Y-16924074D02*
X5898825Y-16914550D01*
X5898825Y-16914550D02*
X5936920Y-16914550D01*
X5936920Y-16914550D02*
X5955968Y-16924074D01*
X5955968Y-16924074D02*
X5965491Y-16943122D01*
X5965491Y-16943122D02*
X5965491Y-16962170D01*
X5965491Y-16962170D02*
X5870253Y-16981217D01*
X6041682Y-17038360D02*
X6060730Y-17047884D01*
X6060730Y-17047884D02*
X6098825Y-17047884D01*
X6098825Y-17047884D02*
X6117872Y-17038360D01*
X6117872Y-17038360D02*
X6127396Y-17019312D01*
X6127396Y-17019312D02*
X6127396Y-17009789D01*
X6127396Y-17009789D02*
X6117872Y-16990741D01*
X6117872Y-16990741D02*
X6098825Y-16981217D01*
X6098825Y-16981217D02*
X6070253Y-16981217D01*
X6070253Y-16981217D02*
X6051206Y-16971693D01*
X6051206Y-16971693D02*
X6041682Y-16952646D01*
X6041682Y-16952646D02*
X6041682Y-16943122D01*
X6041682Y-16943122D02*
X6051206Y-16924074D01*
X6051206Y-16924074D02*
X6070253Y-16914550D01*
X6070253Y-16914550D02*
X6098825Y-16914550D01*
X6098825Y-16914550D02*
X6117872Y-16924074D01*
X6194063Y-17124074D02*
X6203587Y-17114550D01*
X6203587Y-17114550D02*
X6222634Y-17085979D01*
X6222634Y-17085979D02*
X6232158Y-17066931D01*
X6232158Y-17066931D02*
X6241682Y-17038360D01*
X6241682Y-17038360D02*
X6251206Y-16990741D01*
X6251206Y-16990741D02*
X6251206Y-16952646D01*
X6251206Y-16952646D02*
X6241682Y-16905027D01*
X6241682Y-16905027D02*
X6232158Y-16876455D01*
X6232158Y-16876455D02*
X6222634Y-16857408D01*
X6222634Y-16857408D02*
X6203587Y-16828836D01*
X6203587Y-16828836D02*
X6194063Y-16819312D01*
D10*
X1369000Y-17270400D02*
X1419000Y-17220400D01*
X1369000Y-17170400D01*
X1319000Y-17220400D01*
X1369000Y-17270400D01*
D11*
X1784539Y-17311884D02*
X1670253Y-17311884D01*
X1727396Y-17311884D02*
X1727396Y-17111884D01*
X1727396Y-17111884D02*
X1708348Y-17140455D01*
X1708348Y-17140455D02*
X1689301Y-17159503D01*
X1689301Y-17159503D02*
X1670253Y-17169027D01*
X1870253Y-17292836D02*
X1879777Y-17302360D01*
X1879777Y-17302360D02*
X1870253Y-17311884D01*
X1870253Y-17311884D02*
X1860729Y-17302360D01*
X1860729Y-17302360D02*
X1870253Y-17292836D01*
X1870253Y-17292836D02*
X1870253Y-17311884D01*
X2003586Y-17111884D02*
X2022634Y-17111884D01*
X2022634Y-17111884D02*
X2041682Y-17121408D01*
X2041682Y-17121408D02*
X2051205Y-17130931D01*
X2051205Y-17130931D02*
X2060729Y-17149979D01*
X2060729Y-17149979D02*
X2070253Y-17188074D01*
X2070253Y-17188074D02*
X2070253Y-17235693D01*
X2070253Y-17235693D02*
X2060729Y-17273789D01*
X2060729Y-17273789D02*
X2051205Y-17292836D01*
X2051205Y-17292836D02*
X2041682Y-17302360D01*
X2041682Y-17302360D02*
X2022634Y-17311884D01*
X2022634Y-17311884D02*
X2003586Y-17311884D01*
X2003586Y-17311884D02*
X1984539Y-17302360D01*
X1984539Y-17302360D02*
X1975015Y-17292836D01*
X1975015Y-17292836D02*
X1965491Y-17273789D01*
X1965491Y-17273789D02*
X1955967Y-17235693D01*
X1955967Y-17235693D02*
X1955967Y-17188074D01*
X1955967Y-17188074D02*
X1965491Y-17149979D01*
X1965491Y-17149979D02*
X1975015Y-17130931D01*
X1975015Y-17130931D02*
X1984539Y-17121408D01*
X1984539Y-17121408D02*
X2003586Y-17111884D01*
X2194063Y-17111884D02*
X2213110Y-17111884D01*
X2213110Y-17111884D02*
X2232158Y-17121408D01*
X2232158Y-17121408D02*
X2241682Y-17130931D01*
X2241682Y-17130931D02*
X2251205Y-17149979D01*
X2251205Y-17149979D02*
X2260729Y-17188074D01*
X2260729Y-17188074D02*
X2260729Y-17235693D01*
X2260729Y-17235693D02*
X2251205Y-17273789D01*
X2251205Y-17273789D02*
X2241682Y-17292836D01*
X2241682Y-17292836D02*
X2232158Y-17302360D01*
X2232158Y-17302360D02*
X2213110Y-17311884D01*
X2213110Y-17311884D02*
X2194063Y-17311884D01*
X2194063Y-17311884D02*
X2175015Y-17302360D01*
X2175015Y-17302360D02*
X2165491Y-17292836D01*
X2165491Y-17292836D02*
X2155967Y-17273789D01*
X2155967Y-17273789D02*
X2146444Y-17235693D01*
X2146444Y-17235693D02*
X2146444Y-17188074D01*
X2146444Y-17188074D02*
X2155967Y-17149979D01*
X2155967Y-17149979D02*
X2165491Y-17130931D01*
X2165491Y-17130931D02*
X2175015Y-17121408D01*
X2175015Y-17121408D02*
X2194063Y-17111884D01*
X2384539Y-17111884D02*
X2403586Y-17111884D01*
X2403586Y-17111884D02*
X2422634Y-17121408D01*
X2422634Y-17121408D02*
X2432158Y-17130931D01*
X2432158Y-17130931D02*
X2441682Y-17149979D01*
X2441682Y-17149979D02*
X2451205Y-17188074D01*
X2451205Y-17188074D02*
X2451205Y-17235693D01*
X2451205Y-17235693D02*
X2441682Y-17273789D01*
X2441682Y-17273789D02*
X2432158Y-17292836D01*
X2432158Y-17292836D02*
X2422634Y-17302360D01*
X2422634Y-17302360D02*
X2403586Y-17311884D01*
X2403586Y-17311884D02*
X2384539Y-17311884D01*
X2384539Y-17311884D02*
X2365491Y-17302360D01*
X2365491Y-17302360D02*
X2355967Y-17292836D01*
X2355967Y-17292836D02*
X2346444Y-17273789D01*
X2346444Y-17273789D02*
X2336920Y-17235693D01*
X2336920Y-17235693D02*
X2336920Y-17188074D01*
X2336920Y-17188074D02*
X2346444Y-17149979D01*
X2346444Y-17149979D02*
X2355967Y-17130931D01*
X2355967Y-17130931D02*
X2365491Y-17121408D01*
X2365491Y-17121408D02*
X2384539Y-17111884D01*
X2536920Y-17311884D02*
X2536920Y-17178550D01*
X2536920Y-17197598D02*
X2546444Y-17188074D01*
X2546444Y-17188074D02*
X2565491Y-17178550D01*
X2565491Y-17178550D02*
X2594063Y-17178550D01*
X2594063Y-17178550D02*
X2613110Y-17188074D01*
X2613110Y-17188074D02*
X2622634Y-17207122D01*
X2622634Y-17207122D02*
X2622634Y-17311884D01*
X2622634Y-17207122D02*
X2632158Y-17188074D01*
X2632158Y-17188074D02*
X2651205Y-17178550D01*
X2651205Y-17178550D02*
X2679777Y-17178550D01*
X2679777Y-17178550D02*
X2698825Y-17188074D01*
X2698825Y-17188074D02*
X2708348Y-17207122D01*
X2708348Y-17207122D02*
X2708348Y-17311884D01*
X2803586Y-17311884D02*
X2803586Y-17178550D01*
X2803586Y-17197598D02*
X2813110Y-17188074D01*
X2813110Y-17188074D02*
X2832158Y-17178550D01*
X2832158Y-17178550D02*
X2860729Y-17178550D01*
X2860729Y-17178550D02*
X2879777Y-17188074D01*
X2879777Y-17188074D02*
X2889301Y-17207122D01*
X2889301Y-17207122D02*
X2889301Y-17311884D01*
X2889301Y-17207122D02*
X2898824Y-17188074D01*
X2898824Y-17188074D02*
X2917872Y-17178550D01*
X2917872Y-17178550D02*
X2946443Y-17178550D01*
X2946443Y-17178550D02*
X2965491Y-17188074D01*
X2965491Y-17188074D02*
X2975015Y-17207122D01*
X2975015Y-17207122D02*
X2975015Y-17311884D01*
X3365491Y-17102360D02*
X3194063Y-17359503D01*
X3622634Y-17111884D02*
X3641682Y-17111884D01*
X3641682Y-17111884D02*
X3660729Y-17121408D01*
X3660729Y-17121408D02*
X3670253Y-17130931D01*
X3670253Y-17130931D02*
X3679777Y-17149979D01*
X3679777Y-17149979D02*
X3689301Y-17188074D01*
X3689301Y-17188074D02*
X3689301Y-17235693D01*
X3689301Y-17235693D02*
X3679777Y-17273789D01*
X3679777Y-17273789D02*
X3670253Y-17292836D01*
X3670253Y-17292836D02*
X3660729Y-17302360D01*
X3660729Y-17302360D02*
X3641682Y-17311884D01*
X3641682Y-17311884D02*
X3622634Y-17311884D01*
X3622634Y-17311884D02*
X3603586Y-17302360D01*
X3603586Y-17302360D02*
X3594063Y-17292836D01*
X3594063Y-17292836D02*
X3584539Y-17273789D01*
X3584539Y-17273789D02*
X3575015Y-17235693D01*
X3575015Y-17235693D02*
X3575015Y-17188074D01*
X3575015Y-17188074D02*
X3584539Y-17149979D01*
X3584539Y-17149979D02*
X3594063Y-17130931D01*
X3594063Y-17130931D02*
X3603586Y-17121408D01*
X3603586Y-17121408D02*
X3622634Y-17111884D01*
X3775015Y-17292836D02*
X3784539Y-17302360D01*
X3784539Y-17302360D02*
X3775015Y-17311884D01*
X3775015Y-17311884D02*
X3765491Y-17302360D01*
X3765491Y-17302360D02*
X3775015Y-17292836D01*
X3775015Y-17292836D02*
X3775015Y-17311884D01*
X3908348Y-17111884D02*
X3927396Y-17111884D01*
X3927396Y-17111884D02*
X3946444Y-17121408D01*
X3946444Y-17121408D02*
X3955967Y-17130931D01*
X3955967Y-17130931D02*
X3965491Y-17149979D01*
X3965491Y-17149979D02*
X3975015Y-17188074D01*
X3975015Y-17188074D02*
X3975015Y-17235693D01*
X3975015Y-17235693D02*
X3965491Y-17273789D01*
X3965491Y-17273789D02*
X3955967Y-17292836D01*
X3955967Y-17292836D02*
X3946444Y-17302360D01*
X3946444Y-17302360D02*
X3927396Y-17311884D01*
X3927396Y-17311884D02*
X3908348Y-17311884D01*
X3908348Y-17311884D02*
X3889301Y-17302360D01*
X3889301Y-17302360D02*
X3879777Y-17292836D01*
X3879777Y-17292836D02*
X3870253Y-17273789D01*
X3870253Y-17273789D02*
X3860729Y-17235693D01*
X3860729Y-17235693D02*
X3860729Y-17188074D01*
X3860729Y-17188074D02*
X3870253Y-17149979D01*
X3870253Y-17149979D02*
X3879777Y-17130931D01*
X3879777Y-17130931D02*
X3889301Y-17121408D01*
X3889301Y-17121408D02*
X3908348Y-17111884D01*
X4041682Y-17111884D02*
X4165491Y-17111884D01*
X4165491Y-17111884D02*
X4098825Y-17188074D01*
X4098825Y-17188074D02*
X4127396Y-17188074D01*
X4127396Y-17188074D02*
X4146444Y-17197598D01*
X4146444Y-17197598D02*
X4155967Y-17207122D01*
X4155967Y-17207122D02*
X4165491Y-17226170D01*
X4165491Y-17226170D02*
X4165491Y-17273789D01*
X4165491Y-17273789D02*
X4155967Y-17292836D01*
X4155967Y-17292836D02*
X4146444Y-17302360D01*
X4146444Y-17302360D02*
X4127396Y-17311884D01*
X4127396Y-17311884D02*
X4070253Y-17311884D01*
X4070253Y-17311884D02*
X4051206Y-17302360D01*
X4051206Y-17302360D02*
X4041682Y-17292836D01*
X4260729Y-17311884D02*
X4298825Y-17311884D01*
X4298825Y-17311884D02*
X4317872Y-17302360D01*
X4317872Y-17302360D02*
X4327396Y-17292836D01*
X4327396Y-17292836D02*
X4346444Y-17264265D01*
X4346444Y-17264265D02*
X4355968Y-17226170D01*
X4355968Y-17226170D02*
X4355968Y-17149979D01*
X4355968Y-17149979D02*
X4346444Y-17130931D01*
X4346444Y-17130931D02*
X4336920Y-17121408D01*
X4336920Y-17121408D02*
X4317872Y-17111884D01*
X4317872Y-17111884D02*
X4279777Y-17111884D01*
X4279777Y-17111884D02*
X4260729Y-17121408D01*
X4260729Y-17121408D02*
X4251206Y-17130931D01*
X4251206Y-17130931D02*
X4241682Y-17149979D01*
X4241682Y-17149979D02*
X4241682Y-17197598D01*
X4241682Y-17197598D02*
X4251206Y-17216646D01*
X4251206Y-17216646D02*
X4260729Y-17226170D01*
X4260729Y-17226170D02*
X4279777Y-17235693D01*
X4279777Y-17235693D02*
X4317872Y-17235693D01*
X4317872Y-17235693D02*
X4336920Y-17226170D01*
X4336920Y-17226170D02*
X4346444Y-17216646D01*
X4346444Y-17216646D02*
X4355968Y-17197598D01*
X4527396Y-17178550D02*
X4527396Y-17311884D01*
X4479777Y-17102360D02*
X4432158Y-17245217D01*
X4432158Y-17245217D02*
X4555968Y-17245217D01*
X4622634Y-17111884D02*
X4622634Y-17149979D01*
X4698825Y-17111884D02*
X4698825Y-17149979D01*
X4994063Y-17388074D02*
X4984539Y-17378550D01*
X4984539Y-17378550D02*
X4965491Y-17349979D01*
X4965491Y-17349979D02*
X4955968Y-17330931D01*
X4955968Y-17330931D02*
X4946444Y-17302360D01*
X4946444Y-17302360D02*
X4936920Y-17254741D01*
X4936920Y-17254741D02*
X4936920Y-17216646D01*
X4936920Y-17216646D02*
X4946444Y-17169027D01*
X4946444Y-17169027D02*
X4955968Y-17140455D01*
X4955968Y-17140455D02*
X4965491Y-17121408D01*
X4965491Y-17121408D02*
X4984539Y-17092836D01*
X4984539Y-17092836D02*
X4994063Y-17083312D01*
X5175015Y-17311884D02*
X5060730Y-17311884D01*
X5117872Y-17311884D02*
X5117872Y-17111884D01*
X5117872Y-17111884D02*
X5098825Y-17140455D01*
X5098825Y-17140455D02*
X5079777Y-17159503D01*
X5079777Y-17159503D02*
X5060730Y-17169027D01*
X5251206Y-17130931D02*
X5260730Y-17121408D01*
X5260730Y-17121408D02*
X5279777Y-17111884D01*
X5279777Y-17111884D02*
X5327396Y-17111884D01*
X5327396Y-17111884D02*
X5346444Y-17121408D01*
X5346444Y-17121408D02*
X5355968Y-17130931D01*
X5355968Y-17130931D02*
X5365491Y-17149979D01*
X5365491Y-17149979D02*
X5365491Y-17169027D01*
X5365491Y-17169027D02*
X5355968Y-17197598D01*
X5355968Y-17197598D02*
X5241682Y-17311884D01*
X5241682Y-17311884D02*
X5365491Y-17311884D01*
X5489301Y-17111884D02*
X5508349Y-17111884D01*
X5508349Y-17111884D02*
X5527396Y-17121408D01*
X5527396Y-17121408D02*
X5536920Y-17130931D01*
X5536920Y-17130931D02*
X5546444Y-17149979D01*
X5546444Y-17149979D02*
X5555968Y-17188074D01*
X5555968Y-17188074D02*
X5555968Y-17235693D01*
X5555968Y-17235693D02*
X5546444Y-17273789D01*
X5546444Y-17273789D02*
X5536920Y-17292836D01*
X5536920Y-17292836D02*
X5527396Y-17302360D01*
X5527396Y-17302360D02*
X5508349Y-17311884D01*
X5508349Y-17311884D02*
X5489301Y-17311884D01*
X5489301Y-17311884D02*
X5470253Y-17302360D01*
X5470253Y-17302360D02*
X5460730Y-17292836D01*
X5460730Y-17292836D02*
X5451206Y-17273789D01*
X5451206Y-17273789D02*
X5441682Y-17235693D01*
X5441682Y-17235693D02*
X5441682Y-17188074D01*
X5441682Y-17188074D02*
X5451206Y-17149979D01*
X5451206Y-17149979D02*
X5460730Y-17130931D01*
X5460730Y-17130931D02*
X5470253Y-17121408D01*
X5470253Y-17121408D02*
X5489301Y-17111884D01*
X5794063Y-17311884D02*
X5794063Y-17111884D01*
X5879777Y-17311884D02*
X5879777Y-17207122D01*
X5879777Y-17207122D02*
X5870253Y-17188074D01*
X5870253Y-17188074D02*
X5851206Y-17178550D01*
X5851206Y-17178550D02*
X5822634Y-17178550D01*
X5822634Y-17178550D02*
X5803587Y-17188074D01*
X5803587Y-17188074D02*
X5794063Y-17197598D01*
X6003587Y-17311884D02*
X5984539Y-17302360D01*
X5984539Y-17302360D02*
X5975015Y-17292836D01*
X5975015Y-17292836D02*
X5965491Y-17273789D01*
X5965491Y-17273789D02*
X5965491Y-17216646D01*
X5965491Y-17216646D02*
X5975015Y-17197598D01*
X5975015Y-17197598D02*
X5984539Y-17188074D01*
X5984539Y-17188074D02*
X6003587Y-17178550D01*
X6003587Y-17178550D02*
X6032158Y-17178550D01*
X6032158Y-17178550D02*
X6051206Y-17188074D01*
X6051206Y-17188074D02*
X6060730Y-17197598D01*
X6060730Y-17197598D02*
X6070253Y-17216646D01*
X6070253Y-17216646D02*
X6070253Y-17273789D01*
X6070253Y-17273789D02*
X6060730Y-17292836D01*
X6060730Y-17292836D02*
X6051206Y-17302360D01*
X6051206Y-17302360D02*
X6032158Y-17311884D01*
X6032158Y-17311884D02*
X6003587Y-17311884D01*
X6184539Y-17311884D02*
X6165491Y-17302360D01*
X6165491Y-17302360D02*
X6155968Y-17283312D01*
X6155968Y-17283312D02*
X6155968Y-17111884D01*
X6336920Y-17302360D02*
X6317872Y-17311884D01*
X6317872Y-17311884D02*
X6279777Y-17311884D01*
X6279777Y-17311884D02*
X6260730Y-17302360D01*
X6260730Y-17302360D02*
X6251206Y-17283312D01*
X6251206Y-17283312D02*
X6251206Y-17207122D01*
X6251206Y-17207122D02*
X6260730Y-17188074D01*
X6260730Y-17188074D02*
X6279777Y-17178550D01*
X6279777Y-17178550D02*
X6317872Y-17178550D01*
X6317872Y-17178550D02*
X6336920Y-17188074D01*
X6336920Y-17188074D02*
X6346444Y-17207122D01*
X6346444Y-17207122D02*
X6346444Y-17226170D01*
X6346444Y-17226170D02*
X6251206Y-17245217D01*
X6422634Y-17302360D02*
X6441682Y-17311884D01*
X6441682Y-17311884D02*
X6479777Y-17311884D01*
X6479777Y-17311884D02*
X6498825Y-17302360D01*
X6498825Y-17302360D02*
X6508349Y-17283312D01*
X6508349Y-17283312D02*
X6508349Y-17273789D01*
X6508349Y-17273789D02*
X6498825Y-17254741D01*
X6498825Y-17254741D02*
X6479777Y-17245217D01*
X6479777Y-17245217D02*
X6451206Y-17245217D01*
X6451206Y-17245217D02*
X6432158Y-17235693D01*
X6432158Y-17235693D02*
X6422634Y-17216646D01*
X6422634Y-17216646D02*
X6422634Y-17207122D01*
X6422634Y-17207122D02*
X6432158Y-17188074D01*
X6432158Y-17188074D02*
X6451206Y-17178550D01*
X6451206Y-17178550D02*
X6479777Y-17178550D01*
X6479777Y-17178550D02*
X6498825Y-17188074D01*
X6575015Y-17388074D02*
X6584539Y-17378550D01*
X6584539Y-17378550D02*
X6603587Y-17349979D01*
X6603587Y-17349979D02*
X6613111Y-17330931D01*
X6613111Y-17330931D02*
X6622634Y-17302360D01*
X6622634Y-17302360D02*
X6632158Y-17254741D01*
X6632158Y-17254741D02*
X6632158Y-17216646D01*
X6632158Y-17216646D02*
X6622634Y-17169027D01*
X6622634Y-17169027D02*
X6613111Y-17140455D01*
X6613111Y-17140455D02*
X6603587Y-17121408D01*
X6603587Y-17121408D02*
X6584539Y-17092836D01*
X6584539Y-17092836D02*
X6575015Y-17083312D01*
D16*
X1309000Y-17429400D02*
X1419000Y-17539400D01*
X1419000Y-17429400D02*
X1309000Y-17539400D01*
X1419000Y-17484400D02*
G75*
G03*
X1419000Y-17484400I-55000J0D01*
G01*
D11*
X1784539Y-17575884D02*
X1670253Y-17575884D01*
X1727396Y-17575884D02*
X1727396Y-17375884D01*
X1727396Y-17375884D02*
X1708348Y-17404455D01*
X1708348Y-17404455D02*
X1689301Y-17423503D01*
X1689301Y-17423503D02*
X1670253Y-17433027D01*
X1870253Y-17556836D02*
X1879777Y-17566360D01*
X1879777Y-17566360D02*
X1870253Y-17575884D01*
X1870253Y-17575884D02*
X1860729Y-17566360D01*
X1860729Y-17566360D02*
X1870253Y-17556836D01*
X1870253Y-17556836D02*
X1870253Y-17575884D01*
X2070253Y-17575884D02*
X1955967Y-17575884D01*
X2013110Y-17575884D02*
X2013110Y-17375884D01*
X2013110Y-17375884D02*
X1994062Y-17404455D01*
X1994062Y-17404455D02*
X1975015Y-17423503D01*
X1975015Y-17423503D02*
X1955967Y-17433027D01*
X2194063Y-17375884D02*
X2213110Y-17375884D01*
X2213110Y-17375884D02*
X2232158Y-17385408D01*
X2232158Y-17385408D02*
X2241682Y-17394931D01*
X2241682Y-17394931D02*
X2251205Y-17413979D01*
X2251205Y-17413979D02*
X2260729Y-17452074D01*
X2260729Y-17452074D02*
X2260729Y-17499693D01*
X2260729Y-17499693D02*
X2251205Y-17537789D01*
X2251205Y-17537789D02*
X2241682Y-17556836D01*
X2241682Y-17556836D02*
X2232158Y-17566360D01*
X2232158Y-17566360D02*
X2213110Y-17575884D01*
X2213110Y-17575884D02*
X2194063Y-17575884D01*
X2194063Y-17575884D02*
X2175015Y-17566360D01*
X2175015Y-17566360D02*
X2165491Y-17556836D01*
X2165491Y-17556836D02*
X2155967Y-17537789D01*
X2155967Y-17537789D02*
X2146444Y-17499693D01*
X2146444Y-17499693D02*
X2146444Y-17452074D01*
X2146444Y-17452074D02*
X2155967Y-17413979D01*
X2155967Y-17413979D02*
X2165491Y-17394931D01*
X2165491Y-17394931D02*
X2175015Y-17385408D01*
X2175015Y-17385408D02*
X2194063Y-17375884D01*
X2384539Y-17375884D02*
X2403586Y-17375884D01*
X2403586Y-17375884D02*
X2422634Y-17385408D01*
X2422634Y-17385408D02*
X2432158Y-17394931D01*
X2432158Y-17394931D02*
X2441682Y-17413979D01*
X2441682Y-17413979D02*
X2451205Y-17452074D01*
X2451205Y-17452074D02*
X2451205Y-17499693D01*
X2451205Y-17499693D02*
X2441682Y-17537789D01*
X2441682Y-17537789D02*
X2432158Y-17556836D01*
X2432158Y-17556836D02*
X2422634Y-17566360D01*
X2422634Y-17566360D02*
X2403586Y-17575884D01*
X2403586Y-17575884D02*
X2384539Y-17575884D01*
X2384539Y-17575884D02*
X2365491Y-17566360D01*
X2365491Y-17566360D02*
X2355967Y-17556836D01*
X2355967Y-17556836D02*
X2346444Y-17537789D01*
X2346444Y-17537789D02*
X2336920Y-17499693D01*
X2336920Y-17499693D02*
X2336920Y-17452074D01*
X2336920Y-17452074D02*
X2346444Y-17413979D01*
X2346444Y-17413979D02*
X2355967Y-17394931D01*
X2355967Y-17394931D02*
X2365491Y-17385408D01*
X2365491Y-17385408D02*
X2384539Y-17375884D01*
X2536920Y-17575884D02*
X2536920Y-17442550D01*
X2536920Y-17461598D02*
X2546444Y-17452074D01*
X2546444Y-17452074D02*
X2565491Y-17442550D01*
X2565491Y-17442550D02*
X2594063Y-17442550D01*
X2594063Y-17442550D02*
X2613110Y-17452074D01*
X2613110Y-17452074D02*
X2622634Y-17471122D01*
X2622634Y-17471122D02*
X2622634Y-17575884D01*
X2622634Y-17471122D02*
X2632158Y-17452074D01*
X2632158Y-17452074D02*
X2651205Y-17442550D01*
X2651205Y-17442550D02*
X2679777Y-17442550D01*
X2679777Y-17442550D02*
X2698825Y-17452074D01*
X2698825Y-17452074D02*
X2708348Y-17471122D01*
X2708348Y-17471122D02*
X2708348Y-17575884D01*
X2803586Y-17575884D02*
X2803586Y-17442550D01*
X2803586Y-17461598D02*
X2813110Y-17452074D01*
X2813110Y-17452074D02*
X2832158Y-17442550D01*
X2832158Y-17442550D02*
X2860729Y-17442550D01*
X2860729Y-17442550D02*
X2879777Y-17452074D01*
X2879777Y-17452074D02*
X2889301Y-17471122D01*
X2889301Y-17471122D02*
X2889301Y-17575884D01*
X2889301Y-17471122D02*
X2898824Y-17452074D01*
X2898824Y-17452074D02*
X2917872Y-17442550D01*
X2917872Y-17442550D02*
X2946443Y-17442550D01*
X2946443Y-17442550D02*
X2965491Y-17452074D01*
X2965491Y-17452074D02*
X2975015Y-17471122D01*
X2975015Y-17471122D02*
X2975015Y-17575884D01*
X3365491Y-17366360D02*
X3194063Y-17623503D01*
X3622634Y-17375884D02*
X3641682Y-17375884D01*
X3641682Y-17375884D02*
X3660729Y-17385408D01*
X3660729Y-17385408D02*
X3670253Y-17394931D01*
X3670253Y-17394931D02*
X3679777Y-17413979D01*
X3679777Y-17413979D02*
X3689301Y-17452074D01*
X3689301Y-17452074D02*
X3689301Y-17499693D01*
X3689301Y-17499693D02*
X3679777Y-17537789D01*
X3679777Y-17537789D02*
X3670253Y-17556836D01*
X3670253Y-17556836D02*
X3660729Y-17566360D01*
X3660729Y-17566360D02*
X3641682Y-17575884D01*
X3641682Y-17575884D02*
X3622634Y-17575884D01*
X3622634Y-17575884D02*
X3603586Y-17566360D01*
X3603586Y-17566360D02*
X3594063Y-17556836D01*
X3594063Y-17556836D02*
X3584539Y-17537789D01*
X3584539Y-17537789D02*
X3575015Y-17499693D01*
X3575015Y-17499693D02*
X3575015Y-17452074D01*
X3575015Y-17452074D02*
X3584539Y-17413979D01*
X3584539Y-17413979D02*
X3594063Y-17394931D01*
X3594063Y-17394931D02*
X3603586Y-17385408D01*
X3603586Y-17385408D02*
X3622634Y-17375884D01*
X3775015Y-17556836D02*
X3784539Y-17566360D01*
X3784539Y-17566360D02*
X3775015Y-17575884D01*
X3775015Y-17575884D02*
X3765491Y-17566360D01*
X3765491Y-17566360D02*
X3775015Y-17556836D01*
X3775015Y-17556836D02*
X3775015Y-17575884D01*
X3908348Y-17375884D02*
X3927396Y-17375884D01*
X3927396Y-17375884D02*
X3946444Y-17385408D01*
X3946444Y-17385408D02*
X3955967Y-17394931D01*
X3955967Y-17394931D02*
X3965491Y-17413979D01*
X3965491Y-17413979D02*
X3975015Y-17452074D01*
X3975015Y-17452074D02*
X3975015Y-17499693D01*
X3975015Y-17499693D02*
X3965491Y-17537789D01*
X3965491Y-17537789D02*
X3955967Y-17556836D01*
X3955967Y-17556836D02*
X3946444Y-17566360D01*
X3946444Y-17566360D02*
X3927396Y-17575884D01*
X3927396Y-17575884D02*
X3908348Y-17575884D01*
X3908348Y-17575884D02*
X3889301Y-17566360D01*
X3889301Y-17566360D02*
X3879777Y-17556836D01*
X3879777Y-17556836D02*
X3870253Y-17537789D01*
X3870253Y-17537789D02*
X3860729Y-17499693D01*
X3860729Y-17499693D02*
X3860729Y-17452074D01*
X3860729Y-17452074D02*
X3870253Y-17413979D01*
X3870253Y-17413979D02*
X3879777Y-17394931D01*
X3879777Y-17394931D02*
X3889301Y-17385408D01*
X3889301Y-17385408D02*
X3908348Y-17375884D01*
X4146444Y-17442550D02*
X4146444Y-17575884D01*
X4098825Y-17366360D02*
X4051206Y-17509217D01*
X4051206Y-17509217D02*
X4175015Y-17509217D01*
X4232158Y-17375884D02*
X4355968Y-17375884D01*
X4355968Y-17375884D02*
X4289301Y-17452074D01*
X4289301Y-17452074D02*
X4317872Y-17452074D01*
X4317872Y-17452074D02*
X4336920Y-17461598D01*
X4336920Y-17461598D02*
X4346444Y-17471122D01*
X4346444Y-17471122D02*
X4355968Y-17490170D01*
X4355968Y-17490170D02*
X4355968Y-17537789D01*
X4355968Y-17537789D02*
X4346444Y-17556836D01*
X4346444Y-17556836D02*
X4336920Y-17566360D01*
X4336920Y-17566360D02*
X4317872Y-17575884D01*
X4317872Y-17575884D02*
X4260729Y-17575884D01*
X4260729Y-17575884D02*
X4241682Y-17566360D01*
X4241682Y-17566360D02*
X4232158Y-17556836D01*
X4422634Y-17375884D02*
X4546444Y-17375884D01*
X4546444Y-17375884D02*
X4479777Y-17452074D01*
X4479777Y-17452074D02*
X4508349Y-17452074D01*
X4508349Y-17452074D02*
X4527396Y-17461598D01*
X4527396Y-17461598D02*
X4536920Y-17471122D01*
X4536920Y-17471122D02*
X4546444Y-17490170D01*
X4546444Y-17490170D02*
X4546444Y-17537789D01*
X4546444Y-17537789D02*
X4536920Y-17556836D01*
X4536920Y-17556836D02*
X4527396Y-17566360D01*
X4527396Y-17566360D02*
X4508349Y-17575884D01*
X4508349Y-17575884D02*
X4451206Y-17575884D01*
X4451206Y-17575884D02*
X4432158Y-17566360D01*
X4432158Y-17566360D02*
X4422634Y-17556836D01*
X4622634Y-17375884D02*
X4622634Y-17413979D01*
X4698825Y-17375884D02*
X4698825Y-17413979D01*
X4994063Y-17652074D02*
X4984539Y-17642550D01*
X4984539Y-17642550D02*
X4965491Y-17613979D01*
X4965491Y-17613979D02*
X4955968Y-17594931D01*
X4955968Y-17594931D02*
X4946444Y-17566360D01*
X4946444Y-17566360D02*
X4936920Y-17518741D01*
X4936920Y-17518741D02*
X4936920Y-17480646D01*
X4936920Y-17480646D02*
X4946444Y-17433027D01*
X4946444Y-17433027D02*
X4955968Y-17404455D01*
X4955968Y-17404455D02*
X4965491Y-17385408D01*
X4965491Y-17385408D02*
X4984539Y-17356836D01*
X4984539Y-17356836D02*
X4994063Y-17347312D01*
X5175015Y-17575884D02*
X5060730Y-17575884D01*
X5117872Y-17575884D02*
X5117872Y-17375884D01*
X5117872Y-17375884D02*
X5098825Y-17404455D01*
X5098825Y-17404455D02*
X5079777Y-17423503D01*
X5079777Y-17423503D02*
X5060730Y-17433027D01*
X5251206Y-17394931D02*
X5260730Y-17385408D01*
X5260730Y-17385408D02*
X5279777Y-17375884D01*
X5279777Y-17375884D02*
X5327396Y-17375884D01*
X5327396Y-17375884D02*
X5346444Y-17385408D01*
X5346444Y-17385408D02*
X5355968Y-17394931D01*
X5355968Y-17394931D02*
X5365491Y-17413979D01*
X5365491Y-17413979D02*
X5365491Y-17433027D01*
X5365491Y-17433027D02*
X5355968Y-17461598D01*
X5355968Y-17461598D02*
X5241682Y-17575884D01*
X5241682Y-17575884D02*
X5365491Y-17575884D01*
X5603587Y-17575884D02*
X5603587Y-17375884D01*
X5689301Y-17575884D02*
X5689301Y-17471122D01*
X5689301Y-17471122D02*
X5679777Y-17452074D01*
X5679777Y-17452074D02*
X5660730Y-17442550D01*
X5660730Y-17442550D02*
X5632158Y-17442550D01*
X5632158Y-17442550D02*
X5613110Y-17452074D01*
X5613110Y-17452074D02*
X5603587Y-17461598D01*
X5813110Y-17575884D02*
X5794063Y-17566360D01*
X5794063Y-17566360D02*
X5784539Y-17556836D01*
X5784539Y-17556836D02*
X5775015Y-17537789D01*
X5775015Y-17537789D02*
X5775015Y-17480646D01*
X5775015Y-17480646D02*
X5784539Y-17461598D01*
X5784539Y-17461598D02*
X5794063Y-17452074D01*
X5794063Y-17452074D02*
X5813110Y-17442550D01*
X5813110Y-17442550D02*
X5841682Y-17442550D01*
X5841682Y-17442550D02*
X5860730Y-17452074D01*
X5860730Y-17452074D02*
X5870253Y-17461598D01*
X5870253Y-17461598D02*
X5879777Y-17480646D01*
X5879777Y-17480646D02*
X5879777Y-17537789D01*
X5879777Y-17537789D02*
X5870253Y-17556836D01*
X5870253Y-17556836D02*
X5860730Y-17566360D01*
X5860730Y-17566360D02*
X5841682Y-17575884D01*
X5841682Y-17575884D02*
X5813110Y-17575884D01*
X5994063Y-17575884D02*
X5975015Y-17566360D01*
X5975015Y-17566360D02*
X5965491Y-17547312D01*
X5965491Y-17547312D02*
X5965491Y-17375884D01*
X6146444Y-17566360D02*
X6127396Y-17575884D01*
X6127396Y-17575884D02*
X6089301Y-17575884D01*
X6089301Y-17575884D02*
X6070253Y-17566360D01*
X6070253Y-17566360D02*
X6060730Y-17547312D01*
X6060730Y-17547312D02*
X6060730Y-17471122D01*
X6060730Y-17471122D02*
X6070253Y-17452074D01*
X6070253Y-17452074D02*
X6089301Y-17442550D01*
X6089301Y-17442550D02*
X6127396Y-17442550D01*
X6127396Y-17442550D02*
X6146444Y-17452074D01*
X6146444Y-17452074D02*
X6155968Y-17471122D01*
X6155968Y-17471122D02*
X6155968Y-17490170D01*
X6155968Y-17490170D02*
X6060730Y-17509217D01*
X6232158Y-17566360D02*
X6251206Y-17575884D01*
X6251206Y-17575884D02*
X6289301Y-17575884D01*
X6289301Y-17575884D02*
X6308349Y-17566360D01*
X6308349Y-17566360D02*
X6317872Y-17547312D01*
X6317872Y-17547312D02*
X6317872Y-17537789D01*
X6317872Y-17537789D02*
X6308349Y-17518741D01*
X6308349Y-17518741D02*
X6289301Y-17509217D01*
X6289301Y-17509217D02*
X6260730Y-17509217D01*
X6260730Y-17509217D02*
X6241682Y-17499693D01*
X6241682Y-17499693D02*
X6232158Y-17480646D01*
X6232158Y-17480646D02*
X6232158Y-17471122D01*
X6232158Y-17471122D02*
X6241682Y-17452074D01*
X6241682Y-17452074D02*
X6260730Y-17442550D01*
X6260730Y-17442550D02*
X6289301Y-17442550D01*
X6289301Y-17442550D02*
X6308349Y-17452074D01*
X6384539Y-17652074D02*
X6394063Y-17642550D01*
X6394063Y-17642550D02*
X6413111Y-17613979D01*
X6413111Y-17613979D02*
X6422634Y-17594931D01*
X6422634Y-17594931D02*
X6432158Y-17566360D01*
X6432158Y-17566360D02*
X6441682Y-17518741D01*
X6441682Y-17518741D02*
X6441682Y-17480646D01*
X6441682Y-17480646D02*
X6432158Y-17433027D01*
X6432158Y-17433027D02*
X6422634Y-17404455D01*
X6422634Y-17404455D02*
X6413111Y-17385408D01*
X6413111Y-17385408D02*
X6394063Y-17356836D01*
X6394063Y-17356836D02*
X6384539Y-17347312D01*
D17*
X1308000Y-17692900D02*
X1419000Y-17803900D01*
X1419000Y-17692900D02*
X1308000Y-17803900D01*
X1363500Y-17692900D02*
X1363500Y-17803900D01*
X1308000Y-17748400D02*
X1419000Y-17748400D01*
D11*
X1784539Y-17839884D02*
X1670253Y-17839884D01*
X1727396Y-17839884D02*
X1727396Y-17639884D01*
X1727396Y-17639884D02*
X1708348Y-17668455D01*
X1708348Y-17668455D02*
X1689301Y-17687503D01*
X1689301Y-17687503D02*
X1670253Y-17697027D01*
X1870253Y-17820836D02*
X1879777Y-17830360D01*
X1879777Y-17830360D02*
X1870253Y-17839884D01*
X1870253Y-17839884D02*
X1860729Y-17830360D01*
X1860729Y-17830360D02*
X1870253Y-17820836D01*
X1870253Y-17820836D02*
X1870253Y-17839884D01*
X2070253Y-17839884D02*
X1955967Y-17839884D01*
X2013110Y-17839884D02*
X2013110Y-17639884D01*
X2013110Y-17639884D02*
X1994062Y-17668455D01*
X1994062Y-17668455D02*
X1975015Y-17687503D01*
X1975015Y-17687503D02*
X1955967Y-17697027D01*
X2260729Y-17839884D02*
X2146444Y-17839884D01*
X2203586Y-17839884D02*
X2203586Y-17639884D01*
X2203586Y-17639884D02*
X2184539Y-17668455D01*
X2184539Y-17668455D02*
X2165491Y-17687503D01*
X2165491Y-17687503D02*
X2146444Y-17697027D01*
X2384539Y-17639884D02*
X2403586Y-17639884D01*
X2403586Y-17639884D02*
X2422634Y-17649408D01*
X2422634Y-17649408D02*
X2432158Y-17658931D01*
X2432158Y-17658931D02*
X2441682Y-17677979D01*
X2441682Y-17677979D02*
X2451205Y-17716074D01*
X2451205Y-17716074D02*
X2451205Y-17763693D01*
X2451205Y-17763693D02*
X2441682Y-17801789D01*
X2441682Y-17801789D02*
X2432158Y-17820836D01*
X2432158Y-17820836D02*
X2422634Y-17830360D01*
X2422634Y-17830360D02*
X2403586Y-17839884D01*
X2403586Y-17839884D02*
X2384539Y-17839884D01*
X2384539Y-17839884D02*
X2365491Y-17830360D01*
X2365491Y-17830360D02*
X2355967Y-17820836D01*
X2355967Y-17820836D02*
X2346444Y-17801789D01*
X2346444Y-17801789D02*
X2336920Y-17763693D01*
X2336920Y-17763693D02*
X2336920Y-17716074D01*
X2336920Y-17716074D02*
X2346444Y-17677979D01*
X2346444Y-17677979D02*
X2355967Y-17658931D01*
X2355967Y-17658931D02*
X2365491Y-17649408D01*
X2365491Y-17649408D02*
X2384539Y-17639884D01*
X2536920Y-17839884D02*
X2536920Y-17706550D01*
X2536920Y-17725598D02*
X2546444Y-17716074D01*
X2546444Y-17716074D02*
X2565491Y-17706550D01*
X2565491Y-17706550D02*
X2594063Y-17706550D01*
X2594063Y-17706550D02*
X2613110Y-17716074D01*
X2613110Y-17716074D02*
X2622634Y-17735122D01*
X2622634Y-17735122D02*
X2622634Y-17839884D01*
X2622634Y-17735122D02*
X2632158Y-17716074D01*
X2632158Y-17716074D02*
X2651205Y-17706550D01*
X2651205Y-17706550D02*
X2679777Y-17706550D01*
X2679777Y-17706550D02*
X2698825Y-17716074D01*
X2698825Y-17716074D02*
X2708348Y-17735122D01*
X2708348Y-17735122D02*
X2708348Y-17839884D01*
X2803586Y-17839884D02*
X2803586Y-17706550D01*
X2803586Y-17725598D02*
X2813110Y-17716074D01*
X2813110Y-17716074D02*
X2832158Y-17706550D01*
X2832158Y-17706550D02*
X2860729Y-17706550D01*
X2860729Y-17706550D02*
X2879777Y-17716074D01*
X2879777Y-17716074D02*
X2889301Y-17735122D01*
X2889301Y-17735122D02*
X2889301Y-17839884D01*
X2889301Y-17735122D02*
X2898824Y-17716074D01*
X2898824Y-17716074D02*
X2917872Y-17706550D01*
X2917872Y-17706550D02*
X2946443Y-17706550D01*
X2946443Y-17706550D02*
X2965491Y-17716074D01*
X2965491Y-17716074D02*
X2975015Y-17735122D01*
X2975015Y-17735122D02*
X2975015Y-17839884D01*
X3365491Y-17630360D02*
X3194063Y-17887503D01*
X3622634Y-17639884D02*
X3641682Y-17639884D01*
X3641682Y-17639884D02*
X3660729Y-17649408D01*
X3660729Y-17649408D02*
X3670253Y-17658931D01*
X3670253Y-17658931D02*
X3679777Y-17677979D01*
X3679777Y-17677979D02*
X3689301Y-17716074D01*
X3689301Y-17716074D02*
X3689301Y-17763693D01*
X3689301Y-17763693D02*
X3679777Y-17801789D01*
X3679777Y-17801789D02*
X3670253Y-17820836D01*
X3670253Y-17820836D02*
X3660729Y-17830360D01*
X3660729Y-17830360D02*
X3641682Y-17839884D01*
X3641682Y-17839884D02*
X3622634Y-17839884D01*
X3622634Y-17839884D02*
X3603586Y-17830360D01*
X3603586Y-17830360D02*
X3594063Y-17820836D01*
X3594063Y-17820836D02*
X3584539Y-17801789D01*
X3584539Y-17801789D02*
X3575015Y-17763693D01*
X3575015Y-17763693D02*
X3575015Y-17716074D01*
X3575015Y-17716074D02*
X3584539Y-17677979D01*
X3584539Y-17677979D02*
X3594063Y-17658931D01*
X3594063Y-17658931D02*
X3603586Y-17649408D01*
X3603586Y-17649408D02*
X3622634Y-17639884D01*
X3775015Y-17820836D02*
X3784539Y-17830360D01*
X3784539Y-17830360D02*
X3775015Y-17839884D01*
X3775015Y-17839884D02*
X3765491Y-17830360D01*
X3765491Y-17830360D02*
X3775015Y-17820836D01*
X3775015Y-17820836D02*
X3775015Y-17839884D01*
X3908348Y-17639884D02*
X3927396Y-17639884D01*
X3927396Y-17639884D02*
X3946444Y-17649408D01*
X3946444Y-17649408D02*
X3955967Y-17658931D01*
X3955967Y-17658931D02*
X3965491Y-17677979D01*
X3965491Y-17677979D02*
X3975015Y-17716074D01*
X3975015Y-17716074D02*
X3975015Y-17763693D01*
X3975015Y-17763693D02*
X3965491Y-17801789D01*
X3965491Y-17801789D02*
X3955967Y-17820836D01*
X3955967Y-17820836D02*
X3946444Y-17830360D01*
X3946444Y-17830360D02*
X3927396Y-17839884D01*
X3927396Y-17839884D02*
X3908348Y-17839884D01*
X3908348Y-17839884D02*
X3889301Y-17830360D01*
X3889301Y-17830360D02*
X3879777Y-17820836D01*
X3879777Y-17820836D02*
X3870253Y-17801789D01*
X3870253Y-17801789D02*
X3860729Y-17763693D01*
X3860729Y-17763693D02*
X3860729Y-17716074D01*
X3860729Y-17716074D02*
X3870253Y-17677979D01*
X3870253Y-17677979D02*
X3879777Y-17658931D01*
X3879777Y-17658931D02*
X3889301Y-17649408D01*
X3889301Y-17649408D02*
X3908348Y-17639884D01*
X4146444Y-17706550D02*
X4146444Y-17839884D01*
X4098825Y-17630360D02*
X4051206Y-17773217D01*
X4051206Y-17773217D02*
X4175015Y-17773217D01*
X4232158Y-17639884D02*
X4355968Y-17639884D01*
X4355968Y-17639884D02*
X4289301Y-17716074D01*
X4289301Y-17716074D02*
X4317872Y-17716074D01*
X4317872Y-17716074D02*
X4336920Y-17725598D01*
X4336920Y-17725598D02*
X4346444Y-17735122D01*
X4346444Y-17735122D02*
X4355968Y-17754170D01*
X4355968Y-17754170D02*
X4355968Y-17801789D01*
X4355968Y-17801789D02*
X4346444Y-17820836D01*
X4346444Y-17820836D02*
X4336920Y-17830360D01*
X4336920Y-17830360D02*
X4317872Y-17839884D01*
X4317872Y-17839884D02*
X4260729Y-17839884D01*
X4260729Y-17839884D02*
X4241682Y-17830360D01*
X4241682Y-17830360D02*
X4232158Y-17820836D01*
X4422634Y-17639884D02*
X4555968Y-17639884D01*
X4555968Y-17639884D02*
X4470253Y-17839884D01*
X4622634Y-17639884D02*
X4622634Y-17677979D01*
X4698825Y-17639884D02*
X4698825Y-17677979D01*
X4994063Y-17916074D02*
X4984539Y-17906550D01*
X4984539Y-17906550D02*
X4965491Y-17877979D01*
X4965491Y-17877979D02*
X4955968Y-17858931D01*
X4955968Y-17858931D02*
X4946444Y-17830360D01*
X4946444Y-17830360D02*
X4936920Y-17782741D01*
X4936920Y-17782741D02*
X4936920Y-17744646D01*
X4936920Y-17744646D02*
X4946444Y-17697027D01*
X4946444Y-17697027D02*
X4955968Y-17668455D01*
X4955968Y-17668455D02*
X4965491Y-17649408D01*
X4965491Y-17649408D02*
X4984539Y-17620836D01*
X4984539Y-17620836D02*
X4994063Y-17611312D01*
X5060730Y-17658931D02*
X5070253Y-17649408D01*
X5070253Y-17649408D02*
X5089301Y-17639884D01*
X5089301Y-17639884D02*
X5136920Y-17639884D01*
X5136920Y-17639884D02*
X5155968Y-17649408D01*
X5155968Y-17649408D02*
X5165491Y-17658931D01*
X5165491Y-17658931D02*
X5175015Y-17677979D01*
X5175015Y-17677979D02*
X5175015Y-17697027D01*
X5175015Y-17697027D02*
X5165491Y-17725598D01*
X5165491Y-17725598D02*
X5051206Y-17839884D01*
X5051206Y-17839884D02*
X5175015Y-17839884D01*
X5298825Y-17639884D02*
X5317872Y-17639884D01*
X5317872Y-17639884D02*
X5336920Y-17649408D01*
X5336920Y-17649408D02*
X5346444Y-17658931D01*
X5346444Y-17658931D02*
X5355968Y-17677979D01*
X5355968Y-17677979D02*
X5365491Y-17716074D01*
X5365491Y-17716074D02*
X5365491Y-17763693D01*
X5365491Y-17763693D02*
X5355968Y-17801789D01*
X5355968Y-17801789D02*
X5346444Y-17820836D01*
X5346444Y-17820836D02*
X5336920Y-17830360D01*
X5336920Y-17830360D02*
X5317872Y-17839884D01*
X5317872Y-17839884D02*
X5298825Y-17839884D01*
X5298825Y-17839884D02*
X5279777Y-17830360D01*
X5279777Y-17830360D02*
X5270253Y-17820836D01*
X5270253Y-17820836D02*
X5260730Y-17801789D01*
X5260730Y-17801789D02*
X5251206Y-17763693D01*
X5251206Y-17763693D02*
X5251206Y-17716074D01*
X5251206Y-17716074D02*
X5260730Y-17677979D01*
X5260730Y-17677979D02*
X5270253Y-17658931D01*
X5270253Y-17658931D02*
X5279777Y-17649408D01*
X5279777Y-17649408D02*
X5298825Y-17639884D01*
X5603587Y-17839884D02*
X5603587Y-17639884D01*
X5689301Y-17839884D02*
X5689301Y-17735122D01*
X5689301Y-17735122D02*
X5679777Y-17716074D01*
X5679777Y-17716074D02*
X5660730Y-17706550D01*
X5660730Y-17706550D02*
X5632158Y-17706550D01*
X5632158Y-17706550D02*
X5613110Y-17716074D01*
X5613110Y-17716074D02*
X5603587Y-17725598D01*
X5813110Y-17839884D02*
X5794063Y-17830360D01*
X5794063Y-17830360D02*
X5784539Y-17820836D01*
X5784539Y-17820836D02*
X5775015Y-17801789D01*
X5775015Y-17801789D02*
X5775015Y-17744646D01*
X5775015Y-17744646D02*
X5784539Y-17725598D01*
X5784539Y-17725598D02*
X5794063Y-17716074D01*
X5794063Y-17716074D02*
X5813110Y-17706550D01*
X5813110Y-17706550D02*
X5841682Y-17706550D01*
X5841682Y-17706550D02*
X5860730Y-17716074D01*
X5860730Y-17716074D02*
X5870253Y-17725598D01*
X5870253Y-17725598D02*
X5879777Y-17744646D01*
X5879777Y-17744646D02*
X5879777Y-17801789D01*
X5879777Y-17801789D02*
X5870253Y-17820836D01*
X5870253Y-17820836D02*
X5860730Y-17830360D01*
X5860730Y-17830360D02*
X5841682Y-17839884D01*
X5841682Y-17839884D02*
X5813110Y-17839884D01*
X5994063Y-17839884D02*
X5975015Y-17830360D01*
X5975015Y-17830360D02*
X5965491Y-17811312D01*
X5965491Y-17811312D02*
X5965491Y-17639884D01*
X6146444Y-17830360D02*
X6127396Y-17839884D01*
X6127396Y-17839884D02*
X6089301Y-17839884D01*
X6089301Y-17839884D02*
X6070253Y-17830360D01*
X6070253Y-17830360D02*
X6060730Y-17811312D01*
X6060730Y-17811312D02*
X6060730Y-17735122D01*
X6060730Y-17735122D02*
X6070253Y-17716074D01*
X6070253Y-17716074D02*
X6089301Y-17706550D01*
X6089301Y-17706550D02*
X6127396Y-17706550D01*
X6127396Y-17706550D02*
X6146444Y-17716074D01*
X6146444Y-17716074D02*
X6155968Y-17735122D01*
X6155968Y-17735122D02*
X6155968Y-17754170D01*
X6155968Y-17754170D02*
X6060730Y-17773217D01*
X6232158Y-17830360D02*
X6251206Y-17839884D01*
X6251206Y-17839884D02*
X6289301Y-17839884D01*
X6289301Y-17839884D02*
X6308349Y-17830360D01*
X6308349Y-17830360D02*
X6317872Y-17811312D01*
X6317872Y-17811312D02*
X6317872Y-17801789D01*
X6317872Y-17801789D02*
X6308349Y-17782741D01*
X6308349Y-17782741D02*
X6289301Y-17773217D01*
X6289301Y-17773217D02*
X6260730Y-17773217D01*
X6260730Y-17773217D02*
X6241682Y-17763693D01*
X6241682Y-17763693D02*
X6232158Y-17744646D01*
X6232158Y-17744646D02*
X6232158Y-17735122D01*
X6232158Y-17735122D02*
X6241682Y-17716074D01*
X6241682Y-17716074D02*
X6260730Y-17706550D01*
X6260730Y-17706550D02*
X6289301Y-17706550D01*
X6289301Y-17706550D02*
X6308349Y-17716074D01*
X6384539Y-17916074D02*
X6394063Y-17906550D01*
X6394063Y-17906550D02*
X6413111Y-17877979D01*
X6413111Y-17877979D02*
X6422634Y-17858931D01*
X6422634Y-17858931D02*
X6432158Y-17830360D01*
X6432158Y-17830360D02*
X6441682Y-17782741D01*
X6441682Y-17782741D02*
X6441682Y-17744646D01*
X6441682Y-17744646D02*
X6432158Y-17697027D01*
X6432158Y-17697027D02*
X6422634Y-17668455D01*
X6422634Y-17668455D02*
X6413111Y-17649408D01*
X6413111Y-17649408D02*
X6394063Y-17620836D01*
X6394063Y-17620836D02*
X6384539Y-17611312D01*
D18*
X1299000Y-17952400D02*
X1419000Y-18072400D01*
X1419000Y-17952400D02*
X1299000Y-18072400D01*
X1401427Y-18054827D02*
X1401427Y-17969973D01*
X1316573Y-17969973D01*
X1316573Y-18054827D01*
X1401427Y-18054827D01*
D11*
X1784539Y-18103884D02*
X1670253Y-18103884D01*
X1727396Y-18103884D02*
X1727396Y-17903884D01*
X1727396Y-17903884D02*
X1708348Y-17932455D01*
X1708348Y-17932455D02*
X1689301Y-17951503D01*
X1689301Y-17951503D02*
X1670253Y-17961027D01*
X1870253Y-18084836D02*
X1879777Y-18094360D01*
X1879777Y-18094360D02*
X1870253Y-18103884D01*
X1870253Y-18103884D02*
X1860729Y-18094360D01*
X1860729Y-18094360D02*
X1870253Y-18084836D01*
X1870253Y-18084836D02*
X1870253Y-18103884D01*
X1955967Y-17922931D02*
X1965491Y-17913408D01*
X1965491Y-17913408D02*
X1984539Y-17903884D01*
X1984539Y-17903884D02*
X2032158Y-17903884D01*
X2032158Y-17903884D02*
X2051205Y-17913408D01*
X2051205Y-17913408D02*
X2060729Y-17922931D01*
X2060729Y-17922931D02*
X2070253Y-17941979D01*
X2070253Y-17941979D02*
X2070253Y-17961027D01*
X2070253Y-17961027D02*
X2060729Y-17989598D01*
X2060729Y-17989598D02*
X1946443Y-18103884D01*
X1946443Y-18103884D02*
X2070253Y-18103884D01*
X2194063Y-17903884D02*
X2213110Y-17903884D01*
X2213110Y-17903884D02*
X2232158Y-17913408D01*
X2232158Y-17913408D02*
X2241682Y-17922931D01*
X2241682Y-17922931D02*
X2251205Y-17941979D01*
X2251205Y-17941979D02*
X2260729Y-17980074D01*
X2260729Y-17980074D02*
X2260729Y-18027693D01*
X2260729Y-18027693D02*
X2251205Y-18065789D01*
X2251205Y-18065789D02*
X2241682Y-18084836D01*
X2241682Y-18084836D02*
X2232158Y-18094360D01*
X2232158Y-18094360D02*
X2213110Y-18103884D01*
X2213110Y-18103884D02*
X2194063Y-18103884D01*
X2194063Y-18103884D02*
X2175015Y-18094360D01*
X2175015Y-18094360D02*
X2165491Y-18084836D01*
X2165491Y-18084836D02*
X2155967Y-18065789D01*
X2155967Y-18065789D02*
X2146444Y-18027693D01*
X2146444Y-18027693D02*
X2146444Y-17980074D01*
X2146444Y-17980074D02*
X2155967Y-17941979D01*
X2155967Y-17941979D02*
X2165491Y-17922931D01*
X2165491Y-17922931D02*
X2175015Y-17913408D01*
X2175015Y-17913408D02*
X2194063Y-17903884D01*
X2384539Y-17903884D02*
X2403586Y-17903884D01*
X2403586Y-17903884D02*
X2422634Y-17913408D01*
X2422634Y-17913408D02*
X2432158Y-17922931D01*
X2432158Y-17922931D02*
X2441682Y-17941979D01*
X2441682Y-17941979D02*
X2451205Y-17980074D01*
X2451205Y-17980074D02*
X2451205Y-18027693D01*
X2451205Y-18027693D02*
X2441682Y-18065789D01*
X2441682Y-18065789D02*
X2432158Y-18084836D01*
X2432158Y-18084836D02*
X2422634Y-18094360D01*
X2422634Y-18094360D02*
X2403586Y-18103884D01*
X2403586Y-18103884D02*
X2384539Y-18103884D01*
X2384539Y-18103884D02*
X2365491Y-18094360D01*
X2365491Y-18094360D02*
X2355967Y-18084836D01*
X2355967Y-18084836D02*
X2346444Y-18065789D01*
X2346444Y-18065789D02*
X2336920Y-18027693D01*
X2336920Y-18027693D02*
X2336920Y-17980074D01*
X2336920Y-17980074D02*
X2346444Y-17941979D01*
X2346444Y-17941979D02*
X2355967Y-17922931D01*
X2355967Y-17922931D02*
X2365491Y-17913408D01*
X2365491Y-17913408D02*
X2384539Y-17903884D01*
X2536920Y-18103884D02*
X2536920Y-17970550D01*
X2536920Y-17989598D02*
X2546444Y-17980074D01*
X2546444Y-17980074D02*
X2565491Y-17970550D01*
X2565491Y-17970550D02*
X2594063Y-17970550D01*
X2594063Y-17970550D02*
X2613110Y-17980074D01*
X2613110Y-17980074D02*
X2622634Y-17999122D01*
X2622634Y-17999122D02*
X2622634Y-18103884D01*
X2622634Y-17999122D02*
X2632158Y-17980074D01*
X2632158Y-17980074D02*
X2651205Y-17970550D01*
X2651205Y-17970550D02*
X2679777Y-17970550D01*
X2679777Y-17970550D02*
X2698825Y-17980074D01*
X2698825Y-17980074D02*
X2708348Y-17999122D01*
X2708348Y-17999122D02*
X2708348Y-18103884D01*
X2803586Y-18103884D02*
X2803586Y-17970550D01*
X2803586Y-17989598D02*
X2813110Y-17980074D01*
X2813110Y-17980074D02*
X2832158Y-17970550D01*
X2832158Y-17970550D02*
X2860729Y-17970550D01*
X2860729Y-17970550D02*
X2879777Y-17980074D01*
X2879777Y-17980074D02*
X2889301Y-17999122D01*
X2889301Y-17999122D02*
X2889301Y-18103884D01*
X2889301Y-17999122D02*
X2898824Y-17980074D01*
X2898824Y-17980074D02*
X2917872Y-17970550D01*
X2917872Y-17970550D02*
X2946443Y-17970550D01*
X2946443Y-17970550D02*
X2965491Y-17980074D01*
X2965491Y-17980074D02*
X2975015Y-17999122D01*
X2975015Y-17999122D02*
X2975015Y-18103884D01*
X3365491Y-17894360D02*
X3194063Y-18151503D01*
X3622634Y-17903884D02*
X3641682Y-17903884D01*
X3641682Y-17903884D02*
X3660729Y-17913408D01*
X3660729Y-17913408D02*
X3670253Y-17922931D01*
X3670253Y-17922931D02*
X3679777Y-17941979D01*
X3679777Y-17941979D02*
X3689301Y-17980074D01*
X3689301Y-17980074D02*
X3689301Y-18027693D01*
X3689301Y-18027693D02*
X3679777Y-18065789D01*
X3679777Y-18065789D02*
X3670253Y-18084836D01*
X3670253Y-18084836D02*
X3660729Y-18094360D01*
X3660729Y-18094360D02*
X3641682Y-18103884D01*
X3641682Y-18103884D02*
X3622634Y-18103884D01*
X3622634Y-18103884D02*
X3603586Y-18094360D01*
X3603586Y-18094360D02*
X3594063Y-18084836D01*
X3594063Y-18084836D02*
X3584539Y-18065789D01*
X3584539Y-18065789D02*
X3575015Y-18027693D01*
X3575015Y-18027693D02*
X3575015Y-17980074D01*
X3575015Y-17980074D02*
X3584539Y-17941979D01*
X3584539Y-17941979D02*
X3594063Y-17922931D01*
X3594063Y-17922931D02*
X3603586Y-17913408D01*
X3603586Y-17913408D02*
X3622634Y-17903884D01*
X3775015Y-18084836D02*
X3784539Y-18094360D01*
X3784539Y-18094360D02*
X3775015Y-18103884D01*
X3775015Y-18103884D02*
X3765491Y-18094360D01*
X3765491Y-18094360D02*
X3775015Y-18084836D01*
X3775015Y-18084836D02*
X3775015Y-18103884D01*
X3908348Y-17903884D02*
X3927396Y-17903884D01*
X3927396Y-17903884D02*
X3946444Y-17913408D01*
X3946444Y-17913408D02*
X3955967Y-17922931D01*
X3955967Y-17922931D02*
X3965491Y-17941979D01*
X3965491Y-17941979D02*
X3975015Y-17980074D01*
X3975015Y-17980074D02*
X3975015Y-18027693D01*
X3975015Y-18027693D02*
X3965491Y-18065789D01*
X3965491Y-18065789D02*
X3955967Y-18084836D01*
X3955967Y-18084836D02*
X3946444Y-18094360D01*
X3946444Y-18094360D02*
X3927396Y-18103884D01*
X3927396Y-18103884D02*
X3908348Y-18103884D01*
X3908348Y-18103884D02*
X3889301Y-18094360D01*
X3889301Y-18094360D02*
X3879777Y-18084836D01*
X3879777Y-18084836D02*
X3870253Y-18065789D01*
X3870253Y-18065789D02*
X3860729Y-18027693D01*
X3860729Y-18027693D02*
X3860729Y-17980074D01*
X3860729Y-17980074D02*
X3870253Y-17941979D01*
X3870253Y-17941979D02*
X3879777Y-17922931D01*
X3879777Y-17922931D02*
X3889301Y-17913408D01*
X3889301Y-17913408D02*
X3908348Y-17903884D01*
X4146444Y-17970550D02*
X4146444Y-18103884D01*
X4098825Y-17894360D02*
X4051206Y-18037217D01*
X4051206Y-18037217D02*
X4175015Y-18037217D01*
X4232158Y-17903884D02*
X4365491Y-17903884D01*
X4365491Y-17903884D02*
X4279777Y-18103884D01*
X4432158Y-17922931D02*
X4441682Y-17913408D01*
X4441682Y-17913408D02*
X4460729Y-17903884D01*
X4460729Y-17903884D02*
X4508349Y-17903884D01*
X4508349Y-17903884D02*
X4527396Y-17913408D01*
X4527396Y-17913408D02*
X4536920Y-17922931D01*
X4536920Y-17922931D02*
X4546444Y-17941979D01*
X4546444Y-17941979D02*
X4546444Y-17961027D01*
X4546444Y-17961027D02*
X4536920Y-17989598D01*
X4536920Y-17989598D02*
X4422634Y-18103884D01*
X4422634Y-18103884D02*
X4546444Y-18103884D01*
X4622634Y-17903884D02*
X4622634Y-17941979D01*
X4698825Y-17903884D02*
X4698825Y-17941979D01*
X4994063Y-18180074D02*
X4984539Y-18170550D01*
X4984539Y-18170550D02*
X4965491Y-18141979D01*
X4965491Y-18141979D02*
X4955968Y-18122931D01*
X4955968Y-18122931D02*
X4946444Y-18094360D01*
X4946444Y-18094360D02*
X4936920Y-18046741D01*
X4936920Y-18046741D02*
X4936920Y-18008646D01*
X4936920Y-18008646D02*
X4946444Y-17961027D01*
X4946444Y-17961027D02*
X4955968Y-17932455D01*
X4955968Y-17932455D02*
X4965491Y-17913408D01*
X4965491Y-17913408D02*
X4984539Y-17884836D01*
X4984539Y-17884836D02*
X4994063Y-17875312D01*
X5060730Y-17922931D02*
X5070253Y-17913408D01*
X5070253Y-17913408D02*
X5089301Y-17903884D01*
X5089301Y-17903884D02*
X5136920Y-17903884D01*
X5136920Y-17903884D02*
X5155968Y-17913408D01*
X5155968Y-17913408D02*
X5165491Y-17922931D01*
X5165491Y-17922931D02*
X5175015Y-17941979D01*
X5175015Y-17941979D02*
X5175015Y-17961027D01*
X5175015Y-17961027D02*
X5165491Y-17989598D01*
X5165491Y-17989598D02*
X5051206Y-18103884D01*
X5051206Y-18103884D02*
X5175015Y-18103884D01*
X5413111Y-18103884D02*
X5413111Y-17903884D01*
X5498825Y-18103884D02*
X5498825Y-17999122D01*
X5498825Y-17999122D02*
X5489301Y-17980074D01*
X5489301Y-17980074D02*
X5470253Y-17970550D01*
X5470253Y-17970550D02*
X5441682Y-17970550D01*
X5441682Y-17970550D02*
X5422634Y-17980074D01*
X5422634Y-17980074D02*
X5413111Y-17989598D01*
X5622634Y-18103884D02*
X5603587Y-18094360D01*
X5603587Y-18094360D02*
X5594063Y-18084836D01*
X5594063Y-18084836D02*
X5584539Y-18065789D01*
X5584539Y-18065789D02*
X5584539Y-18008646D01*
X5584539Y-18008646D02*
X5594063Y-17989598D01*
X5594063Y-17989598D02*
X5603587Y-17980074D01*
X5603587Y-17980074D02*
X5622634Y-17970550D01*
X5622634Y-17970550D02*
X5651206Y-17970550D01*
X5651206Y-17970550D02*
X5670253Y-17980074D01*
X5670253Y-17980074D02*
X5679777Y-17989598D01*
X5679777Y-17989598D02*
X5689301Y-18008646D01*
X5689301Y-18008646D02*
X5689301Y-18065789D01*
X5689301Y-18065789D02*
X5679777Y-18084836D01*
X5679777Y-18084836D02*
X5670253Y-18094360D01*
X5670253Y-18094360D02*
X5651206Y-18103884D01*
X5651206Y-18103884D02*
X5622634Y-18103884D01*
X5803587Y-18103884D02*
X5784539Y-18094360D01*
X5784539Y-18094360D02*
X5775015Y-18075312D01*
X5775015Y-18075312D02*
X5775015Y-17903884D01*
X5955968Y-18094360D02*
X5936920Y-18103884D01*
X5936920Y-18103884D02*
X5898825Y-18103884D01*
X5898825Y-18103884D02*
X5879777Y-18094360D01*
X5879777Y-18094360D02*
X5870253Y-18075312D01*
X5870253Y-18075312D02*
X5870253Y-17999122D01*
X5870253Y-17999122D02*
X5879777Y-17980074D01*
X5879777Y-17980074D02*
X5898825Y-17970550D01*
X5898825Y-17970550D02*
X5936920Y-17970550D01*
X5936920Y-17970550D02*
X5955968Y-17980074D01*
X5955968Y-17980074D02*
X5965491Y-17999122D01*
X5965491Y-17999122D02*
X5965491Y-18018170D01*
X5965491Y-18018170D02*
X5870253Y-18037217D01*
X6041682Y-18094360D02*
X6060730Y-18103884D01*
X6060730Y-18103884D02*
X6098825Y-18103884D01*
X6098825Y-18103884D02*
X6117872Y-18094360D01*
X6117872Y-18094360D02*
X6127396Y-18075312D01*
X6127396Y-18075312D02*
X6127396Y-18065789D01*
X6127396Y-18065789D02*
X6117872Y-18046741D01*
X6117872Y-18046741D02*
X6098825Y-18037217D01*
X6098825Y-18037217D02*
X6070253Y-18037217D01*
X6070253Y-18037217D02*
X6051206Y-18027693D01*
X6051206Y-18027693D02*
X6041682Y-18008646D01*
X6041682Y-18008646D02*
X6041682Y-17999122D01*
X6041682Y-17999122D02*
X6051206Y-17980074D01*
X6051206Y-17980074D02*
X6070253Y-17970550D01*
X6070253Y-17970550D02*
X6098825Y-17970550D01*
X6098825Y-17970550D02*
X6117872Y-17980074D01*
X6194063Y-18180074D02*
X6203587Y-18170550D01*
X6203587Y-18170550D02*
X6222634Y-18141979D01*
X6222634Y-18141979D02*
X6232158Y-18122931D01*
X6232158Y-18122931D02*
X6241682Y-18094360D01*
X6241682Y-18094360D02*
X6251206Y-18046741D01*
X6251206Y-18046741D02*
X6251206Y-18008646D01*
X6251206Y-18008646D02*
X6241682Y-17961027D01*
X6241682Y-17961027D02*
X6232158Y-17932455D01*
X6232158Y-17932455D02*
X6222634Y-17913408D01*
X6222634Y-17913408D02*
X6203587Y-17884836D01*
X6203587Y-17884836D02*
X6194063Y-17875312D01*
D19*
X1289000Y-18211400D02*
X1419000Y-18341400D01*
X1419000Y-18211400D02*
X1289000Y-18341400D01*
X1354000Y-18341400D02*
X1419000Y-18276400D01*
X1354000Y-18211400D01*
X1289000Y-18276400D01*
X1354000Y-18341400D01*
D11*
X1784539Y-18367884D02*
X1670253Y-18367884D01*
X1727396Y-18367884D02*
X1727396Y-18167884D01*
X1727396Y-18167884D02*
X1708348Y-18196455D01*
X1708348Y-18196455D02*
X1689301Y-18215503D01*
X1689301Y-18215503D02*
X1670253Y-18225027D01*
X1870253Y-18348836D02*
X1879777Y-18358360D01*
X1879777Y-18358360D02*
X1870253Y-18367884D01*
X1870253Y-18367884D02*
X1860729Y-18358360D01*
X1860729Y-18358360D02*
X1870253Y-18348836D01*
X1870253Y-18348836D02*
X1870253Y-18367884D01*
X1946443Y-18167884D02*
X2070253Y-18167884D01*
X2070253Y-18167884D02*
X2003586Y-18244074D01*
X2003586Y-18244074D02*
X2032158Y-18244074D01*
X2032158Y-18244074D02*
X2051205Y-18253598D01*
X2051205Y-18253598D02*
X2060729Y-18263122D01*
X2060729Y-18263122D02*
X2070253Y-18282170D01*
X2070253Y-18282170D02*
X2070253Y-18329789D01*
X2070253Y-18329789D02*
X2060729Y-18348836D01*
X2060729Y-18348836D02*
X2051205Y-18358360D01*
X2051205Y-18358360D02*
X2032158Y-18367884D01*
X2032158Y-18367884D02*
X1975015Y-18367884D01*
X1975015Y-18367884D02*
X1955967Y-18358360D01*
X1955967Y-18358360D02*
X1946443Y-18348836D01*
X2194063Y-18167884D02*
X2213110Y-18167884D01*
X2213110Y-18167884D02*
X2232158Y-18177408D01*
X2232158Y-18177408D02*
X2241682Y-18186931D01*
X2241682Y-18186931D02*
X2251205Y-18205979D01*
X2251205Y-18205979D02*
X2260729Y-18244074D01*
X2260729Y-18244074D02*
X2260729Y-18291693D01*
X2260729Y-18291693D02*
X2251205Y-18329789D01*
X2251205Y-18329789D02*
X2241682Y-18348836D01*
X2241682Y-18348836D02*
X2232158Y-18358360D01*
X2232158Y-18358360D02*
X2213110Y-18367884D01*
X2213110Y-18367884D02*
X2194063Y-18367884D01*
X2194063Y-18367884D02*
X2175015Y-18358360D01*
X2175015Y-18358360D02*
X2165491Y-18348836D01*
X2165491Y-18348836D02*
X2155967Y-18329789D01*
X2155967Y-18329789D02*
X2146444Y-18291693D01*
X2146444Y-18291693D02*
X2146444Y-18244074D01*
X2146444Y-18244074D02*
X2155967Y-18205979D01*
X2155967Y-18205979D02*
X2165491Y-18186931D01*
X2165491Y-18186931D02*
X2175015Y-18177408D01*
X2175015Y-18177408D02*
X2194063Y-18167884D01*
X2384539Y-18167884D02*
X2403586Y-18167884D01*
X2403586Y-18167884D02*
X2422634Y-18177408D01*
X2422634Y-18177408D02*
X2432158Y-18186931D01*
X2432158Y-18186931D02*
X2441682Y-18205979D01*
X2441682Y-18205979D02*
X2451205Y-18244074D01*
X2451205Y-18244074D02*
X2451205Y-18291693D01*
X2451205Y-18291693D02*
X2441682Y-18329789D01*
X2441682Y-18329789D02*
X2432158Y-18348836D01*
X2432158Y-18348836D02*
X2422634Y-18358360D01*
X2422634Y-18358360D02*
X2403586Y-18367884D01*
X2403586Y-18367884D02*
X2384539Y-18367884D01*
X2384539Y-18367884D02*
X2365491Y-18358360D01*
X2365491Y-18358360D02*
X2355967Y-18348836D01*
X2355967Y-18348836D02*
X2346444Y-18329789D01*
X2346444Y-18329789D02*
X2336920Y-18291693D01*
X2336920Y-18291693D02*
X2336920Y-18244074D01*
X2336920Y-18244074D02*
X2346444Y-18205979D01*
X2346444Y-18205979D02*
X2355967Y-18186931D01*
X2355967Y-18186931D02*
X2365491Y-18177408D01*
X2365491Y-18177408D02*
X2384539Y-18167884D01*
X2536920Y-18367884D02*
X2536920Y-18234550D01*
X2536920Y-18253598D02*
X2546444Y-18244074D01*
X2546444Y-18244074D02*
X2565491Y-18234550D01*
X2565491Y-18234550D02*
X2594063Y-18234550D01*
X2594063Y-18234550D02*
X2613110Y-18244074D01*
X2613110Y-18244074D02*
X2622634Y-18263122D01*
X2622634Y-18263122D02*
X2622634Y-18367884D01*
X2622634Y-18263122D02*
X2632158Y-18244074D01*
X2632158Y-18244074D02*
X2651205Y-18234550D01*
X2651205Y-18234550D02*
X2679777Y-18234550D01*
X2679777Y-18234550D02*
X2698825Y-18244074D01*
X2698825Y-18244074D02*
X2708348Y-18263122D01*
X2708348Y-18263122D02*
X2708348Y-18367884D01*
X2803586Y-18367884D02*
X2803586Y-18234550D01*
X2803586Y-18253598D02*
X2813110Y-18244074D01*
X2813110Y-18244074D02*
X2832158Y-18234550D01*
X2832158Y-18234550D02*
X2860729Y-18234550D01*
X2860729Y-18234550D02*
X2879777Y-18244074D01*
X2879777Y-18244074D02*
X2889301Y-18263122D01*
X2889301Y-18263122D02*
X2889301Y-18367884D01*
X2889301Y-18263122D02*
X2898824Y-18244074D01*
X2898824Y-18244074D02*
X2917872Y-18234550D01*
X2917872Y-18234550D02*
X2946443Y-18234550D01*
X2946443Y-18234550D02*
X2965491Y-18244074D01*
X2965491Y-18244074D02*
X2975015Y-18263122D01*
X2975015Y-18263122D02*
X2975015Y-18367884D01*
X3365491Y-18158360D02*
X3194063Y-18415503D01*
X3622634Y-18167884D02*
X3641682Y-18167884D01*
X3641682Y-18167884D02*
X3660729Y-18177408D01*
X3660729Y-18177408D02*
X3670253Y-18186931D01*
X3670253Y-18186931D02*
X3679777Y-18205979D01*
X3679777Y-18205979D02*
X3689301Y-18244074D01*
X3689301Y-18244074D02*
X3689301Y-18291693D01*
X3689301Y-18291693D02*
X3679777Y-18329789D01*
X3679777Y-18329789D02*
X3670253Y-18348836D01*
X3670253Y-18348836D02*
X3660729Y-18358360D01*
X3660729Y-18358360D02*
X3641682Y-18367884D01*
X3641682Y-18367884D02*
X3622634Y-18367884D01*
X3622634Y-18367884D02*
X3603586Y-18358360D01*
X3603586Y-18358360D02*
X3594063Y-18348836D01*
X3594063Y-18348836D02*
X3584539Y-18329789D01*
X3584539Y-18329789D02*
X3575015Y-18291693D01*
X3575015Y-18291693D02*
X3575015Y-18244074D01*
X3575015Y-18244074D02*
X3584539Y-18205979D01*
X3584539Y-18205979D02*
X3594063Y-18186931D01*
X3594063Y-18186931D02*
X3603586Y-18177408D01*
X3603586Y-18177408D02*
X3622634Y-18167884D01*
X3775015Y-18348836D02*
X3784539Y-18358360D01*
X3784539Y-18358360D02*
X3775015Y-18367884D01*
X3775015Y-18367884D02*
X3765491Y-18358360D01*
X3765491Y-18358360D02*
X3775015Y-18348836D01*
X3775015Y-18348836D02*
X3775015Y-18367884D01*
X3908348Y-18167884D02*
X3927396Y-18167884D01*
X3927396Y-18167884D02*
X3946444Y-18177408D01*
X3946444Y-18177408D02*
X3955967Y-18186931D01*
X3955967Y-18186931D02*
X3965491Y-18205979D01*
X3965491Y-18205979D02*
X3975015Y-18244074D01*
X3975015Y-18244074D02*
X3975015Y-18291693D01*
X3975015Y-18291693D02*
X3965491Y-18329789D01*
X3965491Y-18329789D02*
X3955967Y-18348836D01*
X3955967Y-18348836D02*
X3946444Y-18358360D01*
X3946444Y-18358360D02*
X3927396Y-18367884D01*
X3927396Y-18367884D02*
X3908348Y-18367884D01*
X3908348Y-18367884D02*
X3889301Y-18358360D01*
X3889301Y-18358360D02*
X3879777Y-18348836D01*
X3879777Y-18348836D02*
X3870253Y-18329789D01*
X3870253Y-18329789D02*
X3860729Y-18291693D01*
X3860729Y-18291693D02*
X3860729Y-18244074D01*
X3860729Y-18244074D02*
X3870253Y-18205979D01*
X3870253Y-18205979D02*
X3879777Y-18186931D01*
X3879777Y-18186931D02*
X3889301Y-18177408D01*
X3889301Y-18177408D02*
X3908348Y-18167884D01*
X4155967Y-18167884D02*
X4060729Y-18167884D01*
X4060729Y-18167884D02*
X4051206Y-18263122D01*
X4051206Y-18263122D02*
X4060729Y-18253598D01*
X4060729Y-18253598D02*
X4079777Y-18244074D01*
X4079777Y-18244074D02*
X4127396Y-18244074D01*
X4127396Y-18244074D02*
X4146444Y-18253598D01*
X4146444Y-18253598D02*
X4155967Y-18263122D01*
X4155967Y-18263122D02*
X4165491Y-18282170D01*
X4165491Y-18282170D02*
X4165491Y-18329789D01*
X4165491Y-18329789D02*
X4155967Y-18348836D01*
X4155967Y-18348836D02*
X4146444Y-18358360D01*
X4146444Y-18358360D02*
X4127396Y-18367884D01*
X4127396Y-18367884D02*
X4079777Y-18367884D01*
X4079777Y-18367884D02*
X4060729Y-18358360D01*
X4060729Y-18358360D02*
X4051206Y-18348836D01*
X4355968Y-18367884D02*
X4241682Y-18367884D01*
X4298825Y-18367884D02*
X4298825Y-18167884D01*
X4298825Y-18167884D02*
X4279777Y-18196455D01*
X4279777Y-18196455D02*
X4260729Y-18215503D01*
X4260729Y-18215503D02*
X4241682Y-18225027D01*
X4432158Y-18186931D02*
X4441682Y-18177408D01*
X4441682Y-18177408D02*
X4460729Y-18167884D01*
X4460729Y-18167884D02*
X4508349Y-18167884D01*
X4508349Y-18167884D02*
X4527396Y-18177408D01*
X4527396Y-18177408D02*
X4536920Y-18186931D01*
X4536920Y-18186931D02*
X4546444Y-18205979D01*
X4546444Y-18205979D02*
X4546444Y-18225027D01*
X4546444Y-18225027D02*
X4536920Y-18253598D01*
X4536920Y-18253598D02*
X4422634Y-18367884D01*
X4422634Y-18367884D02*
X4546444Y-18367884D01*
X4622634Y-18167884D02*
X4622634Y-18205979D01*
X4698825Y-18167884D02*
X4698825Y-18205979D01*
X4994063Y-18444074D02*
X4984539Y-18434550D01*
X4984539Y-18434550D02*
X4965491Y-18405979D01*
X4965491Y-18405979D02*
X4955968Y-18386931D01*
X4955968Y-18386931D02*
X4946444Y-18358360D01*
X4946444Y-18358360D02*
X4936920Y-18310741D01*
X4936920Y-18310741D02*
X4936920Y-18272646D01*
X4936920Y-18272646D02*
X4946444Y-18225027D01*
X4946444Y-18225027D02*
X4955968Y-18196455D01*
X4955968Y-18196455D02*
X4965491Y-18177408D01*
X4965491Y-18177408D02*
X4984539Y-18148836D01*
X4984539Y-18148836D02*
X4994063Y-18139312D01*
X5155968Y-18234550D02*
X5155968Y-18367884D01*
X5108349Y-18158360D02*
X5060730Y-18301217D01*
X5060730Y-18301217D02*
X5184539Y-18301217D01*
X5251206Y-18186931D02*
X5260730Y-18177408D01*
X5260730Y-18177408D02*
X5279777Y-18167884D01*
X5279777Y-18167884D02*
X5327396Y-18167884D01*
X5327396Y-18167884D02*
X5346444Y-18177408D01*
X5346444Y-18177408D02*
X5355968Y-18186931D01*
X5355968Y-18186931D02*
X5365491Y-18205979D01*
X5365491Y-18205979D02*
X5365491Y-18225027D01*
X5365491Y-18225027D02*
X5355968Y-18253598D01*
X5355968Y-18253598D02*
X5241682Y-18367884D01*
X5241682Y-18367884D02*
X5365491Y-18367884D01*
X5603587Y-18367884D02*
X5603587Y-18167884D01*
X5689301Y-18367884D02*
X5689301Y-18263122D01*
X5689301Y-18263122D02*
X5679777Y-18244074D01*
X5679777Y-18244074D02*
X5660730Y-18234550D01*
X5660730Y-18234550D02*
X5632158Y-18234550D01*
X5632158Y-18234550D02*
X5613110Y-18244074D01*
X5613110Y-18244074D02*
X5603587Y-18253598D01*
X5813110Y-18367884D02*
X5794063Y-18358360D01*
X5794063Y-18358360D02*
X5784539Y-18348836D01*
X5784539Y-18348836D02*
X5775015Y-18329789D01*
X5775015Y-18329789D02*
X5775015Y-18272646D01*
X5775015Y-18272646D02*
X5784539Y-18253598D01*
X5784539Y-18253598D02*
X5794063Y-18244074D01*
X5794063Y-18244074D02*
X5813110Y-18234550D01*
X5813110Y-18234550D02*
X5841682Y-18234550D01*
X5841682Y-18234550D02*
X5860730Y-18244074D01*
X5860730Y-18244074D02*
X5870253Y-18253598D01*
X5870253Y-18253598D02*
X5879777Y-18272646D01*
X5879777Y-18272646D02*
X5879777Y-18329789D01*
X5879777Y-18329789D02*
X5870253Y-18348836D01*
X5870253Y-18348836D02*
X5860730Y-18358360D01*
X5860730Y-18358360D02*
X5841682Y-18367884D01*
X5841682Y-18367884D02*
X5813110Y-18367884D01*
X5994063Y-18367884D02*
X5975015Y-18358360D01*
X5975015Y-18358360D02*
X5965491Y-18339312D01*
X5965491Y-18339312D02*
X5965491Y-18167884D01*
X6146444Y-18358360D02*
X6127396Y-18367884D01*
X6127396Y-18367884D02*
X6089301Y-18367884D01*
X6089301Y-18367884D02*
X6070253Y-18358360D01*
X6070253Y-18358360D02*
X6060730Y-18339312D01*
X6060730Y-18339312D02*
X6060730Y-18263122D01*
X6060730Y-18263122D02*
X6070253Y-18244074D01*
X6070253Y-18244074D02*
X6089301Y-18234550D01*
X6089301Y-18234550D02*
X6127396Y-18234550D01*
X6127396Y-18234550D02*
X6146444Y-18244074D01*
X6146444Y-18244074D02*
X6155968Y-18263122D01*
X6155968Y-18263122D02*
X6155968Y-18282170D01*
X6155968Y-18282170D02*
X6060730Y-18301217D01*
X6232158Y-18358360D02*
X6251206Y-18367884D01*
X6251206Y-18367884D02*
X6289301Y-18367884D01*
X6289301Y-18367884D02*
X6308349Y-18358360D01*
X6308349Y-18358360D02*
X6317872Y-18339312D01*
X6317872Y-18339312D02*
X6317872Y-18329789D01*
X6317872Y-18329789D02*
X6308349Y-18310741D01*
X6308349Y-18310741D02*
X6289301Y-18301217D01*
X6289301Y-18301217D02*
X6260730Y-18301217D01*
X6260730Y-18301217D02*
X6241682Y-18291693D01*
X6241682Y-18291693D02*
X6232158Y-18272646D01*
X6232158Y-18272646D02*
X6232158Y-18263122D01*
X6232158Y-18263122D02*
X6241682Y-18244074D01*
X6241682Y-18244074D02*
X6260730Y-18234550D01*
X6260730Y-18234550D02*
X6289301Y-18234550D01*
X6289301Y-18234550D02*
X6308349Y-18244074D01*
X6384539Y-18444074D02*
X6394063Y-18434550D01*
X6394063Y-18434550D02*
X6413111Y-18405979D01*
X6413111Y-18405979D02*
X6422634Y-18386931D01*
X6422634Y-18386931D02*
X6432158Y-18358360D01*
X6432158Y-18358360D02*
X6441682Y-18310741D01*
X6441682Y-18310741D02*
X6441682Y-18272646D01*
X6441682Y-18272646D02*
X6432158Y-18225027D01*
X6432158Y-18225027D02*
X6422634Y-18196455D01*
X6422634Y-18196455D02*
X6413111Y-18177408D01*
X6413111Y-18177408D02*
X6394063Y-18148836D01*
X6394063Y-18148836D02*
X6384539Y-18139312D01*
X1319000Y-18440400D02*
X1319000Y-18640400D01*
X1219000Y-18540400D02*
X1419000Y-18540400D01*
X1419000Y-18540400D02*
G75*
G03*
X1419000Y-18540400I-100000J0D01*
G01*
X1670253Y-18450931D02*
X1679777Y-18441408D01*
X1679777Y-18441408D02*
X1698824Y-18431884D01*
X1698824Y-18431884D02*
X1746443Y-18431884D01*
X1746443Y-18431884D02*
X1765491Y-18441408D01*
X1765491Y-18441408D02*
X1775015Y-18450931D01*
X1775015Y-18450931D02*
X1784539Y-18469979D01*
X1784539Y-18469979D02*
X1784539Y-18489027D01*
X1784539Y-18489027D02*
X1775015Y-18517598D01*
X1775015Y-18517598D02*
X1660729Y-18631884D01*
X1660729Y-18631884D02*
X1784539Y-18631884D01*
X1870253Y-18612836D02*
X1879777Y-18622360D01*
X1879777Y-18622360D02*
X1870253Y-18631884D01*
X1870253Y-18631884D02*
X1860729Y-18622360D01*
X1860729Y-18622360D02*
X1870253Y-18612836D01*
X1870253Y-18612836D02*
X1870253Y-18631884D01*
X2060729Y-18431884D02*
X1965491Y-18431884D01*
X1965491Y-18431884D02*
X1955967Y-18527122D01*
X1955967Y-18527122D02*
X1965491Y-18517598D01*
X1965491Y-18517598D02*
X1984539Y-18508074D01*
X1984539Y-18508074D02*
X2032158Y-18508074D01*
X2032158Y-18508074D02*
X2051205Y-18517598D01*
X2051205Y-18517598D02*
X2060729Y-18527122D01*
X2060729Y-18527122D02*
X2070253Y-18546170D01*
X2070253Y-18546170D02*
X2070253Y-18593789D01*
X2070253Y-18593789D02*
X2060729Y-18612836D01*
X2060729Y-18612836D02*
X2051205Y-18622360D01*
X2051205Y-18622360D02*
X2032158Y-18631884D01*
X2032158Y-18631884D02*
X1984539Y-18631884D01*
X1984539Y-18631884D02*
X1965491Y-18622360D01*
X1965491Y-18622360D02*
X1955967Y-18612836D01*
X2194063Y-18431884D02*
X2213110Y-18431884D01*
X2213110Y-18431884D02*
X2232158Y-18441408D01*
X2232158Y-18441408D02*
X2241682Y-18450931D01*
X2241682Y-18450931D02*
X2251205Y-18469979D01*
X2251205Y-18469979D02*
X2260729Y-18508074D01*
X2260729Y-18508074D02*
X2260729Y-18555693D01*
X2260729Y-18555693D02*
X2251205Y-18593789D01*
X2251205Y-18593789D02*
X2241682Y-18612836D01*
X2241682Y-18612836D02*
X2232158Y-18622360D01*
X2232158Y-18622360D02*
X2213110Y-18631884D01*
X2213110Y-18631884D02*
X2194063Y-18631884D01*
X2194063Y-18631884D02*
X2175015Y-18622360D01*
X2175015Y-18622360D02*
X2165491Y-18612836D01*
X2165491Y-18612836D02*
X2155967Y-18593789D01*
X2155967Y-18593789D02*
X2146444Y-18555693D01*
X2146444Y-18555693D02*
X2146444Y-18508074D01*
X2146444Y-18508074D02*
X2155967Y-18469979D01*
X2155967Y-18469979D02*
X2165491Y-18450931D01*
X2165491Y-18450931D02*
X2175015Y-18441408D01*
X2175015Y-18441408D02*
X2194063Y-18431884D01*
X2384539Y-18431884D02*
X2403586Y-18431884D01*
X2403586Y-18431884D02*
X2422634Y-18441408D01*
X2422634Y-18441408D02*
X2432158Y-18450931D01*
X2432158Y-18450931D02*
X2441682Y-18469979D01*
X2441682Y-18469979D02*
X2451205Y-18508074D01*
X2451205Y-18508074D02*
X2451205Y-18555693D01*
X2451205Y-18555693D02*
X2441682Y-18593789D01*
X2441682Y-18593789D02*
X2432158Y-18612836D01*
X2432158Y-18612836D02*
X2422634Y-18622360D01*
X2422634Y-18622360D02*
X2403586Y-18631884D01*
X2403586Y-18631884D02*
X2384539Y-18631884D01*
X2384539Y-18631884D02*
X2365491Y-18622360D01*
X2365491Y-18622360D02*
X2355967Y-18612836D01*
X2355967Y-18612836D02*
X2346444Y-18593789D01*
X2346444Y-18593789D02*
X2336920Y-18555693D01*
X2336920Y-18555693D02*
X2336920Y-18508074D01*
X2336920Y-18508074D02*
X2346444Y-18469979D01*
X2346444Y-18469979D02*
X2355967Y-18450931D01*
X2355967Y-18450931D02*
X2365491Y-18441408D01*
X2365491Y-18441408D02*
X2384539Y-18431884D01*
X2536920Y-18631884D02*
X2536920Y-18498550D01*
X2536920Y-18517598D02*
X2546444Y-18508074D01*
X2546444Y-18508074D02*
X2565491Y-18498550D01*
X2565491Y-18498550D02*
X2594063Y-18498550D01*
X2594063Y-18498550D02*
X2613110Y-18508074D01*
X2613110Y-18508074D02*
X2622634Y-18527122D01*
X2622634Y-18527122D02*
X2622634Y-18631884D01*
X2622634Y-18527122D02*
X2632158Y-18508074D01*
X2632158Y-18508074D02*
X2651205Y-18498550D01*
X2651205Y-18498550D02*
X2679777Y-18498550D01*
X2679777Y-18498550D02*
X2698825Y-18508074D01*
X2698825Y-18508074D02*
X2708348Y-18527122D01*
X2708348Y-18527122D02*
X2708348Y-18631884D01*
X2803586Y-18631884D02*
X2803586Y-18498550D01*
X2803586Y-18517598D02*
X2813110Y-18508074D01*
X2813110Y-18508074D02*
X2832158Y-18498550D01*
X2832158Y-18498550D02*
X2860729Y-18498550D01*
X2860729Y-18498550D02*
X2879777Y-18508074D01*
X2879777Y-18508074D02*
X2889301Y-18527122D01*
X2889301Y-18527122D02*
X2889301Y-18631884D01*
X2889301Y-18527122D02*
X2898824Y-18508074D01*
X2898824Y-18508074D02*
X2917872Y-18498550D01*
X2917872Y-18498550D02*
X2946443Y-18498550D01*
X2946443Y-18498550D02*
X2965491Y-18508074D01*
X2965491Y-18508074D02*
X2975015Y-18527122D01*
X2975015Y-18527122D02*
X2975015Y-18631884D01*
X3365491Y-18422360D02*
X3194063Y-18679503D01*
X3622634Y-18431884D02*
X3641682Y-18431884D01*
X3641682Y-18431884D02*
X3660729Y-18441408D01*
X3660729Y-18441408D02*
X3670253Y-18450931D01*
X3670253Y-18450931D02*
X3679777Y-18469979D01*
X3679777Y-18469979D02*
X3689301Y-18508074D01*
X3689301Y-18508074D02*
X3689301Y-18555693D01*
X3689301Y-18555693D02*
X3679777Y-18593789D01*
X3679777Y-18593789D02*
X3670253Y-18612836D01*
X3670253Y-18612836D02*
X3660729Y-18622360D01*
X3660729Y-18622360D02*
X3641682Y-18631884D01*
X3641682Y-18631884D02*
X3622634Y-18631884D01*
X3622634Y-18631884D02*
X3603586Y-18622360D01*
X3603586Y-18622360D02*
X3594063Y-18612836D01*
X3594063Y-18612836D02*
X3584539Y-18593789D01*
X3584539Y-18593789D02*
X3575015Y-18555693D01*
X3575015Y-18555693D02*
X3575015Y-18508074D01*
X3575015Y-18508074D02*
X3584539Y-18469979D01*
X3584539Y-18469979D02*
X3594063Y-18450931D01*
X3594063Y-18450931D02*
X3603586Y-18441408D01*
X3603586Y-18441408D02*
X3622634Y-18431884D01*
X3775015Y-18612836D02*
X3784539Y-18622360D01*
X3784539Y-18622360D02*
X3775015Y-18631884D01*
X3775015Y-18631884D02*
X3765491Y-18622360D01*
X3765491Y-18622360D02*
X3775015Y-18612836D01*
X3775015Y-18612836D02*
X3775015Y-18631884D01*
X3908348Y-18431884D02*
X3927396Y-18431884D01*
X3927396Y-18431884D02*
X3946444Y-18441408D01*
X3946444Y-18441408D02*
X3955967Y-18450931D01*
X3955967Y-18450931D02*
X3965491Y-18469979D01*
X3965491Y-18469979D02*
X3975015Y-18508074D01*
X3975015Y-18508074D02*
X3975015Y-18555693D01*
X3975015Y-18555693D02*
X3965491Y-18593789D01*
X3965491Y-18593789D02*
X3955967Y-18612836D01*
X3955967Y-18612836D02*
X3946444Y-18622360D01*
X3946444Y-18622360D02*
X3927396Y-18631884D01*
X3927396Y-18631884D02*
X3908348Y-18631884D01*
X3908348Y-18631884D02*
X3889301Y-18622360D01*
X3889301Y-18622360D02*
X3879777Y-18612836D01*
X3879777Y-18612836D02*
X3870253Y-18593789D01*
X3870253Y-18593789D02*
X3860729Y-18555693D01*
X3860729Y-18555693D02*
X3860729Y-18508074D01*
X3860729Y-18508074D02*
X3870253Y-18469979D01*
X3870253Y-18469979D02*
X3879777Y-18450931D01*
X3879777Y-18450931D02*
X3889301Y-18441408D01*
X3889301Y-18441408D02*
X3908348Y-18431884D01*
X4070253Y-18631884D02*
X4108348Y-18631884D01*
X4108348Y-18631884D02*
X4127396Y-18622360D01*
X4127396Y-18622360D02*
X4136920Y-18612836D01*
X4136920Y-18612836D02*
X4155967Y-18584265D01*
X4155967Y-18584265D02*
X4165491Y-18546170D01*
X4165491Y-18546170D02*
X4165491Y-18469979D01*
X4165491Y-18469979D02*
X4155967Y-18450931D01*
X4155967Y-18450931D02*
X4146444Y-18441408D01*
X4146444Y-18441408D02*
X4127396Y-18431884D01*
X4127396Y-18431884D02*
X4089301Y-18431884D01*
X4089301Y-18431884D02*
X4070253Y-18441408D01*
X4070253Y-18441408D02*
X4060729Y-18450931D01*
X4060729Y-18450931D02*
X4051206Y-18469979D01*
X4051206Y-18469979D02*
X4051206Y-18517598D01*
X4051206Y-18517598D02*
X4060729Y-18536646D01*
X4060729Y-18536646D02*
X4070253Y-18546170D01*
X4070253Y-18546170D02*
X4089301Y-18555693D01*
X4089301Y-18555693D02*
X4127396Y-18555693D01*
X4127396Y-18555693D02*
X4146444Y-18546170D01*
X4146444Y-18546170D02*
X4155967Y-18536646D01*
X4155967Y-18536646D02*
X4165491Y-18517598D01*
X4279777Y-18517598D02*
X4260729Y-18508074D01*
X4260729Y-18508074D02*
X4251206Y-18498550D01*
X4251206Y-18498550D02*
X4241682Y-18479503D01*
X4241682Y-18479503D02*
X4241682Y-18469979D01*
X4241682Y-18469979D02*
X4251206Y-18450931D01*
X4251206Y-18450931D02*
X4260729Y-18441408D01*
X4260729Y-18441408D02*
X4279777Y-18431884D01*
X4279777Y-18431884D02*
X4317872Y-18431884D01*
X4317872Y-18431884D02*
X4336920Y-18441408D01*
X4336920Y-18441408D02*
X4346444Y-18450931D01*
X4346444Y-18450931D02*
X4355968Y-18469979D01*
X4355968Y-18469979D02*
X4355968Y-18479503D01*
X4355968Y-18479503D02*
X4346444Y-18498550D01*
X4346444Y-18498550D02*
X4336920Y-18508074D01*
X4336920Y-18508074D02*
X4317872Y-18517598D01*
X4317872Y-18517598D02*
X4279777Y-18517598D01*
X4279777Y-18517598D02*
X4260729Y-18527122D01*
X4260729Y-18527122D02*
X4251206Y-18536646D01*
X4251206Y-18536646D02*
X4241682Y-18555693D01*
X4241682Y-18555693D02*
X4241682Y-18593789D01*
X4241682Y-18593789D02*
X4251206Y-18612836D01*
X4251206Y-18612836D02*
X4260729Y-18622360D01*
X4260729Y-18622360D02*
X4279777Y-18631884D01*
X4279777Y-18631884D02*
X4317872Y-18631884D01*
X4317872Y-18631884D02*
X4336920Y-18622360D01*
X4336920Y-18622360D02*
X4346444Y-18612836D01*
X4346444Y-18612836D02*
X4355968Y-18593789D01*
X4355968Y-18593789D02*
X4355968Y-18555693D01*
X4355968Y-18555693D02*
X4346444Y-18536646D01*
X4346444Y-18536646D02*
X4336920Y-18527122D01*
X4336920Y-18527122D02*
X4317872Y-18517598D01*
X4527396Y-18498550D02*
X4527396Y-18631884D01*
X4479777Y-18422360D02*
X4432158Y-18565217D01*
X4432158Y-18565217D02*
X4555968Y-18565217D01*
X4622634Y-18431884D02*
X4622634Y-18469979D01*
X4698825Y-18431884D02*
X4698825Y-18469979D01*
X4994063Y-18708074D02*
X4984539Y-18698550D01*
X4984539Y-18698550D02*
X4965491Y-18669979D01*
X4965491Y-18669979D02*
X4955968Y-18650931D01*
X4955968Y-18650931D02*
X4946444Y-18622360D01*
X4946444Y-18622360D02*
X4936920Y-18574741D01*
X4936920Y-18574741D02*
X4936920Y-18536646D01*
X4936920Y-18536646D02*
X4946444Y-18489027D01*
X4946444Y-18489027D02*
X4955968Y-18460455D01*
X4955968Y-18460455D02*
X4965491Y-18441408D01*
X4965491Y-18441408D02*
X4984539Y-18412836D01*
X4984539Y-18412836D02*
X4994063Y-18403312D01*
X5155968Y-18498550D02*
X5155968Y-18631884D01*
X5108349Y-18422360D02*
X5060730Y-18565217D01*
X5060730Y-18565217D02*
X5184539Y-18565217D01*
X5413111Y-18631884D02*
X5413111Y-18431884D01*
X5498825Y-18631884D02*
X5498825Y-18527122D01*
X5498825Y-18527122D02*
X5489301Y-18508074D01*
X5489301Y-18508074D02*
X5470253Y-18498550D01*
X5470253Y-18498550D02*
X5441682Y-18498550D01*
X5441682Y-18498550D02*
X5422634Y-18508074D01*
X5422634Y-18508074D02*
X5413111Y-18517598D01*
X5622634Y-18631884D02*
X5603587Y-18622360D01*
X5603587Y-18622360D02*
X5594063Y-18612836D01*
X5594063Y-18612836D02*
X5584539Y-18593789D01*
X5584539Y-18593789D02*
X5584539Y-18536646D01*
X5584539Y-18536646D02*
X5594063Y-18517598D01*
X5594063Y-18517598D02*
X5603587Y-18508074D01*
X5603587Y-18508074D02*
X5622634Y-18498550D01*
X5622634Y-18498550D02*
X5651206Y-18498550D01*
X5651206Y-18498550D02*
X5670253Y-18508074D01*
X5670253Y-18508074D02*
X5679777Y-18517598D01*
X5679777Y-18517598D02*
X5689301Y-18536646D01*
X5689301Y-18536646D02*
X5689301Y-18593789D01*
X5689301Y-18593789D02*
X5679777Y-18612836D01*
X5679777Y-18612836D02*
X5670253Y-18622360D01*
X5670253Y-18622360D02*
X5651206Y-18631884D01*
X5651206Y-18631884D02*
X5622634Y-18631884D01*
X5803587Y-18631884D02*
X5784539Y-18622360D01*
X5784539Y-18622360D02*
X5775015Y-18603312D01*
X5775015Y-18603312D02*
X5775015Y-18431884D01*
X5955968Y-18622360D02*
X5936920Y-18631884D01*
X5936920Y-18631884D02*
X5898825Y-18631884D01*
X5898825Y-18631884D02*
X5879777Y-18622360D01*
X5879777Y-18622360D02*
X5870253Y-18603312D01*
X5870253Y-18603312D02*
X5870253Y-18527122D01*
X5870253Y-18527122D02*
X5879777Y-18508074D01*
X5879777Y-18508074D02*
X5898825Y-18498550D01*
X5898825Y-18498550D02*
X5936920Y-18498550D01*
X5936920Y-18498550D02*
X5955968Y-18508074D01*
X5955968Y-18508074D02*
X5965491Y-18527122D01*
X5965491Y-18527122D02*
X5965491Y-18546170D01*
X5965491Y-18546170D02*
X5870253Y-18565217D01*
X6041682Y-18622360D02*
X6060730Y-18631884D01*
X6060730Y-18631884D02*
X6098825Y-18631884D01*
X6098825Y-18631884D02*
X6117872Y-18622360D01*
X6117872Y-18622360D02*
X6127396Y-18603312D01*
X6127396Y-18603312D02*
X6127396Y-18593789D01*
X6127396Y-18593789D02*
X6117872Y-18574741D01*
X6117872Y-18574741D02*
X6098825Y-18565217D01*
X6098825Y-18565217D02*
X6070253Y-18565217D01*
X6070253Y-18565217D02*
X6051206Y-18555693D01*
X6051206Y-18555693D02*
X6041682Y-18536646D01*
X6041682Y-18536646D02*
X6041682Y-18527122D01*
X6041682Y-18527122D02*
X6051206Y-18508074D01*
X6051206Y-18508074D02*
X6070253Y-18498550D01*
X6070253Y-18498550D02*
X6098825Y-18498550D01*
X6098825Y-18498550D02*
X6117872Y-18508074D01*
X6194063Y-18708074D02*
X6203587Y-18698550D01*
X6203587Y-18698550D02*
X6222634Y-18669979D01*
X6222634Y-18669979D02*
X6232158Y-18650931D01*
X6232158Y-18650931D02*
X6241682Y-18622360D01*
X6241682Y-18622360D02*
X6251206Y-18574741D01*
X6251206Y-18574741D02*
X6251206Y-18536646D01*
X6251206Y-18536646D02*
X6241682Y-18489027D01*
X6241682Y-18489027D02*
X6232158Y-18460455D01*
X6232158Y-18460455D02*
X6222634Y-18441408D01*
X6222634Y-18441408D02*
X6203587Y-18412836D01*
X6203587Y-18412836D02*
X6194063Y-18403312D01*
X1389711Y-18931111D02*
X1389711Y-18789689D01*
X1248289Y-18789689D01*
X1248289Y-18931111D01*
X1389711Y-18931111D01*
X1419000Y-18860400D02*
G75*
G03*
X1419000Y-18860400I-100000J0D01*
G01*
X1660729Y-18751884D02*
X1784539Y-18751884D01*
X1784539Y-18751884D02*
X1717872Y-18828074D01*
X1717872Y-18828074D02*
X1746443Y-18828074D01*
X1746443Y-18828074D02*
X1765491Y-18837598D01*
X1765491Y-18837598D02*
X1775015Y-18847122D01*
X1775015Y-18847122D02*
X1784539Y-18866170D01*
X1784539Y-18866170D02*
X1784539Y-18913789D01*
X1784539Y-18913789D02*
X1775015Y-18932836D01*
X1775015Y-18932836D02*
X1765491Y-18942360D01*
X1765491Y-18942360D02*
X1746443Y-18951884D01*
X1746443Y-18951884D02*
X1689301Y-18951884D01*
X1689301Y-18951884D02*
X1670253Y-18942360D01*
X1670253Y-18942360D02*
X1660729Y-18932836D01*
X1870253Y-18932836D02*
X1879777Y-18942360D01*
X1879777Y-18942360D02*
X1870253Y-18951884D01*
X1870253Y-18951884D02*
X1860729Y-18942360D01*
X1860729Y-18942360D02*
X1870253Y-18932836D01*
X1870253Y-18932836D02*
X1870253Y-18951884D01*
X1955967Y-18770931D02*
X1965491Y-18761408D01*
X1965491Y-18761408D02*
X1984539Y-18751884D01*
X1984539Y-18751884D02*
X2032158Y-18751884D01*
X2032158Y-18751884D02*
X2051205Y-18761408D01*
X2051205Y-18761408D02*
X2060729Y-18770931D01*
X2060729Y-18770931D02*
X2070253Y-18789979D01*
X2070253Y-18789979D02*
X2070253Y-18809027D01*
X2070253Y-18809027D02*
X2060729Y-18837598D01*
X2060729Y-18837598D02*
X1946443Y-18951884D01*
X1946443Y-18951884D02*
X2070253Y-18951884D01*
X2194063Y-18751884D02*
X2213110Y-18751884D01*
X2213110Y-18751884D02*
X2232158Y-18761408D01*
X2232158Y-18761408D02*
X2241682Y-18770931D01*
X2241682Y-18770931D02*
X2251205Y-18789979D01*
X2251205Y-18789979D02*
X2260729Y-18828074D01*
X2260729Y-18828074D02*
X2260729Y-18875693D01*
X2260729Y-18875693D02*
X2251205Y-18913789D01*
X2251205Y-18913789D02*
X2241682Y-18932836D01*
X2241682Y-18932836D02*
X2232158Y-18942360D01*
X2232158Y-18942360D02*
X2213110Y-18951884D01*
X2213110Y-18951884D02*
X2194063Y-18951884D01*
X2194063Y-18951884D02*
X2175015Y-18942360D01*
X2175015Y-18942360D02*
X2165491Y-18932836D01*
X2165491Y-18932836D02*
X2155967Y-18913789D01*
X2155967Y-18913789D02*
X2146444Y-18875693D01*
X2146444Y-18875693D02*
X2146444Y-18828074D01*
X2146444Y-18828074D02*
X2155967Y-18789979D01*
X2155967Y-18789979D02*
X2165491Y-18770931D01*
X2165491Y-18770931D02*
X2175015Y-18761408D01*
X2175015Y-18761408D02*
X2194063Y-18751884D01*
X2384539Y-18751884D02*
X2403586Y-18751884D01*
X2403586Y-18751884D02*
X2422634Y-18761408D01*
X2422634Y-18761408D02*
X2432158Y-18770931D01*
X2432158Y-18770931D02*
X2441682Y-18789979D01*
X2441682Y-18789979D02*
X2451205Y-18828074D01*
X2451205Y-18828074D02*
X2451205Y-18875693D01*
X2451205Y-18875693D02*
X2441682Y-18913789D01*
X2441682Y-18913789D02*
X2432158Y-18932836D01*
X2432158Y-18932836D02*
X2422634Y-18942360D01*
X2422634Y-18942360D02*
X2403586Y-18951884D01*
X2403586Y-18951884D02*
X2384539Y-18951884D01*
X2384539Y-18951884D02*
X2365491Y-18942360D01*
X2365491Y-18942360D02*
X2355967Y-18932836D01*
X2355967Y-18932836D02*
X2346444Y-18913789D01*
X2346444Y-18913789D02*
X2336920Y-18875693D01*
X2336920Y-18875693D02*
X2336920Y-18828074D01*
X2336920Y-18828074D02*
X2346444Y-18789979D01*
X2346444Y-18789979D02*
X2355967Y-18770931D01*
X2355967Y-18770931D02*
X2365491Y-18761408D01*
X2365491Y-18761408D02*
X2384539Y-18751884D01*
X2536920Y-18951884D02*
X2536920Y-18818550D01*
X2536920Y-18837598D02*
X2546444Y-18828074D01*
X2546444Y-18828074D02*
X2565491Y-18818550D01*
X2565491Y-18818550D02*
X2594063Y-18818550D01*
X2594063Y-18818550D02*
X2613110Y-18828074D01*
X2613110Y-18828074D02*
X2622634Y-18847122D01*
X2622634Y-18847122D02*
X2622634Y-18951884D01*
X2622634Y-18847122D02*
X2632158Y-18828074D01*
X2632158Y-18828074D02*
X2651205Y-18818550D01*
X2651205Y-18818550D02*
X2679777Y-18818550D01*
X2679777Y-18818550D02*
X2698825Y-18828074D01*
X2698825Y-18828074D02*
X2708348Y-18847122D01*
X2708348Y-18847122D02*
X2708348Y-18951884D01*
X2803586Y-18951884D02*
X2803586Y-18818550D01*
X2803586Y-18837598D02*
X2813110Y-18828074D01*
X2813110Y-18828074D02*
X2832158Y-18818550D01*
X2832158Y-18818550D02*
X2860729Y-18818550D01*
X2860729Y-18818550D02*
X2879777Y-18828074D01*
X2879777Y-18828074D02*
X2889301Y-18847122D01*
X2889301Y-18847122D02*
X2889301Y-18951884D01*
X2889301Y-18847122D02*
X2898824Y-18828074D01*
X2898824Y-18828074D02*
X2917872Y-18818550D01*
X2917872Y-18818550D02*
X2946443Y-18818550D01*
X2946443Y-18818550D02*
X2965491Y-18828074D01*
X2965491Y-18828074D02*
X2975015Y-18847122D01*
X2975015Y-18847122D02*
X2975015Y-18951884D01*
X3365491Y-18742360D02*
X3194063Y-18999503D01*
X3622634Y-18751884D02*
X3641682Y-18751884D01*
X3641682Y-18751884D02*
X3660729Y-18761408D01*
X3660729Y-18761408D02*
X3670253Y-18770931D01*
X3670253Y-18770931D02*
X3679777Y-18789979D01*
X3679777Y-18789979D02*
X3689301Y-18828074D01*
X3689301Y-18828074D02*
X3689301Y-18875693D01*
X3689301Y-18875693D02*
X3679777Y-18913789D01*
X3679777Y-18913789D02*
X3670253Y-18932836D01*
X3670253Y-18932836D02*
X3660729Y-18942360D01*
X3660729Y-18942360D02*
X3641682Y-18951884D01*
X3641682Y-18951884D02*
X3622634Y-18951884D01*
X3622634Y-18951884D02*
X3603586Y-18942360D01*
X3603586Y-18942360D02*
X3594063Y-18932836D01*
X3594063Y-18932836D02*
X3584539Y-18913789D01*
X3584539Y-18913789D02*
X3575015Y-18875693D01*
X3575015Y-18875693D02*
X3575015Y-18828074D01*
X3575015Y-18828074D02*
X3584539Y-18789979D01*
X3584539Y-18789979D02*
X3594063Y-18770931D01*
X3594063Y-18770931D02*
X3603586Y-18761408D01*
X3603586Y-18761408D02*
X3622634Y-18751884D01*
X3775015Y-18932836D02*
X3784539Y-18942360D01*
X3784539Y-18942360D02*
X3775015Y-18951884D01*
X3775015Y-18951884D02*
X3765491Y-18942360D01*
X3765491Y-18942360D02*
X3775015Y-18932836D01*
X3775015Y-18932836D02*
X3775015Y-18951884D01*
X3975015Y-18951884D02*
X3860729Y-18951884D01*
X3917872Y-18951884D02*
X3917872Y-18751884D01*
X3917872Y-18751884D02*
X3898825Y-18780455D01*
X3898825Y-18780455D02*
X3879777Y-18799503D01*
X3879777Y-18799503D02*
X3860729Y-18809027D01*
X4051206Y-18770931D02*
X4060729Y-18761408D01*
X4060729Y-18761408D02*
X4079777Y-18751884D01*
X4079777Y-18751884D02*
X4127396Y-18751884D01*
X4127396Y-18751884D02*
X4146444Y-18761408D01*
X4146444Y-18761408D02*
X4155967Y-18770931D01*
X4155967Y-18770931D02*
X4165491Y-18789979D01*
X4165491Y-18789979D02*
X4165491Y-18809027D01*
X4165491Y-18809027D02*
X4155967Y-18837598D01*
X4155967Y-18837598D02*
X4041682Y-18951884D01*
X4041682Y-18951884D02*
X4165491Y-18951884D01*
X4336920Y-18751884D02*
X4298825Y-18751884D01*
X4298825Y-18751884D02*
X4279777Y-18761408D01*
X4279777Y-18761408D02*
X4270253Y-18770931D01*
X4270253Y-18770931D02*
X4251206Y-18799503D01*
X4251206Y-18799503D02*
X4241682Y-18837598D01*
X4241682Y-18837598D02*
X4241682Y-18913789D01*
X4241682Y-18913789D02*
X4251206Y-18932836D01*
X4251206Y-18932836D02*
X4260729Y-18942360D01*
X4260729Y-18942360D02*
X4279777Y-18951884D01*
X4279777Y-18951884D02*
X4317872Y-18951884D01*
X4317872Y-18951884D02*
X4336920Y-18942360D01*
X4336920Y-18942360D02*
X4346444Y-18932836D01*
X4346444Y-18932836D02*
X4355968Y-18913789D01*
X4355968Y-18913789D02*
X4355968Y-18866170D01*
X4355968Y-18866170D02*
X4346444Y-18847122D01*
X4346444Y-18847122D02*
X4336920Y-18837598D01*
X4336920Y-18837598D02*
X4317872Y-18828074D01*
X4317872Y-18828074D02*
X4279777Y-18828074D01*
X4279777Y-18828074D02*
X4260729Y-18837598D01*
X4260729Y-18837598D02*
X4251206Y-18847122D01*
X4251206Y-18847122D02*
X4241682Y-18866170D01*
X4479777Y-18751884D02*
X4498825Y-18751884D01*
X4498825Y-18751884D02*
X4517872Y-18761408D01*
X4517872Y-18761408D02*
X4527396Y-18770931D01*
X4527396Y-18770931D02*
X4536920Y-18789979D01*
X4536920Y-18789979D02*
X4546444Y-18828074D01*
X4546444Y-18828074D02*
X4546444Y-18875693D01*
X4546444Y-18875693D02*
X4536920Y-18913789D01*
X4536920Y-18913789D02*
X4527396Y-18932836D01*
X4527396Y-18932836D02*
X4517872Y-18942360D01*
X4517872Y-18942360D02*
X4498825Y-18951884D01*
X4498825Y-18951884D02*
X4479777Y-18951884D01*
X4479777Y-18951884D02*
X4460729Y-18942360D01*
X4460729Y-18942360D02*
X4451206Y-18932836D01*
X4451206Y-18932836D02*
X4441682Y-18913789D01*
X4441682Y-18913789D02*
X4432158Y-18875693D01*
X4432158Y-18875693D02*
X4432158Y-18828074D01*
X4432158Y-18828074D02*
X4441682Y-18789979D01*
X4441682Y-18789979D02*
X4451206Y-18770931D01*
X4451206Y-18770931D02*
X4460729Y-18761408D01*
X4460729Y-18761408D02*
X4479777Y-18751884D01*
X4622634Y-18751884D02*
X4622634Y-18789979D01*
X4698825Y-18751884D02*
X4698825Y-18789979D01*
X4994063Y-19028074D02*
X4984539Y-19018550D01*
X4984539Y-19018550D02*
X4965491Y-18989979D01*
X4965491Y-18989979D02*
X4955968Y-18970931D01*
X4955968Y-18970931D02*
X4946444Y-18942360D01*
X4946444Y-18942360D02*
X4936920Y-18894741D01*
X4936920Y-18894741D02*
X4936920Y-18856646D01*
X4936920Y-18856646D02*
X4946444Y-18809027D01*
X4946444Y-18809027D02*
X4955968Y-18780455D01*
X4955968Y-18780455D02*
X4965491Y-18761408D01*
X4965491Y-18761408D02*
X4984539Y-18732836D01*
X4984539Y-18732836D02*
X4994063Y-18723312D01*
X5165491Y-18751884D02*
X5070253Y-18751884D01*
X5070253Y-18751884D02*
X5060730Y-18847122D01*
X5060730Y-18847122D02*
X5070253Y-18837598D01*
X5070253Y-18837598D02*
X5089301Y-18828074D01*
X5089301Y-18828074D02*
X5136920Y-18828074D01*
X5136920Y-18828074D02*
X5155968Y-18837598D01*
X5155968Y-18837598D02*
X5165491Y-18847122D01*
X5165491Y-18847122D02*
X5175015Y-18866170D01*
X5175015Y-18866170D02*
X5175015Y-18913789D01*
X5175015Y-18913789D02*
X5165491Y-18932836D01*
X5165491Y-18932836D02*
X5155968Y-18942360D01*
X5155968Y-18942360D02*
X5136920Y-18951884D01*
X5136920Y-18951884D02*
X5089301Y-18951884D01*
X5089301Y-18951884D02*
X5070253Y-18942360D01*
X5070253Y-18942360D02*
X5060730Y-18932836D01*
X5413111Y-18951884D02*
X5413111Y-18751884D01*
X5498825Y-18951884D02*
X5498825Y-18847122D01*
X5498825Y-18847122D02*
X5489301Y-18828074D01*
X5489301Y-18828074D02*
X5470253Y-18818550D01*
X5470253Y-18818550D02*
X5441682Y-18818550D01*
X5441682Y-18818550D02*
X5422634Y-18828074D01*
X5422634Y-18828074D02*
X5413111Y-18837598D01*
X5622634Y-18951884D02*
X5603587Y-18942360D01*
X5603587Y-18942360D02*
X5594063Y-18932836D01*
X5594063Y-18932836D02*
X5584539Y-18913789D01*
X5584539Y-18913789D02*
X5584539Y-18856646D01*
X5584539Y-18856646D02*
X5594063Y-18837598D01*
X5594063Y-18837598D02*
X5603587Y-18828074D01*
X5603587Y-18828074D02*
X5622634Y-18818550D01*
X5622634Y-18818550D02*
X5651206Y-18818550D01*
X5651206Y-18818550D02*
X5670253Y-18828074D01*
X5670253Y-18828074D02*
X5679777Y-18837598D01*
X5679777Y-18837598D02*
X5689301Y-18856646D01*
X5689301Y-18856646D02*
X5689301Y-18913789D01*
X5689301Y-18913789D02*
X5679777Y-18932836D01*
X5679777Y-18932836D02*
X5670253Y-18942360D01*
X5670253Y-18942360D02*
X5651206Y-18951884D01*
X5651206Y-18951884D02*
X5622634Y-18951884D01*
X5803587Y-18951884D02*
X5784539Y-18942360D01*
X5784539Y-18942360D02*
X5775015Y-18923312D01*
X5775015Y-18923312D02*
X5775015Y-18751884D01*
X5955968Y-18942360D02*
X5936920Y-18951884D01*
X5936920Y-18951884D02*
X5898825Y-18951884D01*
X5898825Y-18951884D02*
X5879777Y-18942360D01*
X5879777Y-18942360D02*
X5870253Y-18923312D01*
X5870253Y-18923312D02*
X5870253Y-18847122D01*
X5870253Y-18847122D02*
X5879777Y-18828074D01*
X5879777Y-18828074D02*
X5898825Y-18818550D01*
X5898825Y-18818550D02*
X5936920Y-18818550D01*
X5936920Y-18818550D02*
X5955968Y-18828074D01*
X5955968Y-18828074D02*
X5965491Y-18847122D01*
X5965491Y-18847122D02*
X5965491Y-18866170D01*
X5965491Y-18866170D02*
X5870253Y-18885217D01*
X6041682Y-18942360D02*
X6060730Y-18951884D01*
X6060730Y-18951884D02*
X6098825Y-18951884D01*
X6098825Y-18951884D02*
X6117872Y-18942360D01*
X6117872Y-18942360D02*
X6127396Y-18923312D01*
X6127396Y-18923312D02*
X6127396Y-18913789D01*
X6127396Y-18913789D02*
X6117872Y-18894741D01*
X6117872Y-18894741D02*
X6098825Y-18885217D01*
X6098825Y-18885217D02*
X6070253Y-18885217D01*
X6070253Y-18885217D02*
X6051206Y-18875693D01*
X6051206Y-18875693D02*
X6041682Y-18856646D01*
X6041682Y-18856646D02*
X6041682Y-18847122D01*
X6041682Y-18847122D02*
X6051206Y-18828074D01*
X6051206Y-18828074D02*
X6070253Y-18818550D01*
X6070253Y-18818550D02*
X6098825Y-18818550D01*
X6098825Y-18818550D02*
X6117872Y-18828074D01*
X6194063Y-19028074D02*
X6203587Y-19018550D01*
X6203587Y-19018550D02*
X6222634Y-18989979D01*
X6222634Y-18989979D02*
X6232158Y-18970931D01*
X6232158Y-18970931D02*
X6241682Y-18942360D01*
X6241682Y-18942360D02*
X6251206Y-18894741D01*
X6251206Y-18894741D02*
X6251206Y-18856646D01*
X6251206Y-18856646D02*
X6241682Y-18809027D01*
X6241682Y-18809027D02*
X6232158Y-18780455D01*
X6232158Y-18780455D02*
X6222634Y-18761408D01*
X6222634Y-18761408D02*
X6203587Y-18732836D01*
X6203587Y-18732836D02*
X6194063Y-18723312D01*
M02*
