<?xml version="1.0" encoding="UTF-8" standalone="no"?>
<!DOCTYPE svg PUBLIC "-//W3C//DTD SVG 1.1//EN"
 "http://www.w3.org/Graphics/SVG/1.1/DTD/svg11.dtd">
<!-- Generated by graphviz version 2.43.0 (0)
 -->
<!-- Title: classes_uml_ohmpi Pages: 1 -->
<svg width="3415pt" height="1221pt"
 viewBox="0.00 0.00 3414.50 1221.00" xmlns="http://www.w3.org/2000/svg" xmlns:xlink="http://www.w3.org/1999/xlink">
<g id="graph0" class="graph" transform="scale(1 1) rotate(0) translate(4 1217)">
<title>classes_uml_ohmpi</title>
<polygon fill="white" stroke="transparent" points="-4,4 -4,-1217 3410.5,-1217 3410.5,4 -4,4"/>
<!-- 0 -->
<g id="node1" class="node">
<title>0</title>
<polygon fill="none" stroke="black" points="0,-105.5 0,-234.5 335,-234.5 335,-105.5 0,-105.5"/>
<text text-anchor="middle" x="167.5" y="-219.3" font-family="Times,serif" font-size="14.00">CompressedSizedTimedRotatingFileHandler</text>
<polyline fill="none" stroke="black" points="0,-211.5 335,-211.5 "/>
<text text-anchor="start" x="8" y="-196.3" font-family="Times,serif" font-size="14.00">maxBytes : int</text>
<text text-anchor="start" x="8" y="-181.3" font-family="Times,serif" font-size="14.00">stream</text>
<text text-anchor="start" x="8" y="-166.3" font-family="Times,serif" font-size="14.00">zip_mode : int</text>
<polyline fill="none" stroke="black" points="0,-158.5 335,-158.5 "/>
<text text-anchor="start" x="8" y="-143.3" font-family="Times,serif" font-size="14.00">doRollover()</text>
<text text-anchor="start" x="8" y="-128.3" font-family="Times,serif" font-size="14.00">find_last_rotated_file()</text>
<text text-anchor="start" x="8" y="-113.3" font-family="Times,serif" font-size="14.00">shouldRollover(record)</text>
</g>
<!-- 1 -->
<g id="node2" class="node">
<title>1</title>
<polygon fill="none" stroke="black" points="353.5,-120.5 353.5,-219.5 521.5,-219.5 521.5,-120.5 353.5,-120.5"/>
<text text-anchor="middle" x="437.5" y="-204.3" font-family="Times,serif" font-size="14.00">Ctl</text>
<polyline fill="none" stroke="black" points="353.5,-196.5 521.5,-196.5 "/>
<text text-anchor="start" x="361.5" y="-181.3" font-family="Times,serif" font-size="14.00">interfaces : dict</text>
<text text-anchor="start" x="361.5" y="-166.3" font-family="Times,serif" font-size="14.00">max_cpu_temp : float</text>
<text text-anchor="start" x="361.5" y="-151.3" font-family="Times,serif" font-size="14.00">model : str</text>
<polyline fill="none" stroke="black" points="353.5,-143.5 521.5,-143.5 "/>
<text text-anchor="middle" x="437.5" y="-128.3" font-family="Times,serif" font-size="14.00"> </text>
</g>
<!-- 3 -->
<g id="node4" class="node">
<title>3</title>
<polygon fill="none" stroke="black" points="363.5,-579 363.5,-738 641.5,-738 641.5,-579 363.5,-579"/>
<text text-anchor="middle" x="502.5" y="-722.8" font-family="Times,serif" font-size="14.00">CtlAbstract</text>
<polyline fill="none" stroke="black" points="363.5,-715 641.5,-715 "/>
<text text-anchor="start" x="371.5" y="-699.8" font-family="Times,serif" font-size="14.00">connection</text>
<text text-anchor="start" x="371.5" y="-684.8" font-family="Times,serif" font-size="14.00">cpu_temperature</text>
<text text-anchor="start" x="371.5" y="-669.8" font-family="Times,serif" font-size="14.00">exec_logger : RootLogger, NoneType</text>
<text text-anchor="start" x="371.5" y="-654.8" font-family="Times,serif" font-size="14.00">interfaces : NoneType</text>
<text text-anchor="start" x="371.5" y="-639.8" font-family="Times,serif" font-size="14.00">max_cpu_temp</text>
<text text-anchor="start" x="371.5" y="-624.8" font-family="Times,serif" font-size="14.00">model</text>
<text text-anchor="start" x="371.5" y="-609.8" font-family="Times,serif" font-size="14.00">soh_logger : RootLogger, NoneType</text>
<polyline fill="none" stroke="black" points="363.5,-602 641.5,-602 "/>
<text text-anchor="middle" x="502.5" y="-586.8" font-family="Times,serif" font-size="14.00"> </text>
</g>
<!-- 1&#45;&gt;3 -->
<g id="edge1" class="edge">
<title>1&#45;&gt;3</title>
<path fill="none" stroke="black" d="M444.03,-219.87C454.92,-301.38 476.94,-466.18 490.63,-568.66"/>
<polygon fill="none" stroke="black" points="487.18,-569.23 491.97,-578.68 494.11,-568.31 487.18,-569.23"/>
</g>
<!-- 2 -->
<g id="node3" class="node">
<title>2</title>
<polygon fill="none" stroke="black" points="539.5,-135 539.5,-205 593.5,-205 593.5,-135 539.5,-135"/>
<text text-anchor="middle" x="566.5" y="-189.8" font-family="Times,serif" font-size="14.00">Ctl</text>
<polyline fill="none" stroke="black" points="539.5,-182 593.5,-182 "/>
<polyline fill="none" stroke="black" points="539.5,-158 593.5,-158 "/>
<text text-anchor="middle" x="566.5" y="-142.8" font-family="Times,serif" font-size="14.00"> </text>
</g>
<!-- 2&#45;&gt;3 -->
<g id="edge2" class="edge">
<title>2&#45;&gt;3</title>
<path fill="none" stroke="black" d="M562,-205.21C552.18,-279.88 528.55,-459.48 514.2,-568.56"/>
<polygon fill="none" stroke="black" points="510.72,-568.2 512.88,-578.57 517.66,-569.11 510.72,-568.2"/>
</g>
<!-- 4 -->
<g id="node5" class="node">
<title>4</title>
<polygon fill="none" stroke="black" points="611.5,-53 611.5,-287 745.5,-287 745.5,-53 611.5,-53"/>
<text text-anchor="middle" x="678.5" y="-271.8" font-family="Times,serif" font-size="14.00">MQTTHandler</text>
<polyline fill="none" stroke="black" points="611.5,-264 745.5,-264 "/>
<text text-anchor="start" x="619.5" y="-248.8" font-family="Times,serif" font-size="14.00">auth : NoneType</text>
<text text-anchor="start" x="619.5" y="-233.8" font-family="Times,serif" font-size="14.00">client_id : str</text>
<text text-anchor="start" x="619.5" y="-218.8" font-family="Times,serif" font-size="14.00">hostname</text>
<text text-anchor="start" x="619.5" y="-203.8" font-family="Times,serif" font-size="14.00">keepalive : int</text>
<text text-anchor="start" x="619.5" y="-188.8" font-family="Times,serif" font-size="14.00">port : int</text>
<text text-anchor="start" x="619.5" y="-173.8" font-family="Times,serif" font-size="14.00">protocol</text>
<text text-anchor="start" x="619.5" y="-158.8" font-family="Times,serif" font-size="14.00">qos : int</text>
<text text-anchor="start" x="619.5" y="-143.8" font-family="Times,serif" font-size="14.00">retain : bool</text>
<text text-anchor="start" x="619.5" y="-128.8" font-family="Times,serif" font-size="14.00">tls : NoneType</text>
<text text-anchor="start" x="619.5" y="-113.8" font-family="Times,serif" font-size="14.00">topic</text>
<text text-anchor="start" x="619.5" y="-98.8" font-family="Times,serif" font-size="14.00">transport : str</text>
<text text-anchor="start" x="619.5" y="-83.8" font-family="Times,serif" font-size="14.00">will : NoneType</text>
<polyline fill="none" stroke="black" points="611.5,-76 745.5,-76 "/>
<text text-anchor="start" x="619.5" y="-60.8" font-family="Times,serif" font-size="14.00">emit(record)</text>
</g>
<!-- 5 -->
<g id="node6" class="node">
<title>5</title>
<polygon fill="none" stroke="black" points="763.5,-128 763.5,-212 979.5,-212 979.5,-128 763.5,-128"/>
<text text-anchor="middle" x="871.5" y="-196.8" font-family="Times,serif" font-size="14.00">Mux</text>
<polyline fill="none" stroke="black" points="763.5,-189 979.5,-189 "/>
<text text-anchor="start" x="771.5" y="-173.8" font-family="Times,serif" font-size="14.00">addresses : dict</text>
<polyline fill="none" stroke="black" points="763.5,-166 979.5,-166 "/>
<text text-anchor="start" x="771.5" y="-150.8" font-family="Times,serif" font-size="14.00">reset()</text>
<text text-anchor="start" x="771.5" y="-135.8" font-family="Times,serif" font-size="14.00">switch_one(elec, role, state)</text>
</g>
<!-- 8 -->
<g id="node9" class="node">
<title>8</title>
<polygon fill="none" stroke="black" points="907,-549 907,-768 1194,-768 1194,-549 907,-549"/>
<text text-anchor="middle" x="1050.5" y="-752.8" font-family="Times,serif" font-size="14.00">MuxAbstract</text>
<polyline fill="none" stroke="black" points="907,-745 1194,-745 "/>
<text text-anchor="start" x="915" y="-729.8" font-family="Times,serif" font-size="14.00">addresses</text>
<text text-anchor="start" x="915" y="-714.8" font-family="Times,serif" font-size="14.00">barrier</text>
<text text-anchor="start" x="915" y="-699.8" font-family="Times,serif" font-size="14.00">board_id</text>
<text text-anchor="start" x="915" y="-684.8" font-family="Times,serif" font-size="14.00">cabling : dict</text>
<text text-anchor="start" x="915" y="-669.8" font-family="Times,serif" font-size="14.00">connection</text>
<text text-anchor="start" x="915" y="-654.8" font-family="Times,serif" font-size="14.00">exec_logger</text>
<text text-anchor="start" x="915" y="-639.8" font-family="Times,serif" font-size="14.00">model</text>
<text text-anchor="start" x="915" y="-624.8" font-family="Times,serif" font-size="14.00">soh_logger</text>
<polyline fill="none" stroke="black" points="907,-617 1194,-617 "/>
<text text-anchor="start" x="915" y="-601.8" font-family="Times,serif" font-size="14.00">reset()</text>
<text text-anchor="start" x="915" y="-586.8" font-family="Times,serif" font-size="14.00">switch(elec_dict, state, bypass_check)</text>
<text text-anchor="start" x="915" y="-571.8" font-family="Times,serif" font-size="14.00">switch_one(elec, role, state)</text>
<text text-anchor="start" x="915" y="-556.8" font-family="Times,serif" font-size="14.00">test(elec_dict, activation_time)</text>
</g>
<!-- 5&#45;&gt;8 -->
<g id="edge3" class="edge">
<title>5&#45;&gt;8</title>
<path fill="none" stroke="black" d="M886.61,-212.06C912.91,-283.55 968.04,-433.38 1007.08,-539.49"/>
<polygon fill="none" stroke="black" points="1003.83,-540.8 1010.57,-548.98 1010.4,-538.39 1003.83,-540.8"/>
</g>
<!-- 6 -->
<g id="node7" class="node">
<title>6</title>
<polygon fill="none" stroke="black" points="997.5,-120 997.5,-220 1103.5,-220 1103.5,-120 997.5,-120"/>
<text text-anchor="middle" x="1050.5" y="-204.8" font-family="Times,serif" font-size="14.00">Mux</text>
<polyline fill="none" stroke="black" points="997.5,-197 1103.5,-197 "/>
<polyline fill="none" stroke="black" points="997.5,-173 1103.5,-173 "/>
<text text-anchor="start" x="1005.5" y="-157.8" font-family="Times,serif" font-size="14.00">reset()</text>
<text text-anchor="start" x="1005.5" y="-142.8" font-family="Times,serif" font-size="14.00">switch_one()</text>
<text text-anchor="start" x="1005.5" y="-127.8" font-family="Times,serif" font-size="14.00">test()</text>
</g>
<!-- 6&#45;&gt;8 -->
<g id="edge4" class="edge">
<title>6&#45;&gt;8</title>
<path fill="none" stroke="black" d="M1050.5,-220.33C1050.5,-294.43 1050.5,-436.69 1050.5,-538.82"/>
<polygon fill="none" stroke="black" points="1047,-538.89 1050.5,-548.89 1054,-538.89 1047,-538.89"/>
</g>
<!-- 7 -->
<g id="node8" class="node">
<title>7</title>
<polygon fill="none" stroke="black" points="1121.5,-128 1121.5,-212 1337.5,-212 1337.5,-128 1121.5,-128"/>
<text text-anchor="middle" x="1229.5" y="-196.8" font-family="Times,serif" font-size="14.00">Mux</text>
<polyline fill="none" stroke="black" points="1121.5,-189 1337.5,-189 "/>
<text text-anchor="start" x="1129.5" y="-173.8" font-family="Times,serif" font-size="14.00">addresses : dict</text>
<polyline fill="none" stroke="black" points="1121.5,-166 1337.5,-166 "/>
<text text-anchor="start" x="1129.5" y="-150.8" font-family="Times,serif" font-size="14.00">reset()</text>
<text text-anchor="start" x="1129.5" y="-135.8" font-family="Times,serif" font-size="14.00">switch_one(elec, role, state)</text>
</g>
<!-- 7&#45;&gt;8 -->
<g id="edge5" class="edge">
<title>7&#45;&gt;8</title>
<path fill="none" stroke="black" d="M1214.39,-212.06C1188.09,-283.55 1132.96,-433.38 1093.92,-539.49"/>
<polygon fill="none" stroke="black" points="1090.6,-538.39 1090.43,-548.98 1097.17,-540.8 1090.6,-538.39"/>
</g>
<!-- 9 -->
<g id="node10" class="node">
<title>9</title>
<polygon fill="none" stroke="black" points="1356,-135 1356,-205 1447,-205 1447,-135 1356,-135"/>
<text text-anchor="middle" x="1401.5" y="-189.8" font-family="Times,serif" font-size="14.00">MyServer</text>
<polyline fill="none" stroke="black" points="1356,-182 1447,-182 "/>
<polyline fill="none" stroke="black" points="1356,-158 1447,-158 "/>
<text text-anchor="start" x="1364" y="-142.8" font-family="Times,serif" font-size="14.00">do_POST()</text>
</g>
<!-- 10 -->
<g id="node11" class="node">
<title>10</title>
<polygon fill="none" stroke="black" points="1409,-391.5 1409,-925.5 2182,-925.5 2182,-391.5 1409,-391.5"/>
<text text-anchor="middle" x="1795.5" y="-910.3" font-family="Times,serif" font-size="14.00">OhmPi</text>
<polyline fill="none" stroke="black" points="1409,-902.5 2182,-902.5 "/>
<text text-anchor="start" x="1417" y="-887.3" font-family="Times,serif" font-size="14.00">cmd_id : NoneType</text>
<text text-anchor="start" x="1417" y="-872.3" font-family="Times,serif" font-size="14.00">controller : NoneType</text>
<text text-anchor="start" x="1417" y="-857.3" font-family="Times,serif" font-size="14.00">data_logger : RootLogger, NoneType</text>
<text text-anchor="start" x="1417" y="-842.3" font-family="Times,serif" font-size="14.00">exec_logger : RootLogger, NoneType</text>
<text text-anchor="start" x="1417" y="-827.3" font-family="Times,serif" font-size="14.00">id : str</text>
<text text-anchor="start" x="1417" y="-812.3" font-family="Times,serif" font-size="14.00">mqtt : bool</text>
<text text-anchor="start" x="1417" y="-797.3" font-family="Times,serif" font-size="14.00">nb_samples : int</text>
<text text-anchor="start" x="1417" y="-782.3" font-family="Times,serif" font-size="14.00">on_pi : bool, NoneType</text>
<text text-anchor="start" x="1417" y="-767.3" font-family="Times,serif" font-size="14.00">sequence</text>
<text text-anchor="start" x="1417" y="-752.3" font-family="Times,serif" font-size="14.00">sequence : NoneType, ndarray</text>
<text text-anchor="start" x="1417" y="-737.3" font-family="Times,serif" font-size="14.00">settings : dict</text>
<text text-anchor="start" x="1417" y="-722.3" font-family="Times,serif" font-size="14.00">soh_logger : RootLogger, NoneType</text>
<text text-anchor="start" x="1417" y="-707.3" font-family="Times,serif" font-size="14.00">status : str</text>
<text text-anchor="start" x="1417" y="-692.3" font-family="Times,serif" font-size="14.00">thread : Thread, NoneType</text>
<polyline fill="none" stroke="black" points="1409,-684.5 2182,-684.5 "/>
<text text-anchor="start" x="1417" y="-669.3" font-family="Times,serif" font-size="14.00">append_and_save(filename, last_measurement, cmd_id)</text>
<text text-anchor="start" x="1417" y="-654.3" font-family="Times,serif" font-size="14.00">get_data(survey_names, cmd_id)</text>
<text text-anchor="start" x="1417" y="-639.3" font-family="Times,serif" font-size="14.00">get_deprecated_methods(cls)</text>
<text text-anchor="start" x="1417" y="-624.3" font-family="Times,serif" font-size="14.00">interrupt(cmd_id)</text>
<text text-anchor="start" x="1417" y="-609.3" font-family="Times,serif" font-size="14.00">load_sequence(filename, cmd_id)</text>
<text text-anchor="start" x="1417" y="-594.3" font-family="Times,serif" font-size="14.00">quit(cmd_id)</text>
<text text-anchor="start" x="1417" y="-579.3" font-family="Times,serif" font-size="14.00">remove_data(cmd_id)</text>
<text text-anchor="start" x="1417" y="-564.3" font-family="Times,serif" font-size="14.00">reset_mux(cmd_id)</text>
<text text-anchor="start" x="1417" y="-549.3" font-family="Times,serif" font-size="14.00">restart(cmd_id)</text>
<text text-anchor="start" x="1417" y="-534.3" font-family="Times,serif" font-size="14.00">rs_check(tx_volt, cmd_id)</text>
<text text-anchor="start" x="1417" y="-519.3" font-family="Times,serif" font-size="14.00">run_measurement(quad, nb_stack, injection_duration, autogain, strategy, tx_volt, best_tx_injtime, cmd_id)</text>
<text text-anchor="start" x="1417" y="-504.3" font-family="Times,serif" font-size="14.00">run_multiple_sequences(cmd_id, sequence_delay, nb_meas)</text>
<text text-anchor="start" x="1417" y="-489.3" font-family="Times,serif" font-size="14.00">run_sequence(cmd_id)</text>
<text text-anchor="start" x="1417" y="-474.3" font-family="Times,serif" font-size="14.00">run_sequence_async(cmd_id)</text>
<text text-anchor="start" x="1417" y="-459.3" font-family="Times,serif" font-size="14.00">set_sequence(sequence, cmd_id)</text>
<text text-anchor="start" x="1417" y="-444.3" font-family="Times,serif" font-size="14.00">switch_mux_off(quadrupole, cmd_id)</text>
<text text-anchor="start" x="1417" y="-429.3" font-family="Times,serif" font-size="14.00">switch_mux_on(quadrupole, bypass_check, cmd_id)</text>
<text text-anchor="start" x="1417" y="-414.3" font-family="Times,serif" font-size="14.00">test_mux(activation_time, mux_id, cmd_id)</text>
<text text-anchor="start" x="1417" y="-399.3" font-family="Times,serif" font-size="14.00">update_settings(settings, cmd_id)</text>
</g>
<!-- 11 -->
<g id="node12" class="node">
<title>11</title>
<polygon fill="none" stroke="black" points="1465.5,-0.5 1465.5,-339.5 2125.5,-339.5 2125.5,-0.5 1465.5,-0.5"/>
<text text-anchor="middle" x="1795.5" y="-324.3" font-family="Times,serif" font-size="14.00">OhmPiHardware</text>
<polyline fill="none" stroke="black" points="1465.5,-316.5 2125.5,-316.5 "/>
<text text-anchor="start" x="1473.5" y="-301.3" font-family="Times,serif" font-size="14.00">ctl</text>
<text text-anchor="start" x="1473.5" y="-286.3" font-family="Times,serif" font-size="14.00">data_logger</text>
<text text-anchor="start" x="1473.5" y="-271.3" font-family="Times,serif" font-size="14.00">exec_logger</text>
<text text-anchor="start" x="1473.5" y="-256.3" font-family="Times,serif" font-size="14.00">mux_barrier : Barrier</text>
<text text-anchor="start" x="1473.5" y="-241.3" font-family="Times,serif" font-size="14.00">mux_boards : dict</text>
<text text-anchor="start" x="1473.5" y="-226.3" font-family="Times,serif" font-size="14.00">pulses</text>
<text text-anchor="start" x="1473.5" y="-211.3" font-family="Times,serif" font-size="14.00">pwr</text>
<text text-anchor="start" x="1473.5" y="-196.3" font-family="Times,serif" font-size="14.00">readings : ndarray</text>
<text text-anchor="start" x="1473.5" y="-181.3" font-family="Times,serif" font-size="14.00">rx</text>
<text text-anchor="start" x="1473.5" y="-166.3" font-family="Times,serif" font-size="14.00">soh_logger</text>
<text text-anchor="start" x="1473.5" y="-151.3" font-family="Times,serif" font-size="14.00">sp</text>
<text text-anchor="start" x="1473.5" y="-136.3" font-family="Times,serif" font-size="14.00">tx</text>
<text text-anchor="start" x="1473.5" y="-121.3" font-family="Times,serif" font-size="14.00">tx_sync : Event</text>
<polyline fill="none" stroke="black" points="1465.5,-113.5 2125.5,-113.5 "/>
<text text-anchor="start" x="1473.5" y="-98.3" font-family="Times,serif" font-size="14.00">calibrate_rx_bias()</text>
<text text-anchor="start" x="1473.5" y="-83.3" font-family="Times,serif" font-size="14.00">last_dev(delay)</text>
<text text-anchor="start" x="1473.5" y="-68.3" font-family="Times,serif" font-size="14.00">last_resistance(delay)</text>
<text text-anchor="start" x="1473.5" y="-53.3" font-family="Times,serif" font-size="14.00">reset_mux()</text>
<text text-anchor="start" x="1473.5" y="-38.3" font-family="Times,serif" font-size="14.00">switch_mux(electrodes, roles, state)</text>
<text text-anchor="start" x="1473.5" y="-23.3" font-family="Times,serif" font-size="14.00">test_mux(channel, activation_time)</text>
<text text-anchor="start" x="1473.5" y="-8.3" font-family="Times,serif" font-size="14.00">vab_square_wave(vab, cycle_duration, sampling_rate, cycles, polarity, duty_cycle, append)</text>
</g>
<!-- 11&#45;&gt;10 -->
<g id="edge14" class="edge">
<title>11&#45;&gt;10</title>
<path fill="none" stroke="black" d="M1795.5,-339.79C1795.5,-352.61 1795.5,-365.73 1795.5,-378.99"/>
<polygon fill="black" stroke="black" points="1795.5,-379.21 1799.5,-385.21 1795.5,-391.21 1791.5,-385.21 1795.5,-379.21"/>
<text text-anchor="middle" x="1809.5" y="-361.8" font-family="Times,serif" font-size="14.00" fill="green">_hw</text>
</g>
<!-- 12 -->
<g id="node13" class="node">
<title>12</title>
<polygon fill="none" stroke="black" points="2193.5,-90.5 2193.5,-249.5 2387.5,-249.5 2387.5,-90.5 2193.5,-90.5"/>
<text text-anchor="middle" x="2290.5" y="-234.3" font-family="Times,serif" font-size="14.00">Pwr</text>
<polyline fill="none" stroke="black" points="2193.5,-226.5 2387.5,-226.5 "/>
<text text-anchor="start" x="2201.5" y="-211.3" font-family="Times,serif" font-size="14.00">current</text>
<text text-anchor="start" x="2201.5" y="-196.3" font-family="Times,serif" font-size="14.00">current_adjustable : bool</text>
<text text-anchor="start" x="2201.5" y="-181.3" font-family="Times,serif" font-size="14.00">voltage</text>
<text text-anchor="start" x="2201.5" y="-166.3" font-family="Times,serif" font-size="14.00">voltage_adjustable : bool</text>
<polyline fill="none" stroke="black" points="2193.5,-158.5 2387.5,-158.5 "/>
<text text-anchor="start" x="2201.5" y="-143.3" font-family="Times,serif" font-size="14.00">battery_voltage()</text>
<text text-anchor="start" x="2201.5" y="-128.3" font-family="Times,serif" font-size="14.00">current_max(value)</text>
<text text-anchor="start" x="2201.5" y="-113.3" font-family="Times,serif" font-size="14.00">turn_off()</text>
<text text-anchor="start" x="2201.5" y="-98.3" font-family="Times,serif" font-size="14.00">turn_on()</text>
</g>
<!-- 14 -->
<g id="node15" class="node">
<title>14</title>
<polygon fill="none" stroke="black" points="2200.5,-564 2200.5,-753 2478.5,-753 2478.5,-564 2200.5,-564"/>
<text text-anchor="middle" x="2339.5" y="-737.8" font-family="Times,serif" font-size="14.00">PwrAbstract</text>
<polyline fill="none" stroke="black" points="2200.5,-730 2478.5,-730 "/>
<text text-anchor="start" x="2208.5" y="-714.8" font-family="Times,serif" font-size="14.00">connection</text>
<text text-anchor="start" x="2208.5" y="-699.8" font-family="Times,serif" font-size="14.00">current</text>
<text text-anchor="start" x="2208.5" y="-684.8" font-family="Times,serif" font-size="14.00">current_adjustable</text>
<text text-anchor="start" x="2208.5" y="-669.8" font-family="Times,serif" font-size="14.00">exec_logger : RootLogger, NoneType</text>
<text text-anchor="start" x="2208.5" y="-654.8" font-family="Times,serif" font-size="14.00">model</text>
<text text-anchor="start" x="2208.5" y="-639.8" font-family="Times,serif" font-size="14.00">soh_logger : RootLogger, NoneType</text>
<text text-anchor="start" x="2208.5" y="-624.8" font-family="Times,serif" font-size="14.00">voltage</text>
<text text-anchor="start" x="2208.5" y="-609.8" font-family="Times,serif" font-size="14.00">voltage_adjustable</text>
<polyline fill="none" stroke="black" points="2200.5,-602 2478.5,-602 "/>
<text text-anchor="start" x="2208.5" y="-586.8" font-family="Times,serif" font-size="14.00">turn_off()</text>
<text text-anchor="start" x="2208.5" y="-571.8" font-family="Times,serif" font-size="14.00">turn_on()</text>
</g>
<!-- 12&#45;&gt;14 -->
<g id="edge6" class="edge">
<title>12&#45;&gt;14</title>
<path fill="none" stroke="black" d="M2298.43,-249.71C2306.76,-332.39 2319.89,-462.83 2329.06,-553.85"/>
<polygon fill="none" stroke="black" points="2325.59,-554.32 2330.07,-563.92 2332.55,-553.62 2325.59,-554.32"/>
</g>
<!-- 13 -->
<g id="node14" class="node">
<title>13</title>
<polygon fill="none" stroke="black" points="2406,-120.5 2406,-219.5 2489,-219.5 2489,-120.5 2406,-120.5"/>
<text text-anchor="middle" x="2447.5" y="-204.3" font-family="Times,serif" font-size="14.00">Pwr</text>
<polyline fill="none" stroke="black" points="2406,-196.5 2489,-196.5 "/>
<text text-anchor="start" x="2414" y="-181.3" font-family="Times,serif" font-size="14.00">current</text>
<text text-anchor="start" x="2414" y="-166.3" font-family="Times,serif" font-size="14.00">voltage</text>
<polyline fill="none" stroke="black" points="2406,-158.5 2489,-158.5 "/>
<text text-anchor="start" x="2414" y="-143.3" font-family="Times,serif" font-size="14.00">turn_off()</text>
<text text-anchor="start" x="2414" y="-128.3" font-family="Times,serif" font-size="14.00">turn_on()</text>
</g>
<!-- 13&#45;&gt;14 -->
<g id="edge7" class="edge">
<title>13&#45;&gt;14</title>
<path fill="none" stroke="black" d="M2436.65,-219.87C2419.39,-297.61 2385.32,-451.12 2362.46,-554.05"/>
<polygon fill="none" stroke="black" points="2359.04,-553.33 2360.29,-563.85 2365.87,-554.85 2359.04,-553.33"/>
</g>
<!-- 15 -->
<g id="node16" class="node">
<title>15</title>
<polygon fill="none" stroke="black" points="2642.5,-609 2642.5,-708 2764.5,-708 2764.5,-609 2642.5,-609"/>
<text text-anchor="middle" x="2703.5" y="-692.8" font-family="Times,serif" font-size="14.00">Rx</text>
<polyline fill="none" stroke="black" points="2642.5,-685 2764.5,-685 "/>
<text text-anchor="start" x="2650.5" y="-669.8" font-family="Times,serif" font-size="14.00">gain</text>
<text text-anchor="start" x="2650.5" y="-654.8" font-family="Times,serif" font-size="14.00">gain : int, float</text>
<text text-anchor="start" x="2650.5" y="-639.8" font-family="Times,serif" font-size="14.00">voltage</text>
<polyline fill="none" stroke="black" points="2642.5,-632 2764.5,-632 "/>
<text text-anchor="start" x="2650.5" y="-616.8" font-family="Times,serif" font-size="14.00">gain_auto()</text>
</g>
<!-- 18 -->
<g id="node19" class="node">
<title>18</title>
<polygon fill="none" stroke="black" points="2469.5,-1008.5 2469.5,-1167.5 2747.5,-1167.5 2747.5,-1008.5 2469.5,-1008.5"/>
<text text-anchor="middle" x="2608.5" y="-1152.3" font-family="Times,serif" font-size="14.00">RxAbstract</text>
<polyline fill="none" stroke="black" points="2469.5,-1144.5 2747.5,-1144.5 "/>
<text text-anchor="start" x="2477.5" y="-1129.3" font-family="Times,serif" font-size="14.00">adc_gain</text>
<text text-anchor="start" x="2477.5" y="-1114.3" font-family="Times,serif" font-size="14.00">connection</text>
<text text-anchor="start" x="2477.5" y="-1099.3" font-family="Times,serif" font-size="14.00">exec_logger : RootLogger, NoneType</text>
<text text-anchor="start" x="2477.5" y="-1084.3" font-family="Times,serif" font-size="14.00">model</text>
<text text-anchor="start" x="2477.5" y="-1069.3" font-family="Times,serif" font-size="14.00">sampling_rate</text>
<text text-anchor="start" x="2477.5" y="-1054.3" font-family="Times,serif" font-size="14.00">soh_logger : RootLogger, NoneType</text>
<text text-anchor="start" x="2477.5" y="-1039.3" font-family="Times,serif" font-size="14.00">voltage</text>
<polyline fill="none" stroke="black" points="2469.5,-1031.5 2747.5,-1031.5 "/>
<text text-anchor="middle" x="2608.5" y="-1016.3" font-family="Times,serif" font-size="14.00"> </text>
</g>
<!-- 15&#45;&gt;18 -->
<g id="edge8" class="edge">
<title>15&#45;&gt;18</title>
<path fill="none" stroke="black" d="M2692.69,-708.12C2677.03,-778.61 2647.76,-910.35 2628.19,-998.38"/>
<polygon fill="none" stroke="black" points="2624.73,-997.84 2625.98,-1008.36 2631.56,-999.36 2624.73,-997.84"/>
</g>
<!-- 16 -->
<g id="node17" class="node">
<title>16</title>
<polygon fill="none" stroke="black" points="2496.5,-609 2496.5,-708 2624.5,-708 2624.5,-609 2496.5,-609"/>
<text text-anchor="middle" x="2560.5" y="-692.8" font-family="Times,serif" font-size="14.00">Rx</text>
<polyline fill="none" stroke="black" points="2496.5,-685 2624.5,-685 "/>
<text text-anchor="start" x="2504.5" y="-669.8" font-family="Times,serif" font-size="14.00">adc_gain</text>
<text text-anchor="start" x="2504.5" y="-654.8" font-family="Times,serif" font-size="14.00">adc_gain : float</text>
<text text-anchor="start" x="2504.5" y="-639.8" font-family="Times,serif" font-size="14.00">voltage</text>
<polyline fill="none" stroke="black" points="2496.5,-632 2624.5,-632 "/>
<text text-anchor="start" x="2504.5" y="-616.8" font-family="Times,serif" font-size="14.00">adc_gain_auto()</text>
</g>
<!-- 16&#45;&gt;18 -->
<g id="edge9" class="edge">
<title>16&#45;&gt;18</title>
<path fill="none" stroke="black" d="M2565.96,-708.12C2573.87,-778.61 2588.67,-910.35 2598.55,-998.38"/>
<polygon fill="none" stroke="black" points="2595.08,-998.81 2599.67,-1008.36 2602.03,-998.03 2595.08,-998.81"/>
</g>
<!-- 17 -->
<g id="node18" class="node">
<title>17</title>
<polygon fill="none" stroke="black" points="2609.5,-90.5 2609.5,-249.5 2797.5,-249.5 2797.5,-90.5 2609.5,-90.5"/>
<text text-anchor="middle" x="2703.5" y="-234.3" font-family="Times,serif" font-size="14.00">Rx</text>
<polyline fill="none" stroke="black" points="2609.5,-226.5 2797.5,-226.5 "/>
<text text-anchor="start" x="2617.5" y="-211.3" font-family="Times,serif" font-size="14.00">gain</text>
<text text-anchor="start" x="2617.5" y="-196.3" font-family="Times,serif" font-size="14.00">gain : int, float</text>
<text text-anchor="start" x="2617.5" y="-181.3" font-family="Times,serif" font-size="14.00">mcp_board : MCP23008</text>
<text text-anchor="start" x="2617.5" y="-166.3" font-family="Times,serif" font-size="14.00">pin_DG0 : DigitalInOut</text>
<text text-anchor="start" x="2617.5" y="-151.3" font-family="Times,serif" font-size="14.00">pin_DG1 : DigitalInOut</text>
<text text-anchor="start" x="2617.5" y="-136.3" font-family="Times,serif" font-size="14.00">pin_DG2 : DigitalInOut</text>
<text text-anchor="start" x="2617.5" y="-121.3" font-family="Times,serif" font-size="14.00">voltage</text>
<polyline fill="none" stroke="black" points="2609.5,-113.5 2797.5,-113.5 "/>
<text text-anchor="start" x="2617.5" y="-98.3" font-family="Times,serif" font-size="14.00">gain_auto()</text>
</g>
<!-- 17&#45;&gt;15 -->
<g id="edge10" class="edge">
<title>17&#45;&gt;15</title>
<path fill="none" stroke="black" d="M2703.5,-249.71C2703.5,-347.26 2703.5,-511.28 2703.5,-598.62"/>
<polygon fill="none" stroke="black" points="2700,-598.88 2703.5,-608.88 2707,-598.88 2700,-598.88"/>
</g>
<!-- 19 -->
<g id="node20" class="node">
<title>19</title>
<polygon fill="none" stroke="black" points="3110.5,-489 3110.5,-828 3406.5,-828 3406.5,-489 3110.5,-489"/>
<text text-anchor="middle" x="3258.5" y="-812.8" font-family="Times,serif" font-size="14.00">Tx</text>
<polyline fill="none" stroke="black" points="3110.5,-805 3406.5,-805 "/>
<text text-anchor="start" x="3118.5" y="-789.8" font-family="Times,serif" font-size="14.00">adc_voltage_max</text>
<text text-anchor="start" x="3118.5" y="-774.8" font-family="Times,serif" font-size="14.00">adc_voltage_min</text>
<text text-anchor="start" x="3118.5" y="-759.8" font-family="Times,serif" font-size="14.00">current</text>
<text text-anchor="start" x="3118.5" y="-744.8" font-family="Times,serif" font-size="14.00">current_adjustable : bool</text>
<text text-anchor="start" x="3118.5" y="-729.8" font-family="Times,serif" font-size="14.00">gain</text>
<text text-anchor="start" x="3118.5" y="-714.8" font-family="Times,serif" font-size="14.00">gain : int, float</text>
<text text-anchor="start" x="3118.5" y="-699.8" font-family="Times,serif" font-size="14.00">mcp_board : MCP23008</text>
<text text-anchor="start" x="3118.5" y="-684.8" font-family="Times,serif" font-size="14.00">pin0 : DigitalInOut</text>
<text text-anchor="start" x="3118.5" y="-669.8" font-family="Times,serif" font-size="14.00">pin1 : DigitalInOut</text>
<text text-anchor="start" x="3118.5" y="-654.8" font-family="Times,serif" font-size="14.00">polarity</text>
<text text-anchor="start" x="3118.5" y="-639.8" font-family="Times,serif" font-size="14.00">polarity : int</text>
<text text-anchor="start" x="3118.5" y="-624.8" font-family="Times,serif" font-size="14.00">r_shunt</text>
<text text-anchor="start" x="3118.5" y="-609.8" font-family="Times,serif" font-size="14.00">tx_bat</text>
<text text-anchor="start" x="3118.5" y="-594.8" font-family="Times,serif" font-size="14.00">voltage_adjustable : bool</text>
<polyline fill="none" stroke="black" points="3110.5,-587 3406.5,-587 "/>
<text text-anchor="start" x="3118.5" y="-571.8" font-family="Times,serif" font-size="14.00">current_pulse()</text>
<text text-anchor="start" x="3118.5" y="-556.8" font-family="Times,serif" font-size="14.00">gain_auto()</text>
<text text-anchor="start" x="3118.5" y="-541.8" font-family="Times,serif" font-size="14.00">inject(polarity, injection_duration)</text>
<text text-anchor="start" x="3118.5" y="-526.8" font-family="Times,serif" font-size="14.00">turn_off()</text>
<text text-anchor="start" x="3118.5" y="-511.8" font-family="Times,serif" font-size="14.00">turn_on()</text>
<text text-anchor="start" x="3118.5" y="-496.8" font-family="Times,serif" font-size="14.00">voltage_pulse(voltage, length, polarity)</text>
</g>
<!-- 22 -->
<g id="node23" class="node">
<title>22</title>
<polygon fill="none" stroke="black" points="2797.5,-963.5 2797.5,-1212.5 3145.5,-1212.5 3145.5,-963.5 2797.5,-963.5"/>
<text text-anchor="middle" x="2971.5" y="-1197.3" font-family="Times,serif" font-size="14.00">TxAbstract</text>
<polyline fill="none" stroke="black" points="2797.5,-1189.5 3145.5,-1189.5 "/>
<text text-anchor="start" x="2805.5" y="-1174.3" font-family="Times,serif" font-size="14.00">adc_gain</text>
<text text-anchor="start" x="2805.5" y="-1159.3" font-family="Times,serif" font-size="14.00">connection</text>
<text text-anchor="start" x="2805.5" y="-1144.3" font-family="Times,serif" font-size="14.00">exec_logger : RootLogger, NoneType</text>
<text text-anchor="start" x="2805.5" y="-1129.3" font-family="Times,serif" font-size="14.00">injection_duration</text>
<text text-anchor="start" x="2805.5" y="-1114.3" font-family="Times,serif" font-size="14.00">injection_duration</text>
<text text-anchor="start" x="2805.5" y="-1099.3" font-family="Times,serif" font-size="14.00">model</text>
<text text-anchor="start" x="2805.5" y="-1084.3" font-family="Times,serif" font-size="14.00">polarity</text>
<text text-anchor="start" x="2805.5" y="-1069.3" font-family="Times,serif" font-size="14.00">pwr</text>
<text text-anchor="start" x="2805.5" y="-1054.3" font-family="Times,serif" font-size="14.00">soh_logger : RootLogger, NoneType</text>
<text text-anchor="start" x="2805.5" y="-1039.3" font-family="Times,serif" font-size="14.00">tx_bat</text>
<text text-anchor="start" x="2805.5" y="-1024.3" font-family="Times,serif" font-size="14.00">tx_sync</text>
<polyline fill="none" stroke="black" points="2797.5,-1016.5 3145.5,-1016.5 "/>
<text text-anchor="start" x="2805.5" y="-1001.3" font-family="Times,serif" font-size="14.00">current_pulse()</text>
<text text-anchor="start" x="2805.5" y="-986.3" font-family="Times,serif" font-size="14.00">inject(polarity, injection_duration, switch_pwr)</text>
<text text-anchor="start" x="2805.5" y="-971.3" font-family="Times,serif" font-size="14.00">voltage_pulse(voltage, length, polarity)</text>
</g>
<!-- 19&#45;&gt;22 -->
<g id="edge11" class="edge">
<title>19&#45;&gt;22</title>
<path fill="none" stroke="black" d="M3164.19,-828.18C3144.34,-861.17 3122.9,-895.1 3101.5,-926 3094.87,-935.57 3087.83,-945.31 3080.6,-955"/>
<polygon fill="none" stroke="black" points="3077.69,-953.04 3074.48,-963.13 3083.29,-957.25 3077.69,-953.04"/>
</g>
<!-- 20 -->
<g id="node21" class="node">
<title>20</title>
<polygon fill="none" stroke="black" points="2796.5,-564 2796.5,-753 3092.5,-753 3092.5,-564 2796.5,-564"/>
<text text-anchor="middle" x="2944.5" y="-737.8" font-family="Times,serif" font-size="14.00">Tx</text>
<polyline fill="none" stroke="black" points="2796.5,-730 3092.5,-730 "/>
<text text-anchor="start" x="2804.5" y="-714.8" font-family="Times,serif" font-size="14.00">adc_gain</text>
<text text-anchor="start" x="2804.5" y="-699.8" font-family="Times,serif" font-size="14.00">adc_gain : float</text>
<text text-anchor="start" x="2804.5" y="-684.8" font-family="Times,serif" font-size="14.00">current</text>
<text text-anchor="start" x="2804.5" y="-669.8" font-family="Times,serif" font-size="14.00">polarity : int</text>
<text text-anchor="start" x="2804.5" y="-654.8" font-family="Times,serif" font-size="14.00">tx_bat</text>
<text text-anchor="start" x="2804.5" y="-639.8" font-family="Times,serif" font-size="14.00">voltage</text>
<polyline fill="none" stroke="black" points="2796.5,-632 3092.5,-632 "/>
<text text-anchor="start" x="2804.5" y="-616.8" font-family="Times,serif" font-size="14.00">adc_gain_auto()</text>
<text text-anchor="start" x="2804.5" y="-601.8" font-family="Times,serif" font-size="14.00">current_pulse()</text>
<text text-anchor="start" x="2804.5" y="-586.8" font-family="Times,serif" font-size="14.00">inject(state)</text>
<text text-anchor="start" x="2804.5" y="-571.8" font-family="Times,serif" font-size="14.00">voltage_pulse(voltage, length, polarity)</text>
</g>
<!-- 20&#45;&gt;22 -->
<g id="edge12" class="edge">
<title>20&#45;&gt;22</title>
<path fill="none" stroke="black" d="M2950.41,-753.05C2954.11,-811.6 2958.93,-887.97 2963.03,-952.9"/>
<polygon fill="none" stroke="black" points="2959.56,-953.46 2963.68,-963.22 2966.54,-953.02 2959.56,-953.46"/>
</g>
<!-- 21 -->
<g id="node22" class="node">
<title>21</title>
<polygon fill="none" stroke="black" points="3129.5,-128 3129.5,-212 3387.5,-212 3387.5,-128 3129.5,-128"/>
<text text-anchor="middle" x="3258.5" y="-196.8" font-family="Times,serif" font-size="14.00">Tx</text>
<polyline fill="none" stroke="black" points="3129.5,-189 3387.5,-189 "/>
<text text-anchor="start" x="3137.5" y="-173.8" font-family="Times,serif" font-size="14.00">pin4 : DigitalInOut</text>
<text text-anchor="start" x="3137.5" y="-158.8" font-family="Times,serif" font-size="14.00">pin6 : DigitalInOut</text>
<polyline fill="none" stroke="black" points="3129.5,-151 3387.5,-151 "/>
<text text-anchor="start" x="3137.5" y="-135.8" font-family="Times,serif" font-size="14.00">inject(polarity, injection_duration)</text>
</g>
<!-- 21&#45;&gt;19 -->
<g id="edge13" class="edge">
<title>21&#45;&gt;19</title>
<path fill="none" stroke="black" d="M3258.5,-212.06C3258.5,-270.69 3258.5,-382.01 3258.5,-478.7"/>
<polygon fill="none" stroke="black" points="3255,-478.9 3258.5,-488.9 3262,-478.9 3255,-478.9"/>
</g>
</g>
</svg>
