; NON-PLATED HOLES START AT T1
; THROUGH (PLATED) HOLES START AT T100
M48
INCH
T1C0.125984
T100C0.043307
T101C0.039370
T102C0.015748
T103C0.035000
T104C0.032000
T105C0.051181
T106C0.038000
T107C0.030000
%
T1
X055975Y131471
X110142Y002731
X055975Y074875
X002267Y074875
X002267Y002337
X110142Y144463
X110142Y074875
X055975Y018085
X002267Y144068
T100
X026496Y138557
X045861Y138938
X077640Y138937
X050861Y138938
X051861Y137938
X003850Y130303
X104402Y138960
X003055Y027533
X076640Y138937
X103402Y138960
X048861Y138938
X105402Y138960
X022496Y137557
X022496Y138557
X021496Y138557
X072640Y138937
X049861Y138938
X099401Y138960
X025496Y138557
X046861Y137938
X024496Y138557
X075640Y137937
X051861Y138938
X100402Y138960
X079640Y137937
X003850Y124004
X078640Y137937
X103402Y137960
X106402Y138960
X003055Y025565
X046861Y138938
X079640Y138937
X075640Y138937
X072640Y137937
X047861Y138938
X020496Y138557
X052861Y137938
X100402Y137960
X045861Y137938
X101402Y138960
X073640Y138937
X048861Y137938
X102402Y138960
X047861Y137938
X003850Y128334
X074640Y137937
X019496Y137557
X078640Y138937
X003850Y122035
X073640Y137937
X023496Y138557
X021496Y137557
X025496Y137557
X050861Y137938
X076640Y137937
X019496Y138557
X102402Y137960
X024496Y137557
X099401Y137960
X074640Y138937
X023496Y137557
X020496Y137557
X052861Y138938
X077640Y137937
X026496Y137557
X101402Y137960
X105402Y137960
X049861Y137938
X106402Y137960
X104402Y137960
T101
X034157Y004306
X066042Y026668
X055661Y008337
X066042Y084606
X066006Y064228
X039263Y127521
X066042Y131519
X092767Y060252
X048661Y002337
X012897Y113754
X039263Y091300
X066042Y127519
X039263Y100749
X039263Y131521
X092803Y037386
X053661Y008337
X092803Y091323
X092803Y046772
X052661Y008337
X012897Y127140
X012897Y090919
X039263Y077914
X092803Y026693
X039263Y040057
X012897Y100368
X047661Y002337
X092803Y107464
X012897Y093675
X051661Y002337
X039263Y050750
X066042Y050748
X052661Y002337
X066051Y057505
X012897Y117754
X053661Y002337
X035157Y003306
X034157Y003306
X056661Y008337
X092803Y131543
X036157Y004306
X092803Y040079
X039263Y037364
X039263Y044057
X056661Y002337
X058661Y002337
X092803Y127543
X012897Y073534
X012862Y059848
X039227Y060229
X039236Y070924
X050661Y008337
X012897Y043676
X039263Y118135
X049661Y002337
X012897Y030290
X012862Y063848
X012897Y097675
X039267Y124814
X012897Y084226
X012897Y050369
X066042Y033362
X092803Y104771
X039236Y066924
X066042Y030668
X012897Y032983
X066046Y124813
X039263Y030671
X092803Y033386
X039263Y087300
X039263Y080607
X039263Y094056
X066042Y073913
X039272Y053507
X012897Y107061
X066042Y040055
X066042Y100748
X047661Y008337
X012871Y070543
X092803Y080630
X048661Y008337
X066042Y107441
X035157Y004306
X092803Y094078
X092803Y114157
X054661Y008337
X012897Y086919
X039272Y057507
X012897Y131140
X092803Y111464
X092803Y077937
X012897Y026290
X039263Y073914
X066042Y118133
X012901Y124434
X066042Y091299
X066015Y066922
X049661Y008337
X092803Y073937
X012897Y039676
X066051Y053505
X066042Y104748
X066042Y111441
X066042Y098055
X092812Y053529
X039263Y114135
X092803Y087323
X092776Y070946
X058661Y008337
X092803Y084630
X092803Y044079
X092812Y057529
X039263Y033364
X012897Y111061
X066042Y077913
X039263Y111442
X039263Y084607
X039267Y120814
X039263Y026671
X092803Y098078
X057661Y002337
X012906Y057126
X055661Y002337
X092776Y066946
X066042Y080606
X012906Y053126
X066042Y046748
X039263Y046750
X012897Y080226
X066042Y087299
X066046Y120813
X039263Y098056
X092803Y118157
X092803Y100771
X092803Y030693
X092807Y124837
X012897Y046369
X057661Y008337
X092767Y064252
X012897Y104368
X012897Y077534
X012901Y120434
X092803Y050772
X012897Y036983
X066015Y070922
X036157Y003306
X066006Y060228
X054661Y002337
X039227Y064229
X066042Y094055
X066042Y044055
X050661Y002337
X066042Y114133
X039263Y107442
X092807Y120837
X066042Y037362
X051661Y008337
X039263Y104749
X012871Y066543
T102
X044393Y027928
X071165Y027928
X020771Y027928
T103
X011661Y114675
X064472Y068282
X091441Y091360
X011582Y056927
X064472Y081864
X038094Y057305
X091441Y078171
X091637Y054896
X091441Y068282
X064472Y084864
X011858Y087707
X038094Y074581
X016378Y024046
X091637Y048006
X064472Y077974
X011701Y110825
X007322Y129163
X011701Y107825
X011779Y074321
X011858Y090707
X034110Y123203
X038094Y040920
X091637Y051006
X091047Y027533
X038094Y037424
X038094Y094856
X063488Y027140
X091441Y095250
X011779Y077321
X064472Y041117
X091637Y037621
X064472Y057699
X064472Y101943
X037110Y124581
X064472Y095250
X011858Y084014
X038094Y067888
X064472Y108636
X064472Y037424
X064472Y118329
X038094Y087967
X038094Y115132
X091441Y118526
X091637Y057896
X038094Y097856
X038094Y034424
X064472Y061589
X063488Y030140
X038094Y081471
X011701Y097439
X011779Y043487
X038094Y108242
X091441Y122219
X091441Y075171
X011701Y094439
X089275Y128911
X091441Y125219
X091441Y101943
X038094Y101549
X011622Y070628
X038094Y061195
X064472Y088557
X038094Y050612
X091637Y041313
X064472Y044117
X091441Y084667
X038094Y077581
X011740Y124486
X064669Y050809
X059504Y128321
X036913Y030337
X019378Y024046
X038094Y104549
X091441Y108636
X091441Y104943
X011858Y081014
X064472Y074974
X011858Y036676
X038094Y047612
X011661Y117675
X010322Y129163
X064669Y122219
X091441Y098250
X011819Y050195
X038094Y111242
X064472Y054699
X091441Y115526
X011661Y063935
X011819Y047195
X091637Y044313
X011701Y104132
X038094Y043920
X037110Y123203
X064472Y111636
X091441Y081667
X011740Y121486
X091047Y030533
X064472Y091557
X011779Y040487
X011858Y033676
X091637Y064785
X091441Y088360
X062504Y128321
X064472Y064589
X091441Y071282
X038094Y070888
X036913Y027337
X064669Y047809
X064472Y071282
X064472Y115329
X091637Y061785
X091441Y111636
X064472Y104943
X064669Y125219
X064472Y098250
X091637Y034621
X011622Y067628
X011701Y101132
X038094Y118132
X038094Y090967
X064472Y034424
X038094Y064195
X038094Y054305
X086275Y128911
X034110Y124581
X011661Y060935
X011582Y053927
X038094Y084471
T104
X011327Y120646
X011285Y066616
X036938Y093375
X010535Y052337
X063717Y093374
X064430Y033138
X091190Y066019
X064430Y060303
X063717Y106759
X064467Y106259
X036900Y032638
X091190Y072712
X037650Y053218
X036938Y026053
X091190Y032162
X011322Y113573
X091190Y073712
X064430Y079381
X036900Y079883
X036938Y113454
X091228Y099590
X037650Y038832
X037688Y113954
X036938Y100068
X064467Y107259
X010535Y072809
X037688Y093875
X037650Y066997
X010572Y126852
X064430Y065996
X011322Y099187
X010535Y038951
X064467Y099566
X064430Y052216
X011285Y072309
X091228Y106283
X037650Y086076
X037688Y112954
X011322Y126352
X010572Y106380
X090478Y026075
X091190Y060326
X037650Y060304
X064430Y038831
X064430Y080381
X037650Y073690
X091232Y120049
X011285Y039451
X063680Y086574
X063717Y113452
X063680Y066496
X010572Y025672
X037688Y106261
X037650Y032138
X010572Y092994
X064430Y059303
X090478Y106783
X064467Y127732
X064430Y086074
X011322Y025172
X011285Y032758
X011285Y065616
X011285Y052837
X090440Y059826
X010535Y079502
X010535Y086195
X037688Y099568
X010577Y120146
X064467Y025551
X011322Y026172
X091190Y087098
X011285Y058923
X090482Y120549
X091190Y079405
X063680Y073189
X011322Y100187
X090440Y073212
X091228Y093897
X037688Y126733
X011322Y045250
X011285Y051837
X090440Y032662
X037650Y039832
X011322Y092494
X037688Y092875
X063721Y120526
X037688Y025553
X011322Y093494
X091228Y113976
X037692Y120027
X011285Y073309
X063680Y059803
X091190Y086098
X091190Y033162
X037688Y045631
X037688Y107261
X063717Y046130
X037650Y087076
X090440Y086598
X091190Y053240
X091190Y080405
X091190Y052240
X063717Y100066
X091228Y045654
X011285Y080002
X064430Y066996
X090440Y039354
X037650Y072690
X010572Y099687
X037688Y046631
X011285Y031758
X090440Y052740
X011285Y086695
X091190Y059326
X036900Y066497
X064467Y046630
X036900Y059804
X064430Y032138
X011285Y059923
X090478Y100090
X037650Y079383
X011285Y079002
X036938Y127233
X064467Y100566
X090440Y079905
X036900Y073190
X064430Y072689
X037688Y127733
X091190Y038854
X036900Y086576
X091228Y100590
X011322Y105880
X064430Y053216
X037692Y121027
X064430Y087074
X064471Y120026
X064471Y121026
X091190Y039854
X037650Y080383
X063680Y032638
X064467Y112952
X037650Y052218
X010572Y045750
X064430Y073689
X010535Y059423
X064467Y026551
X011322Y046250
X011322Y106880
X090478Y127256
X010535Y032258
X010535Y066116
X090478Y093397
X091228Y126756
X036900Y039332
X036900Y052718
X090478Y046154
X036942Y120527
X011285Y038451
X064467Y093874
X090478Y113476
X090440Y066519
X064467Y092874
X036938Y106761
X064430Y039831
X037650Y065997
X091228Y107283
X091228Y112976
X037688Y026553
X037688Y100568
X091228Y092897
X091190Y067019
X063717Y026051
X011322Y112573
X091232Y121049
X063717Y127232
X091228Y026575
X036938Y046131
X037650Y033139
X063680Y039331
X011285Y085695
X064467Y113952
X091228Y046654
X064467Y045630
X091228Y025575
X063680Y052716
X011322Y127352
X010572Y113073
X063680Y079881
X064467Y126732
X037650Y059304
X011327Y119646
X091228Y127756
T105
X095893Y077937
X069132Y131456
X020786Y059424
X073920Y120026
X020771Y104305
X068325Y102322
X047141Y124751
X100692Y064551
X100677Y073213
X095893Y126756
X020771Y099581
X042353Y131458
X100677Y046048
X069132Y104684
X073931Y064527
X095086Y075575
X073916Y039331
X020771Y030290
X016003Y057455
X042353Y079883
X020771Y097612
X069132Y039331
X095086Y088960
X042357Y124751
X100681Y124774
X095086Y129118
X015181Y101943
X068340Y062165
X042353Y037364
X100677Y039355
X015196Y061786
X042368Y059804
X047137Y050749
X095908Y071244
X047137Y118072
X073916Y099960
X020786Y064148
X095893Y104708
X015988Y126353
X069137Y120026
X068340Y068858
X069132Y099960
X095893Y093291
X041546Y041694
X100677Y098015
X041546Y115710
X020771Y043676
X047137Y097993
X015988Y043676
X016003Y066116
X041561Y068859
X100677Y091322
X100677Y086598
X095893Y046048
X020771Y131077
X095893Y073213
X095893Y091322
X095893Y079905
X047137Y113348
X020786Y052731
X100677Y025968
X020771Y036983
X100692Y066520
X020786Y057455
X015181Y115329
X095893Y044079
X015196Y055093
X069132Y046024
X095101Y055496
X100677Y093291
X073916Y046024
X069147Y053110
X015181Y128715
X015988Y072809
X047137Y039332
X042353Y073190
X015988Y104305
X020771Y092888
X068325Y095630
X047137Y091300
X095086Y048409
X069132Y126732
X095893Y086598
X047137Y079883
X015181Y034621
X073916Y077913
X095086Y082267
X068325Y129094
X069147Y059803
X016003Y052731
X015181Y108636
X015988Y090919
X047137Y073190
X073931Y066496
X015988Y106274
X095893Y025968
X069132Y084606
X042353Y091300
X073916Y073189
X069132Y086575
X041546Y028308
X100677Y050771
X100677Y106677
X047137Y104686
X069147Y066496
X095893Y106677
X100677Y077937
X073916Y086575
X020771Y090919
X016003Y059424
X015196Y068478
X047137Y093269
X073916Y106653
X020775Y119646
X015988Y030290
X042353Y039332
X073916Y084606
X042353Y046025
X047141Y120027
X100677Y079905
X095897Y120050
X047152Y064528
X041550Y122389
X095893Y050771
X015988Y050368
X095908Y057858
X068325Y109015
X042353Y077914
X100677Y126756
X073916Y118070
X069132Y073189
X041546Y102324
X042353Y099962
X042368Y057836
X015181Y095250
X015988Y092888
X100677Y084629
X047152Y057836
X015988Y079502
X041561Y055474
X100677Y037386
X020771Y126353
X069132Y025945
X047137Y111379
X073931Y057834
X041546Y129096
X100677Y099984
X015181Y027928
X015988Y077533
X095090Y122412
X100692Y059827
X015988Y099581
X095086Y109039
X042353Y113348
X015988Y112967
X073931Y071220
X015185Y122008
X069132Y113346
X042353Y104686
X069132Y097992
X069132Y030668
X020775Y124370
X047137Y084607
X100681Y120050
X047137Y037364
X073916Y030668
X068325Y088937
X042353Y044056
X095893Y111401
X047137Y025947
X042353Y106655
X068340Y055472
X041561Y062166
X068325Y028307
X095897Y124774
X095908Y064551
X020771Y110998
X073916Y126732
X069132Y093268
X069147Y057834
X020771Y050368
X095893Y118094
X041546Y082245
X042353Y111379
X047137Y044056
X073916Y097992
X095086Y035024
X015181Y075171
X020771Y038952
X020786Y070840
X041546Y095631
X020771Y117691
X095893Y030693
X047152Y071221
X015181Y088557
X015988Y045644
X073916Y037362
X042353Y126734
X020771Y045644
X020771Y025566
X047152Y059804
X095086Y102346
X069132Y032638
X016003Y070840
X073920Y124750
X015988Y131077
X100677Y032662
X100677Y118094
X095101Y062189
X020771Y072809
X068325Y041693
X100677Y131480
X047152Y066497
X015988Y084226
X068325Y075551
X042368Y071221
X095908Y066520
X068325Y048385
X069132Y050747
X100677Y030693
X015988Y110998
X047137Y126734
X015988Y032258
X095908Y053134
X047137Y077914
X069132Y111377
X095893Y032662
X041546Y035002
X015992Y119646
X047137Y030671
X042353Y086576
X042353Y025947
X047137Y086576
X095101Y068882
X042353Y030671
X042353Y118072
X100677Y104708
X047137Y106655
X020771Y079502
X041546Y088938
X042353Y093269
X095893Y039355
X015988Y038952
X069137Y124750
X068329Y122388
X095893Y131480
X095893Y113370
X015181Y081864
X020771Y032258
X100677Y111401
X073916Y093268
X042353Y032640
X073931Y059803
X073931Y053110
X042353Y050749
X073916Y025945
X069132Y037362
X015181Y048006
X069132Y118070
X047137Y046025
X073916Y111377
X073916Y044055
X095086Y115732
X073916Y104684
X015181Y041314
X047137Y131458
X042368Y066497
X069132Y079882
X073916Y032638
X095086Y028331
X068325Y035000
X069147Y064527
X047152Y053112
X095893Y099984
X100677Y113370
X041546Y109017
X020771Y077533
X073916Y131456
X042368Y064528
X068325Y082244
X073916Y079882
X015992Y124370
X042353Y097993
X095893Y084629
X095893Y037386
X069147Y071220
X095086Y095653
X068325Y115708
X041546Y048387
X095086Y041717
X015988Y117691
X069132Y091299
X100692Y057858
X100692Y071244
X095893Y098015
X015988Y025566
X016003Y064148
X041546Y075552
X020771Y106274
X042368Y053112
X100677Y044079
X100692Y053134
X042353Y084607
X095908Y059827
X073916Y091299
X073916Y050747
X073916Y113346
X069132Y106653
X020786Y066116
X015988Y097612
X047137Y099962
X047137Y032640
X020771Y084226
X015988Y086195
X069132Y077913
X020771Y086195
X020771Y112967
X015988Y036983
X069132Y044055
X042357Y120027
T106
X063685Y004125
X065653Y002125
X063685Y003125
X065653Y004125
X065653Y003125
X061716Y004125
X063685Y002125
X061716Y002125
X061716Y003125
T107
X021504Y015873
X101409Y016276
X068648Y019252
X103409Y019276
X011504Y015873
X017504Y015873
X103409Y016276
X013504Y018873
X072648Y019252
X012504Y015873
X099409Y019276
X042869Y019253
X075648Y019252
X064648Y019252
X073648Y019252
X014504Y015873
X046869Y016253
X039869Y016253
X045869Y016253
X066648Y019252
X077648Y019252
X046869Y019253
X065648Y019252
X075648Y016252
X070648Y016252
X015504Y015873
X040869Y019253
X020504Y015873
X038869Y016253
X097409Y016276
X097409Y019276
X049869Y019253
X091409Y016276
X104409Y019276
X092409Y019276
X098409Y019276
X021504Y018873
X071648Y016252
X074648Y019252
X066648Y016252
X041869Y019253
X042869Y016253
X045869Y019253
X047869Y016253
X095409Y019276
X093409Y016276
X043869Y019253
X092409Y016276
X024504Y015873
X050869Y016253
X070648Y019252
X020504Y018873
X022504Y015873
X069648Y019252
X077648Y016252
X044869Y016253
X094409Y016276
X067648Y016252
X100409Y016276
X076648Y019252
X023504Y015873
X041869Y016253
X040869Y016253
X022504Y018873
X093409Y019276
X101409Y019276
X064648Y016252
X048869Y016253
X018504Y015873
X039869Y019253
X068648Y016252
X024504Y018873
X071648Y019252
X099409Y016276
X096409Y016276
X067648Y019252
X096409Y019276
X102409Y016276
X076648Y016252
X043869Y016253
X019504Y018873
X065648Y016252
X048869Y019253
X073648Y016252
X015504Y018873
X102409Y019276
X017504Y018873
X069648Y016252
X047869Y019253
X095409Y016276
X094409Y019276
X011504Y018873
X016504Y018873
X074648Y016252
X044869Y019253
X091409Y019276
X016504Y015873
X019504Y015873
X038869Y019253
X100409Y019276
X023504Y018873
X072648Y016252
X013504Y015873
X098409Y016276
X037869Y019253
X104409Y016276
X050869Y019253
X018504Y018873
X049869Y016253
X014504Y018873
X037869Y016253
X012504Y018873
T00
M30
