%TF.GenerationSoftware,KiCad,Pcbnew,7.0.6*%
%TF.CreationDate,2023-11-08T16:42:48+01:00*%
%TF.ProjectId,mb.2024.0.2,6d622e32-3032-4342-9e30-2e322e6b6963,rev?*%
%TF.SameCoordinates,Original*%
%TF.FileFunction,Profile,NP*%
%FSLAX46Y46*%
G04 Gerber Fmt 4.6, Leading zero omitted, Abs format (unit mm)*
G04 Created by KiCad (PCBNEW 7.0.6) date 2023-11-08 16:42:48*
%MOMM*%
%LPD*%
G01*
G04 APERTURE LIST*
%TA.AperFunction,Profile*%
%ADD10C,0.100000*%
%TD*%
G04 APERTURE END LIST*
D10*
X165000000Y-31000000D02*
X162000000Y-33000000D01*
X37338000Y-114554000D02*
X15494000Y-114554000D01*
X162000000Y-33000000D02*
X162000000Y-46990000D01*
X17526000Y-48260000D02*
X15240000Y-50546000D01*
X256980000Y-155020000D02*
X259000000Y-155000000D01*
X15240000Y-88900000D02*
X17780000Y-91440000D01*
X159750000Y-48260000D02*
X17526000Y-48260000D01*
X260000000Y-31000000D02*
X165000000Y-31000000D01*
X27000000Y-104000000D02*
X27000000Y-104000000D01*
X262000000Y-152000000D02*
X262000000Y-33000000D01*
X38100000Y-91440000D02*
X40894000Y-95250000D01*
X17780000Y-91440000D02*
X38100000Y-91440000D01*
X15494000Y-114554000D02*
X14240000Y-115570000D01*
X162000000Y-46990000D02*
X159750000Y-48260000D01*
X14240000Y-153000000D02*
X16240000Y-155000000D01*
X14240000Y-115570000D02*
X14240000Y-153000000D01*
X259000000Y-155000000D02*
X262000000Y-152000000D01*
X40894000Y-111252000D02*
X40894000Y-95250000D01*
X188270000Y-153400000D02*
X188214000Y-155194000D01*
X15240000Y-50546000D02*
X15240000Y-88900000D01*
X256032000Y-153416000D02*
X256980000Y-155020000D01*
X40894000Y-111252000D02*
X37338000Y-114554000D01*
X16240000Y-155000000D02*
X188214000Y-155194000D01*
X188270000Y-153400000D02*
X256032000Y-153416000D01*
X260000000Y-31000000D02*
X262000000Y-33000000D01*
M02*
