%TF.GenerationSoftware,KiCad,Pcbnew,7.0.6*%
%TF.CreationDate,2023-11-08T16:42:48+01:00*%
%TF.ProjectId,mb.2024.0.2,6d622e32-3032-4342-9e30-2e322e6b6963,rev?*%
%TF.SameCoordinates,Original*%
%TF.FileFunction,Soldermask,Bot*%
%TF.FilePolarity,Negative*%
%FSLAX46Y46*%
G04 Gerber Fmt 4.6, Leading zero omitted, Abs format (unit mm)*
G04 Created by KiCad (PCBNEW 7.0.6) date 2023-11-08 16:42:48*
%MOMM*%
%LPD*%
G01*
G04 APERTURE LIST*
G04 Aperture macros list*
%AMRoundRect*
0 Rectangle with rounded corners*
0 $1 Rounding radius*
0 $2 $3 $4 $5 $6 $7 $8 $9 X,Y pos of 4 corners*
0 Add a 4 corners polygon primitive as box body*
4,1,4,$2,$3,$4,$5,$6,$7,$8,$9,$2,$3,0*
0 Add four circle primitives for the rounded corners*
1,1,$1+$1,$2,$3*
1,1,$1+$1,$4,$5*
1,1,$1+$1,$6,$7*
1,1,$1+$1,$8,$9*
0 Add four rect primitives between the rounded corners*
20,1,$1+$1,$2,$3,$4,$5,0*
20,1,$1+$1,$4,$5,$6,$7,0*
20,1,$1+$1,$6,$7,$8,$9,0*
20,1,$1+$1,$8,$9,$2,$3,0*%
G04 Aperture macros list end*
%ADD10R,2.600000X2.600000*%
%ADD11C,2.600000*%
%ADD12C,1.600000*%
%ADD13R,1.700000X1.700000*%
%ADD14C,3.200000*%
%ADD15R,1.600000X1.600000*%
%ADD16O,1.600000X1.600000*%
%ADD17C,1.440000*%
%ADD18O,2.500000X2.500000*%
%ADD19R,2.500000X2.500000*%
%ADD20R,1.800000X1.800000*%
%ADD21C,1.800000*%
%ADD22R,2.200000X2.200000*%
%ADD23O,2.200000X2.200000*%
%ADD24O,1.700000X1.700000*%
%ADD25RoundRect,0.250000X0.600000X0.600000X-0.600000X0.600000X-0.600000X-0.600000X0.600000X-0.600000X0*%
%ADD26C,1.700000*%
%ADD27RoundRect,0.250000X0.600000X-0.600000X0.600000X0.600000X-0.600000X0.600000X-0.600000X-0.600000X0*%
%ADD28C,5.600000*%
%ADD29R,1.300000X1.300000*%
%ADD30C,1.300000*%
%ADD31R,1.500000X1.500000*%
%ADD32C,1.500000*%
%ADD33RoundRect,0.250000X-0.600000X0.600000X-0.600000X-0.600000X0.600000X-0.600000X0.600000X0.600000X0*%
%ADD34C,5.700000*%
%ADD35C,1.665000*%
%ADD36C,3.750000*%
%ADD37R,1.200000X1.200000*%
%ADD38C,1.200000*%
%ADD39C,2.400000*%
%ADD40O,2.400000X2.400000*%
G04 APERTURE END LIST*
D10*
%TO.C,J9*%
X187695000Y-48545000D03*
D11*
X187695000Y-43465000D03*
%TD*%
D12*
%TO.C,C17*%
X61682000Y-82550000D03*
X56682000Y-82550000D03*
%TD*%
D13*
%TO.C,J18*%
X26162000Y-77978000D03*
%TD*%
D14*
%TO.C,REF01*%
X198740000Y-148890000D03*
%TD*%
D15*
%TO.C,U9*%
X65034000Y-73670000D03*
D16*
X65034000Y-76210000D03*
X65034000Y-78750000D03*
X65034000Y-81290000D03*
X72654000Y-81290000D03*
X72654000Y-78750000D03*
X72654000Y-76210000D03*
X72654000Y-73670000D03*
%TD*%
D15*
%TO.C,C21*%
X73064379Y-61468000D03*
D12*
X70564379Y-61468000D03*
%TD*%
D17*
%TO.C,RV3*%
X73406000Y-68834000D03*
X70866000Y-68834000D03*
X68326000Y-68834000D03*
%TD*%
D12*
%TO.C,R6*%
X43180000Y-151130000D03*
D16*
X35560000Y-151130000D03*
%TD*%
D10*
%TO.C,J1*%
X253305000Y-48545000D03*
D11*
X253305000Y-43465000D03*
%TD*%
D12*
%TO.C,R1*%
X240030000Y-73660000D03*
D16*
X232410000Y-73660000D03*
%TD*%
D12*
%TO.C,R4*%
X86106000Y-73660000D03*
D16*
X93726000Y-73660000D03*
%TD*%
D18*
%TO.C,K6*%
X87980000Y-136167500D03*
X87980000Y-123967500D03*
X99980000Y-123967500D03*
X99980000Y-136167500D03*
D19*
X93980000Y-138167500D03*
%TD*%
D20*
%TO.C,LED10-OHMPI-MEASURE*%
X235000000Y-130000000D03*
D21*
X235000000Y-127460000D03*
%TD*%
D12*
%TO.C,R3*%
X89916000Y-90932000D03*
D16*
X97536000Y-90932000D03*
%TD*%
D19*
%TO.C,K1*%
X228000000Y-55000000D03*
D18*
X234000000Y-53000000D03*
X234000000Y-40800000D03*
X222000000Y-40800000D03*
X222000000Y-53000000D03*
%TD*%
D13*
%TO.C,J20*%
X119430000Y-134380000D03*
%TD*%
D19*
%TO.C,K4*%
X76200000Y-138167500D03*
D18*
X82200000Y-136167500D03*
X82200000Y-123967500D03*
X70200000Y-123967500D03*
X70200000Y-136167500D03*
%TD*%
D15*
%TO.C,U7*%
X113274000Y-89926000D03*
D16*
X110734000Y-89926000D03*
X108194000Y-89926000D03*
X105654000Y-89926000D03*
X105654000Y-97546000D03*
X108194000Y-97546000D03*
X110734000Y-97546000D03*
X113274000Y-97546000D03*
%TD*%
D15*
%TO.C,D5*%
X116840000Y-87376000D03*
D16*
X116840000Y-79756000D03*
%TD*%
D22*
%TO.C,D10*%
X71120000Y-144780000D03*
D23*
X81280000Y-144780000D03*
%TD*%
D12*
%TO.C,R2*%
X209190000Y-74000000D03*
D16*
X216810000Y-74000000D03*
%TD*%
D13*
%TO.C,J23*%
X204475000Y-128270000D03*
D24*
X207015000Y-128270000D03*
X209555000Y-128270000D03*
X212095000Y-128270000D03*
X214635000Y-128270000D03*
%TD*%
D15*
%TO.C,U2*%
X29972000Y-67818000D03*
D16*
X29972000Y-70358000D03*
X29972000Y-72898000D03*
X29972000Y-75438000D03*
X37592000Y-75438000D03*
X37592000Y-72898000D03*
X37592000Y-70358000D03*
X37592000Y-67818000D03*
%TD*%
%TO.C,R12*%
X229000000Y-123620000D03*
D12*
X229000000Y-116000000D03*
%TD*%
D10*
%TO.C,J11*%
X21590000Y-67310000D03*
D11*
X21590000Y-72390000D03*
%TD*%
D13*
%TO.C,J4*%
X146125000Y-85000000D03*
D24*
X148665000Y-85000000D03*
X151205000Y-85000000D03*
X153745000Y-85000000D03*
X156285000Y-85000000D03*
X158825000Y-85000000D03*
X161365000Y-85000000D03*
X163905000Y-85000000D03*
%TD*%
D12*
%TO.C,R13*%
X223000000Y-116000000D03*
D16*
X223000000Y-123620000D03*
%TD*%
D13*
%TO.C,J6*%
X146125000Y-62000000D03*
D24*
X148665000Y-62000000D03*
X151205000Y-62000000D03*
X153745000Y-62000000D03*
X156285000Y-62000000D03*
X158825000Y-62000000D03*
X161365000Y-62000000D03*
X163905000Y-62000000D03*
%TD*%
D13*
%TO.C,J5*%
X141000000Y-78250000D03*
D24*
X141000000Y-75710000D03*
X141000000Y-73170000D03*
X141000000Y-70630000D03*
%TD*%
D12*
%TO.C,C4*%
X29464000Y-78730000D03*
X29464000Y-83730000D03*
%TD*%
D25*
%TO.C,J13*%
X250942500Y-81285000D03*
D26*
X248402500Y-81285000D03*
X250942500Y-78745000D03*
X248402500Y-78745000D03*
X250942500Y-76205000D03*
X248402500Y-76205000D03*
%TD*%
D15*
%TO.C,U1*%
X216850000Y-92800000D03*
D16*
X219390000Y-92800000D03*
X221930000Y-92800000D03*
X224470000Y-92800000D03*
X227010000Y-92800000D03*
X229550000Y-92800000D03*
X232090000Y-92800000D03*
X234630000Y-92800000D03*
X237170000Y-92800000D03*
X237170000Y-85180000D03*
X234630000Y-85180000D03*
X232090000Y-85180000D03*
X229550000Y-85180000D03*
X227010000Y-85180000D03*
X224470000Y-85180000D03*
X221930000Y-85180000D03*
X219390000Y-85180000D03*
X216850000Y-85180000D03*
%TD*%
D27*
%TO.C,J8*%
X213560000Y-105937500D03*
D26*
X213560000Y-103397500D03*
X216100000Y-105937500D03*
X216100000Y-103397500D03*
X218640000Y-105937500D03*
X218640000Y-103397500D03*
%TD*%
D28*
%TO.C,REF04*%
X51816000Y-104394000D03*
%TD*%
D15*
%TO.C,U3*%
X198305000Y-115385000D03*
D16*
X198305000Y-117925000D03*
X198305000Y-120465000D03*
X198305000Y-123005000D03*
X205925000Y-123005000D03*
X205925000Y-120465000D03*
X205925000Y-117925000D03*
X205925000Y-115385000D03*
%TD*%
D29*
%TO.C,PS1*%
X71120000Y-111506000D03*
D30*
X73660000Y-111506000D03*
X76200000Y-111506000D03*
X91440000Y-111506000D03*
X96520000Y-111506000D03*
X96520000Y-96266000D03*
X91440000Y-96266000D03*
X76200000Y-96266000D03*
X73660000Y-96266000D03*
%TD*%
D13*
%TO.C,J14*%
X119475000Y-126395000D03*
D24*
X119475000Y-128935000D03*
%TD*%
D12*
%TO.C,R19*%
X48245000Y-69860000D03*
D16*
X55865000Y-69860000D03*
%TD*%
D31*
%TO.C,Q6*%
X91450000Y-149010000D03*
D32*
X88910000Y-151550000D03*
X86370000Y-149010000D03*
%TD*%
D33*
%TO.C,J24*%
X130810000Y-53857500D03*
D26*
X130810000Y-56397500D03*
X128270000Y-53857500D03*
X128270000Y-56397500D03*
X125730000Y-53857500D03*
X125730000Y-56397500D03*
%TD*%
D15*
%TO.C,C6*%
X34788000Y-81778000D03*
D12*
X34788000Y-79278000D03*
%TD*%
%TO.C,R21*%
X111506000Y-58928000D03*
D16*
X111506000Y-66548000D03*
%TD*%
D11*
%TO.C,J3*%
X21285000Y-137155000D03*
D10*
X21285000Y-132075000D03*
%TD*%
D15*
%TO.C,D6*%
X116232077Y-72644000D03*
D16*
X108612077Y-72644000D03*
%TD*%
D31*
%TO.C,Q5*%
X52080000Y-148700000D03*
D32*
X49540000Y-151240000D03*
X47000000Y-148700000D03*
%TD*%
D17*
%TO.C,RV2*%
X103124000Y-74422000D03*
X100584000Y-74422000D03*
X98044000Y-74422000D03*
%TD*%
D31*
%TO.C,Q1*%
X236230000Y-68160000D03*
D32*
X233690000Y-70700000D03*
X231150000Y-68160000D03*
%TD*%
D12*
%TO.C,R15*%
X60960000Y-151130000D03*
D16*
X53340000Y-151130000D03*
%TD*%
D12*
%TO.C,R23*%
X45212000Y-75438000D03*
D16*
X52832000Y-75438000D03*
%TD*%
D12*
%TO.C,C15*%
X75819621Y-76708000D03*
X80819621Y-76708000D03*
%TD*%
%TO.C,C5*%
X41178000Y-65014000D03*
X41178000Y-60014000D03*
%TD*%
D15*
%TO.C,C2*%
X212000000Y-89000000D03*
D12*
X209500000Y-89000000D03*
%TD*%
D10*
%TO.C,J2*%
X171545000Y-141000000D03*
D11*
X166465000Y-141000000D03*
%TD*%
D15*
%TO.C,C3*%
X41235621Y-70866000D03*
D12*
X43735621Y-70866000D03*
%TD*%
%TO.C,R18*%
X226060000Y-96520000D03*
D16*
X218440000Y-96520000D03*
%TD*%
D15*
%TO.C,RN1*%
X84074000Y-69850000D03*
D16*
X86614000Y-69850000D03*
X89154000Y-69850000D03*
X91694000Y-69850000D03*
X94234000Y-69850000D03*
X96774000Y-69850000D03*
X99314000Y-69850000D03*
X101854000Y-69850000D03*
X104394000Y-69850000D03*
%TD*%
D12*
%TO.C,R17*%
X213360000Y-95250000D03*
D16*
X205740000Y-95250000D03*
%TD*%
D12*
%TO.C,C22*%
X108458000Y-100584000D03*
X108458000Y-105584000D03*
%TD*%
%TO.C,R5*%
X84328000Y-78740000D03*
D16*
X84328000Y-86360000D03*
%TD*%
D28*
%TO.C,REF05*%
X21336000Y-53340000D03*
%TD*%
D20*
%TO.C,LED9-OHMPI-RUN*%
X241000000Y-130000000D03*
D21*
X241000000Y-127460000D03*
%TD*%
D22*
%TO.C,D11*%
X46990000Y-144780000D03*
D23*
X57150000Y-144780000D03*
%TD*%
D22*
%TO.C,D2*%
X197920000Y-61000000D03*
D23*
X208080000Y-61000000D03*
%TD*%
D12*
%TO.C,R7*%
X83820000Y-151130000D03*
D16*
X76200000Y-151130000D03*
%TD*%
D34*
%TO.C,REF\u002A\u002A*%
X21590000Y-149098000D03*
%TD*%
D14*
%TO.C,REF03*%
X247420000Y-90900000D03*
%TD*%
D35*
%TO.C,U5*%
X180848000Y-126492000D03*
X180848000Y-123952000D03*
X180848000Y-121412000D03*
X180848000Y-118872000D03*
X180848000Y-116332000D03*
X180848000Y-113792000D03*
X180848000Y-111252000D03*
X180848000Y-108712000D03*
X180848000Y-106172000D03*
X180848000Y-103632000D03*
D36*
X193294000Y-103632000D03*
X193294000Y-126492000D03*
%TD*%
D13*
%TO.C,J12*%
X138430000Y-142380000D03*
D24*
X140970000Y-142380000D03*
X143510000Y-142380000D03*
X146050000Y-142380000D03*
X148590000Y-142380000D03*
X151130000Y-142380000D03*
X153670000Y-142380000D03*
X156210000Y-142380000D03*
%TD*%
D14*
%TO.C,REF2*%
X198670000Y-91030000D03*
%TD*%
D15*
%TO.C,C12*%
X56729621Y-53086000D03*
D12*
X59229621Y-53086000D03*
%TD*%
D13*
%TO.C,J17*%
X119430000Y-119380000D03*
%TD*%
D22*
%TO.C,D12*%
X87630000Y-144780000D03*
D23*
X97790000Y-144780000D03*
%TD*%
D12*
%TO.C,R22*%
X116586000Y-58928000D03*
D16*
X116586000Y-66548000D03*
%TD*%
D22*
%TO.C,D1*%
X220920000Y-61000000D03*
D23*
X231080000Y-61000000D03*
%TD*%
D13*
%TO.C,J19*%
X25654000Y-61722000D03*
%TD*%
D37*
%TO.C,PS3*%
X189992000Y-92964000D03*
D38*
X189992000Y-90424000D03*
X189992000Y-87884000D03*
X189992000Y-72644000D03*
X189992000Y-67564000D03*
X174752000Y-67564000D03*
X174752000Y-72644000D03*
X174752000Y-87884000D03*
X174752000Y-90424000D03*
%TD*%
D16*
%TO.C,U8*%
X106924000Y-66812000D03*
X104384000Y-66812000D03*
X101844000Y-66812000D03*
X99304000Y-66812000D03*
X96764000Y-66812000D03*
X94224000Y-66812000D03*
X91684000Y-66812000D03*
X89144000Y-66812000D03*
X86604000Y-66812000D03*
X86604000Y-59192000D03*
X89144000Y-59192000D03*
X91684000Y-59192000D03*
X94224000Y-59192000D03*
X96764000Y-59192000D03*
X99304000Y-59192000D03*
X101844000Y-59192000D03*
X104384000Y-59192000D03*
D15*
X106924000Y-59192000D03*
%TD*%
D20*
%TO.C,LED11-OHMPI-STACK*%
X229000000Y-130000000D03*
D21*
X229000000Y-127460000D03*
%TD*%
D31*
%TO.C,Q4*%
X74940000Y-149010000D03*
D32*
X72400000Y-151550000D03*
X69860000Y-149010000D03*
%TD*%
D22*
%TO.C,D9*%
X30480000Y-144517500D03*
D23*
X40640000Y-144517500D03*
%TD*%
D19*
%TO.C,K2*%
X205000000Y-55000000D03*
D18*
X211000000Y-53000000D03*
X211000000Y-40800000D03*
X199000000Y-40800000D03*
X199000000Y-53000000D03*
%TD*%
D14*
%TO.C,REF00*%
X247780000Y-149060000D03*
%TD*%
D15*
%TO.C,C14*%
X95250000Y-53848000D03*
D12*
X97750000Y-53848000D03*
%TD*%
D34*
%TO.C,REF\u002A\u002A*%
X171480000Y-37690000D03*
%TD*%
D12*
%TO.C,C11*%
X108752000Y-86614000D03*
X113752000Y-86614000D03*
%TD*%
%TO.C,C7*%
X107990000Y-76454000D03*
X112990000Y-76454000D03*
%TD*%
D13*
%TO.C,J26*%
X239776000Y-64511000D03*
D24*
X239776000Y-61971000D03*
X239776000Y-59431000D03*
X239776000Y-56891000D03*
X239776000Y-54351000D03*
%TD*%
D15*
%TO.C,C18*%
X58206000Y-77470000D03*
D12*
X60706000Y-77470000D03*
%TD*%
D15*
%TO.C,C9*%
X109220000Y-81534000D03*
D12*
X111720000Y-81534000D03*
%TD*%
%TO.C,C13*%
X91400000Y-56134000D03*
X86400000Y-56134000D03*
%TD*%
D31*
%TO.C,Q3*%
X34300000Y-148747500D03*
D32*
X31760000Y-151287500D03*
X29220000Y-148747500D03*
%TD*%
D15*
%TO.C,C16*%
X78065621Y-81788000D03*
D12*
X80565621Y-81788000D03*
%TD*%
D15*
%TO.C,U6*%
X97292000Y-79258000D03*
D16*
X97292000Y-81798000D03*
X97292000Y-84338000D03*
X97292000Y-86878000D03*
X104912000Y-86878000D03*
X104912000Y-84338000D03*
X104912000Y-81798000D03*
X104912000Y-79258000D03*
%TD*%
D12*
%TO.C,R16*%
X101600000Y-151500000D03*
D16*
X93980000Y-151500000D03*
%TD*%
D15*
%TO.C,C10*%
X89241621Y-80264000D03*
D12*
X91741621Y-80264000D03*
%TD*%
%TO.C,R10*%
X241000000Y-116190000D03*
D16*
X241000000Y-123810000D03*
%TD*%
D12*
%TO.C,R24*%
X52832000Y-78994000D03*
D16*
X45212000Y-78994000D03*
%TD*%
D13*
%TO.C,J10*%
X177000000Y-141000000D03*
%TD*%
D20*
%TO.C,LED12-LOW-TX-BATTERY*%
X223000000Y-130000000D03*
D21*
X223000000Y-127460000D03*
%TD*%
D13*
%TO.C,J22*%
X207020000Y-144780000D03*
D24*
X209560000Y-144780000D03*
X212100000Y-144780000D03*
X214640000Y-144780000D03*
%TD*%
D13*
%TO.C,J21*%
X166370000Y-133350000D03*
%TD*%
D12*
%TO.C,C19*%
X51522000Y-54864000D03*
X46522000Y-54864000D03*
%TD*%
%TO.C,C8*%
X92964000Y-85344000D03*
X87964000Y-85344000D03*
%TD*%
%TO.C,C20*%
X66548000Y-61976000D03*
X66548000Y-56976000D03*
%TD*%
D10*
%TO.C,J16*%
X63000000Y-102000000D03*
D11*
X63000000Y-107080000D03*
%TD*%
D12*
%TO.C,R26*%
X75946000Y-73660000D03*
D16*
X83566000Y-73660000D03*
%TD*%
D12*
%TO.C,C1*%
X216500000Y-82000000D03*
X211500000Y-82000000D03*
%TD*%
D18*
%TO.C,K3*%
X29560000Y-136167500D03*
X29560000Y-123967500D03*
X41560000Y-123967500D03*
X41560000Y-136167500D03*
D19*
X35560000Y-138167500D03*
%TD*%
D39*
%TO.C,SH1*%
X106430000Y-140540000D03*
D40*
X106430000Y-120220000D03*
%TD*%
D17*
%TO.C,RV1*%
X36322000Y-63236000D03*
X33782000Y-63236000D03*
X31242000Y-63236000D03*
%TD*%
D34*
%TO.C,REF\u002A\u002A*%
X130810000Y-129286000D03*
%TD*%
D12*
%TO.C,R11*%
X235000000Y-116190000D03*
D16*
X235000000Y-123810000D03*
%TD*%
D35*
%TO.C,U4*%
X122600000Y-87376000D03*
X122600000Y-84836000D03*
X122600000Y-82296000D03*
X122600000Y-79756000D03*
X122600000Y-77216000D03*
X122600000Y-74676000D03*
X122600000Y-72136000D03*
X122600000Y-69596000D03*
X122600000Y-67056000D03*
X122600000Y-64516000D03*
D36*
X135046000Y-64516000D03*
X135046000Y-87376000D03*
%TD*%
D13*
%TO.C,J15*%
X138430000Y-119380000D03*
D24*
X140970000Y-119380000D03*
X143510000Y-119380000D03*
X146050000Y-119380000D03*
X148590000Y-119380000D03*
X151130000Y-119380000D03*
X153670000Y-119380000D03*
X156210000Y-119380000D03*
%TD*%
D19*
%TO.C,K5*%
X53340000Y-138167500D03*
D18*
X59340000Y-136167500D03*
X59340000Y-123967500D03*
X47340000Y-123967500D03*
X47340000Y-136167500D03*
%TD*%
D15*
%TO.C,U10*%
X45720000Y-66548000D03*
D16*
X48260000Y-66548000D03*
X50800000Y-66548000D03*
X53340000Y-66548000D03*
X55880000Y-66548000D03*
X58420000Y-66548000D03*
X60960000Y-66548000D03*
X63500000Y-66548000D03*
X63500000Y-58928000D03*
X60960000Y-58928000D03*
X58420000Y-58928000D03*
X55880000Y-58928000D03*
X53340000Y-58928000D03*
X50800000Y-58928000D03*
X48260000Y-58928000D03*
X45720000Y-58928000D03*
%TD*%
D37*
%TO.C,PS2*%
X118110000Y-112014000D03*
D38*
X120650000Y-112014000D03*
X123190000Y-112014000D03*
X138430000Y-112014000D03*
X143510000Y-112014000D03*
X143510000Y-96774000D03*
X138430000Y-96774000D03*
X123190000Y-96774000D03*
X120650000Y-96774000D03*
%TD*%
D31*
%TO.C,Q2*%
X212100000Y-68160000D03*
D32*
X209560000Y-70700000D03*
X207020000Y-68160000D03*
%TD*%
D13*
%TO.C,J25*%
X256286000Y-61976000D03*
D24*
X256286000Y-59436000D03*
X256286000Y-56896000D03*
X256286000Y-54356000D03*
%TD*%
D13*
%TO.C,J7*%
X246500000Y-95900000D03*
D24*
X249040000Y-95900000D03*
X246500000Y-98440000D03*
X249040000Y-98440000D03*
X246500000Y-100980000D03*
X249040000Y-100980000D03*
X246500000Y-103520000D03*
X249040000Y-103520000D03*
X246500000Y-106060000D03*
X249040000Y-106060000D03*
X246500000Y-108600000D03*
X249040000Y-108600000D03*
X246500000Y-111140000D03*
X249040000Y-111140000D03*
X246500000Y-113680000D03*
X249040000Y-113680000D03*
X246500000Y-116220000D03*
X249040000Y-116220000D03*
X246500000Y-118760000D03*
X249040000Y-118760000D03*
X246500000Y-121300000D03*
X249040000Y-121300000D03*
X246500000Y-123840000D03*
X249040000Y-123840000D03*
X246500000Y-126380000D03*
X249040000Y-126380000D03*
X246500000Y-128920000D03*
X249040000Y-128920000D03*
X246500000Y-131460000D03*
X249040000Y-131460000D03*
X246500000Y-134000000D03*
X249040000Y-134000000D03*
X246500000Y-136540000D03*
X249040000Y-136540000D03*
X246500000Y-139080000D03*
X249040000Y-139080000D03*
X246500000Y-141620000D03*
X249040000Y-141620000D03*
X246500000Y-144160000D03*
X249040000Y-144160000D03*
%TD*%
M02*
