%TF.GenerationSoftware,KiCad,Pcbnew,(6.0.5)*%
%TF.CreationDate,2022-08-03T21:49:30+02:00*%
%TF.ProjectId,VMN,564d4e2e-6b69-4636-9164-5f7063625858,rev?*%
%TF.SameCoordinates,Original*%
%TF.FileFunction,Legend,Top*%
%TF.FilePolarity,Positive*%
%FSLAX46Y46*%
G04 Gerber Fmt 4.6, Leading zero omitted, Abs format (unit mm)*
G04 Created by KiCad (PCBNEW (6.0.5)) date 2022-08-03 21:49:30*
%MOMM*%
%LPD*%
G01*
G04 APERTURE LIST*
%ADD10C,0.150000*%
%ADD11C,0.254000*%
%ADD12C,0.120000*%
%ADD13C,0.100000*%
%ADD14C,0.200000*%
%ADD15C,0.127000*%
G04 APERTURE END LIST*
D10*
X189325714Y-126266428D02*
X190087619Y-126266428D01*
X189706666Y-126647380D02*
X189706666Y-125885476D01*
X190420952Y-125647380D02*
X190754285Y-126647380D01*
X191087619Y-125647380D01*
X191420952Y-126647380D02*
X191420952Y-125647380D01*
X191659047Y-125647380D01*
X191801904Y-125695000D01*
X191897142Y-125790238D01*
X191944761Y-125885476D01*
X191992380Y-126075952D01*
X191992380Y-126218809D01*
X191944761Y-126409285D01*
X191897142Y-126504523D01*
X191801904Y-126599761D01*
X191659047Y-126647380D01*
X191420952Y-126647380D01*
X192992380Y-126552142D02*
X192944761Y-126599761D01*
X192801904Y-126647380D01*
X192706666Y-126647380D01*
X192563809Y-126599761D01*
X192468571Y-126504523D01*
X192420952Y-126409285D01*
X192373333Y-126218809D01*
X192373333Y-126075952D01*
X192420952Y-125885476D01*
X192468571Y-125790238D01*
X192563809Y-125695000D01*
X192706666Y-125647380D01*
X192801904Y-125647380D01*
X192944761Y-125695000D01*
X192992380Y-125742619D01*
X194706666Y-125695000D02*
X194611428Y-125647380D01*
X194468571Y-125647380D01*
X194325714Y-125695000D01*
X194230476Y-125790238D01*
X194182857Y-125885476D01*
X194135238Y-126075952D01*
X194135238Y-126218809D01*
X194182857Y-126409285D01*
X194230476Y-126504523D01*
X194325714Y-126599761D01*
X194468571Y-126647380D01*
X194563809Y-126647380D01*
X194706666Y-126599761D01*
X194754285Y-126552142D01*
X194754285Y-126218809D01*
X194563809Y-126218809D01*
X195182857Y-126647380D02*
X195182857Y-125647380D01*
X195754285Y-126647380D01*
X195754285Y-125647380D01*
X196230476Y-126647380D02*
X196230476Y-125647380D01*
X196468571Y-125647380D01*
X196611428Y-125695000D01*
X196706666Y-125790238D01*
X196754285Y-125885476D01*
X196801904Y-126075952D01*
X196801904Y-126218809D01*
X196754285Y-126409285D01*
X196706666Y-126504523D01*
X196611428Y-126599761D01*
X196468571Y-126647380D01*
X196230476Y-126647380D01*
X189349523Y-127257380D02*
X189920952Y-127257380D01*
X189635238Y-128257380D02*
X189635238Y-127257380D01*
X190159047Y-127257380D02*
X190825714Y-128257380D01*
X190825714Y-127257380D02*
X190159047Y-128257380D01*
X191968571Y-128257380D02*
X191968571Y-127257380D01*
X192349523Y-127257380D01*
X192444761Y-127305000D01*
X192492380Y-127352619D01*
X192540000Y-127447857D01*
X192540000Y-127590714D01*
X192492380Y-127685952D01*
X192444761Y-127733571D01*
X192349523Y-127781190D01*
X191968571Y-127781190D01*
X193159047Y-127257380D02*
X193349523Y-127257380D01*
X193444761Y-127305000D01*
X193540000Y-127400238D01*
X193587619Y-127590714D01*
X193587619Y-127924047D01*
X193540000Y-128114523D01*
X193444761Y-128209761D01*
X193349523Y-128257380D01*
X193159047Y-128257380D01*
X193063809Y-128209761D01*
X192968571Y-128114523D01*
X192920952Y-127924047D01*
X192920952Y-127590714D01*
X192968571Y-127400238D01*
X193063809Y-127305000D01*
X193159047Y-127257380D01*
X193920952Y-127257380D02*
X194159047Y-128257380D01*
X194349523Y-127543095D01*
X194540000Y-128257380D01*
X194778095Y-127257380D01*
X195159047Y-127733571D02*
X195492380Y-127733571D01*
X195635238Y-128257380D02*
X195159047Y-128257380D01*
X195159047Y-127257380D01*
X195635238Y-127257380D01*
X196635238Y-128257380D02*
X196301904Y-127781190D01*
X196063809Y-128257380D02*
X196063809Y-127257380D01*
X196444761Y-127257380D01*
X196540000Y-127305000D01*
X196587619Y-127352619D01*
X196635238Y-127447857D01*
X196635238Y-127590714D01*
X196587619Y-127685952D01*
X196540000Y-127733571D01*
X196444761Y-127781190D01*
X196063809Y-127781190D01*
X54857142Y-126452380D02*
X54857142Y-125452380D01*
X55190476Y-126166666D01*
X55523809Y-125452380D01*
X55523809Y-126452380D01*
X57476190Y-125404761D02*
X56619047Y-126690476D01*
X58571428Y-126452380D02*
X58571428Y-125452380D01*
X59142857Y-126452380D01*
X59142857Y-125452380D01*
X149711476Y-124250380D02*
X149901952Y-124250380D01*
X149997190Y-124298000D01*
X150092428Y-124393238D01*
X150140047Y-124583714D01*
X150140047Y-124917047D01*
X150092428Y-125107523D01*
X149997190Y-125202761D01*
X149901952Y-125250380D01*
X149711476Y-125250380D01*
X149616238Y-125202761D01*
X149521000Y-125107523D01*
X149473380Y-124917047D01*
X149473380Y-124583714D01*
X149521000Y-124393238D01*
X149616238Y-124298000D01*
X149711476Y-124250380D01*
X150568619Y-125250380D02*
X150568619Y-124250380D01*
X150997190Y-125250380D02*
X150997190Y-124726571D01*
X150949571Y-124631333D01*
X150854333Y-124583714D01*
X150711476Y-124583714D01*
X150616238Y-124631333D01*
X150568619Y-124678952D01*
X151473380Y-125250380D02*
X151473380Y-124583714D01*
X151473380Y-124678952D02*
X151521000Y-124631333D01*
X151616238Y-124583714D01*
X151759095Y-124583714D01*
X151854333Y-124631333D01*
X151901952Y-124726571D01*
X151901952Y-125250380D01*
X151901952Y-124726571D02*
X151949571Y-124631333D01*
X152044809Y-124583714D01*
X152187666Y-124583714D01*
X152282904Y-124631333D01*
X152330523Y-124726571D01*
X152330523Y-125250380D01*
X152806714Y-125250380D02*
X152806714Y-124250380D01*
X153187666Y-124250380D01*
X153282904Y-124298000D01*
X153330523Y-124345619D01*
X153378142Y-124440857D01*
X153378142Y-124583714D01*
X153330523Y-124678952D01*
X153282904Y-124726571D01*
X153187666Y-124774190D01*
X152806714Y-124774190D01*
X153806714Y-125250380D02*
X153806714Y-124583714D01*
X153806714Y-124250380D02*
X153759095Y-124298000D01*
X153806714Y-124345619D01*
X153854333Y-124298000D01*
X153806714Y-124250380D01*
X153806714Y-124345619D01*
X155044809Y-125250380D02*
X155044809Y-124583714D01*
X155044809Y-124678952D02*
X155092428Y-124631333D01*
X155187666Y-124583714D01*
X155330523Y-124583714D01*
X155425761Y-124631333D01*
X155473380Y-124726571D01*
X155473380Y-125250380D01*
X155473380Y-124726571D02*
X155521000Y-124631333D01*
X155616238Y-124583714D01*
X155759095Y-124583714D01*
X155854333Y-124631333D01*
X155901952Y-124726571D01*
X155901952Y-125250380D01*
X156759095Y-125202761D02*
X156663857Y-125250380D01*
X156473380Y-125250380D01*
X156378142Y-125202761D01*
X156330523Y-125107523D01*
X156330523Y-124726571D01*
X156378142Y-124631333D01*
X156473380Y-124583714D01*
X156663857Y-124583714D01*
X156759095Y-124631333D01*
X156806714Y-124726571D01*
X156806714Y-124821809D01*
X156330523Y-124917047D01*
X157663857Y-125250380D02*
X157663857Y-124726571D01*
X157616238Y-124631333D01*
X157521000Y-124583714D01*
X157330523Y-124583714D01*
X157235285Y-124631333D01*
X157663857Y-125202761D02*
X157568619Y-125250380D01*
X157330523Y-125250380D01*
X157235285Y-125202761D01*
X157187666Y-125107523D01*
X157187666Y-125012285D01*
X157235285Y-124917047D01*
X157330523Y-124869428D01*
X157568619Y-124869428D01*
X157663857Y-124821809D01*
X158092428Y-125202761D02*
X158187666Y-125250380D01*
X158378142Y-125250380D01*
X158473380Y-125202761D01*
X158521000Y-125107523D01*
X158521000Y-125059904D01*
X158473380Y-124964666D01*
X158378142Y-124917047D01*
X158235285Y-124917047D01*
X158140047Y-124869428D01*
X158092428Y-124774190D01*
X158092428Y-124726571D01*
X158140047Y-124631333D01*
X158235285Y-124583714D01*
X158378142Y-124583714D01*
X158473380Y-124631333D01*
X159378142Y-124583714D02*
X159378142Y-125250380D01*
X158949571Y-124583714D02*
X158949571Y-125107523D01*
X158997190Y-125202761D01*
X159092428Y-125250380D01*
X159235285Y-125250380D01*
X159330523Y-125202761D01*
X159378142Y-125155142D01*
X159854333Y-125250380D02*
X159854333Y-124583714D01*
X159854333Y-124774190D02*
X159901952Y-124678952D01*
X159949571Y-124631333D01*
X160044809Y-124583714D01*
X160140047Y-124583714D01*
X160854333Y-125202761D02*
X160759095Y-125250380D01*
X160568619Y-125250380D01*
X160473380Y-125202761D01*
X160425761Y-125107523D01*
X160425761Y-124726571D01*
X160473380Y-124631333D01*
X160568619Y-124583714D01*
X160759095Y-124583714D01*
X160854333Y-124631333D01*
X160901952Y-124726571D01*
X160901952Y-124821809D01*
X160425761Y-124917047D01*
X161330523Y-125250380D02*
X161330523Y-124583714D01*
X161330523Y-124678952D02*
X161378142Y-124631333D01*
X161473380Y-124583714D01*
X161616238Y-124583714D01*
X161711476Y-124631333D01*
X161759095Y-124726571D01*
X161759095Y-125250380D01*
X161759095Y-124726571D02*
X161806714Y-124631333D01*
X161901952Y-124583714D01*
X162044809Y-124583714D01*
X162140047Y-124631333D01*
X162187666Y-124726571D01*
X162187666Y-125250380D01*
X163044809Y-125202761D02*
X162949571Y-125250380D01*
X162759095Y-125250380D01*
X162663857Y-125202761D01*
X162616238Y-125107523D01*
X162616238Y-124726571D01*
X162663857Y-124631333D01*
X162759095Y-124583714D01*
X162949571Y-124583714D01*
X163044809Y-124631333D01*
X163092428Y-124726571D01*
X163092428Y-124821809D01*
X162616238Y-124917047D01*
X163521000Y-124583714D02*
X163521000Y-125250380D01*
X163521000Y-124678952D02*
X163568619Y-124631333D01*
X163663857Y-124583714D01*
X163806714Y-124583714D01*
X163901952Y-124631333D01*
X163949571Y-124726571D01*
X163949571Y-125250380D01*
X164282904Y-124583714D02*
X164663857Y-124583714D01*
X164425761Y-124250380D02*
X164425761Y-125107523D01*
X164473380Y-125202761D01*
X164568619Y-125250380D01*
X164663857Y-125250380D01*
X165759095Y-125250380D02*
X165759095Y-124250380D01*
X165759095Y-124631333D02*
X165854333Y-124583714D01*
X166044809Y-124583714D01*
X166140047Y-124631333D01*
X166187666Y-124678952D01*
X166235285Y-124774190D01*
X166235285Y-125059904D01*
X166187666Y-125155142D01*
X166140047Y-125202761D01*
X166044809Y-125250380D01*
X165854333Y-125250380D01*
X165759095Y-125202761D01*
X166806714Y-125250380D02*
X166711476Y-125202761D01*
X166663857Y-125155142D01*
X166616238Y-125059904D01*
X166616238Y-124774190D01*
X166663857Y-124678952D01*
X166711476Y-124631333D01*
X166806714Y-124583714D01*
X166949571Y-124583714D01*
X167044809Y-124631333D01*
X167092428Y-124678952D01*
X167140047Y-124774190D01*
X167140047Y-125059904D01*
X167092428Y-125155142D01*
X167044809Y-125202761D01*
X166949571Y-125250380D01*
X166806714Y-125250380D01*
X167997190Y-125250380D02*
X167997190Y-124726571D01*
X167949571Y-124631333D01*
X167854333Y-124583714D01*
X167663857Y-124583714D01*
X167568619Y-124631333D01*
X167997190Y-125202761D02*
X167901952Y-125250380D01*
X167663857Y-125250380D01*
X167568619Y-125202761D01*
X167521000Y-125107523D01*
X167521000Y-125012285D01*
X167568619Y-124917047D01*
X167663857Y-124869428D01*
X167901952Y-124869428D01*
X167997190Y-124821809D01*
X168473380Y-125250380D02*
X168473380Y-124583714D01*
X168473380Y-124774190D02*
X168521000Y-124678952D01*
X168568619Y-124631333D01*
X168663857Y-124583714D01*
X168759095Y-124583714D01*
X169521000Y-125250380D02*
X169521000Y-124250380D01*
X169521000Y-125202761D02*
X169425761Y-125250380D01*
X169235285Y-125250380D01*
X169140047Y-125202761D01*
X169092428Y-125155142D01*
X169044809Y-125059904D01*
X169044809Y-124774190D01*
X169092428Y-124678952D01*
X169140047Y-124631333D01*
X169235285Y-124583714D01*
X169425761Y-124583714D01*
X169521000Y-124631333D01*
X170663857Y-124583714D02*
X170901952Y-125250380D01*
X171140047Y-124583714D01*
X171949571Y-124583714D02*
X171949571Y-125250380D01*
X171711476Y-124202761D02*
X171473380Y-124917047D01*
X172092428Y-124917047D01*
X172473380Y-125155142D02*
X172521000Y-125202761D01*
X172473380Y-125250380D01*
X172425761Y-125202761D01*
X172473380Y-125155142D01*
X172473380Y-125250380D01*
X173140047Y-124250380D02*
X173235285Y-124250380D01*
X173330523Y-124298000D01*
X173378142Y-124345619D01*
X173425761Y-124440857D01*
X173473380Y-124631333D01*
X173473380Y-124869428D01*
X173425761Y-125059904D01*
X173378142Y-125155142D01*
X173330523Y-125202761D01*
X173235285Y-125250380D01*
X173140047Y-125250380D01*
X173044809Y-125202761D01*
X172997190Y-125155142D01*
X172949571Y-125059904D01*
X172901952Y-124869428D01*
X172901952Y-124631333D01*
X172949571Y-124440857D01*
X172997190Y-124345619D01*
X173044809Y-124298000D01*
X173140047Y-124250380D01*
X174092428Y-124250380D02*
X174187666Y-124250380D01*
X174282904Y-124298000D01*
X174330523Y-124345619D01*
X174378142Y-124440857D01*
X174425761Y-124631333D01*
X174425761Y-124869428D01*
X174378142Y-125059904D01*
X174330523Y-125155142D01*
X174282904Y-125202761D01*
X174187666Y-125250380D01*
X174092428Y-125250380D01*
X173997190Y-125202761D01*
X173949571Y-125155142D01*
X173901952Y-125059904D01*
X173854333Y-124869428D01*
X173854333Y-124631333D01*
X173901952Y-124440857D01*
X173949571Y-124345619D01*
X173997190Y-124298000D01*
X174092428Y-124250380D01*
X175616238Y-124869428D02*
X176378142Y-124869428D01*
X177806714Y-124250380D02*
X177997190Y-124250380D01*
X178092428Y-124298000D01*
X178187666Y-124393238D01*
X178235285Y-124583714D01*
X178235285Y-124917047D01*
X178187666Y-125107523D01*
X178092428Y-125202761D01*
X177997190Y-125250380D01*
X177806714Y-125250380D01*
X177711476Y-125202761D01*
X177616238Y-125107523D01*
X177568619Y-124917047D01*
X177568619Y-124583714D01*
X177616238Y-124393238D01*
X177711476Y-124298000D01*
X177806714Y-124250380D01*
X178663857Y-125250380D02*
X178663857Y-124250380D01*
X179092428Y-125250380D02*
X179092428Y-124726571D01*
X179044809Y-124631333D01*
X178949571Y-124583714D01*
X178806714Y-124583714D01*
X178711476Y-124631333D01*
X178663857Y-124678952D01*
X179568619Y-125250380D02*
X179568619Y-124583714D01*
X179568619Y-124678952D02*
X179616238Y-124631333D01*
X179711476Y-124583714D01*
X179854333Y-124583714D01*
X179949571Y-124631333D01*
X179997190Y-124726571D01*
X179997190Y-125250380D01*
X179997190Y-124726571D02*
X180044809Y-124631333D01*
X180140047Y-124583714D01*
X180282904Y-124583714D01*
X180378142Y-124631333D01*
X180425761Y-124726571D01*
X180425761Y-125250380D01*
X180901952Y-125250380D02*
X180901952Y-124250380D01*
X181282904Y-124250380D01*
X181378142Y-124298000D01*
X181425761Y-124345619D01*
X181473380Y-124440857D01*
X181473380Y-124583714D01*
X181425761Y-124678952D01*
X181378142Y-124726571D01*
X181282904Y-124774190D01*
X180901952Y-124774190D01*
X181901952Y-125250380D02*
X181901952Y-124583714D01*
X181901952Y-124250380D02*
X181854333Y-124298000D01*
X181901952Y-124345619D01*
X181949571Y-124298000D01*
X181901952Y-124250380D01*
X181901952Y-124345619D01*
X182997190Y-124250380D02*
X183568619Y-124250380D01*
X183282904Y-125250380D02*
X183282904Y-124250380D01*
X184282904Y-125202761D02*
X184187666Y-125250380D01*
X183997190Y-125250380D01*
X183901952Y-125202761D01*
X183854333Y-125107523D01*
X183854333Y-124726571D01*
X183901952Y-124631333D01*
X183997190Y-124583714D01*
X184187666Y-124583714D01*
X184282904Y-124631333D01*
X184330523Y-124726571D01*
X184330523Y-124821809D01*
X183854333Y-124917047D01*
X185187666Y-125250380D02*
X185187666Y-124726571D01*
X185140047Y-124631333D01*
X185044809Y-124583714D01*
X184854333Y-124583714D01*
X184759095Y-124631333D01*
X185187666Y-125202761D02*
X185092428Y-125250380D01*
X184854333Y-125250380D01*
X184759095Y-125202761D01*
X184711476Y-125107523D01*
X184711476Y-125012285D01*
X184759095Y-124917047D01*
X184854333Y-124869428D01*
X185092428Y-124869428D01*
X185187666Y-124821809D01*
X185663857Y-125250380D02*
X185663857Y-124583714D01*
X185663857Y-124678952D02*
X185711476Y-124631333D01*
X185806714Y-124583714D01*
X185949571Y-124583714D01*
X186044809Y-124631333D01*
X186092428Y-124726571D01*
X186092428Y-125250380D01*
X186092428Y-124726571D02*
X186140047Y-124631333D01*
X186235285Y-124583714D01*
X186378142Y-124583714D01*
X186473380Y-124631333D01*
X186521000Y-124726571D01*
X186521000Y-125250380D01*
X151997190Y-126860380D02*
X151997190Y-125860380D01*
X152425761Y-126860380D02*
X152425761Y-126336571D01*
X152378142Y-126241333D01*
X152282904Y-126193714D01*
X152140047Y-126193714D01*
X152044809Y-126241333D01*
X151997190Y-126288952D01*
X152759095Y-126193714D02*
X153140047Y-126193714D01*
X152901952Y-125860380D02*
X152901952Y-126717523D01*
X152949571Y-126812761D01*
X153044809Y-126860380D01*
X153140047Y-126860380D01*
X153330523Y-126193714D02*
X153711476Y-126193714D01*
X153473380Y-125860380D02*
X153473380Y-126717523D01*
X153521000Y-126812761D01*
X153616238Y-126860380D01*
X153711476Y-126860380D01*
X154044809Y-126193714D02*
X154044809Y-127193714D01*
X154044809Y-126241333D02*
X154140047Y-126193714D01*
X154330523Y-126193714D01*
X154425761Y-126241333D01*
X154473380Y-126288952D01*
X154521000Y-126384190D01*
X154521000Y-126669904D01*
X154473380Y-126765142D01*
X154425761Y-126812761D01*
X154330523Y-126860380D01*
X154140047Y-126860380D01*
X154044809Y-126812761D01*
X154901952Y-126812761D02*
X154997190Y-126860380D01*
X155187666Y-126860380D01*
X155282904Y-126812761D01*
X155330523Y-126717523D01*
X155330523Y-126669904D01*
X155282904Y-126574666D01*
X155187666Y-126527047D01*
X155044809Y-126527047D01*
X154949571Y-126479428D01*
X154901952Y-126384190D01*
X154901952Y-126336571D01*
X154949571Y-126241333D01*
X155044809Y-126193714D01*
X155187666Y-126193714D01*
X155282904Y-126241333D01*
X155759095Y-126765142D02*
X155806714Y-126812761D01*
X155759095Y-126860380D01*
X155711476Y-126812761D01*
X155759095Y-126765142D01*
X155759095Y-126860380D01*
X155759095Y-126241333D02*
X155806714Y-126288952D01*
X155759095Y-126336571D01*
X155711476Y-126288952D01*
X155759095Y-126241333D01*
X155759095Y-126336571D01*
X156949571Y-125812761D02*
X156092428Y-127098476D01*
X157997190Y-125812761D02*
X157140047Y-127098476D01*
X158330523Y-126860380D02*
X158330523Y-126193714D01*
X158330523Y-126384190D02*
X158378142Y-126288952D01*
X158425761Y-126241333D01*
X158521000Y-126193714D01*
X158616238Y-126193714D01*
X159330523Y-126812761D02*
X159235285Y-126860380D01*
X159044809Y-126860380D01*
X158949571Y-126812761D01*
X158901952Y-126717523D01*
X158901952Y-126336571D01*
X158949571Y-126241333D01*
X159044809Y-126193714D01*
X159235285Y-126193714D01*
X159330523Y-126241333D01*
X159378142Y-126336571D01*
X159378142Y-126431809D01*
X158901952Y-126527047D01*
X159711476Y-126193714D02*
X159949571Y-126860380D01*
X160187666Y-126193714D01*
X160949571Y-126812761D02*
X160854333Y-126860380D01*
X160663857Y-126860380D01*
X160568619Y-126812761D01*
X160521000Y-126717523D01*
X160521000Y-126336571D01*
X160568619Y-126241333D01*
X160663857Y-126193714D01*
X160854333Y-126193714D01*
X160949571Y-126241333D01*
X160997190Y-126336571D01*
X160997190Y-126431809D01*
X160521000Y-126527047D01*
X161425761Y-126860380D02*
X161425761Y-126193714D01*
X161425761Y-126384190D02*
X161473380Y-126288952D01*
X161521000Y-126241333D01*
X161616238Y-126193714D01*
X161711476Y-126193714D01*
X161997190Y-126812761D02*
X162092428Y-126860380D01*
X162282904Y-126860380D01*
X162378142Y-126812761D01*
X162425761Y-126717523D01*
X162425761Y-126669904D01*
X162378142Y-126574666D01*
X162282904Y-126527047D01*
X162140047Y-126527047D01*
X162044809Y-126479428D01*
X161997190Y-126384190D01*
X161997190Y-126336571D01*
X162044809Y-126241333D01*
X162140047Y-126193714D01*
X162282904Y-126193714D01*
X162378142Y-126241333D01*
X163282904Y-126860380D02*
X163282904Y-126336571D01*
X163235285Y-126241333D01*
X163140047Y-126193714D01*
X162949571Y-126193714D01*
X162854333Y-126241333D01*
X163282904Y-126812761D02*
X163187666Y-126860380D01*
X162949571Y-126860380D01*
X162854333Y-126812761D01*
X162806714Y-126717523D01*
X162806714Y-126622285D01*
X162854333Y-126527047D01*
X162949571Y-126479428D01*
X163187666Y-126479428D01*
X163282904Y-126431809D01*
X164187666Y-126860380D02*
X164187666Y-126336571D01*
X164140047Y-126241333D01*
X164044809Y-126193714D01*
X163854333Y-126193714D01*
X163759095Y-126241333D01*
X164187666Y-126812761D02*
X164092428Y-126860380D01*
X163854333Y-126860380D01*
X163759095Y-126812761D01*
X163711476Y-126717523D01*
X163711476Y-126622285D01*
X163759095Y-126527047D01*
X163854333Y-126479428D01*
X164092428Y-126479428D01*
X164187666Y-126431809D01*
X164806714Y-126860380D02*
X164711476Y-126812761D01*
X164663857Y-126717523D01*
X164663857Y-125860380D01*
X165187666Y-126765142D02*
X165235285Y-126812761D01*
X165187666Y-126860380D01*
X165140047Y-126812761D01*
X165187666Y-126765142D01*
X165187666Y-126860380D01*
X166092428Y-126193714D02*
X166092428Y-127003238D01*
X166044809Y-127098476D01*
X165997190Y-127146095D01*
X165901952Y-127193714D01*
X165759095Y-127193714D01*
X165663857Y-127146095D01*
X166092428Y-126812761D02*
X165997190Y-126860380D01*
X165806714Y-126860380D01*
X165711476Y-126812761D01*
X165663857Y-126765142D01*
X165616238Y-126669904D01*
X165616238Y-126384190D01*
X165663857Y-126288952D01*
X165711476Y-126241333D01*
X165806714Y-126193714D01*
X165997190Y-126193714D01*
X166092428Y-126241333D01*
X166568619Y-126860380D02*
X166568619Y-126193714D01*
X166568619Y-125860380D02*
X166521000Y-125908000D01*
X166568619Y-125955619D01*
X166616238Y-125908000D01*
X166568619Y-125860380D01*
X166568619Y-125955619D01*
X166901952Y-126193714D02*
X167282904Y-126193714D01*
X167044809Y-125860380D02*
X167044809Y-126717523D01*
X167092428Y-126812761D01*
X167187666Y-126860380D01*
X167282904Y-126860380D01*
X167759095Y-126860380D02*
X167663857Y-126812761D01*
X167616238Y-126717523D01*
X167616238Y-125860380D01*
X168568619Y-126860380D02*
X168568619Y-126336571D01*
X168521000Y-126241333D01*
X168425761Y-126193714D01*
X168235285Y-126193714D01*
X168140047Y-126241333D01*
X168568619Y-126812761D02*
X168473380Y-126860380D01*
X168235285Y-126860380D01*
X168140047Y-126812761D01*
X168092428Y-126717523D01*
X168092428Y-126622285D01*
X168140047Y-126527047D01*
X168235285Y-126479428D01*
X168473380Y-126479428D01*
X168568619Y-126431809D01*
X169044809Y-126860380D02*
X169044809Y-125860380D01*
X169044809Y-126241333D02*
X169140047Y-126193714D01*
X169330523Y-126193714D01*
X169425761Y-126241333D01*
X169473380Y-126288952D01*
X169520999Y-126384190D01*
X169520999Y-126669904D01*
X169473380Y-126765142D01*
X169425761Y-126812761D01*
X169330523Y-126860380D01*
X169140047Y-126860380D01*
X169044809Y-126812761D01*
X169949571Y-126765142D02*
X169997190Y-126812761D01*
X169949571Y-126860380D01*
X169901952Y-126812761D01*
X169949571Y-126765142D01*
X169949571Y-126860380D01*
X170425761Y-126860380D02*
X170425761Y-126193714D01*
X170425761Y-125860380D02*
X170378142Y-125908000D01*
X170425761Y-125955619D01*
X170473380Y-125908000D01*
X170425761Y-125860380D01*
X170425761Y-125955619D01*
X170901952Y-126860380D02*
X170901952Y-126193714D01*
X170901952Y-126384190D02*
X170949571Y-126288952D01*
X170997190Y-126241333D01*
X171092428Y-126193714D01*
X171187666Y-126193714D01*
X171473380Y-126812761D02*
X171568619Y-126860380D01*
X171759095Y-126860380D01*
X171854333Y-126812761D01*
X171901952Y-126717523D01*
X171901952Y-126669904D01*
X171854333Y-126574666D01*
X171759095Y-126527047D01*
X171616238Y-126527047D01*
X171521000Y-126479428D01*
X171473380Y-126384190D01*
X171473380Y-126336571D01*
X171521000Y-126241333D01*
X171616238Y-126193714D01*
X171759095Y-126193714D01*
X171854333Y-126241333D01*
X172187666Y-126193714D02*
X172568619Y-126193714D01*
X172330523Y-125860380D02*
X172330523Y-126717523D01*
X172378142Y-126812761D01*
X172473380Y-126860380D01*
X172568619Y-126860380D01*
X173282904Y-126812761D02*
X173187666Y-126860380D01*
X172997190Y-126860380D01*
X172901952Y-126812761D01*
X172854333Y-126717523D01*
X172854333Y-126336571D01*
X172901952Y-126241333D01*
X172997190Y-126193714D01*
X173187666Y-126193714D01*
X173282904Y-126241333D01*
X173330523Y-126336571D01*
X173330523Y-126431809D01*
X172854333Y-126527047D01*
X174187666Y-126860380D02*
X174187666Y-126336571D01*
X174140047Y-126241333D01*
X174044809Y-126193714D01*
X173854333Y-126193714D01*
X173759095Y-126241333D01*
X174187666Y-126812761D02*
X174092428Y-126860380D01*
X173854333Y-126860380D01*
X173759095Y-126812761D01*
X173711476Y-126717523D01*
X173711476Y-126622285D01*
X173759095Y-126527047D01*
X173854333Y-126479428D01*
X174092428Y-126479428D01*
X174187666Y-126431809D01*
X174663857Y-126765142D02*
X174711476Y-126812761D01*
X174663857Y-126860380D01*
X174616238Y-126812761D01*
X174663857Y-126765142D01*
X174663857Y-126860380D01*
X175140047Y-126193714D02*
X175140047Y-127193714D01*
X175140047Y-126241333D02*
X175235285Y-126193714D01*
X175425761Y-126193714D01*
X175521000Y-126241333D01*
X175568619Y-126288952D01*
X175616238Y-126384190D01*
X175616238Y-126669904D01*
X175568619Y-126765142D01*
X175521000Y-126812761D01*
X175425761Y-126860380D01*
X175235285Y-126860380D01*
X175140047Y-126812761D01*
X176473380Y-126860380D02*
X176473380Y-126336571D01*
X176425761Y-126241333D01*
X176330523Y-126193714D01*
X176140047Y-126193714D01*
X176044809Y-126241333D01*
X176473380Y-126812761D02*
X176378142Y-126860380D01*
X176140047Y-126860380D01*
X176044809Y-126812761D01*
X175997190Y-126717523D01*
X175997190Y-126622285D01*
X176044809Y-126527047D01*
X176140047Y-126479428D01*
X176378142Y-126479428D01*
X176473380Y-126431809D01*
X177378142Y-126193714D02*
X177378142Y-127003238D01*
X177330523Y-127098476D01*
X177282904Y-127146095D01*
X177187666Y-127193714D01*
X177044809Y-127193714D01*
X176949571Y-127146095D01*
X177378142Y-126812761D02*
X177282904Y-126860380D01*
X177092428Y-126860380D01*
X176997190Y-126812761D01*
X176949571Y-126765142D01*
X176901952Y-126669904D01*
X176901952Y-126384190D01*
X176949571Y-126288952D01*
X176997190Y-126241333D01*
X177092428Y-126193714D01*
X177282904Y-126193714D01*
X177378142Y-126241333D01*
X178235285Y-126812761D02*
X178140047Y-126860380D01*
X177949571Y-126860380D01*
X177854333Y-126812761D01*
X177806714Y-126717523D01*
X177806714Y-126336571D01*
X177854333Y-126241333D01*
X177949571Y-126193714D01*
X178140047Y-126193714D01*
X178235285Y-126241333D01*
X178282904Y-126336571D01*
X178282904Y-126431809D01*
X177806714Y-126527047D01*
X179425761Y-125812761D02*
X178568619Y-127098476D01*
X179949571Y-125860380D02*
X180140047Y-125860380D01*
X180235285Y-125908000D01*
X180330523Y-126003238D01*
X180378142Y-126193714D01*
X180378142Y-126527047D01*
X180330523Y-126717523D01*
X180235285Y-126812761D01*
X180140047Y-126860380D01*
X179949571Y-126860380D01*
X179854333Y-126812761D01*
X179759095Y-126717523D01*
X179711476Y-126527047D01*
X179711476Y-126193714D01*
X179759095Y-126003238D01*
X179854333Y-125908000D01*
X179949571Y-125860380D01*
X180806714Y-126860380D02*
X180806714Y-125860380D01*
X181235285Y-126860380D02*
X181235285Y-126336571D01*
X181187666Y-126241333D01*
X181092428Y-126193714D01*
X180949571Y-126193714D01*
X180854333Y-126241333D01*
X180806714Y-126288952D01*
X181711476Y-126860380D02*
X181711476Y-126193714D01*
X181711476Y-126288952D02*
X181759095Y-126241333D01*
X181854333Y-126193714D01*
X181997190Y-126193714D01*
X182092428Y-126241333D01*
X182140047Y-126336571D01*
X182140047Y-126860380D01*
X182140047Y-126336571D02*
X182187666Y-126241333D01*
X182282904Y-126193714D01*
X182425761Y-126193714D01*
X182520999Y-126241333D01*
X182568619Y-126336571D01*
X182568619Y-126860380D01*
X183044809Y-126860380D02*
X183044809Y-125860380D01*
X183425761Y-125860380D01*
X183520999Y-125908000D01*
X183568619Y-125955619D01*
X183616238Y-126050857D01*
X183616238Y-126193714D01*
X183568619Y-126288952D01*
X183520999Y-126336571D01*
X183425761Y-126384190D01*
X183044809Y-126384190D01*
X184044809Y-126860380D02*
X184044809Y-126193714D01*
X184044809Y-125860380D02*
X183997190Y-125908000D01*
X184044809Y-125955619D01*
X184092428Y-125908000D01*
X184044809Y-125860380D01*
X184044809Y-125955619D01*
X226957142Y-125658571D02*
X227100000Y-125706190D01*
X227147619Y-125753809D01*
X227195238Y-125849047D01*
X227195238Y-125991904D01*
X227147619Y-126087142D01*
X227100000Y-126134761D01*
X227004761Y-126182380D01*
X226623809Y-126182380D01*
X226623809Y-125182380D01*
X226957142Y-125182380D01*
X227052380Y-125230000D01*
X227100000Y-125277619D01*
X227147619Y-125372857D01*
X227147619Y-125468095D01*
X227100000Y-125563333D01*
X227052380Y-125610952D01*
X226957142Y-125658571D01*
X226623809Y-125658571D01*
X229100000Y-125134761D02*
X228242857Y-126420476D01*
X230147619Y-125896666D02*
X230623809Y-125896666D01*
X230052380Y-126182380D02*
X230385714Y-125182380D01*
X230719047Y-126182380D01*
X120333333Y-127266428D02*
X121095238Y-127266428D01*
X120714285Y-127647380D02*
X120714285Y-126885476D01*
X122095238Y-127647380D02*
X121523809Y-127647380D01*
X121809523Y-127647380D02*
X121809523Y-126647380D01*
X121714285Y-126790238D01*
X121619047Y-126885476D01*
X121523809Y-126933095D01*
X122476190Y-126742619D02*
X122523809Y-126695000D01*
X122619047Y-126647380D01*
X122857142Y-126647380D01*
X122952380Y-126695000D01*
X123000000Y-126742619D01*
X123047619Y-126837857D01*
X123047619Y-126933095D01*
X123000000Y-127075952D01*
X122428571Y-127647380D01*
X123047619Y-127647380D01*
X123333333Y-126647380D02*
X123666666Y-127647380D01*
X124000000Y-126647380D01*
X125619047Y-126695000D02*
X125523809Y-126647380D01*
X125380952Y-126647380D01*
X125238095Y-126695000D01*
X125142857Y-126790238D01*
X125095238Y-126885476D01*
X125047619Y-127075952D01*
X125047619Y-127218809D01*
X125095238Y-127409285D01*
X125142857Y-127504523D01*
X125238095Y-127599761D01*
X125380952Y-127647380D01*
X125476190Y-127647380D01*
X125619047Y-127599761D01*
X125666666Y-127552142D01*
X125666666Y-127218809D01*
X125476190Y-127218809D01*
X126095238Y-127647380D02*
X126095238Y-126647380D01*
X126666666Y-127647380D01*
X126666666Y-126647380D01*
X127142857Y-127647380D02*
X127142857Y-126647380D01*
X127380952Y-126647380D01*
X127523809Y-126695000D01*
X127619047Y-126790238D01*
X127666666Y-126885476D01*
X127714285Y-127075952D01*
X127714285Y-127218809D01*
X127666666Y-127409285D01*
X127619047Y-127504523D01*
X127523809Y-127599761D01*
X127380952Y-127647380D01*
X127142857Y-127647380D01*
X120904761Y-129257380D02*
X120571428Y-128781190D01*
X120333333Y-129257380D02*
X120333333Y-128257380D01*
X120714285Y-128257380D01*
X120809523Y-128305000D01*
X120857142Y-128352619D01*
X120904761Y-128447857D01*
X120904761Y-128590714D01*
X120857142Y-128685952D01*
X120809523Y-128733571D01*
X120714285Y-128781190D01*
X120333333Y-128781190D01*
X121238095Y-128257380D02*
X121904761Y-129257380D01*
X121904761Y-128257380D02*
X121238095Y-129257380D01*
X123047619Y-129257380D02*
X123047619Y-128257380D01*
X123428571Y-128257380D01*
X123523809Y-128305000D01*
X123571428Y-128352619D01*
X123619047Y-128447857D01*
X123619047Y-128590714D01*
X123571428Y-128685952D01*
X123523809Y-128733571D01*
X123428571Y-128781190D01*
X123047619Y-128781190D01*
X124238095Y-128257380D02*
X124428571Y-128257380D01*
X124523809Y-128305000D01*
X124619047Y-128400238D01*
X124666666Y-128590714D01*
X124666666Y-128924047D01*
X124619047Y-129114523D01*
X124523809Y-129209761D01*
X124428571Y-129257380D01*
X124238095Y-129257380D01*
X124142857Y-129209761D01*
X124047619Y-129114523D01*
X124000000Y-128924047D01*
X124000000Y-128590714D01*
X124047619Y-128400238D01*
X124142857Y-128305000D01*
X124238095Y-128257380D01*
X125000000Y-128257380D02*
X125238095Y-129257380D01*
X125428571Y-128543095D01*
X125619047Y-129257380D01*
X125857142Y-128257380D01*
X126238095Y-128733571D02*
X126571428Y-128733571D01*
X126714285Y-129257380D02*
X126238095Y-129257380D01*
X126238095Y-128257380D01*
X126714285Y-128257380D01*
X127714285Y-129257380D02*
X127380952Y-128781190D01*
X127142857Y-129257380D02*
X127142857Y-128257380D01*
X127523809Y-128257380D01*
X127619047Y-128305000D01*
X127666666Y-128352619D01*
X127714285Y-128447857D01*
X127714285Y-128590714D01*
X127666666Y-128685952D01*
X127619047Y-128733571D01*
X127523809Y-128781190D01*
X127142857Y-128781190D01*
%TO.C,J11*%
X212540476Y-53972380D02*
X212540476Y-54686666D01*
X212492857Y-54829523D01*
X212397619Y-54924761D01*
X212254761Y-54972380D01*
X212159523Y-54972380D01*
X213540476Y-54972380D02*
X212969047Y-54972380D01*
X213254761Y-54972380D02*
X213254761Y-53972380D01*
X213159523Y-54115238D01*
X213064285Y-54210476D01*
X212969047Y-54258095D01*
X214492857Y-54972380D02*
X213921428Y-54972380D01*
X214207142Y-54972380D02*
X214207142Y-53972380D01*
X214111904Y-54115238D01*
X214016666Y-54210476D01*
X213921428Y-54258095D01*
%TO.C,J12*%
X207190476Y-59452380D02*
X207190476Y-60166666D01*
X207142857Y-60309523D01*
X207047619Y-60404761D01*
X206904761Y-60452380D01*
X206809523Y-60452380D01*
X208190476Y-60452380D02*
X207619047Y-60452380D01*
X207904761Y-60452380D02*
X207904761Y-59452380D01*
X207809523Y-59595238D01*
X207714285Y-59690476D01*
X207619047Y-59738095D01*
X208571428Y-59547619D02*
X208619047Y-59500000D01*
X208714285Y-59452380D01*
X208952380Y-59452380D01*
X209047619Y-59500000D01*
X209095238Y-59547619D01*
X209142857Y-59642857D01*
X209142857Y-59738095D01*
X209095238Y-59880952D01*
X208523809Y-60452380D01*
X209142857Y-60452380D01*
%TO.C,J13*%
X196782380Y-73809523D02*
X197496666Y-73809523D01*
X197639523Y-73857142D01*
X197734761Y-73952380D01*
X197782380Y-74095238D01*
X197782380Y-74190476D01*
X197782380Y-72809523D02*
X197782380Y-73380952D01*
X197782380Y-73095238D02*
X196782380Y-73095238D01*
X196925238Y-73190476D01*
X197020476Y-73285714D01*
X197068095Y-73380952D01*
X196782380Y-72476190D02*
X196782380Y-71857142D01*
X197163333Y-72190476D01*
X197163333Y-72047619D01*
X197210952Y-71952380D01*
X197258571Y-71904761D01*
X197353809Y-71857142D01*
X197591904Y-71857142D01*
X197687142Y-71904761D01*
X197734761Y-71952380D01*
X197782380Y-72047619D01*
X197782380Y-72333333D01*
X197734761Y-72428571D01*
X197687142Y-72476190D01*
%TO.C,J10*%
X196782380Y-50949523D02*
X197496666Y-50949523D01*
X197639523Y-50997142D01*
X197734761Y-51092380D01*
X197782380Y-51235238D01*
X197782380Y-51330476D01*
X197782380Y-49949523D02*
X197782380Y-50520952D01*
X197782380Y-50235238D02*
X196782380Y-50235238D01*
X196925238Y-50330476D01*
X197020476Y-50425714D01*
X197068095Y-50520952D01*
X196782380Y-49330476D02*
X196782380Y-49235238D01*
X196830000Y-49140000D01*
X196877619Y-49092380D01*
X196972857Y-49044761D01*
X197163333Y-48997142D01*
X197401428Y-48997142D01*
X197591904Y-49044761D01*
X197687142Y-49092380D01*
X197734761Y-49140000D01*
X197782380Y-49235238D01*
X197782380Y-49330476D01*
X197734761Y-49425714D01*
X197687142Y-49473333D01*
X197591904Y-49520952D01*
X197401428Y-49568571D01*
X197163333Y-49568571D01*
X196972857Y-49520952D01*
X196877619Y-49473333D01*
X196830000Y-49425714D01*
X196782380Y-49330476D01*
%TO.C,C10*%
X42902142Y-58427857D02*
X42949761Y-58475476D01*
X42997380Y-58618333D01*
X42997380Y-58713571D01*
X42949761Y-58856428D01*
X42854523Y-58951666D01*
X42759285Y-58999285D01*
X42568809Y-59046904D01*
X42425952Y-59046904D01*
X42235476Y-58999285D01*
X42140238Y-58951666D01*
X42045000Y-58856428D01*
X41997380Y-58713571D01*
X41997380Y-58618333D01*
X42045000Y-58475476D01*
X42092619Y-58427857D01*
X42997380Y-57475476D02*
X42997380Y-58046904D01*
X42997380Y-57761190D02*
X41997380Y-57761190D01*
X42140238Y-57856428D01*
X42235476Y-57951666D01*
X42283095Y-58046904D01*
X41997380Y-56856428D02*
X41997380Y-56761190D01*
X42045000Y-56665952D01*
X42092619Y-56618333D01*
X42187857Y-56570714D01*
X42378333Y-56523095D01*
X42616428Y-56523095D01*
X42806904Y-56570714D01*
X42902142Y-56618333D01*
X42949761Y-56665952D01*
X42997380Y-56761190D01*
X42997380Y-56856428D01*
X42949761Y-56951666D01*
X42902142Y-56999285D01*
X42806904Y-57046904D01*
X42616428Y-57094523D01*
X42378333Y-57094523D01*
X42187857Y-57046904D01*
X42092619Y-56999285D01*
X42045000Y-56951666D01*
X41997380Y-56856428D01*
%TO.C,J6*%
X110597380Y-48878333D02*
X111311666Y-48878333D01*
X111454523Y-48925952D01*
X111549761Y-49021190D01*
X111597380Y-49164047D01*
X111597380Y-49259285D01*
X110597380Y-47973571D02*
X110597380Y-48164047D01*
X110645000Y-48259285D01*
X110692619Y-48306904D01*
X110835476Y-48402142D01*
X111025952Y-48449761D01*
X111406904Y-48449761D01*
X111502142Y-48402142D01*
X111549761Y-48354523D01*
X111597380Y-48259285D01*
X111597380Y-48068809D01*
X111549761Y-47973571D01*
X111502142Y-47925952D01*
X111406904Y-47878333D01*
X111168809Y-47878333D01*
X111073571Y-47925952D01*
X111025952Y-47973571D01*
X110978333Y-48068809D01*
X110978333Y-48259285D01*
X111025952Y-48354523D01*
X111073571Y-48402142D01*
X111168809Y-48449761D01*
%TO.C,R3*%
X56983333Y-86642380D02*
X56650000Y-86166190D01*
X56411904Y-86642380D02*
X56411904Y-85642380D01*
X56792857Y-85642380D01*
X56888095Y-85690000D01*
X56935714Y-85737619D01*
X56983333Y-85832857D01*
X56983333Y-85975714D01*
X56935714Y-86070952D01*
X56888095Y-86118571D01*
X56792857Y-86166190D01*
X56411904Y-86166190D01*
X57316666Y-85642380D02*
X57935714Y-85642380D01*
X57602380Y-86023333D01*
X57745238Y-86023333D01*
X57840476Y-86070952D01*
X57888095Y-86118571D01*
X57935714Y-86213809D01*
X57935714Y-86451904D01*
X57888095Y-86547142D01*
X57840476Y-86594761D01*
X57745238Y-86642380D01*
X57459523Y-86642380D01*
X57364285Y-86594761D01*
X57316666Y-86547142D01*
D11*
%TO.C,U6*%
X92009523Y-74888619D02*
X93037619Y-74888619D01*
X93158571Y-74828142D01*
X93219047Y-74767666D01*
X93279523Y-74646714D01*
X93279523Y-74404809D01*
X93219047Y-74283857D01*
X93158571Y-74223380D01*
X93037619Y-74162904D01*
X92009523Y-74162904D01*
X92009523Y-73013857D02*
X92009523Y-73255761D01*
X92070000Y-73376714D01*
X92130476Y-73437190D01*
X92311904Y-73558142D01*
X92553809Y-73618619D01*
X93037619Y-73618619D01*
X93158571Y-73558142D01*
X93219047Y-73497666D01*
X93279523Y-73376714D01*
X93279523Y-73134809D01*
X93219047Y-73013857D01*
X93158571Y-72953380D01*
X93037619Y-72892904D01*
X92735238Y-72892904D01*
X92614285Y-72953380D01*
X92553809Y-73013857D01*
X92493333Y-73134809D01*
X92493333Y-73376714D01*
X92553809Y-73497666D01*
X92614285Y-73558142D01*
X92735238Y-73618619D01*
D10*
%TO.C,C9*%
X72112142Y-75568666D02*
X72159761Y-75616285D01*
X72207380Y-75759142D01*
X72207380Y-75854380D01*
X72159761Y-75997238D01*
X72064523Y-76092476D01*
X71969285Y-76140095D01*
X71778809Y-76187714D01*
X71635952Y-76187714D01*
X71445476Y-76140095D01*
X71350238Y-76092476D01*
X71255000Y-75997238D01*
X71207380Y-75854380D01*
X71207380Y-75759142D01*
X71255000Y-75616285D01*
X71302619Y-75568666D01*
X72207380Y-75092476D02*
X72207380Y-74902000D01*
X72159761Y-74806761D01*
X72112142Y-74759142D01*
X71969285Y-74663904D01*
X71778809Y-74616285D01*
X71397857Y-74616285D01*
X71302619Y-74663904D01*
X71255000Y-74711523D01*
X71207380Y-74806761D01*
X71207380Y-74997238D01*
X71255000Y-75092476D01*
X71302619Y-75140095D01*
X71397857Y-75187714D01*
X71635952Y-75187714D01*
X71731190Y-75140095D01*
X71778809Y-75092476D01*
X71826428Y-74997238D01*
X71826428Y-74806761D01*
X71778809Y-74711523D01*
X71731190Y-74663904D01*
X71635952Y-74616285D01*
%TO.C,D4*%
X74112380Y-61878095D02*
X73112380Y-61878095D01*
X73112380Y-61640000D01*
X73160000Y-61497142D01*
X73255238Y-61401904D01*
X73350476Y-61354285D01*
X73540952Y-61306666D01*
X73683809Y-61306666D01*
X73874285Y-61354285D01*
X73969523Y-61401904D01*
X74064761Y-61497142D01*
X74112380Y-61640000D01*
X74112380Y-61878095D01*
X73445714Y-60449523D02*
X74112380Y-60449523D01*
X73064761Y-60687619D02*
X73779047Y-60925714D01*
X73779047Y-60306666D01*
X73192380Y-57591904D02*
X72192380Y-57591904D01*
X73192380Y-57020476D02*
X72620952Y-57449047D01*
X72192380Y-57020476D02*
X72763809Y-57591904D01*
%TO.C,U3*%
X66362380Y-61911904D02*
X67171904Y-61911904D01*
X67267142Y-61864285D01*
X67314761Y-61816666D01*
X67362380Y-61721428D01*
X67362380Y-61530952D01*
X67314761Y-61435714D01*
X67267142Y-61388095D01*
X67171904Y-61340476D01*
X66362380Y-61340476D01*
X66362380Y-60959523D02*
X66362380Y-60340476D01*
X66743333Y-60673809D01*
X66743333Y-60530952D01*
X66790952Y-60435714D01*
X66838571Y-60388095D01*
X66933809Y-60340476D01*
X67171904Y-60340476D01*
X67267142Y-60388095D01*
X67314761Y-60435714D01*
X67362380Y-60530952D01*
X67362380Y-60816666D01*
X67314761Y-60911904D01*
X67267142Y-60959523D01*
%TO.C,U2*%
X156728095Y-80952380D02*
X156728095Y-81761904D01*
X156775714Y-81857142D01*
X156823333Y-81904761D01*
X156918571Y-81952380D01*
X157109047Y-81952380D01*
X157204285Y-81904761D01*
X157251904Y-81857142D01*
X157299523Y-81761904D01*
X157299523Y-80952380D01*
X157728095Y-81047619D02*
X157775714Y-81000000D01*
X157870952Y-80952380D01*
X158109047Y-80952380D01*
X158204285Y-81000000D01*
X158251904Y-81047619D01*
X158299523Y-81142857D01*
X158299523Y-81238095D01*
X158251904Y-81380952D01*
X157680476Y-81952380D01*
X158299523Y-81952380D01*
%TO.C,J2*%
X50466666Y-117562380D02*
X50466666Y-118276666D01*
X50419047Y-118419523D01*
X50323809Y-118514761D01*
X50180952Y-118562380D01*
X50085714Y-118562380D01*
X50895238Y-117657619D02*
X50942857Y-117610000D01*
X51038095Y-117562380D01*
X51276190Y-117562380D01*
X51371428Y-117610000D01*
X51419047Y-117657619D01*
X51466666Y-117752857D01*
X51466666Y-117848095D01*
X51419047Y-117990952D01*
X50847619Y-118562380D01*
X51466666Y-118562380D01*
%TO.C,C5*%
X47387142Y-89066666D02*
X47434761Y-89114285D01*
X47482380Y-89257142D01*
X47482380Y-89352380D01*
X47434761Y-89495238D01*
X47339523Y-89590476D01*
X47244285Y-89638095D01*
X47053809Y-89685714D01*
X46910952Y-89685714D01*
X46720476Y-89638095D01*
X46625238Y-89590476D01*
X46530000Y-89495238D01*
X46482380Y-89352380D01*
X46482380Y-89257142D01*
X46530000Y-89114285D01*
X46577619Y-89066666D01*
X46482380Y-88161904D02*
X46482380Y-88638095D01*
X46958571Y-88685714D01*
X46910952Y-88638095D01*
X46863333Y-88542857D01*
X46863333Y-88304761D01*
X46910952Y-88209523D01*
X46958571Y-88161904D01*
X47053809Y-88114285D01*
X47291904Y-88114285D01*
X47387142Y-88161904D01*
X47434761Y-88209523D01*
X47482380Y-88304761D01*
X47482380Y-88542857D01*
X47434761Y-88638095D01*
X47387142Y-88685714D01*
D11*
%TO.C,Alim_5V_ina282_iso1*%
X183394047Y-112606666D02*
X183998809Y-112606666D01*
X183273095Y-112969523D02*
X183696428Y-111699523D01*
X184119761Y-112969523D01*
X184724523Y-112969523D02*
X184603571Y-112909047D01*
X184543095Y-112788095D01*
X184543095Y-111699523D01*
X185208333Y-112969523D02*
X185208333Y-112122857D01*
X185208333Y-111699523D02*
X185147857Y-111760000D01*
X185208333Y-111820476D01*
X185268809Y-111760000D01*
X185208333Y-111699523D01*
X185208333Y-111820476D01*
X185813095Y-112969523D02*
X185813095Y-112122857D01*
X185813095Y-112243809D02*
X185873571Y-112183333D01*
X185994523Y-112122857D01*
X186175952Y-112122857D01*
X186296904Y-112183333D01*
X186357380Y-112304285D01*
X186357380Y-112969523D01*
X186357380Y-112304285D02*
X186417857Y-112183333D01*
X186538809Y-112122857D01*
X186720238Y-112122857D01*
X186841190Y-112183333D01*
X186901666Y-112304285D01*
X186901666Y-112969523D01*
X187204047Y-113090476D02*
X188171666Y-113090476D01*
X189078809Y-111699523D02*
X188474047Y-111699523D01*
X188413571Y-112304285D01*
X188474047Y-112243809D01*
X188595000Y-112183333D01*
X188897380Y-112183333D01*
X189018333Y-112243809D01*
X189078809Y-112304285D01*
X189139285Y-112425238D01*
X189139285Y-112727619D01*
X189078809Y-112848571D01*
X189018333Y-112909047D01*
X188897380Y-112969523D01*
X188595000Y-112969523D01*
X188474047Y-112909047D01*
X188413571Y-112848571D01*
X189502142Y-111699523D02*
X189925476Y-112969523D01*
X190348809Y-111699523D01*
X190469761Y-113090476D02*
X191437380Y-113090476D01*
X191739761Y-112969523D02*
X191739761Y-112122857D01*
X191739761Y-111699523D02*
X191679285Y-111760000D01*
X191739761Y-111820476D01*
X191800238Y-111760000D01*
X191739761Y-111699523D01*
X191739761Y-111820476D01*
X192344523Y-112122857D02*
X192344523Y-112969523D01*
X192344523Y-112243809D02*
X192405000Y-112183333D01*
X192525952Y-112122857D01*
X192707380Y-112122857D01*
X192828333Y-112183333D01*
X192888809Y-112304285D01*
X192888809Y-112969523D01*
X194037857Y-112969523D02*
X194037857Y-112304285D01*
X193977380Y-112183333D01*
X193856428Y-112122857D01*
X193614523Y-112122857D01*
X193493571Y-112183333D01*
X194037857Y-112909047D02*
X193916904Y-112969523D01*
X193614523Y-112969523D01*
X193493571Y-112909047D01*
X193433095Y-112788095D01*
X193433095Y-112667142D01*
X193493571Y-112546190D01*
X193614523Y-112485714D01*
X193916904Y-112485714D01*
X194037857Y-112425238D01*
X194582142Y-111820476D02*
X194642619Y-111760000D01*
X194763571Y-111699523D01*
X195065952Y-111699523D01*
X195186904Y-111760000D01*
X195247380Y-111820476D01*
X195307857Y-111941428D01*
X195307857Y-112062380D01*
X195247380Y-112243809D01*
X194521666Y-112969523D01*
X195307857Y-112969523D01*
X196033571Y-112243809D02*
X195912619Y-112183333D01*
X195852142Y-112122857D01*
X195791666Y-112001904D01*
X195791666Y-111941428D01*
X195852142Y-111820476D01*
X195912619Y-111760000D01*
X196033571Y-111699523D01*
X196275476Y-111699523D01*
X196396428Y-111760000D01*
X196456904Y-111820476D01*
X196517380Y-111941428D01*
X196517380Y-112001904D01*
X196456904Y-112122857D01*
X196396428Y-112183333D01*
X196275476Y-112243809D01*
X196033571Y-112243809D01*
X195912619Y-112304285D01*
X195852142Y-112364761D01*
X195791666Y-112485714D01*
X195791666Y-112727619D01*
X195852142Y-112848571D01*
X195912619Y-112909047D01*
X196033571Y-112969523D01*
X196275476Y-112969523D01*
X196396428Y-112909047D01*
X196456904Y-112848571D01*
X196517380Y-112727619D01*
X196517380Y-112485714D01*
X196456904Y-112364761D01*
X196396428Y-112304285D01*
X196275476Y-112243809D01*
X197001190Y-111820476D02*
X197061666Y-111760000D01*
X197182619Y-111699523D01*
X197485000Y-111699523D01*
X197605952Y-111760000D01*
X197666428Y-111820476D01*
X197726904Y-111941428D01*
X197726904Y-112062380D01*
X197666428Y-112243809D01*
X196940714Y-112969523D01*
X197726904Y-112969523D01*
X197968809Y-113090476D02*
X198936428Y-113090476D01*
X199238809Y-112969523D02*
X199238809Y-112122857D01*
X199238809Y-111699523D02*
X199178333Y-111760000D01*
X199238809Y-111820476D01*
X199299285Y-111760000D01*
X199238809Y-111699523D01*
X199238809Y-111820476D01*
X199783095Y-112909047D02*
X199904047Y-112969523D01*
X200145952Y-112969523D01*
X200266904Y-112909047D01*
X200327380Y-112788095D01*
X200327380Y-112727619D01*
X200266904Y-112606666D01*
X200145952Y-112546190D01*
X199964523Y-112546190D01*
X199843571Y-112485714D01*
X199783095Y-112364761D01*
X199783095Y-112304285D01*
X199843571Y-112183333D01*
X199964523Y-112122857D01*
X200145952Y-112122857D01*
X200266904Y-112183333D01*
X201053095Y-112969523D02*
X200932142Y-112909047D01*
X200871666Y-112848571D01*
X200811190Y-112727619D01*
X200811190Y-112364761D01*
X200871666Y-112243809D01*
X200932142Y-112183333D01*
X201053095Y-112122857D01*
X201234523Y-112122857D01*
X201355476Y-112183333D01*
X201415952Y-112243809D01*
X201476428Y-112364761D01*
X201476428Y-112727619D01*
X201415952Y-112848571D01*
X201355476Y-112909047D01*
X201234523Y-112969523D01*
X201053095Y-112969523D01*
X202685952Y-112969523D02*
X201960238Y-112969523D01*
X202323095Y-112969523D02*
X202323095Y-111699523D01*
X202202142Y-111880952D01*
X202081190Y-112001904D01*
X201960238Y-112062380D01*
D10*
%TO.C,C4*%
X58142142Y-100496666D02*
X58189761Y-100544285D01*
X58237380Y-100687142D01*
X58237380Y-100782380D01*
X58189761Y-100925238D01*
X58094523Y-101020476D01*
X57999285Y-101068095D01*
X57808809Y-101115714D01*
X57665952Y-101115714D01*
X57475476Y-101068095D01*
X57380238Y-101020476D01*
X57285000Y-100925238D01*
X57237380Y-100782380D01*
X57237380Y-100687142D01*
X57285000Y-100544285D01*
X57332619Y-100496666D01*
X57570714Y-99639523D02*
X58237380Y-99639523D01*
X57189761Y-99877619D02*
X57904047Y-100115714D01*
X57904047Y-99496666D01*
%TO.C,C1*%
X167957142Y-86526666D02*
X168004761Y-86574285D01*
X168052380Y-86717142D01*
X168052380Y-86812380D01*
X168004761Y-86955238D01*
X167909523Y-87050476D01*
X167814285Y-87098095D01*
X167623809Y-87145714D01*
X167480952Y-87145714D01*
X167290476Y-87098095D01*
X167195238Y-87050476D01*
X167100000Y-86955238D01*
X167052380Y-86812380D01*
X167052380Y-86717142D01*
X167100000Y-86574285D01*
X167147619Y-86526666D01*
X168052380Y-85574285D02*
X168052380Y-86145714D01*
X168052380Y-85860000D02*
X167052380Y-85860000D01*
X167195238Y-85955238D01*
X167290476Y-86050476D01*
X167338095Y-86145714D01*
%TO.C,J1*%
X221281666Y-118832380D02*
X221281666Y-119546666D01*
X221234047Y-119689523D01*
X221138809Y-119784761D01*
X220995952Y-119832380D01*
X220900714Y-119832380D01*
X222281666Y-119832380D02*
X221710238Y-119832380D01*
X221995952Y-119832380D02*
X221995952Y-118832380D01*
X221900714Y-118975238D01*
X221805476Y-119070476D01*
X221710238Y-119118095D01*
%TO.C,J3*%
X185721666Y-118832380D02*
X185721666Y-119546666D01*
X185674047Y-119689523D01*
X185578809Y-119784761D01*
X185435952Y-119832380D01*
X185340714Y-119832380D01*
X186102619Y-118832380D02*
X186721666Y-118832380D01*
X186388333Y-119213333D01*
X186531190Y-119213333D01*
X186626428Y-119260952D01*
X186674047Y-119308571D01*
X186721666Y-119403809D01*
X186721666Y-119641904D01*
X186674047Y-119737142D01*
X186626428Y-119784761D01*
X186531190Y-119832380D01*
X186245476Y-119832380D01*
X186150238Y-119784761D01*
X186102619Y-119737142D01*
%TO.C,U1*%
X44122380Y-99811904D02*
X44931904Y-99811904D01*
X45027142Y-99764285D01*
X45074761Y-99716666D01*
X45122380Y-99621428D01*
X45122380Y-99430952D01*
X45074761Y-99335714D01*
X45027142Y-99288095D01*
X44931904Y-99240476D01*
X44122380Y-99240476D01*
X45122380Y-98240476D02*
X45122380Y-98811904D01*
X45122380Y-98526190D02*
X44122380Y-98526190D01*
X44265238Y-98621428D01*
X44360476Y-98716666D01*
X44408095Y-98811904D01*
%TO.C,J8*%
X156666666Y-112452380D02*
X156666666Y-113166666D01*
X156619047Y-113309523D01*
X156523809Y-113404761D01*
X156380952Y-113452380D01*
X156285714Y-113452380D01*
X157285714Y-112880952D02*
X157190476Y-112833333D01*
X157142857Y-112785714D01*
X157095238Y-112690476D01*
X157095238Y-112642857D01*
X157142857Y-112547619D01*
X157190476Y-112500000D01*
X157285714Y-112452380D01*
X157476190Y-112452380D01*
X157571428Y-112500000D01*
X157619047Y-112547619D01*
X157666666Y-112642857D01*
X157666666Y-112690476D01*
X157619047Y-112785714D01*
X157571428Y-112833333D01*
X157476190Y-112880952D01*
X157285714Y-112880952D01*
X157190476Y-112928571D01*
X157142857Y-112976190D01*
X157095238Y-113071428D01*
X157095238Y-113261904D01*
X157142857Y-113357142D01*
X157190476Y-113404761D01*
X157285714Y-113452380D01*
X157476190Y-113452380D01*
X157571428Y-113404761D01*
X157619047Y-113357142D01*
X157666666Y-113261904D01*
X157666666Y-113071428D01*
X157619047Y-112976190D01*
X157571428Y-112928571D01*
X157476190Y-112880952D01*
D11*
%TO.C,U5*%
X151032380Y-56304523D02*
X151032380Y-57332619D01*
X151092857Y-57453571D01*
X151153333Y-57514047D01*
X151274285Y-57574523D01*
X151516190Y-57574523D01*
X151637142Y-57514047D01*
X151697619Y-57453571D01*
X151758095Y-57332619D01*
X151758095Y-56304523D01*
X152967619Y-56304523D02*
X152362857Y-56304523D01*
X152302380Y-56909285D01*
X152362857Y-56848809D01*
X152483809Y-56788333D01*
X152786190Y-56788333D01*
X152907142Y-56848809D01*
X152967619Y-56909285D01*
X153028095Y-57030238D01*
X153028095Y-57332619D01*
X152967619Y-57453571D01*
X152907142Y-57514047D01*
X152786190Y-57574523D01*
X152483809Y-57574523D01*
X152362857Y-57514047D01*
X152302380Y-57453571D01*
%TO.C,K1*%
X230202619Y-104714523D02*
X230202619Y-103444523D01*
X230928333Y-104714523D02*
X230384047Y-103988809D01*
X230928333Y-103444523D02*
X230202619Y-104170238D01*
X232137857Y-104714523D02*
X231412142Y-104714523D01*
X231775000Y-104714523D02*
X231775000Y-103444523D01*
X231654047Y-103625952D01*
X231533095Y-103746904D01*
X231412142Y-103807380D01*
D10*
%TO.C,D1*%
X78557380Y-74578095D02*
X77557380Y-74578095D01*
X77557380Y-74340000D01*
X77605000Y-74197142D01*
X77700238Y-74101904D01*
X77795476Y-74054285D01*
X77985952Y-74006666D01*
X78128809Y-74006666D01*
X78319285Y-74054285D01*
X78414523Y-74101904D01*
X78509761Y-74197142D01*
X78557380Y-74340000D01*
X78557380Y-74578095D01*
X78557380Y-73054285D02*
X78557380Y-73625714D01*
X78557380Y-73340000D02*
X77557380Y-73340000D01*
X77700238Y-73435238D01*
X77795476Y-73530476D01*
X77843095Y-73625714D01*
X78272380Y-70291904D02*
X77272380Y-70291904D01*
X78272380Y-69720476D02*
X77700952Y-70149047D01*
X77272380Y-69720476D02*
X77843809Y-70291904D01*
%TO.C,D3*%
X76652380Y-61878095D02*
X75652380Y-61878095D01*
X75652380Y-61640000D01*
X75700000Y-61497142D01*
X75795238Y-61401904D01*
X75890476Y-61354285D01*
X76080952Y-61306666D01*
X76223809Y-61306666D01*
X76414285Y-61354285D01*
X76509523Y-61401904D01*
X76604761Y-61497142D01*
X76652380Y-61640000D01*
X76652380Y-61878095D01*
X75652380Y-60973333D02*
X75652380Y-60354285D01*
X76033333Y-60687619D01*
X76033333Y-60544761D01*
X76080952Y-60449523D01*
X76128571Y-60401904D01*
X76223809Y-60354285D01*
X76461904Y-60354285D01*
X76557142Y-60401904D01*
X76604761Y-60449523D01*
X76652380Y-60544761D01*
X76652380Y-60830476D01*
X76604761Y-60925714D01*
X76557142Y-60973333D01*
X74672380Y-65211904D02*
X73672380Y-65211904D01*
X74672380Y-64640476D02*
X74100952Y-65069047D01*
X73672380Y-64640476D02*
X74243809Y-65211904D01*
D11*
%TO.C,K2*%
X230202619Y-97094523D02*
X230202619Y-95824523D01*
X230928333Y-97094523D02*
X230384047Y-96368809D01*
X230928333Y-95824523D02*
X230202619Y-96550238D01*
X231412142Y-95945476D02*
X231472619Y-95885000D01*
X231593571Y-95824523D01*
X231895952Y-95824523D01*
X232016904Y-95885000D01*
X232077380Y-95945476D01*
X232137857Y-96066428D01*
X232137857Y-96187380D01*
X232077380Y-96368809D01*
X231351666Y-97094523D01*
X232137857Y-97094523D01*
%TO.C,K4*%
X230202619Y-81854523D02*
X230202619Y-80584523D01*
X230928333Y-81854523D02*
X230384047Y-81128809D01*
X230928333Y-80584523D02*
X230202619Y-81310238D01*
X232016904Y-81007857D02*
X232016904Y-81854523D01*
X231714523Y-80524047D02*
X231412142Y-81431190D01*
X232198333Y-81431190D01*
D10*
%TO.C,R2*%
X216182380Y-90336666D02*
X215706190Y-90670000D01*
X216182380Y-90908095D02*
X215182380Y-90908095D01*
X215182380Y-90527142D01*
X215230000Y-90431904D01*
X215277619Y-90384285D01*
X215372857Y-90336666D01*
X215515714Y-90336666D01*
X215610952Y-90384285D01*
X215658571Y-90431904D01*
X215706190Y-90527142D01*
X215706190Y-90908095D01*
X215277619Y-89955714D02*
X215230000Y-89908095D01*
X215182380Y-89812857D01*
X215182380Y-89574761D01*
X215230000Y-89479523D01*
X215277619Y-89431904D01*
X215372857Y-89384285D01*
X215468095Y-89384285D01*
X215610952Y-89431904D01*
X216182380Y-90003333D01*
X216182380Y-89384285D01*
%TO.C,C7*%
X68193333Y-66857142D02*
X68145714Y-66904761D01*
X68002857Y-66952380D01*
X67907619Y-66952380D01*
X67764761Y-66904761D01*
X67669523Y-66809523D01*
X67621904Y-66714285D01*
X67574285Y-66523809D01*
X67574285Y-66380952D01*
X67621904Y-66190476D01*
X67669523Y-66095238D01*
X67764761Y-66000000D01*
X67907619Y-65952380D01*
X68002857Y-65952380D01*
X68145714Y-66000000D01*
X68193333Y-66047619D01*
X68526666Y-65952380D02*
X69193333Y-65952380D01*
X68764761Y-66952380D01*
%TO.C,R1*%
X223802380Y-97956666D02*
X223326190Y-98290000D01*
X223802380Y-98528095D02*
X222802380Y-98528095D01*
X222802380Y-98147142D01*
X222850000Y-98051904D01*
X222897619Y-98004285D01*
X222992857Y-97956666D01*
X223135714Y-97956666D01*
X223230952Y-98004285D01*
X223278571Y-98051904D01*
X223326190Y-98147142D01*
X223326190Y-98528095D01*
X223802380Y-97004285D02*
X223802380Y-97575714D01*
X223802380Y-97290000D02*
X222802380Y-97290000D01*
X222945238Y-97385238D01*
X223040476Y-97480476D01*
X223088095Y-97575714D01*
%TO.C,C8*%
X51157142Y-61126666D02*
X51204761Y-61174285D01*
X51252380Y-61317142D01*
X51252380Y-61412380D01*
X51204761Y-61555238D01*
X51109523Y-61650476D01*
X51014285Y-61698095D01*
X50823809Y-61745714D01*
X50680952Y-61745714D01*
X50490476Y-61698095D01*
X50395238Y-61650476D01*
X50300000Y-61555238D01*
X50252380Y-61412380D01*
X50252380Y-61317142D01*
X50300000Y-61174285D01*
X50347619Y-61126666D01*
X50680952Y-60555238D02*
X50633333Y-60650476D01*
X50585714Y-60698095D01*
X50490476Y-60745714D01*
X50442857Y-60745714D01*
X50347619Y-60698095D01*
X50300000Y-60650476D01*
X50252380Y-60555238D01*
X50252380Y-60364761D01*
X50300000Y-60269523D01*
X50347619Y-60221904D01*
X50442857Y-60174285D01*
X50490476Y-60174285D01*
X50585714Y-60221904D01*
X50633333Y-60269523D01*
X50680952Y-60364761D01*
X50680952Y-60555238D01*
X50728571Y-60650476D01*
X50776190Y-60698095D01*
X50871428Y-60745714D01*
X51061904Y-60745714D01*
X51157142Y-60698095D01*
X51204761Y-60650476D01*
X51252380Y-60555238D01*
X51252380Y-60364761D01*
X51204761Y-60269523D01*
X51157142Y-60221904D01*
X51061904Y-60174285D01*
X50871428Y-60174285D01*
X50776190Y-60221904D01*
X50728571Y-60269523D01*
X50680952Y-60364761D01*
D11*
%TO.C,Alim_5V_Digital_rasp_iso1540_mcp1*%
X105682142Y-110066666D02*
X106286904Y-110066666D01*
X105561190Y-110429523D02*
X105984523Y-109159523D01*
X106407857Y-110429523D01*
X107012619Y-110429523D02*
X106891666Y-110369047D01*
X106831190Y-110248095D01*
X106831190Y-109159523D01*
X107496428Y-110429523D02*
X107496428Y-109582857D01*
X107496428Y-109159523D02*
X107435952Y-109220000D01*
X107496428Y-109280476D01*
X107556904Y-109220000D01*
X107496428Y-109159523D01*
X107496428Y-109280476D01*
X108101190Y-110429523D02*
X108101190Y-109582857D01*
X108101190Y-109703809D02*
X108161666Y-109643333D01*
X108282619Y-109582857D01*
X108464047Y-109582857D01*
X108585000Y-109643333D01*
X108645476Y-109764285D01*
X108645476Y-110429523D01*
X108645476Y-109764285D02*
X108705952Y-109643333D01*
X108826904Y-109582857D01*
X109008333Y-109582857D01*
X109129285Y-109643333D01*
X109189761Y-109764285D01*
X109189761Y-110429523D01*
X109492142Y-110550476D02*
X110459761Y-110550476D01*
X111366904Y-109159523D02*
X110762142Y-109159523D01*
X110701666Y-109764285D01*
X110762142Y-109703809D01*
X110883095Y-109643333D01*
X111185476Y-109643333D01*
X111306428Y-109703809D01*
X111366904Y-109764285D01*
X111427380Y-109885238D01*
X111427380Y-110187619D01*
X111366904Y-110308571D01*
X111306428Y-110369047D01*
X111185476Y-110429523D01*
X110883095Y-110429523D01*
X110762142Y-110369047D01*
X110701666Y-110308571D01*
X111790238Y-109159523D02*
X112213571Y-110429523D01*
X112636904Y-109159523D01*
X112757857Y-110550476D02*
X113725476Y-110550476D01*
X114027857Y-110429523D02*
X114027857Y-109159523D01*
X114330238Y-109159523D01*
X114511666Y-109220000D01*
X114632619Y-109340952D01*
X114693095Y-109461904D01*
X114753571Y-109703809D01*
X114753571Y-109885238D01*
X114693095Y-110127142D01*
X114632619Y-110248095D01*
X114511666Y-110369047D01*
X114330238Y-110429523D01*
X114027857Y-110429523D01*
X115297857Y-110429523D02*
X115297857Y-109582857D01*
X115297857Y-109159523D02*
X115237380Y-109220000D01*
X115297857Y-109280476D01*
X115358333Y-109220000D01*
X115297857Y-109159523D01*
X115297857Y-109280476D01*
X116446904Y-109582857D02*
X116446904Y-110610952D01*
X116386428Y-110731904D01*
X116325952Y-110792380D01*
X116205000Y-110852857D01*
X116023571Y-110852857D01*
X115902619Y-110792380D01*
X116446904Y-110369047D02*
X116325952Y-110429523D01*
X116084047Y-110429523D01*
X115963095Y-110369047D01*
X115902619Y-110308571D01*
X115842142Y-110187619D01*
X115842142Y-109824761D01*
X115902619Y-109703809D01*
X115963095Y-109643333D01*
X116084047Y-109582857D01*
X116325952Y-109582857D01*
X116446904Y-109643333D01*
X117051666Y-110429523D02*
X117051666Y-109582857D01*
X117051666Y-109159523D02*
X116991190Y-109220000D01*
X117051666Y-109280476D01*
X117112142Y-109220000D01*
X117051666Y-109159523D01*
X117051666Y-109280476D01*
X117475000Y-109582857D02*
X117958809Y-109582857D01*
X117656428Y-109159523D02*
X117656428Y-110248095D01*
X117716904Y-110369047D01*
X117837857Y-110429523D01*
X117958809Y-110429523D01*
X118926428Y-110429523D02*
X118926428Y-109764285D01*
X118865952Y-109643333D01*
X118745000Y-109582857D01*
X118503095Y-109582857D01*
X118382142Y-109643333D01*
X118926428Y-110369047D02*
X118805476Y-110429523D01*
X118503095Y-110429523D01*
X118382142Y-110369047D01*
X118321666Y-110248095D01*
X118321666Y-110127142D01*
X118382142Y-110006190D01*
X118503095Y-109945714D01*
X118805476Y-109945714D01*
X118926428Y-109885238D01*
X119712619Y-110429523D02*
X119591666Y-110369047D01*
X119531190Y-110248095D01*
X119531190Y-109159523D01*
X119894047Y-110550476D02*
X120861666Y-110550476D01*
X121164047Y-110429523D02*
X121164047Y-109582857D01*
X121164047Y-109824761D02*
X121224523Y-109703809D01*
X121285000Y-109643333D01*
X121405952Y-109582857D01*
X121526904Y-109582857D01*
X122494523Y-110429523D02*
X122494523Y-109764285D01*
X122434047Y-109643333D01*
X122313095Y-109582857D01*
X122071190Y-109582857D01*
X121950238Y-109643333D01*
X122494523Y-110369047D02*
X122373571Y-110429523D01*
X122071190Y-110429523D01*
X121950238Y-110369047D01*
X121889761Y-110248095D01*
X121889761Y-110127142D01*
X121950238Y-110006190D01*
X122071190Y-109945714D01*
X122373571Y-109945714D01*
X122494523Y-109885238D01*
X123038809Y-110369047D02*
X123159761Y-110429523D01*
X123401666Y-110429523D01*
X123522619Y-110369047D01*
X123583095Y-110248095D01*
X123583095Y-110187619D01*
X123522619Y-110066666D01*
X123401666Y-110006190D01*
X123220238Y-110006190D01*
X123099285Y-109945714D01*
X123038809Y-109824761D01*
X123038809Y-109764285D01*
X123099285Y-109643333D01*
X123220238Y-109582857D01*
X123401666Y-109582857D01*
X123522619Y-109643333D01*
X124127380Y-109582857D02*
X124127380Y-110852857D01*
X124127380Y-109643333D02*
X124248333Y-109582857D01*
X124490238Y-109582857D01*
X124611190Y-109643333D01*
X124671666Y-109703809D01*
X124732142Y-109824761D01*
X124732142Y-110187619D01*
X124671666Y-110308571D01*
X124611190Y-110369047D01*
X124490238Y-110429523D01*
X124248333Y-110429523D01*
X124127380Y-110369047D01*
X124974047Y-110550476D02*
X125941666Y-110550476D01*
X126244047Y-110429523D02*
X126244047Y-109582857D01*
X126244047Y-109159523D02*
X126183571Y-109220000D01*
X126244047Y-109280476D01*
X126304523Y-109220000D01*
X126244047Y-109159523D01*
X126244047Y-109280476D01*
X126788333Y-110369047D02*
X126909285Y-110429523D01*
X127151190Y-110429523D01*
X127272142Y-110369047D01*
X127332619Y-110248095D01*
X127332619Y-110187619D01*
X127272142Y-110066666D01*
X127151190Y-110006190D01*
X126969761Y-110006190D01*
X126848809Y-109945714D01*
X126788333Y-109824761D01*
X126788333Y-109764285D01*
X126848809Y-109643333D01*
X126969761Y-109582857D01*
X127151190Y-109582857D01*
X127272142Y-109643333D01*
X128058333Y-110429523D02*
X127937380Y-110369047D01*
X127876904Y-110308571D01*
X127816428Y-110187619D01*
X127816428Y-109824761D01*
X127876904Y-109703809D01*
X127937380Y-109643333D01*
X128058333Y-109582857D01*
X128239761Y-109582857D01*
X128360714Y-109643333D01*
X128421190Y-109703809D01*
X128481666Y-109824761D01*
X128481666Y-110187619D01*
X128421190Y-110308571D01*
X128360714Y-110369047D01*
X128239761Y-110429523D01*
X128058333Y-110429523D01*
X129691190Y-110429523D02*
X128965476Y-110429523D01*
X129328333Y-110429523D02*
X129328333Y-109159523D01*
X129207380Y-109340952D01*
X129086428Y-109461904D01*
X128965476Y-109522380D01*
X130840238Y-109159523D02*
X130235476Y-109159523D01*
X130175000Y-109764285D01*
X130235476Y-109703809D01*
X130356428Y-109643333D01*
X130658809Y-109643333D01*
X130779761Y-109703809D01*
X130840238Y-109764285D01*
X130900714Y-109885238D01*
X130900714Y-110187619D01*
X130840238Y-110308571D01*
X130779761Y-110369047D01*
X130658809Y-110429523D01*
X130356428Y-110429523D01*
X130235476Y-110369047D01*
X130175000Y-110308571D01*
X131989285Y-109582857D02*
X131989285Y-110429523D01*
X131686904Y-109099047D02*
X131384523Y-110006190D01*
X132170714Y-110006190D01*
X132896428Y-109159523D02*
X133017380Y-109159523D01*
X133138333Y-109220000D01*
X133198809Y-109280476D01*
X133259285Y-109401428D01*
X133319761Y-109643333D01*
X133319761Y-109945714D01*
X133259285Y-110187619D01*
X133198809Y-110308571D01*
X133138333Y-110369047D01*
X133017380Y-110429523D01*
X132896428Y-110429523D01*
X132775476Y-110369047D01*
X132715000Y-110308571D01*
X132654523Y-110187619D01*
X132594047Y-109945714D01*
X132594047Y-109643333D01*
X132654523Y-109401428D01*
X132715000Y-109280476D01*
X132775476Y-109220000D01*
X132896428Y-109159523D01*
X133561666Y-110550476D02*
X134529285Y-110550476D01*
X134831666Y-110429523D02*
X134831666Y-109582857D01*
X134831666Y-109703809D02*
X134892142Y-109643333D01*
X135013095Y-109582857D01*
X135194523Y-109582857D01*
X135315476Y-109643333D01*
X135375952Y-109764285D01*
X135375952Y-110429523D01*
X135375952Y-109764285D02*
X135436428Y-109643333D01*
X135557380Y-109582857D01*
X135738809Y-109582857D01*
X135859761Y-109643333D01*
X135920238Y-109764285D01*
X135920238Y-110429523D01*
X137069285Y-110369047D02*
X136948333Y-110429523D01*
X136706428Y-110429523D01*
X136585476Y-110369047D01*
X136525000Y-110308571D01*
X136464523Y-110187619D01*
X136464523Y-109824761D01*
X136525000Y-109703809D01*
X136585476Y-109643333D01*
X136706428Y-109582857D01*
X136948333Y-109582857D01*
X137069285Y-109643333D01*
X137613571Y-109582857D02*
X137613571Y-110852857D01*
X137613571Y-109643333D02*
X137734523Y-109582857D01*
X137976428Y-109582857D01*
X138097380Y-109643333D01*
X138157857Y-109703809D01*
X138218333Y-109824761D01*
X138218333Y-110187619D01*
X138157857Y-110308571D01*
X138097380Y-110369047D01*
X137976428Y-110429523D01*
X137734523Y-110429523D01*
X137613571Y-110369047D01*
X139427857Y-110429523D02*
X138702142Y-110429523D01*
X139065000Y-110429523D02*
X139065000Y-109159523D01*
X138944047Y-109340952D01*
X138823095Y-109461904D01*
X138702142Y-109522380D01*
D10*
%TO.C,R6*%
X229822380Y-63166666D02*
X229346190Y-63500000D01*
X229822380Y-63738095D02*
X228822380Y-63738095D01*
X228822380Y-63357142D01*
X228870000Y-63261904D01*
X228917619Y-63214285D01*
X229012857Y-63166666D01*
X229155714Y-63166666D01*
X229250952Y-63214285D01*
X229298571Y-63261904D01*
X229346190Y-63357142D01*
X229346190Y-63738095D01*
X228822380Y-62309523D02*
X228822380Y-62500000D01*
X228870000Y-62595238D01*
X228917619Y-62642857D01*
X229060476Y-62738095D01*
X229250952Y-62785714D01*
X229631904Y-62785714D01*
X229727142Y-62738095D01*
X229774761Y-62690476D01*
X229822380Y-62595238D01*
X229822380Y-62404761D01*
X229774761Y-62309523D01*
X229727142Y-62261904D01*
X229631904Y-62214285D01*
X229393809Y-62214285D01*
X229298571Y-62261904D01*
X229250952Y-62309523D01*
X229203333Y-62404761D01*
X229203333Y-62595238D01*
X229250952Y-62690476D01*
X229298571Y-62738095D01*
X229393809Y-62785714D01*
%TO.C,C3*%
X60047142Y-90336666D02*
X60094761Y-90384285D01*
X60142380Y-90527142D01*
X60142380Y-90622380D01*
X60094761Y-90765238D01*
X59999523Y-90860476D01*
X59904285Y-90908095D01*
X59713809Y-90955714D01*
X59570952Y-90955714D01*
X59380476Y-90908095D01*
X59285238Y-90860476D01*
X59190000Y-90765238D01*
X59142380Y-90622380D01*
X59142380Y-90527142D01*
X59190000Y-90384285D01*
X59237619Y-90336666D01*
X59142380Y-90003333D02*
X59142380Y-89384285D01*
X59523333Y-89717619D01*
X59523333Y-89574761D01*
X59570952Y-89479523D01*
X59618571Y-89431904D01*
X59713809Y-89384285D01*
X59951904Y-89384285D01*
X60047142Y-89431904D01*
X60094761Y-89479523D01*
X60142380Y-89574761D01*
X60142380Y-89860476D01*
X60094761Y-89955714D01*
X60047142Y-90003333D01*
%TO.C,R4*%
X64423333Y-49062380D02*
X64090000Y-48586190D01*
X63851904Y-49062380D02*
X63851904Y-48062380D01*
X64232857Y-48062380D01*
X64328095Y-48110000D01*
X64375714Y-48157619D01*
X64423333Y-48252857D01*
X64423333Y-48395714D01*
X64375714Y-48490952D01*
X64328095Y-48538571D01*
X64232857Y-48586190D01*
X63851904Y-48586190D01*
X65280476Y-48395714D02*
X65280476Y-49062380D01*
X65042380Y-48014761D02*
X64804285Y-48729047D01*
X65423333Y-48729047D01*
%TO.C,R5*%
X56833333Y-76822380D02*
X56500000Y-76346190D01*
X56261904Y-76822380D02*
X56261904Y-75822380D01*
X56642857Y-75822380D01*
X56738095Y-75870000D01*
X56785714Y-75917619D01*
X56833333Y-76012857D01*
X56833333Y-76155714D01*
X56785714Y-76250952D01*
X56738095Y-76298571D01*
X56642857Y-76346190D01*
X56261904Y-76346190D01*
X57738095Y-75822380D02*
X57261904Y-75822380D01*
X57214285Y-76298571D01*
X57261904Y-76250952D01*
X57357142Y-76203333D01*
X57595238Y-76203333D01*
X57690476Y-76250952D01*
X57738095Y-76298571D01*
X57785714Y-76393809D01*
X57785714Y-76631904D01*
X57738095Y-76727142D01*
X57690476Y-76774761D01*
X57595238Y-76822380D01*
X57357142Y-76822380D01*
X57261904Y-76774761D01*
X57214285Y-76727142D01*
%TO.C,J9*%
X123661666Y-114497380D02*
X123661666Y-115211666D01*
X123614047Y-115354523D01*
X123518809Y-115449761D01*
X123375952Y-115497380D01*
X123280714Y-115497380D01*
X124185476Y-115497380D02*
X124375952Y-115497380D01*
X124471190Y-115449761D01*
X124518809Y-115402142D01*
X124614047Y-115259285D01*
X124661666Y-115068809D01*
X124661666Y-114687857D01*
X124614047Y-114592619D01*
X124566428Y-114545000D01*
X124471190Y-114497380D01*
X124280714Y-114497380D01*
X124185476Y-114545000D01*
X124137857Y-114592619D01*
X124090238Y-114687857D01*
X124090238Y-114925952D01*
X124137857Y-115021190D01*
X124185476Y-115068809D01*
X124280714Y-115116428D01*
X124471190Y-115116428D01*
X124566428Y-115068809D01*
X124614047Y-115021190D01*
X124661666Y-114925952D01*
%TO.C,D2*%
X57501904Y-71572380D02*
X57501904Y-70572380D01*
X57740000Y-70572380D01*
X57882857Y-70620000D01*
X57978095Y-70715238D01*
X58025714Y-70810476D01*
X58073333Y-71000952D01*
X58073333Y-71143809D01*
X58025714Y-71334285D01*
X57978095Y-71429523D01*
X57882857Y-71524761D01*
X57740000Y-71572380D01*
X57501904Y-71572380D01*
X58454285Y-70667619D02*
X58501904Y-70620000D01*
X58597142Y-70572380D01*
X58835238Y-70572380D01*
X58930476Y-70620000D01*
X58978095Y-70667619D01*
X59025714Y-70762857D01*
X59025714Y-70858095D01*
X58978095Y-71000952D01*
X58406666Y-71572380D01*
X59025714Y-71572380D01*
X61788095Y-73552380D02*
X61788095Y-72552380D01*
X62359523Y-73552380D02*
X61930952Y-72980952D01*
X62359523Y-72552380D02*
X61788095Y-73123809D01*
%TO.C,Alim_analog_Vmn1*%
X84725714Y-119546666D02*
X85201904Y-119546666D01*
X84630476Y-119832380D02*
X84963809Y-118832380D01*
X85297142Y-119832380D01*
X85773333Y-119832380D02*
X85678095Y-119784761D01*
X85630476Y-119689523D01*
X85630476Y-118832380D01*
X86154285Y-119832380D02*
X86154285Y-119165714D01*
X86154285Y-118832380D02*
X86106666Y-118880000D01*
X86154285Y-118927619D01*
X86201904Y-118880000D01*
X86154285Y-118832380D01*
X86154285Y-118927619D01*
X86630476Y-119832380D02*
X86630476Y-119165714D01*
X86630476Y-119260952D02*
X86678095Y-119213333D01*
X86773333Y-119165714D01*
X86916190Y-119165714D01*
X87011428Y-119213333D01*
X87059047Y-119308571D01*
X87059047Y-119832380D01*
X87059047Y-119308571D02*
X87106666Y-119213333D01*
X87201904Y-119165714D01*
X87344761Y-119165714D01*
X87440000Y-119213333D01*
X87487619Y-119308571D01*
X87487619Y-119832380D01*
X87725714Y-119927619D02*
X88487619Y-119927619D01*
X89154285Y-119832380D02*
X89154285Y-119308571D01*
X89106666Y-119213333D01*
X89011428Y-119165714D01*
X88820952Y-119165714D01*
X88725714Y-119213333D01*
X89154285Y-119784761D02*
X89059047Y-119832380D01*
X88820952Y-119832380D01*
X88725714Y-119784761D01*
X88678095Y-119689523D01*
X88678095Y-119594285D01*
X88725714Y-119499047D01*
X88820952Y-119451428D01*
X89059047Y-119451428D01*
X89154285Y-119403809D01*
X89630476Y-119165714D02*
X89630476Y-119832380D01*
X89630476Y-119260952D02*
X89678095Y-119213333D01*
X89773333Y-119165714D01*
X89916190Y-119165714D01*
X90011428Y-119213333D01*
X90059047Y-119308571D01*
X90059047Y-119832380D01*
X90963809Y-119832380D02*
X90963809Y-119308571D01*
X90916190Y-119213333D01*
X90820952Y-119165714D01*
X90630476Y-119165714D01*
X90535238Y-119213333D01*
X90963809Y-119784761D02*
X90868571Y-119832380D01*
X90630476Y-119832380D01*
X90535238Y-119784761D01*
X90487619Y-119689523D01*
X90487619Y-119594285D01*
X90535238Y-119499047D01*
X90630476Y-119451428D01*
X90868571Y-119451428D01*
X90963809Y-119403809D01*
X91582857Y-119832380D02*
X91487619Y-119784761D01*
X91440000Y-119689523D01*
X91440000Y-118832380D01*
X92106666Y-119832380D02*
X92011428Y-119784761D01*
X91963809Y-119737142D01*
X91916190Y-119641904D01*
X91916190Y-119356190D01*
X91963809Y-119260952D01*
X92011428Y-119213333D01*
X92106666Y-119165714D01*
X92249523Y-119165714D01*
X92344761Y-119213333D01*
X92392380Y-119260952D01*
X92440000Y-119356190D01*
X92440000Y-119641904D01*
X92392380Y-119737142D01*
X92344761Y-119784761D01*
X92249523Y-119832380D01*
X92106666Y-119832380D01*
X93297142Y-119165714D02*
X93297142Y-119975238D01*
X93249523Y-120070476D01*
X93201904Y-120118095D01*
X93106666Y-120165714D01*
X92963809Y-120165714D01*
X92868571Y-120118095D01*
X93297142Y-119784761D02*
X93201904Y-119832380D01*
X93011428Y-119832380D01*
X92916190Y-119784761D01*
X92868571Y-119737142D01*
X92820952Y-119641904D01*
X92820952Y-119356190D01*
X92868571Y-119260952D01*
X92916190Y-119213333D01*
X93011428Y-119165714D01*
X93201904Y-119165714D01*
X93297142Y-119213333D01*
X93535238Y-119927619D02*
X94297142Y-119927619D01*
X94392380Y-118832380D02*
X94725714Y-119832380D01*
X95059047Y-118832380D01*
X95392380Y-119832380D02*
X95392380Y-119165714D01*
X95392380Y-119260952D02*
X95440000Y-119213333D01*
X95535238Y-119165714D01*
X95678095Y-119165714D01*
X95773333Y-119213333D01*
X95820952Y-119308571D01*
X95820952Y-119832380D01*
X95820952Y-119308571D02*
X95868571Y-119213333D01*
X95963809Y-119165714D01*
X96106666Y-119165714D01*
X96201904Y-119213333D01*
X96249523Y-119308571D01*
X96249523Y-119832380D01*
X96725714Y-119165714D02*
X96725714Y-119832380D01*
X96725714Y-119260952D02*
X96773333Y-119213333D01*
X96868571Y-119165714D01*
X97011428Y-119165714D01*
X97106666Y-119213333D01*
X97154285Y-119308571D01*
X97154285Y-119832380D01*
X98154285Y-119832380D02*
X97582857Y-119832380D01*
X97868571Y-119832380D02*
X97868571Y-118832380D01*
X97773333Y-118975238D01*
X97678095Y-119070476D01*
X97582857Y-119118095D01*
%TO.C,J5*%
X107966666Y-65582380D02*
X107966666Y-66296666D01*
X107919047Y-66439523D01*
X107823809Y-66534761D01*
X107680952Y-66582380D01*
X107585714Y-66582380D01*
X108919047Y-65582380D02*
X108442857Y-65582380D01*
X108395238Y-66058571D01*
X108442857Y-66010952D01*
X108538095Y-65963333D01*
X108776190Y-65963333D01*
X108871428Y-66010952D01*
X108919047Y-66058571D01*
X108966666Y-66153809D01*
X108966666Y-66391904D01*
X108919047Y-66487142D01*
X108871428Y-66534761D01*
X108776190Y-66582380D01*
X108538095Y-66582380D01*
X108442857Y-66534761D01*
X108395238Y-66487142D01*
%TO.C,C6*%
X68437142Y-100416666D02*
X68484761Y-100464285D01*
X68532380Y-100607142D01*
X68532380Y-100702380D01*
X68484761Y-100845238D01*
X68389523Y-100940476D01*
X68294285Y-100988095D01*
X68103809Y-101035714D01*
X67960952Y-101035714D01*
X67770476Y-100988095D01*
X67675238Y-100940476D01*
X67580000Y-100845238D01*
X67532380Y-100702380D01*
X67532380Y-100607142D01*
X67580000Y-100464285D01*
X67627619Y-100416666D01*
X67532380Y-99559523D02*
X67532380Y-99750000D01*
X67580000Y-99845238D01*
X67627619Y-99892857D01*
X67770476Y-99988095D01*
X67960952Y-100035714D01*
X68341904Y-100035714D01*
X68437142Y-99988095D01*
X68484761Y-99940476D01*
X68532380Y-99845238D01*
X68532380Y-99654761D01*
X68484761Y-99559523D01*
X68437142Y-99511904D01*
X68341904Y-99464285D01*
X68103809Y-99464285D01*
X68008571Y-99511904D01*
X67960952Y-99559523D01*
X67913333Y-99654761D01*
X67913333Y-99845238D01*
X67960952Y-99940476D01*
X68008571Y-99988095D01*
X68103809Y-100035714D01*
%TO.C,C2*%
X177477142Y-87776666D02*
X177524761Y-87824285D01*
X177572380Y-87967142D01*
X177572380Y-88062380D01*
X177524761Y-88205238D01*
X177429523Y-88300476D01*
X177334285Y-88348095D01*
X177143809Y-88395714D01*
X177000952Y-88395714D01*
X176810476Y-88348095D01*
X176715238Y-88300476D01*
X176620000Y-88205238D01*
X176572380Y-88062380D01*
X176572380Y-87967142D01*
X176620000Y-87824285D01*
X176667619Y-87776666D01*
X176667619Y-87395714D02*
X176620000Y-87348095D01*
X176572380Y-87252857D01*
X176572380Y-87014761D01*
X176620000Y-86919523D01*
X176667619Y-86871904D01*
X176762857Y-86824285D01*
X176858095Y-86824285D01*
X177000952Y-86871904D01*
X177572380Y-87443333D01*
X177572380Y-86824285D01*
D11*
%TO.C,K3*%
X230202619Y-89474523D02*
X230202619Y-88204523D01*
X230928333Y-89474523D02*
X230384047Y-88748809D01*
X230928333Y-88204523D02*
X230202619Y-88930238D01*
X231351666Y-88204523D02*
X232137857Y-88204523D01*
X231714523Y-88688333D01*
X231895952Y-88688333D01*
X232016904Y-88748809D01*
X232077380Y-88809285D01*
X232137857Y-88930238D01*
X232137857Y-89232619D01*
X232077380Y-89353571D01*
X232016904Y-89414047D01*
X231895952Y-89474523D01*
X231533095Y-89474523D01*
X231412142Y-89414047D01*
X231351666Y-89353571D01*
D12*
%TO.C,J11*%
X212020000Y-56850000D02*
X212020000Y-55520000D01*
X212020000Y-60720000D02*
X214680000Y-60720000D01*
X212020000Y-58120000D02*
X212020000Y-60720000D01*
X212020000Y-58120000D02*
X214680000Y-58120000D01*
X212020000Y-55520000D02*
X213350000Y-55520000D01*
X214680000Y-58120000D02*
X214680000Y-60720000D01*
%TO.C,J12*%
X214680000Y-64320000D02*
X214680000Y-66920000D01*
X212020000Y-61720000D02*
X213350000Y-61720000D01*
X212020000Y-64320000D02*
X214680000Y-64320000D01*
X212020000Y-64320000D02*
X212020000Y-66920000D01*
X212020000Y-66920000D02*
X214680000Y-66920000D01*
X212020000Y-63050000D02*
X212020000Y-61720000D01*
%TO.C,J13*%
X193730000Y-71670000D02*
X193730000Y-74330000D01*
X175890000Y-71670000D02*
X175890000Y-74330000D01*
X193730000Y-71670000D02*
X175890000Y-71670000D01*
X195000000Y-71670000D02*
X196330000Y-71670000D01*
X193730000Y-74330000D02*
X175890000Y-74330000D01*
X196330000Y-71670000D02*
X196330000Y-73000000D01*
%TO.C,J10*%
X193730000Y-48810000D02*
X193730000Y-51470000D01*
X175890000Y-48810000D02*
X175890000Y-51470000D01*
X193730000Y-48810000D02*
X175890000Y-48810000D01*
X195000000Y-48810000D02*
X196330000Y-48810000D01*
X193730000Y-51470000D02*
X175890000Y-51470000D01*
X196330000Y-48810000D02*
X196330000Y-50140000D01*
%TO.C,C10*%
X47530000Y-54782000D02*
X47530000Y-56960000D01*
X48371000Y-59040000D02*
X48371000Y-61033000D01*
X48171000Y-59040000D02*
X48171000Y-61098000D01*
X50371000Y-57060000D02*
X50371000Y-58940000D01*
X49091000Y-55336000D02*
X49091000Y-56960000D01*
X48651000Y-55084000D02*
X48651000Y-56960000D01*
X47650000Y-54794000D02*
X47650000Y-56960000D01*
X47610000Y-54789000D02*
X47610000Y-56960000D01*
X48691000Y-59040000D02*
X48691000Y-60896000D01*
X49851000Y-56056000D02*
X49851000Y-59944000D01*
X50251000Y-56738000D02*
X50251000Y-59262000D01*
X50411000Y-57198000D02*
X50411000Y-58802000D01*
X49211000Y-55422000D02*
X49211000Y-56960000D01*
X50491000Y-57598000D02*
X50491000Y-58402000D01*
X49371000Y-55550000D02*
X49371000Y-56960000D01*
X47770000Y-54811000D02*
X47770000Y-56960000D01*
X47890000Y-59040000D02*
X47890000Y-61167000D01*
X49771000Y-55956000D02*
X49771000Y-60044000D01*
X48531000Y-59040000D02*
X48531000Y-60970000D01*
X49971000Y-56224000D02*
X49971000Y-59776000D01*
X48451000Y-54998000D02*
X48451000Y-56960000D01*
X48091000Y-54879000D02*
X48091000Y-56960000D01*
X47850000Y-54825000D02*
X47850000Y-56960000D01*
X49571000Y-55735000D02*
X49571000Y-60265000D01*
X48931000Y-55234000D02*
X48931000Y-56960000D01*
X47330000Y-54770000D02*
X47330000Y-61230000D01*
X49011000Y-59040000D02*
X49011000Y-60716000D01*
X48051000Y-59040000D02*
X48051000Y-61131000D01*
X48491000Y-55014000D02*
X48491000Y-56960000D01*
X48131000Y-54890000D02*
X48131000Y-56960000D01*
X49011000Y-55284000D02*
X49011000Y-56960000D01*
X47730000Y-59040000D02*
X47730000Y-61195000D01*
X48371000Y-54967000D02*
X48371000Y-56960000D01*
X47450000Y-54776000D02*
X47450000Y-61224000D01*
X48811000Y-55166000D02*
X48811000Y-56960000D01*
X49491000Y-59040000D02*
X49491000Y-60343000D01*
X49411000Y-55584000D02*
X49411000Y-56960000D01*
X49051000Y-55310000D02*
X49051000Y-56960000D01*
X48171000Y-54902000D02*
X48171000Y-56960000D01*
X49411000Y-59040000D02*
X49411000Y-60416000D01*
X49451000Y-55620000D02*
X49451000Y-56960000D01*
X48531000Y-55030000D02*
X48531000Y-56960000D01*
X48851000Y-55188000D02*
X48851000Y-56960000D01*
X49611000Y-55776000D02*
X49611000Y-60224000D01*
X48291000Y-59040000D02*
X48291000Y-61061000D01*
X47490000Y-59040000D02*
X47490000Y-61222000D01*
X47250000Y-54770000D02*
X47250000Y-61230000D01*
X49931000Y-56166000D02*
X49931000Y-59834000D01*
X48411000Y-59040000D02*
X48411000Y-61018000D01*
X47690000Y-59040000D02*
X47690000Y-61201000D01*
X48971000Y-59040000D02*
X48971000Y-60742000D01*
X48731000Y-59040000D02*
X48731000Y-60876000D01*
X50291000Y-56835000D02*
X50291000Y-59165000D01*
X47810000Y-59040000D02*
X47810000Y-61182000D01*
X50011000Y-56286000D02*
X50011000Y-59714000D01*
X49451000Y-59040000D02*
X49451000Y-60380000D01*
X49531000Y-59040000D02*
X49531000Y-60305000D01*
X48251000Y-59040000D02*
X48251000Y-61074000D01*
X47850000Y-59040000D02*
X47850000Y-61175000D01*
X48571000Y-55048000D02*
X48571000Y-56960000D01*
X47971000Y-54850000D02*
X47971000Y-56960000D01*
X48451000Y-59040000D02*
X48451000Y-61002000D01*
X48211000Y-54914000D02*
X48211000Y-56960000D01*
X48691000Y-55104000D02*
X48691000Y-56960000D01*
X49811000Y-56005000D02*
X49811000Y-59995000D01*
X48051000Y-54869000D02*
X48051000Y-56960000D01*
X47930000Y-54841000D02*
X47930000Y-56960000D01*
X43749759Y-56161000D02*
X44379759Y-56161000D01*
X48891000Y-55210000D02*
X48891000Y-56960000D01*
X48011000Y-59040000D02*
X48011000Y-61141000D01*
X47650000Y-59040000D02*
X47650000Y-61206000D01*
X47610000Y-59040000D02*
X47610000Y-61211000D01*
X44064759Y-55846000D02*
X44064759Y-56476000D01*
X47410000Y-54773000D02*
X47410000Y-61227000D01*
X48571000Y-59040000D02*
X48571000Y-60952000D01*
X48131000Y-59040000D02*
X48131000Y-61110000D01*
X49731000Y-55908000D02*
X49731000Y-60092000D01*
X49531000Y-55695000D02*
X49531000Y-56960000D01*
X49131000Y-55364000D02*
X49131000Y-56960000D01*
X49091000Y-59040000D02*
X49091000Y-60664000D01*
X50451000Y-57367000D02*
X50451000Y-58633000D01*
X47570000Y-54785000D02*
X47570000Y-56960000D01*
X48251000Y-54926000D02*
X48251000Y-56960000D01*
X49691000Y-55863000D02*
X49691000Y-60137000D01*
X50131000Y-56491000D02*
X50131000Y-59509000D01*
X49291000Y-59040000D02*
X49291000Y-60516000D01*
X47770000Y-59040000D02*
X47770000Y-61189000D01*
X48851000Y-59040000D02*
X48851000Y-60812000D01*
X48731000Y-55124000D02*
X48731000Y-56960000D01*
X47930000Y-59040000D02*
X47930000Y-61159000D01*
X49171000Y-59040000D02*
X49171000Y-60607000D01*
X48291000Y-54939000D02*
X48291000Y-56960000D01*
X48211000Y-59040000D02*
X48211000Y-61086000D01*
X49331000Y-55516000D02*
X49331000Y-56960000D01*
X47530000Y-59040000D02*
X47530000Y-61218000D01*
X48331000Y-54953000D02*
X48331000Y-56960000D01*
X48771000Y-59040000D02*
X48771000Y-60856000D01*
X47490000Y-54778000D02*
X47490000Y-56960000D01*
X48491000Y-59040000D02*
X48491000Y-60986000D01*
X47370000Y-54772000D02*
X47370000Y-61228000D01*
X47690000Y-54799000D02*
X47690000Y-56960000D01*
X49331000Y-59040000D02*
X49331000Y-60484000D01*
X50171000Y-56568000D02*
X50171000Y-59432000D01*
X49251000Y-59040000D02*
X49251000Y-60548000D01*
X48931000Y-59040000D02*
X48931000Y-60766000D01*
X47810000Y-54818000D02*
X47810000Y-56960000D01*
X49491000Y-55657000D02*
X49491000Y-56960000D01*
X49651000Y-55818000D02*
X49651000Y-60182000D01*
X49371000Y-59040000D02*
X49371000Y-60450000D01*
X47730000Y-54805000D02*
X47730000Y-56960000D01*
X48811000Y-59040000D02*
X48811000Y-60834000D01*
X48411000Y-54982000D02*
X48411000Y-56960000D01*
X48891000Y-59040000D02*
X48891000Y-60790000D01*
X48331000Y-59040000D02*
X48331000Y-61047000D01*
X48611000Y-59040000D02*
X48611000Y-60934000D01*
X47570000Y-59040000D02*
X47570000Y-61215000D01*
X50331000Y-56941000D02*
X50331000Y-59059000D01*
X50051000Y-56350000D02*
X50051000Y-59650000D01*
X48091000Y-59040000D02*
X48091000Y-61121000D01*
X49211000Y-59040000D02*
X49211000Y-60578000D01*
X48651000Y-59040000D02*
X48651000Y-60916000D01*
X49051000Y-59040000D02*
X49051000Y-60690000D01*
X48771000Y-55144000D02*
X48771000Y-56960000D01*
X48011000Y-54859000D02*
X48011000Y-56960000D01*
X49251000Y-55452000D02*
X49251000Y-56960000D01*
X49131000Y-59040000D02*
X49131000Y-60636000D01*
X47290000Y-54770000D02*
X47290000Y-61230000D01*
X48611000Y-55066000D02*
X48611000Y-56960000D01*
X49171000Y-55393000D02*
X49171000Y-56960000D01*
X50211000Y-56650000D02*
X50211000Y-59350000D01*
X48971000Y-55258000D02*
X48971000Y-56960000D01*
X47890000Y-54833000D02*
X47890000Y-56960000D01*
X50091000Y-56419000D02*
X50091000Y-59581000D01*
X47971000Y-59040000D02*
X47971000Y-61150000D01*
X49891000Y-56110000D02*
X49891000Y-59890000D01*
X49291000Y-55484000D02*
X49291000Y-56960000D01*
X50520000Y-58000000D02*
G75*
G03*
X50520000Y-58000000I-3270000J0D01*
G01*
%TO.C,J6*%
X113475000Y-49875000D02*
X112145000Y-49875000D01*
X114745000Y-47215000D02*
X132585000Y-47215000D01*
X114745000Y-49875000D02*
X114745000Y-47215000D01*
X114745000Y-49875000D02*
X132585000Y-49875000D01*
X132585000Y-49875000D02*
X132585000Y-47215000D01*
X112145000Y-49875000D02*
X112145000Y-48545000D01*
%TO.C,R3*%
X60420000Y-84860000D02*
X60420000Y-85190000D01*
X53880000Y-85190000D02*
X53880000Y-84860000D01*
X60420000Y-85190000D02*
X53880000Y-85190000D01*
X60420000Y-82780000D02*
X60420000Y-82450000D01*
X60420000Y-82450000D02*
X53880000Y-82450000D01*
X53880000Y-82450000D02*
X53880000Y-82780000D01*
D13*
%TO.C,U6*%
X100076000Y-52451000D02*
X100076000Y-80391000D01*
X82804000Y-52451000D02*
X100076000Y-52451000D01*
X82504000Y-77921000D02*
X82504000Y-77921000D01*
X100076000Y-80391000D02*
X82804000Y-80391000D01*
X82804000Y-80391000D02*
X82804000Y-52451000D01*
X82504000Y-77821000D02*
X82504000Y-77821000D01*
X82504000Y-77921000D02*
G75*
G03*
X82504000Y-77821000I0J50000D01*
G01*
X82504000Y-77821000D02*
G75*
G03*
X82504000Y-77921000I0J-50000D01*
G01*
D12*
%TO.C,C9*%
X67730000Y-76040000D02*
X67730000Y-78195000D01*
X68491000Y-72014000D02*
X68491000Y-73960000D01*
X67690000Y-76040000D02*
X67690000Y-78201000D01*
X69611000Y-72776000D02*
X69611000Y-77224000D01*
X67330000Y-71770000D02*
X67330000Y-78230000D01*
X67770000Y-71811000D02*
X67770000Y-73960000D01*
X68211000Y-76040000D02*
X68211000Y-78086000D01*
X69251000Y-72452000D02*
X69251000Y-73960000D01*
X68051000Y-76040000D02*
X68051000Y-78131000D01*
X70331000Y-73941000D02*
X70331000Y-76059000D01*
X70371000Y-74060000D02*
X70371000Y-75940000D01*
X67610000Y-76040000D02*
X67610000Y-78211000D01*
X67650000Y-71794000D02*
X67650000Y-73960000D01*
X68411000Y-71982000D02*
X68411000Y-73960000D01*
X68611000Y-72066000D02*
X68611000Y-73960000D01*
X70011000Y-73286000D02*
X70011000Y-76714000D01*
X68371000Y-71967000D02*
X68371000Y-73960000D01*
X68851000Y-76040000D02*
X68851000Y-77812000D01*
X67250000Y-71770000D02*
X67250000Y-78230000D01*
X68091000Y-71879000D02*
X68091000Y-73960000D01*
X69291000Y-76040000D02*
X69291000Y-77516000D01*
X69971000Y-73224000D02*
X69971000Y-76776000D01*
X68771000Y-72144000D02*
X68771000Y-73960000D01*
X69171000Y-72393000D02*
X69171000Y-73960000D01*
X68651000Y-76040000D02*
X68651000Y-77916000D01*
X68171000Y-76040000D02*
X68171000Y-78098000D01*
X67490000Y-76040000D02*
X67490000Y-78222000D01*
X67850000Y-76040000D02*
X67850000Y-78175000D01*
X69491000Y-76040000D02*
X69491000Y-77343000D01*
X67930000Y-76040000D02*
X67930000Y-78159000D01*
X68051000Y-71869000D02*
X68051000Y-73960000D01*
X68251000Y-71926000D02*
X68251000Y-73960000D01*
X70171000Y-73568000D02*
X70171000Y-76432000D01*
X68011000Y-76040000D02*
X68011000Y-78141000D01*
X69451000Y-72620000D02*
X69451000Y-73960000D01*
X68571000Y-76040000D02*
X68571000Y-77952000D01*
X70491000Y-74598000D02*
X70491000Y-75402000D01*
X69131000Y-72364000D02*
X69131000Y-73960000D01*
X68571000Y-72048000D02*
X68571000Y-73960000D01*
X68651000Y-72084000D02*
X68651000Y-73960000D01*
X68251000Y-76040000D02*
X68251000Y-78074000D01*
X69211000Y-72422000D02*
X69211000Y-73960000D01*
X69171000Y-76040000D02*
X69171000Y-77607000D01*
X70091000Y-73419000D02*
X70091000Y-76581000D01*
X69891000Y-73110000D02*
X69891000Y-76890000D01*
X68131000Y-71890000D02*
X68131000Y-73960000D01*
X67370000Y-71772000D02*
X67370000Y-78228000D01*
X68171000Y-71902000D02*
X68171000Y-73960000D01*
X69811000Y-73005000D02*
X69811000Y-76995000D01*
X69091000Y-72336000D02*
X69091000Y-73960000D01*
X69371000Y-76040000D02*
X69371000Y-77450000D01*
X69211000Y-76040000D02*
X69211000Y-77578000D01*
X64064759Y-72846000D02*
X64064759Y-73476000D01*
X68411000Y-76040000D02*
X68411000Y-78018000D01*
X69011000Y-76040000D02*
X69011000Y-77716000D01*
X68691000Y-76040000D02*
X68691000Y-77896000D01*
X69851000Y-73056000D02*
X69851000Y-76944000D01*
X70291000Y-73835000D02*
X70291000Y-76165000D01*
X67530000Y-71782000D02*
X67530000Y-73960000D01*
X68211000Y-71914000D02*
X68211000Y-73960000D01*
X67971000Y-76040000D02*
X67971000Y-78150000D01*
X68011000Y-71859000D02*
X68011000Y-73960000D01*
X67650000Y-76040000D02*
X67650000Y-78206000D01*
X70451000Y-74367000D02*
X70451000Y-75633000D01*
X69531000Y-72695000D02*
X69531000Y-73960000D01*
X68731000Y-76040000D02*
X68731000Y-77876000D01*
X68771000Y-76040000D02*
X68771000Y-77856000D01*
X68331000Y-76040000D02*
X68331000Y-78047000D01*
X67930000Y-71841000D02*
X67930000Y-73960000D01*
X69131000Y-76040000D02*
X69131000Y-77636000D01*
X69251000Y-76040000D02*
X69251000Y-77548000D01*
X68531000Y-76040000D02*
X68531000Y-77970000D01*
X69451000Y-76040000D02*
X69451000Y-77380000D01*
X67530000Y-76040000D02*
X67530000Y-78218000D01*
X67730000Y-71805000D02*
X67730000Y-73960000D01*
X69051000Y-72310000D02*
X69051000Y-73960000D01*
X67570000Y-71785000D02*
X67570000Y-73960000D01*
X69331000Y-72516000D02*
X69331000Y-73960000D01*
X68971000Y-72258000D02*
X68971000Y-73960000D01*
X70211000Y-73650000D02*
X70211000Y-76350000D01*
X68971000Y-76040000D02*
X68971000Y-77742000D01*
X67890000Y-71833000D02*
X67890000Y-73960000D01*
X63749759Y-73161000D02*
X64379759Y-73161000D01*
X69051000Y-76040000D02*
X69051000Y-77690000D01*
X68131000Y-76040000D02*
X68131000Y-78110000D01*
X69011000Y-72284000D02*
X69011000Y-73960000D01*
X67290000Y-71770000D02*
X67290000Y-78230000D01*
X67570000Y-76040000D02*
X67570000Y-78215000D01*
X68731000Y-72124000D02*
X68731000Y-73960000D01*
X68451000Y-71998000D02*
X68451000Y-73960000D01*
X70131000Y-73491000D02*
X70131000Y-76509000D01*
X70411000Y-74198000D02*
X70411000Y-75802000D01*
X67610000Y-71789000D02*
X67610000Y-73960000D01*
X68451000Y-76040000D02*
X68451000Y-78002000D01*
X69571000Y-72735000D02*
X69571000Y-77265000D01*
X67810000Y-71818000D02*
X67810000Y-73960000D01*
X67450000Y-71776000D02*
X67450000Y-78224000D01*
X69531000Y-76040000D02*
X69531000Y-77305000D01*
X68691000Y-72104000D02*
X68691000Y-73960000D01*
X69411000Y-72584000D02*
X69411000Y-73960000D01*
X68931000Y-76040000D02*
X68931000Y-77766000D01*
X68531000Y-72030000D02*
X68531000Y-73960000D01*
X68291000Y-76040000D02*
X68291000Y-78061000D01*
X69291000Y-72484000D02*
X69291000Y-73960000D01*
X69691000Y-72863000D02*
X69691000Y-77137000D01*
X68371000Y-76040000D02*
X68371000Y-78033000D01*
X67971000Y-71850000D02*
X67971000Y-73960000D01*
X69491000Y-72657000D02*
X69491000Y-73960000D01*
X70051000Y-73350000D02*
X70051000Y-76650000D01*
X69731000Y-72908000D02*
X69731000Y-77092000D01*
X68811000Y-72166000D02*
X68811000Y-73960000D01*
X68851000Y-72188000D02*
X68851000Y-73960000D01*
X68931000Y-72234000D02*
X68931000Y-73960000D01*
X68331000Y-71953000D02*
X68331000Y-73960000D01*
X67810000Y-76040000D02*
X67810000Y-78182000D01*
X68891000Y-72210000D02*
X68891000Y-73960000D01*
X67850000Y-71825000D02*
X67850000Y-73960000D01*
X67890000Y-76040000D02*
X67890000Y-78167000D01*
X68891000Y-76040000D02*
X68891000Y-77790000D01*
X68291000Y-71939000D02*
X68291000Y-73960000D01*
X68091000Y-76040000D02*
X68091000Y-78121000D01*
X70251000Y-73738000D02*
X70251000Y-76262000D01*
X69371000Y-72550000D02*
X69371000Y-73960000D01*
X69651000Y-72818000D02*
X69651000Y-77182000D01*
X67490000Y-71778000D02*
X67490000Y-73960000D01*
X67690000Y-71799000D02*
X67690000Y-73960000D01*
X68811000Y-76040000D02*
X68811000Y-77834000D01*
X69931000Y-73166000D02*
X69931000Y-76834000D01*
X69411000Y-76040000D02*
X69411000Y-77416000D01*
X69331000Y-76040000D02*
X69331000Y-77484000D01*
X67770000Y-76040000D02*
X67770000Y-78189000D01*
X68611000Y-76040000D02*
X68611000Y-77934000D01*
X67410000Y-71773000D02*
X67410000Y-78227000D01*
X68491000Y-76040000D02*
X68491000Y-77986000D01*
X69091000Y-76040000D02*
X69091000Y-77664000D01*
X69771000Y-72956000D02*
X69771000Y-77044000D01*
X70520000Y-75000000D02*
G75*
G03*
X70520000Y-75000000I-3270000J0D01*
G01*
%TO.C,D4*%
X69820000Y-59020000D02*
X69820000Y-63260000D01*
X72060000Y-63260000D02*
X72060000Y-59020000D01*
X70940000Y-63910000D02*
X70940000Y-63260000D01*
X72060000Y-59020000D02*
X69820000Y-59020000D01*
X69820000Y-63260000D02*
X72060000Y-63260000D01*
X72060000Y-59620000D02*
X69820000Y-59620000D01*
X72060000Y-59740000D02*
X69820000Y-59740000D01*
X70940000Y-58370000D02*
X70940000Y-59020000D01*
X72060000Y-59860000D02*
X69820000Y-59860000D01*
%TO.C,U3*%
X55630000Y-58500000D02*
X55630000Y-63800000D01*
X65910000Y-58500000D02*
X55630000Y-58500000D01*
X65910000Y-63800000D02*
X65910000Y-62150000D01*
X55630000Y-63800000D02*
X65910000Y-63800000D01*
X65910000Y-60150000D02*
X65910000Y-58500000D01*
X65910000Y-60150000D02*
G75*
G03*
X65910000Y-62150000I0J-1000000D01*
G01*
%TO.C,U2*%
X156490000Y-82500000D02*
G75*
G03*
X158490000Y-82500000I1000000J0D01*
G01*
X160140000Y-105480000D02*
X160140000Y-82500000D01*
X160140000Y-82500000D02*
X158490000Y-82500000D01*
X154840000Y-82500000D02*
X154840000Y-105480000D01*
X154840000Y-105480000D02*
X160140000Y-105480000D01*
X156490000Y-82500000D02*
X154840000Y-82500000D01*
%TO.C,J2*%
X59308000Y-119328000D02*
X59261000Y-119374000D01*
X52855000Y-113044000D02*
X52855000Y-122965000D01*
X52615000Y-122465000D02*
X52615000Y-123205000D01*
X61605000Y-117030000D02*
X61570000Y-117066000D01*
X61810000Y-117236000D02*
X61763000Y-117282000D01*
X52855000Y-113044000D02*
X63135000Y-113044000D01*
X52855000Y-122405000D02*
X63135000Y-122405000D01*
X52855000Y-122965000D02*
X63135000Y-122965000D01*
X59501000Y-119544000D02*
X59466000Y-119579000D01*
X52855000Y-120905000D02*
X63135000Y-120905000D01*
X63135000Y-113044000D02*
X63135000Y-122965000D01*
X52615000Y-123205000D02*
X53115000Y-123205000D01*
X52855000Y-116004000D02*
X63135000Y-116004000D01*
X53920000Y-117621000D02*
G75*
G03*
X53919573Y-118988042I1534993J-684001D01*
G01*
X54771000Y-119840000D02*
G75*
G03*
X55483805Y-119985253I683999J1535001D01*
G01*
X56139000Y-116770000D02*
G75*
G03*
X54771958Y-116769573I-684001J-1534993D01*
G01*
X56990001Y-118989000D02*
G75*
G03*
X56990427Y-117621958I-1535001J684000D01*
G01*
X55455000Y-119985000D02*
G75*
G03*
X56138318Y-119839756I0J1680000D01*
G01*
X62215000Y-118305000D02*
G75*
G03*
X62215000Y-118305000I-1680000J0D01*
G01*
%TO.C,C5*%
X50900000Y-93020000D02*
X50900000Y-84780000D01*
X48160000Y-93020000D02*
X48160000Y-84780000D01*
X48160000Y-84780000D02*
X50900000Y-84780000D01*
X48160000Y-93020000D02*
X50900000Y-93020000D01*
D14*
%TO.C,Alim_5V_ina282_iso1*%
X203730000Y-107880000D02*
X203730000Y-107880000D01*
X203630000Y-107880000D02*
X203630000Y-107880000D01*
X203190000Y-109880000D02*
X203190000Y-78080000D01*
X182890000Y-78080000D02*
X182890000Y-109880000D01*
X203190000Y-78080000D02*
X182890000Y-78080000D01*
X182890000Y-109880000D02*
X203190000Y-109880000D01*
X203630000Y-107880000D02*
X203630000Y-107880000D01*
X203630000Y-107880000D02*
G75*
G03*
X203730000Y-107880000I50000J0D01*
G01*
X203730000Y-107880000D02*
G75*
G03*
X203630000Y-107880000I-50000J0D01*
G01*
X203630000Y-107880000D02*
G75*
G03*
X203730000Y-107880000I50000J0D01*
G01*
D12*
%TO.C,C4*%
X56630000Y-104620000D02*
X59370000Y-104620000D01*
X59370000Y-104620000D02*
X59370000Y-96380000D01*
X56630000Y-104620000D02*
X56630000Y-96380000D01*
X56630000Y-96380000D02*
X59370000Y-96380000D01*
%TO.C,C1*%
X166470000Y-82240000D02*
X166470000Y-90480000D01*
X166470000Y-90480000D02*
X163730000Y-90480000D01*
X166470000Y-82240000D02*
X163730000Y-82240000D01*
X163730000Y-82240000D02*
X163730000Y-90480000D01*
%TO.C,J1*%
X229913000Y-120403000D02*
X229866000Y-120449000D01*
X223460000Y-114119000D02*
X223460000Y-124040000D01*
X232210000Y-118105000D02*
X232175000Y-118141000D01*
X233740000Y-114119000D02*
X233740000Y-124040000D01*
X223220000Y-124280000D02*
X223720000Y-124280000D01*
X223220000Y-123540000D02*
X223220000Y-124280000D01*
X223460000Y-124040000D02*
X233740000Y-124040000D01*
X223460000Y-121980000D02*
X233740000Y-121980000D01*
X230106000Y-120619000D02*
X230071000Y-120654000D01*
X232415000Y-118311000D02*
X232368000Y-118357000D01*
X223460000Y-123480000D02*
X233740000Y-123480000D01*
X223460000Y-114119000D02*
X233740000Y-114119000D01*
X223460000Y-117079000D02*
X233740000Y-117079000D01*
X224525000Y-118696000D02*
G75*
G03*
X224524573Y-120063042I1534993J-684001D01*
G01*
X226060000Y-121060000D02*
G75*
G03*
X226743318Y-120914756I0J1680000D01*
G01*
X226744000Y-117845000D02*
G75*
G03*
X225376958Y-117844573I-684001J-1534993D01*
G01*
X225376000Y-120915000D02*
G75*
G03*
X226088805Y-121060253I683999J1535001D01*
G01*
X227595001Y-120064000D02*
G75*
G03*
X227595427Y-118696958I-1535001J684000D01*
G01*
X232820000Y-119380000D02*
G75*
G03*
X232820000Y-119380000I-1680000J0D01*
G01*
%TO.C,J3*%
X187900000Y-114119000D02*
X187900000Y-124040000D01*
X187660000Y-123540000D02*
X187660000Y-124280000D01*
X187660000Y-124280000D02*
X188160000Y-124280000D01*
X194353000Y-120403000D02*
X194306000Y-120449000D01*
X196855000Y-118311000D02*
X196808000Y-118357000D01*
X194546000Y-120619000D02*
X194511000Y-120654000D01*
X187900000Y-123480000D02*
X198180000Y-123480000D01*
X187900000Y-117079000D02*
X198180000Y-117079000D01*
X198180000Y-114119000D02*
X198180000Y-124040000D01*
X187900000Y-121980000D02*
X198180000Y-121980000D01*
X196650000Y-118105000D02*
X196615000Y-118141000D01*
X187900000Y-124040000D02*
X198180000Y-124040000D01*
X187900000Y-114119000D02*
X198180000Y-114119000D01*
X189816000Y-120915000D02*
G75*
G03*
X190528805Y-121060253I683999J1535001D01*
G01*
X188965000Y-118696000D02*
G75*
G03*
X188964573Y-120063042I1534993J-684001D01*
G01*
X190500000Y-121060000D02*
G75*
G03*
X191183318Y-120914756I0J1680000D01*
G01*
X191184000Y-117845000D02*
G75*
G03*
X189816958Y-117844573I-684001J-1534993D01*
G01*
X192035001Y-120064000D02*
G75*
G03*
X192035427Y-118696958I-1535001J684000D01*
G01*
X197260000Y-119380000D02*
G75*
G03*
X197260000Y-119380000I-1680000J0D01*
G01*
%TO.C,U1*%
X55950000Y-101700000D02*
X55950000Y-96400000D01*
X55950000Y-96400000D02*
X45670000Y-96400000D01*
X45670000Y-100050000D02*
X45670000Y-101700000D01*
X45670000Y-96400000D02*
X45670000Y-98050000D01*
X45670000Y-101700000D02*
X55950000Y-101700000D01*
X45670000Y-100050000D02*
G75*
G03*
X45670000Y-98050000I0J1000000D01*
G01*
%TO.C,J8*%
X169005000Y-118302800D02*
X164605000Y-118302800D01*
X156105000Y-118302800D02*
X156105000Y-111802800D01*
X170305000Y-119612800D02*
X154805000Y-119612800D01*
X154805000Y-110492800D02*
X170305000Y-110492800D01*
X160505000Y-118302800D02*
X156105000Y-118302800D01*
X164605000Y-118302800D02*
X164605000Y-119612800D01*
X169005000Y-111802800D02*
X169005000Y-118302800D01*
X164605000Y-118302800D02*
X164605000Y-118302800D01*
X159515000Y-121002800D02*
X160515000Y-121002800D01*
X160015000Y-120002800D02*
X159515000Y-121002800D01*
X170305000Y-110492800D02*
X170305000Y-119612800D01*
X160505000Y-119612800D02*
X160505000Y-118302800D01*
X160515000Y-121002800D02*
X160015000Y-120002800D01*
X156105000Y-111802800D02*
X169005000Y-111802800D01*
X154805000Y-119612800D02*
X154805000Y-110492800D01*
D13*
%TO.C,U5*%
X140600000Y-48239000D02*
X140600000Y-48239000D01*
X140500000Y-48239000D02*
X140500000Y-48239000D01*
X165970000Y-65811000D02*
X138030000Y-65811000D01*
X138030000Y-65811000D02*
X138030000Y-48539000D01*
X138030000Y-48539000D02*
X165970000Y-48539000D01*
X165970000Y-48539000D02*
X165970000Y-65811000D01*
X140500000Y-48239000D02*
G75*
G03*
X140600000Y-48239000I50000J0D01*
G01*
X140600000Y-48239000D02*
G75*
G03*
X140500000Y-48239000I-50000J0D01*
G01*
D14*
%TO.C,K1*%
X227915000Y-106555000D02*
X234365000Y-106555000D01*
X226795000Y-101725000D02*
X234365000Y-101725000D01*
D12*
%TO.C,D1*%
X77140000Y-75960000D02*
X77140000Y-71720000D01*
X77140000Y-72320000D02*
X74900000Y-72320000D01*
X76020000Y-76610000D02*
X76020000Y-75960000D01*
X77140000Y-72440000D02*
X74900000Y-72440000D01*
X74900000Y-75960000D02*
X77140000Y-75960000D01*
X76020000Y-71070000D02*
X76020000Y-71720000D01*
X77140000Y-71720000D02*
X74900000Y-71720000D01*
X77140000Y-72560000D02*
X74900000Y-72560000D01*
X74900000Y-71720000D02*
X74900000Y-75960000D01*
%TO.C,D3*%
X76020000Y-63910000D02*
X76020000Y-63260000D01*
X76020000Y-58370000D02*
X76020000Y-59020000D01*
X74900000Y-62660000D02*
X77140000Y-62660000D01*
X77140000Y-63260000D02*
X77140000Y-59020000D01*
X77140000Y-59020000D02*
X74900000Y-59020000D01*
X74900000Y-62420000D02*
X77140000Y-62420000D01*
X74900000Y-63260000D02*
X77140000Y-63260000D01*
X74900000Y-59020000D02*
X74900000Y-63260000D01*
X74900000Y-62540000D02*
X77140000Y-62540000D01*
D14*
%TO.C,K2*%
X226795000Y-94105000D02*
X234365000Y-94105000D01*
X227915000Y-98935000D02*
X234365000Y-98935000D01*
%TO.C,K4*%
X227915000Y-83695000D02*
X234365000Y-83695000D01*
X226795000Y-78865000D02*
X234365000Y-78865000D01*
D12*
%TO.C,R2*%
X214730000Y-93440000D02*
X214400000Y-93440000D01*
X212320000Y-86900000D02*
X211990000Y-86900000D01*
X211990000Y-93440000D02*
X212320000Y-93440000D01*
X214730000Y-86900000D02*
X214730000Y-93440000D01*
X214400000Y-86900000D02*
X214730000Y-86900000D01*
X211990000Y-86900000D02*
X211990000Y-93440000D01*
%TO.C,C7*%
X64240000Y-70370000D02*
X72480000Y-70370000D01*
X64240000Y-67630000D02*
X72480000Y-67630000D01*
X72480000Y-67630000D02*
X72480000Y-70370000D01*
X64240000Y-67630000D02*
X64240000Y-70370000D01*
%TO.C,R1*%
X219610000Y-101060000D02*
X219940000Y-101060000D01*
X222020000Y-94520000D02*
X222350000Y-94520000D01*
X219940000Y-94520000D02*
X219610000Y-94520000D01*
X219610000Y-94520000D02*
X219610000Y-101060000D01*
X222350000Y-94520000D02*
X222350000Y-101060000D01*
X222350000Y-101060000D02*
X222020000Y-101060000D01*
%TO.C,C8*%
X54370000Y-55880000D02*
X51630000Y-55880000D01*
X54370000Y-55880000D02*
X54370000Y-64120000D01*
X51630000Y-55880000D02*
X51630000Y-64120000D01*
X54370000Y-64120000D02*
X51630000Y-64120000D01*
D14*
%TO.C,Alim_5V_Digital_rasp_iso1540_mcp1*%
X132070000Y-107340000D02*
X132070000Y-75540000D01*
X132510000Y-105340000D02*
X132510000Y-105340000D01*
X132510000Y-105340000D02*
X132510000Y-105340000D01*
X111770000Y-75540000D02*
X111770000Y-107340000D01*
X111770000Y-107340000D02*
X132070000Y-107340000D01*
X132070000Y-75540000D02*
X111770000Y-75540000D01*
X132610000Y-105340000D02*
X132610000Y-105340000D01*
X132510000Y-105340000D02*
G75*
G03*
X132610000Y-105340000I50000J0D01*
G01*
X132510000Y-105340000D02*
G75*
G03*
X132610000Y-105340000I50000J0D01*
G01*
X132610000Y-105340000D02*
G75*
G03*
X132510000Y-105340000I-50000J0D01*
G01*
D12*
%TO.C,R6*%
X226000000Y-54280000D02*
X226000000Y-56930000D01*
X223630000Y-69070000D02*
X228370000Y-69070000D01*
X228370000Y-69070000D02*
X228370000Y-56930000D01*
X228370000Y-56930000D02*
X223630000Y-56930000D01*
X223630000Y-56930000D02*
X223630000Y-69070000D01*
X226000000Y-71720000D02*
X226000000Y-69070000D01*
%TO.C,C3*%
X56040000Y-88109000D02*
X57484000Y-88109000D01*
X56040000Y-89910000D02*
X58218000Y-89910000D01*
X51776000Y-89990000D02*
X58224000Y-89990000D01*
X53286000Y-87429000D02*
X56714000Y-87429000D01*
X56040000Y-88669000D02*
X57856000Y-88669000D01*
X56040000Y-88349000D02*
X57664000Y-88349000D01*
X56040000Y-88629000D02*
X57834000Y-88629000D01*
X56040000Y-88269000D02*
X57607000Y-88269000D01*
X56040000Y-87949000D02*
X57343000Y-87949000D01*
X56040000Y-89950000D02*
X58222000Y-89950000D01*
X56040000Y-88509000D02*
X57766000Y-88509000D01*
X51799000Y-89750000D02*
X53960000Y-89750000D01*
X52188000Y-88589000D02*
X53960000Y-88589000D01*
X53166000Y-87509000D02*
X56834000Y-87509000D01*
X52657000Y-87949000D02*
X53960000Y-87949000D01*
X56040000Y-87909000D02*
X57305000Y-87909000D01*
X52104000Y-88749000D02*
X53960000Y-88749000D01*
X56040000Y-88989000D02*
X58002000Y-88989000D01*
X56040000Y-88029000D02*
X57416000Y-88029000D01*
X51805000Y-89710000D02*
X53960000Y-89710000D01*
X51782000Y-89910000D02*
X53960000Y-89910000D01*
X52620000Y-87989000D02*
X53960000Y-87989000D01*
X51982000Y-89029000D02*
X53960000Y-89029000D01*
X56040000Y-89670000D02*
X58189000Y-89670000D01*
X51939000Y-89149000D02*
X53960000Y-89149000D01*
X51953000Y-89109000D02*
X53960000Y-89109000D01*
X56040000Y-89750000D02*
X58201000Y-89750000D01*
X52066000Y-88829000D02*
X53960000Y-88829000D01*
X51902000Y-89269000D02*
X53960000Y-89269000D01*
X56040000Y-88749000D02*
X57896000Y-88749000D01*
X56040000Y-88309000D02*
X57636000Y-88309000D01*
X56040000Y-89590000D02*
X58175000Y-89590000D01*
X52863000Y-87749000D02*
X57137000Y-87749000D01*
X52452000Y-88189000D02*
X53960000Y-88189000D01*
X56040000Y-88229000D02*
X57578000Y-88229000D01*
X52030000Y-88909000D02*
X53960000Y-88909000D01*
X56040000Y-89710000D02*
X58195000Y-89710000D01*
X52364000Y-88309000D02*
X53960000Y-88309000D01*
X51770000Y-90190000D02*
X58230000Y-90190000D01*
X52956000Y-87669000D02*
X57044000Y-87669000D01*
X51770000Y-90150000D02*
X58230000Y-90150000D01*
X56040000Y-88069000D02*
X57450000Y-88069000D01*
X51890000Y-89309000D02*
X53960000Y-89309000D01*
X56040000Y-89349000D02*
X58121000Y-89349000D01*
X56040000Y-88589000D02*
X57812000Y-88589000D01*
X56040000Y-89429000D02*
X58141000Y-89429000D01*
X52310000Y-88389000D02*
X53960000Y-88389000D01*
X56040000Y-89309000D02*
X58110000Y-89309000D01*
X52210000Y-88549000D02*
X53960000Y-88549000D01*
X53738000Y-87189000D02*
X56262000Y-87189000D01*
X56040000Y-88869000D02*
X57952000Y-88869000D01*
X52014000Y-88949000D02*
X53960000Y-88949000D01*
X53419000Y-87349000D02*
X56581000Y-87349000D01*
X51859000Y-89429000D02*
X53960000Y-89429000D01*
X53056000Y-87589000D02*
X56944000Y-87589000D01*
X53350000Y-87389000D02*
X56650000Y-87389000D01*
X53005000Y-87629000D02*
X56995000Y-87629000D01*
X56040000Y-89189000D02*
X58074000Y-89189000D01*
X56040000Y-88709000D02*
X57876000Y-88709000D01*
X56040000Y-88789000D02*
X57916000Y-88789000D01*
X56040000Y-89389000D02*
X58131000Y-89389000D01*
X56040000Y-88429000D02*
X57716000Y-88429000D01*
X52776000Y-87829000D02*
X57224000Y-87829000D01*
X56040000Y-89790000D02*
X58206000Y-89790000D01*
X52144000Y-88669000D02*
X53960000Y-88669000D01*
X56040000Y-89229000D02*
X58086000Y-89229000D01*
X51770000Y-90110000D02*
X58230000Y-90110000D01*
X56040000Y-89550000D02*
X58167000Y-89550000D01*
X51879000Y-89349000D02*
X53960000Y-89349000D01*
X53650000Y-87229000D02*
X56350000Y-87229000D01*
X56040000Y-88829000D02*
X57934000Y-88829000D01*
X56040000Y-88389000D02*
X57690000Y-88389000D01*
X56040000Y-88469000D02*
X57742000Y-88469000D01*
X54060000Y-87069000D02*
X55940000Y-87069000D01*
X52048000Y-88869000D02*
X53960000Y-88869000D01*
X52550000Y-88069000D02*
X53960000Y-88069000D01*
X56040000Y-89269000D02*
X58098000Y-89269000D01*
X52584000Y-88029000D02*
X53960000Y-88029000D01*
X52393000Y-88269000D02*
X53960000Y-88269000D01*
X56040000Y-89109000D02*
X58047000Y-89109000D01*
X51778000Y-89950000D02*
X53960000Y-89950000D01*
X56040000Y-88949000D02*
X57986000Y-88949000D01*
X51998000Y-88989000D02*
X53960000Y-88989000D01*
X53224000Y-87469000D02*
X56776000Y-87469000D01*
X56040000Y-89469000D02*
X58150000Y-89469000D01*
X52846000Y-93375241D02*
X53476000Y-93375241D01*
X51825000Y-89590000D02*
X53960000Y-89590000D01*
X52234000Y-88509000D02*
X53960000Y-88509000D01*
X56040000Y-87989000D02*
X57380000Y-87989000D01*
X52422000Y-88229000D02*
X53960000Y-88229000D01*
X53491000Y-87309000D02*
X56509000Y-87309000D01*
X52735000Y-87869000D02*
X57265000Y-87869000D01*
X56040000Y-89510000D02*
X58159000Y-89510000D01*
X54598000Y-86949000D02*
X55402000Y-86949000D01*
X52336000Y-88349000D02*
X53960000Y-88349000D01*
X51772000Y-90070000D02*
X58228000Y-90070000D01*
X51818000Y-89630000D02*
X53960000Y-89630000D01*
X52695000Y-87909000D02*
X53960000Y-87909000D01*
X54198000Y-87029000D02*
X55802000Y-87029000D01*
X51794000Y-89790000D02*
X53960000Y-89790000D01*
X56040000Y-88909000D02*
X57970000Y-88909000D01*
X56040000Y-88149000D02*
X57516000Y-88149000D01*
X56040000Y-89630000D02*
X58182000Y-89630000D01*
X51869000Y-89389000D02*
X53960000Y-89389000D01*
X51850000Y-89469000D02*
X53960000Y-89469000D01*
X52818000Y-87789000D02*
X57182000Y-87789000D01*
X51785000Y-89870000D02*
X53960000Y-89870000D01*
X56040000Y-89149000D02*
X58061000Y-89149000D01*
X51811000Y-89670000D02*
X53960000Y-89670000D01*
X51773000Y-90030000D02*
X58227000Y-90030000D01*
X52516000Y-88109000D02*
X53960000Y-88109000D01*
X53941000Y-87109000D02*
X56059000Y-87109000D01*
X56040000Y-88189000D02*
X57548000Y-88189000D01*
X51841000Y-89510000D02*
X53960000Y-89510000D01*
X51833000Y-89550000D02*
X53960000Y-89550000D01*
X53110000Y-87549000D02*
X56890000Y-87549000D01*
X53568000Y-87269000D02*
X56432000Y-87269000D01*
X56040000Y-89830000D02*
X58211000Y-89830000D01*
X52284000Y-88429000D02*
X53960000Y-88429000D01*
X52166000Y-88629000D02*
X53960000Y-88629000D01*
X53835000Y-87149000D02*
X56165000Y-87149000D01*
X56040000Y-89870000D02*
X58215000Y-89870000D01*
X51967000Y-89069000D02*
X53960000Y-89069000D01*
X52124000Y-88709000D02*
X53960000Y-88709000D01*
X52258000Y-88469000D02*
X53960000Y-88469000D01*
X51926000Y-89189000D02*
X53960000Y-89189000D01*
X51914000Y-89229000D02*
X53960000Y-89229000D01*
X52084000Y-88789000D02*
X53960000Y-88789000D01*
X56040000Y-88549000D02*
X57790000Y-88549000D01*
X52908000Y-87709000D02*
X57092000Y-87709000D01*
X54367000Y-86989000D02*
X55633000Y-86989000D01*
X52484000Y-88149000D02*
X53960000Y-88149000D01*
X56040000Y-89069000D02*
X58033000Y-89069000D01*
X53161000Y-93690241D02*
X53161000Y-93060241D01*
X56040000Y-89029000D02*
X58018000Y-89029000D01*
X51789000Y-89830000D02*
X53960000Y-89830000D01*
X58270000Y-90190000D02*
G75*
G03*
X58270000Y-90190000I-3270000J0D01*
G01*
%TO.C,R4*%
X61320000Y-52020000D02*
X61320000Y-52350000D01*
X61320000Y-49610000D02*
X67860000Y-49610000D01*
X67860000Y-49610000D02*
X67860000Y-49940000D01*
X67860000Y-52350000D02*
X67860000Y-52020000D01*
X61320000Y-49940000D02*
X61320000Y-49610000D01*
X61320000Y-52350000D02*
X67860000Y-52350000D01*
%TO.C,R5*%
X53730000Y-80110000D02*
X60270000Y-80110000D01*
X53730000Y-77700000D02*
X53730000Y-77370000D01*
X60270000Y-80110000D02*
X60270000Y-79780000D01*
X60270000Y-77370000D02*
X60270000Y-77700000D01*
X53730000Y-77370000D02*
X60270000Y-77370000D01*
X53730000Y-79780000D02*
X53730000Y-80110000D01*
%TO.C,J9*%
X118855000Y-116044000D02*
X118855000Y-125965000D01*
X118615000Y-125465000D02*
X118615000Y-126205000D01*
X125501000Y-122544000D02*
X125466000Y-122579000D01*
X118855000Y-125405000D02*
X129135000Y-125405000D01*
X129135000Y-116044000D02*
X129135000Y-125965000D01*
X118855000Y-125965000D02*
X129135000Y-125965000D01*
X118615000Y-126205000D02*
X119115000Y-126205000D01*
X118855000Y-116044000D02*
X129135000Y-116044000D01*
X127810000Y-120236000D02*
X127763000Y-120282000D01*
X125308000Y-122328000D02*
X125261000Y-122374000D01*
X127605000Y-120030000D02*
X127570000Y-120066000D01*
X118855000Y-123905000D02*
X129135000Y-123905000D01*
X118855000Y-119004000D02*
X129135000Y-119004000D01*
X121455000Y-122985000D02*
G75*
G03*
X122138318Y-122839756I0J1680000D01*
G01*
X122139000Y-119770000D02*
G75*
G03*
X120771958Y-119769573I-684001J-1534993D01*
G01*
X119920000Y-120621000D02*
G75*
G03*
X119919573Y-121988042I1534993J-684001D01*
G01*
X120771000Y-122840000D02*
G75*
G03*
X121483805Y-122985253I683999J1535001D01*
G01*
X122990001Y-121989000D02*
G75*
G03*
X122990427Y-120621958I-1535001J684000D01*
G01*
X128215000Y-121305000D02*
G75*
G03*
X128215000Y-121305000I-1680000J0D01*
G01*
%TO.C,D2*%
X61010000Y-71300000D02*
X60360000Y-71300000D01*
X56120000Y-72420000D02*
X60360000Y-72420000D01*
X55470000Y-71300000D02*
X56120000Y-71300000D01*
X60360000Y-72420000D02*
X60360000Y-70180000D01*
X59520000Y-72420000D02*
X59520000Y-70180000D01*
X59760000Y-72420000D02*
X59760000Y-70180000D01*
X56120000Y-70180000D02*
X56120000Y-72420000D01*
X59640000Y-72420000D02*
X59640000Y-70180000D01*
X60360000Y-70180000D02*
X56120000Y-70180000D01*
D15*
%TO.C,Alim_analog_Vmn1*%
X101590000Y-85700000D02*
X101590000Y-117500000D01*
X81290000Y-117500000D02*
X81290000Y-85700000D01*
X101590000Y-117500000D02*
X81290000Y-117500000D01*
X81290000Y-85700000D02*
X101590000Y-85700000D01*
D14*
X99160000Y-118290000D02*
G75*
G03*
X99160000Y-118290000I-100000J0D01*
G01*
D12*
%TO.C,J5*%
X109630000Y-62530000D02*
X109630000Y-54850000D01*
X109630000Y-63800000D02*
X109630000Y-65130000D01*
X109630000Y-54850000D02*
X106970000Y-54850000D01*
X109630000Y-65130000D02*
X108300000Y-65130000D01*
X109630000Y-62530000D02*
X106970000Y-62530000D01*
X106970000Y-62530000D02*
X106970000Y-54850000D01*
%TO.C,C6*%
X66227000Y-100410000D02*
X59773000Y-100410000D01*
X61960000Y-100610000D02*
X59789000Y-100610000D01*
X64165000Y-103291000D02*
X61835000Y-103291000D01*
X61960000Y-100570000D02*
X59785000Y-100570000D01*
X61960000Y-101051000D02*
X59869000Y-101051000D01*
X66121000Y-101091000D02*
X64040000Y-101091000D01*
X61960000Y-102491000D02*
X60657000Y-102491000D01*
X65516000Y-102291000D02*
X64040000Y-102291000D01*
X61960000Y-100690000D02*
X59799000Y-100690000D01*
X61960000Y-102371000D02*
X60550000Y-102371000D01*
X65265000Y-102571000D02*
X60735000Y-102571000D01*
X66182000Y-100810000D02*
X64040000Y-100810000D01*
X64350000Y-103211000D02*
X61650000Y-103211000D01*
X64776000Y-102971000D02*
X61224000Y-102971000D01*
X63633000Y-103451000D02*
X62367000Y-103451000D01*
X65343000Y-102491000D02*
X64040000Y-102491000D01*
X61960000Y-102331000D02*
X60516000Y-102331000D01*
X61960000Y-101171000D02*
X59902000Y-101171000D01*
X65578000Y-102211000D02*
X64040000Y-102211000D01*
X66211000Y-100610000D02*
X64040000Y-100610000D01*
X61960000Y-101971000D02*
X60258000Y-101971000D01*
X65952000Y-101571000D02*
X64040000Y-101571000D01*
X66141000Y-101011000D02*
X64040000Y-101011000D01*
X64432000Y-103171000D02*
X61568000Y-103171000D01*
X61960000Y-102251000D02*
X60452000Y-102251000D01*
X61960000Y-100890000D02*
X59833000Y-100890000D01*
X64944000Y-102851000D02*
X61056000Y-102851000D01*
X65450000Y-102371000D02*
X64040000Y-102371000D01*
X61960000Y-101491000D02*
X60014000Y-101491000D01*
X66167000Y-100890000D02*
X64040000Y-100890000D01*
X65970000Y-101531000D02*
X64040000Y-101531000D01*
X61960000Y-102051000D02*
X60310000Y-102051000D01*
X64262000Y-103251000D02*
X61738000Y-103251000D01*
X66230000Y-100290000D02*
X59770000Y-100290000D01*
X65305000Y-102531000D02*
X64040000Y-102531000D01*
X66195000Y-100730000D02*
X64040000Y-100730000D01*
X61960000Y-101611000D02*
X60066000Y-101611000D01*
X65137000Y-102691000D02*
X60863000Y-102691000D01*
X61960000Y-102091000D02*
X60336000Y-102091000D01*
X64834000Y-102931000D02*
X61166000Y-102931000D01*
X65092000Y-102731000D02*
X60908000Y-102731000D01*
X66230000Y-100330000D02*
X59770000Y-100330000D01*
X61960000Y-101771000D02*
X60144000Y-101771000D01*
X65766000Y-101931000D02*
X64040000Y-101931000D01*
X61960000Y-100650000D02*
X59794000Y-100650000D01*
X61960000Y-100810000D02*
X59818000Y-100810000D01*
X61960000Y-101531000D02*
X60030000Y-101531000D01*
X61960000Y-102171000D02*
X60393000Y-102171000D01*
X61960000Y-101011000D02*
X59859000Y-101011000D01*
X66230000Y-100250000D02*
X59770000Y-100250000D01*
X66189000Y-100770000D02*
X64040000Y-100770000D01*
X64839000Y-96749759D02*
X64839000Y-97379759D01*
X65934000Y-101611000D02*
X64040000Y-101611000D01*
X66018000Y-101411000D02*
X64040000Y-101411000D01*
X65154000Y-97064759D02*
X64524000Y-97064759D01*
X61960000Y-102211000D02*
X60422000Y-102211000D01*
X61960000Y-102011000D02*
X60284000Y-102011000D01*
X61960000Y-100730000D02*
X59805000Y-100730000D01*
X64890000Y-102891000D02*
X61110000Y-102891000D01*
X65664000Y-102091000D02*
X64040000Y-102091000D01*
X61960000Y-100850000D02*
X59825000Y-100850000D01*
X65416000Y-102411000D02*
X64040000Y-102411000D01*
X61960000Y-101731000D02*
X60124000Y-101731000D01*
X61960000Y-100971000D02*
X59850000Y-100971000D01*
X61960000Y-101331000D02*
X59953000Y-101331000D01*
X66150000Y-100971000D02*
X64040000Y-100971000D01*
X61960000Y-101811000D02*
X60166000Y-101811000D01*
X61960000Y-101291000D02*
X59939000Y-101291000D01*
X61960000Y-101411000D02*
X59982000Y-101411000D01*
X65742000Y-101971000D02*
X64040000Y-101971000D01*
X66224000Y-100450000D02*
X59776000Y-100450000D01*
X61960000Y-100530000D02*
X59782000Y-100530000D01*
X61960000Y-102531000D02*
X60695000Y-102531000D01*
X61960000Y-102131000D02*
X60364000Y-102131000D01*
X61960000Y-101851000D02*
X60188000Y-101851000D01*
X65224000Y-102611000D02*
X60776000Y-102611000D01*
X65896000Y-101691000D02*
X64040000Y-101691000D01*
X64059000Y-103331000D02*
X61941000Y-103331000D01*
X61960000Y-101691000D02*
X60104000Y-101691000D01*
X66215000Y-100570000D02*
X64040000Y-100570000D01*
X66228000Y-100370000D02*
X59772000Y-100370000D01*
X66086000Y-101211000D02*
X64040000Y-101211000D01*
X61960000Y-101891000D02*
X60210000Y-101891000D01*
X63802000Y-103411000D02*
X62198000Y-103411000D01*
X66175000Y-100850000D02*
X64040000Y-100850000D01*
X64714000Y-103011000D02*
X61286000Y-103011000D01*
X66110000Y-101131000D02*
X64040000Y-101131000D01*
X65380000Y-102451000D02*
X64040000Y-102451000D01*
X66002000Y-101451000D02*
X64040000Y-101451000D01*
X61960000Y-100930000D02*
X59841000Y-100930000D01*
X65607000Y-102171000D02*
X64040000Y-102171000D01*
X61960000Y-101451000D02*
X59998000Y-101451000D01*
X66206000Y-100650000D02*
X64040000Y-100650000D01*
X65182000Y-102651000D02*
X60818000Y-102651000D01*
X61960000Y-101251000D02*
X59926000Y-101251000D01*
X66033000Y-101371000D02*
X64040000Y-101371000D01*
X61960000Y-102291000D02*
X60484000Y-102291000D01*
X61960000Y-100490000D02*
X59778000Y-100490000D01*
X65834000Y-101811000D02*
X64040000Y-101811000D01*
X63402000Y-103491000D02*
X62598000Y-103491000D01*
X64995000Y-102811000D02*
X61005000Y-102811000D01*
X63940000Y-103371000D02*
X62060000Y-103371000D01*
X65690000Y-102051000D02*
X64040000Y-102051000D01*
X61960000Y-101931000D02*
X60234000Y-101931000D01*
X66201000Y-100690000D02*
X64040000Y-100690000D01*
X65986000Y-101491000D02*
X64040000Y-101491000D01*
X66131000Y-101051000D02*
X64040000Y-101051000D01*
X65548000Y-102251000D02*
X64040000Y-102251000D01*
X65044000Y-102771000D02*
X60956000Y-102771000D01*
X65916000Y-101651000D02*
X64040000Y-101651000D01*
X61960000Y-101571000D02*
X60048000Y-101571000D01*
X66061000Y-101291000D02*
X64040000Y-101291000D01*
X65636000Y-102131000D02*
X64040000Y-102131000D01*
X66098000Y-101171000D02*
X64040000Y-101171000D01*
X61960000Y-101131000D02*
X59890000Y-101131000D01*
X65856000Y-101771000D02*
X64040000Y-101771000D01*
X66218000Y-100530000D02*
X64040000Y-100530000D01*
X64581000Y-103091000D02*
X61419000Y-103091000D01*
X61960000Y-101371000D02*
X59967000Y-101371000D01*
X61960000Y-100770000D02*
X59811000Y-100770000D01*
X61960000Y-102451000D02*
X60620000Y-102451000D01*
X61960000Y-102411000D02*
X60584000Y-102411000D01*
X64509000Y-103131000D02*
X61491000Y-103131000D01*
X66159000Y-100930000D02*
X64040000Y-100930000D01*
X66222000Y-100490000D02*
X64040000Y-100490000D01*
X64650000Y-103051000D02*
X61350000Y-103051000D01*
X61960000Y-101091000D02*
X59879000Y-101091000D01*
X65876000Y-101731000D02*
X64040000Y-101731000D01*
X61960000Y-101211000D02*
X59914000Y-101211000D01*
X65812000Y-101851000D02*
X64040000Y-101851000D01*
X65716000Y-102011000D02*
X64040000Y-102011000D01*
X66074000Y-101251000D02*
X64040000Y-101251000D01*
X66047000Y-101331000D02*
X64040000Y-101331000D01*
X61960000Y-101651000D02*
X60084000Y-101651000D01*
X65790000Y-101891000D02*
X64040000Y-101891000D01*
X65484000Y-102331000D02*
X64040000Y-102331000D01*
X66270000Y-100250000D02*
G75*
G03*
X66270000Y-100250000I-3270000J0D01*
G01*
%TO.C,C2*%
X175887000Y-88250000D02*
X173760000Y-88250000D01*
X171680000Y-89251000D02*
X169930000Y-89251000D01*
X171680000Y-89371000D02*
X170004000Y-89371000D01*
X173885000Y-90651000D02*
X171555000Y-90651000D01*
X175672000Y-88931000D02*
X173760000Y-88931000D01*
X174559000Y-84109759D02*
X174559000Y-84739759D01*
X175950000Y-87610000D02*
X169490000Y-87610000D01*
X175794000Y-88611000D02*
X173760000Y-88611000D01*
X173353000Y-90811000D02*
X172087000Y-90811000D01*
X175410000Y-89411000D02*
X173760000Y-89411000D01*
X175902000Y-88170000D02*
X173760000Y-88170000D01*
X171680000Y-89091000D02*
X169844000Y-89091000D01*
X171680000Y-89331000D02*
X169978000Y-89331000D01*
X175841000Y-88451000D02*
X173760000Y-88451000D01*
X174434000Y-90371000D02*
X171006000Y-90371000D01*
X171680000Y-89011000D02*
X169804000Y-89011000D01*
X175950000Y-87650000D02*
X169490000Y-87650000D01*
X171680000Y-89611000D02*
X170172000Y-89611000D01*
X175100000Y-89811000D02*
X173760000Y-89811000D01*
X171680000Y-87850000D02*
X169498000Y-87850000D01*
X171680000Y-88971000D02*
X169786000Y-88971000D01*
X175616000Y-89051000D02*
X173760000Y-89051000D01*
X171680000Y-88331000D02*
X169570000Y-88331000D01*
X171680000Y-88611000D02*
X169646000Y-88611000D01*
X175851000Y-88411000D02*
X173760000Y-88411000D01*
X175722000Y-88811000D02*
X173760000Y-88811000D01*
X171680000Y-87970000D02*
X169509000Y-87970000D01*
X174874000Y-84424759D02*
X174244000Y-84424759D01*
X171680000Y-89811000D02*
X170340000Y-89811000D01*
X175436000Y-89371000D02*
X173760000Y-89371000D01*
X171680000Y-89731000D02*
X170270000Y-89731000D01*
X174944000Y-89971000D02*
X170496000Y-89971000D01*
X174152000Y-90531000D02*
X171288000Y-90531000D01*
X175576000Y-89131000D02*
X173760000Y-89131000D01*
X171680000Y-89651000D02*
X170204000Y-89651000D01*
X171680000Y-88571000D02*
X169634000Y-88571000D01*
X175170000Y-89731000D02*
X173760000Y-89731000D01*
X171680000Y-88130000D02*
X169531000Y-88130000D01*
X174857000Y-90051000D02*
X170583000Y-90051000D01*
X175063000Y-89851000D02*
X173760000Y-89851000D01*
X171680000Y-89051000D02*
X169824000Y-89051000D01*
X175327000Y-89531000D02*
X173760000Y-89531000D01*
X171680000Y-89771000D02*
X170304000Y-89771000D01*
X175136000Y-89771000D02*
X173760000Y-89771000D01*
X171680000Y-89131000D02*
X169864000Y-89131000D01*
X171680000Y-88050000D02*
X169519000Y-88050000D01*
X175636000Y-89011000D02*
X173760000Y-89011000D01*
X171680000Y-89411000D02*
X170030000Y-89411000D01*
X175706000Y-88851000D02*
X173760000Y-88851000D01*
X171680000Y-88531000D02*
X169622000Y-88531000D01*
X171680000Y-87890000D02*
X169502000Y-87890000D01*
X171680000Y-88731000D02*
X169687000Y-88731000D01*
X175938000Y-87890000D02*
X173760000Y-87890000D01*
X171680000Y-88290000D02*
X169561000Y-88290000D01*
X171680000Y-89571000D02*
X170142000Y-89571000D01*
X174229000Y-90491000D02*
X171211000Y-90491000D01*
X175947000Y-87770000D02*
X169493000Y-87770000D01*
X175738000Y-88771000D02*
X173760000Y-88771000D01*
X175944000Y-87810000D02*
X169496000Y-87810000D01*
X175356000Y-89491000D02*
X173760000Y-89491000D01*
X175753000Y-88731000D02*
X173760000Y-88731000D01*
X175462000Y-89331000D02*
X173760000Y-89331000D01*
X174070000Y-90571000D02*
X171370000Y-90571000D01*
X174902000Y-90011000D02*
X170538000Y-90011000D01*
X175926000Y-88010000D02*
X173760000Y-88010000D01*
X175942000Y-87850000D02*
X173760000Y-87850000D01*
X175654000Y-88971000D02*
X173760000Y-88971000D01*
X171680000Y-88691000D02*
X169673000Y-88691000D01*
X174985000Y-89931000D02*
X170455000Y-89931000D01*
X175870000Y-88331000D02*
X173760000Y-88331000D01*
X174554000Y-90291000D02*
X170886000Y-90291000D01*
X171680000Y-89851000D02*
X170377000Y-89851000D01*
X171680000Y-88891000D02*
X169750000Y-88891000D01*
X173522000Y-90771000D02*
X171918000Y-90771000D01*
X175921000Y-88050000D02*
X173760000Y-88050000D01*
X173982000Y-90611000D02*
X171458000Y-90611000D01*
X174496000Y-90331000D02*
X170944000Y-90331000D01*
X171680000Y-88170000D02*
X169538000Y-88170000D01*
X171680000Y-88371000D02*
X169579000Y-88371000D01*
X171680000Y-89531000D02*
X170113000Y-89531000D01*
X175909000Y-88130000D02*
X173760000Y-88130000D01*
X171680000Y-88451000D02*
X169599000Y-88451000D01*
X171680000Y-89291000D02*
X169954000Y-89291000D01*
X175861000Y-88371000D02*
X173760000Y-88371000D01*
X171680000Y-87930000D02*
X169505000Y-87930000D01*
X174764000Y-90131000D02*
X170676000Y-90131000D01*
X173779000Y-90691000D02*
X171661000Y-90691000D01*
X175781000Y-88651000D02*
X173760000Y-88651000D01*
X175384000Y-89451000D02*
X173760000Y-89451000D01*
X171680000Y-88811000D02*
X169718000Y-88811000D01*
X174715000Y-90171000D02*
X170725000Y-90171000D01*
X171680000Y-89451000D02*
X170056000Y-89451000D01*
X175931000Y-87970000D02*
X173760000Y-87970000D01*
X174370000Y-90411000D02*
X171070000Y-90411000D01*
X171680000Y-88771000D02*
X169702000Y-88771000D01*
X175298000Y-89571000D02*
X173760000Y-89571000D01*
X171680000Y-89211000D02*
X169908000Y-89211000D01*
X174812000Y-90091000D02*
X170628000Y-90091000D01*
X175895000Y-88210000D02*
X173760000Y-88210000D01*
X173660000Y-90731000D02*
X171780000Y-90731000D01*
X175818000Y-88531000D02*
X173760000Y-88531000D01*
X175806000Y-88571000D02*
X173760000Y-88571000D01*
X171680000Y-88250000D02*
X169553000Y-88250000D01*
X171680000Y-89891000D02*
X170415000Y-89891000D01*
X171680000Y-89691000D02*
X170236000Y-89691000D01*
X171680000Y-89491000D02*
X170084000Y-89491000D01*
X171680000Y-88210000D02*
X169545000Y-88210000D01*
X175486000Y-89291000D02*
X173760000Y-89291000D01*
X175915000Y-88090000D02*
X173760000Y-88090000D01*
X175935000Y-87930000D02*
X173760000Y-87930000D01*
X175948000Y-87730000D02*
X169492000Y-87730000D01*
X175532000Y-89211000D02*
X173760000Y-89211000D01*
X175236000Y-89651000D02*
X173760000Y-89651000D01*
X175510000Y-89251000D02*
X173760000Y-89251000D01*
X171680000Y-89171000D02*
X169886000Y-89171000D01*
X171680000Y-88491000D02*
X169610000Y-88491000D01*
X171680000Y-88090000D02*
X169525000Y-88090000D01*
X171680000Y-88851000D02*
X169734000Y-88851000D01*
X171680000Y-88010000D02*
X169514000Y-88010000D01*
X175204000Y-89691000D02*
X173760000Y-89691000D01*
X174664000Y-90211000D02*
X170776000Y-90211000D01*
X171680000Y-88651000D02*
X169659000Y-88651000D01*
X174610000Y-90251000D02*
X170830000Y-90251000D01*
X173122000Y-90851000D02*
X172318000Y-90851000D01*
X175950000Y-87690000D02*
X169490000Y-87690000D01*
X175025000Y-89891000D02*
X173760000Y-89891000D01*
X175879000Y-88290000D02*
X173760000Y-88290000D01*
X175268000Y-89611000D02*
X173760000Y-89611000D01*
X175690000Y-88891000D02*
X173760000Y-88891000D01*
X171680000Y-88931000D02*
X169768000Y-88931000D01*
X175767000Y-88691000D02*
X173760000Y-88691000D01*
X175554000Y-89171000D02*
X173760000Y-89171000D01*
X174301000Y-90451000D02*
X171139000Y-90451000D01*
X171680000Y-88411000D02*
X169589000Y-88411000D01*
X175596000Y-89091000D02*
X173760000Y-89091000D01*
X175830000Y-88491000D02*
X173760000Y-88491000D01*
X175990000Y-87610000D02*
G75*
G03*
X175990000Y-87610000I-3270000J0D01*
G01*
D14*
%TO.C,K3*%
X226795000Y-86485000D02*
X234365000Y-86485000D01*
X227915000Y-91315000D02*
X234365000Y-91315000D01*
%TD*%
M02*
