%TF.GenerationSoftware,KiCad,Pcbnew,7.0.6*%
%TF.CreationDate,2023-11-08T16:42:53+01:00*%
%TF.ProjectId,mb.2024.0.2,6d622e32-3032-4342-9e30-2e322e6b6963,rev?*%
%TF.SameCoordinates,Original*%
%TF.FileFunction,Drillmap*%
%TF.FilePolarity,Positive*%
%FSLAX45Y45*%
G04 Gerber Fmt 4.5, Leading zero omitted, Abs format (unit mm)*
G04 Created by KiCad (PCBNEW 7.0.6) date 2023-11-08 16:42:53*
%MOMM*%
%LPD*%
G01*
G04 APERTURE LIST*
%ADD10C,0.100000*%
%ADD11C,0.200000*%
%ADD12C,0.320000*%
G04 APERTURE END LIST*
D10*
X16500000Y-3100000D02*
X16200000Y-3300000D01*
X3733800Y-11455400D02*
X1549400Y-11455400D01*
X16200000Y-3300000D02*
X16200000Y-4699000D01*
X1752600Y-4826000D02*
X1524000Y-5054600D01*
X25698000Y-15502000D02*
X25900000Y-15500000D01*
X1524000Y-8890000D02*
X1778000Y-9144000D01*
X15975000Y-4826000D02*
X1752600Y-4826000D01*
X26000000Y-3100000D02*
X16500000Y-3100000D01*
X2700000Y-10400000D02*
X2700000Y-10400000D01*
X26200000Y-15200000D02*
X26200000Y-3300000D01*
X3810000Y-9144000D02*
X4089400Y-9525000D01*
X1778000Y-9144000D02*
X3810000Y-9144000D01*
X1549400Y-11455400D02*
X1424000Y-11557000D01*
X16200000Y-4699000D02*
X15975000Y-4826000D01*
X1424000Y-15300000D02*
X1624000Y-15500000D01*
X1424000Y-11557000D02*
X1424000Y-15300000D01*
X25900000Y-15500000D02*
X26200000Y-15200000D01*
X4089400Y-11125200D02*
X4089400Y-9525000D01*
X18827000Y-15340000D02*
X18821400Y-15519400D01*
X1524000Y-5054600D02*
X1524000Y-8890000D01*
X25603200Y-15341600D02*
X25698000Y-15502000D01*
X4089400Y-11125200D02*
X3733800Y-11455400D01*
X1624000Y-15500000D02*
X18821400Y-15519400D01*
X18827000Y-15340000D02*
X25603200Y-15341600D01*
X26000000Y-3100000D02*
X26200000Y-3300000D01*
D11*
D12*
X19707000Y-8943000D02*
X20027000Y-9263000D01*
X20027000Y-8943000D02*
X19707000Y-9263000D01*
X19714000Y-14729000D02*
X20034000Y-15049000D01*
X20034000Y-14729000D02*
X19714000Y-15049000D01*
X24582000Y-8930000D02*
X24902000Y-9250000D01*
X24902000Y-8930000D02*
X24582000Y-9250000D01*
X24618000Y-14746000D02*
X24938000Y-15066000D01*
X24938000Y-14746000D02*
X24618000Y-15066000D01*
D11*
X1679777Y-15835884D02*
X1679777Y-15635884D01*
X1679777Y-15635884D02*
X1727396Y-15635884D01*
X1727396Y-15635884D02*
X1755967Y-15645408D01*
X1755967Y-15645408D02*
X1775015Y-15664455D01*
X1775015Y-15664455D02*
X1784539Y-15683503D01*
X1784539Y-15683503D02*
X1794062Y-15721598D01*
X1794062Y-15721598D02*
X1794062Y-15750169D01*
X1794062Y-15750169D02*
X1784539Y-15788265D01*
X1784539Y-15788265D02*
X1775015Y-15807312D01*
X1775015Y-15807312D02*
X1755967Y-15826360D01*
X1755967Y-15826360D02*
X1727396Y-15835884D01*
X1727396Y-15835884D02*
X1679777Y-15835884D01*
X1879777Y-15835884D02*
X1879777Y-15702550D01*
X1879777Y-15740646D02*
X1889301Y-15721598D01*
X1889301Y-15721598D02*
X1898824Y-15712074D01*
X1898824Y-15712074D02*
X1917872Y-15702550D01*
X1917872Y-15702550D02*
X1936920Y-15702550D01*
X2003586Y-15835884D02*
X2003586Y-15702550D01*
X2003586Y-15635884D02*
X1994062Y-15645408D01*
X1994062Y-15645408D02*
X2003586Y-15654931D01*
X2003586Y-15654931D02*
X2013110Y-15645408D01*
X2013110Y-15645408D02*
X2003586Y-15635884D01*
X2003586Y-15635884D02*
X2003586Y-15654931D01*
X2127396Y-15835884D02*
X2108348Y-15826360D01*
X2108348Y-15826360D02*
X2098824Y-15807312D01*
X2098824Y-15807312D02*
X2098824Y-15635884D01*
X2232158Y-15835884D02*
X2213110Y-15826360D01*
X2213110Y-15826360D02*
X2203586Y-15807312D01*
X2203586Y-15807312D02*
X2203586Y-15635884D01*
X2460729Y-15835884D02*
X2460729Y-15635884D01*
X2460729Y-15635884D02*
X2527396Y-15778741D01*
X2527396Y-15778741D02*
X2594063Y-15635884D01*
X2594063Y-15635884D02*
X2594063Y-15835884D01*
X2775015Y-15835884D02*
X2775015Y-15731122D01*
X2775015Y-15731122D02*
X2765491Y-15712074D01*
X2765491Y-15712074D02*
X2746444Y-15702550D01*
X2746444Y-15702550D02*
X2708348Y-15702550D01*
X2708348Y-15702550D02*
X2689301Y-15712074D01*
X2775015Y-15826360D02*
X2755967Y-15835884D01*
X2755967Y-15835884D02*
X2708348Y-15835884D01*
X2708348Y-15835884D02*
X2689301Y-15826360D01*
X2689301Y-15826360D02*
X2679777Y-15807312D01*
X2679777Y-15807312D02*
X2679777Y-15788265D01*
X2679777Y-15788265D02*
X2689301Y-15769217D01*
X2689301Y-15769217D02*
X2708348Y-15759693D01*
X2708348Y-15759693D02*
X2755967Y-15759693D01*
X2755967Y-15759693D02*
X2775015Y-15750169D01*
X2870253Y-15702550D02*
X2870253Y-15902550D01*
X2870253Y-15712074D02*
X2889301Y-15702550D01*
X2889301Y-15702550D02*
X2927396Y-15702550D01*
X2927396Y-15702550D02*
X2946443Y-15712074D01*
X2946443Y-15712074D02*
X2955967Y-15721598D01*
X2955967Y-15721598D02*
X2965491Y-15740646D01*
X2965491Y-15740646D02*
X2965491Y-15797788D01*
X2965491Y-15797788D02*
X2955967Y-15816836D01*
X2955967Y-15816836D02*
X2946443Y-15826360D01*
X2946443Y-15826360D02*
X2927396Y-15835884D01*
X2927396Y-15835884D02*
X2889301Y-15835884D01*
X2889301Y-15835884D02*
X2870253Y-15826360D01*
X3051205Y-15816836D02*
X3060729Y-15826360D01*
X3060729Y-15826360D02*
X3051205Y-15835884D01*
X3051205Y-15835884D02*
X3041682Y-15826360D01*
X3041682Y-15826360D02*
X3051205Y-15816836D01*
X3051205Y-15816836D02*
X3051205Y-15835884D01*
X3051205Y-15712074D02*
X3060729Y-15721598D01*
X3060729Y-15721598D02*
X3051205Y-15731122D01*
X3051205Y-15731122D02*
X3041682Y-15721598D01*
X3041682Y-15721598D02*
X3051205Y-15712074D01*
X3051205Y-15712074D02*
X3051205Y-15731122D01*
X1219000Y-16064400D02*
X1419000Y-16264400D01*
X1419000Y-16064400D02*
X1219000Y-16264400D01*
X1660729Y-16055884D02*
X1784539Y-16055884D01*
X1784539Y-16055884D02*
X1717872Y-16132074D01*
X1717872Y-16132074D02*
X1746443Y-16132074D01*
X1746443Y-16132074D02*
X1765491Y-16141598D01*
X1765491Y-16141598D02*
X1775015Y-16151122D01*
X1775015Y-16151122D02*
X1784539Y-16170169D01*
X1784539Y-16170169D02*
X1784539Y-16217788D01*
X1784539Y-16217788D02*
X1775015Y-16236836D01*
X1775015Y-16236836D02*
X1765491Y-16246360D01*
X1765491Y-16246360D02*
X1746443Y-16255884D01*
X1746443Y-16255884D02*
X1689301Y-16255884D01*
X1689301Y-16255884D02*
X1670253Y-16246360D01*
X1670253Y-16246360D02*
X1660729Y-16236836D01*
X1870253Y-16236836D02*
X1879777Y-16246360D01*
X1879777Y-16246360D02*
X1870253Y-16255884D01*
X1870253Y-16255884D02*
X1860729Y-16246360D01*
X1860729Y-16246360D02*
X1870253Y-16236836D01*
X1870253Y-16236836D02*
X1870253Y-16255884D01*
X1955967Y-16074931D02*
X1965491Y-16065408D01*
X1965491Y-16065408D02*
X1984539Y-16055884D01*
X1984539Y-16055884D02*
X2032158Y-16055884D01*
X2032158Y-16055884D02*
X2051205Y-16065408D01*
X2051205Y-16065408D02*
X2060729Y-16074931D01*
X2060729Y-16074931D02*
X2070253Y-16093979D01*
X2070253Y-16093979D02*
X2070253Y-16113027D01*
X2070253Y-16113027D02*
X2060729Y-16141598D01*
X2060729Y-16141598D02*
X1946443Y-16255884D01*
X1946443Y-16255884D02*
X2070253Y-16255884D01*
X2194063Y-16055884D02*
X2213110Y-16055884D01*
X2213110Y-16055884D02*
X2232158Y-16065408D01*
X2232158Y-16065408D02*
X2241682Y-16074931D01*
X2241682Y-16074931D02*
X2251205Y-16093979D01*
X2251205Y-16093979D02*
X2260729Y-16132074D01*
X2260729Y-16132074D02*
X2260729Y-16179693D01*
X2260729Y-16179693D02*
X2251205Y-16217788D01*
X2251205Y-16217788D02*
X2241682Y-16236836D01*
X2241682Y-16236836D02*
X2232158Y-16246360D01*
X2232158Y-16246360D02*
X2213110Y-16255884D01*
X2213110Y-16255884D02*
X2194063Y-16255884D01*
X2194063Y-16255884D02*
X2175015Y-16246360D01*
X2175015Y-16246360D02*
X2165491Y-16236836D01*
X2165491Y-16236836D02*
X2155967Y-16217788D01*
X2155967Y-16217788D02*
X2146444Y-16179693D01*
X2146444Y-16179693D02*
X2146444Y-16132074D01*
X2146444Y-16132074D02*
X2155967Y-16093979D01*
X2155967Y-16093979D02*
X2165491Y-16074931D01*
X2165491Y-16074931D02*
X2175015Y-16065408D01*
X2175015Y-16065408D02*
X2194063Y-16055884D01*
X2384539Y-16055884D02*
X2403586Y-16055884D01*
X2403586Y-16055884D02*
X2422634Y-16065408D01*
X2422634Y-16065408D02*
X2432158Y-16074931D01*
X2432158Y-16074931D02*
X2441682Y-16093979D01*
X2441682Y-16093979D02*
X2451205Y-16132074D01*
X2451205Y-16132074D02*
X2451205Y-16179693D01*
X2451205Y-16179693D02*
X2441682Y-16217788D01*
X2441682Y-16217788D02*
X2432158Y-16236836D01*
X2432158Y-16236836D02*
X2422634Y-16246360D01*
X2422634Y-16246360D02*
X2403586Y-16255884D01*
X2403586Y-16255884D02*
X2384539Y-16255884D01*
X2384539Y-16255884D02*
X2365491Y-16246360D01*
X2365491Y-16246360D02*
X2355967Y-16236836D01*
X2355967Y-16236836D02*
X2346444Y-16217788D01*
X2346444Y-16217788D02*
X2336920Y-16179693D01*
X2336920Y-16179693D02*
X2336920Y-16132074D01*
X2336920Y-16132074D02*
X2346444Y-16093979D01*
X2346444Y-16093979D02*
X2355967Y-16074931D01*
X2355967Y-16074931D02*
X2365491Y-16065408D01*
X2365491Y-16065408D02*
X2384539Y-16055884D01*
X2536920Y-16255884D02*
X2536920Y-16122550D01*
X2536920Y-16141598D02*
X2546444Y-16132074D01*
X2546444Y-16132074D02*
X2565491Y-16122550D01*
X2565491Y-16122550D02*
X2594063Y-16122550D01*
X2594063Y-16122550D02*
X2613110Y-16132074D01*
X2613110Y-16132074D02*
X2622634Y-16151122D01*
X2622634Y-16151122D02*
X2622634Y-16255884D01*
X2622634Y-16151122D02*
X2632158Y-16132074D01*
X2632158Y-16132074D02*
X2651205Y-16122550D01*
X2651205Y-16122550D02*
X2679777Y-16122550D01*
X2679777Y-16122550D02*
X2698825Y-16132074D01*
X2698825Y-16132074D02*
X2708348Y-16151122D01*
X2708348Y-16151122D02*
X2708348Y-16255884D01*
X2803586Y-16255884D02*
X2803586Y-16122550D01*
X2803586Y-16141598D02*
X2813110Y-16132074D01*
X2813110Y-16132074D02*
X2832158Y-16122550D01*
X2832158Y-16122550D02*
X2860729Y-16122550D01*
X2860729Y-16122550D02*
X2879777Y-16132074D01*
X2879777Y-16132074D02*
X2889301Y-16151122D01*
X2889301Y-16151122D02*
X2889301Y-16255884D01*
X2889301Y-16151122D02*
X2898824Y-16132074D01*
X2898824Y-16132074D02*
X2917872Y-16122550D01*
X2917872Y-16122550D02*
X2946443Y-16122550D01*
X2946443Y-16122550D02*
X2965491Y-16132074D01*
X2965491Y-16132074D02*
X2975015Y-16151122D01*
X2975015Y-16151122D02*
X2975015Y-16255884D01*
X3365491Y-16046360D02*
X3194063Y-16303503D01*
X3622634Y-16055884D02*
X3641682Y-16055884D01*
X3641682Y-16055884D02*
X3660729Y-16065408D01*
X3660729Y-16065408D02*
X3670253Y-16074931D01*
X3670253Y-16074931D02*
X3679777Y-16093979D01*
X3679777Y-16093979D02*
X3689301Y-16132074D01*
X3689301Y-16132074D02*
X3689301Y-16179693D01*
X3689301Y-16179693D02*
X3679777Y-16217788D01*
X3679777Y-16217788D02*
X3670253Y-16236836D01*
X3670253Y-16236836D02*
X3660729Y-16246360D01*
X3660729Y-16246360D02*
X3641682Y-16255884D01*
X3641682Y-16255884D02*
X3622634Y-16255884D01*
X3622634Y-16255884D02*
X3603586Y-16246360D01*
X3603586Y-16246360D02*
X3594063Y-16236836D01*
X3594063Y-16236836D02*
X3584539Y-16217788D01*
X3584539Y-16217788D02*
X3575015Y-16179693D01*
X3575015Y-16179693D02*
X3575015Y-16132074D01*
X3575015Y-16132074D02*
X3584539Y-16093979D01*
X3584539Y-16093979D02*
X3594063Y-16074931D01*
X3594063Y-16074931D02*
X3603586Y-16065408D01*
X3603586Y-16065408D02*
X3622634Y-16055884D01*
X3775015Y-16236836D02*
X3784539Y-16246360D01*
X3784539Y-16246360D02*
X3775015Y-16255884D01*
X3775015Y-16255884D02*
X3765491Y-16246360D01*
X3765491Y-16246360D02*
X3775015Y-16236836D01*
X3775015Y-16236836D02*
X3775015Y-16255884D01*
X3975015Y-16255884D02*
X3860729Y-16255884D01*
X3917872Y-16255884D02*
X3917872Y-16055884D01*
X3917872Y-16055884D02*
X3898825Y-16084455D01*
X3898825Y-16084455D02*
X3879777Y-16103503D01*
X3879777Y-16103503D02*
X3860729Y-16113027D01*
X4051206Y-16074931D02*
X4060729Y-16065408D01*
X4060729Y-16065408D02*
X4079777Y-16055884D01*
X4079777Y-16055884D02*
X4127396Y-16055884D01*
X4127396Y-16055884D02*
X4146444Y-16065408D01*
X4146444Y-16065408D02*
X4155967Y-16074931D01*
X4155967Y-16074931D02*
X4165491Y-16093979D01*
X4165491Y-16093979D02*
X4165491Y-16113027D01*
X4165491Y-16113027D02*
X4155967Y-16141598D01*
X4155967Y-16141598D02*
X4041682Y-16255884D01*
X4041682Y-16255884D02*
X4165491Y-16255884D01*
X4336920Y-16055884D02*
X4298825Y-16055884D01*
X4298825Y-16055884D02*
X4279777Y-16065408D01*
X4279777Y-16065408D02*
X4270253Y-16074931D01*
X4270253Y-16074931D02*
X4251206Y-16103503D01*
X4251206Y-16103503D02*
X4241682Y-16141598D01*
X4241682Y-16141598D02*
X4241682Y-16217788D01*
X4241682Y-16217788D02*
X4251206Y-16236836D01*
X4251206Y-16236836D02*
X4260729Y-16246360D01*
X4260729Y-16246360D02*
X4279777Y-16255884D01*
X4279777Y-16255884D02*
X4317872Y-16255884D01*
X4317872Y-16255884D02*
X4336920Y-16246360D01*
X4336920Y-16246360D02*
X4346444Y-16236836D01*
X4346444Y-16236836D02*
X4355968Y-16217788D01*
X4355968Y-16217788D02*
X4355968Y-16170169D01*
X4355968Y-16170169D02*
X4346444Y-16151122D01*
X4346444Y-16151122D02*
X4336920Y-16141598D01*
X4336920Y-16141598D02*
X4317872Y-16132074D01*
X4317872Y-16132074D02*
X4279777Y-16132074D01*
X4279777Y-16132074D02*
X4260729Y-16141598D01*
X4260729Y-16141598D02*
X4251206Y-16151122D01*
X4251206Y-16151122D02*
X4241682Y-16170169D01*
X4479777Y-16055884D02*
X4498825Y-16055884D01*
X4498825Y-16055884D02*
X4517872Y-16065408D01*
X4517872Y-16065408D02*
X4527396Y-16074931D01*
X4527396Y-16074931D02*
X4536920Y-16093979D01*
X4536920Y-16093979D02*
X4546444Y-16132074D01*
X4546444Y-16132074D02*
X4546444Y-16179693D01*
X4546444Y-16179693D02*
X4536920Y-16217788D01*
X4536920Y-16217788D02*
X4527396Y-16236836D01*
X4527396Y-16236836D02*
X4517872Y-16246360D01*
X4517872Y-16246360D02*
X4498825Y-16255884D01*
X4498825Y-16255884D02*
X4479777Y-16255884D01*
X4479777Y-16255884D02*
X4460729Y-16246360D01*
X4460729Y-16246360D02*
X4451206Y-16236836D01*
X4451206Y-16236836D02*
X4441682Y-16217788D01*
X4441682Y-16217788D02*
X4432158Y-16179693D01*
X4432158Y-16179693D02*
X4432158Y-16132074D01*
X4432158Y-16132074D02*
X4441682Y-16093979D01*
X4441682Y-16093979D02*
X4451206Y-16074931D01*
X4451206Y-16074931D02*
X4460729Y-16065408D01*
X4460729Y-16065408D02*
X4479777Y-16055884D01*
X4622634Y-16055884D02*
X4622634Y-16093979D01*
X4698825Y-16055884D02*
X4698825Y-16093979D01*
X4994063Y-16332074D02*
X4984539Y-16322550D01*
X4984539Y-16322550D02*
X4965491Y-16293979D01*
X4965491Y-16293979D02*
X4955968Y-16274931D01*
X4955968Y-16274931D02*
X4946444Y-16246360D01*
X4946444Y-16246360D02*
X4936920Y-16198741D01*
X4936920Y-16198741D02*
X4936920Y-16160646D01*
X4936920Y-16160646D02*
X4946444Y-16113027D01*
X4946444Y-16113027D02*
X4955968Y-16084455D01*
X4955968Y-16084455D02*
X4965491Y-16065408D01*
X4965491Y-16065408D02*
X4984539Y-16036836D01*
X4984539Y-16036836D02*
X4994063Y-16027312D01*
X5155968Y-16122550D02*
X5155968Y-16255884D01*
X5108349Y-16046360D02*
X5060730Y-16189217D01*
X5060730Y-16189217D02*
X5184539Y-16189217D01*
X5413111Y-16255884D02*
X5413111Y-16055884D01*
X5498825Y-16255884D02*
X5498825Y-16151122D01*
X5498825Y-16151122D02*
X5489301Y-16132074D01*
X5489301Y-16132074D02*
X5470253Y-16122550D01*
X5470253Y-16122550D02*
X5441682Y-16122550D01*
X5441682Y-16122550D02*
X5422634Y-16132074D01*
X5422634Y-16132074D02*
X5413111Y-16141598D01*
X5622634Y-16255884D02*
X5603587Y-16246360D01*
X5603587Y-16246360D02*
X5594063Y-16236836D01*
X5594063Y-16236836D02*
X5584539Y-16217788D01*
X5584539Y-16217788D02*
X5584539Y-16160646D01*
X5584539Y-16160646D02*
X5594063Y-16141598D01*
X5594063Y-16141598D02*
X5603587Y-16132074D01*
X5603587Y-16132074D02*
X5622634Y-16122550D01*
X5622634Y-16122550D02*
X5651206Y-16122550D01*
X5651206Y-16122550D02*
X5670253Y-16132074D01*
X5670253Y-16132074D02*
X5679777Y-16141598D01*
X5679777Y-16141598D02*
X5689301Y-16160646D01*
X5689301Y-16160646D02*
X5689301Y-16217788D01*
X5689301Y-16217788D02*
X5679777Y-16236836D01*
X5679777Y-16236836D02*
X5670253Y-16246360D01*
X5670253Y-16246360D02*
X5651206Y-16255884D01*
X5651206Y-16255884D02*
X5622634Y-16255884D01*
X5803587Y-16255884D02*
X5784539Y-16246360D01*
X5784539Y-16246360D02*
X5775015Y-16227312D01*
X5775015Y-16227312D02*
X5775015Y-16055884D01*
X5955968Y-16246360D02*
X5936920Y-16255884D01*
X5936920Y-16255884D02*
X5898825Y-16255884D01*
X5898825Y-16255884D02*
X5879777Y-16246360D01*
X5879777Y-16246360D02*
X5870253Y-16227312D01*
X5870253Y-16227312D02*
X5870253Y-16151122D01*
X5870253Y-16151122D02*
X5879777Y-16132074D01*
X5879777Y-16132074D02*
X5898825Y-16122550D01*
X5898825Y-16122550D02*
X5936920Y-16122550D01*
X5936920Y-16122550D02*
X5955968Y-16132074D01*
X5955968Y-16132074D02*
X5965491Y-16151122D01*
X5965491Y-16151122D02*
X5965491Y-16170169D01*
X5965491Y-16170169D02*
X5870253Y-16189217D01*
X6041682Y-16246360D02*
X6060730Y-16255884D01*
X6060730Y-16255884D02*
X6098825Y-16255884D01*
X6098825Y-16255884D02*
X6117872Y-16246360D01*
X6117872Y-16246360D02*
X6127396Y-16227312D01*
X6127396Y-16227312D02*
X6127396Y-16217788D01*
X6127396Y-16217788D02*
X6117872Y-16198741D01*
X6117872Y-16198741D02*
X6098825Y-16189217D01*
X6098825Y-16189217D02*
X6070253Y-16189217D01*
X6070253Y-16189217D02*
X6051206Y-16179693D01*
X6051206Y-16179693D02*
X6041682Y-16160646D01*
X6041682Y-16160646D02*
X6041682Y-16151122D01*
X6041682Y-16151122D02*
X6051206Y-16132074D01*
X6051206Y-16132074D02*
X6070253Y-16122550D01*
X6070253Y-16122550D02*
X6098825Y-16122550D01*
X6098825Y-16122550D02*
X6117872Y-16132074D01*
X6194063Y-16332074D02*
X6203587Y-16322550D01*
X6203587Y-16322550D02*
X6222634Y-16293979D01*
X6222634Y-16293979D02*
X6232158Y-16274931D01*
X6232158Y-16274931D02*
X6241682Y-16246360D01*
X6241682Y-16246360D02*
X6251206Y-16198741D01*
X6251206Y-16198741D02*
X6251206Y-16160646D01*
X6251206Y-16160646D02*
X6241682Y-16113027D01*
X6241682Y-16113027D02*
X6232158Y-16084455D01*
X6232158Y-16084455D02*
X6222634Y-16065408D01*
X6222634Y-16065408D02*
X6203587Y-16036836D01*
X6203587Y-16036836D02*
X6194063Y-16027312D01*
X6555968Y-16332074D02*
X6546444Y-16322550D01*
X6546444Y-16322550D02*
X6527396Y-16293979D01*
X6527396Y-16293979D02*
X6517872Y-16274931D01*
X6517872Y-16274931D02*
X6508349Y-16246360D01*
X6508349Y-16246360D02*
X6498825Y-16198741D01*
X6498825Y-16198741D02*
X6498825Y-16160646D01*
X6498825Y-16160646D02*
X6508349Y-16113027D01*
X6508349Y-16113027D02*
X6517872Y-16084455D01*
X6517872Y-16084455D02*
X6527396Y-16065408D01*
X6527396Y-16065408D02*
X6546444Y-16036836D01*
X6546444Y-16036836D02*
X6555968Y-16027312D01*
X6632158Y-16122550D02*
X6632158Y-16255884D01*
X6632158Y-16141598D02*
X6641682Y-16132074D01*
X6641682Y-16132074D02*
X6660730Y-16122550D01*
X6660730Y-16122550D02*
X6689301Y-16122550D01*
X6689301Y-16122550D02*
X6708349Y-16132074D01*
X6708349Y-16132074D02*
X6717872Y-16151122D01*
X6717872Y-16151122D02*
X6717872Y-16255884D01*
X6841682Y-16255884D02*
X6822634Y-16246360D01*
X6822634Y-16246360D02*
X6813111Y-16236836D01*
X6813111Y-16236836D02*
X6803587Y-16217788D01*
X6803587Y-16217788D02*
X6803587Y-16160646D01*
X6803587Y-16160646D02*
X6813111Y-16141598D01*
X6813111Y-16141598D02*
X6822634Y-16132074D01*
X6822634Y-16132074D02*
X6841682Y-16122550D01*
X6841682Y-16122550D02*
X6870253Y-16122550D01*
X6870253Y-16122550D02*
X6889301Y-16132074D01*
X6889301Y-16132074D02*
X6898825Y-16141598D01*
X6898825Y-16141598D02*
X6908349Y-16160646D01*
X6908349Y-16160646D02*
X6908349Y-16217788D01*
X6908349Y-16217788D02*
X6898825Y-16236836D01*
X6898825Y-16236836D02*
X6889301Y-16246360D01*
X6889301Y-16246360D02*
X6870253Y-16255884D01*
X6870253Y-16255884D02*
X6841682Y-16255884D01*
X6965492Y-16122550D02*
X7041682Y-16122550D01*
X6994063Y-16055884D02*
X6994063Y-16227312D01*
X6994063Y-16227312D02*
X7003587Y-16246360D01*
X7003587Y-16246360D02*
X7022634Y-16255884D01*
X7022634Y-16255884D02*
X7041682Y-16255884D01*
X7260730Y-16122550D02*
X7260730Y-16322550D01*
X7260730Y-16132074D02*
X7279777Y-16122550D01*
X7279777Y-16122550D02*
X7317873Y-16122550D01*
X7317873Y-16122550D02*
X7336920Y-16132074D01*
X7336920Y-16132074D02*
X7346444Y-16141598D01*
X7346444Y-16141598D02*
X7355968Y-16160646D01*
X7355968Y-16160646D02*
X7355968Y-16217788D01*
X7355968Y-16217788D02*
X7346444Y-16236836D01*
X7346444Y-16236836D02*
X7336920Y-16246360D01*
X7336920Y-16246360D02*
X7317873Y-16255884D01*
X7317873Y-16255884D02*
X7279777Y-16255884D01*
X7279777Y-16255884D02*
X7260730Y-16246360D01*
X7470253Y-16255884D02*
X7451206Y-16246360D01*
X7451206Y-16246360D02*
X7441682Y-16227312D01*
X7441682Y-16227312D02*
X7441682Y-16055884D01*
X7632158Y-16255884D02*
X7632158Y-16151122D01*
X7632158Y-16151122D02*
X7622634Y-16132074D01*
X7622634Y-16132074D02*
X7603587Y-16122550D01*
X7603587Y-16122550D02*
X7565492Y-16122550D01*
X7565492Y-16122550D02*
X7546444Y-16132074D01*
X7632158Y-16246360D02*
X7613111Y-16255884D01*
X7613111Y-16255884D02*
X7565492Y-16255884D01*
X7565492Y-16255884D02*
X7546444Y-16246360D01*
X7546444Y-16246360D02*
X7536920Y-16227312D01*
X7536920Y-16227312D02*
X7536920Y-16208265D01*
X7536920Y-16208265D02*
X7546444Y-16189217D01*
X7546444Y-16189217D02*
X7565492Y-16179693D01*
X7565492Y-16179693D02*
X7613111Y-16179693D01*
X7613111Y-16179693D02*
X7632158Y-16170169D01*
X7698825Y-16122550D02*
X7775015Y-16122550D01*
X7727396Y-16055884D02*
X7727396Y-16227312D01*
X7727396Y-16227312D02*
X7736920Y-16246360D01*
X7736920Y-16246360D02*
X7755968Y-16255884D01*
X7755968Y-16255884D02*
X7775015Y-16255884D01*
X7917873Y-16246360D02*
X7898825Y-16255884D01*
X7898825Y-16255884D02*
X7860730Y-16255884D01*
X7860730Y-16255884D02*
X7841682Y-16246360D01*
X7841682Y-16246360D02*
X7832158Y-16227312D01*
X7832158Y-16227312D02*
X7832158Y-16151122D01*
X7832158Y-16151122D02*
X7841682Y-16132074D01*
X7841682Y-16132074D02*
X7860730Y-16122550D01*
X7860730Y-16122550D02*
X7898825Y-16122550D01*
X7898825Y-16122550D02*
X7917873Y-16132074D01*
X7917873Y-16132074D02*
X7927396Y-16151122D01*
X7927396Y-16151122D02*
X7927396Y-16170169D01*
X7927396Y-16170169D02*
X7832158Y-16189217D01*
X8098825Y-16255884D02*
X8098825Y-16055884D01*
X8098825Y-16246360D02*
X8079777Y-16255884D01*
X8079777Y-16255884D02*
X8041682Y-16255884D01*
X8041682Y-16255884D02*
X8022634Y-16246360D01*
X8022634Y-16246360D02*
X8013111Y-16236836D01*
X8013111Y-16236836D02*
X8003587Y-16217788D01*
X8003587Y-16217788D02*
X8003587Y-16160646D01*
X8003587Y-16160646D02*
X8013111Y-16141598D01*
X8013111Y-16141598D02*
X8022634Y-16132074D01*
X8022634Y-16132074D02*
X8041682Y-16122550D01*
X8041682Y-16122550D02*
X8079777Y-16122550D01*
X8079777Y-16122550D02*
X8098825Y-16132074D01*
X8175015Y-16332074D02*
X8184539Y-16322550D01*
X8184539Y-16322550D02*
X8203587Y-16293979D01*
X8203587Y-16293979D02*
X8213111Y-16274931D01*
X8213111Y-16274931D02*
X8222634Y-16246360D01*
X8222634Y-16246360D02*
X8232158Y-16198741D01*
X8232158Y-16198741D02*
X8232158Y-16160646D01*
X8232158Y-16160646D02*
X8222634Y-16113027D01*
X8222634Y-16113027D02*
X8213111Y-16084455D01*
X8213111Y-16084455D02*
X8203587Y-16065408D01*
X8203587Y-16065408D02*
X8184539Y-16036836D01*
X8184539Y-16036836D02*
X8175015Y-16027312D01*
M02*
