M48
; DRILL file {KiCad 8.0.9-8.0.9-0~ubuntu24.04.1} date 2025-09-11T09:49:26+0200
; FORMAT={-:-/ absolute / metric / decimal}
; #@! TF.CreationDate,2025-09-11T09:49:26+02:00
; #@! TF.GenerationSoftware,Kicad,Pcbnew,8.0.9-8.0.9-0~ubuntu24.04.1
; #@! TF.FileFunction,Plated,1,2,PTH
FMAT,2
METRIC
; #@! TA.AperFunction,Plated,PTH,ViaDrill
T1C0.400
; #@! TA.AperFunction,Plated,PTH,ComponentDrill
T2C0.700
; #@! TA.AperFunction,Plated,PTH,ComponentDrill
T3C0.800
; #@! TA.AperFunction,Plated,PTH,ComponentDrill
T4C0.900
; #@! TA.AperFunction,Plated,PTH,ComponentDrill
T5C1.000
; #@! TA.AperFunction,Plated,PTH,ComponentDrill
T6C1.100
; #@! TA.AperFunction,Plated,PTH,ComponentDrill
T7C1.110
; #@! TA.AperFunction,Plated,PTH,ComponentDrill
T8C1.200
; #@! TA.AperFunction,Plated,PTH,ComponentDrill
T9C1.300
; #@! TA.AperFunction,Plated,PTH,ComponentDrill
T10C1.520
; #@! TA.AperFunction,Plated,PTH,ComponentDrill
T11C2.500
; #@! TA.AperFunction,Plated,PTH,ComponentDrill
T12C3.200
%
G90
G05
T1
X39.116Y-71.628
X40.64Y-74.676
X46.482Y-68.58
X50.038Y-70.612
X50.038Y-139.827
X50.292Y-64.516
X54.356Y-64.516
X62.992Y-79.502
X76.962Y-62.23
X106.172Y-62.23
X109.3Y-58.17
X116.43Y-141.38
X116.586Y-58.928
X118.89Y-68.66
X127.0Y-63.5
X129.74Y-72.19
X131.0Y-70.0
X132.0Y-104.0
X137.0Y-100.0
X138.43Y-74.93
X139.43Y-133.38
X144.0Y-139.0
X169.142Y-74.858
X183.0Y-75.0
X183.896Y-125.984
X198.12Y-111.76
X207.46Y-92.54
X209.296Y-94.742
X215.138Y-110.998
X218.105Y-109.185
X220.0Y-97.0
X222.997Y-82.955
X225.806Y-82.804
X227.966Y-82.955
X232.41Y-107.95
X234.0Y-83.0
X238.506Y-107.696
X241.0Y-92.0
X242.0Y-111.0
X246.634Y-65.024
X248.92Y-60.198
T2
X118.11Y-112.014
X120.65Y-96.774
X120.65Y-112.014
X123.19Y-96.774
X123.19Y-112.014
X138.43Y-96.774
X138.43Y-112.014
X143.51Y-96.774
X143.51Y-112.014
X174.752Y-67.564
X174.752Y-72.644
X174.752Y-87.884
X174.752Y-90.424
X189.992Y-67.564
X189.992Y-72.644
X189.992Y-87.884
X189.992Y-90.424
X189.992Y-92.964
T3
X29.22Y-148.748
X29.464Y-78.73
X29.464Y-83.73
X29.972Y-67.818
X29.972Y-70.358
X29.972Y-72.898
X29.972Y-75.438
X31.76Y-151.287
X34.3Y-148.748
X34.788Y-79.278
X34.788Y-81.778
X35.56Y-151.13
X37.592Y-67.818
X37.592Y-70.358
X37.592Y-72.898
X37.592Y-75.438
X41.178Y-60.014
X41.178Y-65.014
X41.236Y-70.866
X43.18Y-151.13
X43.736Y-70.866
X45.212Y-75.438
X45.212Y-78.994
X45.72Y-58.928
X45.72Y-66.548
X46.522Y-54.864
X47.0Y-148.7
X48.245Y-69.86
X48.26Y-58.928
X48.26Y-66.548
X49.54Y-151.24
X50.8Y-58.928
X50.8Y-66.548
X51.522Y-54.864
X52.08Y-148.7
X52.832Y-75.438
X52.832Y-78.994
X53.34Y-58.928
X53.34Y-66.548
X53.34Y-151.13
X55.865Y-69.86
X55.88Y-58.928
X55.88Y-66.548
X56.682Y-82.55
X56.73Y-53.086
X58.206Y-77.47
X58.42Y-58.928
X58.42Y-66.548
X59.23Y-53.086
X60.706Y-77.47
X60.96Y-58.928
X60.96Y-66.548
X60.96Y-151.13
X61.682Y-82.55
X63.5Y-58.928
X63.5Y-66.548
X65.034Y-73.67
X65.034Y-76.21
X65.034Y-78.75
X65.034Y-81.29
X66.548Y-56.976
X66.548Y-61.976
X69.86Y-149.01
X70.564Y-61.468
X71.12Y-111.506
X72.4Y-151.55
X72.654Y-73.67
X72.654Y-76.21
X72.654Y-78.75
X72.654Y-81.29
X73.064Y-61.468
X73.66Y-96.266
X73.66Y-111.506
X74.94Y-149.01
X75.82Y-76.708
X75.946Y-73.66
X76.2Y-96.266
X76.2Y-111.506
X76.2Y-151.13
X78.066Y-81.788
X80.566Y-81.788
X80.82Y-76.708
X83.566Y-73.66
X83.82Y-151.13
X84.074Y-69.85
X84.328Y-78.74
X84.328Y-86.36
X86.106Y-73.66
X86.37Y-149.01
X86.4Y-56.134
X86.604Y-59.192
X86.604Y-66.812
X86.614Y-69.85
X87.964Y-85.344
X88.91Y-151.55
X89.144Y-59.192
X89.144Y-66.812
X89.154Y-69.85
X89.242Y-80.264
X89.916Y-90.932
X91.4Y-56.134
X91.44Y-96.266
X91.44Y-111.506
X91.45Y-149.01
X91.684Y-59.192
X91.684Y-66.812
X91.694Y-69.85
X91.742Y-80.264
X92.964Y-85.344
X93.726Y-73.66
X93.98Y-151.5
X94.224Y-59.192
X94.224Y-66.812
X94.234Y-69.85
X95.25Y-53.848
X96.52Y-96.266
X96.52Y-111.506
X96.764Y-59.192
X96.764Y-66.812
X96.774Y-69.85
X97.292Y-79.258
X97.292Y-81.798
X97.292Y-84.338
X97.292Y-86.878
X97.536Y-90.932
X97.75Y-53.848
X99.304Y-59.192
X99.304Y-66.812
X99.314Y-69.85
X101.6Y-151.5
X101.844Y-59.192
X101.844Y-66.812
X101.854Y-69.85
X104.384Y-59.192
X104.384Y-66.812
X104.394Y-69.85
X104.912Y-79.258
X104.912Y-81.798
X104.912Y-84.338
X104.912Y-86.878
X105.654Y-89.926
X105.654Y-97.546
X106.924Y-59.192
X106.924Y-66.812
X107.99Y-76.454
X108.194Y-89.926
X108.194Y-97.546
X108.458Y-100.584
X108.458Y-105.584
X108.612Y-72.644
X108.752Y-86.614
X109.26Y-81.534
X110.734Y-89.926
X110.734Y-97.546
X111.76Y-81.534
X112.99Y-76.454
X113.274Y-89.926
X113.274Y-97.546
X113.752Y-86.614
X116.232Y-72.644
X116.84Y-79.756
X116.84Y-87.376
X151.638Y-131.572
X151.638Y-139.192
X156.718Y-131.572
X156.718Y-139.192
X183.388Y-135.89
X185.928Y-138.43
X187.706Y-142.494
X188.468Y-135.89
X195.326Y-142.494
X205.74Y-95.25
X207.02Y-68.16
X209.19Y-74.0
X209.5Y-89.0
X209.56Y-70.7
X211.5Y-82.0
X212.0Y-89.0
X212.1Y-68.16
X213.36Y-95.25
X216.5Y-82.0
X216.81Y-74.0
X216.85Y-85.18
X216.85Y-92.8
X218.44Y-96.52
X219.39Y-85.18
X219.39Y-92.8
X221.93Y-85.18
X221.93Y-92.8
X223.0Y-116.0
X223.0Y-123.62
X224.47Y-85.18
X224.47Y-92.8
X226.06Y-96.52
X227.01Y-85.18
X227.01Y-92.8
X229.0Y-116.0
X229.0Y-123.62
X229.55Y-85.18
X229.55Y-92.8
X231.15Y-68.16
X232.09Y-85.18
X232.09Y-92.8
X232.41Y-73.66
X233.69Y-70.7
X234.63Y-85.18
X234.63Y-92.8
X236.23Y-68.16
X237.17Y-85.18
X237.17Y-92.8
X240.03Y-73.66
X241.0Y-116.19
X241.0Y-123.81
T4
X223.0Y-127.46
X223.0Y-130.0
X229.0Y-127.46
X229.0Y-130.0
X241.0Y-127.46
X241.0Y-130.0
T5
X25.654Y-61.722
X26.162Y-77.978
X119.43Y-119.38
X119.43Y-134.38
X119.475Y-126.395
X119.475Y-128.935
X125.73Y-53.857
X125.73Y-56.398
X128.27Y-53.857
X128.27Y-56.398
X130.81Y-53.857
X130.81Y-56.398
X138.43Y-119.38
X138.43Y-142.38
X140.97Y-119.38
X140.97Y-142.38
X141.0Y-70.63
X141.0Y-73.17
X141.0Y-75.71
X141.0Y-78.25
X143.51Y-119.38
X143.51Y-142.38
X146.05Y-119.38
X146.05Y-142.38
X146.125Y-62.0
X146.125Y-85.0
X148.59Y-119.38
X148.59Y-142.38
X148.665Y-62.0
X148.665Y-85.0
X151.13Y-119.38
X151.13Y-142.38
X151.205Y-62.0
X151.205Y-85.0
X153.67Y-119.38
X153.67Y-142.38
X153.745Y-62.0
X153.745Y-85.0
X156.21Y-119.38
X156.21Y-142.38
X156.285Y-62.0
X156.285Y-85.0
X158.825Y-62.0
X158.825Y-85.0
X160.782Y-140.97
X161.365Y-62.0
X161.365Y-85.0
X163.905Y-62.0
X163.905Y-85.0
X177.0Y-141.0
X204.475Y-128.27
X207.015Y-128.27
X207.02Y-144.78
X209.555Y-128.27
X209.56Y-144.78
X212.095Y-128.27
X212.1Y-144.78
X213.56Y-103.397
X213.56Y-105.938
X214.635Y-128.27
X214.64Y-144.78
X216.1Y-103.397
X216.1Y-105.938
X218.64Y-103.397
X218.64Y-105.938
X239.776Y-54.351
X239.776Y-56.891
X239.776Y-59.431
X239.776Y-61.971
X239.776Y-64.511
X246.5Y-95.9
X246.5Y-98.44
X246.5Y-100.98
X246.5Y-103.52
X246.5Y-106.06
X246.5Y-108.6
X246.5Y-111.14
X246.5Y-113.68
X246.5Y-116.22
X246.5Y-118.76
X246.5Y-121.3
X246.5Y-123.84
X246.5Y-126.38
X246.5Y-128.92
X246.5Y-131.46
X246.5Y-134.0
X246.5Y-136.54
X246.5Y-139.08
X246.5Y-141.62
X246.5Y-144.16
X248.402Y-76.205
X248.402Y-78.745
X248.402Y-81.285
X249.04Y-95.9
X249.04Y-98.44
X249.04Y-100.98
X249.04Y-103.52
X249.04Y-106.06
X249.04Y-108.6
X249.04Y-111.14
X249.04Y-113.68
X249.04Y-116.22
X249.04Y-118.76
X249.04Y-121.3
X249.04Y-123.84
X249.04Y-126.38
X249.04Y-128.92
X249.04Y-131.46
X249.04Y-134.0
X249.04Y-136.54
X249.04Y-139.08
X249.04Y-141.62
X249.04Y-144.16
X250.942Y-76.205
X250.942Y-78.745
X250.942Y-81.285
X256.286Y-54.356
X256.286Y-56.896
X256.286Y-59.436
X256.286Y-61.976
T6
X30.48Y-144.517
X40.64Y-144.517
X46.99Y-144.78
X57.15Y-144.78
X71.12Y-144.78
X81.28Y-144.78
X87.63Y-144.78
X97.79Y-144.78
X146.812Y-127.254
X146.812Y-137.414
X197.92Y-61.0
X208.08Y-61.0
X220.92Y-61.0
X231.08Y-61.0
T7
X122.6Y-64.516
X122.6Y-67.056
X122.6Y-69.596
X122.6Y-72.136
X122.6Y-74.676
X122.6Y-77.216
X122.6Y-79.756
X122.6Y-82.296
X122.6Y-84.836
X122.6Y-87.376
X180.848Y-103.632
X180.848Y-106.172
X180.848Y-108.712
X180.848Y-111.252
X180.848Y-113.792
X180.848Y-116.332
X180.848Y-118.872
X180.848Y-121.412
X180.848Y-123.952
X180.848Y-126.492
T8
X106.43Y-120.22
X106.43Y-140.54
T9
X21.285Y-132.075
X21.285Y-137.155
X21.59Y-67.31
X21.59Y-72.39
X29.56Y-123.968
X29.56Y-136.167
X35.56Y-138.167
X41.56Y-123.968
X41.56Y-136.167
X47.34Y-123.968
X47.34Y-136.167
X53.34Y-138.167
X59.34Y-123.968
X59.34Y-136.167
X63.0Y-102.0
X63.0Y-107.08
X70.2Y-123.968
X70.2Y-136.167
X76.2Y-138.167
X82.2Y-123.968
X82.2Y-136.167
X87.98Y-123.968
X87.98Y-136.167
X93.98Y-138.167
X99.98Y-123.968
X99.98Y-136.167
X162.56Y-117.856
X162.56Y-130.056
X166.465Y-141.0
X168.56Y-132.056
X171.545Y-141.0
X174.56Y-117.856
X174.56Y-130.056
X187.695Y-43.465
X187.695Y-48.545
X199.0Y-40.8
X199.0Y-53.0
X205.0Y-55.0
X211.0Y-40.8
X211.0Y-53.0
X222.0Y-40.8
X222.0Y-53.0
X228.0Y-55.0
X234.0Y-40.8
X234.0Y-53.0
X253.305Y-43.465
X253.305Y-48.545
T10
X105.156Y-51.054
X110.236Y-51.054
X115.316Y-51.054
T11
X135.046Y-64.516
X135.046Y-87.376
X193.294Y-103.632
X193.294Y-126.492
T12
X21.336Y-53.34
X21.59Y-149.098
X51.816Y-104.394
X130.81Y-129.286
X171.48Y-37.69
M30
