<?xml version='1.0' encoding='UTF-8' standalone='no'?>
<!-- Created with Fritzing (https://fritzing.org/) -->
<svg xmlns="http://www.w3.org/2000/svg" y="0in" version="1.2" baseProfile="tiny" viewBox="0 0 138.72 203.331"  width="1.92667in" x="0in" height="2.82404in" xmlns:svg="http://www.w3.org/2000/svg">
 <g transform="matrix(-1, 0, 0, 1, 138.72, 0)">
  <g partID="862276820">
   <g id="board" >
    <rect y="0.288" stroke="black" id="boardoutline"  fill="none" stroke-width="0.5" width="138.144" fill-opacity="0.5" height="202.755" x="0.288"/>
   </g>
  </g>
  <g partID="862277960">
   <g transform="translate(103.215,93.1111)">
    <g id="groundplane" >
     <polygon stroke="none"  fill="black" stroke-width="0" points="0,0,3.096,0,3.096,2.304,0,2.304"/>
    </g>
   </g>
  </g>
  <g partID="862380340">
   <g transform="translate(100.722,0.599041)">
    <g id="copper0" >
     <rect y="6.15401" stroke="black" id="square"  fill="none" stroke-width="1.44" width="5.69197" height="5.69197" x="11.554"/>
     <circle stroke="black" id="connector0pin" cy="9"  fill="none" cx="14.4" stroke-width="1.44" r="2.84599"/>
     <circle stroke="black" id="connector1pin" cy="23.4"  fill="none" cx="14.4" stroke-width="1.44" r="2.84599"/>
     <circle stroke="black" id="connector2pin" cy="37.8"  fill="none" cx="14.4" stroke-width="1.44" r="2.84599"/>
     <circle stroke="black" id="connector3pin" cy="52.2"  fill="none" cx="14.4" stroke-width="1.44" r="2.84599"/>
     <circle stroke="black" id="connector4pin" cy="66.6"  fill="none" cx="14.4" stroke-width="1.44" r="2.84599"/>
     <circle stroke="black" id="connector5pin" cy="81"  fill="none" cx="14.4" stroke-width="1.44" r="2.84599"/>
     <circle stroke="black" id="connector6pin" cy="95.4"  fill="none" cx="14.4" stroke-width="1.44" r="2.84599"/>
     <circle stroke="black" id="connector7pin" cy="109.8"  fill="none" cx="14.4" stroke-width="1.44" r="2.84599"/>
    </g>
   </g>
  </g>
  <g partID="862380320">
   <g transform="translate(37.3952,119.229)">
    <g transform="matrix(-1,0,0,-1,0,0)">
     <g id="copper0" >
      <rect y="6.15401" stroke="black" id="square"  fill="none" stroke-width="1.44" width="5.69197" height="5.69197" x="11.554"/>
      <circle stroke="black" id="connector0pin" cy="9"  fill="none" cx="14.4" stroke-width="1.44" r="2.84599"/>
      <circle stroke="black" id="connector1pin" cy="23.4"  fill="none" cx="14.4" stroke-width="1.44" r="2.84599"/>
      <circle stroke="black" id="connector2pin" cy="37.8"  fill="none" cx="14.4" stroke-width="1.44" r="2.84599"/>
      <circle stroke="black" id="connector3pin" cy="52.2"  fill="none" cx="14.4" stroke-width="1.44" r="2.84599"/>
      <circle stroke="black" id="connector4pin" cy="66.6"  fill="none" cx="14.4" stroke-width="1.44" r="2.84599"/>
      <circle stroke="black" id="connector5pin" cy="81"  fill="none" cx="14.4" stroke-width="1.44" r="2.84599"/>
      <circle stroke="black" id="connector6pin" cy="95.4"  fill="none" cx="14.4" stroke-width="1.44" r="2.84599"/>
      <circle stroke="black" id="connector7pin" cy="109.8"  fill="none" cx="14.4" stroke-width="1.44" r="2.84599"/>
     </g>
    </g>
   </g>
  </g>
  <g partID="862380360">
   <g transform="translate(82.924,199.574)">
    <g transform="matrix(-1,0,0,-1,0,0)">
     <g id="copper0" >
      <g id="copper1" >
       <rect y="11.9481" stroke="black" id="square"  fill="none" stroke-width="1.44" width="4.55811" x="6.51215" height="4.55811" r="285"/>
       <circle stroke="black" id="connector15pin" cy="14.2272"  fill="none" cx="15.9912" stroke-width="1.44" r="2.27905"/>
       <circle stroke="black" id="connector14pin" cy="21.4272"  fill="none" cx="15.9912" stroke-width="1.44" r="2.27905"/>
       <circle stroke="black" id="connector13pin" cy="28.6272"  fill="none" cx="15.9912" stroke-width="1.44" r="2.27905"/>
       <circle stroke="black" id="connector12pin" cy="35.8272"  fill="none" cx="15.9912" stroke-width="1.44" r="2.27905"/>
       <circle stroke="black" id="connector11pin" cy="43.0272"  fill="none" cx="15.9912" stroke-width="1.44" r="2.27905"/>
       <circle stroke="black" id="connector10pin" cy="50.2272"  fill="none" cx="15.9912" stroke-width="1.44" r="2.27905"/>
       <circle stroke="black" id="connector9pin" cy="57.4272"  fill="none" cx="15.9912" stroke-width="1.44" r="2.27905"/>
       <circle stroke="black" id="connector8pin" cy="64.6272"  fill="none" cx="15.9912" stroke-width="1.44" r="2.27905"/>
       <circle stroke="black" id="connector0pin" cy="14.2272"  fill="none" cx="8.7912" stroke-width="1.44" r="2.27905"/>
       <circle stroke="black" id="connector1pin" cy="21.4272"  fill="none" cx="8.7912" stroke-width="1.44" r="2.27905"/>
       <circle stroke="black" id="connector2pin" cy="28.6272"  fill="none" cx="8.7912" stroke-width="1.44" r="2.27905"/>
       <circle stroke="black" id="connector3pin" cy="35.8272"  fill="none" cx="8.7912" stroke-width="1.44" r="2.27905"/>
       <circle stroke="black" id="connector4pin" cy="43.0272"  fill="none" cx="8.7912" stroke-width="1.44" r="2.27905"/>
       <circle stroke="black" id="connector5pin" cy="50.2272"  fill="none" cx="8.7912" stroke-width="1.44" r="2.27905"/>
       <circle stroke="black" id="connector6pin" cy="57.4272"  fill="none" cx="8.7912" stroke-width="1.44" r="2.27905"/>
       <circle stroke="black" id="connector7pin" cy="64.6272"  fill="none" cx="8.7912" stroke-width="1.44" r="2.27905"/>
      </g>
     </g>
    </g>
   </g>
  </g>
  <g partID="862383900">
   <line stroke="black" x1="57.072" y1="134.318" stroke-width="1.728" y2="25.1415" stroke-linecap="round" x2="55.6598"/>
  </g>
  <g partID="862382550">
   <line stroke="black" x1="55.6592" y1="25.1412" stroke-width="1.728" y2="10.3505" stroke-linecap="round" x2="24.9109"/>
  </g>
  <g partID="862385610">
   <line stroke="black" x1="64.024" y1="134.318" stroke-width="1.728" y2="134.318" stroke-linecap="round" x2="57.0719"/>
  </g>
  <g partID="862382480">
   <line stroke="black" x1="65.409" y1="134.617" stroke-width="1.728" y2="134.318" stroke-linecap="round" x2="64.0243"/>
  </g>
  <g partID="862382010">
   <line stroke="black" x1="24.8964" y1="24.7803" stroke-width="1.728" y2="38.0009" stroke-linecap="round" x2="51.3166"/>
  </g>
  <g partID="862382080">
   <line stroke="black" x1="51.3168" y1="38.001" stroke-width="1.728" y2="141.431" stroke-linecap="round" x2="52.7064"/>
  </g>
  <g partID="862383830">
   <line stroke="black" x1="52.7064" y1="141.431" stroke-width="1.728" y2="141.431" stroke-linecap="round" x2="64.0238"/>
  </g>
  <g partID="862385460">
   <line stroke="black" x1="64.024" y1="141.431" stroke-width="1.728" y2="141.774" stroke-linecap="round" x2="65.4186"/>
  </g>
  <g partID="862381800">
   <line stroke="black" x1="24.8853" y1="39.2023" stroke-width="1.728" y2="50.6613" stroke-linecap="round" x2="47.1363"/>
  </g>
  <g partID="862381870">
   <line stroke="black" x1="47.1368" y1="50.6613" stroke-width="1.728" y2="148.558" stroke-linecap="round" x2="48.4894"/>
  </g>
  <g partID="862381940">
   <line stroke="black" x1="48.4888" y1="148.558" stroke-width="1.728" y2="148.558" stroke-linecap="round" x2="64.1546"/>
  </g>
  <g partID="862386730">
   <line stroke="black" x1="64.1552" y1="148.558" stroke-width="1.728" y2="148.921" stroke-linecap="round" x2="65.4328"/>
  </g>
  <g partID="862385820">
   <line stroke="black" x1="83.8864" y1="25.1689" stroke-width="1.728" y2="134.223" stroke-linecap="round" x2="83.8864"/>
  </g>
  <g partID="862385750">
   <line stroke="black" x1="83.8864" y1="134.223" stroke-width="1.728" y2="134.365" stroke-linecap="round" x2="76.8634"/>
  </g>
  <g partID="862385680">
   <line stroke="black" x1="113.219" y1="10.5475" stroke-width="1.728" y2="25.1689" stroke-linecap="round" x2="83.8865"/>
  </g>
  <g partID="862385890">
   <line stroke="black" x1="76.8632" y1="134.366" stroke-width="1.728" y2="134.622" stroke-linecap="round" x2="75.6572"/>
  </g>
  <g partID="862381730">
   <line stroke="black" x1="44.1936" y1="156.968" stroke-width="1.728" y2="62.0647" stroke-linecap="round" x2="42.8986"/>
  </g>
  <g partID="862381660">
   <line stroke="black" x1="42.8984" y1="62.0647" stroke-width="1.728" y2="53.5397" stroke-linecap="round" x2="24.9162"/>
  </g>
  <g partID="862385130">
   <line stroke="black" x1="62.6656" y1="156.968" stroke-width="1.728" y2="156.968" stroke-linecap="round" x2="44.1937"/>
  </g>
  <g partID="862381590">
   <line stroke="black" x1="65.3813" y1="156.7" stroke-width="1.728" y2="156.968" stroke-linecap="round" x2="62.6659"/>
  </g>
  <g partID="862381430">
   <line stroke="black" x1="38.5824" y1="73.3953" stroke-width="1.728" y2="164.053" stroke-linecap="round" x2="38.627"/>
  </g>
  <g partID="862383620">
   <line stroke="black" x1="38.6264" y1="164.053" stroke-width="1.728" y2="163.764" stroke-linecap="round" x2="65.3731"/>
  </g>
  <g partID="862381360">
   <line stroke="black" x1="24.9633" y1="67.8328" stroke-width="1.728" y2="73.3954" stroke-linecap="round" x2="38.582"/>
  </g>
  <g partID="862381220">
   <line stroke="black" x1="34.3096" y1="171.158" stroke-width="1.728" y2="86.1647" stroke-linecap="round" x2="34.266"/>
  </g>
  <g partID="862381290">
   <line stroke="black" x1="34.2656" y1="86.1647" stroke-width="1.728" y2="82.2524" stroke-linecap="round" x2="24.9553"/>
  </g>
  <g partID="862384990">
   <line stroke="black" x1="62.6656" y1="171.138" stroke-width="1.728" y2="171.157" stroke-linecap="round" x2="34.3094"/>
  </g>
  <g partID="862381150">
   <line stroke="black" x1="65.3753" y1="171.017" stroke-width="1.728" y2="171.138" stroke-linecap="round" x2="62.6659"/>
  </g>
  <g partID="862381010">
   <line stroke="black" x1="30.0632" y1="96.0271" stroke-width="1.728" y2="179.588" stroke-linecap="round" x2="30.1176"/>
  </g>
  <g partID="862381080">
   <line stroke="black" x1="30.1176" y1="179.588" stroke-width="1.728" y2="179.614" stroke-linecap="round" x2="64.0571"/>
  </g>
  <g partID="862380450">
   <line stroke="black" x1="25.1204" y1="95.8883" stroke-width="1.728" y2="96.0268" stroke-linecap="round" x2="30.0631"/>
  </g>
  <g partID="862385060">
   <line stroke="black" x1="64.0576" y1="179.614" stroke-width="1.728" y2="178.856" stroke-linecap="round" x2="65.5441"/>
  </g>
  <g partID="862380380">
   <line stroke="black" x1="22.9959" y1="112.355" stroke-width="1.728" y2="185.406" stroke-linecap="round" x2="23.0209"/>
  </g>
  <g partID="862380940">
   <line stroke="black" x1="23.0208" y1="185.406" stroke-width="1.728" y2="185.349" stroke-linecap="round" x2="65.373"/>
  </g>
  <g partID="862387430">
   <line stroke="black" x1="115.119" y1="112.525" stroke-width="1.728" y2="185.36" stroke-linecap="round" x2="115.013"/>
  </g>
  <g partID="862387500">
   <line stroke="black" x1="115.013" y1="185.36" stroke-width="1.728" y2="185.347" stroke-linecap="round" x2="75.6916"/>
  </g>
  <g partID="862387290">
   <line stroke="black" x1="106.729" y1="178.195" stroke-width="1.728" y2="96.0263" stroke-linecap="round" x2="108.072"/>
  </g>
  <g partID="862387360">
   <line stroke="black" x1="108.072" y1="96.0263" stroke-width="1.728" y2="96.0073" stroke-linecap="round" x2="112.995"/>
  </g>
  <g partID="862387220">
   <line stroke="black" x1="75.6919" y1="178.149" stroke-width="1.728" y2="178.195" stroke-linecap="round" x2="106.729"/>
  </g>
  <g partID="862387080">
   <line stroke="black" x1="102.474" y1="171.254" stroke-width="1.728" y2="87.5175" stroke-linecap="round" x2="103.818"/>
  </g>
  <g partID="862387150">
   <line stroke="black" x1="103.818" y1="87.5183" stroke-width="1.728" y2="82.5853" stroke-linecap="round" x2="113.238"/>
  </g>
  <g partID="862387010">
   <line stroke="black" x1="75.6918" y1="170.964" stroke-width="1.728" y2="171.255" stroke-linecap="round" x2="102.475"/>
  </g>
  <g partID="862386030">
   <path stroke="black" d="M88.1528,37.9734C88.1528,37.9734, 88.1528,141.314 88.1528,141.314" fill="none" stroke-width="1.728" stroke-linecap="round"/>
  </g>
  <g partID="862386100">
   <line stroke="black" x1="88.1528" y1="141.314" stroke-width="1.728" y2="142.054" stroke-linecap="round" x2="75.6885"/>
  </g>
  <g partID="862385960">
   <line stroke="black" x1="113.234" y1="24.9771" stroke-width="1.728" y2="37.9734" stroke-linecap="round" x2="88.1533"/>
  </g>
  <g partID="862386240">
   <line stroke="black" x1="92.3848" y1="49.3266" stroke-width="1.728" y2="148.431" stroke-linecap="round" x2="92.3883"/>
  </g>
  <g partID="862386310">
   <line stroke="black" x1="92.3888" y1="148.432" stroke-width="1.728" y2="148.559" stroke-linecap="round" x2="78.2887"/>
  </g>
  <g partID="862386170">
   <line stroke="black" x1="113.205" y1="39.32" stroke-width="1.728" y2="49.3266" stroke-linecap="round" x2="92.3852"/>
  </g>
  <g partID="862386660">
   <line stroke="black" x1="78.288" y1="148.558" stroke-width="1.728" y2="149.056" stroke-linecap="round" x2="75.6638"/>
  </g>
  <g partID="862386450">
   <line stroke="black" x1="96.6408" y1="155.686" stroke-width="1.728" y2="62.1023" stroke-linecap="round" x2="96.6912"/>
  </g>
  <g partID="862386520">
   <line stroke="black" x1="96.6912" y1="62.1022" stroke-width="1.728" y2="53.7571" stroke-linecap="round" x2="113.223"/>
  </g>
  <g partID="862386590">
   <line stroke="black" x1="78.288" y1="155.54" stroke-width="1.728" y2="155.686" stroke-linecap="round" x2="96.6406"/>
  </g>
  <g partID="862386380">
   <line stroke="black" x1="75.648" y1="156.18" stroke-width="1.728" y2="155.54" stroke-linecap="round" x2="78.2887"/>
  </g>
  <g partID="862386870">
   <line stroke="black" x1="99.564" y1="164.09" stroke-width="1.728" y2="73.4135" stroke-linecap="round" x2="100.907"/>
  </g>
  <g partID="862386940">
   <line stroke="black" x1="100.907" y1="73.4129" stroke-width="1.728" y2="68.0507" stroke-linecap="round" x2="113.173"/>
  </g>
  <g partID="862386800">
   <line stroke="black" x1="75.6917" y1="163.768" stroke-width="1.728" y2="164.09" stroke-linecap="round" x2="99.5644"/>
  </g>
 </g>
</svg>
