; NON-PLATED HOLES START AT T1
; THROUGH (PLATED) HOLES START AT T100
M48
INCH
T1C0.125984
T100C0.030000
T101C0.032000
T102C0.035000
T103C0.040000
T104C0.045969
T105C0.031496
T106C0.039370
%
T1
X028451Y032048
X028451Y002048
X001451Y002048
X001451Y032048
T100
X016128Y020780
X009435Y007001
X015734Y026292
X015126Y020780
X007951Y013408
X009435Y005999
X008953Y013408
X014733Y026292
T101
X006451Y010048
X016175Y024930
X013325Y017615
X006451Y012048
X016175Y021930
X009451Y004048
X013325Y018615
X006451Y009048
X006451Y002048
X016325Y017615
X009451Y012048
X016175Y023930
X009451Y003048
X009451Y002048
X016325Y018615
X016175Y022930
X013325Y016615
X006451Y011048
X006451Y003048
X009451Y005048
X009451Y011048
X016325Y019615
X016325Y016615
X013175Y021930
X006451Y004048
X013175Y022930
X006451Y005048
X013175Y023930
X009451Y010048
X013175Y024930
X013325Y019615
X009451Y009048
T102
X018687Y023008
X013372Y007457
X001955Y009229
X022821Y020646
X022821Y016646
X021371Y020048
X021371Y016048
X011451Y017048
X021049Y012119
X003530Y010150
X018687Y019008
X003530Y009229
X003530Y014150
X011451Y008048
X001955Y005229
X011451Y022048
X011451Y007048
X003530Y005229
X017049Y012119
X011451Y013048
X011451Y018048
X013372Y003457
X018451Y014048
X011451Y003048
X018451Y018048
X011451Y012048
T103
X025356Y026303
X025356Y012524
X025356Y015280
X025356Y011146
X025356Y022169
X025356Y020791
X025356Y019414
X025356Y016658
X025356Y024925
X025356Y027681
X025356Y029059
X025356Y023547
X025356Y018036
X025356Y013902
T104
X020262Y007788
X019475Y002470
X017585Y007788
X016797Y002470
X016797Y007788
X017585Y002470
X018687Y007788
X019475Y007788
X018687Y002470
X020262Y002470
T105
X021215Y014678
X023215Y014678
T106
X008451Y022930
X008451Y025930
X008451Y016930
X008451Y019930
X008451Y018930
X008451Y024930
X008451Y017930
X008451Y020930
X008451Y021930
X008451Y023930
T00
M30
