G04 MADE WITH FRITZING*
G04 WWW.FRITZING.ORG*
G04 DOUBLE SIDED*
G04 HOLES PLATED*
G04 CONTOUR ON CENTER OF CONTOUR VECTOR*
%ASAXBY*%
%FSLAX23Y23*%
%MOIN*%
%OFA0B0*%
%SFA1.0B1.0*%
%ADD10C,0.085000*%
%ADD11C,0.080000*%
%ADD12C,0.090000*%
%ADD13C,0.135984*%
%ADD14C,0.078000*%
%ADD15C,0.084000*%
%ADD16R,0.090000X0.090000*%
%ADD17R,0.001000X0.001000*%
%LNMASK1*%
G90*
G70*
G54D10*
X196Y923D03*
X196Y523D03*
X2282Y2065D03*
X2282Y1665D03*
X1337Y746D03*
X1337Y346D03*
X1705Y1212D03*
X2105Y1212D03*
G54D11*
X1473Y2629D03*
X1573Y2629D03*
X1513Y2078D03*
X1613Y2078D03*
X944Y600D03*
X944Y700D03*
X795Y1341D03*
X895Y1341D03*
X845Y2593D03*
X845Y2493D03*
X845Y2393D03*
X845Y2293D03*
X845Y2193D03*
X845Y2093D03*
X845Y1993D03*
X845Y1893D03*
X845Y1793D03*
X845Y1693D03*
G54D10*
X2137Y1605D03*
X2137Y2005D03*
X1145Y2205D03*
X1145Y1805D03*
X353Y1415D03*
X353Y1015D03*
X353Y923D03*
X353Y523D03*
X1145Y1705D03*
X1145Y1305D03*
X1869Y2301D03*
X1869Y1901D03*
X1145Y1205D03*
X1145Y805D03*
X1145Y705D03*
X1145Y305D03*
X1845Y1805D03*
X1845Y1405D03*
G54D12*
X2536Y2906D03*
X2536Y2768D03*
X2536Y2630D03*
X2536Y2493D03*
X2536Y2355D03*
X2536Y2217D03*
X2536Y2079D03*
X2536Y1941D03*
X2536Y1804D03*
X2536Y1666D03*
X2536Y1528D03*
X2536Y1390D03*
X2536Y1252D03*
X2536Y1115D03*
G54D13*
X2845Y205D03*
X2845Y3205D03*
X145Y3205D03*
X145Y205D03*
G54D14*
X645Y1205D03*
X645Y1105D03*
X645Y1005D03*
X645Y905D03*
X945Y905D03*
X945Y1005D03*
X945Y1105D03*
X945Y1205D03*
X645Y1205D03*
X645Y1105D03*
X645Y1005D03*
X645Y905D03*
X945Y905D03*
X945Y1005D03*
X945Y1105D03*
X945Y1205D03*
X645Y505D03*
X645Y405D03*
X645Y305D03*
X645Y205D03*
X945Y205D03*
X945Y305D03*
X945Y405D03*
X945Y505D03*
X645Y505D03*
X645Y405D03*
X645Y305D03*
X645Y205D03*
X945Y205D03*
X945Y305D03*
X945Y405D03*
X945Y505D03*
X1318Y2493D03*
X1318Y2393D03*
X1318Y2293D03*
X1318Y2193D03*
X1618Y2193D03*
X1618Y2293D03*
X1618Y2393D03*
X1618Y2493D03*
X1318Y2493D03*
X1318Y2393D03*
X1318Y2293D03*
X1318Y2193D03*
X1618Y2193D03*
X1618Y2293D03*
X1618Y2393D03*
X1618Y2493D03*
X1333Y1962D03*
X1333Y1862D03*
X1333Y1762D03*
X1333Y1662D03*
X1633Y1662D03*
X1633Y1762D03*
X1633Y1862D03*
X1633Y1962D03*
X1333Y1962D03*
X1333Y1862D03*
X1333Y1762D03*
X1333Y1662D03*
X1633Y1662D03*
X1633Y1762D03*
X1633Y1862D03*
X1633Y1962D03*
G54D15*
X2122Y1468D03*
X2322Y1468D03*
G54D16*
X2536Y2906D03*
G54D17*
X1679Y812D02*
X1679Y812D01*
X1757Y812D02*
X1758Y812D01*
X1868Y812D02*
X1868Y812D01*
X1946Y812D02*
X1947Y812D01*
X2025Y812D02*
X2025Y812D01*
X1672Y811D02*
X1686Y811D01*
X1750Y811D02*
X1765Y811D01*
X1861Y811D02*
X1875Y811D01*
X1939Y811D02*
X1953Y811D01*
X2018Y811D02*
X2032Y811D01*
X1669Y810D02*
X1689Y810D01*
X1747Y810D02*
X1768Y810D01*
X1857Y810D02*
X1878Y810D01*
X1936Y810D02*
X1957Y810D01*
X2015Y810D02*
X2035Y810D01*
X1666Y809D02*
X1691Y809D01*
X1745Y809D02*
X1770Y809D01*
X1855Y809D02*
X1880Y809D01*
X1934Y809D02*
X1959Y809D01*
X2012Y809D02*
X2038Y809D01*
X1664Y808D02*
X1694Y808D01*
X1743Y808D02*
X1772Y808D01*
X1853Y808D02*
X1882Y808D01*
X1932Y808D02*
X1961Y808D01*
X2010Y808D02*
X2040Y808D01*
X1662Y807D02*
X1695Y807D01*
X1741Y807D02*
X1774Y807D01*
X1851Y807D02*
X1884Y807D01*
X1930Y807D02*
X1963Y807D01*
X2009Y807D02*
X2042Y807D01*
X1661Y806D02*
X1697Y806D01*
X1739Y806D02*
X1776Y806D01*
X1850Y806D02*
X1886Y806D01*
X1928Y806D02*
X1964Y806D01*
X2007Y806D02*
X2043Y806D01*
X1659Y805D02*
X1698Y805D01*
X1738Y805D02*
X1777Y805D01*
X1848Y805D02*
X1887Y805D01*
X1927Y805D02*
X1966Y805D01*
X2006Y805D02*
X2045Y805D01*
X1658Y804D02*
X1699Y804D01*
X1737Y804D02*
X1778Y804D01*
X1847Y804D02*
X1888Y804D01*
X1926Y804D02*
X1967Y804D01*
X2005Y804D02*
X2046Y804D01*
X1657Y803D02*
X1700Y803D01*
X1736Y803D02*
X1779Y803D01*
X1846Y803D02*
X1889Y803D01*
X1925Y803D02*
X1968Y803D01*
X2003Y803D02*
X2047Y803D01*
X1656Y802D02*
X1701Y802D01*
X1735Y802D02*
X1782Y802D01*
X1845Y802D02*
X1890Y802D01*
X1924Y802D02*
X1969Y802D01*
X2002Y802D02*
X2048Y802D01*
X1655Y801D02*
X1702Y801D01*
X1734Y801D02*
X1781Y801D01*
X1844Y801D02*
X1891Y801D01*
X1923Y801D02*
X1970Y801D01*
X2002Y801D02*
X2049Y801D01*
X1654Y800D02*
X1703Y800D01*
X1733Y800D02*
X1782Y800D01*
X1843Y800D02*
X1892Y800D01*
X1922Y800D02*
X1971Y800D01*
X2001Y800D02*
X2050Y800D01*
X1654Y799D02*
X1704Y799D01*
X1732Y799D02*
X1783Y799D01*
X1843Y799D02*
X1893Y799D01*
X1921Y799D02*
X1972Y799D01*
X2000Y799D02*
X2050Y799D01*
X1653Y798D02*
X1705Y798D01*
X1732Y798D02*
X1783Y798D01*
X1842Y798D02*
X1894Y798D01*
X1921Y798D02*
X1972Y798D01*
X1999Y798D02*
X2051Y798D01*
X1652Y797D02*
X1705Y797D01*
X1731Y797D02*
X1784Y797D01*
X1841Y797D02*
X1894Y797D01*
X1920Y797D02*
X1973Y797D01*
X1999Y797D02*
X2052Y797D01*
X1652Y796D02*
X1706Y796D01*
X1730Y796D02*
X1785Y796D01*
X1841Y796D02*
X1895Y796D01*
X1919Y796D02*
X1973Y796D01*
X1998Y796D02*
X2052Y796D01*
X1651Y795D02*
X1706Y795D01*
X1730Y795D02*
X1785Y795D01*
X1840Y795D02*
X1895Y795D01*
X1919Y795D02*
X1974Y795D01*
X1998Y795D02*
X2053Y795D01*
X1651Y794D02*
X1707Y794D01*
X1729Y794D02*
X1786Y794D01*
X1840Y794D02*
X1896Y794D01*
X1918Y794D02*
X1974Y794D01*
X1997Y794D02*
X2053Y794D01*
X1650Y793D02*
X1707Y793D01*
X1729Y793D02*
X1786Y793D01*
X1839Y793D02*
X1896Y793D01*
X1918Y793D02*
X1975Y793D01*
X1997Y793D02*
X2054Y793D01*
X1650Y792D02*
X1708Y792D01*
X1729Y792D02*
X1786Y792D01*
X1839Y792D02*
X1897Y792D01*
X1917Y792D02*
X1975Y792D01*
X1996Y792D02*
X2054Y792D01*
X1649Y791D02*
X1708Y791D01*
X1728Y791D02*
X1787Y791D01*
X1838Y791D02*
X1897Y791D01*
X1917Y791D02*
X1976Y791D01*
X1996Y791D02*
X2054Y791D01*
X1649Y790D02*
X1708Y790D01*
X1728Y790D02*
X1787Y790D01*
X1838Y790D02*
X1897Y790D01*
X1917Y790D02*
X1976Y790D01*
X1995Y790D02*
X2055Y790D01*
X1649Y789D02*
X1709Y789D01*
X1727Y789D02*
X1788Y789D01*
X1838Y789D02*
X1898Y789D01*
X1916Y789D02*
X1976Y789D01*
X1995Y789D02*
X2055Y789D01*
X1648Y788D02*
X1677Y788D01*
X1681Y788D02*
X1709Y788D01*
X1727Y788D02*
X1757Y788D01*
X1760Y788D02*
X1788Y788D01*
X1837Y788D02*
X1868Y788D01*
X1870Y788D02*
X1898Y788D01*
X1916Y788D02*
X1946Y788D01*
X1949Y788D02*
X1977Y788D01*
X1995Y788D02*
X2023Y788D01*
X2027Y788D02*
X2055Y788D01*
X1648Y787D02*
X1674Y787D01*
X1684Y787D02*
X1709Y787D01*
X1727Y787D02*
X1753Y787D01*
X1762Y787D02*
X1788Y787D01*
X1837Y787D02*
X1863Y787D01*
X1872Y787D02*
X1898Y787D01*
X1916Y787D02*
X1942Y787D01*
X1951Y787D02*
X1977Y787D01*
X1995Y787D02*
X2021Y787D01*
X2030Y787D02*
X2056Y787D01*
X1648Y786D02*
X1673Y786D01*
X1685Y786D02*
X1710Y786D01*
X1727Y786D02*
X1752Y786D01*
X1763Y786D02*
X1788Y786D01*
X1837Y786D02*
X1862Y786D01*
X1874Y786D02*
X1898Y786D01*
X1916Y786D02*
X1941Y786D01*
X1952Y786D02*
X1977Y786D01*
X1994Y786D02*
X2019Y786D01*
X2031Y786D02*
X2056Y786D01*
X1648Y785D02*
X1672Y785D01*
X1686Y785D02*
X1710Y785D01*
X1727Y785D02*
X1751Y785D01*
X1764Y785D02*
X1788Y785D01*
X1837Y785D02*
X1861Y785D01*
X1875Y785D02*
X1899Y785D01*
X1915Y785D02*
X1940Y785D01*
X1953Y785D02*
X1977Y785D01*
X1994Y785D02*
X2018Y785D01*
X2032Y785D02*
X2056Y785D01*
X1648Y784D02*
X1671Y784D01*
X1686Y784D02*
X1710Y784D01*
X1726Y784D02*
X1750Y784D01*
X1765Y784D02*
X1789Y784D01*
X1837Y784D02*
X1860Y784D01*
X1875Y784D02*
X1899Y784D01*
X1915Y784D02*
X1939Y784D01*
X1954Y784D02*
X1978Y784D01*
X1994Y784D02*
X2018Y784D01*
X2033Y784D02*
X2056Y784D01*
X1648Y783D02*
X1671Y783D01*
X1687Y783D02*
X1710Y783D01*
X1726Y783D02*
X1750Y783D01*
X1766Y783D02*
X1789Y783D01*
X1836Y783D02*
X1860Y783D01*
X1876Y783D02*
X1899Y783D01*
X1915Y783D02*
X1938Y783D01*
X1955Y783D02*
X1978Y783D01*
X1994Y783D02*
X2017Y783D01*
X2033Y783D02*
X2056Y783D01*
X1647Y782D02*
X1671Y782D01*
X1687Y782D02*
X1710Y782D01*
X1726Y782D02*
X1749Y782D01*
X1766Y782D02*
X1789Y782D01*
X1836Y782D02*
X1859Y782D01*
X1876Y782D02*
X1899Y782D01*
X1915Y782D02*
X1938Y782D01*
X1955Y782D02*
X1978Y782D01*
X1994Y782D02*
X2017Y782D01*
X2034Y782D02*
X2056Y782D01*
X1647Y781D02*
X1670Y781D01*
X1687Y781D02*
X1710Y781D01*
X1726Y781D02*
X1749Y781D01*
X1766Y781D02*
X1789Y781D01*
X1836Y781D02*
X1859Y781D01*
X1876Y781D02*
X1899Y781D01*
X1915Y781D02*
X1938Y781D01*
X1955Y781D02*
X1978Y781D01*
X1994Y781D02*
X2017Y781D01*
X2034Y781D02*
X2056Y781D01*
X1647Y780D02*
X1670Y780D01*
X1687Y780D02*
X1710Y780D01*
X1726Y780D02*
X1749Y780D01*
X1766Y780D02*
X1789Y780D01*
X1836Y780D02*
X1859Y780D01*
X1876Y780D02*
X1899Y780D01*
X1915Y780D02*
X1938Y780D01*
X1955Y780D02*
X1978Y780D01*
X1994Y780D02*
X2017Y780D01*
X2034Y780D02*
X2057Y780D01*
X1647Y779D02*
X1670Y779D01*
X1687Y779D02*
X1710Y779D01*
X1726Y779D02*
X1749Y779D01*
X1766Y779D02*
X1789Y779D01*
X1836Y779D02*
X1859Y779D01*
X1876Y779D02*
X1899Y779D01*
X1915Y779D02*
X1938Y779D01*
X1955Y779D02*
X1978Y779D01*
X1994Y779D02*
X2017Y779D01*
X2034Y779D02*
X2056Y779D01*
X1647Y778D02*
X1671Y778D01*
X1687Y778D02*
X1710Y778D01*
X1726Y778D02*
X1749Y778D01*
X1766Y778D02*
X1789Y778D01*
X1836Y778D02*
X1859Y778D01*
X1876Y778D02*
X1899Y778D01*
X1915Y778D02*
X1938Y778D01*
X1955Y778D02*
X1978Y778D01*
X1994Y778D02*
X2017Y778D01*
X2034Y778D02*
X2056Y778D01*
X1648Y777D02*
X1671Y777D01*
X1687Y777D02*
X1710Y777D01*
X1726Y777D02*
X1750Y777D01*
X1766Y777D02*
X1789Y777D01*
X1836Y777D02*
X1860Y777D01*
X1876Y777D02*
X1899Y777D01*
X1915Y777D02*
X1938Y777D01*
X1955Y777D02*
X1978Y777D01*
X1994Y777D02*
X2017Y777D01*
X2033Y777D02*
X2056Y777D01*
X1648Y776D02*
X1671Y776D01*
X1686Y776D02*
X1710Y776D01*
X1726Y776D02*
X1750Y776D01*
X1765Y776D02*
X1789Y776D01*
X1837Y776D02*
X1860Y776D01*
X1875Y776D02*
X1899Y776D01*
X1915Y776D02*
X1939Y776D01*
X1954Y776D02*
X1977Y776D01*
X1994Y776D02*
X2018Y776D01*
X2033Y776D02*
X2056Y776D01*
X1648Y775D02*
X1672Y775D01*
X1686Y775D02*
X1710Y775D01*
X1727Y775D02*
X1751Y775D01*
X1764Y775D02*
X1788Y775D01*
X1837Y775D02*
X1861Y775D01*
X1875Y775D02*
X1899Y775D01*
X1915Y775D02*
X1940Y775D01*
X1953Y775D02*
X1977Y775D01*
X1994Y775D02*
X2018Y775D01*
X2032Y775D02*
X2056Y775D01*
X1648Y774D02*
X1673Y774D01*
X1685Y774D02*
X1710Y774D01*
X1727Y774D02*
X1752Y774D01*
X1763Y774D02*
X1788Y774D01*
X1837Y774D02*
X1862Y774D01*
X1874Y774D02*
X1898Y774D01*
X1916Y774D02*
X1941Y774D01*
X1952Y774D02*
X1977Y774D01*
X1994Y774D02*
X2019Y774D01*
X2031Y774D02*
X2056Y774D01*
X1648Y773D02*
X1674Y773D01*
X1683Y773D02*
X1709Y773D01*
X1727Y773D02*
X1753Y773D01*
X1762Y773D02*
X1788Y773D01*
X1837Y773D02*
X1863Y773D01*
X1872Y773D02*
X1898Y773D01*
X1916Y773D02*
X1942Y773D01*
X1951Y773D02*
X1977Y773D01*
X1995Y773D02*
X2021Y773D01*
X2030Y773D02*
X2056Y773D01*
X1649Y772D02*
X1678Y772D01*
X1680Y772D02*
X1709Y772D01*
X1727Y772D02*
X1756Y772D01*
X1759Y772D02*
X1788Y772D01*
X1837Y772D02*
X1867Y772D01*
X1869Y772D02*
X1898Y772D01*
X1916Y772D02*
X1945Y772D01*
X1948Y772D02*
X1977Y772D01*
X1995Y772D02*
X2024Y772D01*
X2026Y772D02*
X2055Y772D01*
X1649Y771D02*
X1709Y771D01*
X1728Y771D02*
X1787Y771D01*
X1838Y771D02*
X1898Y771D01*
X1916Y771D02*
X1976Y771D01*
X1995Y771D02*
X2055Y771D01*
X1649Y770D02*
X1708Y770D01*
X1728Y770D02*
X1787Y770D01*
X1838Y770D02*
X1897Y770D01*
X1917Y770D02*
X1976Y770D01*
X1995Y770D02*
X2055Y770D01*
X1650Y769D02*
X1708Y769D01*
X1728Y769D02*
X1787Y769D01*
X1838Y769D02*
X1897Y769D01*
X1917Y769D02*
X1976Y769D01*
X1996Y769D02*
X2054Y769D01*
X1650Y768D02*
X1708Y768D01*
X1729Y768D02*
X1786Y768D01*
X1839Y768D02*
X1897Y768D01*
X1918Y768D02*
X1975Y768D01*
X1996Y768D02*
X2054Y768D01*
X1650Y767D02*
X1707Y767D01*
X1729Y767D02*
X1786Y767D01*
X1839Y767D02*
X1896Y767D01*
X1918Y767D02*
X1975Y767D01*
X1997Y767D02*
X2054Y767D01*
X1651Y766D02*
X1707Y766D01*
X1730Y766D02*
X1785Y766D01*
X1840Y766D02*
X1896Y766D01*
X1918Y766D02*
X1974Y766D01*
X1997Y766D02*
X2053Y766D01*
X1651Y765D02*
X1706Y765D01*
X1730Y765D02*
X1785Y765D01*
X1840Y765D02*
X1895Y765D01*
X1919Y765D02*
X1974Y765D01*
X1998Y765D02*
X2053Y765D01*
X1652Y764D02*
X1706Y764D01*
X1731Y764D02*
X1784Y764D01*
X1841Y764D02*
X1895Y764D01*
X1919Y764D02*
X1973Y764D01*
X1998Y764D02*
X2052Y764D01*
X1652Y763D02*
X1705Y763D01*
X1731Y763D02*
X1784Y763D01*
X1841Y763D02*
X1894Y763D01*
X1920Y763D02*
X1973Y763D01*
X1999Y763D02*
X2051Y763D01*
X1653Y762D02*
X1704Y762D01*
X1732Y762D02*
X1783Y762D01*
X1842Y762D02*
X1893Y762D01*
X1921Y762D02*
X1972Y762D01*
X1999Y762D02*
X2051Y762D01*
X1654Y761D02*
X1704Y761D01*
X1733Y761D02*
X1782Y761D01*
X1843Y761D02*
X1893Y761D01*
X1921Y761D02*
X1971Y761D01*
X2000Y761D02*
X2050Y761D01*
X1655Y760D02*
X1703Y760D01*
X1733Y760D02*
X1782Y760D01*
X1843Y760D02*
X1892Y760D01*
X1922Y760D02*
X1971Y760D01*
X2001Y760D02*
X2049Y760D01*
X1655Y759D02*
X1702Y759D01*
X1734Y759D02*
X1781Y759D01*
X1844Y759D02*
X1891Y759D01*
X1923Y759D02*
X1970Y759D01*
X2002Y759D02*
X2048Y759D01*
X1656Y758D02*
X1701Y758D01*
X1735Y758D02*
X1780Y758D01*
X1845Y758D02*
X1890Y758D01*
X1924Y758D02*
X1969Y758D01*
X2003Y758D02*
X2048Y758D01*
X1657Y757D02*
X1700Y757D01*
X1736Y757D02*
X1779Y757D01*
X1846Y757D02*
X1889Y757D01*
X1925Y757D02*
X1968Y757D01*
X2004Y757D02*
X2047Y757D01*
X1658Y756D02*
X1699Y756D01*
X1737Y756D02*
X1778Y756D01*
X1847Y756D02*
X1888Y756D01*
X1926Y756D02*
X1967Y756D01*
X2005Y756D02*
X2045Y756D01*
X1660Y755D02*
X1698Y755D01*
X1738Y755D02*
X1777Y755D01*
X1849Y755D02*
X1887Y755D01*
X1927Y755D02*
X1965Y755D01*
X2006Y755D02*
X2044Y755D01*
X1661Y754D02*
X1696Y754D01*
X1740Y754D02*
X1775Y754D01*
X1850Y754D02*
X1885Y754D01*
X1929Y754D02*
X1964Y754D01*
X2007Y754D02*
X2043Y754D01*
X1663Y753D02*
X1695Y753D01*
X1741Y753D02*
X1774Y753D01*
X1852Y753D02*
X1884Y753D01*
X1930Y753D02*
X1962Y753D01*
X2009Y753D02*
X2041Y753D01*
X1664Y752D02*
X1693Y752D01*
X1743Y752D02*
X1772Y752D01*
X1853Y752D02*
X1882Y752D01*
X1932Y752D02*
X1961Y752D01*
X2011Y752D02*
X2039Y752D01*
X1667Y751D02*
X1691Y751D01*
X1745Y751D02*
X1770Y751D01*
X1855Y751D02*
X1880Y751D01*
X1934Y751D02*
X1959Y751D01*
X2013Y751D02*
X2037Y751D01*
X1669Y750D02*
X1688Y750D01*
X1748Y750D02*
X1767Y750D01*
X1858Y750D02*
X1877Y750D01*
X1937Y750D02*
X1956Y750D01*
X2015Y750D02*
X2035Y750D01*
X1673Y749D02*
X1685Y749D01*
X1751Y749D02*
X1764Y749D01*
X1861Y749D02*
X1874Y749D01*
X1940Y749D02*
X1953Y749D01*
X2019Y749D02*
X2031Y749D01*
X1675Y280D02*
X1683Y280D01*
X1753Y280D02*
X1762Y280D01*
X1863Y280D02*
X1872Y280D01*
X1942Y280D02*
X1951Y280D01*
X2021Y280D02*
X2029Y280D01*
X1670Y279D02*
X1687Y279D01*
X1749Y279D02*
X1766Y279D01*
X1859Y279D02*
X1876Y279D01*
X1938Y279D02*
X1955Y279D01*
X2017Y279D02*
X2034Y279D01*
X1667Y278D02*
X1690Y278D01*
X1746Y278D02*
X1769Y278D01*
X1856Y278D02*
X1879Y278D01*
X1935Y278D02*
X1958Y278D01*
X2014Y278D02*
X2036Y278D01*
X1665Y277D02*
X1692Y277D01*
X1744Y277D02*
X1771Y277D01*
X1854Y277D02*
X1881Y277D01*
X1933Y277D02*
X1960Y277D01*
X2012Y277D02*
X2039Y277D01*
X1663Y276D02*
X1694Y276D01*
X1742Y276D02*
X1773Y276D01*
X1852Y276D02*
X1883Y276D01*
X1931Y276D02*
X1962Y276D01*
X2010Y276D02*
X2041Y276D01*
X1662Y275D02*
X1696Y275D01*
X1740Y275D02*
X1775Y275D01*
X1851Y275D02*
X1885Y275D01*
X1929Y275D02*
X1964Y275D01*
X2008Y275D02*
X2042Y275D01*
X1660Y274D02*
X1697Y274D01*
X1739Y274D02*
X1776Y274D01*
X1849Y274D02*
X1886Y274D01*
X1928Y274D02*
X1965Y274D01*
X2007Y274D02*
X2044Y274D01*
X1659Y273D02*
X1699Y273D01*
X1738Y273D02*
X1777Y273D01*
X1848Y273D02*
X1888Y273D01*
X1926Y273D02*
X1966Y273D01*
X2005Y273D02*
X2045Y273D01*
X1658Y272D02*
X1700Y272D01*
X1736Y272D02*
X1779Y272D01*
X1847Y272D02*
X1889Y272D01*
X1925Y272D02*
X1967Y272D01*
X2004Y272D02*
X2046Y272D01*
X1657Y271D02*
X1701Y271D01*
X1735Y271D02*
X1780Y271D01*
X1846Y271D02*
X1890Y271D01*
X1924Y271D02*
X1969Y271D01*
X2003Y271D02*
X2047Y271D01*
X1656Y270D02*
X1702Y270D01*
X1734Y270D02*
X1782Y270D01*
X1845Y270D02*
X1891Y270D01*
X1923Y270D02*
X1969Y270D01*
X2002Y270D02*
X2048Y270D01*
X1655Y269D02*
X1703Y269D01*
X1734Y269D02*
X1781Y269D01*
X1844Y269D02*
X1892Y269D01*
X1922Y269D02*
X1970Y269D01*
X2001Y269D02*
X2049Y269D01*
X1654Y268D02*
X1703Y268D01*
X1733Y268D02*
X1782Y268D01*
X1843Y268D02*
X1892Y268D01*
X1922Y268D02*
X1971Y268D01*
X2000Y268D02*
X2050Y268D01*
X1653Y267D02*
X1704Y267D01*
X1732Y267D02*
X1783Y267D01*
X1842Y267D02*
X1893Y267D01*
X1921Y267D02*
X1972Y267D01*
X2000Y267D02*
X2051Y267D01*
X1653Y266D02*
X1705Y266D01*
X1731Y266D02*
X1784Y266D01*
X1842Y266D02*
X1894Y266D01*
X1920Y266D02*
X1972Y266D01*
X1999Y266D02*
X2051Y266D01*
X1652Y265D02*
X1705Y265D01*
X1731Y265D02*
X1784Y265D01*
X1841Y265D02*
X1894Y265D01*
X1920Y265D02*
X1973Y265D01*
X1998Y265D02*
X2052Y265D01*
X1651Y264D02*
X1706Y264D01*
X1730Y264D02*
X1785Y264D01*
X1840Y264D02*
X1895Y264D01*
X1919Y264D02*
X1974Y264D01*
X1998Y264D02*
X2052Y264D01*
X1651Y263D02*
X1707Y263D01*
X1730Y263D02*
X1785Y263D01*
X1840Y263D02*
X1895Y263D01*
X1919Y263D02*
X1974Y263D01*
X1997Y263D02*
X2053Y263D01*
X1650Y262D02*
X1707Y262D01*
X1729Y262D02*
X1786Y262D01*
X1839Y262D02*
X1896Y262D01*
X1918Y262D02*
X1975Y262D01*
X1997Y262D02*
X2053Y262D01*
X1650Y261D02*
X1707Y261D01*
X1729Y261D02*
X1786Y261D01*
X1839Y261D02*
X1896Y261D01*
X1918Y261D02*
X1975Y261D01*
X1996Y261D02*
X2054Y261D01*
X1650Y260D02*
X1708Y260D01*
X1728Y260D02*
X1787Y260D01*
X1839Y260D02*
X1897Y260D01*
X1917Y260D02*
X1976Y260D01*
X1996Y260D02*
X2054Y260D01*
X1649Y259D02*
X1708Y259D01*
X1728Y259D02*
X1787Y259D01*
X1838Y259D02*
X1897Y259D01*
X1917Y259D02*
X1976Y259D01*
X1996Y259D02*
X2055Y259D01*
X1649Y258D02*
X1709Y258D01*
X1728Y258D02*
X1787Y258D01*
X1838Y258D02*
X1898Y258D01*
X1917Y258D02*
X1976Y258D01*
X1995Y258D02*
X2055Y258D01*
X1649Y257D02*
X1709Y257D01*
X1727Y257D02*
X1788Y257D01*
X1838Y257D02*
X1898Y257D01*
X1916Y257D02*
X1977Y257D01*
X1995Y257D02*
X2055Y257D01*
X1648Y256D02*
X1675Y256D01*
X1682Y256D02*
X1709Y256D01*
X1727Y256D02*
X1754Y256D01*
X1761Y256D02*
X1788Y256D01*
X1837Y256D02*
X1864Y256D01*
X1871Y256D02*
X1898Y256D01*
X1916Y256D02*
X1943Y256D01*
X1950Y256D02*
X1977Y256D01*
X1995Y256D02*
X2022Y256D01*
X2029Y256D02*
X2056Y256D01*
X1648Y255D02*
X1674Y255D01*
X1684Y255D02*
X1709Y255D01*
X1727Y255D02*
X1752Y255D01*
X1763Y255D02*
X1788Y255D01*
X1837Y255D02*
X1863Y255D01*
X1873Y255D02*
X1898Y255D01*
X1916Y255D02*
X1941Y255D01*
X1952Y255D02*
X1977Y255D01*
X1994Y255D02*
X2020Y255D01*
X2030Y255D02*
X2056Y255D01*
X1648Y254D02*
X1673Y254D01*
X1685Y254D02*
X1710Y254D01*
X1727Y254D02*
X1751Y254D01*
X1764Y254D02*
X1788Y254D01*
X1837Y254D02*
X1861Y254D01*
X1874Y254D02*
X1899Y254D01*
X1916Y254D02*
X1940Y254D01*
X1953Y254D02*
X1977Y254D01*
X1994Y254D02*
X2019Y254D01*
X2031Y254D02*
X2056Y254D01*
X1648Y253D02*
X1672Y253D01*
X1686Y253D02*
X1710Y253D01*
X1726Y253D02*
X1750Y253D01*
X1765Y253D02*
X1788Y253D01*
X1837Y253D02*
X1861Y253D01*
X1875Y253D02*
X1899Y253D01*
X1915Y253D02*
X1939Y253D01*
X1954Y253D02*
X1977Y253D01*
X1994Y253D02*
X2018Y253D01*
X2032Y253D02*
X2056Y253D01*
X1648Y252D02*
X1671Y252D01*
X1687Y252D02*
X1710Y252D01*
X1726Y252D02*
X1750Y252D01*
X1765Y252D02*
X1789Y252D01*
X1836Y252D02*
X1860Y252D01*
X1876Y252D02*
X1899Y252D01*
X1915Y252D02*
X1939Y252D01*
X1954Y252D02*
X1978Y252D01*
X1994Y252D02*
X2017Y252D01*
X2033Y252D02*
X2056Y252D01*
X1647Y251D02*
X1671Y251D01*
X1687Y251D02*
X1710Y251D01*
X1726Y251D02*
X1749Y251D01*
X1766Y251D02*
X1789Y251D01*
X1836Y251D02*
X1860Y251D01*
X1876Y251D02*
X1899Y251D01*
X1915Y251D02*
X1938Y251D01*
X1955Y251D02*
X1978Y251D01*
X1994Y251D02*
X2017Y251D01*
X2033Y251D02*
X2056Y251D01*
X1647Y250D02*
X1670Y250D01*
X1687Y250D02*
X1710Y250D01*
X1726Y250D02*
X1749Y250D01*
X1766Y250D02*
X1789Y250D01*
X1836Y250D02*
X1859Y250D01*
X1876Y250D02*
X1899Y250D01*
X1915Y250D02*
X1938Y250D01*
X1955Y250D02*
X1978Y250D01*
X1994Y250D02*
X2017Y250D01*
X2034Y250D02*
X2056Y250D01*
X1647Y249D02*
X1670Y249D01*
X1687Y249D02*
X1710Y249D01*
X1726Y249D02*
X1749Y249D01*
X1766Y249D02*
X1789Y249D01*
X1836Y249D02*
X1859Y249D01*
X1876Y249D02*
X1899Y249D01*
X1915Y249D02*
X1938Y249D01*
X1955Y249D02*
X1978Y249D01*
X1994Y249D02*
X2017Y249D01*
X2034Y249D02*
X2057Y249D01*
X1647Y248D02*
X1670Y248D01*
X1687Y248D02*
X1710Y248D01*
X1726Y248D02*
X1749Y248D01*
X1766Y248D02*
X1789Y248D01*
X1836Y248D02*
X1859Y248D01*
X1876Y248D02*
X1899Y248D01*
X1915Y248D02*
X1938Y248D01*
X1955Y248D02*
X1978Y248D01*
X1994Y248D02*
X2017Y248D01*
X2034Y248D02*
X2057Y248D01*
X1647Y247D02*
X1670Y247D01*
X1687Y247D02*
X1710Y247D01*
X1726Y247D02*
X1749Y247D01*
X1766Y247D02*
X1789Y247D01*
X1836Y247D02*
X1859Y247D01*
X1876Y247D02*
X1899Y247D01*
X1915Y247D02*
X1938Y247D01*
X1955Y247D02*
X1978Y247D01*
X1994Y247D02*
X2017Y247D01*
X2034Y247D02*
X2056Y247D01*
X1647Y246D02*
X1671Y246D01*
X1687Y246D02*
X1710Y246D01*
X1726Y246D02*
X1749Y246D01*
X1766Y246D02*
X1789Y246D01*
X1836Y246D02*
X1860Y246D01*
X1876Y246D02*
X1899Y246D01*
X1915Y246D02*
X1938Y246D01*
X1955Y246D02*
X1978Y246D01*
X1994Y246D02*
X2017Y246D01*
X2033Y246D02*
X2056Y246D01*
X1648Y245D02*
X1671Y245D01*
X1687Y245D02*
X1710Y245D01*
X1726Y245D02*
X1750Y245D01*
X1765Y245D02*
X1789Y245D01*
X1836Y245D02*
X1860Y245D01*
X1876Y245D02*
X1899Y245D01*
X1915Y245D02*
X1939Y245D01*
X1954Y245D02*
X1978Y245D01*
X1994Y245D02*
X2017Y245D01*
X2033Y245D02*
X2056Y245D01*
X1648Y244D02*
X1672Y244D01*
X1686Y244D02*
X1710Y244D01*
X1726Y244D02*
X1750Y244D01*
X1765Y244D02*
X1788Y244D01*
X1837Y244D02*
X1861Y244D01*
X1875Y244D02*
X1899Y244D01*
X1915Y244D02*
X1939Y244D01*
X1954Y244D02*
X1977Y244D01*
X1994Y244D02*
X2018Y244D01*
X2032Y244D02*
X2056Y244D01*
X1648Y243D02*
X1672Y243D01*
X1685Y243D02*
X1710Y243D01*
X1727Y243D02*
X1751Y243D01*
X1764Y243D02*
X1788Y243D01*
X1837Y243D02*
X1861Y243D01*
X1874Y243D02*
X1899Y243D01*
X1916Y243D02*
X1940Y243D01*
X1953Y243D02*
X1977Y243D01*
X1994Y243D02*
X2019Y243D01*
X2032Y243D02*
X2056Y243D01*
X1648Y242D02*
X1674Y242D01*
X1684Y242D02*
X1709Y242D01*
X1727Y242D02*
X1752Y242D01*
X1763Y242D02*
X1788Y242D01*
X1837Y242D02*
X1862Y242D01*
X1873Y242D02*
X1898Y242D01*
X1916Y242D02*
X1941Y242D01*
X1952Y242D02*
X1977Y242D01*
X1994Y242D02*
X2020Y242D01*
X2031Y242D02*
X2056Y242D01*
X1648Y241D02*
X1675Y241D01*
X1683Y241D02*
X1709Y241D01*
X1727Y241D02*
X1754Y241D01*
X1761Y241D02*
X1788Y241D01*
X1837Y241D02*
X1864Y241D01*
X1872Y241D02*
X1898Y241D01*
X1916Y241D02*
X1943Y241D01*
X1950Y241D02*
X1977Y241D01*
X1995Y241D02*
X2021Y241D01*
X2029Y241D02*
X2055Y241D01*
X1649Y240D02*
X1709Y240D01*
X1727Y240D02*
X1788Y240D01*
X1838Y240D02*
X1898Y240D01*
X1916Y240D02*
X1977Y240D01*
X1995Y240D02*
X2055Y240D01*
X1649Y239D02*
X1709Y239D01*
X1728Y239D02*
X1787Y239D01*
X1838Y239D02*
X1898Y239D01*
X1917Y239D02*
X1976Y239D01*
X1995Y239D02*
X2055Y239D01*
X1649Y238D02*
X1708Y238D01*
X1728Y238D02*
X1787Y238D01*
X1838Y238D02*
X1897Y238D01*
X1917Y238D02*
X1976Y238D01*
X1996Y238D02*
X2055Y238D01*
X1650Y237D02*
X1708Y237D01*
X1728Y237D02*
X1787Y237D01*
X1839Y237D02*
X1897Y237D01*
X1917Y237D02*
X1975Y237D01*
X1996Y237D02*
X2054Y237D01*
X1650Y236D02*
X1707Y236D01*
X1729Y236D02*
X1786Y236D01*
X1839Y236D02*
X1896Y236D01*
X1918Y236D02*
X1975Y236D01*
X1996Y236D02*
X2054Y236D01*
X1651Y235D02*
X1707Y235D01*
X1729Y235D02*
X1786Y235D01*
X1839Y235D02*
X1896Y235D01*
X1918Y235D02*
X1975Y235D01*
X1997Y235D02*
X2053Y235D01*
X1651Y234D02*
X1707Y234D01*
X1730Y234D02*
X1785Y234D01*
X1840Y234D02*
X1895Y234D01*
X1919Y234D02*
X1974Y234D01*
X1997Y234D02*
X2053Y234D01*
X1652Y233D02*
X1706Y233D01*
X1730Y233D02*
X1785Y233D01*
X1840Y233D02*
X1895Y233D01*
X1919Y233D02*
X1974Y233D01*
X1998Y233D02*
X2052Y233D01*
X1652Y232D02*
X1705Y232D01*
X1731Y232D02*
X1784Y232D01*
X1841Y232D02*
X1894Y232D01*
X1920Y232D02*
X1973Y232D01*
X1998Y232D02*
X2052Y232D01*
X1653Y231D02*
X1705Y231D01*
X1731Y231D02*
X1784Y231D01*
X1842Y231D02*
X1894Y231D01*
X1920Y231D02*
X1972Y231D01*
X1999Y231D02*
X2051Y231D01*
X1653Y230D02*
X1704Y230D01*
X1732Y230D02*
X1783Y230D01*
X1842Y230D02*
X1893Y230D01*
X1921Y230D02*
X1972Y230D01*
X2000Y230D02*
X2051Y230D01*
X1654Y229D02*
X1703Y229D01*
X1733Y229D02*
X1782Y229D01*
X1843Y229D02*
X1892Y229D01*
X1922Y229D02*
X1971Y229D01*
X2000Y229D02*
X2050Y229D01*
X1655Y228D02*
X1703Y228D01*
X1734Y228D02*
X1781Y228D01*
X1844Y228D02*
X1892Y228D01*
X1922Y228D02*
X1970Y228D01*
X2001Y228D02*
X2049Y228D01*
X1656Y227D02*
X1702Y227D01*
X1734Y227D02*
X1780Y227D01*
X1845Y227D02*
X1891Y227D01*
X1923Y227D02*
X1969Y227D01*
X2002Y227D02*
X2048Y227D01*
X1657Y226D02*
X1701Y226D01*
X1735Y226D02*
X1780Y226D01*
X1846Y226D02*
X1890Y226D01*
X1924Y226D02*
X1968Y226D01*
X2003Y226D02*
X2047Y226D01*
X1658Y225D02*
X1700Y225D01*
X1736Y225D02*
X1778Y225D01*
X1847Y225D02*
X1889Y225D01*
X1925Y225D02*
X1967Y225D01*
X2004Y225D02*
X2046Y225D01*
X1659Y224D02*
X1699Y224D01*
X1738Y224D02*
X1777Y224D01*
X1848Y224D02*
X1888Y224D01*
X1927Y224D02*
X1966Y224D01*
X2005Y224D02*
X2045Y224D01*
X1660Y223D02*
X1697Y223D01*
X1739Y223D02*
X1776Y223D01*
X1849Y223D02*
X1886Y223D01*
X1928Y223D02*
X1965Y223D01*
X2007Y223D02*
X2044Y223D01*
X1662Y222D02*
X1696Y222D01*
X1740Y222D02*
X1775Y222D01*
X1851Y222D02*
X1885Y222D01*
X1929Y222D02*
X1963Y222D01*
X2008Y222D02*
X2042Y222D01*
X1663Y221D02*
X1694Y221D01*
X1742Y221D02*
X1773Y221D01*
X1852Y221D02*
X1883Y221D01*
X1931Y221D02*
X1962Y221D01*
X2010Y221D02*
X2041Y221D01*
X1665Y220D02*
X1692Y220D01*
X1744Y220D02*
X1771Y220D01*
X1854Y220D02*
X1881Y220D01*
X1933Y220D02*
X1960Y220D01*
X2012Y220D02*
X2039Y220D01*
X1668Y219D02*
X1690Y219D01*
X1746Y219D02*
X1769Y219D01*
X1856Y219D02*
X1879Y219D01*
X1935Y219D02*
X1958Y219D01*
X2014Y219D02*
X2036Y219D01*
X1670Y218D02*
X1687Y218D01*
X1749Y218D02*
X1766Y218D01*
X1859Y218D02*
X1876Y218D01*
X1938Y218D02*
X1955Y218D01*
X2017Y218D02*
X2033Y218D01*
X1675Y217D02*
X1683Y217D01*
X1753Y217D02*
X1761Y217D01*
X1864Y217D02*
X1872Y217D01*
X1942Y217D02*
X1950Y217D01*
X2021Y217D02*
X2029Y217D01*
D02*
G04 End of Mask1*
M02*