M48
; DRILL file {KiCad (6.0.9)} date Fri Feb 24 15:44:54 2023
; FORMAT={-:-/ absolute / inch / decimal}
; #@! TF.CreationDate,2023-02-24T15:44:54+01:00
; #@! TF.GenerationSoftware,Kicad,Pcbnew,(6.0.9)
; #@! TF.FileFunction,Plated,1,2,PTH
FMAT,2
INCH
; #@! TA.AperFunction,Plated,PTH,ViaDrill
T1C0.0157
; #@! TA.AperFunction,Plated,PTH,ComponentDrill
T2C0.0276
; #@! TA.AperFunction,Plated,PTH,ComponentDrill
T3C0.0315
; #@! TA.AperFunction,Plated,PTH,ComponentDrill
T4C0.0354
; #@! TA.AperFunction,Plated,PTH,ComponentDrill
T5C0.0394
; #@! TA.AperFunction,Plated,PTH,ComponentDrill
T6C0.0433
; #@! TA.AperFunction,Plated,PTH,ComponentDrill
T7C0.0437
; #@! TA.AperFunction,Plated,PTH,ComponentDrill
T8C0.0472
; #@! TA.AperFunction,Plated,PTH,ComponentDrill
T9C0.0512
; #@! TA.AperFunction,Plated,PTH,ComponentDrill
T10C0.0984
%
G90
G05
T1
X2.4803Y-2.9134
X2.5591Y-2.7559
X4.5276Y-3.0146
X4.5839Y-5.5661
X5.1575Y-2.7559
X5.1969Y-4.0945
X5.3937Y-3.937
X5.4894Y-5.2512
X5.6693Y-5.4724
X6.6592Y-2.9471
X7.2047Y-2.9528
X7.7482Y-5.5982
X8.1677Y-3.6433
X8.2677Y-4.6457
X8.6614Y-3.8189
X8.7794Y-3.266
X8.8976Y-4.2913
X8.975Y-3.266
X9.2126Y-3.2677
X9.4882Y-3.622
X9.5276Y-4.3701
T2
X4.6457Y-4.4094
X4.7457Y-3.8094
X4.7457Y-4.4094
X4.8457Y-3.8094
X4.8457Y-4.4094
X5.4457Y-3.8094
X5.4457Y-4.4094
X5.6457Y-3.8094
X5.6457Y-4.4094
X6.8803Y-2.6614
X6.8803Y-2.8614
X6.8803Y-3.4614
X6.8803Y-3.5614
X7.4803Y-2.6614
X7.4803Y-2.8614
X7.4803Y-3.4614
X7.4803Y-3.5614
X7.4803Y-3.6614
X8.6Y-4.45
X8.6Y-4.55
X8.6Y-4.85
X8.9Y-4.45
T3
X1.1504Y-5.8562
X1.2504Y-5.9562
X1.3504Y-5.8562
X1.4Y-5.95
X1.7Y-5.95
X1.8504Y-5.8543
X1.8898Y-2.6453
X1.8898Y-2.9453
X1.8898Y-3.1177
X1.8898Y-3.4177
X1.9504Y-5.9543
X2.0504Y-5.8543
X2.0866Y-3.2283
X2.1Y-5.95
X2.185Y-3.2283
X2.3622Y-2.9134
X2.3622Y-3.0134
X2.3622Y-3.1134
X2.3622Y-3.2134
X2.3622Y-3.3661
X2.3622Y-3.563
X2.3984Y-2.5984
X2.4Y-5.95
X2.4984Y-2.5984
X2.5984Y-2.5984
X2.6622Y-2.9134
X2.6622Y-3.0134
X2.6622Y-3.1134
X2.6622Y-3.2134
X2.7504Y-5.8665
X2.7992Y-4.3945
X2.8504Y-5.9665
X2.874Y-3.0315
X2.874Y-3.1299
X2.8937Y-2.874
X2.8992Y-3.7945
X2.8992Y-4.3945
X2.9504Y-5.8665
X2.9992Y-3.7945
X2.9992Y-4.3945
X3.0Y-5.95
X3.0906Y-2.874
X3.1177Y-3.189
X3.2874Y-2.874
X3.3Y-5.95
X3.3071Y-3.4646
X3.3071Y-3.563
X3.3465Y-2.5984
X3.3465Y-2.6969
X3.4004Y-5.8665
X3.4177Y-3.189
X3.4843Y-2.874
X3.5004Y-5.9665
X3.5039Y-3.3661
X3.5039Y-3.563
X3.5992Y-3.7945
X3.5992Y-4.3945
X3.6004Y-5.8665
X3.6299Y-2.5669
X3.6299Y-2.6669
X3.6299Y-2.7669
X3.6299Y-2.8669
X3.6299Y-3.2756
X3.6299Y-3.3756
X3.6299Y-3.4756
X3.6299Y-3.5756
X3.6583Y-3.0709
X3.6799Y-2.3622
X3.7Y-5.9646
X3.7583Y-3.0709
X3.7799Y-2.3622
X3.7992Y-3.7945
X3.7992Y-4.3945
X3.8583Y-3.0709
X3.8799Y-2.3622
X3.9299Y-2.5669
X3.9299Y-2.6669
X3.9299Y-2.7669
X3.9299Y-2.8669
X3.9299Y-3.2756
X3.9299Y-3.3756
X3.9299Y-3.4756
X3.9299Y-3.5756
X4.0Y-5.9646
X4.0551Y-2.7709
X4.0551Y-3.0709
X4.0551Y-3.3661
X4.0945Y-2.4606
X4.0945Y-2.6575
X4.1339Y-3.472
X4.1339Y-3.772
X4.252Y-3.1142
X4.252Y-3.2126
X4.252Y-3.3661
X4.2913Y-2.4213
X4.2913Y-2.5197
X4.4488Y-2.6283
X4.4488Y-2.9283
X4.4488Y-3.1252
X4.4488Y-3.4252
X4.6063Y-2.6283
X4.6063Y-2.9283
X4.6063Y-3.1252
X4.6063Y-3.4252
X8.1181Y-4.5354
X8.1181Y-4.6354
X8.1181Y-4.7354
X8.1181Y-4.8354
X8.1504Y-2.6835
X8.2358Y-2.9134
X8.248Y-3.5039
X8.2504Y-2.7835
X8.3268Y-3.2283
X8.3465Y-3.5039
X8.3504Y-2.6835
X8.4181Y-4.5354
X8.4181Y-4.6354
X8.4181Y-4.7354
X8.4181Y-4.8354
X8.5236Y-3.2283
X8.5358Y-2.9134
X8.5374Y-3.3535
X8.5374Y-3.6535
X8.6374Y-3.3535
X8.6374Y-3.6535
X8.7374Y-3.3535
X8.7374Y-3.6535
X8.7795Y-4.5669
X8.7795Y-4.8669
X8.8374Y-3.3535
X8.8374Y-3.6535
X8.9374Y-3.3535
X8.9374Y-3.6535
X9.0157Y-4.5669
X9.0157Y-4.8669
X9.0374Y-3.3535
X9.0374Y-3.6535
X9.1004Y-2.6835
X9.1374Y-3.3535
X9.1374Y-3.6535
X9.15Y-2.9
X9.2004Y-2.7835
X9.2374Y-3.3535
X9.2374Y-3.6535
X9.252Y-4.5744
X9.252Y-4.8744
X9.3004Y-2.6835
X9.3374Y-3.3535
X9.3374Y-3.6535
X9.45Y-2.9
X9.4882Y-4.5744
X9.4882Y-4.8744
T4
X8.7795Y-5.0181
X8.7795Y-5.1181
X9.0157Y-5.0181
X9.0157Y-5.1181
X9.252Y-5.0181
X9.252Y-5.1181
X9.4882Y-5.0181
X9.4882Y-5.1181
T5
X1.4567Y-2.6772
X1.4567Y-3.3465
X4.702Y-4.7
X4.702Y-5.2906
X4.7037Y-4.9762
X4.7037Y-5.0762
X5.45Y-4.7
X5.45Y-5.6055
X5.55Y-4.7
X5.55Y-5.6055
X5.5512Y-2.7807
X5.5512Y-2.8807
X5.5512Y-2.9807
X5.5512Y-3.0807
X5.65Y-4.7
X5.65Y-5.6055
X5.75Y-4.7
X5.75Y-5.6055
X5.753Y-2.4409
X5.753Y-3.3465
X5.85Y-4.7
X5.85Y-5.6055
X5.853Y-2.4409
X5.853Y-3.3465
X5.95Y-4.7
X5.95Y-5.6055
X5.953Y-2.4409
X5.953Y-3.3465
X6.05Y-4.7
X6.05Y-5.6055
X6.053Y-2.4409
X6.053Y-3.3465
X6.15Y-4.7
X6.15Y-5.6055
X6.153Y-2.4409
X6.153Y-3.3465
X6.253Y-2.4409
X6.253Y-3.3465
X6.353Y-2.4409
X6.353Y-3.3465
X6.453Y-2.4409
X6.453Y-3.3465
X6.55Y-5.25
X6.9685Y-5.5512
X8.7187Y-4.0635
X8.7187Y-4.1635
X8.8187Y-4.0635
X8.8187Y-4.1635
X8.9187Y-4.0635
X8.9187Y-4.1635
X9.7047Y-3.7756
X9.7047Y-3.8756
X9.7047Y-3.9756
X9.7047Y-4.0756
X9.7047Y-4.1756
X9.7047Y-4.2756
X9.7047Y-4.3756
X9.7047Y-4.4756
X9.7047Y-4.5756
X9.7047Y-4.6756
X9.7047Y-4.7756
X9.7047Y-4.8756
X9.7047Y-4.9756
X9.7047Y-5.0756
X9.7047Y-5.1756
X9.7047Y-5.2756
X9.7047Y-5.3756
X9.7047Y-5.4756
X9.7047Y-5.5756
X9.7047Y-5.6756
X9.7796Y-3.0002
X9.7796Y-3.1002
X9.7796Y-3.2002
X9.8047Y-3.7756
X9.8047Y-3.8756
X9.8047Y-3.9756
X9.8047Y-4.0756
X9.8047Y-4.1756
X9.8047Y-4.2756
X9.8047Y-4.3756
X9.8047Y-4.4756
X9.8047Y-4.5756
X9.8047Y-4.6756
X9.8047Y-4.7756
X9.8047Y-4.8756
X9.8047Y-4.9756
X9.8047Y-5.0756
X9.8047Y-5.1756
X9.8047Y-5.2756
X9.8047Y-5.3756
X9.8047Y-5.4756
X9.8047Y-5.5756
X9.8047Y-5.6756
X9.8796Y-3.0002
X9.8796Y-3.1002
X9.8796Y-3.2002
T6
X1.2Y-5.6897
X1.6Y-5.6897
X1.85Y-5.7
X2.25Y-5.7
X2.8Y-5.7
X3.2Y-5.7
X3.45Y-5.7
X3.85Y-5.7
X7.7921Y-2.4016
X8.1921Y-2.4016
X8.6976Y-2.4016
X9.0976Y-2.4016
T7
X4.8256Y-2.5421
X4.8256Y-2.6421
X4.8256Y-2.7421
X4.8256Y-2.8421
X4.8256Y-2.9421
X4.8256Y-3.0421
X4.8256Y-3.1421
X4.8256Y-3.2421
X4.8256Y-3.3421
X4.8256Y-3.4421
X7.1091Y-4.0776
X7.1091Y-4.1776
X7.1091Y-4.2776
X7.1091Y-4.3776
X7.1091Y-4.4776
X7.1091Y-4.5776
X7.1091Y-4.6776
X7.1091Y-4.7776
X7.1091Y-4.8776
X7.1091Y-4.9776
T8
X4.1902Y-4.7331
X4.1902Y-5.5331
T9
X0.838Y-5.1998
X0.838Y-5.3998
X1.1638Y-4.8806
X1.1638Y-5.3609
X1.4Y-5.4397
X1.4567Y-2.9134
X1.4567Y-3.1134
X1.6362Y-4.8806
X1.6362Y-5.3609
X1.8638Y-4.8806
X1.8638Y-5.3609
X2.1Y-5.4397
X2.3362Y-4.8806
X2.3362Y-5.3609
X2.4803Y-4.0157
X2.4803Y-4.2157
X2.7638Y-4.8806
X2.7638Y-5.3609
X3.0Y-5.4397
X3.2362Y-4.8806
X3.2362Y-5.3609
X3.4638Y-4.8806
X3.4638Y-5.3609
X3.7Y-5.4397
X3.9362Y-4.8806
X3.9362Y-5.3609
X6.5537Y-5.5512
X6.7537Y-5.5512
X7.3896Y-1.7112
X7.3896Y-1.9112
X7.8346Y-1.6063
X7.8346Y-2.0866
X8.0709Y-2.1654
X8.3071Y-1.6063
X8.3071Y-2.0866
X8.7402Y-1.6063
X8.7402Y-2.0866
X8.9764Y-2.1654
X9.2126Y-1.6063
X9.2126Y-2.0866
X9.9726Y-1.7112
X9.9726Y-1.9112
T10
X5.3156Y-2.5421
X5.3156Y-3.4421
X7.5991Y-4.0776
X7.5991Y-4.9776
T0
M30
