%TF.GenerationSoftware,KiCad,Pcbnew,(6.0.9)*%
%TF.CreationDate,2023-02-24T15:44:59+01:00*%
%TF.ProjectId,mb.2024.0.0,6d622e32-3032-4342-9e30-2e302e6b6963,rev?*%
%TF.SameCoordinates,Original*%
%TF.FileFunction,Legend,Top*%
%TF.FilePolarity,Positive*%
%FSLAX46Y46*%
G04 Gerber Fmt 4.6, Leading zero omitted, Abs format (unit mm)*
G04 Created by KiCad (PCBNEW (6.0.9)) date 2023-02-24 15:44:59*
%MOMM*%
%LPD*%
G01*
G04 APERTURE LIST*
%ADD10C,0.500000*%
%ADD11C,0.300000*%
%ADD12C,0.150000*%
%ADD13C,0.254000*%
%ADD14C,0.120000*%
%ADD15C,0.100000*%
%ADD16C,0.127000*%
%ADD17C,0.200000*%
G04 APERTURE END LIST*
D10*
X179952380Y-37285714D02*
X183000000Y-37285714D01*
X181476190Y-38809523D02*
X181476190Y-35761904D01*
X187000000Y-38809523D02*
X184714285Y-38809523D01*
X185857142Y-38809523D02*
X185857142Y-34809523D01*
X185476190Y-35380952D01*
X185095238Y-35761904D01*
X184714285Y-35952380D01*
X188523809Y-35190476D02*
X188714285Y-35000000D01*
X189095238Y-34809523D01*
X190047619Y-34809523D01*
X190428571Y-35000000D01*
X190619047Y-35190476D01*
X190809523Y-35571428D01*
X190809523Y-35952380D01*
X190619047Y-36523809D01*
X188333333Y-38809523D01*
X190809523Y-38809523D01*
X191952380Y-34809523D02*
X193285714Y-38809523D01*
X194619047Y-34809523D01*
X170308571Y-151669523D02*
X170308571Y-147669523D01*
X171260952Y-147669523D01*
X171832380Y-147860000D01*
X172213333Y-148240952D01*
X172403809Y-148621904D01*
X172594285Y-149383809D01*
X172594285Y-149955238D01*
X172403809Y-150717142D01*
X172213333Y-151098095D01*
X171832380Y-151479047D01*
X171260952Y-151669523D01*
X170308571Y-151669523D01*
X174118095Y-151479047D02*
X174689523Y-151669523D01*
X175641904Y-151669523D01*
X176022857Y-151479047D01*
X176213333Y-151288571D01*
X176403809Y-150907619D01*
X176403809Y-150526666D01*
X176213333Y-150145714D01*
X176022857Y-149955238D01*
X175641904Y-149764761D01*
X174880000Y-149574285D01*
X174499047Y-149383809D01*
X174308571Y-149193333D01*
X174118095Y-148812380D01*
X174118095Y-148431428D01*
X174308571Y-148050476D01*
X174499047Y-147860000D01*
X174880000Y-147669523D01*
X175832380Y-147669523D01*
X176403809Y-147860000D01*
X178118095Y-151669523D02*
X178118095Y-147669523D01*
X179641904Y-147669523D01*
X180022857Y-147860000D01*
X180213333Y-148050476D01*
X180403809Y-148431428D01*
X180403809Y-149002857D01*
X180213333Y-149383809D01*
X180022857Y-149574285D01*
X179641904Y-149764761D01*
X178118095Y-149764761D01*
X187260952Y-147860000D02*
X186880000Y-147669523D01*
X186308571Y-147669523D01*
X185737142Y-147860000D01*
X185356190Y-148240952D01*
X185165714Y-148621904D01*
X184975238Y-149383809D01*
X184975238Y-149955238D01*
X185165714Y-150717142D01*
X185356190Y-151098095D01*
X185737142Y-151479047D01*
X186308571Y-151669523D01*
X186689523Y-151669523D01*
X187260952Y-151479047D01*
X187451428Y-151288571D01*
X187451428Y-149955238D01*
X186689523Y-149955238D01*
X189165714Y-151669523D02*
X189165714Y-147669523D01*
X191451428Y-151669523D01*
X191451428Y-147669523D01*
X193356190Y-151669523D02*
X193356190Y-147669523D01*
X194308571Y-147669523D01*
X194880000Y-147860000D01*
X195260952Y-148240952D01*
X195451428Y-148621904D01*
X195641904Y-149383809D01*
X195641904Y-149955238D01*
X195451428Y-150717142D01*
X195260952Y-151098095D01*
X194880000Y-151479047D01*
X194308571Y-151669523D01*
X193356190Y-151669523D01*
X35496666Y-91979523D02*
X35496666Y-87979523D01*
X36830000Y-90836666D01*
X38163333Y-87979523D01*
X38163333Y-91979523D01*
X21871214Y-143789285D02*
X22442642Y-143979761D01*
X22633119Y-144170238D01*
X22823595Y-144551190D01*
X22823595Y-145122619D01*
X22633119Y-145503571D01*
X22442642Y-145694047D01*
X22061690Y-145884523D01*
X20537880Y-145884523D01*
X20537880Y-141884523D01*
X21871214Y-141884523D01*
X22252166Y-142075000D01*
X22442642Y-142265476D01*
X22633119Y-142646428D01*
X22633119Y-143027380D01*
X22442642Y-143408333D01*
X22252166Y-143598809D01*
X21871214Y-143789285D01*
X20537880Y-143789285D01*
X52333333Y-107809523D02*
X51000000Y-105904761D01*
X50047619Y-107809523D02*
X50047619Y-103809523D01*
X51571428Y-103809523D01*
X51952380Y-104000000D01*
X52142857Y-104190476D01*
X52333333Y-104571428D01*
X52333333Y-105142857D01*
X52142857Y-105523809D01*
X51952380Y-105714285D01*
X51571428Y-105904761D01*
X50047619Y-105904761D01*
X53666666Y-103809523D02*
X56333333Y-107809523D01*
X56333333Y-103809523D02*
X53666666Y-107809523D01*
X247952380Y-54000000D02*
X247571428Y-53809523D01*
X247000000Y-53809523D01*
X246428571Y-54000000D01*
X246047619Y-54380952D01*
X245857142Y-54761904D01*
X245666666Y-55523809D01*
X245666666Y-56095238D01*
X245857142Y-56857142D01*
X246047619Y-57238095D01*
X246428571Y-57619047D01*
X247000000Y-57809523D01*
X247380952Y-57809523D01*
X247952380Y-57619047D01*
X248142857Y-57428571D01*
X248142857Y-56095238D01*
X247380952Y-56095238D01*
X249857142Y-57809523D02*
X249857142Y-53809523D01*
X252142857Y-57809523D01*
X252142857Y-53809523D01*
X254047619Y-57809523D02*
X254047619Y-53809523D01*
X255000000Y-53809523D01*
X255571428Y-54000000D01*
X255952380Y-54380952D01*
X256142857Y-54761904D01*
X256333333Y-55523809D01*
X256333333Y-56095238D01*
X256142857Y-56857142D01*
X255952380Y-57238095D01*
X255571428Y-57619047D01*
X255000000Y-57809523D01*
X254047619Y-57809523D01*
X184885039Y-53972876D02*
X184504087Y-53782399D01*
X183932659Y-53782399D01*
X183361230Y-53972876D01*
X182980278Y-54353828D01*
X182789801Y-54734780D01*
X182599325Y-55496685D01*
X182599325Y-56068114D01*
X182789801Y-56830018D01*
X182980278Y-57210971D01*
X183361230Y-57591923D01*
X183932659Y-57782399D01*
X184313611Y-57782399D01*
X184885039Y-57591923D01*
X185075516Y-57401447D01*
X185075516Y-56068114D01*
X184313611Y-56068114D01*
X186789801Y-57782399D02*
X186789801Y-53782399D01*
X189075516Y-57782399D01*
X189075516Y-53782399D01*
X190980278Y-57782399D02*
X190980278Y-53782399D01*
X191932659Y-53782399D01*
X192504087Y-53972876D01*
X192885039Y-54353828D01*
X193075516Y-54734780D01*
X193265992Y-55496685D01*
X193265992Y-56068114D01*
X193075516Y-56830018D01*
X192885039Y-57210971D01*
X192504087Y-57591923D01*
X191932659Y-57782399D01*
X190980278Y-57782399D01*
X245872380Y-59359523D02*
X248158095Y-59359523D01*
X247015238Y-63359523D02*
X247015238Y-59359523D01*
X249110476Y-59359523D02*
X251777142Y-63359523D01*
X251777142Y-59359523D02*
X249110476Y-63359523D01*
X244920000Y-65799523D02*
X245681904Y-65799523D01*
X246062857Y-65990000D01*
X246443809Y-66370952D01*
X246634285Y-67132857D01*
X246634285Y-68466190D01*
X246443809Y-69228095D01*
X246062857Y-69609047D01*
X245681904Y-69799523D01*
X244920000Y-69799523D01*
X244539047Y-69609047D01*
X244158095Y-69228095D01*
X243967619Y-68466190D01*
X243967619Y-67132857D01*
X244158095Y-66370952D01*
X244539047Y-65990000D01*
X244920000Y-65799523D01*
X248348571Y-65799523D02*
X248348571Y-69037619D01*
X248539047Y-69418571D01*
X248729523Y-69609047D01*
X249110476Y-69799523D01*
X249872380Y-69799523D01*
X250253333Y-69609047D01*
X250443809Y-69418571D01*
X250634285Y-69037619D01*
X250634285Y-65799523D01*
X251967619Y-65799523D02*
X254253333Y-65799523D01*
X253110476Y-69799523D02*
X253110476Y-65799523D01*
X56952380Y-111000000D02*
X56571428Y-110809523D01*
X56000000Y-110809523D01*
X55428571Y-111000000D01*
X55047619Y-111380952D01*
X54857142Y-111761904D01*
X54666666Y-112523809D01*
X54666666Y-113095238D01*
X54857142Y-113857142D01*
X55047619Y-114238095D01*
X55428571Y-114619047D01*
X56000000Y-114809523D01*
X56380952Y-114809523D01*
X56952380Y-114619047D01*
X57142857Y-114428571D01*
X57142857Y-113095238D01*
X56380952Y-113095238D01*
X58857142Y-114809523D02*
X58857142Y-110809523D01*
X61142857Y-114809523D01*
X61142857Y-110809523D01*
X63047619Y-114809523D02*
X63047619Y-110809523D01*
X64000000Y-110809523D01*
X64571428Y-111000000D01*
X64952380Y-111380952D01*
X65142857Y-111761904D01*
X65333333Y-112523809D01*
X65333333Y-113095238D01*
X65142857Y-113857142D01*
X64952380Y-114238095D01*
X64571428Y-114619047D01*
X64000000Y-114809523D01*
X63047619Y-114809523D01*
D11*
X255718571Y-150142857D02*
X255718571Y-149857142D01*
X255790000Y-149714285D01*
X255932857Y-149571428D01*
X256218571Y-149499999D01*
X256718571Y-149499999D01*
X257004285Y-149571428D01*
X257147142Y-149714285D01*
X257218571Y-149857142D01*
X257218571Y-150142857D01*
X257147142Y-150285714D01*
X257004285Y-150428571D01*
X256718571Y-150499999D01*
X256218571Y-150499999D01*
X255932857Y-150428571D01*
X255790000Y-150285714D01*
X255718571Y-150142857D01*
X257218571Y-148857142D02*
X255718571Y-148857142D01*
X257218571Y-148214285D02*
X256432857Y-148214285D01*
X256290000Y-148285714D01*
X256218571Y-148428571D01*
X256218571Y-148642857D01*
X256290000Y-148785714D01*
X256361428Y-148857142D01*
X257218571Y-147499999D02*
X256218571Y-147499999D01*
X256361428Y-147499999D02*
X256290000Y-147428571D01*
X256218571Y-147285714D01*
X256218571Y-147071428D01*
X256290000Y-146928571D01*
X256432857Y-146857142D01*
X257218571Y-146857142D01*
X256432857Y-146857142D02*
X256290000Y-146785714D01*
X256218571Y-146642857D01*
X256218571Y-146428571D01*
X256290000Y-146285714D01*
X256432857Y-146214285D01*
X257218571Y-146214285D01*
X256218571Y-145499999D02*
X257718571Y-145499999D01*
X256290000Y-145499999D02*
X256218571Y-145357142D01*
X256218571Y-145071428D01*
X256290000Y-144928571D01*
X256361428Y-144857142D01*
X256504285Y-144785714D01*
X256932857Y-144785714D01*
X257075714Y-144857142D01*
X257147142Y-144928571D01*
X257218571Y-145071428D01*
X257218571Y-145357142D01*
X257147142Y-145499999D01*
X257218571Y-144142857D02*
X256218571Y-144142857D01*
X255718571Y-144142857D02*
X255790000Y-144214285D01*
X255861428Y-144142857D01*
X255790000Y-144071428D01*
X255718571Y-144142857D01*
X255861428Y-144142857D01*
X256218571Y-142428571D02*
X257218571Y-142071428D01*
X256218571Y-141714285D01*
X257147142Y-140571428D02*
X257218571Y-140714285D01*
X257218571Y-140999999D01*
X257147142Y-141142857D01*
X257004285Y-141214285D01*
X256432857Y-141214285D01*
X256290000Y-141142857D01*
X256218571Y-140999999D01*
X256218571Y-140714285D01*
X256290000Y-140571428D01*
X256432857Y-140499999D01*
X256575714Y-140499999D01*
X256718571Y-141214285D01*
X257218571Y-139857142D02*
X256218571Y-139857142D01*
X256504285Y-139857142D02*
X256361428Y-139785714D01*
X256290000Y-139714285D01*
X256218571Y-139571428D01*
X256218571Y-139428571D01*
X257147142Y-138999999D02*
X257218571Y-138857142D01*
X257218571Y-138571428D01*
X257147142Y-138428571D01*
X257004285Y-138357142D01*
X256932857Y-138357142D01*
X256790000Y-138428571D01*
X256718571Y-138571428D01*
X256718571Y-138785714D01*
X256647142Y-138928571D01*
X256504285Y-138999999D01*
X256432857Y-138999999D01*
X256290000Y-138928571D01*
X256218571Y-138785714D01*
X256218571Y-138571428D01*
X256290000Y-138428571D01*
X257218571Y-137714285D02*
X256218571Y-137714285D01*
X255718571Y-137714285D02*
X255790000Y-137785714D01*
X255861428Y-137714285D01*
X255790000Y-137642857D01*
X255718571Y-137714285D01*
X255861428Y-137714285D01*
X257218571Y-136785714D02*
X257147142Y-136928571D01*
X257075714Y-136999999D01*
X256932857Y-137071428D01*
X256504285Y-137071428D01*
X256361428Y-136999999D01*
X256290000Y-136928571D01*
X256218571Y-136785714D01*
X256218571Y-136571428D01*
X256290000Y-136428571D01*
X256361428Y-136357142D01*
X256504285Y-136285714D01*
X256932857Y-136285714D01*
X257075714Y-136357142D01*
X257147142Y-136428571D01*
X257218571Y-136571428D01*
X257218571Y-136785714D01*
X256218571Y-135642857D02*
X257218571Y-135642857D01*
X256361428Y-135642857D02*
X256290000Y-135571428D01*
X256218571Y-135428571D01*
X256218571Y-135214285D01*
X256290000Y-135071428D01*
X256432857Y-134999999D01*
X257218571Y-134999999D01*
X257218571Y-133142857D02*
X256218571Y-133142857D01*
X256361428Y-133142857D02*
X256290000Y-133071428D01*
X256218571Y-132928571D01*
X256218571Y-132714285D01*
X256290000Y-132571428D01*
X256432857Y-132500000D01*
X257218571Y-132500000D01*
X256432857Y-132500000D02*
X256290000Y-132428571D01*
X256218571Y-132285714D01*
X256218571Y-132071428D01*
X256290000Y-131928571D01*
X256432857Y-131857142D01*
X257218571Y-131857142D01*
X257218571Y-131142857D02*
X255718571Y-131142857D01*
X256290000Y-131142857D02*
X256218571Y-131000000D01*
X256218571Y-130714285D01*
X256290000Y-130571428D01*
X256361428Y-130500000D01*
X256504285Y-130428571D01*
X256932857Y-130428571D01*
X257075714Y-130500000D01*
X257147142Y-130571428D01*
X257218571Y-130714285D01*
X257218571Y-131000000D01*
X257147142Y-131142857D01*
X257075714Y-129785714D02*
X257147142Y-129714285D01*
X257218571Y-129785714D01*
X257147142Y-129857142D01*
X257075714Y-129785714D01*
X257218571Y-129785714D01*
X255861428Y-129142857D02*
X255790000Y-129071428D01*
X255718571Y-128928571D01*
X255718571Y-128571428D01*
X255790000Y-128428571D01*
X255861428Y-128357142D01*
X256004285Y-128285714D01*
X256147142Y-128285714D01*
X256361428Y-128357142D01*
X257218571Y-129214285D01*
X257218571Y-128285714D01*
X255718571Y-127357142D02*
X255718571Y-127214285D01*
X255790000Y-127071428D01*
X255861428Y-127000000D01*
X256004285Y-126928571D01*
X256290000Y-126857142D01*
X256647142Y-126857142D01*
X256932857Y-126928571D01*
X257075714Y-127000000D01*
X257147142Y-127071428D01*
X257218571Y-127214285D01*
X257218571Y-127357142D01*
X257147142Y-127500000D01*
X257075714Y-127571428D01*
X256932857Y-127642857D01*
X256647142Y-127714285D01*
X256290000Y-127714285D01*
X256004285Y-127642857D01*
X255861428Y-127571428D01*
X255790000Y-127500000D01*
X255718571Y-127357142D01*
X255861428Y-126285714D02*
X255790000Y-126214285D01*
X255718571Y-126071428D01*
X255718571Y-125714285D01*
X255790000Y-125571428D01*
X255861428Y-125500000D01*
X256004285Y-125428571D01*
X256147142Y-125428571D01*
X256361428Y-125500000D01*
X257218571Y-126357142D01*
X257218571Y-125428571D01*
X256218571Y-124142857D02*
X257218571Y-124142857D01*
X255647142Y-124500000D02*
X256718571Y-124857142D01*
X256718571Y-123928571D01*
X257075714Y-123357142D02*
X257147142Y-123285714D01*
X257218571Y-123357142D01*
X257147142Y-123428571D01*
X257075714Y-123357142D01*
X257218571Y-123357142D01*
X255718571Y-122357142D02*
X255718571Y-122214285D01*
X255790000Y-122071428D01*
X255861428Y-122000000D01*
X256004285Y-121928571D01*
X256290000Y-121857142D01*
X256647142Y-121857142D01*
X256932857Y-121928571D01*
X257075714Y-122000000D01*
X257147142Y-122071428D01*
X257218571Y-122214285D01*
X257218571Y-122357142D01*
X257147142Y-122500000D01*
X257075714Y-122571428D01*
X256932857Y-122642857D01*
X256647142Y-122714285D01*
X256290000Y-122714285D01*
X256004285Y-122642857D01*
X255861428Y-122571428D01*
X255790000Y-122500000D01*
X255718571Y-122357142D01*
X257075714Y-121214285D02*
X257147142Y-121142857D01*
X257218571Y-121214285D01*
X257147142Y-121285714D01*
X257075714Y-121214285D01*
X257218571Y-121214285D01*
X255718571Y-120214285D02*
X255718571Y-120071428D01*
X255790000Y-119928571D01*
X255861428Y-119857142D01*
X256004285Y-119785714D01*
X256290000Y-119714285D01*
X256647142Y-119714285D01*
X256932857Y-119785714D01*
X257075714Y-119857142D01*
X257147142Y-119928571D01*
X257218571Y-120071428D01*
X257218571Y-120214285D01*
X257147142Y-120357142D01*
X257075714Y-120428571D01*
X256932857Y-120500000D01*
X256647142Y-120571428D01*
X256290000Y-120571428D01*
X256004285Y-120500000D01*
X255861428Y-120428571D01*
X255790000Y-120357142D01*
X255718571Y-120214285D01*
X256647142Y-117928571D02*
X256647142Y-116785714D01*
X257218571Y-114928571D02*
X255718571Y-114928571D01*
X257218571Y-114285714D02*
X256432857Y-114285714D01*
X256290000Y-114357142D01*
X256218571Y-114500000D01*
X256218571Y-114714285D01*
X256290000Y-114857142D01*
X256361428Y-114928571D01*
X256218571Y-113785714D02*
X256218571Y-113214285D01*
X255718571Y-113571428D02*
X257004285Y-113571428D01*
X257147142Y-113500000D01*
X257218571Y-113357142D01*
X257218571Y-113214285D01*
X256218571Y-112928571D02*
X256218571Y-112357142D01*
X255718571Y-112714285D02*
X257004285Y-112714285D01*
X257147142Y-112642857D01*
X257218571Y-112500000D01*
X257218571Y-112357142D01*
X256218571Y-111857142D02*
X257718571Y-111857142D01*
X256290000Y-111857142D02*
X256218571Y-111714285D01*
X256218571Y-111428571D01*
X256290000Y-111285714D01*
X256361428Y-111214285D01*
X256504285Y-111142857D01*
X256932857Y-111142857D01*
X257075714Y-111214285D01*
X257147142Y-111285714D01*
X257218571Y-111428571D01*
X257218571Y-111714285D01*
X257147142Y-111857142D01*
X257147142Y-110571428D02*
X257218571Y-110428571D01*
X257218571Y-110142857D01*
X257147142Y-110000000D01*
X257004285Y-109928571D01*
X256932857Y-109928571D01*
X256790000Y-110000000D01*
X256718571Y-110142857D01*
X256718571Y-110357142D01*
X256647142Y-110500000D01*
X256504285Y-110571428D01*
X256432857Y-110571428D01*
X256290000Y-110500000D01*
X256218571Y-110357142D01*
X256218571Y-110142857D01*
X256290000Y-110000000D01*
X257075714Y-109285714D02*
X257147142Y-109214285D01*
X257218571Y-109285714D01*
X257147142Y-109357142D01*
X257075714Y-109285714D01*
X257218571Y-109285714D01*
X256290000Y-109285714D02*
X256361428Y-109214285D01*
X256432857Y-109285714D01*
X256361428Y-109357142D01*
X256290000Y-109285714D01*
X256432857Y-109285714D01*
X255647142Y-107500000D02*
X257575714Y-108785714D01*
X255647142Y-105928571D02*
X257575714Y-107214285D01*
X256218571Y-104785714D02*
X257432857Y-104785714D01*
X257575714Y-104857142D01*
X257647142Y-104928571D01*
X257718571Y-105071428D01*
X257718571Y-105285714D01*
X257647142Y-105428571D01*
X257147142Y-104785714D02*
X257218571Y-104928571D01*
X257218571Y-105214285D01*
X257147142Y-105357142D01*
X257075714Y-105428571D01*
X256932857Y-105499999D01*
X256504285Y-105499999D01*
X256361428Y-105428571D01*
X256290000Y-105357142D01*
X256218571Y-105214285D01*
X256218571Y-104928571D01*
X256290000Y-104785714D01*
X257218571Y-104071428D02*
X256218571Y-104071428D01*
X255718571Y-104071428D02*
X255790000Y-104142857D01*
X255861428Y-104071428D01*
X255790000Y-103999999D01*
X255718571Y-104071428D01*
X255861428Y-104071428D01*
X256218571Y-103571428D02*
X256218571Y-102999999D01*
X255718571Y-103357142D02*
X257004285Y-103357142D01*
X257147142Y-103285714D01*
X257218571Y-103142857D01*
X257218571Y-102999999D01*
X257218571Y-102285714D02*
X257147142Y-102428571D01*
X257004285Y-102499999D01*
X255718571Y-102499999D01*
X257218571Y-101071428D02*
X256432857Y-101071428D01*
X256290000Y-101142857D01*
X256218571Y-101285714D01*
X256218571Y-101571428D01*
X256290000Y-101714285D01*
X257147142Y-101071428D02*
X257218571Y-101214285D01*
X257218571Y-101571428D01*
X257147142Y-101714285D01*
X257004285Y-101785714D01*
X256861428Y-101785714D01*
X256718571Y-101714285D01*
X256647142Y-101571428D01*
X256647142Y-101214285D01*
X256575714Y-101071428D01*
X257218571Y-100357142D02*
X255718571Y-100357142D01*
X256290000Y-100357142D02*
X256218571Y-100214285D01*
X256218571Y-99928571D01*
X256290000Y-99785714D01*
X256361428Y-99714285D01*
X256504285Y-99642857D01*
X256932857Y-99642857D01*
X257075714Y-99714285D01*
X257147142Y-99785714D01*
X257218571Y-99928571D01*
X257218571Y-100214285D01*
X257147142Y-100357142D01*
X257075714Y-98999999D02*
X257147142Y-98928571D01*
X257218571Y-98999999D01*
X257147142Y-99071428D01*
X257075714Y-98999999D01*
X257218571Y-98999999D01*
X257218571Y-98285714D02*
X256218571Y-98285714D01*
X255718571Y-98285714D02*
X255790000Y-98357142D01*
X255861428Y-98285714D01*
X255790000Y-98214285D01*
X255718571Y-98285714D01*
X255861428Y-98285714D01*
X257218571Y-97571428D02*
X256218571Y-97571428D01*
X256504285Y-97571428D02*
X256361428Y-97500000D01*
X256290000Y-97428571D01*
X256218571Y-97285714D01*
X256218571Y-97142857D01*
X257147142Y-96714285D02*
X257218571Y-96571428D01*
X257218571Y-96285714D01*
X257147142Y-96142857D01*
X257004285Y-96071428D01*
X256932857Y-96071428D01*
X256790000Y-96142857D01*
X256718571Y-96285714D01*
X256718571Y-96500000D01*
X256647142Y-96642857D01*
X256504285Y-96714285D01*
X256432857Y-96714285D01*
X256290000Y-96642857D01*
X256218571Y-96500000D01*
X256218571Y-96285714D01*
X256290000Y-96142857D01*
X256218571Y-95642857D02*
X256218571Y-95071428D01*
X255718571Y-95428571D02*
X257004285Y-95428571D01*
X257147142Y-95357142D01*
X257218571Y-95214285D01*
X257218571Y-95071428D01*
X257147142Y-94000000D02*
X257218571Y-94142857D01*
X257218571Y-94428571D01*
X257147142Y-94571428D01*
X257004285Y-94642857D01*
X256432857Y-94642857D01*
X256290000Y-94571428D01*
X256218571Y-94428571D01*
X256218571Y-94142857D01*
X256290000Y-94000000D01*
X256432857Y-93928571D01*
X256575714Y-93928571D01*
X256718571Y-94642857D01*
X257218571Y-92642857D02*
X256432857Y-92642857D01*
X256290000Y-92714285D01*
X256218571Y-92857142D01*
X256218571Y-93142857D01*
X256290000Y-93285714D01*
X257147142Y-92642857D02*
X257218571Y-92785714D01*
X257218571Y-93142857D01*
X257147142Y-93285714D01*
X257004285Y-93357142D01*
X256861428Y-93357142D01*
X256718571Y-93285714D01*
X256647142Y-93142857D01*
X256647142Y-92785714D01*
X256575714Y-92642857D01*
X257075714Y-91928571D02*
X257147142Y-91857142D01*
X257218571Y-91928571D01*
X257147142Y-92000000D01*
X257075714Y-91928571D01*
X257218571Y-91928571D01*
X256218571Y-91428571D02*
X256218571Y-90857142D01*
X257218571Y-91214285D02*
X255932857Y-91214285D01*
X255790000Y-91142857D01*
X255718571Y-90999999D01*
X255718571Y-90857142D01*
X257218571Y-90357142D02*
X256218571Y-90357142D01*
X256504285Y-90357142D02*
X256361428Y-90285714D01*
X256290000Y-90214285D01*
X256218571Y-90071428D01*
X256218571Y-89928571D01*
X255647142Y-88357142D02*
X257575714Y-89642857D01*
X257218571Y-87857142D02*
X256218571Y-87857142D01*
X256504285Y-87857142D02*
X256361428Y-87785714D01*
X256290000Y-87714285D01*
X256218571Y-87571428D01*
X256218571Y-87428571D01*
X257147142Y-86357142D02*
X257218571Y-86500000D01*
X257218571Y-86785714D01*
X257147142Y-86928571D01*
X257004285Y-87000000D01*
X256432857Y-87000000D01*
X256290000Y-86928571D01*
X256218571Y-86785714D01*
X256218571Y-86500000D01*
X256290000Y-86357142D01*
X256432857Y-86285714D01*
X256575714Y-86285714D01*
X256718571Y-87000000D01*
X256218571Y-85785714D02*
X257218571Y-85428571D01*
X256218571Y-85071428D01*
X257147142Y-83928571D02*
X257218571Y-84071428D01*
X257218571Y-84357142D01*
X257147142Y-84500000D01*
X257004285Y-84571428D01*
X256432857Y-84571428D01*
X256290000Y-84500000D01*
X256218571Y-84357142D01*
X256218571Y-84071428D01*
X256290000Y-83928571D01*
X256432857Y-83857142D01*
X256575714Y-83857142D01*
X256718571Y-84571428D01*
X257218571Y-83214285D02*
X256218571Y-83214285D01*
X256504285Y-83214285D02*
X256361428Y-83142857D01*
X256290000Y-83071428D01*
X256218571Y-82928571D01*
X256218571Y-82785714D01*
X257147142Y-82357142D02*
X257218571Y-82214285D01*
X257218571Y-81928571D01*
X257147142Y-81785714D01*
X257004285Y-81714285D01*
X256932857Y-81714285D01*
X256790000Y-81785714D01*
X256718571Y-81928571D01*
X256718571Y-82142857D01*
X256647142Y-82285714D01*
X256504285Y-82357142D01*
X256432857Y-82357142D01*
X256290000Y-82285714D01*
X256218571Y-82142857D01*
X256218571Y-81928571D01*
X256290000Y-81785714D01*
X257218571Y-80428571D02*
X256432857Y-80428571D01*
X256290000Y-80499999D01*
X256218571Y-80642857D01*
X256218571Y-80928571D01*
X256290000Y-81071428D01*
X257147142Y-80428571D02*
X257218571Y-80571428D01*
X257218571Y-80928571D01*
X257147142Y-81071428D01*
X257004285Y-81142857D01*
X256861428Y-81142857D01*
X256718571Y-81071428D01*
X256647142Y-80928571D01*
X256647142Y-80571428D01*
X256575714Y-80428571D01*
X257218571Y-79071428D02*
X256432857Y-79071428D01*
X256290000Y-79142857D01*
X256218571Y-79285714D01*
X256218571Y-79571428D01*
X256290000Y-79714285D01*
X257147142Y-79071428D02*
X257218571Y-79214285D01*
X257218571Y-79571428D01*
X257147142Y-79714285D01*
X257004285Y-79785714D01*
X256861428Y-79785714D01*
X256718571Y-79714285D01*
X256647142Y-79571428D01*
X256647142Y-79214285D01*
X256575714Y-79071428D01*
X257218571Y-78142857D02*
X257147142Y-78285714D01*
X257004285Y-78357142D01*
X255718571Y-78357142D01*
X255647142Y-76500000D02*
X257575714Y-77785714D01*
X255718571Y-75714285D02*
X255718571Y-75428571D01*
X255790000Y-75285714D01*
X255932857Y-75142857D01*
X256218571Y-75071428D01*
X256718571Y-75071428D01*
X257004285Y-75142857D01*
X257147142Y-75285714D01*
X257218571Y-75428571D01*
X257218571Y-75714285D01*
X257147142Y-75857142D01*
X257004285Y-76000000D01*
X256718571Y-76071428D01*
X256218571Y-76071428D01*
X255932857Y-76000000D01*
X255790000Y-75857142D01*
X255718571Y-75714285D01*
X257218571Y-74428571D02*
X255718571Y-74428571D01*
X257218571Y-73785714D02*
X256432857Y-73785714D01*
X256290000Y-73857142D01*
X256218571Y-74000000D01*
X256218571Y-74214285D01*
X256290000Y-74357142D01*
X256361428Y-74428571D01*
X257218571Y-73071428D02*
X256218571Y-73071428D01*
X256361428Y-73071428D02*
X256290000Y-73000000D01*
X256218571Y-72857142D01*
X256218571Y-72642857D01*
X256290000Y-72500000D01*
X256432857Y-72428571D01*
X257218571Y-72428571D01*
X256432857Y-72428571D02*
X256290000Y-72357142D01*
X256218571Y-72214285D01*
X256218571Y-72000000D01*
X256290000Y-71857142D01*
X256432857Y-71785714D01*
X257218571Y-71785714D01*
X257218571Y-71071428D02*
X255718571Y-71071428D01*
X255718571Y-70500000D01*
X255790000Y-70357142D01*
X255861428Y-70285714D01*
X256004285Y-70214285D01*
X256218571Y-70214285D01*
X256361428Y-70285714D01*
X256432857Y-70357142D01*
X256504285Y-70500000D01*
X256504285Y-71071428D01*
X257218571Y-69571428D02*
X256218571Y-69571428D01*
X255718571Y-69571428D02*
X255790000Y-69642857D01*
X255861428Y-69571428D01*
X255790000Y-69500000D01*
X255718571Y-69571428D01*
X255861428Y-69571428D01*
D10*
X51952380Y-96285714D02*
X55000000Y-96285714D01*
X53476190Y-97809523D02*
X53476190Y-94761904D01*
X59000000Y-97809523D02*
X56714285Y-97809523D01*
X57857142Y-97809523D02*
X57857142Y-93809523D01*
X57476190Y-94380952D01*
X57095238Y-94761904D01*
X56714285Y-94952380D01*
X60523809Y-94190476D02*
X60714285Y-94000000D01*
X61095238Y-93809523D01*
X62047619Y-93809523D01*
X62428571Y-94000000D01*
X62619047Y-94190476D01*
X62809523Y-94571428D01*
X62809523Y-94952380D01*
X62619047Y-95523809D01*
X60333333Y-97809523D01*
X62809523Y-97809523D01*
X63952380Y-93809523D02*
X65285714Y-97809523D01*
X66619047Y-93809523D01*
X150051428Y-151669523D02*
X150051428Y-147669523D01*
X151003809Y-147669523D01*
X151575238Y-147860000D01*
X151956190Y-148240952D01*
X152146666Y-148621904D01*
X152337142Y-149383809D01*
X152337142Y-149955238D01*
X152146666Y-150717142D01*
X151956190Y-151098095D01*
X151575238Y-151479047D01*
X151003809Y-151669523D01*
X150051428Y-151669523D01*
X153860952Y-151479047D02*
X154432380Y-151669523D01*
X155384761Y-151669523D01*
X155765714Y-151479047D01*
X155956190Y-151288571D01*
X156146666Y-150907619D01*
X156146666Y-150526666D01*
X155956190Y-150145714D01*
X155765714Y-149955238D01*
X155384761Y-149764761D01*
X154622857Y-149574285D01*
X154241904Y-149383809D01*
X154051428Y-149193333D01*
X153860952Y-148812380D01*
X153860952Y-148431428D01*
X154051428Y-148050476D01*
X154241904Y-147860000D01*
X154622857Y-147669523D01*
X155575238Y-147669523D01*
X156146666Y-147860000D01*
X157860952Y-151669523D02*
X157860952Y-147669523D01*
X159384761Y-147669523D01*
X159765714Y-147860000D01*
X159956190Y-148050476D01*
X160146666Y-148431428D01*
X160146666Y-149002857D01*
X159956190Y-149383809D01*
X159765714Y-149574285D01*
X159384761Y-149764761D01*
X157860952Y-149764761D01*
X161860952Y-150145714D02*
X164908571Y-150145714D01*
X163384761Y-151669523D02*
X163384761Y-148621904D01*
X242952380Y-37285714D02*
X246000000Y-37285714D01*
X244476190Y-38809523D02*
X244476190Y-35761904D01*
X250000000Y-38809523D02*
X247714285Y-38809523D01*
X248857142Y-38809523D02*
X248857142Y-34809523D01*
X248476190Y-35380952D01*
X248095238Y-35761904D01*
X247714285Y-35952380D01*
X251523809Y-35190476D02*
X251714285Y-35000000D01*
X252095238Y-34809523D01*
X253047619Y-34809523D01*
X253428571Y-35000000D01*
X253619047Y-35190476D01*
X253809523Y-35571428D01*
X253809523Y-35952380D01*
X253619047Y-36523809D01*
X251333333Y-38809523D01*
X253809523Y-38809523D01*
X254952380Y-34809523D02*
X256285714Y-38809523D01*
X257619047Y-34809523D01*
X35857142Y-64039523D02*
X35857142Y-60039523D01*
X38142857Y-64039523D01*
X38142857Y-60039523D01*
X20332619Y-126741666D02*
X22237380Y-126741666D01*
X19951666Y-127884523D02*
X21285000Y-123884523D01*
X22618333Y-127884523D01*
X168952380Y-40589523D02*
X171238095Y-40589523D01*
X170095238Y-44589523D02*
X170095238Y-40589523D01*
X172190476Y-40589523D02*
X174857142Y-44589523D01*
X174857142Y-40589523D02*
X172190476Y-44589523D01*
X164285714Y-51029523D02*
X164285714Y-47029523D01*
X166190476Y-51029523D02*
X166190476Y-47029523D01*
X168476190Y-51029523D01*
X168476190Y-47029523D01*
X170380952Y-51029523D02*
X170380952Y-47029523D01*
X171904761Y-47029523D01*
X172285714Y-47220000D01*
X172476190Y-47410476D01*
X172666666Y-47791428D01*
X172666666Y-48362857D01*
X172476190Y-48743809D01*
X172285714Y-48934285D01*
X171904761Y-49124761D01*
X170380952Y-49124761D01*
X174380952Y-47029523D02*
X174380952Y-50267619D01*
X174571428Y-50648571D01*
X174761904Y-50839047D01*
X175142857Y-51029523D01*
X175904761Y-51029523D01*
X176285714Y-50839047D01*
X176476190Y-50648571D01*
X176666666Y-50267619D01*
X176666666Y-47029523D01*
X178000000Y-47029523D02*
X180285714Y-47029523D01*
X179142857Y-51029523D02*
X179142857Y-47029523D01*
D12*
%TO.C,RV2*%
X95414761Y-56792380D02*
X95081428Y-56316190D01*
X94843333Y-56792380D02*
X94843333Y-55792380D01*
X95224285Y-55792380D01*
X95319523Y-55840000D01*
X95367142Y-55887619D01*
X95414761Y-55982857D01*
X95414761Y-56125714D01*
X95367142Y-56220952D01*
X95319523Y-56268571D01*
X95224285Y-56316190D01*
X94843333Y-56316190D01*
X95700476Y-55792380D02*
X96033809Y-56792380D01*
X96367142Y-55792380D01*
X96652857Y-55887619D02*
X96700476Y-55840000D01*
X96795714Y-55792380D01*
X97033809Y-55792380D01*
X97129047Y-55840000D01*
X97176666Y-55887619D01*
X97224285Y-55982857D01*
X97224285Y-56078095D01*
X97176666Y-56220952D01*
X96605238Y-56792380D01*
X97224285Y-56792380D01*
%TO.C,R6*%
X39203333Y-151582380D02*
X38870000Y-151106190D01*
X38631904Y-151582380D02*
X38631904Y-150582380D01*
X39012857Y-150582380D01*
X39108095Y-150630000D01*
X39155714Y-150677619D01*
X39203333Y-150772857D01*
X39203333Y-150915714D01*
X39155714Y-151010952D01*
X39108095Y-151058571D01*
X39012857Y-151106190D01*
X38631904Y-151106190D01*
X40060476Y-150582380D02*
X39870000Y-150582380D01*
X39774761Y-150630000D01*
X39727142Y-150677619D01*
X39631904Y-150820476D01*
X39584285Y-151010952D01*
X39584285Y-151391904D01*
X39631904Y-151487142D01*
X39679523Y-151534761D01*
X39774761Y-151582380D01*
X39965238Y-151582380D01*
X40060476Y-151534761D01*
X40108095Y-151487142D01*
X40155714Y-151391904D01*
X40155714Y-151153809D01*
X40108095Y-151058571D01*
X40060476Y-151010952D01*
X39965238Y-150963333D01*
X39774761Y-150963333D01*
X39679523Y-151010952D01*
X39631904Y-151058571D01*
X39584285Y-151153809D01*
%TO.C,J1*%
X246497380Y-46338333D02*
X247211666Y-46338333D01*
X247354523Y-46385952D01*
X247449761Y-46481190D01*
X247497380Y-46624047D01*
X247497380Y-46719285D01*
X247497380Y-45338333D02*
X247497380Y-45909761D01*
X247497380Y-45624047D02*
X246497380Y-45624047D01*
X246640238Y-45719285D01*
X246735476Y-45814523D01*
X246783095Y-45909761D01*
%TO.C,R1*%
X236053333Y-76482380D02*
X235720000Y-76006190D01*
X235481904Y-76482380D02*
X235481904Y-75482380D01*
X235862857Y-75482380D01*
X235958095Y-75530000D01*
X236005714Y-75577619D01*
X236053333Y-75672857D01*
X236053333Y-75815714D01*
X236005714Y-75910952D01*
X235958095Y-75958571D01*
X235862857Y-76006190D01*
X235481904Y-76006190D01*
X237005714Y-76482380D02*
X236434285Y-76482380D01*
X236720000Y-76482380D02*
X236720000Y-75482380D01*
X236624761Y-75625238D01*
X236529523Y-75720476D01*
X236434285Y-75768095D01*
%TO.C,J9*%
X180887380Y-46338333D02*
X181601666Y-46338333D01*
X181744523Y-46385952D01*
X181839761Y-46481190D01*
X181887380Y-46624047D01*
X181887380Y-46719285D01*
X181887380Y-45814523D02*
X181887380Y-45624047D01*
X181839761Y-45528809D01*
X181792142Y-45481190D01*
X181649285Y-45385952D01*
X181458809Y-45338333D01*
X181077857Y-45338333D01*
X180982619Y-45385952D01*
X180935000Y-45433571D01*
X180887380Y-45528809D01*
X180887380Y-45719285D01*
X180935000Y-45814523D01*
X180982619Y-45862142D01*
X181077857Y-45909761D01*
X181315952Y-45909761D01*
X181411190Y-45862142D01*
X181458809Y-45814523D01*
X181506428Y-45719285D01*
X181506428Y-45528809D01*
X181458809Y-45433571D01*
X181411190Y-45385952D01*
X181315952Y-45338333D01*
%TO.C,K6*%
X93241904Y-142419880D02*
X93241904Y-141419880D01*
X93813333Y-142419880D02*
X93384761Y-141848452D01*
X93813333Y-141419880D02*
X93241904Y-141991309D01*
X94670476Y-141419880D02*
X94480000Y-141419880D01*
X94384761Y-141467500D01*
X94337142Y-141515119D01*
X94241904Y-141657976D01*
X94194285Y-141848452D01*
X94194285Y-142229404D01*
X94241904Y-142324642D01*
X94289523Y-142372261D01*
X94384761Y-142419880D01*
X94575238Y-142419880D01*
X94670476Y-142372261D01*
X94718095Y-142324642D01*
X94765714Y-142229404D01*
X94765714Y-141991309D01*
X94718095Y-141896071D01*
X94670476Y-141848452D01*
X94575238Y-141800833D01*
X94384761Y-141800833D01*
X94289523Y-141848452D01*
X94241904Y-141896071D01*
X94194285Y-141991309D01*
%TO.C,D10-OHMPI-MEASURE1*%
X235452380Y-149690476D02*
X234452380Y-149690476D01*
X234452380Y-149452380D01*
X234500000Y-149309523D01*
X234595238Y-149214285D01*
X234690476Y-149166666D01*
X234880952Y-149119047D01*
X235023809Y-149119047D01*
X235214285Y-149166666D01*
X235309523Y-149214285D01*
X235404761Y-149309523D01*
X235452380Y-149452380D01*
X235452380Y-149690476D01*
X235452380Y-148166666D02*
X235452380Y-148738095D01*
X235452380Y-148452380D02*
X234452380Y-148452380D01*
X234595238Y-148547619D01*
X234690476Y-148642857D01*
X234738095Y-148738095D01*
X234452380Y-147547619D02*
X234452380Y-147452380D01*
X234500000Y-147357142D01*
X234547619Y-147309523D01*
X234642857Y-147261904D01*
X234833333Y-147214285D01*
X235071428Y-147214285D01*
X235261904Y-147261904D01*
X235357142Y-147309523D01*
X235404761Y-147357142D01*
X235452380Y-147452380D01*
X235452380Y-147547619D01*
X235404761Y-147642857D01*
X235357142Y-147690476D01*
X235261904Y-147738095D01*
X235071428Y-147785714D01*
X234833333Y-147785714D01*
X234642857Y-147738095D01*
X234547619Y-147690476D01*
X234500000Y-147642857D01*
X234452380Y-147547619D01*
X235071428Y-146785714D02*
X235071428Y-146023809D01*
X234452380Y-145357142D02*
X234452380Y-145166666D01*
X234500000Y-145071428D01*
X234595238Y-144976190D01*
X234785714Y-144928571D01*
X235119047Y-144928571D01*
X235309523Y-144976190D01*
X235404761Y-145071428D01*
X235452380Y-145166666D01*
X235452380Y-145357142D01*
X235404761Y-145452380D01*
X235309523Y-145547619D01*
X235119047Y-145595238D01*
X234785714Y-145595238D01*
X234595238Y-145547619D01*
X234500000Y-145452380D01*
X234452380Y-145357142D01*
X235452380Y-144500000D02*
X234452380Y-144500000D01*
X234928571Y-144500000D02*
X234928571Y-143928571D01*
X235452380Y-143928571D02*
X234452380Y-143928571D01*
X235452380Y-143452380D02*
X234452380Y-143452380D01*
X235166666Y-143119047D01*
X234452380Y-142785714D01*
X235452380Y-142785714D01*
X235452380Y-142309523D02*
X234452380Y-142309523D01*
X234452380Y-141928571D01*
X234500000Y-141833333D01*
X234547619Y-141785714D01*
X234642857Y-141738095D01*
X234785714Y-141738095D01*
X234880952Y-141785714D01*
X234928571Y-141833333D01*
X234976190Y-141928571D01*
X234976190Y-142309523D01*
X235452380Y-141309523D02*
X234452380Y-141309523D01*
X235071428Y-140833333D02*
X235071428Y-140071428D01*
X235452380Y-139595238D02*
X234452380Y-139595238D01*
X235166666Y-139261904D01*
X234452380Y-138928571D01*
X235452380Y-138928571D01*
X234928571Y-138452380D02*
X234928571Y-138119047D01*
X235452380Y-137976190D02*
X235452380Y-138452380D01*
X234452380Y-138452380D01*
X234452380Y-137976190D01*
X235166666Y-137595238D02*
X235166666Y-137119047D01*
X235452380Y-137690476D02*
X234452380Y-137357142D01*
X235452380Y-137023809D01*
X235404761Y-136738095D02*
X235452380Y-136595238D01*
X235452380Y-136357142D01*
X235404761Y-136261904D01*
X235357142Y-136214285D01*
X235261904Y-136166666D01*
X235166666Y-136166666D01*
X235071428Y-136214285D01*
X235023809Y-136261904D01*
X234976190Y-136357142D01*
X234928571Y-136547619D01*
X234880952Y-136642857D01*
X234833333Y-136690476D01*
X234738095Y-136738095D01*
X234642857Y-136738095D01*
X234547619Y-136690476D01*
X234500000Y-136642857D01*
X234452380Y-136547619D01*
X234452380Y-136309523D01*
X234500000Y-136166666D01*
X234452380Y-135738095D02*
X235261904Y-135738095D01*
X235357142Y-135690476D01*
X235404761Y-135642857D01*
X235452380Y-135547619D01*
X235452380Y-135357142D01*
X235404761Y-135261904D01*
X235357142Y-135214285D01*
X235261904Y-135166666D01*
X234452380Y-135166666D01*
X235452380Y-134119047D02*
X234976190Y-134452380D01*
X235452380Y-134690476D02*
X234452380Y-134690476D01*
X234452380Y-134309523D01*
X234500000Y-134214285D01*
X234547619Y-134166666D01*
X234642857Y-134119047D01*
X234785714Y-134119047D01*
X234880952Y-134166666D01*
X234928571Y-134214285D01*
X234976190Y-134309523D01*
X234976190Y-134690476D01*
X234928571Y-133690476D02*
X234928571Y-133357142D01*
X235452380Y-133214285D02*
X235452380Y-133690476D01*
X234452380Y-133690476D01*
X234452380Y-133214285D01*
X235452380Y-132261904D02*
X235452380Y-132833333D01*
X235452380Y-132547619D02*
X234452380Y-132547619D01*
X234595238Y-132642857D01*
X234690476Y-132738095D01*
X234738095Y-132833333D01*
%TO.C,K1*%
X227261904Y-59252380D02*
X227261904Y-58252380D01*
X227833333Y-59252380D02*
X227404761Y-58680952D01*
X227833333Y-58252380D02*
X227261904Y-58823809D01*
X228785714Y-59252380D02*
X228214285Y-59252380D01*
X228500000Y-59252380D02*
X228500000Y-58252380D01*
X228404761Y-58395238D01*
X228309523Y-58490476D01*
X228214285Y-58538095D01*
%TO.C,J18*%
X36190476Y-82122380D02*
X36190476Y-82836666D01*
X36142857Y-82979523D01*
X36047619Y-83074761D01*
X35904761Y-83122380D01*
X35809523Y-83122380D01*
X37190476Y-83122380D02*
X36619047Y-83122380D01*
X36904761Y-83122380D02*
X36904761Y-82122380D01*
X36809523Y-82265238D01*
X36714285Y-82360476D01*
X36619047Y-82408095D01*
X37761904Y-82550952D02*
X37666666Y-82503333D01*
X37619047Y-82455714D01*
X37571428Y-82360476D01*
X37571428Y-82312857D01*
X37619047Y-82217619D01*
X37666666Y-82170000D01*
X37761904Y-82122380D01*
X37952380Y-82122380D01*
X38047619Y-82170000D01*
X38095238Y-82217619D01*
X38142857Y-82312857D01*
X38142857Y-82360476D01*
X38095238Y-82455714D01*
X38047619Y-82503333D01*
X37952380Y-82550952D01*
X37761904Y-82550952D01*
X37666666Y-82598571D01*
X37619047Y-82646190D01*
X37571428Y-82741428D01*
X37571428Y-82931904D01*
X37619047Y-83027142D01*
X37666666Y-83074761D01*
X37761904Y-83122380D01*
X37952380Y-83122380D01*
X38047619Y-83074761D01*
X38095238Y-83027142D01*
X38142857Y-82931904D01*
X38142857Y-82741428D01*
X38095238Y-82646190D01*
X38047619Y-82598571D01*
X37952380Y-82550952D01*
%TO.C,J20*%
X118620476Y-131502380D02*
X118620476Y-132216666D01*
X118572857Y-132359523D01*
X118477619Y-132454761D01*
X118334761Y-132502380D01*
X118239523Y-132502380D01*
X119049047Y-131597619D02*
X119096666Y-131550000D01*
X119191904Y-131502380D01*
X119430000Y-131502380D01*
X119525238Y-131550000D01*
X119572857Y-131597619D01*
X119620476Y-131692857D01*
X119620476Y-131788095D01*
X119572857Y-131930952D01*
X119001428Y-132502380D01*
X119620476Y-132502380D01*
X120239523Y-131502380D02*
X120334761Y-131502380D01*
X120430000Y-131550000D01*
X120477619Y-131597619D01*
X120525238Y-131692857D01*
X120572857Y-131883333D01*
X120572857Y-132121428D01*
X120525238Y-132311904D01*
X120477619Y-132407142D01*
X120430000Y-132454761D01*
X120334761Y-132502380D01*
X120239523Y-132502380D01*
X120144285Y-132454761D01*
X120096666Y-132407142D01*
X120049047Y-132311904D01*
X120001428Y-132121428D01*
X120001428Y-131883333D01*
X120049047Y-131692857D01*
X120096666Y-131597619D01*
X120144285Y-131550000D01*
X120239523Y-131502380D01*
%TO.C,*%
%TO.C,K4*%
X75461904Y-142419880D02*
X75461904Y-141419880D01*
X76033333Y-142419880D02*
X75604761Y-141848452D01*
X76033333Y-141419880D02*
X75461904Y-141991309D01*
X76890476Y-141753214D02*
X76890476Y-142419880D01*
X76652380Y-141372261D02*
X76414285Y-142086547D01*
X77033333Y-142086547D01*
%TO.C,D10*%
X74985714Y-145232380D02*
X74985714Y-144232380D01*
X75223809Y-144232380D01*
X75366666Y-144280000D01*
X75461904Y-144375238D01*
X75509523Y-144470476D01*
X75557142Y-144660952D01*
X75557142Y-144803809D01*
X75509523Y-144994285D01*
X75461904Y-145089523D01*
X75366666Y-145184761D01*
X75223809Y-145232380D01*
X74985714Y-145232380D01*
X76509523Y-145232380D02*
X75938095Y-145232380D01*
X76223809Y-145232380D02*
X76223809Y-144232380D01*
X76128571Y-144375238D01*
X76033333Y-144470476D01*
X75938095Y-144518095D01*
X77128571Y-144232380D02*
X77223809Y-144232380D01*
X77319047Y-144280000D01*
X77366666Y-144327619D01*
X77414285Y-144422857D01*
X77461904Y-144613333D01*
X77461904Y-144851428D01*
X77414285Y-145041904D01*
X77366666Y-145137142D01*
X77319047Y-145184761D01*
X77223809Y-145232380D01*
X77128571Y-145232380D01*
X77033333Y-145184761D01*
X76985714Y-145137142D01*
X76938095Y-145041904D01*
X76890476Y-144851428D01*
X76890476Y-144613333D01*
X76938095Y-144422857D01*
X76985714Y-144327619D01*
X77033333Y-144280000D01*
X77128571Y-144232380D01*
X70858095Y-143132380D02*
X70858095Y-142132380D01*
X71429523Y-143132380D02*
X71000952Y-142560952D01*
X71429523Y-142132380D02*
X70858095Y-142703809D01*
%TO.C,*%
%TO.C,R2*%
X212833333Y-72082380D02*
X212500000Y-71606190D01*
X212261904Y-72082380D02*
X212261904Y-71082380D01*
X212642857Y-71082380D01*
X212738095Y-71130000D01*
X212785714Y-71177619D01*
X212833333Y-71272857D01*
X212833333Y-71415714D01*
X212785714Y-71510952D01*
X212738095Y-71558571D01*
X212642857Y-71606190D01*
X212261904Y-71606190D01*
X213214285Y-71177619D02*
X213261904Y-71130000D01*
X213357142Y-71082380D01*
X213595238Y-71082380D01*
X213690476Y-71130000D01*
X213738095Y-71177619D01*
X213785714Y-71272857D01*
X213785714Y-71368095D01*
X213738095Y-71510952D01*
X213166666Y-72082380D01*
X213785714Y-72082380D01*
%TO.C,D8*%
X50572380Y-83738095D02*
X49572380Y-83738095D01*
X49572380Y-83500000D01*
X49620000Y-83357142D01*
X49715238Y-83261904D01*
X49810476Y-83214285D01*
X50000952Y-83166666D01*
X50143809Y-83166666D01*
X50334285Y-83214285D01*
X50429523Y-83261904D01*
X50524761Y-83357142D01*
X50572380Y-83500000D01*
X50572380Y-83738095D01*
X50000952Y-82595238D02*
X49953333Y-82690476D01*
X49905714Y-82738095D01*
X49810476Y-82785714D01*
X49762857Y-82785714D01*
X49667619Y-82738095D01*
X49620000Y-82690476D01*
X49572380Y-82595238D01*
X49572380Y-82404761D01*
X49620000Y-82309523D01*
X49667619Y-82261904D01*
X49762857Y-82214285D01*
X49810476Y-82214285D01*
X49905714Y-82261904D01*
X49953333Y-82309523D01*
X50000952Y-82404761D01*
X50000952Y-82595238D01*
X50048571Y-82690476D01*
X50096190Y-82738095D01*
X50191428Y-82785714D01*
X50381904Y-82785714D01*
X50477142Y-82738095D01*
X50524761Y-82690476D01*
X50572380Y-82595238D01*
X50572380Y-82404761D01*
X50524761Y-82309523D01*
X50477142Y-82261904D01*
X50381904Y-82214285D01*
X50191428Y-82214285D01*
X50096190Y-82261904D01*
X50048571Y-82309523D01*
X50000952Y-82404761D01*
X50252380Y-79451904D02*
X49252380Y-79451904D01*
X50252380Y-78880476D02*
X49680952Y-79309047D01*
X49252380Y-78880476D02*
X49823809Y-79451904D01*
%TO.C,C7*%
X105333333Y-85857142D02*
X105285714Y-85904761D01*
X105142857Y-85952380D01*
X105047619Y-85952380D01*
X104904761Y-85904761D01*
X104809523Y-85809523D01*
X104761904Y-85714285D01*
X104714285Y-85523809D01*
X104714285Y-85380952D01*
X104761904Y-85190476D01*
X104809523Y-85095238D01*
X104904761Y-85000000D01*
X105047619Y-84952380D01*
X105142857Y-84952380D01*
X105285714Y-85000000D01*
X105333333Y-85047619D01*
X105666666Y-84952380D02*
X106333333Y-84952380D01*
X105904761Y-85952380D01*
%TO.C,R12*%
X229452380Y-120452857D02*
X228976190Y-120786190D01*
X229452380Y-121024285D02*
X228452380Y-121024285D01*
X228452380Y-120643333D01*
X228500000Y-120548095D01*
X228547619Y-120500476D01*
X228642857Y-120452857D01*
X228785714Y-120452857D01*
X228880952Y-120500476D01*
X228928571Y-120548095D01*
X228976190Y-120643333D01*
X228976190Y-121024285D01*
X229452380Y-119500476D02*
X229452380Y-120071904D01*
X229452380Y-119786190D02*
X228452380Y-119786190D01*
X228595238Y-119881428D01*
X228690476Y-119976666D01*
X228738095Y-120071904D01*
X228547619Y-119119523D02*
X228500000Y-119071904D01*
X228452380Y-118976666D01*
X228452380Y-118738571D01*
X228500000Y-118643333D01*
X228547619Y-118595714D01*
X228642857Y-118548095D01*
X228738095Y-118548095D01*
X228880952Y-118595714D01*
X229452380Y-119167142D01*
X229452380Y-118548095D01*
%TO.C,J4*%
X143247380Y-85333333D02*
X143961666Y-85333333D01*
X144104523Y-85380952D01*
X144199761Y-85476190D01*
X144247380Y-85619047D01*
X144247380Y-85714285D01*
X143580714Y-84428571D02*
X144247380Y-84428571D01*
X143199761Y-84666666D02*
X143914047Y-84904761D01*
X143914047Y-84285714D01*
%TO.C,R13*%
X223452380Y-120452857D02*
X222976190Y-120786190D01*
X223452380Y-121024285D02*
X222452380Y-121024285D01*
X222452380Y-120643333D01*
X222500000Y-120548095D01*
X222547619Y-120500476D01*
X222642857Y-120452857D01*
X222785714Y-120452857D01*
X222880952Y-120500476D01*
X222928571Y-120548095D01*
X222976190Y-120643333D01*
X222976190Y-121024285D01*
X223452380Y-119500476D02*
X223452380Y-120071904D01*
X223452380Y-119786190D02*
X222452380Y-119786190D01*
X222595238Y-119881428D01*
X222690476Y-119976666D01*
X222738095Y-120071904D01*
X222452380Y-119167142D02*
X222452380Y-118548095D01*
X222833333Y-118881428D01*
X222833333Y-118738571D01*
X222880952Y-118643333D01*
X222928571Y-118595714D01*
X223023809Y-118548095D01*
X223261904Y-118548095D01*
X223357142Y-118595714D01*
X223404761Y-118643333D01*
X223452380Y-118738571D01*
X223452380Y-119024285D01*
X223404761Y-119119523D01*
X223357142Y-119167142D01*
%TO.C,J6*%
X143247380Y-62333333D02*
X143961666Y-62333333D01*
X144104523Y-62380952D01*
X144199761Y-62476190D01*
X144247380Y-62619047D01*
X144247380Y-62714285D01*
X143247380Y-61428571D02*
X143247380Y-61619047D01*
X143295000Y-61714285D01*
X143342619Y-61761904D01*
X143485476Y-61857142D01*
X143675952Y-61904761D01*
X144056904Y-61904761D01*
X144152142Y-61857142D01*
X144199761Y-61809523D01*
X144247380Y-61714285D01*
X144247380Y-61523809D01*
X144199761Y-61428571D01*
X144152142Y-61380952D01*
X144056904Y-61333333D01*
X143818809Y-61333333D01*
X143723571Y-61380952D01*
X143675952Y-61428571D01*
X143628333Y-61523809D01*
X143628333Y-61714285D01*
X143675952Y-61809523D01*
X143723571Y-61857142D01*
X143818809Y-61904761D01*
%TO.C,J5*%
X140666666Y-80032380D02*
X140666666Y-80746666D01*
X140619047Y-80889523D01*
X140523809Y-80984761D01*
X140380952Y-81032380D01*
X140285714Y-81032380D01*
X141619047Y-80032380D02*
X141142857Y-80032380D01*
X141095238Y-80508571D01*
X141142857Y-80460952D01*
X141238095Y-80413333D01*
X141476190Y-80413333D01*
X141571428Y-80460952D01*
X141619047Y-80508571D01*
X141666666Y-80603809D01*
X141666666Y-80841904D01*
X141619047Y-80937142D01*
X141571428Y-80984761D01*
X141476190Y-81032380D01*
X141238095Y-81032380D01*
X141142857Y-80984761D01*
X141095238Y-80937142D01*
%TO.C,C13*%
X101857142Y-65642857D02*
X101904761Y-65690476D01*
X101952380Y-65833333D01*
X101952380Y-65928571D01*
X101904761Y-66071428D01*
X101809523Y-66166666D01*
X101714285Y-66214285D01*
X101523809Y-66261904D01*
X101380952Y-66261904D01*
X101190476Y-66214285D01*
X101095238Y-66166666D01*
X101000000Y-66071428D01*
X100952380Y-65928571D01*
X100952380Y-65833333D01*
X101000000Y-65690476D01*
X101047619Y-65642857D01*
X101952380Y-64690476D02*
X101952380Y-65261904D01*
X101952380Y-64976190D02*
X100952380Y-64976190D01*
X101095238Y-65071428D01*
X101190476Y-65166666D01*
X101238095Y-65261904D01*
X100952380Y-64357142D02*
X100952380Y-63738095D01*
X101333333Y-64071428D01*
X101333333Y-63928571D01*
X101380952Y-63833333D01*
X101428571Y-63785714D01*
X101523809Y-63738095D01*
X101761904Y-63738095D01*
X101857142Y-63785714D01*
X101904761Y-63833333D01*
X101952380Y-63928571D01*
X101952380Y-64214285D01*
X101904761Y-64309523D01*
X101857142Y-64357142D01*
%TO.C,J13*%
X248862976Y-86837380D02*
X248862976Y-87551666D01*
X248815357Y-87694523D01*
X248720119Y-87789761D01*
X248577261Y-87837380D01*
X248482023Y-87837380D01*
X249862976Y-87837380D02*
X249291547Y-87837380D01*
X249577261Y-87837380D02*
X249577261Y-86837380D01*
X249482023Y-86980238D01*
X249386785Y-87075476D01*
X249291547Y-87123095D01*
X250196309Y-86837380D02*
X250815357Y-86837380D01*
X250482023Y-87218333D01*
X250624880Y-87218333D01*
X250720119Y-87265952D01*
X250767738Y-87313571D01*
X250815357Y-87408809D01*
X250815357Y-87646904D01*
X250767738Y-87742142D01*
X250720119Y-87789761D01*
X250624880Y-87837380D01*
X250339166Y-87837380D01*
X250243928Y-87789761D01*
X250196309Y-87742142D01*
D13*
%TO.C,U4*%
X128304523Y-78967619D02*
X129332619Y-78967619D01*
X129453571Y-78907142D01*
X129514047Y-78846666D01*
X129574523Y-78725714D01*
X129574523Y-78483809D01*
X129514047Y-78362857D01*
X129453571Y-78302380D01*
X129332619Y-78241904D01*
X128304523Y-78241904D01*
X128727857Y-77092857D02*
X129574523Y-77092857D01*
X128244047Y-77395238D02*
X129151190Y-77697619D01*
X129151190Y-76911428D01*
D12*
%TO.C,U1*%
X226452380Y-89761904D02*
X227261904Y-89761904D01*
X227357142Y-89714285D01*
X227404761Y-89666666D01*
X227452380Y-89571428D01*
X227452380Y-89380952D01*
X227404761Y-89285714D01*
X227357142Y-89238095D01*
X227261904Y-89190476D01*
X226452380Y-89190476D01*
X227452380Y-88190476D02*
X227452380Y-88761904D01*
X227452380Y-88476190D02*
X226452380Y-88476190D01*
X226595238Y-88571428D01*
X226690476Y-88666666D01*
X226738095Y-88761904D01*
%TO.C,J8*%
X214807380Y-104815833D02*
X215521666Y-104815833D01*
X215664523Y-104863452D01*
X215759761Y-104958690D01*
X215807380Y-105101547D01*
X215807380Y-105196785D01*
X215235952Y-104196785D02*
X215188333Y-104292023D01*
X215140714Y-104339642D01*
X215045476Y-104387261D01*
X214997857Y-104387261D01*
X214902619Y-104339642D01*
X214855000Y-104292023D01*
X214807380Y-104196785D01*
X214807380Y-104006309D01*
X214855000Y-103911071D01*
X214902619Y-103863452D01*
X214997857Y-103815833D01*
X215045476Y-103815833D01*
X215140714Y-103863452D01*
X215188333Y-103911071D01*
X215235952Y-104006309D01*
X215235952Y-104196785D01*
X215283571Y-104292023D01*
X215331190Y-104339642D01*
X215426428Y-104387261D01*
X215616904Y-104387261D01*
X215712142Y-104339642D01*
X215759761Y-104292023D01*
X215807380Y-104196785D01*
X215807380Y-104006309D01*
X215759761Y-103911071D01*
X215712142Y-103863452D01*
X215616904Y-103815833D01*
X215426428Y-103815833D01*
X215331190Y-103863452D01*
X215283571Y-103911071D01*
X215235952Y-104006309D01*
%TO.C,U3*%
X209248095Y-112322380D02*
X209248095Y-113131904D01*
X209295714Y-113227142D01*
X209343333Y-113274761D01*
X209438571Y-113322380D01*
X209629047Y-113322380D01*
X209724285Y-113274761D01*
X209771904Y-113227142D01*
X209819523Y-113131904D01*
X209819523Y-112322380D01*
X210200476Y-112322380D02*
X210819523Y-112322380D01*
X210486190Y-112703333D01*
X210629047Y-112703333D01*
X210724285Y-112750952D01*
X210771904Y-112798571D01*
X210819523Y-112893809D01*
X210819523Y-113131904D01*
X210771904Y-113227142D01*
X210724285Y-113274761D01*
X210629047Y-113322380D01*
X210343333Y-113322380D01*
X210248095Y-113274761D01*
X210200476Y-113227142D01*
%TO.C,R5*%
X103082380Y-92166666D02*
X102606190Y-92500000D01*
X103082380Y-92738095D02*
X102082380Y-92738095D01*
X102082380Y-92357142D01*
X102130000Y-92261904D01*
X102177619Y-92214285D01*
X102272857Y-92166666D01*
X102415714Y-92166666D01*
X102510952Y-92214285D01*
X102558571Y-92261904D01*
X102606190Y-92357142D01*
X102606190Y-92738095D01*
X102082380Y-91261904D02*
X102082380Y-91738095D01*
X102558571Y-91785714D01*
X102510952Y-91738095D01*
X102463333Y-91642857D01*
X102463333Y-91404761D01*
X102510952Y-91309523D01*
X102558571Y-91261904D01*
X102653809Y-91214285D01*
X102891904Y-91214285D01*
X102987142Y-91261904D01*
X103034761Y-91309523D01*
X103082380Y-91404761D01*
X103082380Y-91642857D01*
X103034761Y-91738095D01*
X102987142Y-91785714D01*
%TO.C,R4*%
X101082380Y-74356666D02*
X100606190Y-74690000D01*
X101082380Y-74928095D02*
X100082380Y-74928095D01*
X100082380Y-74547142D01*
X100130000Y-74451904D01*
X100177619Y-74404285D01*
X100272857Y-74356666D01*
X100415714Y-74356666D01*
X100510952Y-74404285D01*
X100558571Y-74451904D01*
X100606190Y-74547142D01*
X100606190Y-74928095D01*
X100415714Y-73499523D02*
X101082380Y-73499523D01*
X100034761Y-73737619D02*
X100749047Y-73975714D01*
X100749047Y-73356666D01*
%TO.C,D7*%
X50572380Y-71738095D02*
X49572380Y-71738095D01*
X49572380Y-71500000D01*
X49620000Y-71357142D01*
X49715238Y-71261904D01*
X49810476Y-71214285D01*
X50000952Y-71166666D01*
X50143809Y-71166666D01*
X50334285Y-71214285D01*
X50429523Y-71261904D01*
X50524761Y-71357142D01*
X50572380Y-71500000D01*
X50572380Y-71738095D01*
X49572380Y-70833333D02*
X49572380Y-70166666D01*
X50572380Y-70595238D01*
X50252380Y-67451904D02*
X49252380Y-67451904D01*
X50252380Y-66880476D02*
X49680952Y-67309047D01*
X49252380Y-66880476D02*
X49823809Y-67451904D01*
%TO.C,D5*%
X119572380Y-71308095D02*
X118572380Y-71308095D01*
X118572380Y-71070000D01*
X118620000Y-70927142D01*
X118715238Y-70831904D01*
X118810476Y-70784285D01*
X119000952Y-70736666D01*
X119143809Y-70736666D01*
X119334285Y-70784285D01*
X119429523Y-70831904D01*
X119524761Y-70927142D01*
X119572380Y-71070000D01*
X119572380Y-71308095D01*
X118572380Y-69831904D02*
X118572380Y-70308095D01*
X119048571Y-70355714D01*
X119000952Y-70308095D01*
X118953333Y-70212857D01*
X118953333Y-69974761D01*
X119000952Y-69879523D01*
X119048571Y-69831904D01*
X119143809Y-69784285D01*
X119381904Y-69784285D01*
X119477142Y-69831904D01*
X119524761Y-69879523D01*
X119572380Y-69974761D01*
X119572380Y-70212857D01*
X119524761Y-70308095D01*
X119477142Y-70355714D01*
X119252380Y-67021904D02*
X118252380Y-67021904D01*
X119252380Y-66450476D02*
X118680952Y-66879047D01*
X118252380Y-66450476D02*
X118823809Y-67021904D01*
%TO.C,Q6*%
X88804761Y-149137619D02*
X88709523Y-149090000D01*
X88614285Y-148994761D01*
X88471428Y-148851904D01*
X88376190Y-148804285D01*
X88280952Y-148804285D01*
X88328571Y-149042380D02*
X88233333Y-148994761D01*
X88138095Y-148899523D01*
X88090476Y-148709047D01*
X88090476Y-148375714D01*
X88138095Y-148185238D01*
X88233333Y-148090000D01*
X88328571Y-148042380D01*
X88519047Y-148042380D01*
X88614285Y-148090000D01*
X88709523Y-148185238D01*
X88757142Y-148375714D01*
X88757142Y-148709047D01*
X88709523Y-148899523D01*
X88614285Y-148994761D01*
X88519047Y-149042380D01*
X88328571Y-149042380D01*
X89614285Y-148042380D02*
X89423809Y-148042380D01*
X89328571Y-148090000D01*
X89280952Y-148137619D01*
X89185714Y-148280476D01*
X89138095Y-148470952D01*
X89138095Y-148851904D01*
X89185714Y-148947142D01*
X89233333Y-148994761D01*
X89328571Y-149042380D01*
X89519047Y-149042380D01*
X89614285Y-148994761D01*
X89661904Y-148947142D01*
X89709523Y-148851904D01*
X89709523Y-148613809D01*
X89661904Y-148518571D01*
X89614285Y-148470952D01*
X89519047Y-148423333D01*
X89328571Y-148423333D01*
X89233333Y-148470952D01*
X89185714Y-148518571D01*
X89138095Y-148613809D01*
%TO.C,Q5*%
X49434761Y-149137619D02*
X49339523Y-149090000D01*
X49244285Y-148994761D01*
X49101428Y-148851904D01*
X49006190Y-148804285D01*
X48910952Y-148804285D01*
X48958571Y-149042380D02*
X48863333Y-148994761D01*
X48768095Y-148899523D01*
X48720476Y-148709047D01*
X48720476Y-148375714D01*
X48768095Y-148185238D01*
X48863333Y-148090000D01*
X48958571Y-148042380D01*
X49149047Y-148042380D01*
X49244285Y-148090000D01*
X49339523Y-148185238D01*
X49387142Y-148375714D01*
X49387142Y-148709047D01*
X49339523Y-148899523D01*
X49244285Y-148994761D01*
X49149047Y-149042380D01*
X48958571Y-149042380D01*
X50291904Y-148042380D02*
X49815714Y-148042380D01*
X49768095Y-148518571D01*
X49815714Y-148470952D01*
X49910952Y-148423333D01*
X50149047Y-148423333D01*
X50244285Y-148470952D01*
X50291904Y-148518571D01*
X50339523Y-148613809D01*
X50339523Y-148851904D01*
X50291904Y-148947142D01*
X50244285Y-148994761D01*
X50149047Y-149042380D01*
X49910952Y-149042380D01*
X49815714Y-148994761D01*
X49768095Y-148947142D01*
%TO.C,Q1*%
X233584761Y-69127619D02*
X233489523Y-69080000D01*
X233394285Y-68984761D01*
X233251428Y-68841904D01*
X233156190Y-68794285D01*
X233060952Y-68794285D01*
X233108571Y-69032380D02*
X233013333Y-68984761D01*
X232918095Y-68889523D01*
X232870476Y-68699047D01*
X232870476Y-68365714D01*
X232918095Y-68175238D01*
X233013333Y-68080000D01*
X233108571Y-68032380D01*
X233299047Y-68032380D01*
X233394285Y-68080000D01*
X233489523Y-68175238D01*
X233537142Y-68365714D01*
X233537142Y-68699047D01*
X233489523Y-68889523D01*
X233394285Y-68984761D01*
X233299047Y-69032380D01*
X233108571Y-69032380D01*
X234489523Y-69032380D02*
X233918095Y-69032380D01*
X234203809Y-69032380D02*
X234203809Y-68032380D01*
X234108571Y-68175238D01*
X234013333Y-68270476D01*
X233918095Y-68318095D01*
%TO.C,R15*%
X56507142Y-151582380D02*
X56173809Y-151106190D01*
X55935714Y-151582380D02*
X55935714Y-150582380D01*
X56316666Y-150582380D01*
X56411904Y-150630000D01*
X56459523Y-150677619D01*
X56507142Y-150772857D01*
X56507142Y-150915714D01*
X56459523Y-151010952D01*
X56411904Y-151058571D01*
X56316666Y-151106190D01*
X55935714Y-151106190D01*
X57459523Y-151582380D02*
X56888095Y-151582380D01*
X57173809Y-151582380D02*
X57173809Y-150582380D01*
X57078571Y-150725238D01*
X56983333Y-150820476D01*
X56888095Y-150868095D01*
X58364285Y-150582380D02*
X57888095Y-150582380D01*
X57840476Y-151058571D01*
X57888095Y-151010952D01*
X57983333Y-150963333D01*
X58221428Y-150963333D01*
X58316666Y-151010952D01*
X58364285Y-151058571D01*
X58411904Y-151153809D01*
X58411904Y-151391904D01*
X58364285Y-151487142D01*
X58316666Y-151534761D01*
X58221428Y-151582380D01*
X57983333Y-151582380D01*
X57888095Y-151534761D01*
X57840476Y-151487142D01*
%TO.C,*%
%TO.C,C5*%
X75833333Y-70857142D02*
X75785714Y-70904761D01*
X75642857Y-70952380D01*
X75547619Y-70952380D01*
X75404761Y-70904761D01*
X75309523Y-70809523D01*
X75261904Y-70714285D01*
X75214285Y-70523809D01*
X75214285Y-70380952D01*
X75261904Y-70190476D01*
X75309523Y-70095238D01*
X75404761Y-70000000D01*
X75547619Y-69952380D01*
X75642857Y-69952380D01*
X75785714Y-70000000D01*
X75833333Y-70047619D01*
X76738095Y-69952380D02*
X76261904Y-69952380D01*
X76214285Y-70428571D01*
X76261904Y-70380952D01*
X76357142Y-70333333D01*
X76595238Y-70333333D01*
X76690476Y-70380952D01*
X76738095Y-70428571D01*
X76785714Y-70523809D01*
X76785714Y-70761904D01*
X76738095Y-70857142D01*
X76690476Y-70904761D01*
X76595238Y-70952380D01*
X76357142Y-70952380D01*
X76261904Y-70904761D01*
X76214285Y-70857142D01*
%TO.C,C10*%
X53607142Y-77957142D02*
X53559523Y-78004761D01*
X53416666Y-78052380D01*
X53321428Y-78052380D01*
X53178571Y-78004761D01*
X53083333Y-77909523D01*
X53035714Y-77814285D01*
X52988095Y-77623809D01*
X52988095Y-77480952D01*
X53035714Y-77290476D01*
X53083333Y-77195238D01*
X53178571Y-77100000D01*
X53321428Y-77052380D01*
X53416666Y-77052380D01*
X53559523Y-77100000D01*
X53607142Y-77147619D01*
X54559523Y-78052380D02*
X53988095Y-78052380D01*
X54273809Y-78052380D02*
X54273809Y-77052380D01*
X54178571Y-77195238D01*
X54083333Y-77290476D01*
X53988095Y-77338095D01*
X55178571Y-77052380D02*
X55273809Y-77052380D01*
X55369047Y-77100000D01*
X55416666Y-77147619D01*
X55464285Y-77242857D01*
X55511904Y-77433333D01*
X55511904Y-77671428D01*
X55464285Y-77861904D01*
X55416666Y-77957142D01*
X55369047Y-78004761D01*
X55273809Y-78052380D01*
X55178571Y-78052380D01*
X55083333Y-78004761D01*
X55035714Y-77957142D01*
X54988095Y-77861904D01*
X54940476Y-77671428D01*
X54940476Y-77433333D01*
X54988095Y-77242857D01*
X55035714Y-77147619D01*
X55083333Y-77100000D01*
X55178571Y-77052380D01*
%TO.C,C2*%
X210583333Y-93757142D02*
X210535714Y-93804761D01*
X210392857Y-93852380D01*
X210297619Y-93852380D01*
X210154761Y-93804761D01*
X210059523Y-93709523D01*
X210011904Y-93614285D01*
X209964285Y-93423809D01*
X209964285Y-93280952D01*
X210011904Y-93090476D01*
X210059523Y-92995238D01*
X210154761Y-92900000D01*
X210297619Y-92852380D01*
X210392857Y-92852380D01*
X210535714Y-92900000D01*
X210583333Y-92947619D01*
X210964285Y-92947619D02*
X211011904Y-92900000D01*
X211107142Y-92852380D01*
X211345238Y-92852380D01*
X211440476Y-92900000D01*
X211488095Y-92947619D01*
X211535714Y-93042857D01*
X211535714Y-93138095D01*
X211488095Y-93280952D01*
X210916666Y-93852380D01*
X211535714Y-93852380D01*
%TO.C,J2*%
X178666666Y-142452380D02*
X178666666Y-143166666D01*
X178619047Y-143309523D01*
X178523809Y-143404761D01*
X178380952Y-143452380D01*
X178285714Y-143452380D01*
X179095238Y-142547619D02*
X179142857Y-142500000D01*
X179238095Y-142452380D01*
X179476190Y-142452380D01*
X179571428Y-142500000D01*
X179619047Y-142547619D01*
X179666666Y-142642857D01*
X179666666Y-142738095D01*
X179619047Y-142880952D01*
X179047619Y-143452380D01*
X179666666Y-143452380D01*
%TO.C,U6*%
X95248095Y-66452380D02*
X95248095Y-67261904D01*
X95295714Y-67357142D01*
X95343333Y-67404761D01*
X95438571Y-67452380D01*
X95629047Y-67452380D01*
X95724285Y-67404761D01*
X95771904Y-67357142D01*
X95819523Y-67261904D01*
X95819523Y-66452380D01*
X96724285Y-66452380D02*
X96533809Y-66452380D01*
X96438571Y-66500000D01*
X96390952Y-66547619D01*
X96295714Y-66690476D01*
X96248095Y-66880952D01*
X96248095Y-67261904D01*
X96295714Y-67357142D01*
X96343333Y-67404761D01*
X96438571Y-67452380D01*
X96629047Y-67452380D01*
X96724285Y-67404761D01*
X96771904Y-67357142D01*
X96819523Y-67261904D01*
X96819523Y-67023809D01*
X96771904Y-66928571D01*
X96724285Y-66880952D01*
X96629047Y-66833333D01*
X96438571Y-66833333D01*
X96343333Y-66880952D01*
X96295714Y-66928571D01*
X96248095Y-67023809D01*
%TO.C,D6*%
X111332380Y-71308095D02*
X110332380Y-71308095D01*
X110332380Y-71070000D01*
X110380000Y-70927142D01*
X110475238Y-70831904D01*
X110570476Y-70784285D01*
X110760952Y-70736666D01*
X110903809Y-70736666D01*
X111094285Y-70784285D01*
X111189523Y-70831904D01*
X111284761Y-70927142D01*
X111332380Y-71070000D01*
X111332380Y-71308095D01*
X110332380Y-69879523D02*
X110332380Y-70070000D01*
X110380000Y-70165238D01*
X110427619Y-70212857D01*
X110570476Y-70308095D01*
X110760952Y-70355714D01*
X111141904Y-70355714D01*
X111237142Y-70308095D01*
X111284761Y-70260476D01*
X111332380Y-70165238D01*
X111332380Y-69974761D01*
X111284761Y-69879523D01*
X111237142Y-69831904D01*
X111141904Y-69784285D01*
X110903809Y-69784285D01*
X110808571Y-69831904D01*
X110760952Y-69879523D01*
X110713333Y-69974761D01*
X110713333Y-70165238D01*
X110760952Y-70260476D01*
X110808571Y-70308095D01*
X110903809Y-70355714D01*
X111652380Y-74641904D02*
X110652380Y-74641904D01*
X111652380Y-74070476D02*
X111080952Y-74499047D01*
X110652380Y-74070476D02*
X111223809Y-74641904D01*
%TO.C,J19*%
X36190476Y-65122380D02*
X36190476Y-65836666D01*
X36142857Y-65979523D01*
X36047619Y-66074761D01*
X35904761Y-66122380D01*
X35809523Y-66122380D01*
X37190476Y-66122380D02*
X36619047Y-66122380D01*
X36904761Y-66122380D02*
X36904761Y-65122380D01*
X36809523Y-65265238D01*
X36714285Y-65360476D01*
X36619047Y-65408095D01*
X37666666Y-66122380D02*
X37857142Y-66122380D01*
X37952380Y-66074761D01*
X38000000Y-66027142D01*
X38095238Y-65884285D01*
X38142857Y-65693809D01*
X38142857Y-65312857D01*
X38095238Y-65217619D01*
X38047619Y-65170000D01*
X37952380Y-65122380D01*
X37761904Y-65122380D01*
X37666666Y-65170000D01*
X37619047Y-65217619D01*
X37571428Y-65312857D01*
X37571428Y-65550952D01*
X37619047Y-65646190D01*
X37666666Y-65693809D01*
X37761904Y-65741428D01*
X37952380Y-65741428D01*
X38047619Y-65693809D01*
X38095238Y-65646190D01*
X38142857Y-65550952D01*
D13*
%TO.C,U5*%
X186304523Y-115967619D02*
X187332619Y-115967619D01*
X187453571Y-115907142D01*
X187514047Y-115846666D01*
X187574523Y-115725714D01*
X187574523Y-115483809D01*
X187514047Y-115362857D01*
X187453571Y-115302380D01*
X187332619Y-115241904D01*
X186304523Y-115241904D01*
X186304523Y-114032380D02*
X186304523Y-114637142D01*
X186909285Y-114697619D01*
X186848809Y-114637142D01*
X186788333Y-114516190D01*
X186788333Y-114213809D01*
X186848809Y-114092857D01*
X186909285Y-114032380D01*
X187030238Y-113971904D01*
X187332619Y-113971904D01*
X187453571Y-114032380D01*
X187514047Y-114092857D01*
X187574523Y-114213809D01*
X187574523Y-114516190D01*
X187514047Y-114637142D01*
X187453571Y-114697619D01*
D12*
%TO.C,D9-OHMPI-RUN-WAITING1*%
X241452380Y-151857142D02*
X240452380Y-151857142D01*
X240452380Y-151619047D01*
X240500000Y-151476190D01*
X240595238Y-151380952D01*
X240690476Y-151333333D01*
X240880952Y-151285714D01*
X241023809Y-151285714D01*
X241214285Y-151333333D01*
X241309523Y-151380952D01*
X241404761Y-151476190D01*
X241452380Y-151619047D01*
X241452380Y-151857142D01*
X241452380Y-150809523D02*
X241452380Y-150619047D01*
X241404761Y-150523809D01*
X241357142Y-150476190D01*
X241214285Y-150380952D01*
X241023809Y-150333333D01*
X240642857Y-150333333D01*
X240547619Y-150380952D01*
X240500000Y-150428571D01*
X240452380Y-150523809D01*
X240452380Y-150714285D01*
X240500000Y-150809523D01*
X240547619Y-150857142D01*
X240642857Y-150904761D01*
X240880952Y-150904761D01*
X240976190Y-150857142D01*
X241023809Y-150809523D01*
X241071428Y-150714285D01*
X241071428Y-150523809D01*
X241023809Y-150428571D01*
X240976190Y-150380952D01*
X240880952Y-150333333D01*
X241071428Y-149904761D02*
X241071428Y-149142857D01*
X240452380Y-148476190D02*
X240452380Y-148285714D01*
X240500000Y-148190476D01*
X240595238Y-148095238D01*
X240785714Y-148047619D01*
X241119047Y-148047619D01*
X241309523Y-148095238D01*
X241404761Y-148190476D01*
X241452380Y-148285714D01*
X241452380Y-148476190D01*
X241404761Y-148571428D01*
X241309523Y-148666666D01*
X241119047Y-148714285D01*
X240785714Y-148714285D01*
X240595238Y-148666666D01*
X240500000Y-148571428D01*
X240452380Y-148476190D01*
X241452380Y-147619047D02*
X240452380Y-147619047D01*
X240928571Y-147619047D02*
X240928571Y-147047619D01*
X241452380Y-147047619D02*
X240452380Y-147047619D01*
X241452380Y-146571428D02*
X240452380Y-146571428D01*
X241166666Y-146238095D01*
X240452380Y-145904761D01*
X241452380Y-145904761D01*
X241452380Y-145428571D02*
X240452380Y-145428571D01*
X240452380Y-145047619D01*
X240500000Y-144952380D01*
X240547619Y-144904761D01*
X240642857Y-144857142D01*
X240785714Y-144857142D01*
X240880952Y-144904761D01*
X240928571Y-144952380D01*
X240976190Y-145047619D01*
X240976190Y-145428571D01*
X241452380Y-144428571D02*
X240452380Y-144428571D01*
X241071428Y-143952380D02*
X241071428Y-143190476D01*
X241452380Y-142142857D02*
X240976190Y-142476190D01*
X241452380Y-142714285D02*
X240452380Y-142714285D01*
X240452380Y-142333333D01*
X240500000Y-142238095D01*
X240547619Y-142190476D01*
X240642857Y-142142857D01*
X240785714Y-142142857D01*
X240880952Y-142190476D01*
X240928571Y-142238095D01*
X240976190Y-142333333D01*
X240976190Y-142714285D01*
X240452380Y-141714285D02*
X241261904Y-141714285D01*
X241357142Y-141666666D01*
X241404761Y-141619047D01*
X241452380Y-141523809D01*
X241452380Y-141333333D01*
X241404761Y-141238095D01*
X241357142Y-141190476D01*
X241261904Y-141142857D01*
X240452380Y-141142857D01*
X241452380Y-140666666D02*
X240452380Y-140666666D01*
X241452380Y-140095238D01*
X240452380Y-140095238D01*
X241071428Y-139619047D02*
X241071428Y-138857142D01*
X240452380Y-138476190D02*
X241452380Y-138238095D01*
X240738095Y-138047619D01*
X241452380Y-137857142D01*
X240452380Y-137619047D01*
X241166666Y-137285714D02*
X241166666Y-136809523D01*
X241452380Y-137380952D02*
X240452380Y-137047619D01*
X241452380Y-136714285D01*
X241452380Y-136380952D02*
X240452380Y-136380952D01*
X240452380Y-136047619D02*
X240452380Y-135476190D01*
X241452380Y-135761904D02*
X240452380Y-135761904D01*
X241452380Y-135142857D02*
X240452380Y-135142857D01*
X241452380Y-134666666D02*
X240452380Y-134666666D01*
X241452380Y-134095238D01*
X240452380Y-134095238D01*
X240500000Y-133095238D02*
X240452380Y-133190476D01*
X240452380Y-133333333D01*
X240500000Y-133476190D01*
X240595238Y-133571428D01*
X240690476Y-133619047D01*
X240880952Y-133666666D01*
X241023809Y-133666666D01*
X241214285Y-133619047D01*
X241309523Y-133571428D01*
X241404761Y-133476190D01*
X241452380Y-133333333D01*
X241452380Y-133238095D01*
X241404761Y-133095238D01*
X241357142Y-133047619D01*
X241023809Y-133047619D01*
X241023809Y-133238095D01*
X241452380Y-132095238D02*
X241452380Y-132666666D01*
X241452380Y-132380952D02*
X240452380Y-132380952D01*
X240595238Y-132476190D01*
X240690476Y-132571428D01*
X240738095Y-132666666D01*
%TO.C,D11*%
X50855714Y-145232380D02*
X50855714Y-144232380D01*
X51093809Y-144232380D01*
X51236666Y-144280000D01*
X51331904Y-144375238D01*
X51379523Y-144470476D01*
X51427142Y-144660952D01*
X51427142Y-144803809D01*
X51379523Y-144994285D01*
X51331904Y-145089523D01*
X51236666Y-145184761D01*
X51093809Y-145232380D01*
X50855714Y-145232380D01*
X52379523Y-145232380D02*
X51808095Y-145232380D01*
X52093809Y-145232380D02*
X52093809Y-144232380D01*
X51998571Y-144375238D01*
X51903333Y-144470476D01*
X51808095Y-144518095D01*
X53331904Y-145232380D02*
X52760476Y-145232380D01*
X53046190Y-145232380D02*
X53046190Y-144232380D01*
X52950952Y-144375238D01*
X52855714Y-144470476D01*
X52760476Y-144518095D01*
X46728095Y-143132380D02*
X46728095Y-142132380D01*
X47299523Y-143132380D02*
X46870952Y-142560952D01*
X47299523Y-142132380D02*
X46728095Y-142703809D01*
%TO.C,D2*%
X202261904Y-58982380D02*
X202261904Y-57982380D01*
X202500000Y-57982380D01*
X202642857Y-58030000D01*
X202738095Y-58125238D01*
X202785714Y-58220476D01*
X202833333Y-58410952D01*
X202833333Y-58553809D01*
X202785714Y-58744285D01*
X202738095Y-58839523D01*
X202642857Y-58934761D01*
X202500000Y-58982380D01*
X202261904Y-58982380D01*
X203214285Y-58077619D02*
X203261904Y-58030000D01*
X203357142Y-57982380D01*
X203595238Y-57982380D01*
X203690476Y-58030000D01*
X203738095Y-58077619D01*
X203785714Y-58172857D01*
X203785714Y-58268095D01*
X203738095Y-58410952D01*
X203166666Y-58982380D01*
X203785714Y-58982380D01*
X197658095Y-59352380D02*
X197658095Y-58352380D01*
X198229523Y-59352380D02*
X197800952Y-58780952D01*
X198229523Y-58352380D02*
X197658095Y-58923809D01*
%TO.C,R7*%
X79843333Y-151582380D02*
X79510000Y-151106190D01*
X79271904Y-151582380D02*
X79271904Y-150582380D01*
X79652857Y-150582380D01*
X79748095Y-150630000D01*
X79795714Y-150677619D01*
X79843333Y-150772857D01*
X79843333Y-150915714D01*
X79795714Y-151010952D01*
X79748095Y-151058571D01*
X79652857Y-151106190D01*
X79271904Y-151106190D01*
X80176666Y-150582380D02*
X80843333Y-150582380D01*
X80414761Y-151582380D01*
%TO.C,U7*%
X95248095Y-84452380D02*
X95248095Y-85261904D01*
X95295714Y-85357142D01*
X95343333Y-85404761D01*
X95438571Y-85452380D01*
X95629047Y-85452380D01*
X95724285Y-85404761D01*
X95771904Y-85357142D01*
X95819523Y-85261904D01*
X95819523Y-84452380D01*
X96200476Y-84452380D02*
X96867142Y-84452380D01*
X96438571Y-85452380D01*
%TO.C,C9*%
X103957142Y-80516666D02*
X104004761Y-80564285D01*
X104052380Y-80707142D01*
X104052380Y-80802380D01*
X104004761Y-80945238D01*
X103909523Y-81040476D01*
X103814285Y-81088095D01*
X103623809Y-81135714D01*
X103480952Y-81135714D01*
X103290476Y-81088095D01*
X103195238Y-81040476D01*
X103100000Y-80945238D01*
X103052380Y-80802380D01*
X103052380Y-80707142D01*
X103100000Y-80564285D01*
X103147619Y-80516666D01*
X104052380Y-80040476D02*
X104052380Y-79850000D01*
X104004761Y-79754761D01*
X103957142Y-79707142D01*
X103814285Y-79611904D01*
X103623809Y-79564285D01*
X103242857Y-79564285D01*
X103147619Y-79611904D01*
X103100000Y-79659523D01*
X103052380Y-79754761D01*
X103052380Y-79945238D01*
X103100000Y-80040476D01*
X103147619Y-80088095D01*
X103242857Y-80135714D01*
X103480952Y-80135714D01*
X103576190Y-80088095D01*
X103623809Y-80040476D01*
X103671428Y-79945238D01*
X103671428Y-79754761D01*
X103623809Y-79659523D01*
X103576190Y-79611904D01*
X103480952Y-79564285D01*
%TO.C,D3*%
X115332380Y-83928095D02*
X114332380Y-83928095D01*
X114332380Y-83690000D01*
X114380000Y-83547142D01*
X114475238Y-83451904D01*
X114570476Y-83404285D01*
X114760952Y-83356666D01*
X114903809Y-83356666D01*
X115094285Y-83404285D01*
X115189523Y-83451904D01*
X115284761Y-83547142D01*
X115332380Y-83690000D01*
X115332380Y-83928095D01*
X114332380Y-83023333D02*
X114332380Y-82404285D01*
X114713333Y-82737619D01*
X114713333Y-82594761D01*
X114760952Y-82499523D01*
X114808571Y-82451904D01*
X114903809Y-82404285D01*
X115141904Y-82404285D01*
X115237142Y-82451904D01*
X115284761Y-82499523D01*
X115332380Y-82594761D01*
X115332380Y-82880476D01*
X115284761Y-82975714D01*
X115237142Y-83023333D01*
%TO.C,J12*%
X135552380Y-143189523D02*
X136266666Y-143189523D01*
X136409523Y-143237142D01*
X136504761Y-143332380D01*
X136552380Y-143475238D01*
X136552380Y-143570476D01*
X136552380Y-142189523D02*
X136552380Y-142760952D01*
X136552380Y-142475238D02*
X135552380Y-142475238D01*
X135695238Y-142570476D01*
X135790476Y-142665714D01*
X135838095Y-142760952D01*
X135647619Y-141808571D02*
X135600000Y-141760952D01*
X135552380Y-141665714D01*
X135552380Y-141427619D01*
X135600000Y-141332380D01*
X135647619Y-141284761D01*
X135742857Y-141237142D01*
X135838095Y-141237142D01*
X135980952Y-141284761D01*
X136552380Y-141856190D01*
X136552380Y-141237142D01*
%TO.C,J17*%
X118620476Y-116502380D02*
X118620476Y-117216666D01*
X118572857Y-117359523D01*
X118477619Y-117454761D01*
X118334761Y-117502380D01*
X118239523Y-117502380D01*
X119620476Y-117502380D02*
X119049047Y-117502380D01*
X119334761Y-117502380D02*
X119334761Y-116502380D01*
X119239523Y-116645238D01*
X119144285Y-116740476D01*
X119049047Y-116788095D01*
X119953809Y-116502380D02*
X120620476Y-116502380D01*
X120191904Y-117502380D01*
%TO.C,D12*%
X91495714Y-145232380D02*
X91495714Y-144232380D01*
X91733809Y-144232380D01*
X91876666Y-144280000D01*
X91971904Y-144375238D01*
X92019523Y-144470476D01*
X92067142Y-144660952D01*
X92067142Y-144803809D01*
X92019523Y-144994285D01*
X91971904Y-145089523D01*
X91876666Y-145184761D01*
X91733809Y-145232380D01*
X91495714Y-145232380D01*
X93019523Y-145232380D02*
X92448095Y-145232380D01*
X92733809Y-145232380D02*
X92733809Y-144232380D01*
X92638571Y-144375238D01*
X92543333Y-144470476D01*
X92448095Y-144518095D01*
X93400476Y-144327619D02*
X93448095Y-144280000D01*
X93543333Y-144232380D01*
X93781428Y-144232380D01*
X93876666Y-144280000D01*
X93924285Y-144327619D01*
X93971904Y-144422857D01*
X93971904Y-144518095D01*
X93924285Y-144660952D01*
X93352857Y-145232380D01*
X93971904Y-145232380D01*
X87368095Y-143132380D02*
X87368095Y-142132380D01*
X87939523Y-143132380D02*
X87510952Y-142560952D01*
X87939523Y-142132380D02*
X87368095Y-142703809D01*
%TO.C,D1*%
X225261904Y-58982380D02*
X225261904Y-57982380D01*
X225500000Y-57982380D01*
X225642857Y-58030000D01*
X225738095Y-58125238D01*
X225785714Y-58220476D01*
X225833333Y-58410952D01*
X225833333Y-58553809D01*
X225785714Y-58744285D01*
X225738095Y-58839523D01*
X225642857Y-58934761D01*
X225500000Y-58982380D01*
X225261904Y-58982380D01*
X226785714Y-58982380D02*
X226214285Y-58982380D01*
X226500000Y-58982380D02*
X226500000Y-57982380D01*
X226404761Y-58125238D01*
X226309523Y-58220476D01*
X226214285Y-58268095D01*
X220658095Y-59352380D02*
X220658095Y-58352380D01*
X221229523Y-59352380D02*
X220800952Y-58780952D01*
X221229523Y-58352380D02*
X220658095Y-58923809D01*
%TO.C,D11-OHMPI-STACK1*%
X229452380Y-147571428D02*
X228452380Y-147571428D01*
X228452380Y-147333333D01*
X228500000Y-147190476D01*
X228595238Y-147095238D01*
X228690476Y-147047619D01*
X228880952Y-147000000D01*
X229023809Y-147000000D01*
X229214285Y-147047619D01*
X229309523Y-147095238D01*
X229404761Y-147190476D01*
X229452380Y-147333333D01*
X229452380Y-147571428D01*
X229452380Y-146047619D02*
X229452380Y-146619047D01*
X229452380Y-146333333D02*
X228452380Y-146333333D01*
X228595238Y-146428571D01*
X228690476Y-146523809D01*
X228738095Y-146619047D01*
X229452380Y-145095238D02*
X229452380Y-145666666D01*
X229452380Y-145380952D02*
X228452380Y-145380952D01*
X228595238Y-145476190D01*
X228690476Y-145571428D01*
X228738095Y-145666666D01*
X229071428Y-144666666D02*
X229071428Y-143904761D01*
X228452380Y-143238095D02*
X228452380Y-143047619D01*
X228500000Y-142952380D01*
X228595238Y-142857142D01*
X228785714Y-142809523D01*
X229119047Y-142809523D01*
X229309523Y-142857142D01*
X229404761Y-142952380D01*
X229452380Y-143047619D01*
X229452380Y-143238095D01*
X229404761Y-143333333D01*
X229309523Y-143428571D01*
X229119047Y-143476190D01*
X228785714Y-143476190D01*
X228595238Y-143428571D01*
X228500000Y-143333333D01*
X228452380Y-143238095D01*
X229452380Y-142380952D02*
X228452380Y-142380952D01*
X228928571Y-142380952D02*
X228928571Y-141809523D01*
X229452380Y-141809523D02*
X228452380Y-141809523D01*
X229452380Y-141333333D02*
X228452380Y-141333333D01*
X229166666Y-141000000D01*
X228452380Y-140666666D01*
X229452380Y-140666666D01*
X229452380Y-140190476D02*
X228452380Y-140190476D01*
X228452380Y-139809523D01*
X228500000Y-139714285D01*
X228547619Y-139666666D01*
X228642857Y-139619047D01*
X228785714Y-139619047D01*
X228880952Y-139666666D01*
X228928571Y-139714285D01*
X228976190Y-139809523D01*
X228976190Y-140190476D01*
X229452380Y-139190476D02*
X228452380Y-139190476D01*
X229071428Y-138714285D02*
X229071428Y-137952380D01*
X229404761Y-137523809D02*
X229452380Y-137380952D01*
X229452380Y-137142857D01*
X229404761Y-137047619D01*
X229357142Y-137000000D01*
X229261904Y-136952380D01*
X229166666Y-136952380D01*
X229071428Y-137000000D01*
X229023809Y-137047619D01*
X228976190Y-137142857D01*
X228928571Y-137333333D01*
X228880952Y-137428571D01*
X228833333Y-137476190D01*
X228738095Y-137523809D01*
X228642857Y-137523809D01*
X228547619Y-137476190D01*
X228500000Y-137428571D01*
X228452380Y-137333333D01*
X228452380Y-137095238D01*
X228500000Y-136952380D01*
X228452380Y-136666666D02*
X228452380Y-136095238D01*
X229452380Y-136380952D02*
X228452380Y-136380952D01*
X229166666Y-135809523D02*
X229166666Y-135333333D01*
X229452380Y-135904761D02*
X228452380Y-135571428D01*
X229452380Y-135238095D01*
X229357142Y-134333333D02*
X229404761Y-134380952D01*
X229452380Y-134523809D01*
X229452380Y-134619047D01*
X229404761Y-134761904D01*
X229309523Y-134857142D01*
X229214285Y-134904761D01*
X229023809Y-134952380D01*
X228880952Y-134952380D01*
X228690476Y-134904761D01*
X228595238Y-134857142D01*
X228500000Y-134761904D01*
X228452380Y-134619047D01*
X228452380Y-134523809D01*
X228500000Y-134380952D01*
X228547619Y-134333333D01*
X229452380Y-133904761D02*
X228452380Y-133904761D01*
X229452380Y-133333333D02*
X228880952Y-133761904D01*
X228452380Y-133333333D02*
X229023809Y-133904761D01*
X229452380Y-132380952D02*
X229452380Y-132952380D01*
X229452380Y-132666666D02*
X228452380Y-132666666D01*
X228595238Y-132761904D01*
X228690476Y-132857142D01*
X228738095Y-132952380D01*
%TO.C,R14*%
X221607142Y-113482380D02*
X221273809Y-113006190D01*
X221035714Y-113482380D02*
X221035714Y-112482380D01*
X221416666Y-112482380D01*
X221511904Y-112530000D01*
X221559523Y-112577619D01*
X221607142Y-112672857D01*
X221607142Y-112815714D01*
X221559523Y-112910952D01*
X221511904Y-112958571D01*
X221416666Y-113006190D01*
X221035714Y-113006190D01*
X222559523Y-113482380D02*
X221988095Y-113482380D01*
X222273809Y-113482380D02*
X222273809Y-112482380D01*
X222178571Y-112625238D01*
X222083333Y-112720476D01*
X221988095Y-112768095D01*
X223416666Y-112815714D02*
X223416666Y-113482380D01*
X223178571Y-112434761D02*
X222940476Y-113149047D01*
X223559523Y-113149047D01*
%TO.C,Q4*%
X72294761Y-149137619D02*
X72199523Y-149090000D01*
X72104285Y-148994761D01*
X71961428Y-148851904D01*
X71866190Y-148804285D01*
X71770952Y-148804285D01*
X71818571Y-149042380D02*
X71723333Y-148994761D01*
X71628095Y-148899523D01*
X71580476Y-148709047D01*
X71580476Y-148375714D01*
X71628095Y-148185238D01*
X71723333Y-148090000D01*
X71818571Y-148042380D01*
X72009047Y-148042380D01*
X72104285Y-148090000D01*
X72199523Y-148185238D01*
X72247142Y-148375714D01*
X72247142Y-148709047D01*
X72199523Y-148899523D01*
X72104285Y-148994761D01*
X72009047Y-149042380D01*
X71818571Y-149042380D01*
X73104285Y-148375714D02*
X73104285Y-149042380D01*
X72866190Y-147994761D02*
X72628095Y-148709047D01*
X73247142Y-148709047D01*
%TO.C,D9*%
X34821904Y-145232380D02*
X34821904Y-144232380D01*
X35060000Y-144232380D01*
X35202857Y-144280000D01*
X35298095Y-144375238D01*
X35345714Y-144470476D01*
X35393333Y-144660952D01*
X35393333Y-144803809D01*
X35345714Y-144994285D01*
X35298095Y-145089523D01*
X35202857Y-145184761D01*
X35060000Y-145232380D01*
X34821904Y-145232380D01*
X35869523Y-145232380D02*
X36060000Y-145232380D01*
X36155238Y-145184761D01*
X36202857Y-145137142D01*
X36298095Y-144994285D01*
X36345714Y-144803809D01*
X36345714Y-144422857D01*
X36298095Y-144327619D01*
X36250476Y-144280000D01*
X36155238Y-144232380D01*
X35964761Y-144232380D01*
X35869523Y-144280000D01*
X35821904Y-144327619D01*
X35774285Y-144422857D01*
X35774285Y-144660952D01*
X35821904Y-144756190D01*
X35869523Y-144803809D01*
X35964761Y-144851428D01*
X36155238Y-144851428D01*
X36250476Y-144803809D01*
X36298095Y-144756190D01*
X36345714Y-144660952D01*
X30218095Y-142869880D02*
X30218095Y-141869880D01*
X30789523Y-142869880D02*
X30360952Y-142298452D01*
X30789523Y-141869880D02*
X30218095Y-142441309D01*
%TO.C,*%
%TO.C,K2*%
X204261904Y-59252380D02*
X204261904Y-58252380D01*
X204833333Y-59252380D02*
X204404761Y-58680952D01*
X204833333Y-58252380D02*
X204261904Y-58823809D01*
X205214285Y-58347619D02*
X205261904Y-58300000D01*
X205357142Y-58252380D01*
X205595238Y-58252380D01*
X205690476Y-58300000D01*
X205738095Y-58347619D01*
X205785714Y-58442857D01*
X205785714Y-58538095D01*
X205738095Y-58680952D01*
X205166666Y-59252380D01*
X205785714Y-59252380D01*
%TO.C,R3*%
X82833333Y-79082380D02*
X82500000Y-78606190D01*
X82261904Y-79082380D02*
X82261904Y-78082380D01*
X82642857Y-78082380D01*
X82738095Y-78130000D01*
X82785714Y-78177619D01*
X82833333Y-78272857D01*
X82833333Y-78415714D01*
X82785714Y-78510952D01*
X82738095Y-78558571D01*
X82642857Y-78606190D01*
X82261904Y-78606190D01*
X83166666Y-78082380D02*
X83785714Y-78082380D01*
X83452380Y-78463333D01*
X83595238Y-78463333D01*
X83690476Y-78510952D01*
X83738095Y-78558571D01*
X83785714Y-78653809D01*
X83785714Y-78891904D01*
X83738095Y-78987142D01*
X83690476Y-79034761D01*
X83595238Y-79082380D01*
X83309523Y-79082380D01*
X83214285Y-79034761D01*
X83166666Y-78987142D01*
%TO.C,C8*%
X89357142Y-88166666D02*
X89404761Y-88214285D01*
X89452380Y-88357142D01*
X89452380Y-88452380D01*
X89404761Y-88595238D01*
X89309523Y-88690476D01*
X89214285Y-88738095D01*
X89023809Y-88785714D01*
X88880952Y-88785714D01*
X88690476Y-88738095D01*
X88595238Y-88690476D01*
X88500000Y-88595238D01*
X88452380Y-88452380D01*
X88452380Y-88357142D01*
X88500000Y-88214285D01*
X88547619Y-88166666D01*
X88880952Y-87595238D02*
X88833333Y-87690476D01*
X88785714Y-87738095D01*
X88690476Y-87785714D01*
X88642857Y-87785714D01*
X88547619Y-87738095D01*
X88500000Y-87690476D01*
X88452380Y-87595238D01*
X88452380Y-87404761D01*
X88500000Y-87309523D01*
X88547619Y-87261904D01*
X88642857Y-87214285D01*
X88690476Y-87214285D01*
X88785714Y-87261904D01*
X88833333Y-87309523D01*
X88880952Y-87404761D01*
X88880952Y-87595238D01*
X88928571Y-87690476D01*
X88976190Y-87738095D01*
X89071428Y-87785714D01*
X89261904Y-87785714D01*
X89357142Y-87738095D01*
X89404761Y-87690476D01*
X89452380Y-87595238D01*
X89452380Y-87404761D01*
X89404761Y-87309523D01*
X89357142Y-87261904D01*
X89261904Y-87214285D01*
X89071428Y-87214285D01*
X88976190Y-87261904D01*
X88928571Y-87309523D01*
X88880952Y-87404761D01*
%TO.C,RV3*%
X88404761Y-79452380D02*
X88071428Y-78976190D01*
X87833333Y-79452380D02*
X87833333Y-78452380D01*
X88214285Y-78452380D01*
X88309523Y-78500000D01*
X88357142Y-78547619D01*
X88404761Y-78642857D01*
X88404761Y-78785714D01*
X88357142Y-78880952D01*
X88309523Y-78928571D01*
X88214285Y-78976190D01*
X87833333Y-78976190D01*
X88690476Y-78452380D02*
X89023809Y-79452380D01*
X89357142Y-78452380D01*
X89595238Y-78452380D02*
X90214285Y-78452380D01*
X89880952Y-78833333D01*
X90023809Y-78833333D01*
X90119047Y-78880952D01*
X90166666Y-78928571D01*
X90214285Y-79023809D01*
X90214285Y-79261904D01*
X90166666Y-79357142D01*
X90119047Y-79404761D01*
X90023809Y-79452380D01*
X89738095Y-79452380D01*
X89642857Y-79404761D01*
X89595238Y-79357142D01*
%TO.C,Q3*%
X31654761Y-149137619D02*
X31559523Y-149090000D01*
X31464285Y-148994761D01*
X31321428Y-148851904D01*
X31226190Y-148804285D01*
X31130952Y-148804285D01*
X31178571Y-149042380D02*
X31083333Y-148994761D01*
X30988095Y-148899523D01*
X30940476Y-148709047D01*
X30940476Y-148375714D01*
X30988095Y-148185238D01*
X31083333Y-148090000D01*
X31178571Y-148042380D01*
X31369047Y-148042380D01*
X31464285Y-148090000D01*
X31559523Y-148185238D01*
X31607142Y-148375714D01*
X31607142Y-148709047D01*
X31559523Y-148899523D01*
X31464285Y-148994761D01*
X31369047Y-149042380D01*
X31178571Y-149042380D01*
X31940476Y-148042380D02*
X32559523Y-148042380D01*
X32226190Y-148423333D01*
X32369047Y-148423333D01*
X32464285Y-148470952D01*
X32511904Y-148518571D01*
X32559523Y-148613809D01*
X32559523Y-148851904D01*
X32511904Y-148947142D01*
X32464285Y-148994761D01*
X32369047Y-149042380D01*
X32083333Y-149042380D01*
X31988095Y-148994761D01*
X31940476Y-148947142D01*
%TO.C,C3*%
X77757142Y-78416666D02*
X77804761Y-78464285D01*
X77852380Y-78607142D01*
X77852380Y-78702380D01*
X77804761Y-78845238D01*
X77709523Y-78940476D01*
X77614285Y-78988095D01*
X77423809Y-79035714D01*
X77280952Y-79035714D01*
X77090476Y-78988095D01*
X76995238Y-78940476D01*
X76900000Y-78845238D01*
X76852380Y-78702380D01*
X76852380Y-78607142D01*
X76900000Y-78464285D01*
X76947619Y-78416666D01*
X76852380Y-78083333D02*
X76852380Y-77464285D01*
X77233333Y-77797619D01*
X77233333Y-77654761D01*
X77280952Y-77559523D01*
X77328571Y-77511904D01*
X77423809Y-77464285D01*
X77661904Y-77464285D01*
X77757142Y-77511904D01*
X77804761Y-77559523D01*
X77852380Y-77654761D01*
X77852380Y-77940476D01*
X77804761Y-78035714D01*
X77757142Y-78083333D01*
%TO.C,RV1*%
X62864761Y-62792380D02*
X62531428Y-62316190D01*
X62293333Y-62792380D02*
X62293333Y-61792380D01*
X62674285Y-61792380D01*
X62769523Y-61840000D01*
X62817142Y-61887619D01*
X62864761Y-61982857D01*
X62864761Y-62125714D01*
X62817142Y-62220952D01*
X62769523Y-62268571D01*
X62674285Y-62316190D01*
X62293333Y-62316190D01*
X63150476Y-61792380D02*
X63483809Y-62792380D01*
X63817142Y-61792380D01*
X64674285Y-62792380D02*
X64102857Y-62792380D01*
X64388571Y-62792380D02*
X64388571Y-61792380D01*
X64293333Y-61935238D01*
X64198095Y-62030476D01*
X64102857Y-62078095D01*
%TO.C,R16*%
X97147142Y-151582380D02*
X96813809Y-151106190D01*
X96575714Y-151582380D02*
X96575714Y-150582380D01*
X96956666Y-150582380D01*
X97051904Y-150630000D01*
X97099523Y-150677619D01*
X97147142Y-150772857D01*
X97147142Y-150915714D01*
X97099523Y-151010952D01*
X97051904Y-151058571D01*
X96956666Y-151106190D01*
X96575714Y-151106190D01*
X98099523Y-151582380D02*
X97528095Y-151582380D01*
X97813809Y-151582380D02*
X97813809Y-150582380D01*
X97718571Y-150725238D01*
X97623333Y-150820476D01*
X97528095Y-150868095D01*
X98956666Y-150582380D02*
X98766190Y-150582380D01*
X98670952Y-150630000D01*
X98623333Y-150677619D01*
X98528095Y-150820476D01*
X98480476Y-151010952D01*
X98480476Y-151391904D01*
X98528095Y-151487142D01*
X98575714Y-151534761D01*
X98670952Y-151582380D01*
X98861428Y-151582380D01*
X98956666Y-151534761D01*
X99004285Y-151487142D01*
X99051904Y-151391904D01*
X99051904Y-151153809D01*
X99004285Y-151058571D01*
X98956666Y-151010952D01*
X98861428Y-150963333D01*
X98670952Y-150963333D01*
X98575714Y-151010952D01*
X98528095Y-151058571D01*
X98480476Y-151153809D01*
%TO.C,C6*%
X84357142Y-84166666D02*
X84404761Y-84214285D01*
X84452380Y-84357142D01*
X84452380Y-84452380D01*
X84404761Y-84595238D01*
X84309523Y-84690476D01*
X84214285Y-84738095D01*
X84023809Y-84785714D01*
X83880952Y-84785714D01*
X83690476Y-84738095D01*
X83595238Y-84690476D01*
X83500000Y-84595238D01*
X83452380Y-84452380D01*
X83452380Y-84357142D01*
X83500000Y-84214285D01*
X83547619Y-84166666D01*
X83452380Y-83309523D02*
X83452380Y-83500000D01*
X83500000Y-83595238D01*
X83547619Y-83642857D01*
X83690476Y-83738095D01*
X83880952Y-83785714D01*
X84261904Y-83785714D01*
X84357142Y-83738095D01*
X84404761Y-83690476D01*
X84452380Y-83595238D01*
X84452380Y-83404761D01*
X84404761Y-83309523D01*
X84357142Y-83261904D01*
X84261904Y-83214285D01*
X84023809Y-83214285D01*
X83928571Y-83261904D01*
X83880952Y-83309523D01*
X83833333Y-83404761D01*
X83833333Y-83595238D01*
X83880952Y-83690476D01*
X83928571Y-83738095D01*
X84023809Y-83785714D01*
%TO.C,R9*%
X216972380Y-119546666D02*
X216496190Y-119880000D01*
X216972380Y-120118095D02*
X215972380Y-120118095D01*
X215972380Y-119737142D01*
X216020000Y-119641904D01*
X216067619Y-119594285D01*
X216162857Y-119546666D01*
X216305714Y-119546666D01*
X216400952Y-119594285D01*
X216448571Y-119641904D01*
X216496190Y-119737142D01*
X216496190Y-120118095D01*
X216972380Y-119070476D02*
X216972380Y-118880000D01*
X216924761Y-118784761D01*
X216877142Y-118737142D01*
X216734285Y-118641904D01*
X216543809Y-118594285D01*
X216162857Y-118594285D01*
X216067619Y-118641904D01*
X216020000Y-118689523D01*
X215972380Y-118784761D01*
X215972380Y-118975238D01*
X216020000Y-119070476D01*
X216067619Y-119118095D01*
X216162857Y-119165714D01*
X216400952Y-119165714D01*
X216496190Y-119118095D01*
X216543809Y-119070476D01*
X216591428Y-118975238D01*
X216591428Y-118784761D01*
X216543809Y-118689523D01*
X216496190Y-118641904D01*
X216400952Y-118594285D01*
%TO.C,R10*%
X241452380Y-120642857D02*
X240976190Y-120976190D01*
X241452380Y-121214285D02*
X240452380Y-121214285D01*
X240452380Y-120833333D01*
X240500000Y-120738095D01*
X240547619Y-120690476D01*
X240642857Y-120642857D01*
X240785714Y-120642857D01*
X240880952Y-120690476D01*
X240928571Y-120738095D01*
X240976190Y-120833333D01*
X240976190Y-121214285D01*
X241452380Y-119690476D02*
X241452380Y-120261904D01*
X241452380Y-119976190D02*
X240452380Y-119976190D01*
X240595238Y-120071428D01*
X240690476Y-120166666D01*
X240738095Y-120261904D01*
X240452380Y-119071428D02*
X240452380Y-118976190D01*
X240500000Y-118880952D01*
X240547619Y-118833333D01*
X240642857Y-118785714D01*
X240833333Y-118738095D01*
X241071428Y-118738095D01*
X241261904Y-118785714D01*
X241357142Y-118833333D01*
X241404761Y-118880952D01*
X241452380Y-118976190D01*
X241452380Y-119071428D01*
X241404761Y-119166666D01*
X241357142Y-119214285D01*
X241261904Y-119261904D01*
X241071428Y-119309523D01*
X240833333Y-119309523D01*
X240642857Y-119261904D01*
X240547619Y-119214285D01*
X240500000Y-119166666D01*
X240452380Y-119071428D01*
%TO.C,J10*%
X176190476Y-138122380D02*
X176190476Y-138836666D01*
X176142857Y-138979523D01*
X176047619Y-139074761D01*
X175904761Y-139122380D01*
X175809523Y-139122380D01*
X177190476Y-139122380D02*
X176619047Y-139122380D01*
X176904761Y-139122380D02*
X176904761Y-138122380D01*
X176809523Y-138265238D01*
X176714285Y-138360476D01*
X176619047Y-138408095D01*
X177809523Y-138122380D02*
X177904761Y-138122380D01*
X178000000Y-138170000D01*
X178047619Y-138217619D01*
X178095238Y-138312857D01*
X178142857Y-138503333D01*
X178142857Y-138741428D01*
X178095238Y-138931904D01*
X178047619Y-139027142D01*
X178000000Y-139074761D01*
X177904761Y-139122380D01*
X177809523Y-139122380D01*
X177714285Y-139074761D01*
X177666666Y-139027142D01*
X177619047Y-138931904D01*
X177571428Y-138741428D01*
X177571428Y-138503333D01*
X177619047Y-138312857D01*
X177666666Y-138217619D01*
X177714285Y-138170000D01*
X177809523Y-138122380D01*
%TO.C,D12-LOW-TX-BATTERY1*%
X223452380Y-149976190D02*
X222452380Y-149976190D01*
X222452380Y-149738095D01*
X222500000Y-149595238D01*
X222595238Y-149500000D01*
X222690476Y-149452380D01*
X222880952Y-149404761D01*
X223023809Y-149404761D01*
X223214285Y-149452380D01*
X223309523Y-149500000D01*
X223404761Y-149595238D01*
X223452380Y-149738095D01*
X223452380Y-149976190D01*
X223452380Y-148452380D02*
X223452380Y-149023809D01*
X223452380Y-148738095D02*
X222452380Y-148738095D01*
X222595238Y-148833333D01*
X222690476Y-148928571D01*
X222738095Y-149023809D01*
X222547619Y-148071428D02*
X222500000Y-148023809D01*
X222452380Y-147928571D01*
X222452380Y-147690476D01*
X222500000Y-147595238D01*
X222547619Y-147547619D01*
X222642857Y-147500000D01*
X222738095Y-147500000D01*
X222880952Y-147547619D01*
X223452380Y-148119047D01*
X223452380Y-147500000D01*
X223071428Y-147071428D02*
X223071428Y-146309523D01*
X223452380Y-145357142D02*
X223452380Y-145833333D01*
X222452380Y-145833333D01*
X222452380Y-144833333D02*
X222452380Y-144642857D01*
X222500000Y-144547619D01*
X222595238Y-144452380D01*
X222785714Y-144404761D01*
X223119047Y-144404761D01*
X223309523Y-144452380D01*
X223404761Y-144547619D01*
X223452380Y-144642857D01*
X223452380Y-144833333D01*
X223404761Y-144928571D01*
X223309523Y-145023809D01*
X223119047Y-145071428D01*
X222785714Y-145071428D01*
X222595238Y-145023809D01*
X222500000Y-144928571D01*
X222452380Y-144833333D01*
X222452380Y-144071428D02*
X223452380Y-143833333D01*
X222738095Y-143642857D01*
X223452380Y-143452380D01*
X222452380Y-143214285D01*
X223071428Y-142833333D02*
X223071428Y-142071428D01*
X222452380Y-141738095D02*
X222452380Y-141166666D01*
X223452380Y-141452380D02*
X222452380Y-141452380D01*
X222452380Y-140928571D02*
X223452380Y-140261904D01*
X222452380Y-140261904D02*
X223452380Y-140928571D01*
X223071428Y-139880952D02*
X223071428Y-139119047D01*
X222928571Y-138309523D02*
X222976190Y-138166666D01*
X223023809Y-138119047D01*
X223119047Y-138071428D01*
X223261904Y-138071428D01*
X223357142Y-138119047D01*
X223404761Y-138166666D01*
X223452380Y-138261904D01*
X223452380Y-138642857D01*
X222452380Y-138642857D01*
X222452380Y-138309523D01*
X222500000Y-138214285D01*
X222547619Y-138166666D01*
X222642857Y-138119047D01*
X222738095Y-138119047D01*
X222833333Y-138166666D01*
X222880952Y-138214285D01*
X222928571Y-138309523D01*
X222928571Y-138642857D01*
X223166666Y-137690476D02*
X223166666Y-137214285D01*
X223452380Y-137785714D02*
X222452380Y-137452380D01*
X223452380Y-137119047D01*
X222452380Y-136928571D02*
X222452380Y-136357142D01*
X223452380Y-136642857D02*
X222452380Y-136642857D01*
X222452380Y-136166666D02*
X222452380Y-135595238D01*
X223452380Y-135880952D02*
X222452380Y-135880952D01*
X222928571Y-135261904D02*
X222928571Y-134928571D01*
X223452380Y-134785714D02*
X223452380Y-135261904D01*
X222452380Y-135261904D01*
X222452380Y-134785714D01*
X223452380Y-133785714D02*
X222976190Y-134119047D01*
X223452380Y-134357142D02*
X222452380Y-134357142D01*
X222452380Y-133976190D01*
X222500000Y-133880952D01*
X222547619Y-133833333D01*
X222642857Y-133785714D01*
X222785714Y-133785714D01*
X222880952Y-133833333D01*
X222928571Y-133880952D01*
X222976190Y-133976190D01*
X222976190Y-134357142D01*
X222976190Y-133166666D02*
X223452380Y-133166666D01*
X222452380Y-133500000D02*
X222976190Y-133166666D01*
X222452380Y-132833333D01*
X223452380Y-131976190D02*
X223452380Y-132547619D01*
X223452380Y-132261904D02*
X222452380Y-132261904D01*
X222595238Y-132357142D01*
X222690476Y-132452380D01*
X222738095Y-132547619D01*
%TO.C,J21*%
X165560476Y-130472380D02*
X165560476Y-131186666D01*
X165512857Y-131329523D01*
X165417619Y-131424761D01*
X165274761Y-131472380D01*
X165179523Y-131472380D01*
X165989047Y-130567619D02*
X166036666Y-130520000D01*
X166131904Y-130472380D01*
X166370000Y-130472380D01*
X166465238Y-130520000D01*
X166512857Y-130567619D01*
X166560476Y-130662857D01*
X166560476Y-130758095D01*
X166512857Y-130900952D01*
X165941428Y-131472380D01*
X166560476Y-131472380D01*
X167512857Y-131472380D02*
X166941428Y-131472380D01*
X167227142Y-131472380D02*
X167227142Y-130472380D01*
X167131904Y-130615238D01*
X167036666Y-130710476D01*
X166941428Y-130758095D01*
%TO.C,C14*%
X114357142Y-63392857D02*
X114404761Y-63440476D01*
X114452380Y-63583333D01*
X114452380Y-63678571D01*
X114404761Y-63821428D01*
X114309523Y-63916666D01*
X114214285Y-63964285D01*
X114023809Y-64011904D01*
X113880952Y-64011904D01*
X113690476Y-63964285D01*
X113595238Y-63916666D01*
X113500000Y-63821428D01*
X113452380Y-63678571D01*
X113452380Y-63583333D01*
X113500000Y-63440476D01*
X113547619Y-63392857D01*
X114452380Y-62440476D02*
X114452380Y-63011904D01*
X114452380Y-62726190D02*
X113452380Y-62726190D01*
X113595238Y-62821428D01*
X113690476Y-62916666D01*
X113738095Y-63011904D01*
X113785714Y-61583333D02*
X114452380Y-61583333D01*
X113404761Y-61821428D02*
X114119047Y-62059523D01*
X114119047Y-61440476D01*
%TO.C,U2*%
X63048095Y-74452380D02*
X63048095Y-75261904D01*
X63095714Y-75357142D01*
X63143333Y-75404761D01*
X63238571Y-75452380D01*
X63429047Y-75452380D01*
X63524285Y-75404761D01*
X63571904Y-75357142D01*
X63619523Y-75261904D01*
X63619523Y-74452380D01*
X64048095Y-74547619D02*
X64095714Y-74500000D01*
X64190952Y-74452380D01*
X64429047Y-74452380D01*
X64524285Y-74500000D01*
X64571904Y-74547619D01*
X64619523Y-74642857D01*
X64619523Y-74738095D01*
X64571904Y-74880952D01*
X64000476Y-75452380D01*
X64619523Y-75452380D01*
%TO.C,C4*%
X60357142Y-88166666D02*
X60404761Y-88214285D01*
X60452380Y-88357142D01*
X60452380Y-88452380D01*
X60404761Y-88595238D01*
X60309523Y-88690476D01*
X60214285Y-88738095D01*
X60023809Y-88785714D01*
X59880952Y-88785714D01*
X59690476Y-88738095D01*
X59595238Y-88690476D01*
X59500000Y-88595238D01*
X59452380Y-88452380D01*
X59452380Y-88357142D01*
X59500000Y-88214285D01*
X59547619Y-88166666D01*
X59785714Y-87309523D02*
X60452380Y-87309523D01*
X59404761Y-87547619D02*
X60119047Y-87785714D01*
X60119047Y-87166666D01*
%TO.C,J16*%
X66452380Y-105349523D02*
X67166666Y-105349523D01*
X67309523Y-105397142D01*
X67404761Y-105492380D01*
X67452380Y-105635238D01*
X67452380Y-105730476D01*
X67452380Y-104349523D02*
X67452380Y-104920952D01*
X67452380Y-104635238D02*
X66452380Y-104635238D01*
X66595238Y-104730476D01*
X66690476Y-104825714D01*
X66738095Y-104920952D01*
X66452380Y-103492380D02*
X66452380Y-103682857D01*
X66500000Y-103778095D01*
X66547619Y-103825714D01*
X66690476Y-103920952D01*
X66880952Y-103968571D01*
X67261904Y-103968571D01*
X67357142Y-103920952D01*
X67404761Y-103873333D01*
X67452380Y-103778095D01*
X67452380Y-103587619D01*
X67404761Y-103492380D01*
X67357142Y-103444761D01*
X67261904Y-103397142D01*
X67023809Y-103397142D01*
X66928571Y-103444761D01*
X66880952Y-103492380D01*
X66833333Y-103587619D01*
X66833333Y-103778095D01*
X66880952Y-103873333D01*
X66928571Y-103920952D01*
X67023809Y-103968571D01*
%TO.C,C11*%
X85357142Y-75857142D02*
X85309523Y-75904761D01*
X85166666Y-75952380D01*
X85071428Y-75952380D01*
X84928571Y-75904761D01*
X84833333Y-75809523D01*
X84785714Y-75714285D01*
X84738095Y-75523809D01*
X84738095Y-75380952D01*
X84785714Y-75190476D01*
X84833333Y-75095238D01*
X84928571Y-75000000D01*
X85071428Y-74952380D01*
X85166666Y-74952380D01*
X85309523Y-75000000D01*
X85357142Y-75047619D01*
X86309523Y-75952380D02*
X85738095Y-75952380D01*
X86023809Y-75952380D02*
X86023809Y-74952380D01*
X85928571Y-75095238D01*
X85833333Y-75190476D01*
X85738095Y-75238095D01*
X87261904Y-75952380D02*
X86690476Y-75952380D01*
X86976190Y-75952380D02*
X86976190Y-74952380D01*
X86880952Y-75095238D01*
X86785714Y-75190476D01*
X86690476Y-75238095D01*
%TO.C,C1*%
X213833333Y-84857142D02*
X213785714Y-84904761D01*
X213642857Y-84952380D01*
X213547619Y-84952380D01*
X213404761Y-84904761D01*
X213309523Y-84809523D01*
X213261904Y-84714285D01*
X213214285Y-84523809D01*
X213214285Y-84380952D01*
X213261904Y-84190476D01*
X213309523Y-84095238D01*
X213404761Y-84000000D01*
X213547619Y-83952380D01*
X213642857Y-83952380D01*
X213785714Y-84000000D01*
X213833333Y-84047619D01*
X214785714Y-84952380D02*
X214214285Y-84952380D01*
X214500000Y-84952380D02*
X214500000Y-83952380D01*
X214404761Y-84095238D01*
X214309523Y-84190476D01*
X214214285Y-84238095D01*
%TO.C,D4*%
X111452380Y-87308095D02*
X110452380Y-87308095D01*
X110452380Y-87070000D01*
X110500000Y-86927142D01*
X110595238Y-86831904D01*
X110690476Y-86784285D01*
X110880952Y-86736666D01*
X111023809Y-86736666D01*
X111214285Y-86784285D01*
X111309523Y-86831904D01*
X111404761Y-86927142D01*
X111452380Y-87070000D01*
X111452380Y-87308095D01*
X110785714Y-85879523D02*
X111452380Y-85879523D01*
X110404761Y-86117619D02*
X111119047Y-86355714D01*
X111119047Y-85736666D01*
X113452380Y-77261904D02*
X112452380Y-77261904D01*
X113452380Y-76690476D02*
X112880952Y-77119047D01*
X112452380Y-76690476D02*
X113023809Y-77261904D01*
%TO.C,K3*%
X34821904Y-142419880D02*
X34821904Y-141419880D01*
X35393333Y-142419880D02*
X34964761Y-141848452D01*
X35393333Y-141419880D02*
X34821904Y-141991309D01*
X35726666Y-141419880D02*
X36345714Y-141419880D01*
X36012380Y-141800833D01*
X36155238Y-141800833D01*
X36250476Y-141848452D01*
X36298095Y-141896071D01*
X36345714Y-141991309D01*
X36345714Y-142229404D01*
X36298095Y-142324642D01*
X36250476Y-142372261D01*
X36155238Y-142419880D01*
X35869523Y-142419880D01*
X35774285Y-142372261D01*
X35726666Y-142324642D01*
%TO.C,R8*%
X103512380Y-130546666D02*
X103036190Y-130880000D01*
X103512380Y-131118095D02*
X102512380Y-131118095D01*
X102512380Y-130737142D01*
X102560000Y-130641904D01*
X102607619Y-130594285D01*
X102702857Y-130546666D01*
X102845714Y-130546666D01*
X102940952Y-130594285D01*
X102988571Y-130641904D01*
X103036190Y-130737142D01*
X103036190Y-131118095D01*
X102940952Y-129975238D02*
X102893333Y-130070476D01*
X102845714Y-130118095D01*
X102750476Y-130165714D01*
X102702857Y-130165714D01*
X102607619Y-130118095D01*
X102560000Y-130070476D01*
X102512380Y-129975238D01*
X102512380Y-129784761D01*
X102560000Y-129689523D01*
X102607619Y-129641904D01*
X102702857Y-129594285D01*
X102750476Y-129594285D01*
X102845714Y-129641904D01*
X102893333Y-129689523D01*
X102940952Y-129784761D01*
X102940952Y-129975238D01*
X102988571Y-130070476D01*
X103036190Y-130118095D01*
X103131428Y-130165714D01*
X103321904Y-130165714D01*
X103417142Y-130118095D01*
X103464761Y-130070476D01*
X103512380Y-129975238D01*
X103512380Y-129784761D01*
X103464761Y-129689523D01*
X103417142Y-129641904D01*
X103321904Y-129594285D01*
X103131428Y-129594285D01*
X103036190Y-129641904D01*
X102988571Y-129689523D01*
X102940952Y-129784761D01*
%TO.C,R11*%
X235452380Y-120642857D02*
X234976190Y-120976190D01*
X235452380Y-121214285D02*
X234452380Y-121214285D01*
X234452380Y-120833333D01*
X234500000Y-120738095D01*
X234547619Y-120690476D01*
X234642857Y-120642857D01*
X234785714Y-120642857D01*
X234880952Y-120690476D01*
X234928571Y-120738095D01*
X234976190Y-120833333D01*
X234976190Y-121214285D01*
X235452380Y-119690476D02*
X235452380Y-120261904D01*
X235452380Y-119976190D02*
X234452380Y-119976190D01*
X234595238Y-120071428D01*
X234690476Y-120166666D01*
X234738095Y-120261904D01*
X235452380Y-118738095D02*
X235452380Y-119309523D01*
X235452380Y-119023809D02*
X234452380Y-119023809D01*
X234595238Y-119119047D01*
X234690476Y-119214285D01*
X234738095Y-119309523D01*
%TO.C,J11*%
X42712380Y-77349523D02*
X43426666Y-77349523D01*
X43569523Y-77397142D01*
X43664761Y-77492380D01*
X43712380Y-77635238D01*
X43712380Y-77730476D01*
X43712380Y-76349523D02*
X43712380Y-76920952D01*
X43712380Y-76635238D02*
X42712380Y-76635238D01*
X42855238Y-76730476D01*
X42950476Y-76825714D01*
X42998095Y-76920952D01*
X43712380Y-75397142D02*
X43712380Y-75968571D01*
X43712380Y-75682857D02*
X42712380Y-75682857D01*
X42855238Y-75778095D01*
X42950476Y-75873333D01*
X42998095Y-75968571D01*
%TO.C,C12*%
X89757142Y-67892857D02*
X89804761Y-67940476D01*
X89852380Y-68083333D01*
X89852380Y-68178571D01*
X89804761Y-68321428D01*
X89709523Y-68416666D01*
X89614285Y-68464285D01*
X89423809Y-68511904D01*
X89280952Y-68511904D01*
X89090476Y-68464285D01*
X88995238Y-68416666D01*
X88900000Y-68321428D01*
X88852380Y-68178571D01*
X88852380Y-68083333D01*
X88900000Y-67940476D01*
X88947619Y-67892857D01*
X89852380Y-66940476D02*
X89852380Y-67511904D01*
X89852380Y-67226190D02*
X88852380Y-67226190D01*
X88995238Y-67321428D01*
X89090476Y-67416666D01*
X89138095Y-67511904D01*
X88947619Y-66559523D02*
X88900000Y-66511904D01*
X88852380Y-66416666D01*
X88852380Y-66178571D01*
X88900000Y-66083333D01*
X88947619Y-66035714D01*
X89042857Y-65988095D01*
X89138095Y-65988095D01*
X89280952Y-66035714D01*
X89852380Y-66607142D01*
X89852380Y-65988095D01*
%TO.C,J15*%
X135552380Y-120189523D02*
X136266666Y-120189523D01*
X136409523Y-120237142D01*
X136504761Y-120332380D01*
X136552380Y-120475238D01*
X136552380Y-120570476D01*
X136552380Y-119189523D02*
X136552380Y-119760952D01*
X136552380Y-119475238D02*
X135552380Y-119475238D01*
X135695238Y-119570476D01*
X135790476Y-119665714D01*
X135838095Y-119760952D01*
X135552380Y-118284761D02*
X135552380Y-118760952D01*
X136028571Y-118808571D01*
X135980952Y-118760952D01*
X135933333Y-118665714D01*
X135933333Y-118427619D01*
X135980952Y-118332380D01*
X136028571Y-118284761D01*
X136123809Y-118237142D01*
X136361904Y-118237142D01*
X136457142Y-118284761D01*
X136504761Y-118332380D01*
X136552380Y-118427619D01*
X136552380Y-118665714D01*
X136504761Y-118760952D01*
X136457142Y-118808571D01*
%TO.C,K5*%
X52601904Y-142419880D02*
X52601904Y-141419880D01*
X53173333Y-142419880D02*
X52744761Y-141848452D01*
X53173333Y-141419880D02*
X52601904Y-141991309D01*
X54078095Y-141419880D02*
X53601904Y-141419880D01*
X53554285Y-141896071D01*
X53601904Y-141848452D01*
X53697142Y-141800833D01*
X53935238Y-141800833D01*
X54030476Y-141848452D01*
X54078095Y-141896071D01*
X54125714Y-141991309D01*
X54125714Y-142229404D01*
X54078095Y-142324642D01*
X54030476Y-142372261D01*
X53935238Y-142419880D01*
X53697142Y-142419880D01*
X53601904Y-142372261D01*
X53554285Y-142324642D01*
%TO.C,Q2*%
X209634761Y-69127619D02*
X209539523Y-69080000D01*
X209444285Y-68984761D01*
X209301428Y-68841904D01*
X209206190Y-68794285D01*
X209110952Y-68794285D01*
X209158571Y-69032380D02*
X209063333Y-68984761D01*
X208968095Y-68889523D01*
X208920476Y-68699047D01*
X208920476Y-68365714D01*
X208968095Y-68175238D01*
X209063333Y-68080000D01*
X209158571Y-68032380D01*
X209349047Y-68032380D01*
X209444285Y-68080000D01*
X209539523Y-68175238D01*
X209587142Y-68365714D01*
X209587142Y-68699047D01*
X209539523Y-68889523D01*
X209444285Y-68984761D01*
X209349047Y-69032380D01*
X209158571Y-69032380D01*
X209968095Y-68127619D02*
X210015714Y-68080000D01*
X210110952Y-68032380D01*
X210349047Y-68032380D01*
X210444285Y-68080000D01*
X210491904Y-68127619D01*
X210539523Y-68222857D01*
X210539523Y-68318095D01*
X210491904Y-68460952D01*
X209920476Y-69032380D01*
X210539523Y-69032380D01*
D14*
%TO.C,RV2*%
X100895000Y-57470000D02*
X100895000Y-62540000D01*
X91125000Y-62540000D02*
X100895000Y-62540000D01*
X91125000Y-57470000D02*
X91125000Y-62540000D01*
X91125000Y-57470000D02*
X100895000Y-57470000D01*
%TO.C,R6*%
X42640000Y-152500000D02*
X36100000Y-152500000D01*
X36100000Y-152500000D02*
X36100000Y-152170000D01*
X42640000Y-150090000D02*
X42640000Y-149760000D01*
X42640000Y-149760000D02*
X36100000Y-149760000D01*
X36100000Y-149760000D02*
X36100000Y-150090000D01*
X42640000Y-152170000D02*
X42640000Y-152500000D01*
%TO.C,J1*%
X257465000Y-51385000D02*
X258205000Y-51385000D01*
X255905000Y-51145000D02*
X255905000Y-40865000D01*
X254328000Y-44692000D02*
X254374000Y-44739000D01*
X251004000Y-51145000D02*
X251004000Y-40865000D01*
X248044000Y-51145000D02*
X257965000Y-51145000D01*
X254544000Y-44499000D02*
X254579000Y-44534000D01*
X248044000Y-40865000D02*
X257965000Y-40865000D01*
X257405000Y-51145000D02*
X257405000Y-40865000D01*
X258205000Y-51385000D02*
X258205000Y-50885000D01*
X257965000Y-51145000D02*
X257965000Y-40865000D01*
X248044000Y-51145000D02*
X248044000Y-40865000D01*
X252030000Y-42395000D02*
X252066000Y-42430000D01*
X252236000Y-42190000D02*
X252282000Y-42237000D01*
X254985000Y-48545000D02*
G75*
G03*
X254839756Y-47861682I-1680000J0D01*
G01*
X252621000Y-50080000D02*
G75*
G03*
X253988042Y-50080427I684001J1534993D01*
G01*
X253989000Y-47009999D02*
G75*
G03*
X252621958Y-47009573I-684000J-1535001D01*
G01*
X254840000Y-49229000D02*
G75*
G03*
X254985253Y-48516195I-1535001J683999D01*
G01*
X251770000Y-47861000D02*
G75*
G03*
X251769573Y-49228042I1534993J-684001D01*
G01*
X254985000Y-43465000D02*
G75*
G03*
X254985000Y-43465000I-1680000J0D01*
G01*
%TO.C,R1*%
X232950000Y-72290000D02*
X232950000Y-72620000D01*
X239490000Y-74700000D02*
X239490000Y-75030000D01*
X239490000Y-72290000D02*
X232950000Y-72290000D01*
X239490000Y-72620000D02*
X239490000Y-72290000D01*
X232950000Y-75030000D02*
X232950000Y-74700000D01*
X239490000Y-75030000D02*
X232950000Y-75030000D01*
%TO.C,J9*%
X186420000Y-42395000D02*
X186456000Y-42430000D01*
X182434000Y-51145000D02*
X192355000Y-51145000D01*
X191855000Y-51385000D02*
X192595000Y-51385000D01*
X186626000Y-42190000D02*
X186672000Y-42237000D01*
X188718000Y-44692000D02*
X188764000Y-44739000D01*
X190295000Y-51145000D02*
X190295000Y-40865000D01*
X191795000Y-51145000D02*
X191795000Y-40865000D01*
X185394000Y-51145000D02*
X185394000Y-40865000D01*
X192595000Y-51385000D02*
X192595000Y-50885000D01*
X182434000Y-51145000D02*
X182434000Y-40865000D01*
X192355000Y-51145000D02*
X192355000Y-40865000D01*
X188934000Y-44499000D02*
X188969000Y-44534000D01*
X182434000Y-40865000D02*
X192355000Y-40865000D01*
X186160000Y-47861000D02*
G75*
G03*
X186159573Y-49228042I1534993J-684001D01*
G01*
X189375000Y-48545000D02*
G75*
G03*
X189229756Y-47861682I-1680000J0D01*
G01*
X189230000Y-49229000D02*
G75*
G03*
X189375253Y-48516195I-1535001J683999D01*
G01*
X188379000Y-47010000D02*
G75*
G03*
X187011958Y-47009573I-684001J-1535004D01*
G01*
X187011000Y-50080000D02*
G75*
G03*
X188378042Y-50080427I684001J1534993D01*
G01*
X189375000Y-43465000D02*
G75*
G03*
X189375000Y-43465000I-1680000J0D01*
G01*
%TO.C,K6*%
X102330000Y-118117500D02*
X85630000Y-118117500D01*
X92630000Y-135967500D02*
X89480000Y-135967500D01*
X94330000Y-136567500D02*
X94330000Y-135367500D01*
X85630000Y-140817500D02*
X102330000Y-140817500D01*
X98480000Y-135967500D02*
X95330000Y-135967500D01*
X94330000Y-135767500D02*
X93630000Y-136167500D01*
X93630000Y-136567500D02*
X94330000Y-136567500D01*
X93630000Y-135367500D02*
X93630000Y-136567500D01*
X94980000Y-141077500D02*
X92980000Y-141077500D01*
X102330000Y-140817500D02*
X102330000Y-118117500D01*
X85630000Y-118117500D02*
X85630000Y-140817500D01*
X94330000Y-135367500D02*
X93630000Y-135367500D01*
%TO.C,D10-OHMPI-MEASURE1*%
X236080000Y-130790000D02*
X236399000Y-130790000D01*
X233601000Y-130790000D02*
X233920000Y-130790000D01*
X236080000Y-130413330D02*
G75*
G03*
X236080961Y-127047287I-1080000J1683330D01*
G01*
X233919276Y-126486758D02*
G75*
G03*
X233601251Y-130790000I1080724J-2243242D01*
G01*
X233919039Y-127047287D02*
G75*
G03*
X233920000Y-130413330I1080961J-1682713D01*
G01*
X236398749Y-130790000D02*
G75*
G03*
X236080724Y-126486758I-1398749J2060000D01*
G01*
%TO.C,K1*%
X228350000Y-52600000D02*
X227650000Y-53000000D01*
X227650000Y-53400000D02*
X228350000Y-53400000D01*
X227650000Y-52200000D02*
X227650000Y-53400000D01*
X232500000Y-52800000D02*
X229350000Y-52800000D01*
X228350000Y-52200000D02*
X227650000Y-52200000D01*
X226650000Y-52800000D02*
X223500000Y-52800000D01*
X228350000Y-53400000D02*
X228350000Y-52200000D01*
X236350000Y-57650000D02*
X236350000Y-34950000D01*
X219650000Y-34950000D02*
X219650000Y-57650000D01*
X236350000Y-34950000D02*
X219650000Y-34950000D01*
X229000000Y-57910000D02*
X227000000Y-57910000D01*
X219650000Y-57650000D02*
X236350000Y-57650000D01*
%TO.C,J18*%
X35670000Y-86330000D02*
X38330000Y-86330000D01*
X35670000Y-86270000D02*
X38330000Y-86270000D01*
X35670000Y-85000000D02*
X35670000Y-83670000D01*
X38330000Y-86270000D02*
X38330000Y-86330000D01*
X35670000Y-83670000D02*
X37000000Y-83670000D01*
X35670000Y-86270000D02*
X35670000Y-86330000D01*
%TO.C,J20*%
X118100000Y-135650000D02*
X118100000Y-135710000D01*
X118100000Y-135650000D02*
X120760000Y-135650000D01*
X118100000Y-133050000D02*
X119430000Y-133050000D01*
X120760000Y-135650000D02*
X120760000Y-135710000D01*
X118100000Y-134380000D02*
X118100000Y-133050000D01*
X118100000Y-135710000D02*
X120760000Y-135710000D01*
%TO.C,K4*%
X75850000Y-135367500D02*
X75850000Y-136567500D01*
X67850000Y-118117500D02*
X67850000Y-140817500D01*
X76550000Y-135367500D02*
X75850000Y-135367500D01*
X84550000Y-140817500D02*
X84550000Y-118117500D01*
X75850000Y-136567500D02*
X76550000Y-136567500D01*
X77200000Y-141077500D02*
X75200000Y-141077500D01*
X74850000Y-135967500D02*
X71700000Y-135967500D01*
X76550000Y-135767500D02*
X75850000Y-136167500D01*
X67850000Y-140817500D02*
X84550000Y-140817500D01*
X80700000Y-135967500D02*
X77550000Y-135967500D01*
X84550000Y-118117500D02*
X67850000Y-118117500D01*
X76550000Y-136567500D02*
X76550000Y-135367500D01*
%TO.C,D10*%
X72460000Y-144780000D02*
X73480000Y-144780000D01*
X74380000Y-143310000D02*
X74380000Y-146250000D01*
X74500000Y-143310000D02*
X74500000Y-146250000D01*
X73480000Y-146250000D02*
X78920000Y-146250000D01*
X73480000Y-143310000D02*
X73480000Y-146250000D01*
X79940000Y-144780000D02*
X78920000Y-144780000D01*
X74260000Y-143310000D02*
X74260000Y-146250000D01*
X78920000Y-143310000D02*
X73480000Y-143310000D01*
X78920000Y-146250000D02*
X78920000Y-143310000D01*
%TO.C,R2*%
X209730000Y-75040000D02*
X209730000Y-75370000D01*
X209730000Y-75370000D02*
X216270000Y-75370000D01*
X209730000Y-72960000D02*
X209730000Y-72630000D01*
X216270000Y-72630000D02*
X216270000Y-72960000D01*
X216270000Y-75370000D02*
X216270000Y-75040000D01*
X209730000Y-72630000D02*
X216270000Y-72630000D01*
%TO.C,D8*%
X49120000Y-81720000D02*
X46880000Y-81720000D01*
X49120000Y-85120000D02*
X49120000Y-80880000D01*
X46880000Y-80880000D02*
X46880000Y-85120000D01*
X48000000Y-85770000D02*
X48000000Y-85120000D01*
X49120000Y-81480000D02*
X46880000Y-81480000D01*
X49120000Y-80880000D02*
X46880000Y-80880000D01*
X48000000Y-80230000D02*
X48000000Y-80880000D01*
X46880000Y-85120000D02*
X49120000Y-85120000D01*
X49120000Y-81600000D02*
X46880000Y-81600000D01*
%TO.C,C7*%
X101380000Y-84130000D02*
X101380000Y-86870000D01*
X109620000Y-84130000D02*
X109620000Y-86870000D01*
X101380000Y-86870000D02*
X109620000Y-86870000D01*
X101380000Y-84130000D02*
X109620000Y-84130000D01*
%TO.C,R12*%
X230040000Y-116540000D02*
X230370000Y-116540000D01*
X230370000Y-116540000D02*
X230370000Y-123080000D01*
X227630000Y-116540000D02*
X227630000Y-123080000D01*
X227960000Y-116540000D02*
X227630000Y-116540000D01*
X227630000Y-123080000D02*
X227960000Y-123080000D01*
X230370000Y-123080000D02*
X230040000Y-123080000D01*
%TO.C,J4*%
X144795000Y-86330000D02*
X144795000Y-85000000D01*
X165235000Y-86330000D02*
X165235000Y-83670000D01*
X146125000Y-86330000D02*
X144795000Y-86330000D01*
X147395000Y-83670000D02*
X165235000Y-83670000D01*
X147395000Y-86330000D02*
X165235000Y-86330000D01*
X147395000Y-86330000D02*
X147395000Y-83670000D01*
%TO.C,R13*%
X224370000Y-116540000D02*
X224370000Y-123080000D01*
X224040000Y-116540000D02*
X224370000Y-116540000D01*
X221960000Y-116540000D02*
X221630000Y-116540000D01*
X221630000Y-116540000D02*
X221630000Y-123080000D01*
X221630000Y-123080000D02*
X221960000Y-123080000D01*
X224370000Y-123080000D02*
X224040000Y-123080000D01*
%TO.C,J6*%
X147395000Y-60670000D02*
X165235000Y-60670000D01*
X147395000Y-63330000D02*
X147395000Y-60670000D01*
X165235000Y-63330000D02*
X165235000Y-60670000D01*
X146125000Y-63330000D02*
X144795000Y-63330000D01*
X144795000Y-63330000D02*
X144795000Y-62000000D01*
X147395000Y-63330000D02*
X165235000Y-63330000D01*
%TO.C,J5*%
X142330000Y-69300000D02*
X139670000Y-69300000D01*
X142330000Y-78250000D02*
X142330000Y-79580000D01*
X142330000Y-76980000D02*
X142330000Y-69300000D01*
X139670000Y-76980000D02*
X139670000Y-69300000D01*
X142330000Y-76980000D02*
X139670000Y-76980000D01*
X142330000Y-79580000D02*
X141000000Y-79580000D01*
%TO.C,C13*%
X105370000Y-69120000D02*
X105370000Y-60880000D01*
X102630000Y-69120000D02*
X102630000Y-60880000D01*
X102630000Y-60880000D02*
X105370000Y-60880000D01*
X102630000Y-69120000D02*
X105370000Y-69120000D01*
%TO.C,J13*%
X246422500Y-85195000D02*
X246422500Y-72295000D01*
X246422500Y-72295000D02*
X252922500Y-72295000D01*
X252922500Y-76695000D02*
X252922500Y-76695000D01*
X252922500Y-85195000D02*
X246422500Y-85195000D01*
X255622500Y-81785000D02*
X255622500Y-80785000D01*
X245112500Y-70995000D02*
X254232500Y-70995000D01*
X252922500Y-72295000D02*
X252922500Y-76695000D01*
X245112500Y-86495000D02*
X245112500Y-70995000D01*
X254232500Y-70995000D02*
X254232500Y-86495000D01*
X252922500Y-80795000D02*
X252922500Y-85195000D01*
X254232500Y-80795000D02*
X252922500Y-80795000D01*
X254232500Y-86495000D02*
X245112500Y-86495000D01*
X254622500Y-81285000D02*
X255622500Y-81785000D01*
X255622500Y-80785000D02*
X254622500Y-81285000D01*
X252922500Y-76695000D02*
X254232500Y-76695000D01*
D15*
%TO.C,U4*%
X120239000Y-87400000D02*
X120239000Y-87400000D01*
X137811000Y-89970000D02*
X120539000Y-89970000D01*
X120539000Y-89970000D02*
X120539000Y-62030000D01*
X120539000Y-62030000D02*
X137811000Y-62030000D01*
X137811000Y-62030000D02*
X137811000Y-89970000D01*
X120239000Y-87500000D02*
X120239000Y-87500000D01*
X120239000Y-87500000D02*
G75*
G03*
X120239000Y-87400000I0J50000D01*
G01*
X120239000Y-87400000D02*
G75*
G03*
X120239000Y-87500000I0J-50000D01*
G01*
D14*
%TO.C,U1*%
X215520000Y-86340000D02*
X215520000Y-87990000D01*
X215520000Y-89990000D02*
X215520000Y-91640000D01*
X215520000Y-91640000D02*
X238500000Y-91640000D01*
X238500000Y-86340000D02*
X215520000Y-86340000D01*
X238500000Y-91640000D02*
X238500000Y-86340000D01*
X215520000Y-89990000D02*
G75*
G03*
X215520000Y-87990000I0J1000000D01*
G01*
D16*
%TO.C,Alim_analog_Vmn_measurement_ina128P_lm158*%
X100900000Y-114150000D02*
X69100000Y-114150000D01*
X69100000Y-114150000D02*
X69100000Y-93850000D01*
X100900000Y-93850000D02*
X100900000Y-114150000D01*
X69100000Y-93850000D02*
X100900000Y-93850000D01*
D17*
X68410000Y-111620000D02*
G75*
G03*
X68410000Y-111620000I-100000J0D01*
G01*
D14*
%TO.C,J8*%
X226045000Y-107732500D02*
X226045000Y-107732500D01*
X230445000Y-101232500D02*
X230445000Y-107732500D01*
X221945000Y-107732500D02*
X217545000Y-107732500D01*
X221945000Y-109042500D02*
X221945000Y-107732500D01*
X217545000Y-107732500D02*
X217545000Y-101232500D01*
X217545000Y-101232500D02*
X230445000Y-101232500D01*
X230445000Y-107732500D02*
X226045000Y-107732500D01*
X226045000Y-107732500D02*
X226045000Y-109042500D01*
X220955000Y-110432500D02*
X221955000Y-110432500D01*
X221455000Y-109432500D02*
X220955000Y-110432500D01*
X216245000Y-109042500D02*
X216245000Y-99922500D01*
X216245000Y-99922500D02*
X231745000Y-99922500D01*
X231745000Y-99922500D02*
X231745000Y-109042500D01*
X221955000Y-110432500D02*
X221455000Y-109432500D01*
X231745000Y-109042500D02*
X216245000Y-109042500D01*
%TO.C,U3*%
X207360000Y-124150000D02*
X212660000Y-124150000D01*
X209010000Y-113870000D02*
X207360000Y-113870000D01*
X212660000Y-124150000D02*
X212660000Y-113870000D01*
X207360000Y-113870000D02*
X207360000Y-124150000D01*
X212660000Y-113870000D02*
X211010000Y-113870000D01*
X209010000Y-113870000D02*
G75*
G03*
X211010000Y-113870000I1000000J0D01*
G01*
%TO.C,R5*%
X106040000Y-95270000D02*
X106370000Y-95270000D01*
X103630000Y-95270000D02*
X103630000Y-88730000D01*
X106370000Y-88730000D02*
X106040000Y-88730000D01*
X103960000Y-95270000D02*
X103630000Y-95270000D01*
X103630000Y-88730000D02*
X103960000Y-88730000D01*
X106370000Y-95270000D02*
X106370000Y-88730000D01*
%TO.C,J14*%
X118145000Y-127665000D02*
X118145000Y-130265000D01*
X118145000Y-130265000D02*
X120805000Y-130265000D01*
X118145000Y-126395000D02*
X118145000Y-125065000D01*
X118145000Y-127665000D02*
X120805000Y-127665000D01*
X120805000Y-127665000D02*
X120805000Y-130265000D01*
X118145000Y-125065000D02*
X119475000Y-125065000D01*
%TO.C,R4*%
X104040000Y-77460000D02*
X104370000Y-77460000D01*
X104370000Y-70920000D02*
X104040000Y-70920000D01*
X104370000Y-77460000D02*
X104370000Y-70920000D01*
X101630000Y-77460000D02*
X101630000Y-70920000D01*
X101960000Y-77460000D02*
X101630000Y-77460000D01*
X101630000Y-70920000D02*
X101960000Y-70920000D01*
%TO.C,D7*%
X46880000Y-73120000D02*
X49120000Y-73120000D01*
X49120000Y-69720000D02*
X46880000Y-69720000D01*
X48000000Y-68230000D02*
X48000000Y-68880000D01*
X48000000Y-73770000D02*
X48000000Y-73120000D01*
X49120000Y-69480000D02*
X46880000Y-69480000D01*
X49120000Y-73120000D02*
X49120000Y-68880000D01*
X46880000Y-68880000D02*
X46880000Y-73120000D01*
X49120000Y-69600000D02*
X46880000Y-69600000D01*
X49120000Y-68880000D02*
X46880000Y-68880000D01*
%TO.C,D5*%
X118120000Y-69050000D02*
X115880000Y-69050000D01*
X118120000Y-69290000D02*
X115880000Y-69290000D01*
X118120000Y-68450000D02*
X115880000Y-68450000D01*
X118120000Y-69170000D02*
X115880000Y-69170000D01*
X115880000Y-68450000D02*
X115880000Y-72690000D01*
X117000000Y-73340000D02*
X117000000Y-72690000D01*
X118120000Y-72690000D02*
X118120000Y-68450000D01*
X117000000Y-67800000D02*
X117000000Y-68450000D01*
X115880000Y-72690000D02*
X118120000Y-72690000D01*
%TO.C,Q6*%
X90850000Y-147310000D02*
X87000000Y-147310000D01*
X90000000Y-151359999D02*
G75*
G03*
X91257774Y-150104786I-1090000J2349999D01*
G01*
X91232631Y-147887955D02*
G75*
G03*
X90850000Y-147310000I-2322631J-1122045D01*
G01*
X86573537Y-150099513D02*
G75*
G03*
X87850000Y-151360000I2336463J1089513D01*
G01*
X87000000Y-147310000D02*
G75*
G03*
X86607617Y-147897736I1910000J-1700000D01*
G01*
%TO.C,J3*%
X20046000Y-136121000D02*
X20011000Y-136086000D01*
X17185000Y-129475000D02*
X17185000Y-139755000D01*
X16625000Y-129475000D02*
X16625000Y-139755000D01*
X16385000Y-129235000D02*
X16385000Y-129735000D01*
X22354000Y-138430000D02*
X22308000Y-138383000D01*
X26546000Y-139755000D02*
X16625000Y-139755000D01*
X22560000Y-138225000D02*
X22524000Y-138190000D01*
X26546000Y-129475000D02*
X26546000Y-139755000D01*
X17125000Y-129235000D02*
X16385000Y-129235000D01*
X20262000Y-135928000D02*
X20216000Y-135881000D01*
X26546000Y-129475000D02*
X16625000Y-129475000D01*
X18685000Y-129475000D02*
X18685000Y-139755000D01*
X23586000Y-129475000D02*
X23586000Y-139755000D01*
X19750000Y-131391000D02*
G75*
G03*
X19604747Y-132103805I1535001J-683999D01*
G01*
X19605000Y-132075000D02*
G75*
G03*
X19750244Y-132758318I1680000J0D01*
G01*
X20601000Y-133610001D02*
G75*
G03*
X21968042Y-133610427I684000J1535001D01*
G01*
X21969000Y-130540000D02*
G75*
G03*
X20601958Y-130539573I-684001J-1534993D01*
G01*
X22820000Y-132759000D02*
G75*
G03*
X22820427Y-131391958I-1534993J684001D01*
G01*
X22965000Y-137155000D02*
G75*
G03*
X22965000Y-137155000I-1680000J0D01*
G01*
%TO.C,Q5*%
X51480000Y-147000000D02*
X47630000Y-147000000D01*
X50630000Y-151049999D02*
G75*
G03*
X51887774Y-149794786I-1090000J2349999D01*
G01*
X51862631Y-147577955D02*
G75*
G03*
X51480000Y-147000000I-2322631J-1122045D01*
G01*
X47203537Y-149789513D02*
G75*
G03*
X48480000Y-151050000I2336463J1089513D01*
G01*
X47630000Y-147000000D02*
G75*
G03*
X47237617Y-147587736I1910000J-1700000D01*
G01*
%TO.C,Q1*%
X235630000Y-66460000D02*
X231780000Y-66460000D01*
X231780000Y-66460000D02*
G75*
G03*
X231387617Y-67047736I1910000J-1700000D01*
G01*
X234780000Y-70509999D02*
G75*
G03*
X236037774Y-69254786I-1090000J2349999D01*
G01*
X236012631Y-67037955D02*
G75*
G03*
X235630000Y-66460000I-2322631J-1122045D01*
G01*
X231353537Y-69249513D02*
G75*
G03*
X232630000Y-70510000I2336463J1089513D01*
G01*
%TO.C,R15*%
X53880000Y-149760000D02*
X53880000Y-150090000D01*
X60420000Y-150090000D02*
X60420000Y-149760000D01*
X60420000Y-152170000D02*
X60420000Y-152500000D01*
X60420000Y-152500000D02*
X53880000Y-152500000D01*
X53880000Y-152500000D02*
X53880000Y-152170000D01*
X60420000Y-149760000D02*
X53880000Y-149760000D01*
%TO.C,C5*%
X71880000Y-74370000D02*
X80120000Y-74370000D01*
X71880000Y-71630000D02*
X71880000Y-74370000D01*
X71880000Y-71630000D02*
X80120000Y-71630000D01*
X80120000Y-71630000D02*
X80120000Y-74370000D01*
%TO.C,C10*%
X57411000Y-81198000D02*
X57411000Y-82802000D01*
X56131000Y-79364000D02*
X56131000Y-80960000D01*
X55251000Y-78926000D02*
X55251000Y-80960000D01*
X55571000Y-79048000D02*
X55571000Y-80960000D01*
X54450000Y-78776000D02*
X54450000Y-85224000D01*
X54770000Y-78811000D02*
X54770000Y-80960000D01*
X56891000Y-80110000D02*
X56891000Y-83890000D01*
X56291000Y-79484000D02*
X56291000Y-80960000D01*
X56611000Y-79776000D02*
X56611000Y-84224000D01*
X54410000Y-78773000D02*
X54410000Y-85227000D01*
X55091000Y-78879000D02*
X55091000Y-80960000D01*
X55811000Y-83040000D02*
X55811000Y-84834000D01*
X57091000Y-80419000D02*
X57091000Y-83581000D01*
X54930000Y-78841000D02*
X54930000Y-80960000D01*
X54690000Y-83040000D02*
X54690000Y-85201000D01*
X54810000Y-83040000D02*
X54810000Y-85182000D01*
X56211000Y-83040000D02*
X56211000Y-84578000D01*
X56251000Y-79452000D02*
X56251000Y-80960000D01*
X54850000Y-78825000D02*
X54850000Y-80960000D01*
X55291000Y-78939000D02*
X55291000Y-80960000D01*
X56091000Y-79336000D02*
X56091000Y-80960000D01*
X55291000Y-83040000D02*
X55291000Y-85061000D01*
X55371000Y-78967000D02*
X55371000Y-80960000D01*
X57371000Y-81060000D02*
X57371000Y-82940000D01*
X56811000Y-80005000D02*
X56811000Y-83995000D01*
X56171000Y-83040000D02*
X56171000Y-84607000D01*
X54250000Y-78770000D02*
X54250000Y-85230000D01*
X54650000Y-83040000D02*
X54650000Y-85206000D01*
X55931000Y-83040000D02*
X55931000Y-84766000D01*
X56091000Y-83040000D02*
X56091000Y-84664000D01*
X56651000Y-79818000D02*
X56651000Y-84182000D01*
X55531000Y-83040000D02*
X55531000Y-84970000D01*
X54810000Y-78818000D02*
X54810000Y-80960000D01*
X55531000Y-79030000D02*
X55531000Y-80960000D01*
X55051000Y-78869000D02*
X55051000Y-80960000D01*
X55331000Y-83040000D02*
X55331000Y-85047000D01*
X55851000Y-79188000D02*
X55851000Y-80960000D01*
X55731000Y-79124000D02*
X55731000Y-80960000D01*
X54690000Y-78799000D02*
X54690000Y-80960000D01*
X56011000Y-83040000D02*
X56011000Y-84716000D01*
X55931000Y-79234000D02*
X55931000Y-80960000D01*
X55131000Y-78890000D02*
X55131000Y-80960000D01*
X56771000Y-79956000D02*
X56771000Y-84044000D01*
X55691000Y-79104000D02*
X55691000Y-80960000D01*
X56211000Y-79422000D02*
X56211000Y-80960000D01*
X55771000Y-79144000D02*
X55771000Y-80960000D01*
X56531000Y-83040000D02*
X56531000Y-84305000D01*
X55651000Y-79084000D02*
X55651000Y-80960000D01*
X57211000Y-80650000D02*
X57211000Y-83350000D01*
X56491000Y-79657000D02*
X56491000Y-80960000D01*
X56971000Y-80224000D02*
X56971000Y-83776000D01*
X56571000Y-79735000D02*
X56571000Y-84265000D01*
X54530000Y-78782000D02*
X54530000Y-80960000D01*
X55051000Y-83040000D02*
X55051000Y-85131000D01*
X54530000Y-83040000D02*
X54530000Y-85218000D01*
X57491000Y-81598000D02*
X57491000Y-82402000D01*
X56451000Y-83040000D02*
X56451000Y-84380000D01*
X56051000Y-79310000D02*
X56051000Y-80960000D01*
X55211000Y-78914000D02*
X55211000Y-80960000D01*
X54570000Y-78785000D02*
X54570000Y-80960000D01*
X55731000Y-83040000D02*
X55731000Y-84876000D01*
X56011000Y-79284000D02*
X56011000Y-80960000D01*
X56171000Y-79393000D02*
X56171000Y-80960000D01*
X55411000Y-83040000D02*
X55411000Y-85018000D01*
X54971000Y-83040000D02*
X54971000Y-85150000D01*
X55971000Y-79258000D02*
X55971000Y-80960000D01*
X56411000Y-83040000D02*
X56411000Y-84416000D01*
X55211000Y-83040000D02*
X55211000Y-85086000D01*
X55171000Y-83040000D02*
X55171000Y-85098000D01*
X54490000Y-78778000D02*
X54490000Y-80960000D01*
X54610000Y-78789000D02*
X54610000Y-80960000D01*
X57131000Y-80491000D02*
X57131000Y-83509000D01*
X55971000Y-83040000D02*
X55971000Y-84742000D01*
X57171000Y-80568000D02*
X57171000Y-83432000D01*
X56731000Y-79908000D02*
X56731000Y-84092000D01*
X54971000Y-78850000D02*
X54971000Y-80960000D01*
X55011000Y-83040000D02*
X55011000Y-85141000D01*
X55691000Y-83040000D02*
X55691000Y-84896000D01*
X50749759Y-80161000D02*
X51379759Y-80161000D01*
X56131000Y-83040000D02*
X56131000Y-84636000D01*
X56051000Y-83040000D02*
X56051000Y-84690000D01*
X57451000Y-81367000D02*
X57451000Y-82633000D01*
X55851000Y-83040000D02*
X55851000Y-84812000D01*
X55171000Y-78902000D02*
X55171000Y-80960000D01*
X54890000Y-78833000D02*
X54890000Y-80960000D01*
X55571000Y-83040000D02*
X55571000Y-84952000D01*
X55891000Y-79210000D02*
X55891000Y-80960000D01*
X54650000Y-78794000D02*
X54650000Y-80960000D01*
X57331000Y-80941000D02*
X57331000Y-83059000D01*
X55611000Y-83040000D02*
X55611000Y-84934000D01*
X55451000Y-83040000D02*
X55451000Y-85002000D01*
X57051000Y-80350000D02*
X57051000Y-83650000D01*
X55611000Y-79066000D02*
X55611000Y-80960000D01*
X54890000Y-83040000D02*
X54890000Y-85167000D01*
X54850000Y-83040000D02*
X54850000Y-85175000D01*
X55251000Y-83040000D02*
X55251000Y-85074000D01*
X55331000Y-78953000D02*
X55331000Y-80960000D01*
X55011000Y-78859000D02*
X55011000Y-80960000D01*
X55811000Y-79166000D02*
X55811000Y-80960000D01*
X55491000Y-83040000D02*
X55491000Y-84986000D01*
X55451000Y-78998000D02*
X55451000Y-80960000D01*
X54610000Y-83040000D02*
X54610000Y-85211000D01*
X55411000Y-78982000D02*
X55411000Y-80960000D01*
X56371000Y-83040000D02*
X56371000Y-84450000D01*
X55771000Y-83040000D02*
X55771000Y-84856000D01*
X56491000Y-83040000D02*
X56491000Y-84343000D01*
X54930000Y-83040000D02*
X54930000Y-85159000D01*
X55491000Y-79014000D02*
X55491000Y-80960000D01*
X54330000Y-78770000D02*
X54330000Y-85230000D01*
X55651000Y-83040000D02*
X55651000Y-84916000D01*
X54370000Y-78772000D02*
X54370000Y-85228000D01*
X56291000Y-83040000D02*
X56291000Y-84516000D01*
X54290000Y-78770000D02*
X54290000Y-85230000D01*
X56531000Y-79695000D02*
X56531000Y-80960000D01*
X54490000Y-83040000D02*
X54490000Y-85222000D01*
X56411000Y-79584000D02*
X56411000Y-80960000D01*
X56331000Y-79516000D02*
X56331000Y-80960000D01*
X56331000Y-83040000D02*
X56331000Y-84484000D01*
X57011000Y-80286000D02*
X57011000Y-83714000D01*
X56691000Y-79863000D02*
X56691000Y-84137000D01*
X57291000Y-80835000D02*
X57291000Y-83165000D01*
X57251000Y-80738000D02*
X57251000Y-83262000D01*
X55131000Y-83040000D02*
X55131000Y-85110000D01*
X56851000Y-80056000D02*
X56851000Y-83944000D01*
X54770000Y-83040000D02*
X54770000Y-85189000D01*
X54570000Y-83040000D02*
X54570000Y-85215000D01*
X55891000Y-83040000D02*
X55891000Y-84790000D01*
X56931000Y-80166000D02*
X56931000Y-83834000D01*
X55371000Y-83040000D02*
X55371000Y-85033000D01*
X56371000Y-79550000D02*
X56371000Y-80960000D01*
X54730000Y-83040000D02*
X54730000Y-85195000D01*
X55091000Y-83040000D02*
X55091000Y-85121000D01*
X51064759Y-79846000D02*
X51064759Y-80476000D01*
X54730000Y-78805000D02*
X54730000Y-80960000D01*
X56451000Y-79620000D02*
X56451000Y-80960000D01*
X56251000Y-83040000D02*
X56251000Y-84548000D01*
X57520000Y-82000000D02*
G75*
G03*
X57520000Y-82000000I-3270000J0D01*
G01*
%TO.C,C2*%
X209909000Y-92121000D02*
X209909000Y-90040000D01*
X208589000Y-87960000D02*
X208589000Y-86584000D01*
X208989000Y-91716000D02*
X208989000Y-90040000D01*
X209869000Y-92110000D02*
X209869000Y-90040000D01*
X208669000Y-91484000D02*
X208669000Y-90040000D01*
X209709000Y-87960000D02*
X209709000Y-85939000D01*
X208069000Y-90834000D02*
X208069000Y-87166000D01*
X210350000Y-87960000D02*
X210350000Y-85794000D01*
X209389000Y-87960000D02*
X209389000Y-86066000D01*
X208589000Y-91416000D02*
X208589000Y-90040000D01*
X209789000Y-92086000D02*
X209789000Y-90040000D01*
X210590000Y-92227000D02*
X210590000Y-85773000D01*
X207789000Y-90350000D02*
X207789000Y-87650000D01*
X209429000Y-91952000D02*
X209429000Y-90040000D01*
X209549000Y-87960000D02*
X209549000Y-85998000D01*
X210310000Y-87960000D02*
X210310000Y-85799000D01*
X209109000Y-91790000D02*
X209109000Y-90040000D01*
X209229000Y-91856000D02*
X209229000Y-90040000D01*
X208869000Y-87960000D02*
X208869000Y-86364000D01*
X210430000Y-87960000D02*
X210430000Y-85785000D01*
X208149000Y-90944000D02*
X208149000Y-87056000D01*
X209829000Y-92098000D02*
X209829000Y-90040000D01*
X208029000Y-90776000D02*
X208029000Y-87224000D01*
X209629000Y-87960000D02*
X209629000Y-85967000D01*
X209389000Y-91934000D02*
X209389000Y-90040000D01*
X210390000Y-87960000D02*
X210390000Y-85789000D01*
X214250241Y-90839000D02*
X213620241Y-90839000D01*
X208669000Y-87960000D02*
X208669000Y-86516000D01*
X208909000Y-87960000D02*
X208909000Y-86336000D01*
X208789000Y-87960000D02*
X208789000Y-86422000D01*
X209269000Y-91876000D02*
X209269000Y-90040000D01*
X208709000Y-87960000D02*
X208709000Y-86484000D01*
X210630000Y-92228000D02*
X210630000Y-85772000D01*
X209749000Y-92074000D02*
X209749000Y-90040000D01*
X209469000Y-91970000D02*
X209469000Y-90040000D01*
X209309000Y-87960000D02*
X209309000Y-86104000D01*
X209869000Y-87960000D02*
X209869000Y-85890000D01*
X210710000Y-92230000D02*
X210710000Y-85770000D01*
X207869000Y-90509000D02*
X207869000Y-87491000D01*
X213935241Y-91154000D02*
X213935241Y-90524000D01*
X208829000Y-91607000D02*
X208829000Y-90040000D01*
X208189000Y-90995000D02*
X208189000Y-87005000D01*
X207669000Y-90059000D02*
X207669000Y-87941000D01*
X210070000Y-92159000D02*
X210070000Y-90040000D01*
X208949000Y-87960000D02*
X208949000Y-86310000D01*
X209149000Y-87960000D02*
X209149000Y-86188000D01*
X210430000Y-92215000D02*
X210430000Y-90040000D01*
X210470000Y-92218000D02*
X210470000Y-90040000D01*
X210750000Y-92230000D02*
X210750000Y-85770000D01*
X210310000Y-92201000D02*
X210310000Y-90040000D01*
X209669000Y-87960000D02*
X209669000Y-85953000D01*
X207709000Y-90165000D02*
X207709000Y-87835000D01*
X208509000Y-87960000D02*
X208509000Y-86657000D01*
X207629000Y-89940000D02*
X207629000Y-88060000D01*
X210230000Y-87960000D02*
X210230000Y-85811000D01*
X209469000Y-87960000D02*
X209469000Y-86030000D01*
X209309000Y-91896000D02*
X209309000Y-90040000D01*
X208869000Y-91636000D02*
X208869000Y-90040000D01*
X209069000Y-87960000D02*
X209069000Y-86234000D01*
X209709000Y-92061000D02*
X209709000Y-90040000D01*
X209629000Y-92033000D02*
X209629000Y-90040000D01*
X210110000Y-87960000D02*
X210110000Y-85833000D01*
X209189000Y-91834000D02*
X209189000Y-90040000D01*
X209829000Y-87960000D02*
X209829000Y-85902000D01*
X210190000Y-92182000D02*
X210190000Y-90040000D01*
X208429000Y-91265000D02*
X208429000Y-86735000D01*
X209429000Y-87960000D02*
X209429000Y-86048000D01*
X207509000Y-89402000D02*
X207509000Y-88598000D01*
X207829000Y-90432000D02*
X207829000Y-87568000D01*
X210230000Y-92189000D02*
X210230000Y-90040000D01*
X208109000Y-90890000D02*
X208109000Y-87110000D01*
X209949000Y-92131000D02*
X209949000Y-90040000D01*
X209109000Y-87960000D02*
X209109000Y-86210000D01*
X208749000Y-91548000D02*
X208749000Y-90040000D01*
X207749000Y-90262000D02*
X207749000Y-87738000D01*
X209989000Y-92141000D02*
X209989000Y-90040000D01*
X208829000Y-87960000D02*
X208829000Y-86393000D01*
X210270000Y-87960000D02*
X210270000Y-85805000D01*
X209349000Y-87960000D02*
X209349000Y-86084000D01*
X207589000Y-89802000D02*
X207589000Y-88198000D01*
X209229000Y-87960000D02*
X209229000Y-86144000D01*
X209149000Y-91812000D02*
X209149000Y-90040000D01*
X208309000Y-91137000D02*
X208309000Y-86863000D01*
X208909000Y-91664000D02*
X208909000Y-90040000D01*
X210390000Y-92211000D02*
X210390000Y-90040000D01*
X208229000Y-91044000D02*
X208229000Y-86956000D01*
X208509000Y-91343000D02*
X208509000Y-90040000D01*
X208269000Y-91092000D02*
X208269000Y-86908000D01*
X208749000Y-87960000D02*
X208749000Y-86452000D01*
X210070000Y-87960000D02*
X210070000Y-85841000D01*
X209509000Y-91986000D02*
X209509000Y-90040000D01*
X210029000Y-87960000D02*
X210029000Y-85850000D01*
X209669000Y-92047000D02*
X209669000Y-90040000D01*
X209989000Y-87960000D02*
X209989000Y-85859000D01*
X208989000Y-87960000D02*
X208989000Y-86284000D01*
X210510000Y-92222000D02*
X210510000Y-90040000D01*
X208629000Y-91450000D02*
X208629000Y-90040000D01*
X208709000Y-91516000D02*
X208709000Y-90040000D01*
X208789000Y-91578000D02*
X208789000Y-90040000D01*
X210150000Y-92175000D02*
X210150000Y-90040000D01*
X210470000Y-87960000D02*
X210470000Y-85782000D01*
X208469000Y-87960000D02*
X208469000Y-86695000D01*
X208349000Y-91182000D02*
X208349000Y-86818000D01*
X210190000Y-87960000D02*
X210190000Y-85818000D01*
X208949000Y-91690000D02*
X208949000Y-90040000D01*
X210670000Y-92230000D02*
X210670000Y-85770000D01*
X207909000Y-90581000D02*
X207909000Y-87419000D01*
X209029000Y-87960000D02*
X209029000Y-86258000D01*
X208469000Y-91305000D02*
X208469000Y-90040000D01*
X209949000Y-87960000D02*
X209949000Y-85869000D01*
X209509000Y-87960000D02*
X209509000Y-86014000D01*
X208549000Y-91380000D02*
X208549000Y-90040000D01*
X210550000Y-92224000D02*
X210550000Y-85776000D01*
X208389000Y-91224000D02*
X208389000Y-86776000D01*
X209749000Y-87960000D02*
X209749000Y-85926000D01*
X210270000Y-92195000D02*
X210270000Y-90040000D01*
X210029000Y-92150000D02*
X210029000Y-90040000D01*
X209589000Y-92018000D02*
X209589000Y-90040000D01*
X208549000Y-87960000D02*
X208549000Y-86620000D01*
X209549000Y-92002000D02*
X209549000Y-90040000D01*
X207549000Y-89633000D02*
X207549000Y-88367000D01*
X210150000Y-87960000D02*
X210150000Y-85825000D01*
X209269000Y-87960000D02*
X209269000Y-86124000D01*
X207989000Y-90714000D02*
X207989000Y-87286000D01*
X210350000Y-92206000D02*
X210350000Y-90040000D01*
X208629000Y-87960000D02*
X208629000Y-86550000D01*
X207949000Y-90650000D02*
X207949000Y-87350000D01*
X210110000Y-92167000D02*
X210110000Y-90040000D01*
X209789000Y-87960000D02*
X209789000Y-85914000D01*
X209029000Y-91742000D02*
X209029000Y-90040000D01*
X209069000Y-91766000D02*
X209069000Y-90040000D01*
X210510000Y-87960000D02*
X210510000Y-85778000D01*
X209909000Y-87960000D02*
X209909000Y-85879000D01*
X209189000Y-87960000D02*
X209189000Y-86166000D01*
X209349000Y-91916000D02*
X209349000Y-90040000D01*
X209589000Y-87960000D02*
X209589000Y-85982000D01*
X214020000Y-89000000D02*
G75*
G03*
X214020000Y-89000000I-3270000J0D01*
G01*
%TO.C,J2*%
X163865000Y-146261000D02*
X163865000Y-136340000D01*
X174145000Y-136900000D02*
X163865000Y-136900000D01*
X165395000Y-142275000D02*
X165430000Y-142239000D01*
X174385000Y-136840000D02*
X174385000Y-136100000D01*
X167499000Y-139761000D02*
X167534000Y-139726000D01*
X174145000Y-138400000D02*
X163865000Y-138400000D01*
X165190000Y-142069000D02*
X165237000Y-142023000D01*
X167692000Y-139977000D02*
X167739000Y-139931000D01*
X174385000Y-136100000D02*
X173885000Y-136100000D01*
X174145000Y-143301000D02*
X163865000Y-143301000D01*
X174145000Y-146261000D02*
X163865000Y-146261000D01*
X174145000Y-146261000D02*
X174145000Y-136340000D01*
X174145000Y-136340000D02*
X163865000Y-136340000D01*
X170861000Y-142535000D02*
G75*
G03*
X172228042Y-142535427I684001J1534993D01*
G01*
X170009999Y-140316000D02*
G75*
G03*
X170009573Y-141683042I1535001J-684000D01*
G01*
X173080000Y-141684000D02*
G75*
G03*
X173080427Y-140316958I-1534993J684001D01*
G01*
X172229000Y-139465000D02*
G75*
G03*
X171516195Y-139319747I-683999J-1535001D01*
G01*
X171545000Y-139320000D02*
G75*
G03*
X170861682Y-139465244I0J-1680000D01*
G01*
X168145000Y-141000000D02*
G75*
G03*
X168145000Y-141000000I-1680000J0D01*
G01*
%TO.C,U6*%
X95010000Y-63870000D02*
X93360000Y-63870000D01*
X98660000Y-63870000D02*
X97010000Y-63870000D01*
X93360000Y-63870000D02*
X93360000Y-74150000D01*
X93360000Y-74150000D02*
X98660000Y-74150000D01*
X98660000Y-74150000D02*
X98660000Y-63870000D01*
X95010000Y-63870000D02*
G75*
G03*
X97010000Y-63870000I1000000J0D01*
G01*
%TO.C,D6*%
X114120000Y-72690000D02*
X114120000Y-68450000D01*
X114120000Y-68450000D02*
X111880000Y-68450000D01*
X113000000Y-67800000D02*
X113000000Y-68450000D01*
X113000000Y-73340000D02*
X113000000Y-72690000D01*
X111880000Y-71970000D02*
X114120000Y-71970000D01*
X111880000Y-71850000D02*
X114120000Y-71850000D01*
X111880000Y-68450000D02*
X111880000Y-72690000D01*
X111880000Y-72690000D02*
X114120000Y-72690000D01*
X111880000Y-72090000D02*
X114120000Y-72090000D01*
%TO.C,J19*%
X35670000Y-66670000D02*
X37000000Y-66670000D01*
X35670000Y-69270000D02*
X38330000Y-69270000D01*
X35670000Y-68000000D02*
X35670000Y-66670000D01*
X35670000Y-69270000D02*
X35670000Y-69330000D01*
X38330000Y-69270000D02*
X38330000Y-69330000D01*
X35670000Y-69330000D02*
X38330000Y-69330000D01*
D15*
%TO.C,U5*%
X178539000Y-101030000D02*
X195811000Y-101030000D01*
X178239000Y-126500000D02*
X178239000Y-126500000D01*
X178239000Y-126400000D02*
X178239000Y-126400000D01*
X195811000Y-128970000D02*
X178539000Y-128970000D01*
X178539000Y-128970000D02*
X178539000Y-101030000D01*
X195811000Y-101030000D02*
X195811000Y-128970000D01*
X178239000Y-126500000D02*
G75*
G03*
X178239000Y-126400000I0J50000D01*
G01*
X178239000Y-126400000D02*
G75*
G03*
X178239000Y-126500000I0J-50000D01*
G01*
D17*
%TO.C,Alim_5V_I2C_isolator_Vmn_measurement1*%
X147800000Y-114560000D02*
X147800000Y-94260000D01*
X118000000Y-115000000D02*
X118000000Y-115000000D01*
X116000000Y-114560000D02*
X147800000Y-114560000D01*
X118000000Y-115000000D02*
X118000000Y-115000000D01*
X116000000Y-94260000D02*
X116000000Y-114560000D01*
X147800000Y-94260000D02*
X116000000Y-94260000D01*
X118000000Y-115100000D02*
X118000000Y-115100000D01*
X118000000Y-115100000D02*
G75*
G03*
X118000000Y-115000000I0J50000D01*
G01*
X118000000Y-115000000D02*
G75*
G03*
X118000000Y-115100000I0J-50000D01*
G01*
X118000000Y-115000000D02*
G75*
G03*
X118000000Y-115100000I0J-50000D01*
G01*
D14*
%TO.C,D9-OHMPI-RUN-WAITING1*%
X242080000Y-130790000D02*
X242399000Y-130790000D01*
X239601000Y-130790000D02*
X239920000Y-130790000D01*
X242398749Y-130790000D02*
G75*
G03*
X242080724Y-126486758I-1398749J2060000D01*
G01*
X239919039Y-127047287D02*
G75*
G03*
X239920000Y-130413330I1080961J-1682713D01*
G01*
X239919276Y-126486758D02*
G75*
G03*
X239601251Y-130790000I1080724J-2243242D01*
G01*
X242080000Y-130413330D02*
G75*
G03*
X242080961Y-127047287I-1080000J1683330D01*
G01*
%TO.C,D11*%
X50250000Y-143310000D02*
X50250000Y-146250000D01*
X49350000Y-146250000D02*
X54790000Y-146250000D01*
X55810000Y-144780000D02*
X54790000Y-144780000D01*
X50370000Y-143310000D02*
X50370000Y-146250000D01*
X50130000Y-143310000D02*
X50130000Y-146250000D01*
X54790000Y-146250000D02*
X54790000Y-143310000D01*
X48330000Y-144780000D02*
X49350000Y-144780000D01*
X54790000Y-143310000D02*
X49350000Y-143310000D01*
X49350000Y-143310000D02*
X49350000Y-146250000D01*
%TO.C,D2*%
X206740000Y-61000000D02*
X205720000Y-61000000D01*
X201300000Y-59530000D02*
X201300000Y-62470000D01*
X201060000Y-59530000D02*
X201060000Y-62470000D01*
X205720000Y-62470000D02*
X205720000Y-59530000D01*
X200280000Y-59530000D02*
X200280000Y-62470000D01*
X201180000Y-59530000D02*
X201180000Y-62470000D01*
X200280000Y-62470000D02*
X205720000Y-62470000D01*
X205720000Y-59530000D02*
X200280000Y-59530000D01*
X199260000Y-61000000D02*
X200280000Y-61000000D01*
%TO.C,R7*%
X83280000Y-152500000D02*
X76740000Y-152500000D01*
X83280000Y-152170000D02*
X83280000Y-152500000D01*
X76740000Y-152500000D02*
X76740000Y-152170000D01*
X76740000Y-149760000D02*
X76740000Y-150090000D01*
X83280000Y-149760000D02*
X76740000Y-149760000D01*
X83280000Y-150090000D02*
X83280000Y-149760000D01*
%TO.C,U7*%
X93360000Y-81870000D02*
X93360000Y-92150000D01*
X98660000Y-92150000D02*
X98660000Y-81870000D01*
X93360000Y-92150000D02*
X98660000Y-92150000D01*
X98660000Y-81870000D02*
X97010000Y-81870000D01*
X95010000Y-81870000D02*
X93360000Y-81870000D01*
X95010000Y-81870000D02*
G75*
G03*
X97010000Y-81870000I1000000J0D01*
G01*
%TO.C,C9*%
X109040000Y-79429000D02*
X111098000Y-79429000D01*
X104770000Y-80350000D02*
X111230000Y-80350000D01*
X105863000Y-77909000D02*
X110137000Y-77909000D01*
X104953000Y-79269000D02*
X106960000Y-79269000D01*
X104770000Y-80270000D02*
X111230000Y-80270000D01*
X109040000Y-78189000D02*
X110416000Y-78189000D01*
X109040000Y-78229000D02*
X110450000Y-78229000D01*
X105258000Y-78629000D02*
X106960000Y-78629000D01*
X109040000Y-78749000D02*
X110812000Y-78749000D01*
X106419000Y-77509000D02*
X109581000Y-77509000D01*
X109040000Y-79790000D02*
X111182000Y-79790000D01*
X105818000Y-77949000D02*
X110182000Y-77949000D01*
X109040000Y-79629000D02*
X111150000Y-79629000D01*
X106568000Y-77429000D02*
X109432000Y-77429000D01*
X105908000Y-77869000D02*
X110092000Y-77869000D01*
X109040000Y-79549000D02*
X111131000Y-79549000D01*
X109040000Y-79710000D02*
X111167000Y-79710000D01*
X107198000Y-77189000D02*
X108802000Y-77189000D01*
X104805000Y-79870000D02*
X106960000Y-79870000D01*
X104772000Y-80230000D02*
X111228000Y-80230000D01*
X104841000Y-79670000D02*
X106960000Y-79670000D01*
X109040000Y-79950000D02*
X111206000Y-79950000D01*
X109040000Y-79509000D02*
X111121000Y-79509000D01*
X106005000Y-77789000D02*
X109995000Y-77789000D01*
X109040000Y-79109000D02*
X110986000Y-79109000D01*
X105846000Y-83535241D02*
X106476000Y-83535241D01*
X104833000Y-79710000D02*
X106960000Y-79710000D01*
X109040000Y-79830000D02*
X111189000Y-79830000D01*
X105234000Y-78669000D02*
X106960000Y-78669000D01*
X106110000Y-77709000D02*
X109890000Y-77709000D01*
X109040000Y-78349000D02*
X110548000Y-78349000D01*
X104785000Y-80030000D02*
X106960000Y-80030000D01*
X105484000Y-78309000D02*
X106960000Y-78309000D01*
X104890000Y-79469000D02*
X106960000Y-79469000D01*
X109040000Y-78869000D02*
X110876000Y-78869000D01*
X104998000Y-79149000D02*
X106960000Y-79149000D01*
X105550000Y-78229000D02*
X106960000Y-78229000D01*
X105188000Y-78749000D02*
X106960000Y-78749000D01*
X109040000Y-78429000D02*
X110607000Y-78429000D01*
X109040000Y-79349000D02*
X111074000Y-79349000D01*
X105584000Y-78189000D02*
X106960000Y-78189000D01*
X104902000Y-79429000D02*
X106960000Y-79429000D01*
X109040000Y-80070000D02*
X111218000Y-80070000D01*
X105364000Y-78469000D02*
X106960000Y-78469000D01*
X109040000Y-78789000D02*
X110834000Y-78789000D01*
X104859000Y-79589000D02*
X106960000Y-79589000D01*
X109040000Y-79029000D02*
X110952000Y-79029000D01*
X106161000Y-83850241D02*
X106161000Y-83220241D01*
X109040000Y-79589000D02*
X111141000Y-79589000D01*
X105166000Y-78789000D02*
X106960000Y-78789000D01*
X109040000Y-79149000D02*
X111002000Y-79149000D01*
X109040000Y-79469000D02*
X111110000Y-79469000D01*
X105014000Y-79109000D02*
X106960000Y-79109000D01*
X109040000Y-78309000D02*
X110516000Y-78309000D01*
X109040000Y-79910000D02*
X111201000Y-79910000D01*
X104967000Y-79229000D02*
X106960000Y-79229000D01*
X104879000Y-79509000D02*
X106960000Y-79509000D01*
X105336000Y-78509000D02*
X106960000Y-78509000D01*
X109040000Y-79269000D02*
X111047000Y-79269000D01*
X109040000Y-79870000D02*
X111195000Y-79870000D01*
X105516000Y-78269000D02*
X106960000Y-78269000D01*
X109040000Y-78069000D02*
X110305000Y-78069000D01*
X109040000Y-78589000D02*
X110716000Y-78589000D01*
X104789000Y-79990000D02*
X106960000Y-79990000D01*
X105084000Y-78949000D02*
X106960000Y-78949000D01*
X109040000Y-78709000D02*
X110790000Y-78709000D01*
X104770000Y-80310000D02*
X111230000Y-80310000D01*
X105066000Y-78989000D02*
X106960000Y-78989000D01*
X105310000Y-78549000D02*
X106960000Y-78549000D01*
X105048000Y-79029000D02*
X106960000Y-79029000D01*
X106835000Y-77309000D02*
X109165000Y-77309000D01*
X105284000Y-78589000D02*
X106960000Y-78589000D01*
X105956000Y-77829000D02*
X110044000Y-77829000D01*
X106650000Y-77389000D02*
X109350000Y-77389000D01*
X109040000Y-78669000D02*
X110766000Y-78669000D01*
X104869000Y-79549000D02*
X106960000Y-79549000D01*
X107060000Y-77229000D02*
X108940000Y-77229000D01*
X105776000Y-77989000D02*
X110224000Y-77989000D01*
X104778000Y-80110000D02*
X106960000Y-80110000D01*
X106941000Y-77269000D02*
X109059000Y-77269000D01*
X104773000Y-80190000D02*
X111227000Y-80190000D01*
X109040000Y-78949000D02*
X110916000Y-78949000D01*
X104782000Y-80070000D02*
X106960000Y-80070000D01*
X104982000Y-79189000D02*
X106960000Y-79189000D01*
X109040000Y-79750000D02*
X111175000Y-79750000D01*
X105620000Y-78149000D02*
X106960000Y-78149000D01*
X109040000Y-78109000D02*
X110343000Y-78109000D01*
X109040000Y-78149000D02*
X110380000Y-78149000D01*
X109040000Y-79309000D02*
X111061000Y-79309000D01*
X105735000Y-78029000D02*
X110265000Y-78029000D01*
X107598000Y-77109000D02*
X108402000Y-77109000D01*
X109040000Y-78989000D02*
X110934000Y-78989000D01*
X109040000Y-78549000D02*
X110690000Y-78549000D01*
X109040000Y-80110000D02*
X111222000Y-80110000D01*
X106738000Y-77349000D02*
X109262000Y-77349000D01*
X105144000Y-78829000D02*
X106960000Y-78829000D01*
X109040000Y-78629000D02*
X110742000Y-78629000D01*
X106224000Y-77629000D02*
X109776000Y-77629000D01*
X105393000Y-78429000D02*
X106960000Y-78429000D01*
X109040000Y-78509000D02*
X110664000Y-78509000D01*
X109040000Y-78389000D02*
X110578000Y-78389000D01*
X104825000Y-79750000D02*
X106960000Y-79750000D01*
X104850000Y-79629000D02*
X106960000Y-79629000D01*
X104811000Y-79830000D02*
X106960000Y-79830000D01*
X109040000Y-79069000D02*
X110970000Y-79069000D01*
X109040000Y-79189000D02*
X111018000Y-79189000D01*
X107367000Y-77149000D02*
X108633000Y-77149000D01*
X109040000Y-79670000D02*
X111159000Y-79670000D01*
X105657000Y-78109000D02*
X106960000Y-78109000D01*
X105104000Y-78909000D02*
X106960000Y-78909000D01*
X104799000Y-79910000D02*
X106960000Y-79910000D01*
X104926000Y-79349000D02*
X106960000Y-79349000D01*
X106166000Y-77669000D02*
X109834000Y-77669000D01*
X105210000Y-78709000D02*
X106960000Y-78709000D01*
X109040000Y-79389000D02*
X111086000Y-79389000D01*
X104794000Y-79950000D02*
X106960000Y-79950000D01*
X105695000Y-78069000D02*
X106960000Y-78069000D01*
X109040000Y-78469000D02*
X110636000Y-78469000D01*
X104776000Y-80150000D02*
X111224000Y-80150000D01*
X105422000Y-78389000D02*
X106960000Y-78389000D01*
X109040000Y-78829000D02*
X110856000Y-78829000D01*
X106350000Y-77549000D02*
X109650000Y-77549000D01*
X105452000Y-78349000D02*
X106960000Y-78349000D01*
X109040000Y-79990000D02*
X111211000Y-79990000D01*
X104914000Y-79389000D02*
X106960000Y-79389000D01*
X106056000Y-77749000D02*
X109944000Y-77749000D01*
X109040000Y-80030000D02*
X111215000Y-80030000D01*
X106286000Y-77589000D02*
X109714000Y-77589000D01*
X109040000Y-78909000D02*
X110896000Y-78909000D01*
X109040000Y-78269000D02*
X110484000Y-78269000D01*
X104818000Y-79790000D02*
X106960000Y-79790000D01*
X104939000Y-79309000D02*
X106960000Y-79309000D01*
X109040000Y-79229000D02*
X111033000Y-79229000D01*
X105124000Y-78869000D02*
X106960000Y-78869000D01*
X105030000Y-79069000D02*
X106960000Y-79069000D01*
X106491000Y-77469000D02*
X109509000Y-77469000D01*
X111270000Y-80350000D02*
G75*
G03*
X111270000Y-80350000I-3270000J0D01*
G01*
%TO.C,D3*%
X117000000Y-85960000D02*
X117000000Y-85310000D01*
X115880000Y-81070000D02*
X115880000Y-85310000D01*
X118120000Y-81070000D02*
X115880000Y-81070000D01*
X115880000Y-84470000D02*
X118120000Y-84470000D01*
X115880000Y-85310000D02*
X118120000Y-85310000D01*
X115880000Y-84590000D02*
X118120000Y-84590000D01*
X118120000Y-85310000D02*
X118120000Y-81070000D01*
X117000000Y-80420000D02*
X117000000Y-81070000D01*
X115880000Y-84710000D02*
X118120000Y-84710000D01*
%TO.C,J12*%
X138430000Y-143710000D02*
X137100000Y-143710000D01*
X157540000Y-143710000D02*
X157540000Y-141050000D01*
X139700000Y-141050000D02*
X157540000Y-141050000D01*
X137100000Y-143710000D02*
X137100000Y-142380000D01*
X139700000Y-143710000D02*
X157540000Y-143710000D01*
X139700000Y-143710000D02*
X139700000Y-141050000D01*
%TO.C,J17*%
X118100000Y-120650000D02*
X118100000Y-120710000D01*
X118100000Y-119380000D02*
X118100000Y-118050000D01*
X120760000Y-120650000D02*
X120760000Y-120710000D01*
X118100000Y-120710000D02*
X120760000Y-120710000D01*
X118100000Y-120650000D02*
X120760000Y-120650000D01*
X118100000Y-118050000D02*
X119430000Y-118050000D01*
%TO.C,D12*%
X95430000Y-146250000D02*
X95430000Y-143310000D01*
X95430000Y-143310000D02*
X89990000Y-143310000D01*
X90770000Y-143310000D02*
X90770000Y-146250000D01*
X90890000Y-143310000D02*
X90890000Y-146250000D01*
X89990000Y-143310000D02*
X89990000Y-146250000D01*
X89990000Y-146250000D02*
X95430000Y-146250000D01*
X88970000Y-144780000D02*
X89990000Y-144780000D01*
X91010000Y-143310000D02*
X91010000Y-146250000D01*
X96450000Y-144780000D02*
X95430000Y-144780000D01*
%TO.C,D1*%
X224300000Y-59530000D02*
X224300000Y-62470000D01*
X222260000Y-61000000D02*
X223280000Y-61000000D01*
X228720000Y-62470000D02*
X228720000Y-59530000D01*
X228720000Y-59530000D02*
X223280000Y-59530000D01*
X223280000Y-59530000D02*
X223280000Y-62470000D01*
X229740000Y-61000000D02*
X228720000Y-61000000D01*
X224180000Y-59530000D02*
X224180000Y-62470000D01*
X223280000Y-62470000D02*
X228720000Y-62470000D01*
X224060000Y-59530000D02*
X224060000Y-62470000D01*
%TO.C,D11-OHMPI-STACK1*%
X230080000Y-130790000D02*
X230399000Y-130790000D01*
X227601000Y-130790000D02*
X227920000Y-130790000D01*
X230398749Y-130790000D02*
G75*
G03*
X230080724Y-126486758I-1398749J2060000D01*
G01*
X227919276Y-126486758D02*
G75*
G03*
X227601251Y-130790000I1080724J-2243242D01*
G01*
X230080000Y-130413330D02*
G75*
G03*
X230080961Y-127047287I-1080000J1683330D01*
G01*
X227919039Y-127047287D02*
G75*
G03*
X227920000Y-130413330I1080961J-1682713D01*
G01*
%TO.C,R14*%
X220330000Y-112110000D02*
X220330000Y-113950000D01*
X224170000Y-113950000D02*
X224170000Y-112110000D01*
X219380000Y-113030000D02*
X220330000Y-113030000D01*
X224170000Y-112110000D02*
X220330000Y-112110000D01*
X225120000Y-113030000D02*
X224170000Y-113030000D01*
X220330000Y-113950000D02*
X224170000Y-113950000D01*
%TO.C,Q4*%
X74340000Y-147310000D02*
X70490000Y-147310000D01*
X73490000Y-151359999D02*
G75*
G03*
X74747774Y-150104786I-1090000J2349999D01*
G01*
X74722631Y-147887955D02*
G75*
G03*
X74340000Y-147310000I-2322631J-1122045D01*
G01*
X70490000Y-147310000D02*
G75*
G03*
X70097617Y-147897736I1910000J-1700000D01*
G01*
X70063537Y-150099513D02*
G75*
G03*
X71340000Y-151360000I2336463J1089513D01*
G01*
%TO.C,D9*%
X38280000Y-145987500D02*
X38280000Y-143047500D01*
X33860000Y-143047500D02*
X33860000Y-145987500D01*
X33620000Y-143047500D02*
X33620000Y-145987500D01*
X32840000Y-145987500D02*
X38280000Y-145987500D01*
X39300000Y-144517500D02*
X38280000Y-144517500D01*
X33740000Y-143047500D02*
X33740000Y-145987500D01*
X32840000Y-143047500D02*
X32840000Y-145987500D01*
X31820000Y-144517500D02*
X32840000Y-144517500D01*
X38280000Y-143047500D02*
X32840000Y-143047500D01*
%TO.C,K2*%
X205350000Y-53400000D02*
X205350000Y-52200000D01*
X205350000Y-52600000D02*
X204650000Y-53000000D01*
X196650000Y-57650000D02*
X213350000Y-57650000D01*
X213350000Y-57650000D02*
X213350000Y-34950000D01*
X206000000Y-57910000D02*
X204000000Y-57910000D01*
X204650000Y-52200000D02*
X204650000Y-53400000D01*
X205350000Y-52200000D02*
X204650000Y-52200000D01*
X203650000Y-52800000D02*
X200500000Y-52800000D01*
X204650000Y-53400000D02*
X205350000Y-53400000D01*
X209500000Y-52800000D02*
X206350000Y-52800000D01*
X196650000Y-34950000D02*
X196650000Y-57650000D01*
X213350000Y-34950000D02*
X196650000Y-34950000D01*
%TO.C,R3*%
X79730000Y-79630000D02*
X86270000Y-79630000D01*
X86270000Y-82370000D02*
X86270000Y-82040000D01*
X86270000Y-79630000D02*
X86270000Y-79960000D01*
X79730000Y-79960000D02*
X79730000Y-79630000D01*
X79730000Y-82040000D02*
X79730000Y-82370000D01*
X79730000Y-82370000D02*
X86270000Y-82370000D01*
%TO.C,C8*%
X87630000Y-92120000D02*
X87630000Y-83880000D01*
X87630000Y-92120000D02*
X90370000Y-92120000D01*
X90370000Y-92120000D02*
X90370000Y-83880000D01*
X87630000Y-83880000D02*
X90370000Y-83880000D01*
%TO.C,RV3*%
X90575000Y-75470000D02*
X100345000Y-75470000D01*
X100345000Y-75470000D02*
X100345000Y-80540000D01*
X90575000Y-80540000D02*
X100345000Y-80540000D01*
X90575000Y-75470000D02*
X90575000Y-80540000D01*
D17*
%TO.C,Alim_5V_Digital_rasp_iso1540_mcp23008_current_7_click1*%
X193100000Y-93000000D02*
X193100000Y-93000000D01*
X172260000Y-95000000D02*
X192560000Y-95000000D01*
X193000000Y-93000000D02*
X193000000Y-93000000D01*
X193000000Y-93000000D02*
X193000000Y-93000000D01*
X192560000Y-95000000D02*
X192560000Y-63200000D01*
X172260000Y-63200000D02*
X172260000Y-95000000D01*
X192560000Y-63200000D02*
X172260000Y-63200000D01*
X193000000Y-93000000D02*
G75*
G03*
X193100000Y-93000000I50000J0D01*
G01*
X193000000Y-93000000D02*
G75*
G03*
X193100000Y-93000000I50000J0D01*
G01*
X193100000Y-93000000D02*
G75*
G03*
X193000000Y-93000000I-50000J0D01*
G01*
D14*
%TO.C,Q3*%
X33700000Y-147047500D02*
X29850000Y-147047500D01*
X29423537Y-149837013D02*
G75*
G03*
X30700000Y-151097500I2336463J1089513D01*
G01*
X29850000Y-147047500D02*
G75*
G03*
X29457617Y-147635236I1910000J-1700000D01*
G01*
X34082631Y-147625455D02*
G75*
G03*
X33700000Y-147047500I-2322631J-1122045D01*
G01*
X32850000Y-151097499D02*
G75*
G03*
X34107774Y-149842286I-1090000J2349999D01*
G01*
%TO.C,C3*%
X71960000Y-80171000D02*
X70393000Y-80171000D01*
X75224000Y-80611000D02*
X70776000Y-80611000D01*
X76182000Y-78810000D02*
X74040000Y-78810000D01*
X76230000Y-78290000D02*
X69770000Y-78290000D01*
X71960000Y-79011000D02*
X69859000Y-79011000D01*
X71960000Y-79731000D02*
X70124000Y-79731000D01*
X71960000Y-79251000D02*
X69926000Y-79251000D01*
X76141000Y-79011000D02*
X74040000Y-79011000D01*
X71960000Y-79651000D02*
X70084000Y-79651000D01*
X71960000Y-80531000D02*
X70695000Y-80531000D01*
X75044000Y-80771000D02*
X70956000Y-80771000D01*
X71960000Y-79851000D02*
X70188000Y-79851000D01*
X71960000Y-80291000D02*
X70484000Y-80291000D01*
X75416000Y-80411000D02*
X74040000Y-80411000D01*
X75952000Y-79571000D02*
X74040000Y-79571000D01*
X76033000Y-79371000D02*
X74040000Y-79371000D01*
X75265000Y-80571000D02*
X70735000Y-80571000D01*
X71960000Y-79691000D02*
X70104000Y-79691000D01*
X71960000Y-79971000D02*
X70258000Y-79971000D01*
X71960000Y-78770000D02*
X69811000Y-78770000D01*
X71960000Y-79171000D02*
X69902000Y-79171000D01*
X71960000Y-79331000D02*
X69953000Y-79331000D01*
X76175000Y-78850000D02*
X74040000Y-78850000D01*
X75607000Y-80171000D02*
X74040000Y-80171000D01*
X76215000Y-78570000D02*
X74040000Y-78570000D01*
X71960000Y-80211000D02*
X70422000Y-80211000D01*
X75578000Y-80211000D02*
X74040000Y-80211000D01*
X71960000Y-78650000D02*
X69794000Y-78650000D01*
X71960000Y-80491000D02*
X70657000Y-80491000D01*
X75450000Y-80371000D02*
X74040000Y-80371000D01*
X71960000Y-78570000D02*
X69785000Y-78570000D01*
X71960000Y-79611000D02*
X70066000Y-79611000D01*
X71960000Y-79771000D02*
X70144000Y-79771000D01*
X71960000Y-80451000D02*
X70620000Y-80451000D01*
X71960000Y-78890000D02*
X69833000Y-78890000D01*
X75305000Y-80531000D02*
X74040000Y-80531000D01*
X76018000Y-79411000D02*
X74040000Y-79411000D01*
X71960000Y-80011000D02*
X70284000Y-80011000D01*
X75834000Y-79811000D02*
X74040000Y-79811000D01*
X73633000Y-81451000D02*
X72367000Y-81451000D01*
X71960000Y-80131000D02*
X70364000Y-80131000D01*
X76230000Y-78330000D02*
X69770000Y-78330000D01*
X76061000Y-79291000D02*
X74040000Y-79291000D01*
X71960000Y-79091000D02*
X69879000Y-79091000D01*
X74944000Y-80851000D02*
X71056000Y-80851000D01*
X75856000Y-79771000D02*
X74040000Y-79771000D01*
X76201000Y-78690000D02*
X74040000Y-78690000D01*
X75934000Y-79611000D02*
X74040000Y-79611000D01*
X76189000Y-78770000D02*
X74040000Y-78770000D01*
X71960000Y-80251000D02*
X70452000Y-80251000D01*
X75896000Y-79691000D02*
X74040000Y-79691000D01*
X71960000Y-79931000D02*
X70234000Y-79931000D01*
X75716000Y-80011000D02*
X74040000Y-80011000D01*
X76218000Y-78530000D02*
X74040000Y-78530000D01*
X74509000Y-81131000D02*
X71491000Y-81131000D01*
X75690000Y-80051000D02*
X74040000Y-80051000D01*
X75154000Y-75064759D02*
X74524000Y-75064759D01*
X76230000Y-78250000D02*
X69770000Y-78250000D01*
X74890000Y-80891000D02*
X71110000Y-80891000D01*
X71960000Y-78850000D02*
X69825000Y-78850000D01*
X71960000Y-79291000D02*
X69939000Y-79291000D01*
X75548000Y-80251000D02*
X74040000Y-80251000D01*
X75766000Y-79931000D02*
X74040000Y-79931000D01*
X75182000Y-80651000D02*
X70818000Y-80651000D01*
X76150000Y-78971000D02*
X74040000Y-78971000D01*
X76131000Y-79051000D02*
X74040000Y-79051000D01*
X76002000Y-79451000D02*
X74040000Y-79451000D01*
X76110000Y-79131000D02*
X74040000Y-79131000D01*
X71960000Y-79211000D02*
X69914000Y-79211000D01*
X76211000Y-78610000D02*
X74040000Y-78610000D01*
X74650000Y-81051000D02*
X71350000Y-81051000D01*
X75790000Y-79891000D02*
X74040000Y-79891000D01*
X74839000Y-74749759D02*
X74839000Y-75379759D01*
X71960000Y-78530000D02*
X69782000Y-78530000D01*
X74776000Y-80971000D02*
X71224000Y-80971000D01*
X75380000Y-80451000D02*
X74040000Y-80451000D01*
X75986000Y-79491000D02*
X74040000Y-79491000D01*
X75742000Y-79971000D02*
X74040000Y-79971000D01*
X74165000Y-81291000D02*
X71835000Y-81291000D01*
X71960000Y-80051000D02*
X70310000Y-80051000D01*
X71960000Y-79891000D02*
X70210000Y-79891000D01*
X71960000Y-79451000D02*
X69998000Y-79451000D01*
X73940000Y-81371000D02*
X72060000Y-81371000D01*
X71960000Y-79051000D02*
X69869000Y-79051000D01*
X71960000Y-80411000D02*
X70584000Y-80411000D01*
X71960000Y-79371000D02*
X69967000Y-79371000D01*
X74262000Y-81251000D02*
X71738000Y-81251000D01*
X76206000Y-78650000D02*
X74040000Y-78650000D01*
X75970000Y-79531000D02*
X74040000Y-79531000D01*
X71960000Y-79571000D02*
X70048000Y-79571000D01*
X71960000Y-78490000D02*
X69778000Y-78490000D01*
X74995000Y-80811000D02*
X71005000Y-80811000D01*
X76121000Y-79091000D02*
X74040000Y-79091000D01*
X71960000Y-78690000D02*
X69799000Y-78690000D01*
X71960000Y-79131000D02*
X69890000Y-79131000D01*
X71960000Y-78610000D02*
X69789000Y-78610000D01*
X76195000Y-78730000D02*
X74040000Y-78730000D01*
X75484000Y-80331000D02*
X74040000Y-80331000D01*
X74432000Y-81171000D02*
X71568000Y-81171000D01*
X75343000Y-80491000D02*
X74040000Y-80491000D01*
X71960000Y-80371000D02*
X70550000Y-80371000D01*
X76227000Y-78410000D02*
X69773000Y-78410000D01*
X76167000Y-78890000D02*
X74040000Y-78890000D01*
X76047000Y-79331000D02*
X74040000Y-79331000D01*
X76086000Y-79211000D02*
X74040000Y-79211000D01*
X75664000Y-80091000D02*
X74040000Y-80091000D01*
X71960000Y-79531000D02*
X70030000Y-79531000D01*
X74714000Y-81011000D02*
X71286000Y-81011000D01*
X71960000Y-78810000D02*
X69818000Y-78810000D01*
X75876000Y-79731000D02*
X74040000Y-79731000D01*
X76159000Y-78930000D02*
X74040000Y-78930000D01*
X75516000Y-80291000D02*
X74040000Y-80291000D01*
X76074000Y-79251000D02*
X74040000Y-79251000D01*
X71960000Y-80091000D02*
X70336000Y-80091000D01*
X75636000Y-80131000D02*
X74040000Y-80131000D01*
X75137000Y-80691000D02*
X70863000Y-80691000D01*
X71960000Y-79491000D02*
X70014000Y-79491000D01*
X71960000Y-80331000D02*
X70516000Y-80331000D01*
X71960000Y-79411000D02*
X69982000Y-79411000D01*
X73402000Y-81491000D02*
X72598000Y-81491000D01*
X75916000Y-79651000D02*
X74040000Y-79651000D01*
X74834000Y-80931000D02*
X71166000Y-80931000D01*
X71960000Y-78930000D02*
X69841000Y-78930000D01*
X74350000Y-81211000D02*
X71650000Y-81211000D01*
X73802000Y-81411000D02*
X72198000Y-81411000D01*
X76224000Y-78450000D02*
X69776000Y-78450000D01*
X71960000Y-79811000D02*
X70166000Y-79811000D01*
X74059000Y-81331000D02*
X71941000Y-81331000D01*
X75812000Y-79851000D02*
X74040000Y-79851000D01*
X74581000Y-81091000D02*
X71419000Y-81091000D01*
X76098000Y-79171000D02*
X74040000Y-79171000D01*
X75092000Y-80731000D02*
X70908000Y-80731000D01*
X71960000Y-78971000D02*
X69850000Y-78971000D01*
X76222000Y-78490000D02*
X74040000Y-78490000D01*
X71960000Y-78730000D02*
X69805000Y-78730000D01*
X76228000Y-78370000D02*
X69772000Y-78370000D01*
X76270000Y-78250000D02*
G75*
G03*
X76270000Y-78250000I-3270000J0D01*
G01*
%TO.C,RV1*%
X58575000Y-63470000D02*
X68345000Y-63470000D01*
X58575000Y-68540000D02*
X68345000Y-68540000D01*
X58575000Y-63470000D02*
X58575000Y-68540000D01*
X68345000Y-63470000D02*
X68345000Y-68540000D01*
%TO.C,R16*%
X101060000Y-152870000D02*
X94520000Y-152870000D01*
X94520000Y-150130000D02*
X94520000Y-150460000D01*
X101060000Y-150460000D02*
X101060000Y-150130000D01*
X101060000Y-152540000D02*
X101060000Y-152870000D01*
X101060000Y-150130000D02*
X94520000Y-150130000D01*
X94520000Y-152870000D02*
X94520000Y-152540000D01*
%TO.C,C6*%
X86790000Y-90891000D02*
X85040000Y-90891000D01*
X87018000Y-90411000D02*
X85040000Y-90411000D01*
X87033000Y-90371000D02*
X85040000Y-90371000D01*
X82960000Y-90171000D02*
X80902000Y-90171000D01*
X86182000Y-91651000D02*
X81818000Y-91651000D01*
X86716000Y-91011000D02*
X85040000Y-91011000D01*
X82960000Y-90571000D02*
X81048000Y-90571000D01*
X86137000Y-91691000D02*
X81863000Y-91691000D01*
X82960000Y-89650000D02*
X80794000Y-89650000D01*
X82960000Y-91011000D02*
X81284000Y-91011000D01*
X86607000Y-91171000D02*
X85040000Y-91171000D01*
X85944000Y-91851000D02*
X82056000Y-91851000D01*
X82960000Y-89971000D02*
X80850000Y-89971000D01*
X82960000Y-91051000D02*
X81310000Y-91051000D01*
X82960000Y-89690000D02*
X80799000Y-89690000D01*
X82960000Y-89930000D02*
X80841000Y-89930000D01*
X82960000Y-89810000D02*
X80818000Y-89810000D01*
X82960000Y-89530000D02*
X80782000Y-89530000D01*
X86986000Y-90491000D02*
X85040000Y-90491000D01*
X82960000Y-89850000D02*
X80825000Y-89850000D01*
X87189000Y-89770000D02*
X85040000Y-89770000D01*
X85432000Y-92171000D02*
X82568000Y-92171000D01*
X82960000Y-91291000D02*
X81484000Y-91291000D01*
X86896000Y-90691000D02*
X85040000Y-90691000D01*
X87131000Y-90051000D02*
X85040000Y-90051000D01*
X82960000Y-90931000D02*
X81234000Y-90931000D01*
X86154000Y-86064759D02*
X85524000Y-86064759D01*
X87002000Y-90451000D02*
X85040000Y-90451000D01*
X87230000Y-89290000D02*
X80770000Y-89290000D01*
X82960000Y-89490000D02*
X80778000Y-89490000D01*
X86548000Y-91251000D02*
X85040000Y-91251000D01*
X82960000Y-90371000D02*
X80967000Y-90371000D01*
X87159000Y-89930000D02*
X85040000Y-89930000D01*
X82960000Y-91211000D02*
X81422000Y-91211000D01*
X82960000Y-90971000D02*
X81258000Y-90971000D01*
X86416000Y-91411000D02*
X85040000Y-91411000D01*
X82960000Y-90691000D02*
X81104000Y-90691000D01*
X86092000Y-91731000D02*
X81908000Y-91731000D01*
X86484000Y-91331000D02*
X85040000Y-91331000D01*
X87218000Y-89530000D02*
X85040000Y-89530000D01*
X87211000Y-89610000D02*
X85040000Y-89610000D01*
X82960000Y-90851000D02*
X81188000Y-90851000D01*
X82960000Y-91411000D02*
X81584000Y-91411000D01*
X86742000Y-90971000D02*
X85040000Y-90971000D01*
X82960000Y-91331000D02*
X81516000Y-91331000D01*
X86224000Y-91611000D02*
X81776000Y-91611000D01*
X87182000Y-89810000D02*
X85040000Y-89810000D01*
X85834000Y-91931000D02*
X82166000Y-91931000D01*
X82960000Y-91371000D02*
X81550000Y-91371000D01*
X87227000Y-89410000D02*
X80773000Y-89410000D01*
X84802000Y-92411000D02*
X83198000Y-92411000D01*
X86516000Y-91291000D02*
X85040000Y-91291000D01*
X86044000Y-91771000D02*
X81956000Y-91771000D01*
X82960000Y-89730000D02*
X80805000Y-89730000D01*
X87230000Y-89250000D02*
X80770000Y-89250000D01*
X82960000Y-91491000D02*
X81657000Y-91491000D01*
X87110000Y-90131000D02*
X85040000Y-90131000D01*
X85262000Y-92251000D02*
X82738000Y-92251000D01*
X82960000Y-89890000D02*
X80833000Y-89890000D01*
X85714000Y-92011000D02*
X82286000Y-92011000D01*
X82960000Y-90771000D02*
X81144000Y-90771000D01*
X87201000Y-89690000D02*
X85040000Y-89690000D01*
X86664000Y-91091000D02*
X85040000Y-91091000D01*
X82960000Y-90651000D02*
X81084000Y-90651000D01*
X82960000Y-90491000D02*
X81014000Y-90491000D01*
X85890000Y-91891000D02*
X82110000Y-91891000D01*
X85995000Y-91811000D02*
X82005000Y-91811000D01*
X87098000Y-90171000D02*
X85040000Y-90171000D01*
X85059000Y-92331000D02*
X82941000Y-92331000D01*
X84402000Y-92491000D02*
X83598000Y-92491000D01*
X82960000Y-90891000D02*
X81210000Y-90891000D01*
X87175000Y-89850000D02*
X85040000Y-89850000D01*
X82960000Y-89570000D02*
X80785000Y-89570000D01*
X86834000Y-90811000D02*
X85040000Y-90811000D01*
X87167000Y-89890000D02*
X85040000Y-89890000D01*
X87224000Y-89450000D02*
X80776000Y-89450000D01*
X85650000Y-92051000D02*
X82350000Y-92051000D01*
X87230000Y-89330000D02*
X80770000Y-89330000D01*
X86856000Y-90771000D02*
X85040000Y-90771000D01*
X82960000Y-89610000D02*
X80789000Y-89610000D01*
X85581000Y-92091000D02*
X82419000Y-92091000D01*
X85839000Y-85749759D02*
X85839000Y-86379759D01*
X86305000Y-91531000D02*
X85040000Y-91531000D01*
X82960000Y-90131000D02*
X80890000Y-90131000D01*
X87141000Y-90011000D02*
X85040000Y-90011000D01*
X86766000Y-90931000D02*
X85040000Y-90931000D01*
X87228000Y-89370000D02*
X80772000Y-89370000D01*
X87206000Y-89650000D02*
X85040000Y-89650000D01*
X87061000Y-90291000D02*
X85040000Y-90291000D01*
X82960000Y-90011000D02*
X80859000Y-90011000D01*
X87086000Y-90211000D02*
X85040000Y-90211000D01*
X82960000Y-91171000D02*
X81393000Y-91171000D01*
X86636000Y-91131000D02*
X85040000Y-91131000D01*
X85509000Y-92131000D02*
X82491000Y-92131000D01*
X87195000Y-89730000D02*
X85040000Y-89730000D01*
X82960000Y-91091000D02*
X81336000Y-91091000D01*
X82960000Y-90091000D02*
X80879000Y-90091000D01*
X86952000Y-90571000D02*
X85040000Y-90571000D01*
X82960000Y-90611000D02*
X81066000Y-90611000D01*
X87215000Y-89570000D02*
X85040000Y-89570000D01*
X82960000Y-90731000D02*
X81124000Y-90731000D01*
X85776000Y-91971000D02*
X82224000Y-91971000D01*
X82960000Y-90331000D02*
X80953000Y-90331000D01*
X84633000Y-92451000D02*
X83367000Y-92451000D01*
X86450000Y-91371000D02*
X85040000Y-91371000D01*
X82960000Y-91451000D02*
X81620000Y-91451000D01*
X85165000Y-92291000D02*
X82835000Y-92291000D01*
X84940000Y-92371000D02*
X83060000Y-92371000D01*
X86578000Y-91211000D02*
X85040000Y-91211000D01*
X82960000Y-90811000D02*
X81166000Y-90811000D01*
X82960000Y-90251000D02*
X80926000Y-90251000D01*
X82960000Y-91131000D02*
X81364000Y-91131000D01*
X82960000Y-90531000D02*
X81030000Y-90531000D01*
X86812000Y-90851000D02*
X85040000Y-90851000D01*
X82960000Y-90291000D02*
X80939000Y-90291000D01*
X87121000Y-90091000D02*
X85040000Y-90091000D01*
X86343000Y-91491000D02*
X85040000Y-91491000D01*
X87074000Y-90251000D02*
X85040000Y-90251000D01*
X82960000Y-89770000D02*
X80811000Y-89770000D01*
X86934000Y-90611000D02*
X85040000Y-90611000D01*
X86916000Y-90651000D02*
X85040000Y-90651000D01*
X86876000Y-90731000D02*
X85040000Y-90731000D01*
X86380000Y-91451000D02*
X85040000Y-91451000D01*
X82960000Y-91251000D02*
X81452000Y-91251000D01*
X82960000Y-90411000D02*
X80982000Y-90411000D01*
X87047000Y-90331000D02*
X85040000Y-90331000D01*
X82960000Y-90451000D02*
X80998000Y-90451000D01*
X85350000Y-92211000D02*
X82650000Y-92211000D01*
X86690000Y-91051000D02*
X85040000Y-91051000D01*
X82960000Y-91531000D02*
X81695000Y-91531000D01*
X82960000Y-90051000D02*
X80869000Y-90051000D01*
X86265000Y-91571000D02*
X81735000Y-91571000D01*
X86970000Y-90531000D02*
X85040000Y-90531000D01*
X87222000Y-89490000D02*
X85040000Y-89490000D01*
X87150000Y-89971000D02*
X85040000Y-89971000D01*
X82960000Y-90211000D02*
X80914000Y-90211000D01*
X87270000Y-89250000D02*
G75*
G03*
X87270000Y-89250000I-3270000J0D01*
G01*
%TO.C,R9*%
X218440000Y-122250000D02*
X218440000Y-121300000D01*
X217520000Y-121300000D02*
X219360000Y-121300000D01*
X218440000Y-116510000D02*
X218440000Y-117460000D01*
X219360000Y-117460000D02*
X217520000Y-117460000D01*
X219360000Y-121300000D02*
X219360000Y-117460000D01*
X217520000Y-117460000D02*
X217520000Y-121300000D01*
%TO.C,R10*%
X239630000Y-123270000D02*
X239960000Y-123270000D01*
X242040000Y-116730000D02*
X242370000Y-116730000D01*
X242370000Y-123270000D02*
X242040000Y-123270000D01*
X242370000Y-116730000D02*
X242370000Y-123270000D01*
X239960000Y-116730000D02*
X239630000Y-116730000D01*
X239630000Y-116730000D02*
X239630000Y-123270000D01*
%TO.C,J10*%
X175670000Y-142270000D02*
X175670000Y-142330000D01*
X175670000Y-139670000D02*
X177000000Y-139670000D01*
X175670000Y-142330000D02*
X178330000Y-142330000D01*
X175670000Y-142270000D02*
X178330000Y-142270000D01*
X175670000Y-141000000D02*
X175670000Y-139670000D01*
X178330000Y-142270000D02*
X178330000Y-142330000D01*
%TO.C,D12-LOW-TX-BATTERY1*%
X224080000Y-130790000D02*
X224399000Y-130790000D01*
X221601000Y-130790000D02*
X221920000Y-130790000D01*
X224398749Y-130790000D02*
G75*
G03*
X224080724Y-126486758I-1398749J2060000D01*
G01*
X224080000Y-130413330D02*
G75*
G03*
X224080961Y-127047287I-1080000J1683330D01*
G01*
X221919039Y-127047287D02*
G75*
G03*
X221920000Y-130413330I1080961J-1682713D01*
G01*
X221919276Y-126486758D02*
G75*
G03*
X221601251Y-130790000I1080724J-2243242D01*
G01*
%TO.C,J21*%
X165040000Y-134620000D02*
X165040000Y-134680000D01*
X165040000Y-134620000D02*
X167700000Y-134620000D01*
X167700000Y-134620000D02*
X167700000Y-134680000D01*
X165040000Y-134680000D02*
X167700000Y-134680000D01*
X165040000Y-133350000D02*
X165040000Y-132020000D01*
X165040000Y-132020000D02*
X166370000Y-132020000D01*
%TO.C,C14*%
X106550000Y-60629000D02*
X107960000Y-60629000D01*
X107110000Y-60109000D02*
X110890000Y-60109000D01*
X105914000Y-61789000D02*
X107960000Y-61789000D01*
X106084000Y-61349000D02*
X107960000Y-61349000D01*
X106336000Y-60909000D02*
X107960000Y-60909000D01*
X105770000Y-62750000D02*
X112230000Y-62750000D01*
X110040000Y-61789000D02*
X112086000Y-61789000D01*
X105926000Y-61749000D02*
X107960000Y-61749000D01*
X108598000Y-59509000D02*
X109402000Y-59509000D01*
X105850000Y-62029000D02*
X107960000Y-62029000D01*
X106166000Y-61189000D02*
X107960000Y-61189000D01*
X106284000Y-60989000D02*
X107960000Y-60989000D01*
X110040000Y-61749000D02*
X112074000Y-61749000D01*
X108367000Y-59549000D02*
X109633000Y-59549000D01*
X105902000Y-61829000D02*
X107960000Y-61829000D01*
X105772000Y-62630000D02*
X112228000Y-62630000D01*
X107056000Y-60149000D02*
X110944000Y-60149000D01*
X105998000Y-61549000D02*
X107960000Y-61549000D01*
X110040000Y-61669000D02*
X112047000Y-61669000D01*
X110040000Y-61549000D02*
X112002000Y-61549000D01*
X110040000Y-61589000D02*
X112018000Y-61589000D01*
X107419000Y-59909000D02*
X110581000Y-59909000D01*
X106188000Y-61149000D02*
X107960000Y-61149000D01*
X110040000Y-62190000D02*
X112182000Y-62190000D01*
X107161000Y-66250241D02*
X107161000Y-65620241D01*
X105778000Y-62510000D02*
X107960000Y-62510000D01*
X110040000Y-62070000D02*
X112159000Y-62070000D01*
X106104000Y-61309000D02*
X107960000Y-61309000D01*
X110040000Y-60869000D02*
X111636000Y-60869000D01*
X110040000Y-61869000D02*
X112110000Y-61869000D01*
X110040000Y-60829000D02*
X111607000Y-60829000D01*
X105841000Y-62070000D02*
X107960000Y-62070000D01*
X110040000Y-62390000D02*
X112211000Y-62390000D01*
X107568000Y-59829000D02*
X110432000Y-59829000D01*
X105794000Y-62350000D02*
X107960000Y-62350000D01*
X106452000Y-60749000D02*
X107960000Y-60749000D01*
X110040000Y-60789000D02*
X111578000Y-60789000D01*
X105773000Y-62590000D02*
X112227000Y-62590000D01*
X106908000Y-60269000D02*
X111092000Y-60269000D01*
X110040000Y-62430000D02*
X112215000Y-62430000D01*
X110040000Y-62510000D02*
X112222000Y-62510000D01*
X106234000Y-61069000D02*
X107960000Y-61069000D01*
X107491000Y-59869000D02*
X110509000Y-59869000D01*
X106846000Y-65935241D02*
X107476000Y-65935241D01*
X110040000Y-60749000D02*
X111548000Y-60749000D01*
X110040000Y-61909000D02*
X112121000Y-61909000D01*
X110040000Y-60709000D02*
X111516000Y-60709000D01*
X110040000Y-60589000D02*
X111416000Y-60589000D01*
X110040000Y-61189000D02*
X111834000Y-61189000D01*
X106516000Y-60669000D02*
X107960000Y-60669000D01*
X110040000Y-61389000D02*
X111934000Y-61389000D01*
X107835000Y-59709000D02*
X110165000Y-59709000D01*
X106258000Y-61029000D02*
X107960000Y-61029000D01*
X110040000Y-62350000D02*
X112206000Y-62350000D01*
X106584000Y-60589000D02*
X107960000Y-60589000D01*
X105859000Y-61989000D02*
X107960000Y-61989000D01*
X110040000Y-61989000D02*
X112141000Y-61989000D01*
X105939000Y-61709000D02*
X107960000Y-61709000D01*
X110040000Y-62270000D02*
X112195000Y-62270000D01*
X107166000Y-60069000D02*
X110834000Y-60069000D01*
X105818000Y-62190000D02*
X107960000Y-62190000D01*
X105833000Y-62110000D02*
X107960000Y-62110000D01*
X110040000Y-61629000D02*
X112033000Y-61629000D01*
X106735000Y-60429000D02*
X111265000Y-60429000D01*
X110040000Y-60669000D02*
X111484000Y-60669000D01*
X107224000Y-60029000D02*
X110776000Y-60029000D01*
X110040000Y-61309000D02*
X111896000Y-61309000D01*
X105953000Y-61669000D02*
X107960000Y-61669000D01*
X110040000Y-60549000D02*
X111380000Y-60549000D01*
X106484000Y-60709000D02*
X107960000Y-60709000D01*
X110040000Y-61949000D02*
X112131000Y-61949000D01*
X106048000Y-61429000D02*
X107960000Y-61429000D01*
X110040000Y-61029000D02*
X111742000Y-61029000D01*
X106124000Y-61269000D02*
X107960000Y-61269000D01*
X106695000Y-60469000D02*
X107960000Y-60469000D01*
X107286000Y-59989000D02*
X110714000Y-59989000D01*
X105825000Y-62150000D02*
X107960000Y-62150000D01*
X105890000Y-61869000D02*
X107960000Y-61869000D01*
X110040000Y-61149000D02*
X111812000Y-61149000D01*
X110040000Y-60909000D02*
X111664000Y-60909000D01*
X105799000Y-62310000D02*
X107960000Y-62310000D01*
X105776000Y-62550000D02*
X112224000Y-62550000D01*
X106014000Y-61509000D02*
X107960000Y-61509000D01*
X107941000Y-59669000D02*
X110059000Y-59669000D01*
X107650000Y-59789000D02*
X110350000Y-59789000D01*
X106393000Y-60829000D02*
X107960000Y-60829000D01*
X110040000Y-61349000D02*
X111916000Y-61349000D01*
X110040000Y-61229000D02*
X111856000Y-61229000D01*
X110040000Y-62150000D02*
X112175000Y-62150000D01*
X108198000Y-59589000D02*
X109802000Y-59589000D01*
X105805000Y-62270000D02*
X107960000Y-62270000D01*
X105782000Y-62470000D02*
X107960000Y-62470000D01*
X106863000Y-60309000D02*
X111137000Y-60309000D01*
X110040000Y-61469000D02*
X111970000Y-61469000D01*
X105785000Y-62430000D02*
X107960000Y-62430000D01*
X110040000Y-62470000D02*
X112218000Y-62470000D01*
X110040000Y-61109000D02*
X111790000Y-61109000D01*
X105811000Y-62230000D02*
X107960000Y-62230000D01*
X110040000Y-61069000D02*
X111766000Y-61069000D01*
X105967000Y-61629000D02*
X107960000Y-61629000D01*
X106422000Y-60789000D02*
X107960000Y-60789000D01*
X110040000Y-61829000D02*
X112098000Y-61829000D01*
X110040000Y-60469000D02*
X111305000Y-60469000D01*
X110040000Y-61429000D02*
X111952000Y-61429000D01*
X106956000Y-60229000D02*
X111044000Y-60229000D01*
X110040000Y-60949000D02*
X111690000Y-60949000D01*
X106310000Y-60949000D02*
X107960000Y-60949000D01*
X106657000Y-60509000D02*
X107960000Y-60509000D01*
X105869000Y-61949000D02*
X107960000Y-61949000D01*
X106776000Y-60389000D02*
X111224000Y-60389000D01*
X106818000Y-60349000D02*
X111182000Y-60349000D01*
X107350000Y-59949000D02*
X110650000Y-59949000D01*
X107738000Y-59749000D02*
X110262000Y-59749000D01*
X108060000Y-59629000D02*
X109940000Y-59629000D01*
X110040000Y-61509000D02*
X111986000Y-61509000D01*
X106030000Y-61469000D02*
X107960000Y-61469000D01*
X106620000Y-60549000D02*
X107960000Y-60549000D01*
X110040000Y-62029000D02*
X112150000Y-62029000D01*
X110040000Y-62230000D02*
X112189000Y-62230000D01*
X110040000Y-62310000D02*
X112201000Y-62310000D01*
X106210000Y-61109000D02*
X107960000Y-61109000D01*
X105770000Y-62710000D02*
X112230000Y-62710000D01*
X105879000Y-61909000D02*
X107960000Y-61909000D01*
X110040000Y-61709000D02*
X112061000Y-61709000D01*
X110040000Y-61269000D02*
X111876000Y-61269000D01*
X110040000Y-60989000D02*
X111716000Y-60989000D01*
X107005000Y-60189000D02*
X110995000Y-60189000D01*
X106066000Y-61389000D02*
X107960000Y-61389000D01*
X106364000Y-60869000D02*
X107960000Y-60869000D01*
X105789000Y-62390000D02*
X107960000Y-62390000D01*
X110040000Y-60509000D02*
X111343000Y-60509000D01*
X105770000Y-62670000D02*
X112230000Y-62670000D01*
X110040000Y-60629000D02*
X111450000Y-60629000D01*
X110040000Y-62110000D02*
X112167000Y-62110000D01*
X106144000Y-61229000D02*
X107960000Y-61229000D01*
X105982000Y-61589000D02*
X107960000Y-61589000D01*
X112270000Y-62750000D02*
G75*
G03*
X112270000Y-62750000I-3270000J0D01*
G01*
%TO.C,U2*%
X61160000Y-72670000D02*
X61160000Y-82950000D01*
X61160000Y-82950000D02*
X66460000Y-82950000D01*
X66460000Y-72670000D02*
X64810000Y-72670000D01*
X62810000Y-72670000D02*
X61160000Y-72670000D01*
X66460000Y-82950000D02*
X66460000Y-72670000D01*
X62810000Y-72670000D02*
G75*
G03*
X64810000Y-72670000I1000000J0D01*
G01*
%TO.C,C4*%
X61370000Y-83880000D02*
X58630000Y-83880000D01*
X58630000Y-83880000D02*
X58630000Y-92120000D01*
X61370000Y-83880000D02*
X61370000Y-92120000D01*
X61370000Y-92120000D02*
X58630000Y-92120000D01*
%TO.C,J16*%
X65301000Y-99400000D02*
X65301000Y-109680000D01*
X68261000Y-109680000D02*
X58340000Y-109680000D01*
X58840000Y-99160000D02*
X58100000Y-99160000D01*
X68261000Y-99400000D02*
X68261000Y-109680000D01*
X64275000Y-108150000D02*
X64239000Y-108115000D01*
X64069000Y-108355000D02*
X64023000Y-108308000D01*
X68261000Y-99400000D02*
X58340000Y-99400000D01*
X60400000Y-99400000D02*
X60400000Y-109680000D01*
X58900000Y-99400000D02*
X58900000Y-109680000D01*
X58340000Y-99400000D02*
X58340000Y-109680000D01*
X58100000Y-99160000D02*
X58100000Y-99660000D01*
X61977000Y-105853000D02*
X61931000Y-105806000D01*
X61761000Y-106046000D02*
X61726000Y-106011000D01*
X64535000Y-102684000D02*
G75*
G03*
X64535427Y-101316958I-1534993J684001D01*
G01*
X63684000Y-100465000D02*
G75*
G03*
X62316958Y-100464573I-684001J-1534993D01*
G01*
X61320000Y-102000000D02*
G75*
G03*
X61465244Y-102683318I1680000J0D01*
G01*
X62316000Y-103535001D02*
G75*
G03*
X63683042Y-103535427I684000J1535001D01*
G01*
X61465000Y-101316000D02*
G75*
G03*
X61319747Y-102028805I1535001J-683999D01*
G01*
X64680000Y-107080000D02*
G75*
G03*
X64680000Y-107080000I-1680000J0D01*
G01*
%TO.C,C11*%
X90120000Y-74370000D02*
X81880000Y-74370000D01*
X90120000Y-74370000D02*
X90120000Y-71630000D01*
X81880000Y-74370000D02*
X81880000Y-71630000D01*
X90120000Y-71630000D02*
X81880000Y-71630000D01*
%TO.C,C1*%
X209880000Y-83370000D02*
X209880000Y-80630000D01*
X218120000Y-83370000D02*
X218120000Y-80630000D01*
X218120000Y-80630000D02*
X209880000Y-80630000D01*
X218120000Y-83370000D02*
X209880000Y-83370000D01*
%TO.C,D4*%
X114120000Y-81910000D02*
X111880000Y-81910000D01*
X113000000Y-85960000D02*
X113000000Y-85310000D01*
X111880000Y-81070000D02*
X111880000Y-85310000D01*
X114120000Y-81070000D02*
X111880000Y-81070000D01*
X114120000Y-81790000D02*
X111880000Y-81790000D01*
X111880000Y-85310000D02*
X114120000Y-85310000D01*
X113000000Y-80420000D02*
X113000000Y-81070000D01*
X114120000Y-81670000D02*
X111880000Y-81670000D01*
X114120000Y-85310000D02*
X114120000Y-81070000D01*
%TO.C,K3*%
X35210000Y-135367500D02*
X35210000Y-136567500D01*
X35210000Y-136567500D02*
X35910000Y-136567500D01*
X35910000Y-136567500D02*
X35910000Y-135367500D01*
X40060000Y-135967500D02*
X36910000Y-135967500D01*
X35910000Y-135367500D02*
X35210000Y-135367500D01*
X43910000Y-140817500D02*
X43910000Y-118117500D01*
X27210000Y-118117500D02*
X27210000Y-140817500D01*
X34210000Y-135967500D02*
X31060000Y-135967500D01*
X36560000Y-141077500D02*
X34560000Y-141077500D01*
X35910000Y-135767500D02*
X35210000Y-136167500D01*
X27210000Y-140817500D02*
X43910000Y-140817500D01*
X43910000Y-118117500D02*
X27210000Y-118117500D01*
%TO.C,R8*%
X104060000Y-136450000D02*
X108800000Y-136450000D01*
X106430000Y-139100000D02*
X106430000Y-136450000D01*
X106430000Y-121660000D02*
X106430000Y-124310000D01*
X104060000Y-124310000D02*
X104060000Y-136450000D01*
X108800000Y-136450000D02*
X108800000Y-124310000D01*
X108800000Y-124310000D02*
X104060000Y-124310000D01*
%TO.C,R11*%
X233630000Y-123270000D02*
X233960000Y-123270000D01*
X236370000Y-123270000D02*
X236040000Y-123270000D01*
X236040000Y-116730000D02*
X236370000Y-116730000D01*
X236370000Y-116730000D02*
X236370000Y-123270000D01*
X233630000Y-116730000D02*
X233630000Y-123270000D01*
X233960000Y-116730000D02*
X233630000Y-116730000D01*
%TO.C,J11*%
X39301000Y-71400000D02*
X39301000Y-81680000D01*
X32340000Y-71400000D02*
X32340000Y-81680000D01*
X38275000Y-80150000D02*
X38239000Y-80115000D01*
X42261000Y-71400000D02*
X42261000Y-81680000D01*
X42261000Y-81680000D02*
X32340000Y-81680000D01*
X35761000Y-78046000D02*
X35726000Y-78011000D01*
X32100000Y-71160000D02*
X32100000Y-71660000D01*
X32900000Y-71400000D02*
X32900000Y-81680000D01*
X42261000Y-71400000D02*
X32340000Y-71400000D01*
X38069000Y-80355000D02*
X38023000Y-80308000D01*
X35977000Y-77853000D02*
X35931000Y-77806000D01*
X32840000Y-71160000D02*
X32100000Y-71160000D01*
X34400000Y-71400000D02*
X34400000Y-81680000D01*
X37684000Y-72465000D02*
G75*
G03*
X36316958Y-72464573I-684001J-1534993D01*
G01*
X35465000Y-73316000D02*
G75*
G03*
X35319747Y-74028805I1535001J-683999D01*
G01*
X36316000Y-75535001D02*
G75*
G03*
X37683042Y-75535427I684000J1535001D01*
G01*
X35320000Y-74000000D02*
G75*
G03*
X35465244Y-74683318I1680000J0D01*
G01*
X38535000Y-74684000D02*
G75*
G03*
X38535427Y-73316958I-1534993J684001D01*
G01*
X38680000Y-79080000D02*
G75*
G03*
X38680000Y-79080000I-1680000J0D01*
G01*
%TO.C,C12*%
X87986000Y-68491000D02*
X86040000Y-68491000D01*
X83960000Y-69331000D02*
X82516000Y-69331000D01*
X87856000Y-68771000D02*
X86040000Y-68771000D01*
X88018000Y-68411000D02*
X86040000Y-68411000D01*
X85402000Y-70491000D02*
X84598000Y-70491000D01*
X86839000Y-63749759D02*
X86839000Y-64379759D01*
X83960000Y-68771000D02*
X82144000Y-68771000D01*
X83960000Y-69171000D02*
X82393000Y-69171000D01*
X86944000Y-69851000D02*
X83056000Y-69851000D01*
X88074000Y-68251000D02*
X86040000Y-68251000D01*
X87343000Y-69491000D02*
X86040000Y-69491000D01*
X83960000Y-68451000D02*
X81998000Y-68451000D01*
X83960000Y-68131000D02*
X81890000Y-68131000D01*
X83960000Y-68171000D02*
X81902000Y-68171000D01*
X88211000Y-67610000D02*
X86040000Y-67610000D01*
X88167000Y-67890000D02*
X86040000Y-67890000D01*
X87876000Y-68731000D02*
X86040000Y-68731000D01*
X88218000Y-67530000D02*
X86040000Y-67530000D01*
X88131000Y-68051000D02*
X86040000Y-68051000D01*
X83960000Y-67810000D02*
X81818000Y-67810000D01*
X86581000Y-70091000D02*
X83419000Y-70091000D01*
X83960000Y-67690000D02*
X81799000Y-67690000D01*
X87916000Y-68651000D02*
X86040000Y-68651000D01*
X88150000Y-67971000D02*
X86040000Y-67971000D01*
X83960000Y-68371000D02*
X81967000Y-68371000D01*
X83960000Y-68851000D02*
X82188000Y-68851000D01*
X87305000Y-69531000D02*
X86040000Y-69531000D01*
X88228000Y-67370000D02*
X81772000Y-67370000D01*
X86350000Y-70211000D02*
X83650000Y-70211000D01*
X85802000Y-70411000D02*
X84198000Y-70411000D01*
X87766000Y-68931000D02*
X86040000Y-68931000D01*
X86059000Y-70331000D02*
X83941000Y-70331000D01*
X88215000Y-67570000D02*
X86040000Y-67570000D01*
X87137000Y-69691000D02*
X82863000Y-69691000D01*
X88201000Y-67690000D02*
X86040000Y-67690000D01*
X86834000Y-69931000D02*
X83166000Y-69931000D01*
X83960000Y-68611000D02*
X82066000Y-68611000D01*
X83960000Y-69051000D02*
X82310000Y-69051000D01*
X86714000Y-70011000D02*
X83286000Y-70011000D01*
X88230000Y-67290000D02*
X81770000Y-67290000D01*
X87690000Y-69051000D02*
X86040000Y-69051000D01*
X83960000Y-67610000D02*
X81789000Y-67610000D01*
X88230000Y-67330000D02*
X81770000Y-67330000D01*
X87952000Y-68571000D02*
X86040000Y-68571000D01*
X88098000Y-68171000D02*
X86040000Y-68171000D01*
X83960000Y-68251000D02*
X81926000Y-68251000D01*
X83960000Y-68811000D02*
X82166000Y-68811000D01*
X88141000Y-68011000D02*
X86040000Y-68011000D01*
X83960000Y-68411000D02*
X81982000Y-68411000D01*
X88206000Y-67650000D02*
X86040000Y-67650000D01*
X88224000Y-67450000D02*
X81776000Y-67450000D01*
X83960000Y-67530000D02*
X81782000Y-67530000D01*
X83960000Y-69531000D02*
X82695000Y-69531000D01*
X88175000Y-67850000D02*
X86040000Y-67850000D01*
X87742000Y-68971000D02*
X86040000Y-68971000D01*
X83960000Y-67930000D02*
X81841000Y-67930000D01*
X87416000Y-69411000D02*
X86040000Y-69411000D01*
X87834000Y-68811000D02*
X86040000Y-68811000D01*
X86509000Y-70131000D02*
X83491000Y-70131000D01*
X88002000Y-68451000D02*
X86040000Y-68451000D01*
X83960000Y-67850000D02*
X81825000Y-67850000D01*
X83960000Y-69251000D02*
X82452000Y-69251000D01*
X87265000Y-69571000D02*
X82735000Y-69571000D01*
X83960000Y-68691000D02*
X82104000Y-68691000D01*
X83960000Y-68971000D02*
X82258000Y-68971000D01*
X83960000Y-69291000D02*
X82484000Y-69291000D01*
X87664000Y-69091000D02*
X86040000Y-69091000D01*
X83960000Y-69011000D02*
X82284000Y-69011000D01*
X87716000Y-69011000D02*
X86040000Y-69011000D01*
X83960000Y-68531000D02*
X82030000Y-68531000D01*
X88086000Y-68211000D02*
X86040000Y-68211000D01*
X88159000Y-67930000D02*
X86040000Y-67930000D01*
X87154000Y-64064759D02*
X86524000Y-64064759D01*
X85940000Y-70371000D02*
X84060000Y-70371000D01*
X87484000Y-69331000D02*
X86040000Y-69331000D01*
X83960000Y-67971000D02*
X81850000Y-67971000D01*
X87607000Y-69171000D02*
X86040000Y-69171000D01*
X87578000Y-69211000D02*
X86040000Y-69211000D01*
X83960000Y-69491000D02*
X82657000Y-69491000D01*
X87182000Y-69651000D02*
X82818000Y-69651000D01*
X83960000Y-68491000D02*
X82014000Y-68491000D01*
X88047000Y-68331000D02*
X86040000Y-68331000D01*
X83960000Y-69411000D02*
X82584000Y-69411000D01*
X83960000Y-67770000D02*
X81811000Y-67770000D01*
X83960000Y-69211000D02*
X82422000Y-69211000D01*
X83960000Y-68891000D02*
X82210000Y-68891000D01*
X83960000Y-68211000D02*
X81914000Y-68211000D01*
X88110000Y-68131000D02*
X86040000Y-68131000D01*
X83960000Y-68571000D02*
X82048000Y-68571000D01*
X87092000Y-69731000D02*
X82908000Y-69731000D01*
X88182000Y-67810000D02*
X86040000Y-67810000D01*
X87970000Y-68531000D02*
X86040000Y-68531000D01*
X83960000Y-68291000D02*
X81939000Y-68291000D01*
X86165000Y-70291000D02*
X83835000Y-70291000D01*
X87790000Y-68891000D02*
X86040000Y-68891000D01*
X83960000Y-67730000D02*
X81805000Y-67730000D01*
X83960000Y-68651000D02*
X82084000Y-68651000D01*
X87636000Y-69131000D02*
X86040000Y-69131000D01*
X83960000Y-67650000D02*
X81794000Y-67650000D01*
X86890000Y-69891000D02*
X83110000Y-69891000D01*
X87224000Y-69611000D02*
X82776000Y-69611000D01*
X88061000Y-68291000D02*
X86040000Y-68291000D01*
X87812000Y-68851000D02*
X86040000Y-68851000D01*
X83960000Y-68091000D02*
X81879000Y-68091000D01*
X83960000Y-69371000D02*
X82550000Y-69371000D01*
X83960000Y-68051000D02*
X81869000Y-68051000D01*
X88230000Y-67250000D02*
X81770000Y-67250000D01*
X86776000Y-69971000D02*
X83224000Y-69971000D01*
X83960000Y-69451000D02*
X82620000Y-69451000D01*
X87934000Y-68611000D02*
X86040000Y-68611000D01*
X83960000Y-67890000D02*
X81833000Y-67890000D01*
X83960000Y-69131000D02*
X82364000Y-69131000D01*
X88189000Y-67770000D02*
X86040000Y-67770000D01*
X83960000Y-69091000D02*
X82336000Y-69091000D01*
X85633000Y-70451000D02*
X84367000Y-70451000D01*
X88121000Y-68091000D02*
X86040000Y-68091000D01*
X87516000Y-69291000D02*
X86040000Y-69291000D01*
X86995000Y-69811000D02*
X83005000Y-69811000D01*
X83960000Y-68931000D02*
X82234000Y-68931000D01*
X87450000Y-69371000D02*
X86040000Y-69371000D01*
X83960000Y-68331000D02*
X81953000Y-68331000D01*
X86262000Y-70251000D02*
X83738000Y-70251000D01*
X86650000Y-70051000D02*
X83350000Y-70051000D01*
X83960000Y-67570000D02*
X81785000Y-67570000D01*
X83960000Y-67490000D02*
X81778000Y-67490000D01*
X86432000Y-70171000D02*
X83568000Y-70171000D01*
X87896000Y-68691000D02*
X86040000Y-68691000D01*
X88033000Y-68371000D02*
X86040000Y-68371000D01*
X88222000Y-67490000D02*
X86040000Y-67490000D01*
X87380000Y-69451000D02*
X86040000Y-69451000D01*
X83960000Y-68011000D02*
X81859000Y-68011000D01*
X88195000Y-67730000D02*
X86040000Y-67730000D01*
X83960000Y-68731000D02*
X82124000Y-68731000D01*
X87044000Y-69771000D02*
X82956000Y-69771000D01*
X87548000Y-69251000D02*
X86040000Y-69251000D01*
X88227000Y-67410000D02*
X81773000Y-67410000D01*
X88270000Y-67250000D02*
G75*
G03*
X88270000Y-67250000I-3270000J0D01*
G01*
%TO.C,J15*%
X138430000Y-120710000D02*
X137100000Y-120710000D01*
X139700000Y-120710000D02*
X139700000Y-118050000D01*
X139700000Y-118050000D02*
X157540000Y-118050000D01*
X139700000Y-120710000D02*
X157540000Y-120710000D01*
X137100000Y-120710000D02*
X137100000Y-119380000D01*
X157540000Y-120710000D02*
X157540000Y-118050000D01*
%TO.C,K5*%
X52990000Y-136567500D02*
X53690000Y-136567500D01*
X53690000Y-136567500D02*
X53690000Y-135367500D01*
X44990000Y-140817500D02*
X61690000Y-140817500D01*
X51990000Y-135967500D02*
X48840000Y-135967500D01*
X57840000Y-135967500D02*
X54690000Y-135967500D01*
X54340000Y-141077500D02*
X52340000Y-141077500D01*
X61690000Y-118117500D02*
X44990000Y-118117500D01*
X52990000Y-135367500D02*
X52990000Y-136567500D01*
X44990000Y-118117500D02*
X44990000Y-140817500D01*
X53690000Y-135767500D02*
X52990000Y-136167500D01*
X61690000Y-140817500D02*
X61690000Y-118117500D01*
X53690000Y-135367500D02*
X52990000Y-135367500D01*
%TO.C,Q2*%
X211500000Y-66460000D02*
X207650000Y-66460000D01*
X207650000Y-66460000D02*
G75*
G03*
X207257617Y-67047736I1910000J-1700000D01*
G01*
X211882631Y-67037955D02*
G75*
G03*
X211500000Y-66460000I-2322631J-1122045D01*
G01*
X210650000Y-70509999D02*
G75*
G03*
X211907774Y-69254786I-1090000J2349999D01*
G01*
X207223537Y-69249513D02*
G75*
G03*
X208500000Y-70510000I2336463J1089513D01*
G01*
%TD*%
M02*
