; NON-PLATED HOLES START AT T1
; THROUGH (PLATED) HOLES START AT T100
M48
INCH
T1C0.125984
T100C0.032000
T101C0.040639
T102C0.045969
T103C0.035000
T104C0.039370
T105C0.059055
T106C0.030000
%
T1
X042497Y001865
X023009Y024700
X023206Y001865
X042497Y024700
T100
X009214Y018597
X012223Y018647
X015223Y018647
X012223Y021647
X014223Y018647
X010214Y018597
X007214Y018597
X008214Y021597
X014223Y021647
X013223Y021647
X015223Y021647
X009214Y021597
X008214Y018597
X007214Y021597
X010214Y021597
X013223Y018647
T101
X022458Y022743
X022458Y018743
X023458Y013743
X022458Y021743
X023458Y020743
X023458Y008743
X022458Y004743
X023458Y014743
X022458Y006743
X022458Y016743
X022458Y019743
X022458Y008743
X023458Y019743
X022458Y017743
X023458Y021743
X022458Y013743
X023458Y004743
X022458Y014743
X023458Y016743
X022458Y007743
X023458Y007743
X023458Y012743
X022458Y011743
X023458Y010743
X022458Y005743
X022458Y015743
X023458Y018743
X023458Y015743
X023458Y011743
X023458Y017743
X023458Y022743
X022458Y020743
X023458Y005743
X022458Y010743
X023458Y009743
X022458Y009743
X023458Y003743
X022458Y003743
X022458Y012743
X023458Y006743
T102
X001749Y009936
X004427Y009936
X003639Y009936
X002852Y009936
X000962Y009936
T103
X030458Y009743
X033458Y006743
X002143Y020959
X033458Y003743
X039958Y014743
X046958Y017243
X044458Y020743
X010608Y002951
X039958Y009743
X033458Y002743
X030458Y006743
X045458Y015243
X008241Y023713
X010671Y024700
X006133Y022285
X048458Y011243
X030458Y010743
X016608Y008951
X045458Y020743
X016608Y001951
X030458Y004743
X006671Y024700
X043458Y020743
X048458Y015243
X010608Y010951
X016235Y024647
X010608Y008951
X046958Y021243
X048458Y009243
X043958Y014743
X045458Y006743
X012235Y024647
X006143Y018597
X033458Y007743
X044458Y017743
X048458Y012243
X002133Y022285
X045458Y009243
X045458Y012243
X048458Y005743
X016608Y000951
X033458Y005743
X016608Y002951
X030458Y003743
X033458Y009743
X043958Y009743
X006143Y020959
X045458Y011243
X012241Y023713
X048458Y006743
X043458Y017743
X042458Y020743
X010608Y001951
X033458Y004743
X030458Y005743
X045458Y005743
X030458Y002743
X033458Y008743
X045458Y017743
X016608Y010951
X030458Y008743
X033458Y010743
X030458Y007743
X048458Y014243
X045458Y008243
X002143Y018597
X045458Y014243
X042458Y017743
X048458Y008243
T104
X030458Y017243
X018281Y021280
X018281Y017280
X018281Y020280
X038757Y005408
X035458Y017243
X018281Y015280
X029458Y017243
X018281Y016280
X034458Y017243
X018281Y022280
X018281Y014280
X018281Y018280
X031458Y017243
X018281Y019280
X039757Y004408
X018281Y013280
X038757Y006408
X039757Y006408
X033458Y017243
X038757Y004408
X026458Y017243
X032458Y017243
X039757Y005408
X028458Y017243
X027458Y017243
T105
X007686Y004227
X001686Y004227
X050143Y021747
X050175Y004227
X052143Y021747
X052175Y004227
X004309Y016235
X003686Y004227
X004309Y014235
X005686Y004227
T106
X014794Y017757
X010070Y017757
X042456Y016743
X009361Y017049
X043458Y016743
X014086Y017049
T00
M30
